G04*
G04 #@! TF.GenerationSoftware,Altium Limited,Altium Designer,20.2.3 (150)*
G04*
G04 Layer_Color=128*
%FSLAX25Y25*%
%MOIN*%
G70*
G04*
G04 #@! TF.SameCoordinates,EBBBD63C-4F16-4FE1-BE59-5CF438A8D42D*
G04*
G04*
G04 #@! TF.FilePolarity,Positive*
G04*
G01*
G75*
%ADD22C,0.01000*%
%ADD24C,0.00787*%
D22*
X363205Y325896D02*
Y321897D01*
X365204Y319898D01*
X367203Y321897D01*
Y325896D01*
X369203Y322897D02*
X373201D01*
X379200Y324896D02*
X378200Y325896D01*
X376201D01*
X375201Y324896D01*
Y320897D01*
X376201Y319898D01*
X378200D01*
X379200Y320897D01*
X381199Y325896D02*
Y320897D01*
X382199Y319898D01*
X384198D01*
X385198Y320897D01*
Y325896D01*
X387197D02*
X391196D01*
X389196D01*
Y319898D01*
D24*
X330709Y-0D02*
G03*
X334646Y3937I0J3937D01*
G01*
X271654Y3937D02*
G03*
X275590Y0I3937J0D01*
G01*
X267717Y-0D02*
G03*
X271654Y3937I0J3937D01*
G01*
X208661Y3937D02*
G03*
X212598Y0I3937J0D01*
G01*
X204724Y-0D02*
G03*
X208661Y3937I0J3937D01*
G01*
X145669Y3937D02*
G03*
X149606Y0I3937J0D01*
G01*
X141732Y-0D02*
G03*
X145669Y3937I0J3937D01*
G01*
X82677Y3937D02*
G03*
X86614Y0I3937J0D01*
G01*
X78740Y-0D02*
G03*
X82677Y3937I0J3937D01*
G01*
X19685Y3937D02*
G03*
X23622Y0I3937J0D01*
G01*
X23622Y157480D02*
G03*
X19685Y153543I0J-3937D01*
G01*
X82677D02*
G03*
X78740Y157480I-3937J0D01*
G01*
X86614D02*
G03*
X82677Y153543I0J-3937D01*
G01*
X145669D02*
G03*
X141732Y157480I-3937J0D01*
G01*
X149606D02*
G03*
X145669Y153543I0J-3937D01*
G01*
X208661D02*
G03*
X204724Y157480I-3937J0D01*
G01*
X212598D02*
G03*
X208661Y153543I0J-3937D01*
G01*
X271654D02*
G03*
X267717Y157480I-3937J0D01*
G01*
X275590D02*
G03*
X271654Y153543I0J-3937D01*
G01*
X334646D02*
G03*
X330709Y157480I-3937J0D01*
G01*
X330709Y157480D02*
G03*
X334646Y161417I0J3937D01*
G01*
X271654Y161417D02*
G03*
X275590Y157480I3937J0D01*
G01*
X267717Y157480D02*
G03*
X271654Y161417I0J3937D01*
G01*
X208661Y161417D02*
G03*
X212598Y157480I3937J0D01*
G01*
X204724Y157480D02*
G03*
X208661Y161417I0J3937D01*
G01*
X145669Y161417D02*
G03*
X149606Y157480I3937J0D01*
G01*
X141732Y157480D02*
G03*
X145669Y161417I0J3937D01*
G01*
X82677Y161417D02*
G03*
X86614Y157480I3937J0D01*
G01*
X78740Y157480D02*
G03*
X82677Y161417I0J3937D01*
G01*
X19685Y161417D02*
G03*
X23622Y157480I3937J0D01*
G01*
X334646Y311024D02*
G03*
X330709Y314961I-3937J0D01*
G01*
X275590D02*
G03*
X271654Y311024I0J-3937D01*
G01*
X271654D02*
G03*
X267717Y314961I-3937J0D01*
G01*
X212598D02*
G03*
X208661Y311024I0J-3937D01*
G01*
X208661D02*
G03*
X204724Y314961I-3937J0D01*
G01*
X149606D02*
G03*
X145669Y311024I0J-3937D01*
G01*
X145669D02*
G03*
X141732Y314961I-3937J0D01*
G01*
X86614D02*
G03*
X82677Y311024I0J-3937D01*
G01*
X82677D02*
G03*
X78740Y314961I-3937J0D01*
G01*
X23622D02*
G03*
X19685Y311024I0J-3937D01*
G01*
Y3928D02*
Y311024D01*
X334646Y3937D02*
Y311024D01*
X334646Y311024D02*
Y314961D01*
X275590Y0D02*
X330709D01*
X334646D02*
Y3937D01*
X19685Y0D02*
Y3937D01*
X334646Y314961D02*
X354331D01*
X334646Y314961D02*
X334646Y314961D01*
X275584Y157480D02*
X330717D01*
X271654Y311024D02*
X271654Y161417D01*
X212598Y157480D02*
X267725D01*
X271654Y3937D02*
Y153543D01*
X208661Y3928D02*
Y153552D01*
X149600Y157480D02*
X204733D01*
X208661Y311024D02*
X208661Y161417D01*
X145669Y311024D02*
X145669Y161417D01*
X86614Y157480D02*
X141732D01*
X145669Y3937D02*
Y153543D01*
X23616Y157480D02*
X78749D01*
X82677Y3937D02*
Y153543D01*
X82677Y311024D02*
X82677Y161417D01*
X208661Y3937D02*
X208661Y3937D01*
X271654Y311024D02*
X271654Y311024D01*
X271654Y161417D02*
X271654Y161417D01*
X145669Y161417D02*
X145669Y161417D01*
X275590Y314961D02*
X330709D01*
X212598D02*
X267717D01*
X149606D02*
X204724D01*
X86614D02*
X141732D01*
X23622D02*
X78740D01*
X334646Y0D02*
X354331D01*
X212598D02*
X267717D01*
X149606D02*
X204724D01*
X86614D02*
X141732D01*
X23622D02*
X78740D01*
X0D02*
X19685D01*
Y311024D02*
Y314961D01*
X0D02*
X19685D01*
X354331D02*
X354331Y0D01*
X-0Y314961D02*
X0Y0D01*
M02*
