G04*
G04 #@! TF.GenerationSoftware,Altium Limited,Altium Designer,20.2.3 (150)*
G04*
G04 Layer_Color=2752767*
%FSLAX25Y25*%
%MOIN*%
G70*
G04*
G04 #@! TF.SameCoordinates,EBBBD63C-4F16-4FE1-BE59-5CF438A8D42D*
G04*
G04*
G04 #@! TF.FilePolarity,Positive*
G04*
G01*
G75*
%ADD22C,0.01000*%
%ADD24C,0.00787*%
%ADD56C,0.00200*%
%ADD57C,0.00267*%
D22*
X363205Y325896D02*
Y321897D01*
X365204Y319898D01*
X367203Y321897D01*
Y325896D01*
X369203Y322897D02*
X373201D01*
X379200Y324896D02*
X378200Y325896D01*
X376201D01*
X375201Y324896D01*
Y320897D01*
X376201Y319898D01*
X378200D01*
X379200Y320897D01*
X381199Y325896D02*
Y320897D01*
X382199Y319898D01*
X384198D01*
X385198Y320897D01*
Y325896D01*
X387197D02*
X391196D01*
X389196D01*
Y319898D01*
D24*
X330709Y-0D02*
G03*
X334646Y3937I0J3937D01*
G01*
X271654Y3937D02*
G03*
X275590Y0I3937J0D01*
G01*
X267717Y-0D02*
G03*
X271654Y3937I0J3937D01*
G01*
X208661Y3937D02*
G03*
X212598Y0I3937J0D01*
G01*
X204724Y-0D02*
G03*
X208661Y3937I0J3937D01*
G01*
X145669Y3937D02*
G03*
X149606Y0I3937J0D01*
G01*
X141732Y-0D02*
G03*
X145669Y3937I0J3937D01*
G01*
X82677Y3937D02*
G03*
X86614Y0I3937J0D01*
G01*
X78740Y-0D02*
G03*
X82677Y3937I0J3937D01*
G01*
X19685Y3937D02*
G03*
X23622Y0I3937J0D01*
G01*
X23622Y157480D02*
G03*
X19685Y153543I0J-3937D01*
G01*
X82677D02*
G03*
X78740Y157480I-3937J0D01*
G01*
X86614D02*
G03*
X82677Y153543I0J-3937D01*
G01*
X145669D02*
G03*
X141732Y157480I-3937J0D01*
G01*
X149606D02*
G03*
X145669Y153543I0J-3937D01*
G01*
X208661D02*
G03*
X204724Y157480I-3937J0D01*
G01*
X212598D02*
G03*
X208661Y153543I0J-3937D01*
G01*
X271654D02*
G03*
X267717Y157480I-3937J0D01*
G01*
X275590D02*
G03*
X271654Y153543I0J-3937D01*
G01*
X334646D02*
G03*
X330709Y157480I-3937J0D01*
G01*
X330709Y157480D02*
G03*
X334646Y161417I0J3937D01*
G01*
X271654Y161417D02*
G03*
X275590Y157480I3937J0D01*
G01*
X267717Y157480D02*
G03*
X271654Y161417I0J3937D01*
G01*
X208661Y161417D02*
G03*
X212598Y157480I3937J0D01*
G01*
X204724Y157480D02*
G03*
X208661Y161417I0J3937D01*
G01*
X145669Y161417D02*
G03*
X149606Y157480I3937J0D01*
G01*
X141732Y157480D02*
G03*
X145669Y161417I0J3937D01*
G01*
X82677Y161417D02*
G03*
X86614Y157480I3937J0D01*
G01*
X78740Y157480D02*
G03*
X82677Y161417I0J3937D01*
G01*
X19685Y161417D02*
G03*
X23622Y157480I3937J0D01*
G01*
X334646Y311024D02*
G03*
X330709Y314961I-3937J0D01*
G01*
X275590D02*
G03*
X271654Y311024I0J-3937D01*
G01*
X271654D02*
G03*
X267717Y314961I-3937J0D01*
G01*
X212598D02*
G03*
X208661Y311024I0J-3937D01*
G01*
X208661D02*
G03*
X204724Y314961I-3937J0D01*
G01*
X149606D02*
G03*
X145669Y311024I0J-3937D01*
G01*
X145669D02*
G03*
X141732Y314961I-3937J0D01*
G01*
X86614D02*
G03*
X82677Y311024I0J-3937D01*
G01*
X82677D02*
G03*
X78740Y314961I-3937J0D01*
G01*
X23622D02*
G03*
X19685Y311024I0J-3937D01*
G01*
Y3928D02*
Y311024D01*
X334646Y3937D02*
Y311024D01*
X334646Y311024D02*
Y314961D01*
X275590Y0D02*
X330709D01*
X334646D02*
Y3937D01*
X19685Y0D02*
Y3937D01*
X334646Y314961D02*
X354331D01*
X334646Y314961D02*
X334646Y314961D01*
X275584Y157480D02*
X330717D01*
X271654Y311024D02*
X271654Y161417D01*
X212598Y157480D02*
X267725D01*
X271654Y3937D02*
Y153543D01*
X208661Y3928D02*
Y153552D01*
X149600Y157480D02*
X204733D01*
X208661Y311024D02*
X208661Y161417D01*
X145669Y311024D02*
X145669Y161417D01*
X86614Y157480D02*
X141732D01*
X145669Y3937D02*
Y153543D01*
X23616Y157480D02*
X78749D01*
X82677Y3937D02*
Y153543D01*
X82677Y311024D02*
X82677Y161417D01*
X208661Y3937D02*
X208661Y3937D01*
X271654Y311024D02*
X271654Y311024D01*
X271654Y161417D02*
X271654Y161417D01*
X145669Y161417D02*
X145669Y161417D01*
X275590Y314961D02*
X330709D01*
X212598D02*
X267717D01*
X149606D02*
X204724D01*
X86614D02*
X141732D01*
X23622D02*
X78740D01*
X334646Y0D02*
X354331D01*
X212598D02*
X267717D01*
X149606D02*
X204724D01*
X86614D02*
X141732D01*
X23622D02*
X78740D01*
X0D02*
X19685D01*
Y311024D02*
Y314961D01*
X0D02*
X19685D01*
X354331D02*
X354331Y0D01*
X-0Y314961D02*
X0Y0D01*
D56*
X343688Y9042D02*
Y10643D01*
X345288D01*
Y9042D01*
X343688D01*
Y304318D02*
Y305918D01*
X345288D01*
Y304318D01*
X343688D01*
X9042D02*
Y305918D01*
X10643D01*
Y304318D01*
X9042D01*
Y9042D02*
Y10643D01*
X10643D01*
Y9042D01*
X9042D01*
X41634Y294980D02*
X40834Y296580D01*
X42434D01*
X41634Y294980D01*
X60728D02*
X59928Y296580D01*
X61528D01*
X60728Y294980D01*
X36909Y305531D02*
X37310Y305931D01*
X37710D01*
X37310Y306331D01*
X37710Y306731D01*
X37310D01*
X36909Y307131D01*
X36509Y306731D01*
X36110D01*
X36509Y306331D01*
X36110Y305931D01*
X36509D01*
X36909Y305531D01*
X65453D02*
X65853Y305931D01*
X66253D01*
X65853Y306331D01*
X66253Y306731D01*
X65853D01*
X65453Y307131D01*
X65053Y306731D01*
X64653D01*
X65053Y306331D01*
X64653Y305931D01*
X65053D01*
X65453Y305531D01*
X24381Y247161D02*
X24781Y247961D01*
X24381Y248761D01*
X25181Y248361D01*
X25981Y248761D01*
X25581Y247961D01*
X25981Y247161D01*
X25181Y247561D01*
X24381Y247161D01*
X54381Y180661D02*
X54781Y181461D01*
X54381Y182261D01*
X55181Y181861D01*
X55981Y182261D01*
X55581Y181461D01*
X55981Y180661D01*
X55181Y181061D01*
X54381Y180661D01*
X50381Y184661D02*
X50781Y185461D01*
X50381Y186261D01*
X51181Y185861D01*
X51981Y186261D01*
X51581Y185461D01*
X51981Y184661D01*
X51181Y185061D01*
X50381Y184661D01*
X30881Y191161D02*
X31281Y191961D01*
X30881Y192761D01*
X31681Y192361D01*
X32481Y192761D01*
X32081Y191961D01*
X32481Y191161D01*
X31681Y191561D01*
X30881Y191161D01*
X52881Y287161D02*
X53281Y287961D01*
X52881Y288761D01*
X53681Y288361D01*
X54481Y288761D01*
X54081Y287961D01*
X54481Y287161D01*
X53681Y287561D01*
X52881Y287161D01*
X26781Y270561D02*
Y270161D01*
X27581D01*
Y270561D01*
X27981D01*
Y271361D01*
X27581D01*
Y271761D01*
X26781D01*
Y271361D01*
X26381D01*
Y270561D01*
X26781D01*
X65781Y231561D02*
Y231161D01*
X66581D01*
Y231561D01*
X66981D01*
Y232361D01*
X66581D01*
Y232761D01*
X65781D01*
Y232361D01*
X65381D01*
Y231561D01*
X65781D01*
Y265061D02*
Y264661D01*
X66581D01*
Y265061D01*
X66981D01*
Y265861D01*
X66581D01*
Y266261D01*
X65781D01*
Y265861D01*
X65381D01*
Y265061D01*
X65781D01*
X44381Y246661D02*
X44781Y247461D01*
X44381Y248261D01*
X45181Y247861D01*
X45981Y248261D01*
X45581Y247461D01*
X45981Y246661D01*
X45181Y247061D01*
X44381Y246661D01*
X41381Y243161D02*
X41781Y243961D01*
X41381Y244761D01*
X42181Y244361D01*
X42981Y244761D01*
X42581Y243961D01*
X42981Y243161D01*
X42181Y243561D01*
X41381Y243161D01*
X48381Y287161D02*
X48781Y287961D01*
X48381Y288761D01*
X49181Y288361D01*
X49981Y288761D01*
X49581Y287961D01*
X49981Y287161D01*
X49181Y287561D01*
X48381Y287161D01*
X51281Y275321D02*
Y274921D01*
X52081D01*
Y275321D01*
X52481D01*
Y276120D01*
X52081D01*
Y276520D01*
X51281D01*
Y276120D01*
X50881D01*
Y275321D01*
X51281D01*
X49281Y222561D02*
Y222161D01*
X50081D01*
Y222561D01*
X50481D01*
Y223361D01*
X50081D01*
Y223761D01*
X49281D01*
Y223361D01*
X48881D01*
Y222561D01*
X49281D01*
X27881Y246161D02*
X28281Y246961D01*
X27881Y247761D01*
X28681Y247361D01*
X29481Y247761D01*
X29081Y246961D01*
X29481Y246161D01*
X28681Y246561D01*
X27881Y246161D01*
X30881Y233661D02*
X31281Y234461D01*
X30881Y235261D01*
X31681Y234861D01*
X32481Y235261D01*
X32081Y234461D01*
X32481Y233661D01*
X31681Y234061D01*
X30881Y233661D01*
X35381Y264161D02*
X35781Y264961D01*
X35381Y265761D01*
X36181Y265361D01*
X36981Y265761D01*
X36581Y264961D01*
X36981Y264161D01*
X36181Y264561D01*
X35381Y264161D01*
X31381D02*
X31781Y264961D01*
X31381Y265761D01*
X32181Y265361D01*
X32981Y265761D01*
X32581Y264961D01*
X32981Y264161D01*
X32181Y264561D01*
X31381Y264161D01*
X46881Y257161D02*
X47281Y257961D01*
X46881Y258761D01*
X47681Y258361D01*
X48481Y258761D01*
X48081Y257961D01*
X48481Y257161D01*
X47681Y257561D01*
X46881Y257161D01*
Y251161D02*
X47281Y251961D01*
X46881Y252761D01*
X47681Y252361D01*
X48481Y252761D01*
X48081Y251961D01*
X48481Y251161D01*
X47681Y251561D01*
X46881Y251161D01*
Y241161D02*
X47281Y241961D01*
X46881Y242761D01*
X47681Y242361D01*
X48481Y242761D01*
X48081Y241961D01*
X48481Y241161D01*
X47681Y241561D01*
X46881Y241161D01*
X57881Y257161D02*
X58281Y257961D01*
X57881Y258761D01*
X58681Y258361D01*
X59481Y258761D01*
X59081Y257961D01*
X59481Y257161D01*
X58681Y257561D01*
X57881Y257161D01*
Y251161D02*
X58281Y251961D01*
X57881Y252761D01*
X58681Y252361D01*
X59481Y252761D01*
X59081Y251961D01*
X59481Y251161D01*
X58681Y251561D01*
X57881Y251161D01*
Y245161D02*
X58281Y245961D01*
X57881Y246761D01*
X58681Y246361D01*
X59481Y246761D01*
X59081Y245961D01*
X59481Y245161D01*
X58681Y245561D01*
X57881Y245161D01*
X35381Y229161D02*
X35781Y229961D01*
X35381Y230761D01*
X36181Y230361D01*
X36981Y230761D01*
X36581Y229961D01*
X36981Y229161D01*
X36181Y229561D01*
X35381Y229161D01*
X25881Y226661D02*
X26281Y227461D01*
X25881Y228261D01*
X26681Y227861D01*
X27481Y228261D01*
X27081Y227461D01*
X27481Y226661D01*
X26681Y227061D01*
X25881Y226661D01*
Y216661D02*
X26281Y217461D01*
X25881Y218261D01*
X26681Y217861D01*
X27481Y218261D01*
X27081Y217461D01*
X27481Y216661D01*
X26681Y217061D01*
X25881Y216661D01*
X30881Y226661D02*
X31281Y227461D01*
X30881Y228261D01*
X31681Y227861D01*
X32481Y228261D01*
X32081Y227461D01*
X32481Y226661D01*
X31681Y227061D01*
X30881Y226661D01*
X43381Y222161D02*
X43781Y222961D01*
X43381Y223761D01*
X44181Y223361D01*
X44981Y223761D01*
X44581Y222961D01*
X44981Y222161D01*
X44181Y222561D01*
X43381Y222161D01*
X37381D02*
X37781Y222961D01*
X37381Y223761D01*
X38181Y223361D01*
X38981Y223761D01*
X38581Y222961D01*
X38981Y222161D01*
X38181Y222561D01*
X37381Y222161D01*
X37881Y196661D02*
X38281Y197461D01*
X37881Y198261D01*
X38681Y197861D01*
X39481Y198261D01*
X39081Y197461D01*
X39481Y196661D01*
X38681Y197061D01*
X37881Y196661D01*
X45381Y195161D02*
X45781Y195961D01*
X45381Y196761D01*
X46181Y196361D01*
X46981Y196761D01*
X46581Y195961D01*
X46981Y195161D01*
X46181Y195561D01*
X45381Y195161D01*
X49881Y191161D02*
X50281Y191961D01*
X49881Y192761D01*
X50681Y192361D01*
X51481Y192761D01*
X51081Y191961D01*
X51481Y191161D01*
X50681Y191561D01*
X49881Y191161D01*
X54381Y184661D02*
X54781Y185461D01*
X54381Y186261D01*
X55181Y185861D01*
X55981Y186261D01*
X55581Y185461D01*
X55981Y184661D01*
X55181Y185061D01*
X54381Y184661D01*
X49881Y195161D02*
X50281Y195961D01*
X49881Y196761D01*
X50681Y196361D01*
X51481Y196761D01*
X51081Y195961D01*
X51481Y195161D01*
X50681Y195561D01*
X49881Y195161D01*
X22381Y198161D02*
X22781Y198961D01*
X22381Y199761D01*
X23181Y199361D01*
X23981Y199761D01*
X23581Y198961D01*
X23981Y198161D01*
X23181Y198561D01*
X22381Y198161D01*
X76381Y163161D02*
X76781Y163961D01*
X76381Y164761D01*
X77181Y164361D01*
X77981Y164761D01*
X77581Y163961D01*
X77981Y163161D01*
X77181Y163561D01*
X76381Y163161D01*
X70381D02*
X70781Y163961D01*
X70381Y164761D01*
X71181Y164361D01*
X71981Y164761D01*
X71581Y163961D01*
X71981Y163161D01*
X71181Y163561D01*
X70381Y163161D01*
Y180661D02*
X70781Y181461D01*
X70381Y182261D01*
X71181Y181861D01*
X71981Y182261D01*
X71581Y181461D01*
X71981Y180661D01*
X71181Y181061D01*
X70381Y180661D01*
X76381D02*
X76781Y181461D01*
X76381Y182261D01*
X77181Y181861D01*
X77981Y182261D01*
X77581Y181461D01*
X77981Y180661D01*
X77181Y181061D01*
X76381Y180661D01*
X78881Y191661D02*
X79281Y192461D01*
X78881Y193261D01*
X79681Y192861D01*
X80481Y193261D01*
X80081Y192461D01*
X80481Y191661D01*
X79681Y192061D01*
X78881Y191661D01*
Y196661D02*
X79281Y197461D01*
X78881Y198261D01*
X79681Y197861D01*
X80481Y198261D01*
X80081Y197461D01*
X80481Y196661D01*
X79681Y197061D01*
X78881Y196661D01*
Y201661D02*
X79281Y202461D01*
X78881Y203261D01*
X79681Y202861D01*
X80481Y203261D01*
X80081Y202461D01*
X80481Y201661D01*
X79681Y202061D01*
X78881Y201661D01*
Y206661D02*
X79281Y207461D01*
X78881Y208261D01*
X79681Y207861D01*
X80481Y208261D01*
X80081Y207461D01*
X80481Y206661D01*
X79681Y207061D01*
X78881Y206661D01*
Y211661D02*
X79281Y212461D01*
X78881Y213261D01*
X79681Y212861D01*
X80481Y213261D01*
X80081Y212461D01*
X80481Y211661D01*
X79681Y212061D01*
X78881Y211661D01*
Y216661D02*
X79281Y217461D01*
X78881Y218261D01*
X79681Y217861D01*
X80481Y218261D01*
X80081Y217461D01*
X80481Y216661D01*
X79681Y217061D01*
X78881Y216661D01*
Y221661D02*
X79281Y222461D01*
X78881Y223261D01*
X79681Y222861D01*
X80481Y223261D01*
X80081Y222461D01*
X80481Y221661D01*
X79681Y222061D01*
X78881Y221661D01*
Y226661D02*
X79281Y227461D01*
X78881Y228261D01*
X79681Y227861D01*
X80481Y228261D01*
X80081Y227461D01*
X80481Y226661D01*
X79681Y227061D01*
X78881Y226661D01*
Y231661D02*
X79281Y232461D01*
X78881Y233261D01*
X79681Y232861D01*
X80481Y233261D01*
X80081Y232461D01*
X80481Y231661D01*
X79681Y232061D01*
X78881Y231661D01*
Y236661D02*
X79281Y237461D01*
X78881Y238261D01*
X79681Y237861D01*
X80481Y238261D01*
X80081Y237461D01*
X80481Y236661D01*
X79681Y237061D01*
X78881Y236661D01*
Y241661D02*
X79281Y242461D01*
X78881Y243261D01*
X79681Y242861D01*
X80481Y243261D01*
X80081Y242461D01*
X80481Y241661D01*
X79681Y242061D01*
X78881Y241661D01*
Y246661D02*
X79281Y247461D01*
X78881Y248261D01*
X79681Y247861D01*
X80481Y248261D01*
X80081Y247461D01*
X80481Y246661D01*
X79681Y247061D01*
X78881Y246661D01*
Y251661D02*
X79281Y252461D01*
X78881Y253261D01*
X79681Y252861D01*
X80481Y253261D01*
X80081Y252461D01*
X80481Y251661D01*
X79681Y252061D01*
X78881Y251661D01*
Y256661D02*
X79281Y257461D01*
X78881Y258261D01*
X79681Y257861D01*
X80481Y258261D01*
X80081Y257461D01*
X80481Y256661D01*
X79681Y257061D01*
X78881Y256661D01*
Y261661D02*
X79281Y262461D01*
X78881Y263261D01*
X79681Y262861D01*
X80481Y263261D01*
X80081Y262461D01*
X80481Y261661D01*
X79681Y262061D01*
X78881Y261661D01*
Y266661D02*
X79281Y267461D01*
X78881Y268261D01*
X79681Y267861D01*
X80481Y268261D01*
X80081Y267461D01*
X80481Y266661D01*
X79681Y267061D01*
X78881Y266661D01*
Y271661D02*
X79281Y272461D01*
X78881Y273261D01*
X79681Y272861D01*
X80481Y273261D01*
X80081Y272461D01*
X80481Y271661D01*
X79681Y272061D01*
X78881Y271661D01*
Y276661D02*
X79281Y277461D01*
X78881Y278261D01*
X79681Y277861D01*
X80481Y278261D01*
X80081Y277461D01*
X80481Y276661D01*
X79681Y277061D01*
X78881Y276661D01*
Y281661D02*
X79281Y282461D01*
X78881Y283261D01*
X79681Y282861D01*
X80481Y283261D01*
X80081Y282461D01*
X80481Y281661D01*
X79681Y282061D01*
X78881Y281661D01*
Y286661D02*
X79281Y287461D01*
X78881Y288261D01*
X79681Y287861D01*
X80481Y288261D01*
X80081Y287461D01*
X80481Y286661D01*
X79681Y287061D01*
X78881Y286661D01*
Y291661D02*
X79281Y292461D01*
X78881Y293261D01*
X79681Y292861D01*
X80481Y293261D01*
X80081Y292461D01*
X80481Y291661D01*
X79681Y292061D01*
X78881Y291661D01*
X48881Y278661D02*
X49281Y279461D01*
X48881Y280261D01*
X49681Y279861D01*
X50481Y280261D01*
X50081Y279461D01*
X50481Y278661D01*
X49681Y279061D01*
X48881Y278661D01*
X31881Y285661D02*
X32281Y286461D01*
X31881Y287261D01*
X32681Y286861D01*
X33481Y287261D01*
X33081Y286461D01*
X33481Y285661D01*
X32681Y286061D01*
X31881Y285661D01*
X43881Y287161D02*
X44281Y287961D01*
X43881Y288761D01*
X44681Y288361D01*
X45481Y288761D01*
X45081Y287961D01*
X45481Y287161D01*
X44681Y287561D01*
X43881Y287161D01*
X37381Y184661D02*
X37781Y185461D01*
X37381Y186261D01*
X38181Y185861D01*
X38981Y186261D01*
X38581Y185461D01*
X38981Y184661D01*
X38181Y185061D01*
X37381Y184661D01*
X41381Y180661D02*
X41781Y181461D01*
X41381Y182261D01*
X42181Y181861D01*
X42981Y182261D01*
X42581Y181461D01*
X42981Y180661D01*
X42181Y181061D01*
X41381Y180661D01*
X37381D02*
X37781Y181461D01*
X37381Y182261D01*
X38181Y181861D01*
X38981Y182261D01*
X38581Y181461D01*
X38981Y180661D01*
X38181Y181061D01*
X37381Y180661D01*
X55381Y210661D02*
X55781Y211461D01*
X55381Y212261D01*
X56181Y211861D01*
X56981Y212261D01*
X56581Y211461D01*
X56981Y210661D01*
X56181Y211061D01*
X55381Y210661D01*
Y205661D02*
X55781Y206461D01*
X55381Y207261D01*
X56181Y206861D01*
X56981Y207261D01*
X56581Y206461D01*
X56981Y205661D01*
X56181Y206061D01*
X55381Y205661D01*
X65381Y213661D02*
X65781Y214461D01*
X65381Y215261D01*
X66181Y214861D01*
X66981Y215261D01*
X66581Y214461D01*
X66981Y213661D01*
X66181Y214061D01*
X65381Y213661D01*
X70381Y205661D02*
X70781Y206461D01*
X70381Y207261D01*
X71181Y206861D01*
X71981Y207261D01*
X71581Y206461D01*
X71981Y205661D01*
X71181Y206061D01*
X70381Y205661D01*
X62881D02*
X63281Y206461D01*
X62881Y207261D01*
X63681Y206861D01*
X64481Y207261D01*
X64081Y206461D01*
X64481Y205661D01*
X63681Y206061D01*
X62881Y205661D01*
X70381Y213661D02*
X70781Y214461D01*
X70381Y215261D01*
X71181Y214861D01*
X71981Y215261D01*
X71581Y214461D01*
X71981Y213661D01*
X71181Y214061D01*
X70381Y213661D01*
Y228161D02*
X70781Y228961D01*
X70381Y229761D01*
X71181Y229361D01*
X71981Y229761D01*
X71581Y228961D01*
X71981Y228161D01*
X71181Y228561D01*
X70381Y228161D01*
Y265661D02*
X70781Y266461D01*
X70381Y267261D01*
X71181Y266861D01*
X71981Y267261D01*
X71581Y266461D01*
X71981Y265661D01*
X71181Y266061D01*
X70381Y265661D01*
X76381Y185161D02*
X76781Y185961D01*
X76381Y186761D01*
X77181Y186361D01*
X77981Y186761D01*
X77581Y185961D01*
X77981Y185161D01*
X77181Y185561D01*
X76381Y185161D01*
X70381D02*
X70781Y185961D01*
X70381Y186761D01*
X71181Y186361D01*
X71981Y186761D01*
X71581Y185961D01*
X71981Y185161D01*
X71181Y185561D01*
X70381Y185161D01*
X104626Y294980D02*
X103826Y296580D01*
X105426D01*
X104626Y294980D01*
X123721D02*
X122921Y296580D01*
X124521D01*
X123721Y294980D01*
X99902Y305531D02*
X100302Y305931D01*
X100702D01*
X100302Y306331D01*
X100702Y306731D01*
X100302D01*
X99902Y307131D01*
X99502Y306731D01*
X99102D01*
X99502Y306331D01*
X99102Y305931D01*
X99502D01*
X99902Y305531D01*
X128445D02*
X128845Y305931D01*
X129245D01*
X128845Y306331D01*
X129245Y306731D01*
X128845D01*
X128445Y307131D01*
X128045Y306731D01*
X127645D01*
X128045Y306331D01*
X127645Y305931D01*
X128045D01*
X128445Y305531D01*
X87373Y247161D02*
X87773Y247961D01*
X87373Y248761D01*
X88173Y248361D01*
X88973Y248761D01*
X88573Y247961D01*
X88973Y247161D01*
X88173Y247561D01*
X87373Y247161D01*
X117373Y180661D02*
X117773Y181461D01*
X117373Y182261D01*
X118173Y181861D01*
X118973Y182261D01*
X118573Y181461D01*
X118973Y180661D01*
X118173Y181061D01*
X117373Y180661D01*
X113373Y184661D02*
X113773Y185461D01*
X113373Y186261D01*
X114173Y185861D01*
X114973Y186261D01*
X114573Y185461D01*
X114973Y184661D01*
X114173Y185061D01*
X113373Y184661D01*
X93873Y191161D02*
X94273Y191961D01*
X93873Y192761D01*
X94673Y192361D01*
X95473Y192761D01*
X95073Y191961D01*
X95473Y191161D01*
X94673Y191561D01*
X93873Y191161D01*
X115873Y287161D02*
X116273Y287961D01*
X115873Y288761D01*
X116673Y288361D01*
X117473Y288761D01*
X117073Y287961D01*
X117473Y287161D01*
X116673Y287561D01*
X115873Y287161D01*
X89773Y270561D02*
Y270161D01*
X90573D01*
Y270561D01*
X90973D01*
Y271361D01*
X90573D01*
Y271761D01*
X89773D01*
Y271361D01*
X89373D01*
Y270561D01*
X89773D01*
X128773Y231561D02*
Y231161D01*
X129573D01*
Y231561D01*
X129973D01*
Y232361D01*
X129573D01*
Y232761D01*
X128773D01*
Y232361D01*
X128373D01*
Y231561D01*
X128773D01*
Y265061D02*
Y264661D01*
X129573D01*
Y265061D01*
X129973D01*
Y265861D01*
X129573D01*
Y266261D01*
X128773D01*
Y265861D01*
X128373D01*
Y265061D01*
X128773D01*
X107373Y246661D02*
X107773Y247461D01*
X107373Y248261D01*
X108173Y247861D01*
X108973Y248261D01*
X108573Y247461D01*
X108973Y246661D01*
X108173Y247061D01*
X107373Y246661D01*
X104373Y243161D02*
X104773Y243961D01*
X104373Y244761D01*
X105173Y244361D01*
X105973Y244761D01*
X105573Y243961D01*
X105973Y243161D01*
X105173Y243561D01*
X104373Y243161D01*
X111373Y287161D02*
X111773Y287961D01*
X111373Y288761D01*
X112173Y288361D01*
X112973Y288761D01*
X112573Y287961D01*
X112973Y287161D01*
X112173Y287561D01*
X111373Y287161D01*
X114273Y275321D02*
Y274921D01*
X115073D01*
Y275321D01*
X115473D01*
Y276120D01*
X115073D01*
Y276520D01*
X114273D01*
Y276120D01*
X113873D01*
Y275321D01*
X114273D01*
X112273Y222561D02*
Y222161D01*
X113073D01*
Y222561D01*
X113473D01*
Y223361D01*
X113073D01*
Y223761D01*
X112273D01*
Y223361D01*
X111873D01*
Y222561D01*
X112273D01*
X90873Y246161D02*
X91273Y246961D01*
X90873Y247761D01*
X91673Y247361D01*
X92473Y247761D01*
X92073Y246961D01*
X92473Y246161D01*
X91673Y246561D01*
X90873Y246161D01*
X93873Y233661D02*
X94273Y234461D01*
X93873Y235261D01*
X94673Y234861D01*
X95473Y235261D01*
X95073Y234461D01*
X95473Y233661D01*
X94673Y234061D01*
X93873Y233661D01*
X98373Y264161D02*
X98773Y264961D01*
X98373Y265761D01*
X99173Y265361D01*
X99973Y265761D01*
X99573Y264961D01*
X99973Y264161D01*
X99173Y264561D01*
X98373Y264161D01*
X94373D02*
X94773Y264961D01*
X94373Y265761D01*
X95173Y265361D01*
X95973Y265761D01*
X95573Y264961D01*
X95973Y264161D01*
X95173Y264561D01*
X94373Y264161D01*
X109873Y257161D02*
X110273Y257961D01*
X109873Y258761D01*
X110673Y258361D01*
X111473Y258761D01*
X111073Y257961D01*
X111473Y257161D01*
X110673Y257561D01*
X109873Y257161D01*
Y251161D02*
X110273Y251961D01*
X109873Y252761D01*
X110673Y252361D01*
X111473Y252761D01*
X111073Y251961D01*
X111473Y251161D01*
X110673Y251561D01*
X109873Y251161D01*
Y241161D02*
X110273Y241961D01*
X109873Y242761D01*
X110673Y242361D01*
X111473Y242761D01*
X111073Y241961D01*
X111473Y241161D01*
X110673Y241561D01*
X109873Y241161D01*
X120873Y257161D02*
X121273Y257961D01*
X120873Y258761D01*
X121673Y258361D01*
X122473Y258761D01*
X122073Y257961D01*
X122473Y257161D01*
X121673Y257561D01*
X120873Y257161D01*
Y251161D02*
X121273Y251961D01*
X120873Y252761D01*
X121673Y252361D01*
X122473Y252761D01*
X122073Y251961D01*
X122473Y251161D01*
X121673Y251561D01*
X120873Y251161D01*
Y245161D02*
X121273Y245961D01*
X120873Y246761D01*
X121673Y246361D01*
X122473Y246761D01*
X122073Y245961D01*
X122473Y245161D01*
X121673Y245561D01*
X120873Y245161D01*
X98373Y229161D02*
X98773Y229961D01*
X98373Y230761D01*
X99173Y230361D01*
X99973Y230761D01*
X99573Y229961D01*
X99973Y229161D01*
X99173Y229561D01*
X98373Y229161D01*
X88873Y226661D02*
X89273Y227461D01*
X88873Y228261D01*
X89673Y227861D01*
X90473Y228261D01*
X90073Y227461D01*
X90473Y226661D01*
X89673Y227061D01*
X88873Y226661D01*
Y216661D02*
X89273Y217461D01*
X88873Y218261D01*
X89673Y217861D01*
X90473Y218261D01*
X90073Y217461D01*
X90473Y216661D01*
X89673Y217061D01*
X88873Y216661D01*
X93873Y226661D02*
X94273Y227461D01*
X93873Y228261D01*
X94673Y227861D01*
X95473Y228261D01*
X95073Y227461D01*
X95473Y226661D01*
X94673Y227061D01*
X93873Y226661D01*
X106373Y222161D02*
X106773Y222961D01*
X106373Y223761D01*
X107173Y223361D01*
X107973Y223761D01*
X107573Y222961D01*
X107973Y222161D01*
X107173Y222561D01*
X106373Y222161D01*
X100373D02*
X100773Y222961D01*
X100373Y223761D01*
X101173Y223361D01*
X101973Y223761D01*
X101573Y222961D01*
X101973Y222161D01*
X101173Y222561D01*
X100373Y222161D01*
X100873Y196661D02*
X101273Y197461D01*
X100873Y198261D01*
X101673Y197861D01*
X102473Y198261D01*
X102073Y197461D01*
X102473Y196661D01*
X101673Y197061D01*
X100873Y196661D01*
X108373Y195161D02*
X108773Y195961D01*
X108373Y196761D01*
X109173Y196361D01*
X109973Y196761D01*
X109573Y195961D01*
X109973Y195161D01*
X109173Y195561D01*
X108373Y195161D01*
X112873Y191161D02*
X113273Y191961D01*
X112873Y192761D01*
X113673Y192361D01*
X114473Y192761D01*
X114073Y191961D01*
X114473Y191161D01*
X113673Y191561D01*
X112873Y191161D01*
X117373Y184661D02*
X117773Y185461D01*
X117373Y186261D01*
X118173Y185861D01*
X118973Y186261D01*
X118573Y185461D01*
X118973Y184661D01*
X118173Y185061D01*
X117373Y184661D01*
X112873Y195161D02*
X113273Y195961D01*
X112873Y196761D01*
X113673Y196361D01*
X114473Y196761D01*
X114073Y195961D01*
X114473Y195161D01*
X113673Y195561D01*
X112873Y195161D01*
X85373Y198161D02*
X85773Y198961D01*
X85373Y199761D01*
X86173Y199361D01*
X86973Y199761D01*
X86573Y198961D01*
X86973Y198161D01*
X86173Y198561D01*
X85373Y198161D01*
X139373Y163161D02*
X139773Y163961D01*
X139373Y164761D01*
X140173Y164361D01*
X140973Y164761D01*
X140573Y163961D01*
X140973Y163161D01*
X140173Y163561D01*
X139373Y163161D01*
X133373D02*
X133773Y163961D01*
X133373Y164761D01*
X134173Y164361D01*
X134973Y164761D01*
X134573Y163961D01*
X134973Y163161D01*
X134173Y163561D01*
X133373Y163161D01*
Y180661D02*
X133773Y181461D01*
X133373Y182261D01*
X134173Y181861D01*
X134973Y182261D01*
X134573Y181461D01*
X134973Y180661D01*
X134173Y181061D01*
X133373Y180661D01*
X139373D02*
X139773Y181461D01*
X139373Y182261D01*
X140173Y181861D01*
X140973Y182261D01*
X140573Y181461D01*
X140973Y180661D01*
X140173Y181061D01*
X139373Y180661D01*
X141873Y191661D02*
X142273Y192461D01*
X141873Y193261D01*
X142673Y192861D01*
X143473Y193261D01*
X143073Y192461D01*
X143473Y191661D01*
X142673Y192061D01*
X141873Y191661D01*
Y196661D02*
X142273Y197461D01*
X141873Y198261D01*
X142673Y197861D01*
X143473Y198261D01*
X143073Y197461D01*
X143473Y196661D01*
X142673Y197061D01*
X141873Y196661D01*
Y201661D02*
X142273Y202461D01*
X141873Y203261D01*
X142673Y202861D01*
X143473Y203261D01*
X143073Y202461D01*
X143473Y201661D01*
X142673Y202061D01*
X141873Y201661D01*
Y206661D02*
X142273Y207461D01*
X141873Y208261D01*
X142673Y207861D01*
X143473Y208261D01*
X143073Y207461D01*
X143473Y206661D01*
X142673Y207061D01*
X141873Y206661D01*
Y211661D02*
X142273Y212461D01*
X141873Y213261D01*
X142673Y212861D01*
X143473Y213261D01*
X143073Y212461D01*
X143473Y211661D01*
X142673Y212061D01*
X141873Y211661D01*
Y216661D02*
X142273Y217461D01*
X141873Y218261D01*
X142673Y217861D01*
X143473Y218261D01*
X143073Y217461D01*
X143473Y216661D01*
X142673Y217061D01*
X141873Y216661D01*
Y221661D02*
X142273Y222461D01*
X141873Y223261D01*
X142673Y222861D01*
X143473Y223261D01*
X143073Y222461D01*
X143473Y221661D01*
X142673Y222061D01*
X141873Y221661D01*
Y226661D02*
X142273Y227461D01*
X141873Y228261D01*
X142673Y227861D01*
X143473Y228261D01*
X143073Y227461D01*
X143473Y226661D01*
X142673Y227061D01*
X141873Y226661D01*
Y231661D02*
X142273Y232461D01*
X141873Y233261D01*
X142673Y232861D01*
X143473Y233261D01*
X143073Y232461D01*
X143473Y231661D01*
X142673Y232061D01*
X141873Y231661D01*
Y236661D02*
X142273Y237461D01*
X141873Y238261D01*
X142673Y237861D01*
X143473Y238261D01*
X143073Y237461D01*
X143473Y236661D01*
X142673Y237061D01*
X141873Y236661D01*
Y241661D02*
X142273Y242461D01*
X141873Y243261D01*
X142673Y242861D01*
X143473Y243261D01*
X143073Y242461D01*
X143473Y241661D01*
X142673Y242061D01*
X141873Y241661D01*
Y246661D02*
X142273Y247461D01*
X141873Y248261D01*
X142673Y247861D01*
X143473Y248261D01*
X143073Y247461D01*
X143473Y246661D01*
X142673Y247061D01*
X141873Y246661D01*
Y251661D02*
X142273Y252461D01*
X141873Y253261D01*
X142673Y252861D01*
X143473Y253261D01*
X143073Y252461D01*
X143473Y251661D01*
X142673Y252061D01*
X141873Y251661D01*
Y256661D02*
X142273Y257461D01*
X141873Y258261D01*
X142673Y257861D01*
X143473Y258261D01*
X143073Y257461D01*
X143473Y256661D01*
X142673Y257061D01*
X141873Y256661D01*
Y261661D02*
X142273Y262461D01*
X141873Y263261D01*
X142673Y262861D01*
X143473Y263261D01*
X143073Y262461D01*
X143473Y261661D01*
X142673Y262061D01*
X141873Y261661D01*
Y266661D02*
X142273Y267461D01*
X141873Y268261D01*
X142673Y267861D01*
X143473Y268261D01*
X143073Y267461D01*
X143473Y266661D01*
X142673Y267061D01*
X141873Y266661D01*
Y271661D02*
X142273Y272461D01*
X141873Y273261D01*
X142673Y272861D01*
X143473Y273261D01*
X143073Y272461D01*
X143473Y271661D01*
X142673Y272061D01*
X141873Y271661D01*
Y276661D02*
X142273Y277461D01*
X141873Y278261D01*
X142673Y277861D01*
X143473Y278261D01*
X143073Y277461D01*
X143473Y276661D01*
X142673Y277061D01*
X141873Y276661D01*
Y281661D02*
X142273Y282461D01*
X141873Y283261D01*
X142673Y282861D01*
X143473Y283261D01*
X143073Y282461D01*
X143473Y281661D01*
X142673Y282061D01*
X141873Y281661D01*
Y286661D02*
X142273Y287461D01*
X141873Y288261D01*
X142673Y287861D01*
X143473Y288261D01*
X143073Y287461D01*
X143473Y286661D01*
X142673Y287061D01*
X141873Y286661D01*
Y291661D02*
X142273Y292461D01*
X141873Y293261D01*
X142673Y292861D01*
X143473Y293261D01*
X143073Y292461D01*
X143473Y291661D01*
X142673Y292061D01*
X141873Y291661D01*
X111873Y278661D02*
X112273Y279461D01*
X111873Y280261D01*
X112673Y279861D01*
X113473Y280261D01*
X113073Y279461D01*
X113473Y278661D01*
X112673Y279061D01*
X111873Y278661D01*
X94873Y285661D02*
X95273Y286461D01*
X94873Y287261D01*
X95673Y286861D01*
X96473Y287261D01*
X96073Y286461D01*
X96473Y285661D01*
X95673Y286061D01*
X94873Y285661D01*
X106873Y287161D02*
X107273Y287961D01*
X106873Y288761D01*
X107673Y288361D01*
X108473Y288761D01*
X108073Y287961D01*
X108473Y287161D01*
X107673Y287561D01*
X106873Y287161D01*
X100373Y184661D02*
X100773Y185461D01*
X100373Y186261D01*
X101173Y185861D01*
X101973Y186261D01*
X101573Y185461D01*
X101973Y184661D01*
X101173Y185061D01*
X100373Y184661D01*
X104373Y180661D02*
X104773Y181461D01*
X104373Y182261D01*
X105173Y181861D01*
X105973Y182261D01*
X105573Y181461D01*
X105973Y180661D01*
X105173Y181061D01*
X104373Y180661D01*
X100373D02*
X100773Y181461D01*
X100373Y182261D01*
X101173Y181861D01*
X101973Y182261D01*
X101573Y181461D01*
X101973Y180661D01*
X101173Y181061D01*
X100373Y180661D01*
X118373Y210661D02*
X118773Y211461D01*
X118373Y212261D01*
X119173Y211861D01*
X119973Y212261D01*
X119573Y211461D01*
X119973Y210661D01*
X119173Y211061D01*
X118373Y210661D01*
Y205661D02*
X118773Y206461D01*
X118373Y207261D01*
X119173Y206861D01*
X119973Y207261D01*
X119573Y206461D01*
X119973Y205661D01*
X119173Y206061D01*
X118373Y205661D01*
X128373Y213661D02*
X128773Y214461D01*
X128373Y215261D01*
X129173Y214861D01*
X129973Y215261D01*
X129573Y214461D01*
X129973Y213661D01*
X129173Y214061D01*
X128373Y213661D01*
X133373Y205661D02*
X133773Y206461D01*
X133373Y207261D01*
X134173Y206861D01*
X134973Y207261D01*
X134573Y206461D01*
X134973Y205661D01*
X134173Y206061D01*
X133373Y205661D01*
X125873D02*
X126273Y206461D01*
X125873Y207261D01*
X126673Y206861D01*
X127473Y207261D01*
X127073Y206461D01*
X127473Y205661D01*
X126673Y206061D01*
X125873Y205661D01*
X133373Y213661D02*
X133773Y214461D01*
X133373Y215261D01*
X134173Y214861D01*
X134973Y215261D01*
X134573Y214461D01*
X134973Y213661D01*
X134173Y214061D01*
X133373Y213661D01*
Y228161D02*
X133773Y228961D01*
X133373Y229761D01*
X134173Y229361D01*
X134973Y229761D01*
X134573Y228961D01*
X134973Y228161D01*
X134173Y228561D01*
X133373Y228161D01*
Y265661D02*
X133773Y266461D01*
X133373Y267261D01*
X134173Y266861D01*
X134973Y267261D01*
X134573Y266461D01*
X134973Y265661D01*
X134173Y266061D01*
X133373Y265661D01*
X139373Y185161D02*
X139773Y185961D01*
X139373Y186761D01*
X140173Y186361D01*
X140973Y186761D01*
X140573Y185961D01*
X140973Y185161D01*
X140173Y185561D01*
X139373Y185161D01*
X133373D02*
X133773Y185961D01*
X133373Y186761D01*
X134173Y186361D01*
X134973Y186761D01*
X134573Y185961D01*
X134973Y185161D01*
X134173Y185561D01*
X133373Y185161D01*
X167618Y294980D02*
X166818Y296580D01*
X168418D01*
X167618Y294980D01*
X186713D02*
X185913Y296580D01*
X187513D01*
X186713Y294980D01*
X162894Y305531D02*
X163294Y305931D01*
X163694D01*
X163294Y306331D01*
X163694Y306731D01*
X163294D01*
X162894Y307131D01*
X162494Y306731D01*
X162094D01*
X162494Y306331D01*
X162094Y305931D01*
X162494D01*
X162894Y305531D01*
X191437D02*
X191837Y305931D01*
X192237D01*
X191837Y306331D01*
X192237Y306731D01*
X191837D01*
X191437Y307131D01*
X191037Y306731D01*
X190637D01*
X191037Y306331D01*
X190637Y305931D01*
X191037D01*
X191437Y305531D01*
X150365Y247161D02*
X150765Y247961D01*
X150365Y248761D01*
X151165Y248361D01*
X151965Y248761D01*
X151565Y247961D01*
X151965Y247161D01*
X151165Y247561D01*
X150365Y247161D01*
X180365Y180661D02*
X180765Y181461D01*
X180365Y182261D01*
X181165Y181861D01*
X181965Y182261D01*
X181565Y181461D01*
X181965Y180661D01*
X181165Y181061D01*
X180365Y180661D01*
X176365Y184661D02*
X176765Y185461D01*
X176365Y186261D01*
X177165Y185861D01*
X177965Y186261D01*
X177565Y185461D01*
X177965Y184661D01*
X177165Y185061D01*
X176365Y184661D01*
X156865Y191161D02*
X157265Y191961D01*
X156865Y192761D01*
X157665Y192361D01*
X158465Y192761D01*
X158065Y191961D01*
X158465Y191161D01*
X157665Y191561D01*
X156865Y191161D01*
X178865Y287161D02*
X179265Y287961D01*
X178865Y288761D01*
X179665Y288361D01*
X180465Y288761D01*
X180065Y287961D01*
X180465Y287161D01*
X179665Y287561D01*
X178865Y287161D01*
X152765Y270561D02*
Y270161D01*
X153565D01*
Y270561D01*
X153965D01*
Y271361D01*
X153565D01*
Y271761D01*
X152765D01*
Y271361D01*
X152365D01*
Y270561D01*
X152765D01*
X191765Y231561D02*
Y231161D01*
X192565D01*
Y231561D01*
X192965D01*
Y232361D01*
X192565D01*
Y232761D01*
X191765D01*
Y232361D01*
X191365D01*
Y231561D01*
X191765D01*
Y265061D02*
Y264661D01*
X192565D01*
Y265061D01*
X192965D01*
Y265861D01*
X192565D01*
Y266261D01*
X191765D01*
Y265861D01*
X191365D01*
Y265061D01*
X191765D01*
X170365Y246661D02*
X170765Y247461D01*
X170365Y248261D01*
X171165Y247861D01*
X171965Y248261D01*
X171565Y247461D01*
X171965Y246661D01*
X171165Y247061D01*
X170365Y246661D01*
X167365Y243161D02*
X167765Y243961D01*
X167365Y244761D01*
X168165Y244361D01*
X168965Y244761D01*
X168565Y243961D01*
X168965Y243161D01*
X168165Y243561D01*
X167365Y243161D01*
X174365Y287161D02*
X174765Y287961D01*
X174365Y288761D01*
X175165Y288361D01*
X175965Y288761D01*
X175565Y287961D01*
X175965Y287161D01*
X175165Y287561D01*
X174365Y287161D01*
X177265Y275321D02*
Y274921D01*
X178065D01*
Y275321D01*
X178465D01*
Y276120D01*
X178065D01*
Y276520D01*
X177265D01*
Y276120D01*
X176865D01*
Y275321D01*
X177265D01*
X175265Y222561D02*
Y222161D01*
X176065D01*
Y222561D01*
X176465D01*
Y223361D01*
X176065D01*
Y223761D01*
X175265D01*
Y223361D01*
X174865D01*
Y222561D01*
X175265D01*
X153865Y246161D02*
X154265Y246961D01*
X153865Y247761D01*
X154665Y247361D01*
X155465Y247761D01*
X155065Y246961D01*
X155465Y246161D01*
X154665Y246561D01*
X153865Y246161D01*
X156865Y233661D02*
X157265Y234461D01*
X156865Y235261D01*
X157665Y234861D01*
X158465Y235261D01*
X158065Y234461D01*
X158465Y233661D01*
X157665Y234061D01*
X156865Y233661D01*
X161365Y264161D02*
X161765Y264961D01*
X161365Y265761D01*
X162165Y265361D01*
X162965Y265761D01*
X162565Y264961D01*
X162965Y264161D01*
X162165Y264561D01*
X161365Y264161D01*
X157365D02*
X157765Y264961D01*
X157365Y265761D01*
X158165Y265361D01*
X158965Y265761D01*
X158565Y264961D01*
X158965Y264161D01*
X158165Y264561D01*
X157365Y264161D01*
X172865Y257161D02*
X173265Y257961D01*
X172865Y258761D01*
X173665Y258361D01*
X174465Y258761D01*
X174065Y257961D01*
X174465Y257161D01*
X173665Y257561D01*
X172865Y257161D01*
Y251161D02*
X173265Y251961D01*
X172865Y252761D01*
X173665Y252361D01*
X174465Y252761D01*
X174065Y251961D01*
X174465Y251161D01*
X173665Y251561D01*
X172865Y251161D01*
Y241161D02*
X173265Y241961D01*
X172865Y242761D01*
X173665Y242361D01*
X174465Y242761D01*
X174065Y241961D01*
X174465Y241161D01*
X173665Y241561D01*
X172865Y241161D01*
X183865Y257161D02*
X184265Y257961D01*
X183865Y258761D01*
X184665Y258361D01*
X185465Y258761D01*
X185065Y257961D01*
X185465Y257161D01*
X184665Y257561D01*
X183865Y257161D01*
Y251161D02*
X184265Y251961D01*
X183865Y252761D01*
X184665Y252361D01*
X185465Y252761D01*
X185065Y251961D01*
X185465Y251161D01*
X184665Y251561D01*
X183865Y251161D01*
Y245161D02*
X184265Y245961D01*
X183865Y246761D01*
X184665Y246361D01*
X185465Y246761D01*
X185065Y245961D01*
X185465Y245161D01*
X184665Y245561D01*
X183865Y245161D01*
X161365Y229161D02*
X161765Y229961D01*
X161365Y230761D01*
X162165Y230361D01*
X162965Y230761D01*
X162565Y229961D01*
X162965Y229161D01*
X162165Y229561D01*
X161365Y229161D01*
X151865Y226661D02*
X152265Y227461D01*
X151865Y228261D01*
X152665Y227861D01*
X153465Y228261D01*
X153065Y227461D01*
X153465Y226661D01*
X152665Y227061D01*
X151865Y226661D01*
Y216661D02*
X152265Y217461D01*
X151865Y218261D01*
X152665Y217861D01*
X153465Y218261D01*
X153065Y217461D01*
X153465Y216661D01*
X152665Y217061D01*
X151865Y216661D01*
X156865Y226661D02*
X157265Y227461D01*
X156865Y228261D01*
X157665Y227861D01*
X158465Y228261D01*
X158065Y227461D01*
X158465Y226661D01*
X157665Y227061D01*
X156865Y226661D01*
X169365Y222161D02*
X169765Y222961D01*
X169365Y223761D01*
X170165Y223361D01*
X170965Y223761D01*
X170565Y222961D01*
X170965Y222161D01*
X170165Y222561D01*
X169365Y222161D01*
X163365D02*
X163765Y222961D01*
X163365Y223761D01*
X164165Y223361D01*
X164965Y223761D01*
X164565Y222961D01*
X164965Y222161D01*
X164165Y222561D01*
X163365Y222161D01*
X163865Y196661D02*
X164265Y197461D01*
X163865Y198261D01*
X164665Y197861D01*
X165465Y198261D01*
X165065Y197461D01*
X165465Y196661D01*
X164665Y197061D01*
X163865Y196661D01*
X171365Y195161D02*
X171765Y195961D01*
X171365Y196761D01*
X172165Y196361D01*
X172965Y196761D01*
X172565Y195961D01*
X172965Y195161D01*
X172165Y195561D01*
X171365Y195161D01*
X175865Y191161D02*
X176265Y191961D01*
X175865Y192761D01*
X176665Y192361D01*
X177465Y192761D01*
X177065Y191961D01*
X177465Y191161D01*
X176665Y191561D01*
X175865Y191161D01*
X180365Y184661D02*
X180765Y185461D01*
X180365Y186261D01*
X181165Y185861D01*
X181965Y186261D01*
X181565Y185461D01*
X181965Y184661D01*
X181165Y185061D01*
X180365Y184661D01*
X175865Y195161D02*
X176265Y195961D01*
X175865Y196761D01*
X176665Y196361D01*
X177465Y196761D01*
X177065Y195961D01*
X177465Y195161D01*
X176665Y195561D01*
X175865Y195161D01*
X148365Y198161D02*
X148765Y198961D01*
X148365Y199761D01*
X149165Y199361D01*
X149965Y199761D01*
X149565Y198961D01*
X149965Y198161D01*
X149165Y198561D01*
X148365Y198161D01*
X202365Y163161D02*
X202765Y163961D01*
X202365Y164761D01*
X203165Y164361D01*
X203965Y164761D01*
X203565Y163961D01*
X203965Y163161D01*
X203165Y163561D01*
X202365Y163161D01*
X196365D02*
X196765Y163961D01*
X196365Y164761D01*
X197165Y164361D01*
X197965Y164761D01*
X197565Y163961D01*
X197965Y163161D01*
X197165Y163561D01*
X196365Y163161D01*
Y180661D02*
X196765Y181461D01*
X196365Y182261D01*
X197165Y181861D01*
X197965Y182261D01*
X197565Y181461D01*
X197965Y180661D01*
X197165Y181061D01*
X196365Y180661D01*
X202365D02*
X202765Y181461D01*
X202365Y182261D01*
X203165Y181861D01*
X203965Y182261D01*
X203565Y181461D01*
X203965Y180661D01*
X203165Y181061D01*
X202365Y180661D01*
X204865Y191661D02*
X205265Y192461D01*
X204865Y193261D01*
X205665Y192861D01*
X206465Y193261D01*
X206065Y192461D01*
X206465Y191661D01*
X205665Y192061D01*
X204865Y191661D01*
Y196661D02*
X205265Y197461D01*
X204865Y198261D01*
X205665Y197861D01*
X206465Y198261D01*
X206065Y197461D01*
X206465Y196661D01*
X205665Y197061D01*
X204865Y196661D01*
Y201661D02*
X205265Y202461D01*
X204865Y203261D01*
X205665Y202861D01*
X206465Y203261D01*
X206065Y202461D01*
X206465Y201661D01*
X205665Y202061D01*
X204865Y201661D01*
Y206661D02*
X205265Y207461D01*
X204865Y208261D01*
X205665Y207861D01*
X206465Y208261D01*
X206065Y207461D01*
X206465Y206661D01*
X205665Y207061D01*
X204865Y206661D01*
Y211661D02*
X205265Y212461D01*
X204865Y213261D01*
X205665Y212861D01*
X206465Y213261D01*
X206065Y212461D01*
X206465Y211661D01*
X205665Y212061D01*
X204865Y211661D01*
Y216661D02*
X205265Y217461D01*
X204865Y218261D01*
X205665Y217861D01*
X206465Y218261D01*
X206065Y217461D01*
X206465Y216661D01*
X205665Y217061D01*
X204865Y216661D01*
Y221661D02*
X205265Y222461D01*
X204865Y223261D01*
X205665Y222861D01*
X206465Y223261D01*
X206065Y222461D01*
X206465Y221661D01*
X205665Y222061D01*
X204865Y221661D01*
Y226661D02*
X205265Y227461D01*
X204865Y228261D01*
X205665Y227861D01*
X206465Y228261D01*
X206065Y227461D01*
X206465Y226661D01*
X205665Y227061D01*
X204865Y226661D01*
Y231661D02*
X205265Y232461D01*
X204865Y233261D01*
X205665Y232861D01*
X206465Y233261D01*
X206065Y232461D01*
X206465Y231661D01*
X205665Y232061D01*
X204865Y231661D01*
Y236661D02*
X205265Y237461D01*
X204865Y238261D01*
X205665Y237861D01*
X206465Y238261D01*
X206065Y237461D01*
X206465Y236661D01*
X205665Y237061D01*
X204865Y236661D01*
Y241661D02*
X205265Y242461D01*
X204865Y243261D01*
X205665Y242861D01*
X206465Y243261D01*
X206065Y242461D01*
X206465Y241661D01*
X205665Y242061D01*
X204865Y241661D01*
Y246661D02*
X205265Y247461D01*
X204865Y248261D01*
X205665Y247861D01*
X206465Y248261D01*
X206065Y247461D01*
X206465Y246661D01*
X205665Y247061D01*
X204865Y246661D01*
Y251661D02*
X205265Y252461D01*
X204865Y253261D01*
X205665Y252861D01*
X206465Y253261D01*
X206065Y252461D01*
X206465Y251661D01*
X205665Y252061D01*
X204865Y251661D01*
Y256661D02*
X205265Y257461D01*
X204865Y258261D01*
X205665Y257861D01*
X206465Y258261D01*
X206065Y257461D01*
X206465Y256661D01*
X205665Y257061D01*
X204865Y256661D01*
Y261661D02*
X205265Y262461D01*
X204865Y263261D01*
X205665Y262861D01*
X206465Y263261D01*
X206065Y262461D01*
X206465Y261661D01*
X205665Y262061D01*
X204865Y261661D01*
Y266661D02*
X205265Y267461D01*
X204865Y268261D01*
X205665Y267861D01*
X206465Y268261D01*
X206065Y267461D01*
X206465Y266661D01*
X205665Y267061D01*
X204865Y266661D01*
Y271661D02*
X205265Y272461D01*
X204865Y273261D01*
X205665Y272861D01*
X206465Y273261D01*
X206065Y272461D01*
X206465Y271661D01*
X205665Y272061D01*
X204865Y271661D01*
Y276661D02*
X205265Y277461D01*
X204865Y278261D01*
X205665Y277861D01*
X206465Y278261D01*
X206065Y277461D01*
X206465Y276661D01*
X205665Y277061D01*
X204865Y276661D01*
Y281661D02*
X205265Y282461D01*
X204865Y283261D01*
X205665Y282861D01*
X206465Y283261D01*
X206065Y282461D01*
X206465Y281661D01*
X205665Y282061D01*
X204865Y281661D01*
Y286661D02*
X205265Y287461D01*
X204865Y288261D01*
X205665Y287861D01*
X206465Y288261D01*
X206065Y287461D01*
X206465Y286661D01*
X205665Y287061D01*
X204865Y286661D01*
Y291661D02*
X205265Y292461D01*
X204865Y293261D01*
X205665Y292861D01*
X206465Y293261D01*
X206065Y292461D01*
X206465Y291661D01*
X205665Y292061D01*
X204865Y291661D01*
X174865Y278661D02*
X175265Y279461D01*
X174865Y280261D01*
X175665Y279861D01*
X176465Y280261D01*
X176065Y279461D01*
X176465Y278661D01*
X175665Y279061D01*
X174865Y278661D01*
X157865Y285661D02*
X158265Y286461D01*
X157865Y287261D01*
X158665Y286861D01*
X159465Y287261D01*
X159065Y286461D01*
X159465Y285661D01*
X158665Y286061D01*
X157865Y285661D01*
X169865Y287161D02*
X170265Y287961D01*
X169865Y288761D01*
X170665Y288361D01*
X171465Y288761D01*
X171065Y287961D01*
X171465Y287161D01*
X170665Y287561D01*
X169865Y287161D01*
X163365Y184661D02*
X163765Y185461D01*
X163365Y186261D01*
X164165Y185861D01*
X164965Y186261D01*
X164565Y185461D01*
X164965Y184661D01*
X164165Y185061D01*
X163365Y184661D01*
X167365Y180661D02*
X167765Y181461D01*
X167365Y182261D01*
X168165Y181861D01*
X168965Y182261D01*
X168565Y181461D01*
X168965Y180661D01*
X168165Y181061D01*
X167365Y180661D01*
X163365D02*
X163765Y181461D01*
X163365Y182261D01*
X164165Y181861D01*
X164965Y182261D01*
X164565Y181461D01*
X164965Y180661D01*
X164165Y181061D01*
X163365Y180661D01*
X181365Y210661D02*
X181765Y211461D01*
X181365Y212261D01*
X182165Y211861D01*
X182965Y212261D01*
X182565Y211461D01*
X182965Y210661D01*
X182165Y211061D01*
X181365Y210661D01*
Y205661D02*
X181765Y206461D01*
X181365Y207261D01*
X182165Y206861D01*
X182965Y207261D01*
X182565Y206461D01*
X182965Y205661D01*
X182165Y206061D01*
X181365Y205661D01*
X191365Y213661D02*
X191765Y214461D01*
X191365Y215261D01*
X192165Y214861D01*
X192965Y215261D01*
X192565Y214461D01*
X192965Y213661D01*
X192165Y214061D01*
X191365Y213661D01*
X196365Y205661D02*
X196765Y206461D01*
X196365Y207261D01*
X197165Y206861D01*
X197965Y207261D01*
X197565Y206461D01*
X197965Y205661D01*
X197165Y206061D01*
X196365Y205661D01*
X188865D02*
X189265Y206461D01*
X188865Y207261D01*
X189665Y206861D01*
X190465Y207261D01*
X190065Y206461D01*
X190465Y205661D01*
X189665Y206061D01*
X188865Y205661D01*
X196365Y213661D02*
X196765Y214461D01*
X196365Y215261D01*
X197165Y214861D01*
X197965Y215261D01*
X197565Y214461D01*
X197965Y213661D01*
X197165Y214061D01*
X196365Y213661D01*
Y228161D02*
X196765Y228961D01*
X196365Y229761D01*
X197165Y229361D01*
X197965Y229761D01*
X197565Y228961D01*
X197965Y228161D01*
X197165Y228561D01*
X196365Y228161D01*
Y265661D02*
X196765Y266461D01*
X196365Y267261D01*
X197165Y266861D01*
X197965Y267261D01*
X197565Y266461D01*
X197965Y265661D01*
X197165Y266061D01*
X196365Y265661D01*
X202365Y185161D02*
X202765Y185961D01*
X202365Y186761D01*
X203165Y186361D01*
X203965Y186761D01*
X203565Y185961D01*
X203965Y185161D01*
X203165Y185561D01*
X202365Y185161D01*
X196365D02*
X196765Y185961D01*
X196365Y186761D01*
X197165Y186361D01*
X197965Y186761D01*
X197565Y185961D01*
X197965Y185161D01*
X197165Y185561D01*
X196365Y185161D01*
X230610Y294980D02*
X229810Y296580D01*
X231410D01*
X230610Y294980D01*
X249705D02*
X248905Y296580D01*
X250505D01*
X249705Y294980D01*
X225886Y305531D02*
X226286Y305931D01*
X226686D01*
X226286Y306331D01*
X226686Y306731D01*
X226286D01*
X225886Y307131D01*
X225486Y306731D01*
X225086D01*
X225486Y306331D01*
X225086Y305931D01*
X225486D01*
X225886Y305531D01*
X254429D02*
X254829Y305931D01*
X255229D01*
X254829Y306331D01*
X255229Y306731D01*
X254829D01*
X254429Y307131D01*
X254029Y306731D01*
X253629D01*
X254029Y306331D01*
X253629Y305931D01*
X254029D01*
X254429Y305531D01*
X213357Y247161D02*
X213757Y247961D01*
X213357Y248761D01*
X214158Y248361D01*
X214957Y248761D01*
X214558Y247961D01*
X214957Y247161D01*
X214158Y247561D01*
X213357Y247161D01*
X243357Y180661D02*
X243758Y181461D01*
X243357Y182261D01*
X244158Y181861D01*
X244957Y182261D01*
X244557Y181461D01*
X244957Y180661D01*
X244158Y181061D01*
X243357Y180661D01*
X239357Y184661D02*
X239757Y185461D01*
X239357Y186261D01*
X240158Y185861D01*
X240957Y186261D01*
X240558Y185461D01*
X240957Y184661D01*
X240158Y185061D01*
X239357Y184661D01*
X219858Y191161D02*
X220257Y191961D01*
X219858Y192761D01*
X220657Y192361D01*
X221458Y192761D01*
X221058Y191961D01*
X221458Y191161D01*
X220657Y191561D01*
X219858Y191161D01*
X241858Y287161D02*
X242257Y287961D01*
X241858Y288761D01*
X242657Y288361D01*
X243458Y288761D01*
X243057Y287961D01*
X243458Y287161D01*
X242657Y287561D01*
X241858Y287161D01*
X215757Y270561D02*
Y270161D01*
X216558D01*
Y270561D01*
X216957D01*
Y271361D01*
X216558D01*
Y271761D01*
X215757D01*
Y271361D01*
X215357D01*
Y270561D01*
X215757D01*
X254757Y231561D02*
Y231161D01*
X255557D01*
Y231561D01*
X255958D01*
Y232361D01*
X255557D01*
Y232761D01*
X254757D01*
Y232361D01*
X254358D01*
Y231561D01*
X254757D01*
Y265061D02*
Y264661D01*
X255557D01*
Y265061D01*
X255958D01*
Y265861D01*
X255557D01*
Y266261D01*
X254757D01*
Y265861D01*
X254358D01*
Y265061D01*
X254757D01*
X233358Y246661D02*
X233757Y247461D01*
X233358Y248261D01*
X234157Y247861D01*
X234958Y248261D01*
X234558Y247461D01*
X234958Y246661D01*
X234157Y247061D01*
X233358Y246661D01*
X230358Y243161D02*
X230757Y243961D01*
X230358Y244761D01*
X231157Y244361D01*
X231958Y244761D01*
X231557Y243961D01*
X231958Y243161D01*
X231157Y243561D01*
X230358Y243161D01*
X237357Y287161D02*
X237757Y287961D01*
X237357Y288761D01*
X238158Y288361D01*
X238958Y288761D01*
X238558Y287961D01*
X238958Y287161D01*
X238158Y287561D01*
X237357Y287161D01*
X240258Y275321D02*
Y274921D01*
X241057D01*
Y275321D01*
X241458D01*
Y276120D01*
X241057D01*
Y276520D01*
X240258D01*
Y276120D01*
X239858D01*
Y275321D01*
X240258D01*
X238258Y222561D02*
Y222161D01*
X239057D01*
Y222561D01*
X239458D01*
Y223361D01*
X239057D01*
Y223761D01*
X238258D01*
Y223361D01*
X237858D01*
Y222561D01*
X238258D01*
X216858Y246161D02*
X217257Y246961D01*
X216858Y247761D01*
X217657Y247361D01*
X218458Y247761D01*
X218057Y246961D01*
X218458Y246161D01*
X217657Y246561D01*
X216858Y246161D01*
X219858Y233661D02*
X220257Y234461D01*
X219858Y235261D01*
X220657Y234861D01*
X221458Y235261D01*
X221058Y234461D01*
X221458Y233661D01*
X220657Y234061D01*
X219858Y233661D01*
X224358Y264161D02*
X224758Y264961D01*
X224358Y265761D01*
X225157Y265361D01*
X225957Y265761D01*
X225557Y264961D01*
X225957Y264161D01*
X225157Y264561D01*
X224358Y264161D01*
X220357D02*
X220758Y264961D01*
X220357Y265761D01*
X221158Y265361D01*
X221957Y265761D01*
X221557Y264961D01*
X221957Y264161D01*
X221158Y264561D01*
X220357Y264161D01*
X235858Y257161D02*
X236258Y257961D01*
X235858Y258761D01*
X236658Y258361D01*
X237457Y258761D01*
X237057Y257961D01*
X237457Y257161D01*
X236658Y257561D01*
X235858Y257161D01*
Y251161D02*
X236258Y251961D01*
X235858Y252761D01*
X236658Y252361D01*
X237457Y252761D01*
X237057Y251961D01*
X237457Y251161D01*
X236658Y251561D01*
X235858Y251161D01*
Y241161D02*
X236258Y241961D01*
X235858Y242761D01*
X236658Y242361D01*
X237457Y242761D01*
X237057Y241961D01*
X237457Y241161D01*
X236658Y241561D01*
X235858Y241161D01*
X246858Y257161D02*
X247257Y257961D01*
X246858Y258761D01*
X247657Y258361D01*
X248458Y258761D01*
X248058Y257961D01*
X248458Y257161D01*
X247657Y257561D01*
X246858Y257161D01*
Y251161D02*
X247257Y251961D01*
X246858Y252761D01*
X247657Y252361D01*
X248458Y252761D01*
X248058Y251961D01*
X248458Y251161D01*
X247657Y251561D01*
X246858Y251161D01*
Y245161D02*
X247257Y245961D01*
X246858Y246761D01*
X247657Y246361D01*
X248458Y246761D01*
X248058Y245961D01*
X248458Y245161D01*
X247657Y245561D01*
X246858Y245161D01*
X224358Y229161D02*
X224758Y229961D01*
X224358Y230761D01*
X225157Y230361D01*
X225957Y230761D01*
X225557Y229961D01*
X225957Y229161D01*
X225157Y229561D01*
X224358Y229161D01*
X214858Y226661D02*
X215258Y227461D01*
X214858Y228261D01*
X215657Y227861D01*
X216458Y228261D01*
X216057Y227461D01*
X216458Y226661D01*
X215657Y227061D01*
X214858Y226661D01*
Y216661D02*
X215258Y217461D01*
X214858Y218261D01*
X215657Y217861D01*
X216458Y218261D01*
X216057Y217461D01*
X216458Y216661D01*
X215657Y217061D01*
X214858Y216661D01*
X219858Y226661D02*
X220257Y227461D01*
X219858Y228261D01*
X220657Y227861D01*
X221458Y228261D01*
X221058Y227461D01*
X221458Y226661D01*
X220657Y227061D01*
X219858Y226661D01*
X232358Y222161D02*
X232757Y222961D01*
X232358Y223761D01*
X233157Y223361D01*
X233958Y223761D01*
X233558Y222961D01*
X233958Y222161D01*
X233157Y222561D01*
X232358Y222161D01*
X226358D02*
X226758Y222961D01*
X226358Y223761D01*
X227157Y223361D01*
X227958Y223761D01*
X227557Y222961D01*
X227958Y222161D01*
X227157Y222561D01*
X226358Y222161D01*
X226857Y196661D02*
X227257Y197461D01*
X226857Y198261D01*
X227658Y197861D01*
X228457Y198261D01*
X228058Y197461D01*
X228457Y196661D01*
X227658Y197061D01*
X226857Y196661D01*
X234358Y195161D02*
X234757Y195961D01*
X234358Y196761D01*
X235157Y196361D01*
X235958Y196761D01*
X235558Y195961D01*
X235958Y195161D01*
X235157Y195561D01*
X234358Y195161D01*
X238858Y191161D02*
X239258Y191961D01*
X238858Y192761D01*
X239657Y192361D01*
X240458Y192761D01*
X240057Y191961D01*
X240458Y191161D01*
X239657Y191561D01*
X238858Y191161D01*
X243357Y184661D02*
X243758Y185461D01*
X243357Y186261D01*
X244158Y185861D01*
X244957Y186261D01*
X244557Y185461D01*
X244957Y184661D01*
X244158Y185061D01*
X243357Y184661D01*
X238858Y195161D02*
X239258Y195961D01*
X238858Y196761D01*
X239657Y196361D01*
X240458Y196761D01*
X240057Y195961D01*
X240458Y195161D01*
X239657Y195561D01*
X238858Y195161D01*
X211357Y198161D02*
X211757Y198961D01*
X211357Y199761D01*
X212158Y199361D01*
X212958Y199761D01*
X212558Y198961D01*
X212958Y198161D01*
X212158Y198561D01*
X211357Y198161D01*
X265357Y163161D02*
X265757Y163961D01*
X265357Y164761D01*
X266158Y164361D01*
X266957Y164761D01*
X266558Y163961D01*
X266957Y163161D01*
X266158Y163561D01*
X265357Y163161D01*
X259358D02*
X259757Y163961D01*
X259358Y164761D01*
X260157Y164361D01*
X260958Y164761D01*
X260558Y163961D01*
X260958Y163161D01*
X260157Y163561D01*
X259358Y163161D01*
Y180661D02*
X259757Y181461D01*
X259358Y182261D01*
X260157Y181861D01*
X260958Y182261D01*
X260558Y181461D01*
X260958Y180661D01*
X260157Y181061D01*
X259358Y180661D01*
X265357D02*
X265757Y181461D01*
X265357Y182261D01*
X266158Y181861D01*
X266957Y182261D01*
X266558Y181461D01*
X266957Y180661D01*
X266158Y181061D01*
X265357Y180661D01*
X267858Y191661D02*
X268257Y192461D01*
X267858Y193261D01*
X268657Y192861D01*
X269458Y193261D01*
X269057Y192461D01*
X269458Y191661D01*
X268657Y192061D01*
X267858Y191661D01*
Y196661D02*
X268257Y197461D01*
X267858Y198261D01*
X268657Y197861D01*
X269458Y198261D01*
X269057Y197461D01*
X269458Y196661D01*
X268657Y197061D01*
X267858Y196661D01*
Y201661D02*
X268257Y202461D01*
X267858Y203261D01*
X268657Y202861D01*
X269458Y203261D01*
X269057Y202461D01*
X269458Y201661D01*
X268657Y202061D01*
X267858Y201661D01*
Y206661D02*
X268257Y207461D01*
X267858Y208261D01*
X268657Y207861D01*
X269458Y208261D01*
X269057Y207461D01*
X269458Y206661D01*
X268657Y207061D01*
X267858Y206661D01*
Y211661D02*
X268257Y212461D01*
X267858Y213261D01*
X268657Y212861D01*
X269458Y213261D01*
X269057Y212461D01*
X269458Y211661D01*
X268657Y212061D01*
X267858Y211661D01*
Y216661D02*
X268257Y217461D01*
X267858Y218261D01*
X268657Y217861D01*
X269458Y218261D01*
X269057Y217461D01*
X269458Y216661D01*
X268657Y217061D01*
X267858Y216661D01*
Y221661D02*
X268257Y222461D01*
X267858Y223261D01*
X268657Y222861D01*
X269458Y223261D01*
X269057Y222461D01*
X269458Y221661D01*
X268657Y222061D01*
X267858Y221661D01*
Y226661D02*
X268257Y227461D01*
X267858Y228261D01*
X268657Y227861D01*
X269458Y228261D01*
X269057Y227461D01*
X269458Y226661D01*
X268657Y227061D01*
X267858Y226661D01*
Y231661D02*
X268257Y232461D01*
X267858Y233261D01*
X268657Y232861D01*
X269458Y233261D01*
X269057Y232461D01*
X269458Y231661D01*
X268657Y232061D01*
X267858Y231661D01*
Y236661D02*
X268257Y237461D01*
X267858Y238261D01*
X268657Y237861D01*
X269458Y238261D01*
X269057Y237461D01*
X269458Y236661D01*
X268657Y237061D01*
X267858Y236661D01*
Y241661D02*
X268257Y242461D01*
X267858Y243261D01*
X268657Y242861D01*
X269458Y243261D01*
X269057Y242461D01*
X269458Y241661D01*
X268657Y242061D01*
X267858Y241661D01*
Y246661D02*
X268257Y247461D01*
X267858Y248261D01*
X268657Y247861D01*
X269458Y248261D01*
X269057Y247461D01*
X269458Y246661D01*
X268657Y247061D01*
X267858Y246661D01*
Y251661D02*
X268257Y252461D01*
X267858Y253261D01*
X268657Y252861D01*
X269458Y253261D01*
X269057Y252461D01*
X269458Y251661D01*
X268657Y252061D01*
X267858Y251661D01*
Y256661D02*
X268257Y257461D01*
X267858Y258261D01*
X268657Y257861D01*
X269458Y258261D01*
X269057Y257461D01*
X269458Y256661D01*
X268657Y257061D01*
X267858Y256661D01*
Y261661D02*
X268257Y262461D01*
X267858Y263261D01*
X268657Y262861D01*
X269458Y263261D01*
X269057Y262461D01*
X269458Y261661D01*
X268657Y262061D01*
X267858Y261661D01*
Y266661D02*
X268257Y267461D01*
X267858Y268261D01*
X268657Y267861D01*
X269458Y268261D01*
X269057Y267461D01*
X269458Y266661D01*
X268657Y267061D01*
X267858Y266661D01*
Y271661D02*
X268257Y272461D01*
X267858Y273261D01*
X268657Y272861D01*
X269458Y273261D01*
X269057Y272461D01*
X269458Y271661D01*
X268657Y272061D01*
X267858Y271661D01*
Y276661D02*
X268257Y277461D01*
X267858Y278261D01*
X268657Y277861D01*
X269458Y278261D01*
X269057Y277461D01*
X269458Y276661D01*
X268657Y277061D01*
X267858Y276661D01*
Y281661D02*
X268257Y282461D01*
X267858Y283261D01*
X268657Y282861D01*
X269458Y283261D01*
X269057Y282461D01*
X269458Y281661D01*
X268657Y282061D01*
X267858Y281661D01*
Y286661D02*
X268257Y287461D01*
X267858Y288261D01*
X268657Y287861D01*
X269458Y288261D01*
X269057Y287461D01*
X269458Y286661D01*
X268657Y287061D01*
X267858Y286661D01*
Y291661D02*
X268257Y292461D01*
X267858Y293261D01*
X268657Y292861D01*
X269458Y293261D01*
X269057Y292461D01*
X269458Y291661D01*
X268657Y292061D01*
X267858Y291661D01*
X237858Y278661D02*
X238258Y279461D01*
X237858Y280261D01*
X238657Y279861D01*
X239458Y280261D01*
X239057Y279461D01*
X239458Y278661D01*
X238657Y279061D01*
X237858Y278661D01*
X220858Y285661D02*
X221257Y286461D01*
X220858Y287261D01*
X221657Y286861D01*
X222458Y287261D01*
X222058Y286461D01*
X222458Y285661D01*
X221657Y286061D01*
X220858Y285661D01*
X232857Y287161D02*
X233258Y287961D01*
X232857Y288761D01*
X233658Y288361D01*
X234457Y288761D01*
X234057Y287961D01*
X234457Y287161D01*
X233658Y287561D01*
X232857Y287161D01*
X226358Y184661D02*
X226758Y185461D01*
X226358Y186261D01*
X227157Y185861D01*
X227958Y186261D01*
X227557Y185461D01*
X227958Y184661D01*
X227157Y185061D01*
X226358Y184661D01*
X230358Y180661D02*
X230757Y181461D01*
X230358Y182261D01*
X231157Y181861D01*
X231958Y182261D01*
X231557Y181461D01*
X231958Y180661D01*
X231157Y181061D01*
X230358Y180661D01*
X226358D02*
X226758Y181461D01*
X226358Y182261D01*
X227157Y181861D01*
X227958Y182261D01*
X227557Y181461D01*
X227958Y180661D01*
X227157Y181061D01*
X226358Y180661D01*
X244357Y210661D02*
X244758Y211461D01*
X244357Y212261D01*
X245158Y211861D01*
X245957Y212261D01*
X245557Y211461D01*
X245957Y210661D01*
X245158Y211061D01*
X244357Y210661D01*
Y205661D02*
X244758Y206461D01*
X244357Y207261D01*
X245158Y206861D01*
X245957Y207261D01*
X245557Y206461D01*
X245957Y205661D01*
X245158Y206061D01*
X244357Y205661D01*
X254358Y213661D02*
X254757Y214461D01*
X254358Y215261D01*
X255157Y214861D01*
X255958Y215261D01*
X255557Y214461D01*
X255958Y213661D01*
X255157Y214061D01*
X254358Y213661D01*
X259358Y205661D02*
X259757Y206461D01*
X259358Y207261D01*
X260157Y206861D01*
X260958Y207261D01*
X260558Y206461D01*
X260958Y205661D01*
X260157Y206061D01*
X259358Y205661D01*
X251857D02*
X252257Y206461D01*
X251857Y207261D01*
X252658Y206861D01*
X253457Y207261D01*
X253058Y206461D01*
X253457Y205661D01*
X252658Y206061D01*
X251857Y205661D01*
X259358Y213661D02*
X259757Y214461D01*
X259358Y215261D01*
X260157Y214861D01*
X260958Y215261D01*
X260558Y214461D01*
X260958Y213661D01*
X260157Y214061D01*
X259358Y213661D01*
Y228161D02*
X259757Y228961D01*
X259358Y229761D01*
X260157Y229361D01*
X260958Y229761D01*
X260558Y228961D01*
X260958Y228161D01*
X260157Y228561D01*
X259358Y228161D01*
Y265661D02*
X259757Y266461D01*
X259358Y267261D01*
X260157Y266861D01*
X260958Y267261D01*
X260558Y266461D01*
X260958Y265661D01*
X260157Y266061D01*
X259358Y265661D01*
X265357Y185161D02*
X265757Y185961D01*
X265357Y186761D01*
X266158Y186361D01*
X266957Y186761D01*
X266558Y185961D01*
X266957Y185161D01*
X266158Y185561D01*
X265357Y185161D01*
X259358D02*
X259757Y185961D01*
X259358Y186761D01*
X260157Y186361D01*
X260958Y186761D01*
X260558Y185961D01*
X260958Y185161D01*
X260157Y185561D01*
X259358Y185161D01*
X293602Y294980D02*
X292802Y296580D01*
X294402D01*
X293602Y294980D01*
X312697D02*
X311897Y296580D01*
X313497D01*
X312697Y294980D01*
X288878Y305531D02*
X289278Y305931D01*
X289678D01*
X289278Y306331D01*
X289678Y306731D01*
X289278D01*
X288878Y307131D01*
X288478Y306731D01*
X288078D01*
X288478Y306331D01*
X288078Y305931D01*
X288478D01*
X288878Y305531D01*
X317421D02*
X317821Y305931D01*
X318221D01*
X317821Y306331D01*
X318221Y306731D01*
X317821D01*
X317421Y307131D01*
X317021Y306731D01*
X316621D01*
X317021Y306331D01*
X316621Y305931D01*
X317021D01*
X317421Y305531D01*
X276350Y247161D02*
X276750Y247961D01*
X276350Y248761D01*
X277150Y248361D01*
X277950Y248761D01*
X277550Y247961D01*
X277950Y247161D01*
X277150Y247561D01*
X276350Y247161D01*
X306350Y180661D02*
X306750Y181461D01*
X306350Y182261D01*
X307150Y181861D01*
X307950Y182261D01*
X307550Y181461D01*
X307950Y180661D01*
X307150Y181061D01*
X306350Y180661D01*
X302350Y184661D02*
X302750Y185461D01*
X302350Y186261D01*
X303150Y185861D01*
X303950Y186261D01*
X303550Y185461D01*
X303950Y184661D01*
X303150Y185061D01*
X302350Y184661D01*
X282850Y191161D02*
X283250Y191961D01*
X282850Y192761D01*
X283650Y192361D01*
X284450Y192761D01*
X284050Y191961D01*
X284450Y191161D01*
X283650Y191561D01*
X282850Y191161D01*
X304850Y287161D02*
X305250Y287961D01*
X304850Y288761D01*
X305650Y288361D01*
X306450Y288761D01*
X306050Y287961D01*
X306450Y287161D01*
X305650Y287561D01*
X304850Y287161D01*
X278750Y270561D02*
Y270161D01*
X279550D01*
Y270561D01*
X279950D01*
Y271361D01*
X279550D01*
Y271761D01*
X278750D01*
Y271361D01*
X278350D01*
Y270561D01*
X278750D01*
X317750Y231561D02*
Y231161D01*
X318550D01*
Y231561D01*
X318950D01*
Y232361D01*
X318550D01*
Y232761D01*
X317750D01*
Y232361D01*
X317350D01*
Y231561D01*
X317750D01*
Y265061D02*
Y264661D01*
X318550D01*
Y265061D01*
X318950D01*
Y265861D01*
X318550D01*
Y266261D01*
X317750D01*
Y265861D01*
X317350D01*
Y265061D01*
X317750D01*
X296350Y246661D02*
X296750Y247461D01*
X296350Y248261D01*
X297150Y247861D01*
X297950Y248261D01*
X297550Y247461D01*
X297950Y246661D01*
X297150Y247061D01*
X296350Y246661D01*
X293350Y243161D02*
X293750Y243961D01*
X293350Y244761D01*
X294150Y244361D01*
X294950Y244761D01*
X294550Y243961D01*
X294950Y243161D01*
X294150Y243561D01*
X293350Y243161D01*
X300350Y287161D02*
X300750Y287961D01*
X300350Y288761D01*
X301150Y288361D01*
X301950Y288761D01*
X301550Y287961D01*
X301950Y287161D01*
X301150Y287561D01*
X300350Y287161D01*
X303250Y275321D02*
Y274921D01*
X304050D01*
Y275321D01*
X304450D01*
Y276120D01*
X304050D01*
Y276520D01*
X303250D01*
Y276120D01*
X302850D01*
Y275321D01*
X303250D01*
X301250Y222561D02*
Y222161D01*
X302050D01*
Y222561D01*
X302450D01*
Y223361D01*
X302050D01*
Y223761D01*
X301250D01*
Y223361D01*
X300850D01*
Y222561D01*
X301250D01*
X279850Y246161D02*
X280250Y246961D01*
X279850Y247761D01*
X280650Y247361D01*
X281450Y247761D01*
X281050Y246961D01*
X281450Y246161D01*
X280650Y246561D01*
X279850Y246161D01*
X282850Y233661D02*
X283250Y234461D01*
X282850Y235261D01*
X283650Y234861D01*
X284450Y235261D01*
X284050Y234461D01*
X284450Y233661D01*
X283650Y234061D01*
X282850Y233661D01*
X287350Y264161D02*
X287750Y264961D01*
X287350Y265761D01*
X288150Y265361D01*
X288950Y265761D01*
X288550Y264961D01*
X288950Y264161D01*
X288150Y264561D01*
X287350Y264161D01*
X283350D02*
X283750Y264961D01*
X283350Y265761D01*
X284150Y265361D01*
X284950Y265761D01*
X284550Y264961D01*
X284950Y264161D01*
X284150Y264561D01*
X283350Y264161D01*
X298850Y257161D02*
X299250Y257961D01*
X298850Y258761D01*
X299650Y258361D01*
X300450Y258761D01*
X300050Y257961D01*
X300450Y257161D01*
X299650Y257561D01*
X298850Y257161D01*
Y251161D02*
X299250Y251961D01*
X298850Y252761D01*
X299650Y252361D01*
X300450Y252761D01*
X300050Y251961D01*
X300450Y251161D01*
X299650Y251561D01*
X298850Y251161D01*
Y241161D02*
X299250Y241961D01*
X298850Y242761D01*
X299650Y242361D01*
X300450Y242761D01*
X300050Y241961D01*
X300450Y241161D01*
X299650Y241561D01*
X298850Y241161D01*
X309850Y257161D02*
X310250Y257961D01*
X309850Y258761D01*
X310650Y258361D01*
X311450Y258761D01*
X311050Y257961D01*
X311450Y257161D01*
X310650Y257561D01*
X309850Y257161D01*
Y251161D02*
X310250Y251961D01*
X309850Y252761D01*
X310650Y252361D01*
X311450Y252761D01*
X311050Y251961D01*
X311450Y251161D01*
X310650Y251561D01*
X309850Y251161D01*
Y245161D02*
X310250Y245961D01*
X309850Y246761D01*
X310650Y246361D01*
X311450Y246761D01*
X311050Y245961D01*
X311450Y245161D01*
X310650Y245561D01*
X309850Y245161D01*
X287350Y229161D02*
X287750Y229961D01*
X287350Y230761D01*
X288150Y230361D01*
X288950Y230761D01*
X288550Y229961D01*
X288950Y229161D01*
X288150Y229561D01*
X287350Y229161D01*
X277850Y226661D02*
X278250Y227461D01*
X277850Y228261D01*
X278650Y227861D01*
X279450Y228261D01*
X279050Y227461D01*
X279450Y226661D01*
X278650Y227061D01*
X277850Y226661D01*
Y216661D02*
X278250Y217461D01*
X277850Y218261D01*
X278650Y217861D01*
X279450Y218261D01*
X279050Y217461D01*
X279450Y216661D01*
X278650Y217061D01*
X277850Y216661D01*
X282850Y226661D02*
X283250Y227461D01*
X282850Y228261D01*
X283650Y227861D01*
X284450Y228261D01*
X284050Y227461D01*
X284450Y226661D01*
X283650Y227061D01*
X282850Y226661D01*
X295350Y222161D02*
X295750Y222961D01*
X295350Y223761D01*
X296150Y223361D01*
X296950Y223761D01*
X296550Y222961D01*
X296950Y222161D01*
X296150Y222561D01*
X295350Y222161D01*
X289350D02*
X289750Y222961D01*
X289350Y223761D01*
X290150Y223361D01*
X290950Y223761D01*
X290550Y222961D01*
X290950Y222161D01*
X290150Y222561D01*
X289350Y222161D01*
X289850Y196661D02*
X290250Y197461D01*
X289850Y198261D01*
X290650Y197861D01*
X291450Y198261D01*
X291050Y197461D01*
X291450Y196661D01*
X290650Y197061D01*
X289850Y196661D01*
X297350Y195161D02*
X297750Y195961D01*
X297350Y196761D01*
X298150Y196361D01*
X298950Y196761D01*
X298550Y195961D01*
X298950Y195161D01*
X298150Y195561D01*
X297350Y195161D01*
X301850Y191161D02*
X302250Y191961D01*
X301850Y192761D01*
X302650Y192361D01*
X303450Y192761D01*
X303050Y191961D01*
X303450Y191161D01*
X302650Y191561D01*
X301850Y191161D01*
X306350Y184661D02*
X306750Y185461D01*
X306350Y186261D01*
X307150Y185861D01*
X307950Y186261D01*
X307550Y185461D01*
X307950Y184661D01*
X307150Y185061D01*
X306350Y184661D01*
X301850Y195161D02*
X302250Y195961D01*
X301850Y196761D01*
X302650Y196361D01*
X303450Y196761D01*
X303050Y195961D01*
X303450Y195161D01*
X302650Y195561D01*
X301850Y195161D01*
X274350Y198161D02*
X274750Y198961D01*
X274350Y199761D01*
X275150Y199361D01*
X275950Y199761D01*
X275550Y198961D01*
X275950Y198161D01*
X275150Y198561D01*
X274350Y198161D01*
X328350Y163161D02*
X328750Y163961D01*
X328350Y164761D01*
X329150Y164361D01*
X329950Y164761D01*
X329550Y163961D01*
X329950Y163161D01*
X329150Y163561D01*
X328350Y163161D01*
X322350D02*
X322750Y163961D01*
X322350Y164761D01*
X323150Y164361D01*
X323950Y164761D01*
X323550Y163961D01*
X323950Y163161D01*
X323150Y163561D01*
X322350Y163161D01*
Y180661D02*
X322750Y181461D01*
X322350Y182261D01*
X323150Y181861D01*
X323950Y182261D01*
X323550Y181461D01*
X323950Y180661D01*
X323150Y181061D01*
X322350Y180661D01*
X328350D02*
X328750Y181461D01*
X328350Y182261D01*
X329150Y181861D01*
X329950Y182261D01*
X329550Y181461D01*
X329950Y180661D01*
X329150Y181061D01*
X328350Y180661D01*
X330850Y191661D02*
X331250Y192461D01*
X330850Y193261D01*
X331650Y192861D01*
X332450Y193261D01*
X332050Y192461D01*
X332450Y191661D01*
X331650Y192061D01*
X330850Y191661D01*
Y196661D02*
X331250Y197461D01*
X330850Y198261D01*
X331650Y197861D01*
X332450Y198261D01*
X332050Y197461D01*
X332450Y196661D01*
X331650Y197061D01*
X330850Y196661D01*
Y201661D02*
X331250Y202461D01*
X330850Y203261D01*
X331650Y202861D01*
X332450Y203261D01*
X332050Y202461D01*
X332450Y201661D01*
X331650Y202061D01*
X330850Y201661D01*
Y206661D02*
X331250Y207461D01*
X330850Y208261D01*
X331650Y207861D01*
X332450Y208261D01*
X332050Y207461D01*
X332450Y206661D01*
X331650Y207061D01*
X330850Y206661D01*
Y211661D02*
X331250Y212461D01*
X330850Y213261D01*
X331650Y212861D01*
X332450Y213261D01*
X332050Y212461D01*
X332450Y211661D01*
X331650Y212061D01*
X330850Y211661D01*
Y216661D02*
X331250Y217461D01*
X330850Y218261D01*
X331650Y217861D01*
X332450Y218261D01*
X332050Y217461D01*
X332450Y216661D01*
X331650Y217061D01*
X330850Y216661D01*
Y221661D02*
X331250Y222461D01*
X330850Y223261D01*
X331650Y222861D01*
X332450Y223261D01*
X332050Y222461D01*
X332450Y221661D01*
X331650Y222061D01*
X330850Y221661D01*
Y226661D02*
X331250Y227461D01*
X330850Y228261D01*
X331650Y227861D01*
X332450Y228261D01*
X332050Y227461D01*
X332450Y226661D01*
X331650Y227061D01*
X330850Y226661D01*
Y231661D02*
X331250Y232461D01*
X330850Y233261D01*
X331650Y232861D01*
X332450Y233261D01*
X332050Y232461D01*
X332450Y231661D01*
X331650Y232061D01*
X330850Y231661D01*
Y236661D02*
X331250Y237461D01*
X330850Y238261D01*
X331650Y237861D01*
X332450Y238261D01*
X332050Y237461D01*
X332450Y236661D01*
X331650Y237061D01*
X330850Y236661D01*
Y241661D02*
X331250Y242461D01*
X330850Y243261D01*
X331650Y242861D01*
X332450Y243261D01*
X332050Y242461D01*
X332450Y241661D01*
X331650Y242061D01*
X330850Y241661D01*
Y246661D02*
X331250Y247461D01*
X330850Y248261D01*
X331650Y247861D01*
X332450Y248261D01*
X332050Y247461D01*
X332450Y246661D01*
X331650Y247061D01*
X330850Y246661D01*
Y251661D02*
X331250Y252461D01*
X330850Y253261D01*
X331650Y252861D01*
X332450Y253261D01*
X332050Y252461D01*
X332450Y251661D01*
X331650Y252061D01*
X330850Y251661D01*
Y256661D02*
X331250Y257461D01*
X330850Y258261D01*
X331650Y257861D01*
X332450Y258261D01*
X332050Y257461D01*
X332450Y256661D01*
X331650Y257061D01*
X330850Y256661D01*
Y261661D02*
X331250Y262461D01*
X330850Y263261D01*
X331650Y262861D01*
X332450Y263261D01*
X332050Y262461D01*
X332450Y261661D01*
X331650Y262061D01*
X330850Y261661D01*
Y266661D02*
X331250Y267461D01*
X330850Y268261D01*
X331650Y267861D01*
X332450Y268261D01*
X332050Y267461D01*
X332450Y266661D01*
X331650Y267061D01*
X330850Y266661D01*
Y271661D02*
X331250Y272461D01*
X330850Y273261D01*
X331650Y272861D01*
X332450Y273261D01*
X332050Y272461D01*
X332450Y271661D01*
X331650Y272061D01*
X330850Y271661D01*
Y276661D02*
X331250Y277461D01*
X330850Y278261D01*
X331650Y277861D01*
X332450Y278261D01*
X332050Y277461D01*
X332450Y276661D01*
X331650Y277061D01*
X330850Y276661D01*
Y281661D02*
X331250Y282461D01*
X330850Y283261D01*
X331650Y282861D01*
X332450Y283261D01*
X332050Y282461D01*
X332450Y281661D01*
X331650Y282061D01*
X330850Y281661D01*
Y286661D02*
X331250Y287461D01*
X330850Y288261D01*
X331650Y287861D01*
X332450Y288261D01*
X332050Y287461D01*
X332450Y286661D01*
X331650Y287061D01*
X330850Y286661D01*
Y291661D02*
X331250Y292461D01*
X330850Y293261D01*
X331650Y292861D01*
X332450Y293261D01*
X332050Y292461D01*
X332450Y291661D01*
X331650Y292061D01*
X330850Y291661D01*
X300850Y278661D02*
X301250Y279461D01*
X300850Y280261D01*
X301650Y279861D01*
X302450Y280261D01*
X302050Y279461D01*
X302450Y278661D01*
X301650Y279061D01*
X300850Y278661D01*
X283850Y285661D02*
X284250Y286461D01*
X283850Y287261D01*
X284650Y286861D01*
X285450Y287261D01*
X285050Y286461D01*
X285450Y285661D01*
X284650Y286061D01*
X283850Y285661D01*
X295850Y287161D02*
X296250Y287961D01*
X295850Y288761D01*
X296650Y288361D01*
X297450Y288761D01*
X297050Y287961D01*
X297450Y287161D01*
X296650Y287561D01*
X295850Y287161D01*
X289350Y184661D02*
X289750Y185461D01*
X289350Y186261D01*
X290150Y185861D01*
X290950Y186261D01*
X290550Y185461D01*
X290950Y184661D01*
X290150Y185061D01*
X289350Y184661D01*
X293350Y180661D02*
X293750Y181461D01*
X293350Y182261D01*
X294150Y181861D01*
X294950Y182261D01*
X294550Y181461D01*
X294950Y180661D01*
X294150Y181061D01*
X293350Y180661D01*
X289350D02*
X289750Y181461D01*
X289350Y182261D01*
X290150Y181861D01*
X290950Y182261D01*
X290550Y181461D01*
X290950Y180661D01*
X290150Y181061D01*
X289350Y180661D01*
X307350Y210661D02*
X307750Y211461D01*
X307350Y212261D01*
X308150Y211861D01*
X308950Y212261D01*
X308550Y211461D01*
X308950Y210661D01*
X308150Y211061D01*
X307350Y210661D01*
Y205661D02*
X307750Y206461D01*
X307350Y207261D01*
X308150Y206861D01*
X308950Y207261D01*
X308550Y206461D01*
X308950Y205661D01*
X308150Y206061D01*
X307350Y205661D01*
X317350Y213661D02*
X317750Y214461D01*
X317350Y215261D01*
X318150Y214861D01*
X318950Y215261D01*
X318550Y214461D01*
X318950Y213661D01*
X318150Y214061D01*
X317350Y213661D01*
X322350Y205661D02*
X322750Y206461D01*
X322350Y207261D01*
X323150Y206861D01*
X323950Y207261D01*
X323550Y206461D01*
X323950Y205661D01*
X323150Y206061D01*
X322350Y205661D01*
X314850D02*
X315250Y206461D01*
X314850Y207261D01*
X315650Y206861D01*
X316450Y207261D01*
X316050Y206461D01*
X316450Y205661D01*
X315650Y206061D01*
X314850Y205661D01*
X322350Y213661D02*
X322750Y214461D01*
X322350Y215261D01*
X323150Y214861D01*
X323950Y215261D01*
X323550Y214461D01*
X323950Y213661D01*
X323150Y214061D01*
X322350Y213661D01*
Y228161D02*
X322750Y228961D01*
X322350Y229761D01*
X323150Y229361D01*
X323950Y229761D01*
X323550Y228961D01*
X323950Y228161D01*
X323150Y228561D01*
X322350Y228161D01*
Y265661D02*
X322750Y266461D01*
X322350Y267261D01*
X323150Y266861D01*
X323950Y267261D01*
X323550Y266461D01*
X323950Y265661D01*
X323150Y266061D01*
X322350Y265661D01*
X328350Y185161D02*
X328750Y185961D01*
X328350Y186761D01*
X329150Y186361D01*
X329950Y186761D01*
X329550Y185961D01*
X329950Y185161D01*
X329150Y185561D01*
X328350Y185161D01*
X322350D02*
X322750Y185961D01*
X322350Y186761D01*
X323150Y186361D01*
X323950Y186761D01*
X323550Y185961D01*
X323950Y185161D01*
X323150Y185561D01*
X322350Y185161D01*
X312697Y18381D02*
X311897Y19981D01*
X313497D01*
X312697Y18381D01*
X293602D02*
X292802Y19981D01*
X294402D01*
X293602Y18381D01*
X317421Y7830D02*
X317821Y8230D01*
X318221D01*
X317821Y8630D01*
X318221Y9030D01*
X317821D01*
X317421Y9430D01*
X317021Y9030D01*
X316621D01*
X317021Y8630D01*
X316621Y8230D01*
X317021D01*
X317421Y7830D01*
X288878D02*
X289278Y8230D01*
X289678D01*
X289278Y8630D01*
X289678Y9030D01*
X289278D01*
X288878Y9430D01*
X288478Y9030D01*
X288078D01*
X288478Y8630D01*
X288078Y8230D01*
X288478D01*
X288878Y7830D01*
X328350Y66200D02*
X328750Y67000D01*
X328350Y67800D01*
X329150Y67400D01*
X329950Y67800D01*
X329550Y67000D01*
X329950Y66200D01*
X329150Y66600D01*
X328350Y66200D01*
X298350Y132700D02*
X298750Y133500D01*
X298350Y134300D01*
X299150Y133900D01*
X299950Y134300D01*
X299550Y133500D01*
X299950Y132700D01*
X299150Y133100D01*
X298350Y132700D01*
X302350Y128700D02*
X302750Y129500D01*
X302350Y130300D01*
X303150Y129900D01*
X303950Y130300D01*
X303550Y129500D01*
X303950Y128700D01*
X303150Y129100D01*
X302350Y128700D01*
X321850Y122200D02*
X322250Y123000D01*
X321850Y123800D01*
X322650Y123400D01*
X323450Y123800D01*
X323050Y123000D01*
X323450Y122200D01*
X322650Y122600D01*
X321850Y122200D01*
X299850Y26200D02*
X300250Y27000D01*
X299850Y27800D01*
X300650Y27400D01*
X301450Y27800D01*
X301050Y27000D01*
X301450Y26200D01*
X300650Y26600D01*
X299850Y26200D01*
X326750Y43600D02*
Y43200D01*
X327550D01*
Y43600D01*
X327950D01*
Y44400D01*
X327550D01*
Y44800D01*
X326750D01*
Y44400D01*
X326350D01*
Y43600D01*
X326750D01*
X287750Y82600D02*
Y82200D01*
X288550D01*
Y82600D01*
X288950D01*
Y83400D01*
X288550D01*
Y83800D01*
X287750D01*
Y83400D01*
X287350D01*
Y82600D01*
X287750D01*
Y49100D02*
Y48700D01*
X288550D01*
Y49100D01*
X288950D01*
Y49900D01*
X288550D01*
Y50300D01*
X287750D01*
Y49900D01*
X287350D01*
Y49100D01*
X287750D01*
X308350Y66700D02*
X308750Y67500D01*
X308350Y68300D01*
X309150Y67900D01*
X309950Y68300D01*
X309550Y67500D01*
X309950Y66700D01*
X309150Y67100D01*
X308350Y66700D01*
X311350Y70200D02*
X311750Y71000D01*
X311350Y71800D01*
X312150Y71400D01*
X312950Y71800D01*
X312550Y71000D01*
X312950Y70200D01*
X312150Y70600D01*
X311350Y70200D01*
X304350Y26200D02*
X304750Y27000D01*
X304350Y27800D01*
X305150Y27400D01*
X305950Y27800D01*
X305550Y27000D01*
X305950Y26200D01*
X305150Y26600D01*
X304350Y26200D01*
X302250Y38840D02*
Y38440D01*
X303050D01*
Y38840D01*
X303450D01*
Y39640D01*
X303050D01*
Y40040D01*
X302250D01*
Y39640D01*
X301850D01*
Y38840D01*
X302250D01*
X304250Y91600D02*
Y91200D01*
X305050D01*
Y91600D01*
X305450D01*
Y92400D01*
X305050D01*
Y92800D01*
X304250D01*
Y92400D01*
X303850D01*
Y91600D01*
X304250D01*
X324850Y67200D02*
X325250Y68000D01*
X324850Y68800D01*
X325650Y68400D01*
X326450Y68800D01*
X326050Y68000D01*
X326450Y67200D01*
X325650Y67600D01*
X324850Y67200D01*
X321850Y79700D02*
X322250Y80500D01*
X321850Y81300D01*
X322650Y80900D01*
X323450Y81300D01*
X323050Y80500D01*
X323450Y79700D01*
X322650Y80100D01*
X321850Y79700D01*
X317350Y49200D02*
X317750Y50000D01*
X317350Y50800D01*
X318150Y50400D01*
X318950Y50800D01*
X318550Y50000D01*
X318950Y49200D01*
X318150Y49600D01*
X317350Y49200D01*
X321350D02*
X321750Y50000D01*
X321350Y50800D01*
X322150Y50400D01*
X322950Y50800D01*
X322550Y50000D01*
X322950Y49200D01*
X322150Y49600D01*
X321350Y49200D01*
X305850Y56200D02*
X306250Y57000D01*
X305850Y57800D01*
X306650Y57400D01*
X307450Y57800D01*
X307050Y57000D01*
X307450Y56200D01*
X306650Y56600D01*
X305850Y56200D01*
Y62200D02*
X306250Y63000D01*
X305850Y63800D01*
X306650Y63400D01*
X307450Y63800D01*
X307050Y63000D01*
X307450Y62200D01*
X306650Y62600D01*
X305850Y62200D01*
Y72200D02*
X306250Y73000D01*
X305850Y73800D01*
X306650Y73400D01*
X307450Y73800D01*
X307050Y73000D01*
X307450Y72200D01*
X306650Y72600D01*
X305850Y72200D01*
X294850Y56200D02*
X295250Y57000D01*
X294850Y57800D01*
X295650Y57400D01*
X296450Y57800D01*
X296050Y57000D01*
X296450Y56200D01*
X295650Y56600D01*
X294850Y56200D01*
Y62200D02*
X295250Y63000D01*
X294850Y63800D01*
X295650Y63400D01*
X296450Y63800D01*
X296050Y63000D01*
X296450Y62200D01*
X295650Y62600D01*
X294850Y62200D01*
Y68200D02*
X295250Y69000D01*
X294850Y69800D01*
X295650Y69400D01*
X296450Y69800D01*
X296050Y69000D01*
X296450Y68200D01*
X295650Y68600D01*
X294850Y68200D01*
X317350Y84200D02*
X317750Y85000D01*
X317350Y85800D01*
X318150Y85400D01*
X318950Y85800D01*
X318550Y85000D01*
X318950Y84200D01*
X318150Y84600D01*
X317350Y84200D01*
X326850Y86700D02*
X327250Y87500D01*
X326850Y88300D01*
X327650Y87900D01*
X328450Y88300D01*
X328050Y87500D01*
X328450Y86700D01*
X327650Y87100D01*
X326850Y86700D01*
Y96700D02*
X327250Y97500D01*
X326850Y98300D01*
X327650Y97900D01*
X328450Y98300D01*
X328050Y97500D01*
X328450Y96700D01*
X327650Y97100D01*
X326850Y96700D01*
X321850Y86700D02*
X322250Y87500D01*
X321850Y88300D01*
X322650Y87900D01*
X323450Y88300D01*
X323050Y87500D01*
X323450Y86700D01*
X322650Y87100D01*
X321850Y86700D01*
X309350Y91200D02*
X309750Y92000D01*
X309350Y92800D01*
X310150Y92400D01*
X310950Y92800D01*
X310550Y92000D01*
X310950Y91200D01*
X310150Y91600D01*
X309350Y91200D01*
X315350D02*
X315750Y92000D01*
X315350Y92800D01*
X316150Y92400D01*
X316950Y92800D01*
X316550Y92000D01*
X316950Y91200D01*
X316150Y91600D01*
X315350Y91200D01*
X314850Y116700D02*
X315250Y117500D01*
X314850Y118300D01*
X315650Y117900D01*
X316450Y118300D01*
X316050Y117500D01*
X316450Y116700D01*
X315650Y117100D01*
X314850Y116700D01*
X307350Y118200D02*
X307750Y119000D01*
X307350Y119800D01*
X308150Y119400D01*
X308950Y119800D01*
X308550Y119000D01*
X308950Y118200D01*
X308150Y118600D01*
X307350Y118200D01*
X302850Y122200D02*
X303250Y123000D01*
X302850Y123800D01*
X303650Y123400D01*
X304450Y123800D01*
X304050Y123000D01*
X304450Y122200D01*
X303650Y122600D01*
X302850Y122200D01*
X298350Y128700D02*
X298750Y129500D01*
X298350Y130300D01*
X299150Y129900D01*
X299950Y130300D01*
X299550Y129500D01*
X299950Y128700D01*
X299150Y129100D01*
X298350Y128700D01*
X302850Y118200D02*
X303250Y119000D01*
X302850Y119800D01*
X303650Y119400D01*
X304450Y119800D01*
X304050Y119000D01*
X304450Y118200D01*
X303650Y118600D01*
X302850Y118200D01*
X330350Y115200D02*
X330750Y116000D01*
X330350Y116800D01*
X331150Y116400D01*
X331950Y116800D01*
X331550Y116000D01*
X331950Y115200D01*
X331150Y115600D01*
X330350Y115200D01*
X276350Y150200D02*
X276750Y151000D01*
X276350Y151800D01*
X277150Y151400D01*
X277950Y151800D01*
X277550Y151000D01*
X277950Y150200D01*
X277150Y150600D01*
X276350Y150200D01*
X282350D02*
X282750Y151000D01*
X282350Y151800D01*
X283150Y151400D01*
X283950Y151800D01*
X283550Y151000D01*
X283950Y150200D01*
X283150Y150600D01*
X282350Y150200D01*
Y132700D02*
X282750Y133500D01*
X282350Y134300D01*
X283150Y133900D01*
X283950Y134300D01*
X283550Y133500D01*
X283950Y132700D01*
X283150Y133100D01*
X282350Y132700D01*
X276350D02*
X276750Y133500D01*
X276350Y134300D01*
X277150Y133900D01*
X277950Y134300D01*
X277550Y133500D01*
X277950Y132700D01*
X277150Y133100D01*
X276350Y132700D01*
X273850Y121700D02*
X274250Y122500D01*
X273850Y123300D01*
X274650Y122900D01*
X275450Y123300D01*
X275050Y122500D01*
X275450Y121700D01*
X274650Y122100D01*
X273850Y121700D01*
Y116700D02*
X274250Y117500D01*
X273850Y118300D01*
X274650Y117900D01*
X275450Y118300D01*
X275050Y117500D01*
X275450Y116700D01*
X274650Y117100D01*
X273850Y116700D01*
Y111700D02*
X274250Y112500D01*
X273850Y113300D01*
X274650Y112900D01*
X275450Y113300D01*
X275050Y112500D01*
X275450Y111700D01*
X274650Y112100D01*
X273850Y111700D01*
Y106700D02*
X274250Y107500D01*
X273850Y108300D01*
X274650Y107900D01*
X275450Y108300D01*
X275050Y107500D01*
X275450Y106700D01*
X274650Y107100D01*
X273850Y106700D01*
Y101700D02*
X274250Y102500D01*
X273850Y103300D01*
X274650Y102900D01*
X275450Y103300D01*
X275050Y102500D01*
X275450Y101700D01*
X274650Y102100D01*
X273850Y101700D01*
Y96700D02*
X274250Y97500D01*
X273850Y98300D01*
X274650Y97900D01*
X275450Y98300D01*
X275050Y97500D01*
X275450Y96700D01*
X274650Y97100D01*
X273850Y96700D01*
Y91700D02*
X274250Y92500D01*
X273850Y93300D01*
X274650Y92900D01*
X275450Y93300D01*
X275050Y92500D01*
X275450Y91700D01*
X274650Y92100D01*
X273850Y91700D01*
Y86700D02*
X274250Y87500D01*
X273850Y88300D01*
X274650Y87900D01*
X275450Y88300D01*
X275050Y87500D01*
X275450Y86700D01*
X274650Y87100D01*
X273850Y86700D01*
Y81700D02*
X274250Y82500D01*
X273850Y83300D01*
X274650Y82900D01*
X275450Y83300D01*
X275050Y82500D01*
X275450Y81700D01*
X274650Y82100D01*
X273850Y81700D01*
Y76700D02*
X274250Y77500D01*
X273850Y78300D01*
X274650Y77900D01*
X275450Y78300D01*
X275050Y77500D01*
X275450Y76700D01*
X274650Y77100D01*
X273850Y76700D01*
Y71700D02*
X274250Y72500D01*
X273850Y73300D01*
X274650Y72900D01*
X275450Y73300D01*
X275050Y72500D01*
X275450Y71700D01*
X274650Y72100D01*
X273850Y71700D01*
Y66700D02*
X274250Y67500D01*
X273850Y68300D01*
X274650Y67900D01*
X275450Y68300D01*
X275050Y67500D01*
X275450Y66700D01*
X274650Y67100D01*
X273850Y66700D01*
Y61700D02*
X274250Y62500D01*
X273850Y63300D01*
X274650Y62900D01*
X275450Y63300D01*
X275050Y62500D01*
X275450Y61700D01*
X274650Y62100D01*
X273850Y61700D01*
Y56700D02*
X274250Y57500D01*
X273850Y58300D01*
X274650Y57900D01*
X275450Y58300D01*
X275050Y57500D01*
X275450Y56700D01*
X274650Y57100D01*
X273850Y56700D01*
Y51700D02*
X274250Y52500D01*
X273850Y53300D01*
X274650Y52900D01*
X275450Y53300D01*
X275050Y52500D01*
X275450Y51700D01*
X274650Y52100D01*
X273850Y51700D01*
Y46700D02*
X274250Y47500D01*
X273850Y48300D01*
X274650Y47900D01*
X275450Y48300D01*
X275050Y47500D01*
X275450Y46700D01*
X274650Y47100D01*
X273850Y46700D01*
Y41700D02*
X274250Y42500D01*
X273850Y43300D01*
X274650Y42900D01*
X275450Y43300D01*
X275050Y42500D01*
X275450Y41700D01*
X274650Y42100D01*
X273850Y41700D01*
Y36700D02*
X274250Y37500D01*
X273850Y38300D01*
X274650Y37900D01*
X275450Y38300D01*
X275050Y37500D01*
X275450Y36700D01*
X274650Y37100D01*
X273850Y36700D01*
Y31700D02*
X274250Y32500D01*
X273850Y33300D01*
X274650Y32900D01*
X275450Y33300D01*
X275050Y32500D01*
X275450Y31700D01*
X274650Y32100D01*
X273850Y31700D01*
Y26700D02*
X274250Y27500D01*
X273850Y28300D01*
X274650Y27900D01*
X275450Y28300D01*
X275050Y27500D01*
X275450Y26700D01*
X274650Y27100D01*
X273850Y26700D01*
Y21700D02*
X274250Y22500D01*
X273850Y23300D01*
X274650Y22900D01*
X275450Y23300D01*
X275050Y22500D01*
X275450Y21700D01*
X274650Y22100D01*
X273850Y21700D01*
X303850Y34700D02*
X304250Y35500D01*
X303850Y36300D01*
X304650Y35900D01*
X305450Y36300D01*
X305050Y35500D01*
X305450Y34700D01*
X304650Y35100D01*
X303850Y34700D01*
X320850Y27700D02*
X321250Y28500D01*
X320850Y29300D01*
X321650Y28900D01*
X322450Y29300D01*
X322050Y28500D01*
X322450Y27700D01*
X321650Y28100D01*
X320850Y27700D01*
X308850Y26200D02*
X309250Y27000D01*
X308850Y27800D01*
X309650Y27400D01*
X310450Y27800D01*
X310050Y27000D01*
X310450Y26200D01*
X309650Y26600D01*
X308850Y26200D01*
X315350Y128700D02*
X315750Y129500D01*
X315350Y130300D01*
X316150Y129900D01*
X316950Y130300D01*
X316550Y129500D01*
X316950Y128700D01*
X316150Y129100D01*
X315350Y128700D01*
X311350Y132700D02*
X311750Y133500D01*
X311350Y134300D01*
X312150Y133900D01*
X312950Y134300D01*
X312550Y133500D01*
X312950Y132700D01*
X312150Y133100D01*
X311350Y132700D01*
X315350D02*
X315750Y133500D01*
X315350Y134300D01*
X316150Y133900D01*
X316950Y134300D01*
X316550Y133500D01*
X316950Y132700D01*
X316150Y133100D01*
X315350Y132700D01*
X297350Y102700D02*
X297750Y103500D01*
X297350Y104300D01*
X298150Y103900D01*
X298950Y104300D01*
X298550Y103500D01*
X298950Y102700D01*
X298150Y103100D01*
X297350Y102700D01*
Y107700D02*
X297750Y108500D01*
X297350Y109300D01*
X298150Y108900D01*
X298950Y109300D01*
X298550Y108500D01*
X298950Y107700D01*
X298150Y108100D01*
X297350Y107700D01*
X287350Y99700D02*
X287750Y100500D01*
X287350Y101300D01*
X288150Y100900D01*
X288950Y101300D01*
X288550Y100500D01*
X288950Y99700D01*
X288150Y100100D01*
X287350Y99700D01*
X282350Y107700D02*
X282750Y108500D01*
X282350Y109300D01*
X283150Y108900D01*
X283950Y109300D01*
X283550Y108500D01*
X283950Y107700D01*
X283150Y108100D01*
X282350Y107700D01*
X289850D02*
X290250Y108500D01*
X289850Y109300D01*
X290650Y108900D01*
X291450Y109300D01*
X291050Y108500D01*
X291450Y107700D01*
X290650Y108100D01*
X289850Y107700D01*
X282350Y99700D02*
X282750Y100500D01*
X282350Y101300D01*
X283150Y100900D01*
X283950Y101300D01*
X283550Y100500D01*
X283950Y99700D01*
X283150Y100100D01*
X282350Y99700D01*
Y85200D02*
X282750Y86000D01*
X282350Y86800D01*
X283150Y86400D01*
X283950Y86800D01*
X283550Y86000D01*
X283950Y85200D01*
X283150Y85600D01*
X282350Y85200D01*
Y47700D02*
X282750Y48500D01*
X282350Y49300D01*
X283150Y48900D01*
X283950Y49300D01*
X283550Y48500D01*
X283950Y47700D01*
X283150Y48100D01*
X282350Y47700D01*
X276350Y128200D02*
X276750Y129000D01*
X276350Y129800D01*
X277150Y129400D01*
X277950Y129800D01*
X277550Y129000D01*
X277950Y128200D01*
X277150Y128600D01*
X276350Y128200D01*
X282350D02*
X282750Y129000D01*
X282350Y129800D01*
X283150Y129400D01*
X283950Y129800D01*
X283550Y129000D01*
X283950Y128200D01*
X283150Y128600D01*
X282350Y128200D01*
X249705Y18381D02*
X248905Y19981D01*
X250505D01*
X249705Y18381D01*
X230610D02*
X229810Y19981D01*
X231410D01*
X230610Y18381D01*
X254429Y7830D02*
X254829Y8230D01*
X255229D01*
X254829Y8630D01*
X255229Y9030D01*
X254829D01*
X254429Y9430D01*
X254029Y9030D01*
X253629D01*
X254029Y8630D01*
X253629Y8230D01*
X254029D01*
X254429Y7830D01*
X225886D02*
X226286Y8230D01*
X226686D01*
X226286Y8630D01*
X226686Y9030D01*
X226286D01*
X225886Y9430D01*
X225486Y9030D01*
X225086D01*
X225486Y8630D01*
X225086Y8230D01*
X225486D01*
X225886Y7830D01*
X265357Y66200D02*
X265757Y67000D01*
X265357Y67800D01*
X266158Y67400D01*
X266957Y67800D01*
X266558Y67000D01*
X266957Y66200D01*
X266158Y66600D01*
X265357Y66200D01*
X235357Y132700D02*
X235757Y133500D01*
X235357Y134300D01*
X236157Y133900D01*
X236958Y134300D01*
X236558Y133500D01*
X236958Y132700D01*
X236157Y133100D01*
X235357Y132700D01*
X239357Y128700D02*
X239757Y129500D01*
X239357Y130300D01*
X240158Y129900D01*
X240957Y130300D01*
X240558Y129500D01*
X240957Y128700D01*
X240158Y129100D01*
X239357Y128700D01*
X258857Y122200D02*
X259258Y123000D01*
X258857Y123800D01*
X259658Y123400D01*
X260457Y123800D01*
X260057Y123000D01*
X260457Y122200D01*
X259658Y122600D01*
X258857Y122200D01*
X236858Y26200D02*
X237258Y27000D01*
X236858Y27800D01*
X237657Y27400D01*
X238457Y27800D01*
X238057Y27000D01*
X238457Y26200D01*
X237657Y26600D01*
X236858Y26200D01*
X263757Y43600D02*
Y43200D01*
X264558D01*
Y43600D01*
X264957D01*
Y44400D01*
X264558D01*
Y44800D01*
X263757D01*
Y44400D01*
X263357D01*
Y43600D01*
X263757D01*
X224758Y82600D02*
Y82200D01*
X225557D01*
Y82600D01*
X225957D01*
Y83400D01*
X225557D01*
Y83800D01*
X224758D01*
Y83400D01*
X224358D01*
Y82600D01*
X224758D01*
Y49100D02*
Y48700D01*
X225557D01*
Y49100D01*
X225957D01*
Y49900D01*
X225557D01*
Y50300D01*
X224758D01*
Y49900D01*
X224358D01*
Y49100D01*
X224758D01*
X245357Y66700D02*
X245758Y67500D01*
X245357Y68300D01*
X246158Y67900D01*
X246957Y68300D01*
X246557Y67500D01*
X246957Y66700D01*
X246158Y67100D01*
X245357Y66700D01*
X248358Y70200D02*
X248758Y71000D01*
X248358Y71800D01*
X249158Y71400D01*
X249957Y71800D01*
X249557Y71000D01*
X249957Y70200D01*
X249158Y70600D01*
X248358Y70200D01*
X241357Y26200D02*
X241757Y27000D01*
X241357Y27800D01*
X242158Y27400D01*
X242957Y27800D01*
X242558Y27000D01*
X242957Y26200D01*
X242158Y26600D01*
X241357Y26200D01*
X239258Y38840D02*
Y38440D01*
X240057D01*
Y38840D01*
X240458D01*
Y39640D01*
X240057D01*
Y40040D01*
X239258D01*
Y39640D01*
X238858D01*
Y38840D01*
X239258D01*
X241258Y91600D02*
Y91200D01*
X242057D01*
Y91600D01*
X242458D01*
Y92400D01*
X242057D01*
Y92800D01*
X241258D01*
Y92400D01*
X240858D01*
Y91600D01*
X241258D01*
X261858Y67200D02*
X262258Y68000D01*
X261858Y68800D01*
X262657Y68400D01*
X263457Y68800D01*
X263057Y68000D01*
X263457Y67200D01*
X262657Y67600D01*
X261858Y67200D01*
X258857Y79700D02*
X259258Y80500D01*
X258857Y81300D01*
X259658Y80900D01*
X260457Y81300D01*
X260057Y80500D01*
X260457Y79700D01*
X259658Y80100D01*
X258857Y79700D01*
X254358Y49200D02*
X254757Y50000D01*
X254358Y50800D01*
X255157Y50400D01*
X255958Y50800D01*
X255557Y50000D01*
X255958Y49200D01*
X255157Y49600D01*
X254358Y49200D01*
X258358D02*
X258757Y50000D01*
X258358Y50800D01*
X259157Y50400D01*
X259958Y50800D01*
X259558Y50000D01*
X259958Y49200D01*
X259157Y49600D01*
X258358Y49200D01*
X242858Y56200D02*
X243257Y57000D01*
X242858Y57800D01*
X243657Y57400D01*
X244458Y57800D01*
X244057Y57000D01*
X244458Y56200D01*
X243657Y56600D01*
X242858Y56200D01*
Y62200D02*
X243257Y63000D01*
X242858Y63800D01*
X243657Y63400D01*
X244458Y63800D01*
X244057Y63000D01*
X244458Y62200D01*
X243657Y62600D01*
X242858Y62200D01*
Y72200D02*
X243257Y73000D01*
X242858Y73800D01*
X243657Y73400D01*
X244458Y73800D01*
X244057Y73000D01*
X244458Y72200D01*
X243657Y72600D01*
X242858Y72200D01*
X231857Y56200D02*
X232258Y57000D01*
X231857Y57800D01*
X232658Y57400D01*
X233457Y57800D01*
X233057Y57000D01*
X233457Y56200D01*
X232658Y56600D01*
X231857Y56200D01*
Y62200D02*
X232258Y63000D01*
X231857Y63800D01*
X232658Y63400D01*
X233457Y63800D01*
X233057Y63000D01*
X233457Y62200D01*
X232658Y62600D01*
X231857Y62200D01*
Y68200D02*
X232258Y69000D01*
X231857Y69800D01*
X232658Y69400D01*
X233457Y69800D01*
X233057Y69000D01*
X233457Y68200D01*
X232658Y68600D01*
X231857Y68200D01*
X254358Y84200D02*
X254757Y85000D01*
X254358Y85800D01*
X255157Y85400D01*
X255958Y85800D01*
X255557Y85000D01*
X255958Y84200D01*
X255157Y84600D01*
X254358Y84200D01*
X263858Y86700D02*
X264258Y87500D01*
X263858Y88300D01*
X264657Y87900D01*
X265458Y88300D01*
X265057Y87500D01*
X265458Y86700D01*
X264657Y87100D01*
X263858Y86700D01*
Y96700D02*
X264258Y97500D01*
X263858Y98300D01*
X264657Y97900D01*
X265458Y98300D01*
X265057Y97500D01*
X265458Y96700D01*
X264657Y97100D01*
X263858Y96700D01*
X258857Y86700D02*
X259258Y87500D01*
X258857Y88300D01*
X259658Y87900D01*
X260457Y88300D01*
X260057Y87500D01*
X260457Y86700D01*
X259658Y87100D01*
X258857Y86700D01*
X246357Y91200D02*
X246758Y92000D01*
X246357Y92800D01*
X247158Y92400D01*
X247957Y92800D01*
X247557Y92000D01*
X247957Y91200D01*
X247158Y91600D01*
X246357Y91200D01*
X252358D02*
X252758Y92000D01*
X252358Y92800D01*
X253157Y92400D01*
X253958Y92800D01*
X253557Y92000D01*
X253958Y91200D01*
X253157Y91600D01*
X252358Y91200D01*
X251857Y116700D02*
X252257Y117500D01*
X251857Y118300D01*
X252658Y117900D01*
X253457Y118300D01*
X253058Y117500D01*
X253457Y116700D01*
X252658Y117100D01*
X251857Y116700D01*
X244357Y118200D02*
X244758Y119000D01*
X244357Y119800D01*
X245158Y119400D01*
X245957Y119800D01*
X245557Y119000D01*
X245957Y118200D01*
X245158Y118600D01*
X244357Y118200D01*
X239858Y122200D02*
X240258Y123000D01*
X239858Y123800D01*
X240657Y123400D01*
X241458Y123800D01*
X241057Y123000D01*
X241458Y122200D01*
X240657Y122600D01*
X239858Y122200D01*
X235357Y128700D02*
X235757Y129500D01*
X235357Y130300D01*
X236157Y129900D01*
X236958Y130300D01*
X236558Y129500D01*
X236958Y128700D01*
X236157Y129100D01*
X235357Y128700D01*
X239858Y118200D02*
X240258Y119000D01*
X239858Y119800D01*
X240657Y119400D01*
X241458Y119800D01*
X241057Y119000D01*
X241458Y118200D01*
X240657Y118600D01*
X239858Y118200D01*
X267357Y115200D02*
X267758Y116000D01*
X267357Y116800D01*
X268158Y116400D01*
X268957Y116800D01*
X268558Y116000D01*
X268957Y115200D01*
X268158Y115600D01*
X267357Y115200D01*
X213357Y150200D02*
X213757Y151000D01*
X213357Y151800D01*
X214158Y151400D01*
X214957Y151800D01*
X214558Y151000D01*
X214957Y150200D01*
X214158Y150600D01*
X213357Y150200D01*
X219357D02*
X219758Y151000D01*
X219357Y151800D01*
X220158Y151400D01*
X220957Y151800D01*
X220557Y151000D01*
X220957Y150200D01*
X220158Y150600D01*
X219357Y150200D01*
Y132700D02*
X219758Y133500D01*
X219357Y134300D01*
X220158Y133900D01*
X220957Y134300D01*
X220557Y133500D01*
X220957Y132700D01*
X220158Y133100D01*
X219357Y132700D01*
X213357D02*
X213757Y133500D01*
X213357Y134300D01*
X214158Y133900D01*
X214957Y134300D01*
X214558Y133500D01*
X214957Y132700D01*
X214158Y133100D01*
X213357Y132700D01*
X210858Y121700D02*
X211258Y122500D01*
X210858Y123300D01*
X211658Y122900D01*
X212457Y123300D01*
X212057Y122500D01*
X212457Y121700D01*
X211658Y122100D01*
X210858Y121700D01*
Y116700D02*
X211258Y117500D01*
X210858Y118300D01*
X211658Y117900D01*
X212457Y118300D01*
X212057Y117500D01*
X212457Y116700D01*
X211658Y117100D01*
X210858Y116700D01*
Y111700D02*
X211258Y112500D01*
X210858Y113300D01*
X211658Y112900D01*
X212457Y113300D01*
X212057Y112500D01*
X212457Y111700D01*
X211658Y112100D01*
X210858Y111700D01*
Y106700D02*
X211258Y107500D01*
X210858Y108300D01*
X211658Y107900D01*
X212457Y108300D01*
X212057Y107500D01*
X212457Y106700D01*
X211658Y107100D01*
X210858Y106700D01*
Y101700D02*
X211258Y102500D01*
X210858Y103300D01*
X211658Y102900D01*
X212457Y103300D01*
X212057Y102500D01*
X212457Y101700D01*
X211658Y102100D01*
X210858Y101700D01*
Y96700D02*
X211258Y97500D01*
X210858Y98300D01*
X211658Y97900D01*
X212457Y98300D01*
X212057Y97500D01*
X212457Y96700D01*
X211658Y97100D01*
X210858Y96700D01*
Y91700D02*
X211258Y92500D01*
X210858Y93300D01*
X211658Y92900D01*
X212457Y93300D01*
X212057Y92500D01*
X212457Y91700D01*
X211658Y92100D01*
X210858Y91700D01*
Y86700D02*
X211258Y87500D01*
X210858Y88300D01*
X211658Y87900D01*
X212457Y88300D01*
X212057Y87500D01*
X212457Y86700D01*
X211658Y87100D01*
X210858Y86700D01*
Y81700D02*
X211258Y82500D01*
X210858Y83300D01*
X211658Y82900D01*
X212457Y83300D01*
X212057Y82500D01*
X212457Y81700D01*
X211658Y82100D01*
X210858Y81700D01*
Y76700D02*
X211258Y77500D01*
X210858Y78300D01*
X211658Y77900D01*
X212457Y78300D01*
X212057Y77500D01*
X212457Y76700D01*
X211658Y77100D01*
X210858Y76700D01*
Y71700D02*
X211258Y72500D01*
X210858Y73300D01*
X211658Y72900D01*
X212457Y73300D01*
X212057Y72500D01*
X212457Y71700D01*
X211658Y72100D01*
X210858Y71700D01*
Y66700D02*
X211258Y67500D01*
X210858Y68300D01*
X211658Y67900D01*
X212457Y68300D01*
X212057Y67500D01*
X212457Y66700D01*
X211658Y67100D01*
X210858Y66700D01*
Y61700D02*
X211258Y62500D01*
X210858Y63300D01*
X211658Y62900D01*
X212457Y63300D01*
X212057Y62500D01*
X212457Y61700D01*
X211658Y62100D01*
X210858Y61700D01*
Y56700D02*
X211258Y57500D01*
X210858Y58300D01*
X211658Y57900D01*
X212457Y58300D01*
X212057Y57500D01*
X212457Y56700D01*
X211658Y57100D01*
X210858Y56700D01*
Y51700D02*
X211258Y52500D01*
X210858Y53300D01*
X211658Y52900D01*
X212457Y53300D01*
X212057Y52500D01*
X212457Y51700D01*
X211658Y52100D01*
X210858Y51700D01*
Y46700D02*
X211258Y47500D01*
X210858Y48300D01*
X211658Y47900D01*
X212457Y48300D01*
X212057Y47500D01*
X212457Y46700D01*
X211658Y47100D01*
X210858Y46700D01*
Y41700D02*
X211258Y42500D01*
X210858Y43300D01*
X211658Y42900D01*
X212457Y43300D01*
X212057Y42500D01*
X212457Y41700D01*
X211658Y42100D01*
X210858Y41700D01*
Y36700D02*
X211258Y37500D01*
X210858Y38300D01*
X211658Y37900D01*
X212457Y38300D01*
X212057Y37500D01*
X212457Y36700D01*
X211658Y37100D01*
X210858Y36700D01*
Y31700D02*
X211258Y32500D01*
X210858Y33300D01*
X211658Y32900D01*
X212457Y33300D01*
X212057Y32500D01*
X212457Y31700D01*
X211658Y32100D01*
X210858Y31700D01*
Y26700D02*
X211258Y27500D01*
X210858Y28300D01*
X211658Y27900D01*
X212457Y28300D01*
X212057Y27500D01*
X212457Y26700D01*
X211658Y27100D01*
X210858Y26700D01*
Y21700D02*
X211258Y22500D01*
X210858Y23300D01*
X211658Y22900D01*
X212457Y23300D01*
X212057Y22500D01*
X212457Y21700D01*
X211658Y22100D01*
X210858Y21700D01*
X240858Y34700D02*
X241258Y35500D01*
X240858Y36300D01*
X241657Y35900D01*
X242458Y36300D01*
X242057Y35500D01*
X242458Y34700D01*
X241657Y35100D01*
X240858Y34700D01*
X257857Y27700D02*
X258258Y28500D01*
X257857Y29300D01*
X258658Y28900D01*
X259457Y29300D01*
X259057Y28500D01*
X259457Y27700D01*
X258658Y28100D01*
X257857Y27700D01*
X245858Y26200D02*
X246257Y27000D01*
X245858Y27800D01*
X246657Y27400D01*
X247458Y27800D01*
X247058Y27000D01*
X247458Y26200D01*
X246657Y26600D01*
X245858Y26200D01*
X252358Y128700D02*
X252758Y129500D01*
X252358Y130300D01*
X253157Y129900D01*
X253958Y130300D01*
X253557Y129500D01*
X253958Y128700D01*
X253157Y129100D01*
X252358Y128700D01*
X248358Y132700D02*
X248758Y133500D01*
X248358Y134300D01*
X249158Y133900D01*
X249957Y134300D01*
X249557Y133500D01*
X249957Y132700D01*
X249158Y133100D01*
X248358Y132700D01*
X252358D02*
X252758Y133500D01*
X252358Y134300D01*
X253157Y133900D01*
X253958Y134300D01*
X253557Y133500D01*
X253958Y132700D01*
X253157Y133100D01*
X252358Y132700D01*
X234358Y102700D02*
X234757Y103500D01*
X234358Y104300D01*
X235157Y103900D01*
X235958Y104300D01*
X235558Y103500D01*
X235958Y102700D01*
X235157Y103100D01*
X234358Y102700D01*
Y107700D02*
X234757Y108500D01*
X234358Y109300D01*
X235157Y108900D01*
X235958Y109300D01*
X235558Y108500D01*
X235958Y107700D01*
X235157Y108100D01*
X234358Y107700D01*
X224358Y99700D02*
X224758Y100500D01*
X224358Y101300D01*
X225157Y100900D01*
X225957Y101300D01*
X225557Y100500D01*
X225957Y99700D01*
X225157Y100100D01*
X224358Y99700D01*
X219357Y107700D02*
X219758Y108500D01*
X219357Y109300D01*
X220158Y108900D01*
X220957Y109300D01*
X220557Y108500D01*
X220957Y107700D01*
X220158Y108100D01*
X219357Y107700D01*
X226857D02*
X227257Y108500D01*
X226857Y109300D01*
X227658Y108900D01*
X228457Y109300D01*
X228058Y108500D01*
X228457Y107700D01*
X227658Y108100D01*
X226857Y107700D01*
X219357Y99700D02*
X219758Y100500D01*
X219357Y101300D01*
X220158Y100900D01*
X220957Y101300D01*
X220557Y100500D01*
X220957Y99700D01*
X220158Y100100D01*
X219357Y99700D01*
Y85200D02*
X219758Y86000D01*
X219357Y86800D01*
X220158Y86400D01*
X220957Y86800D01*
X220557Y86000D01*
X220957Y85200D01*
X220158Y85600D01*
X219357Y85200D01*
Y47700D02*
X219758Y48500D01*
X219357Y49300D01*
X220158Y48900D01*
X220957Y49300D01*
X220557Y48500D01*
X220957Y47700D01*
X220158Y48100D01*
X219357Y47700D01*
X213357Y128200D02*
X213757Y129000D01*
X213357Y129800D01*
X214158Y129400D01*
X214957Y129800D01*
X214558Y129000D01*
X214957Y128200D01*
X214158Y128600D01*
X213357Y128200D01*
X219357D02*
X219758Y129000D01*
X219357Y129800D01*
X220158Y129400D01*
X220957Y129800D01*
X220557Y129000D01*
X220957Y128200D01*
X220158Y128600D01*
X219357Y128200D01*
X186713Y18381D02*
X185913Y19981D01*
X187513D01*
X186713Y18381D01*
X167618D02*
X166818Y19981D01*
X168418D01*
X167618Y18381D01*
X191437Y7830D02*
X191837Y8230D01*
X192237D01*
X191837Y8630D01*
X192237Y9030D01*
X191837D01*
X191437Y9430D01*
X191037Y9030D01*
X190637D01*
X191037Y8630D01*
X190637Y8230D01*
X191037D01*
X191437Y7830D01*
X162894D02*
X163294Y8230D01*
X163694D01*
X163294Y8630D01*
X163694Y9030D01*
X163294D01*
X162894Y9430D01*
X162494Y9030D01*
X162094D01*
X162494Y8630D01*
X162094Y8230D01*
X162494D01*
X162894Y7830D01*
X202365Y66200D02*
X202765Y67000D01*
X202365Y67800D01*
X203165Y67400D01*
X203965Y67800D01*
X203565Y67000D01*
X203965Y66200D01*
X203165Y66600D01*
X202365Y66200D01*
X172365Y132700D02*
X172765Y133500D01*
X172365Y134300D01*
X173165Y133900D01*
X173965Y134300D01*
X173565Y133500D01*
X173965Y132700D01*
X173165Y133100D01*
X172365Y132700D01*
X176365Y128700D02*
X176765Y129500D01*
X176365Y130300D01*
X177165Y129900D01*
X177965Y130300D01*
X177565Y129500D01*
X177965Y128700D01*
X177165Y129100D01*
X176365Y128700D01*
X195865Y122200D02*
X196265Y123000D01*
X195865Y123800D01*
X196665Y123400D01*
X197465Y123800D01*
X197065Y123000D01*
X197465Y122200D01*
X196665Y122600D01*
X195865Y122200D01*
X173865Y26200D02*
X174265Y27000D01*
X173865Y27800D01*
X174665Y27400D01*
X175465Y27800D01*
X175065Y27000D01*
X175465Y26200D01*
X174665Y26600D01*
X173865Y26200D01*
X200765Y43600D02*
Y43200D01*
X201565D01*
Y43600D01*
X201965D01*
Y44400D01*
X201565D01*
Y44800D01*
X200765D01*
Y44400D01*
X200365D01*
Y43600D01*
X200765D01*
X161765Y82600D02*
Y82200D01*
X162565D01*
Y82600D01*
X162965D01*
Y83400D01*
X162565D01*
Y83800D01*
X161765D01*
Y83400D01*
X161365D01*
Y82600D01*
X161765D01*
Y49100D02*
Y48700D01*
X162565D01*
Y49100D01*
X162965D01*
Y49900D01*
X162565D01*
Y50300D01*
X161765D01*
Y49900D01*
X161365D01*
Y49100D01*
X161765D01*
X182365Y66700D02*
X182765Y67500D01*
X182365Y68300D01*
X183165Y67900D01*
X183965Y68300D01*
X183565Y67500D01*
X183965Y66700D01*
X183165Y67100D01*
X182365Y66700D01*
X185365Y70200D02*
X185765Y71000D01*
X185365Y71800D01*
X186165Y71400D01*
X186965Y71800D01*
X186565Y71000D01*
X186965Y70200D01*
X186165Y70600D01*
X185365Y70200D01*
X178365Y26200D02*
X178765Y27000D01*
X178365Y27800D01*
X179165Y27400D01*
X179965Y27800D01*
X179565Y27000D01*
X179965Y26200D01*
X179165Y26600D01*
X178365Y26200D01*
X176265Y38840D02*
Y38440D01*
X177065D01*
Y38840D01*
X177465D01*
Y39640D01*
X177065D01*
Y40040D01*
X176265D01*
Y39640D01*
X175865D01*
Y38840D01*
X176265D01*
X178265Y91600D02*
Y91200D01*
X179065D01*
Y91600D01*
X179465D01*
Y92400D01*
X179065D01*
Y92800D01*
X178265D01*
Y92400D01*
X177865D01*
Y91600D01*
X178265D01*
X198865Y67200D02*
X199265Y68000D01*
X198865Y68800D01*
X199665Y68400D01*
X200465Y68800D01*
X200065Y68000D01*
X200465Y67200D01*
X199665Y67600D01*
X198865Y67200D01*
X195865Y79700D02*
X196265Y80500D01*
X195865Y81300D01*
X196665Y80900D01*
X197465Y81300D01*
X197065Y80500D01*
X197465Y79700D01*
X196665Y80100D01*
X195865Y79700D01*
X191365Y49200D02*
X191765Y50000D01*
X191365Y50800D01*
X192165Y50400D01*
X192965Y50800D01*
X192565Y50000D01*
X192965Y49200D01*
X192165Y49600D01*
X191365Y49200D01*
X195365D02*
X195765Y50000D01*
X195365Y50800D01*
X196165Y50400D01*
X196965Y50800D01*
X196565Y50000D01*
X196965Y49200D01*
X196165Y49600D01*
X195365Y49200D01*
X179865Y56200D02*
X180265Y57000D01*
X179865Y57800D01*
X180665Y57400D01*
X181465Y57800D01*
X181065Y57000D01*
X181465Y56200D01*
X180665Y56600D01*
X179865Y56200D01*
Y62200D02*
X180265Y63000D01*
X179865Y63800D01*
X180665Y63400D01*
X181465Y63800D01*
X181065Y63000D01*
X181465Y62200D01*
X180665Y62600D01*
X179865Y62200D01*
Y72200D02*
X180265Y73000D01*
X179865Y73800D01*
X180665Y73400D01*
X181465Y73800D01*
X181065Y73000D01*
X181465Y72200D01*
X180665Y72600D01*
X179865Y72200D01*
X168865Y56200D02*
X169265Y57000D01*
X168865Y57800D01*
X169665Y57400D01*
X170465Y57800D01*
X170065Y57000D01*
X170465Y56200D01*
X169665Y56600D01*
X168865Y56200D01*
Y62200D02*
X169265Y63000D01*
X168865Y63800D01*
X169665Y63400D01*
X170465Y63800D01*
X170065Y63000D01*
X170465Y62200D01*
X169665Y62600D01*
X168865Y62200D01*
Y68200D02*
X169265Y69000D01*
X168865Y69800D01*
X169665Y69400D01*
X170465Y69800D01*
X170065Y69000D01*
X170465Y68200D01*
X169665Y68600D01*
X168865Y68200D01*
X191365Y84200D02*
X191765Y85000D01*
X191365Y85800D01*
X192165Y85400D01*
X192965Y85800D01*
X192565Y85000D01*
X192965Y84200D01*
X192165Y84600D01*
X191365Y84200D01*
X200865Y86700D02*
X201265Y87500D01*
X200865Y88300D01*
X201665Y87900D01*
X202465Y88300D01*
X202065Y87500D01*
X202465Y86700D01*
X201665Y87100D01*
X200865Y86700D01*
Y96700D02*
X201265Y97500D01*
X200865Y98300D01*
X201665Y97900D01*
X202465Y98300D01*
X202065Y97500D01*
X202465Y96700D01*
X201665Y97100D01*
X200865Y96700D01*
X195865Y86700D02*
X196265Y87500D01*
X195865Y88300D01*
X196665Y87900D01*
X197465Y88300D01*
X197065Y87500D01*
X197465Y86700D01*
X196665Y87100D01*
X195865Y86700D01*
X183365Y91200D02*
X183765Y92000D01*
X183365Y92800D01*
X184165Y92400D01*
X184965Y92800D01*
X184565Y92000D01*
X184965Y91200D01*
X184165Y91600D01*
X183365Y91200D01*
X189365D02*
X189765Y92000D01*
X189365Y92800D01*
X190165Y92400D01*
X190965Y92800D01*
X190565Y92000D01*
X190965Y91200D01*
X190165Y91600D01*
X189365Y91200D01*
X188865Y116700D02*
X189265Y117500D01*
X188865Y118300D01*
X189665Y117900D01*
X190465Y118300D01*
X190065Y117500D01*
X190465Y116700D01*
X189665Y117100D01*
X188865Y116700D01*
X181365Y118200D02*
X181765Y119000D01*
X181365Y119800D01*
X182165Y119400D01*
X182965Y119800D01*
X182565Y119000D01*
X182965Y118200D01*
X182165Y118600D01*
X181365Y118200D01*
X176865Y122200D02*
X177265Y123000D01*
X176865Y123800D01*
X177665Y123400D01*
X178465Y123800D01*
X178065Y123000D01*
X178465Y122200D01*
X177665Y122600D01*
X176865Y122200D01*
X172365Y128700D02*
X172765Y129500D01*
X172365Y130300D01*
X173165Y129900D01*
X173965Y130300D01*
X173565Y129500D01*
X173965Y128700D01*
X173165Y129100D01*
X172365Y128700D01*
X176865Y118200D02*
X177265Y119000D01*
X176865Y119800D01*
X177665Y119400D01*
X178465Y119800D01*
X178065Y119000D01*
X178465Y118200D01*
X177665Y118600D01*
X176865Y118200D01*
X204365Y115200D02*
X204765Y116000D01*
X204365Y116800D01*
X205165Y116400D01*
X205965Y116800D01*
X205565Y116000D01*
X205965Y115200D01*
X205165Y115600D01*
X204365Y115200D01*
X150365Y150200D02*
X150765Y151000D01*
X150365Y151800D01*
X151165Y151400D01*
X151965Y151800D01*
X151565Y151000D01*
X151965Y150200D01*
X151165Y150600D01*
X150365Y150200D01*
X156365D02*
X156765Y151000D01*
X156365Y151800D01*
X157165Y151400D01*
X157965Y151800D01*
X157565Y151000D01*
X157965Y150200D01*
X157165Y150600D01*
X156365Y150200D01*
Y132700D02*
X156765Y133500D01*
X156365Y134300D01*
X157165Y133900D01*
X157965Y134300D01*
X157565Y133500D01*
X157965Y132700D01*
X157165Y133100D01*
X156365Y132700D01*
X150365D02*
X150765Y133500D01*
X150365Y134300D01*
X151165Y133900D01*
X151965Y134300D01*
X151565Y133500D01*
X151965Y132700D01*
X151165Y133100D01*
X150365Y132700D01*
X147865Y121700D02*
X148265Y122500D01*
X147865Y123300D01*
X148665Y122900D01*
X149465Y123300D01*
X149065Y122500D01*
X149465Y121700D01*
X148665Y122100D01*
X147865Y121700D01*
Y116700D02*
X148265Y117500D01*
X147865Y118300D01*
X148665Y117900D01*
X149465Y118300D01*
X149065Y117500D01*
X149465Y116700D01*
X148665Y117100D01*
X147865Y116700D01*
Y111700D02*
X148265Y112500D01*
X147865Y113300D01*
X148665Y112900D01*
X149465Y113300D01*
X149065Y112500D01*
X149465Y111700D01*
X148665Y112100D01*
X147865Y111700D01*
Y106700D02*
X148265Y107500D01*
X147865Y108300D01*
X148665Y107900D01*
X149465Y108300D01*
X149065Y107500D01*
X149465Y106700D01*
X148665Y107100D01*
X147865Y106700D01*
Y101700D02*
X148265Y102500D01*
X147865Y103300D01*
X148665Y102900D01*
X149465Y103300D01*
X149065Y102500D01*
X149465Y101700D01*
X148665Y102100D01*
X147865Y101700D01*
Y96700D02*
X148265Y97500D01*
X147865Y98300D01*
X148665Y97900D01*
X149465Y98300D01*
X149065Y97500D01*
X149465Y96700D01*
X148665Y97100D01*
X147865Y96700D01*
Y91700D02*
X148265Y92500D01*
X147865Y93300D01*
X148665Y92900D01*
X149465Y93300D01*
X149065Y92500D01*
X149465Y91700D01*
X148665Y92100D01*
X147865Y91700D01*
Y86700D02*
X148265Y87500D01*
X147865Y88300D01*
X148665Y87900D01*
X149465Y88300D01*
X149065Y87500D01*
X149465Y86700D01*
X148665Y87100D01*
X147865Y86700D01*
Y81700D02*
X148265Y82500D01*
X147865Y83300D01*
X148665Y82900D01*
X149465Y83300D01*
X149065Y82500D01*
X149465Y81700D01*
X148665Y82100D01*
X147865Y81700D01*
Y76700D02*
X148265Y77500D01*
X147865Y78300D01*
X148665Y77900D01*
X149465Y78300D01*
X149065Y77500D01*
X149465Y76700D01*
X148665Y77100D01*
X147865Y76700D01*
Y71700D02*
X148265Y72500D01*
X147865Y73300D01*
X148665Y72900D01*
X149465Y73300D01*
X149065Y72500D01*
X149465Y71700D01*
X148665Y72100D01*
X147865Y71700D01*
Y66700D02*
X148265Y67500D01*
X147865Y68300D01*
X148665Y67900D01*
X149465Y68300D01*
X149065Y67500D01*
X149465Y66700D01*
X148665Y67100D01*
X147865Y66700D01*
Y61700D02*
X148265Y62500D01*
X147865Y63300D01*
X148665Y62900D01*
X149465Y63300D01*
X149065Y62500D01*
X149465Y61700D01*
X148665Y62100D01*
X147865Y61700D01*
Y56700D02*
X148265Y57500D01*
X147865Y58300D01*
X148665Y57900D01*
X149465Y58300D01*
X149065Y57500D01*
X149465Y56700D01*
X148665Y57100D01*
X147865Y56700D01*
Y51700D02*
X148265Y52500D01*
X147865Y53300D01*
X148665Y52900D01*
X149465Y53300D01*
X149065Y52500D01*
X149465Y51700D01*
X148665Y52100D01*
X147865Y51700D01*
Y46700D02*
X148265Y47500D01*
X147865Y48300D01*
X148665Y47900D01*
X149465Y48300D01*
X149065Y47500D01*
X149465Y46700D01*
X148665Y47100D01*
X147865Y46700D01*
Y41700D02*
X148265Y42500D01*
X147865Y43300D01*
X148665Y42900D01*
X149465Y43300D01*
X149065Y42500D01*
X149465Y41700D01*
X148665Y42100D01*
X147865Y41700D01*
Y36700D02*
X148265Y37500D01*
X147865Y38300D01*
X148665Y37900D01*
X149465Y38300D01*
X149065Y37500D01*
X149465Y36700D01*
X148665Y37100D01*
X147865Y36700D01*
Y31700D02*
X148265Y32500D01*
X147865Y33300D01*
X148665Y32900D01*
X149465Y33300D01*
X149065Y32500D01*
X149465Y31700D01*
X148665Y32100D01*
X147865Y31700D01*
Y26700D02*
X148265Y27500D01*
X147865Y28300D01*
X148665Y27900D01*
X149465Y28300D01*
X149065Y27500D01*
X149465Y26700D01*
X148665Y27100D01*
X147865Y26700D01*
Y21700D02*
X148265Y22500D01*
X147865Y23300D01*
X148665Y22900D01*
X149465Y23300D01*
X149065Y22500D01*
X149465Y21700D01*
X148665Y22100D01*
X147865Y21700D01*
X177865Y34700D02*
X178265Y35500D01*
X177865Y36300D01*
X178665Y35900D01*
X179465Y36300D01*
X179065Y35500D01*
X179465Y34700D01*
X178665Y35100D01*
X177865Y34700D01*
X194865Y27700D02*
X195265Y28500D01*
X194865Y29300D01*
X195665Y28900D01*
X196465Y29300D01*
X196065Y28500D01*
X196465Y27700D01*
X195665Y28100D01*
X194865Y27700D01*
X182865Y26200D02*
X183265Y27000D01*
X182865Y27800D01*
X183665Y27400D01*
X184465Y27800D01*
X184065Y27000D01*
X184465Y26200D01*
X183665Y26600D01*
X182865Y26200D01*
X189365Y128700D02*
X189765Y129500D01*
X189365Y130300D01*
X190165Y129900D01*
X190965Y130300D01*
X190565Y129500D01*
X190965Y128700D01*
X190165Y129100D01*
X189365Y128700D01*
X185365Y132700D02*
X185765Y133500D01*
X185365Y134300D01*
X186165Y133900D01*
X186965Y134300D01*
X186565Y133500D01*
X186965Y132700D01*
X186165Y133100D01*
X185365Y132700D01*
X189365D02*
X189765Y133500D01*
X189365Y134300D01*
X190165Y133900D01*
X190965Y134300D01*
X190565Y133500D01*
X190965Y132700D01*
X190165Y133100D01*
X189365Y132700D01*
X171365Y102700D02*
X171765Y103500D01*
X171365Y104300D01*
X172165Y103900D01*
X172965Y104300D01*
X172565Y103500D01*
X172965Y102700D01*
X172165Y103100D01*
X171365Y102700D01*
Y107700D02*
X171765Y108500D01*
X171365Y109300D01*
X172165Y108900D01*
X172965Y109300D01*
X172565Y108500D01*
X172965Y107700D01*
X172165Y108100D01*
X171365Y107700D01*
X161365Y99700D02*
X161765Y100500D01*
X161365Y101300D01*
X162165Y100900D01*
X162965Y101300D01*
X162565Y100500D01*
X162965Y99700D01*
X162165Y100100D01*
X161365Y99700D01*
X156365Y107700D02*
X156765Y108500D01*
X156365Y109300D01*
X157165Y108900D01*
X157965Y109300D01*
X157565Y108500D01*
X157965Y107700D01*
X157165Y108100D01*
X156365Y107700D01*
X163865D02*
X164265Y108500D01*
X163865Y109300D01*
X164665Y108900D01*
X165465Y109300D01*
X165065Y108500D01*
X165465Y107700D01*
X164665Y108100D01*
X163865Y107700D01*
X156365Y99700D02*
X156765Y100500D01*
X156365Y101300D01*
X157165Y100900D01*
X157965Y101300D01*
X157565Y100500D01*
X157965Y99700D01*
X157165Y100100D01*
X156365Y99700D01*
Y85200D02*
X156765Y86000D01*
X156365Y86800D01*
X157165Y86400D01*
X157965Y86800D01*
X157565Y86000D01*
X157965Y85200D01*
X157165Y85600D01*
X156365Y85200D01*
Y47700D02*
X156765Y48500D01*
X156365Y49300D01*
X157165Y48900D01*
X157965Y49300D01*
X157565Y48500D01*
X157965Y47700D01*
X157165Y48100D01*
X156365Y47700D01*
X150365Y128200D02*
X150765Y129000D01*
X150365Y129800D01*
X151165Y129400D01*
X151965Y129800D01*
X151565Y129000D01*
X151965Y128200D01*
X151165Y128600D01*
X150365Y128200D01*
X156365D02*
X156765Y129000D01*
X156365Y129800D01*
X157165Y129400D01*
X157965Y129800D01*
X157565Y129000D01*
X157965Y128200D01*
X157165Y128600D01*
X156365Y128200D01*
X123721Y18381D02*
X122921Y19981D01*
X124521D01*
X123721Y18381D01*
X104626D02*
X103826Y19981D01*
X105426D01*
X104626Y18381D01*
X128445Y7830D02*
X128845Y8230D01*
X129245D01*
X128845Y8630D01*
X129245Y9030D01*
X128845D01*
X128445Y9430D01*
X128045Y9030D01*
X127645D01*
X128045Y8630D01*
X127645Y8230D01*
X128045D01*
X128445Y7830D01*
X99902D02*
X100302Y8230D01*
X100702D01*
X100302Y8630D01*
X100702Y9030D01*
X100302D01*
X99902Y9430D01*
X99502Y9030D01*
X99102D01*
X99502Y8630D01*
X99102Y8230D01*
X99502D01*
X99902Y7830D01*
X139373Y66200D02*
X139773Y67000D01*
X139373Y67800D01*
X140173Y67400D01*
X140973Y67800D01*
X140573Y67000D01*
X140973Y66200D01*
X140173Y66600D01*
X139373Y66200D01*
X109373Y132700D02*
X109773Y133500D01*
X109373Y134300D01*
X110173Y133900D01*
X110973Y134300D01*
X110573Y133500D01*
X110973Y132700D01*
X110173Y133100D01*
X109373Y132700D01*
X113373Y128700D02*
X113773Y129500D01*
X113373Y130300D01*
X114173Y129900D01*
X114973Y130300D01*
X114573Y129500D01*
X114973Y128700D01*
X114173Y129100D01*
X113373Y128700D01*
X132873Y122200D02*
X133273Y123000D01*
X132873Y123800D01*
X133673Y123400D01*
X134473Y123800D01*
X134073Y123000D01*
X134473Y122200D01*
X133673Y122600D01*
X132873Y122200D01*
X110873Y26200D02*
X111273Y27000D01*
X110873Y27800D01*
X111673Y27400D01*
X112473Y27800D01*
X112073Y27000D01*
X112473Y26200D01*
X111673Y26600D01*
X110873Y26200D01*
X137773Y43600D02*
Y43200D01*
X138573D01*
Y43600D01*
X138973D01*
Y44400D01*
X138573D01*
Y44800D01*
X137773D01*
Y44400D01*
X137373D01*
Y43600D01*
X137773D01*
X98773Y82600D02*
Y82200D01*
X99573D01*
Y82600D01*
X99973D01*
Y83400D01*
X99573D01*
Y83800D01*
X98773D01*
Y83400D01*
X98373D01*
Y82600D01*
X98773D01*
Y49100D02*
Y48700D01*
X99573D01*
Y49100D01*
X99973D01*
Y49900D01*
X99573D01*
Y50300D01*
X98773D01*
Y49900D01*
X98373D01*
Y49100D01*
X98773D01*
X119373Y66700D02*
X119773Y67500D01*
X119373Y68300D01*
X120173Y67900D01*
X120973Y68300D01*
X120573Y67500D01*
X120973Y66700D01*
X120173Y67100D01*
X119373Y66700D01*
X122373Y70200D02*
X122773Y71000D01*
X122373Y71800D01*
X123173Y71400D01*
X123973Y71800D01*
X123573Y71000D01*
X123973Y70200D01*
X123173Y70600D01*
X122373Y70200D01*
X115373Y26200D02*
X115773Y27000D01*
X115373Y27800D01*
X116173Y27400D01*
X116973Y27800D01*
X116573Y27000D01*
X116973Y26200D01*
X116173Y26600D01*
X115373Y26200D01*
X113273Y38840D02*
Y38440D01*
X114073D01*
Y38840D01*
X114473D01*
Y39640D01*
X114073D01*
Y40040D01*
X113273D01*
Y39640D01*
X112873D01*
Y38840D01*
X113273D01*
X115273Y91600D02*
Y91200D01*
X116073D01*
Y91600D01*
X116473D01*
Y92400D01*
X116073D01*
Y92800D01*
X115273D01*
Y92400D01*
X114873D01*
Y91600D01*
X115273D01*
X135873Y67200D02*
X136273Y68000D01*
X135873Y68800D01*
X136673Y68400D01*
X137473Y68800D01*
X137073Y68000D01*
X137473Y67200D01*
X136673Y67600D01*
X135873Y67200D01*
X132873Y79700D02*
X133273Y80500D01*
X132873Y81300D01*
X133673Y80900D01*
X134473Y81300D01*
X134073Y80500D01*
X134473Y79700D01*
X133673Y80100D01*
X132873Y79700D01*
X128373Y49200D02*
X128773Y50000D01*
X128373Y50800D01*
X129173Y50400D01*
X129973Y50800D01*
X129573Y50000D01*
X129973Y49200D01*
X129173Y49600D01*
X128373Y49200D01*
X132373D02*
X132773Y50000D01*
X132373Y50800D01*
X133173Y50400D01*
X133973Y50800D01*
X133573Y50000D01*
X133973Y49200D01*
X133173Y49600D01*
X132373Y49200D01*
X116873Y56200D02*
X117273Y57000D01*
X116873Y57800D01*
X117673Y57400D01*
X118473Y57800D01*
X118073Y57000D01*
X118473Y56200D01*
X117673Y56600D01*
X116873Y56200D01*
Y62200D02*
X117273Y63000D01*
X116873Y63800D01*
X117673Y63400D01*
X118473Y63800D01*
X118073Y63000D01*
X118473Y62200D01*
X117673Y62600D01*
X116873Y62200D01*
Y72200D02*
X117273Y73000D01*
X116873Y73800D01*
X117673Y73400D01*
X118473Y73800D01*
X118073Y73000D01*
X118473Y72200D01*
X117673Y72600D01*
X116873Y72200D01*
X105873Y56200D02*
X106273Y57000D01*
X105873Y57800D01*
X106673Y57400D01*
X107473Y57800D01*
X107073Y57000D01*
X107473Y56200D01*
X106673Y56600D01*
X105873Y56200D01*
Y62200D02*
X106273Y63000D01*
X105873Y63800D01*
X106673Y63400D01*
X107473Y63800D01*
X107073Y63000D01*
X107473Y62200D01*
X106673Y62600D01*
X105873Y62200D01*
Y68200D02*
X106273Y69000D01*
X105873Y69800D01*
X106673Y69400D01*
X107473Y69800D01*
X107073Y69000D01*
X107473Y68200D01*
X106673Y68600D01*
X105873Y68200D01*
X128373Y84200D02*
X128773Y85000D01*
X128373Y85800D01*
X129173Y85400D01*
X129973Y85800D01*
X129573Y85000D01*
X129973Y84200D01*
X129173Y84600D01*
X128373Y84200D01*
X137873Y86700D02*
X138273Y87500D01*
X137873Y88300D01*
X138673Y87900D01*
X139473Y88300D01*
X139073Y87500D01*
X139473Y86700D01*
X138673Y87100D01*
X137873Y86700D01*
Y96700D02*
X138273Y97500D01*
X137873Y98300D01*
X138673Y97900D01*
X139473Y98300D01*
X139073Y97500D01*
X139473Y96700D01*
X138673Y97100D01*
X137873Y96700D01*
X132873Y86700D02*
X133273Y87500D01*
X132873Y88300D01*
X133673Y87900D01*
X134473Y88300D01*
X134073Y87500D01*
X134473Y86700D01*
X133673Y87100D01*
X132873Y86700D01*
X120373Y91200D02*
X120773Y92000D01*
X120373Y92800D01*
X121173Y92400D01*
X121973Y92800D01*
X121573Y92000D01*
X121973Y91200D01*
X121173Y91600D01*
X120373Y91200D01*
X126373D02*
X126773Y92000D01*
X126373Y92800D01*
X127173Y92400D01*
X127973Y92800D01*
X127573Y92000D01*
X127973Y91200D01*
X127173Y91600D01*
X126373Y91200D01*
X125873Y116700D02*
X126273Y117500D01*
X125873Y118300D01*
X126673Y117900D01*
X127473Y118300D01*
X127073Y117500D01*
X127473Y116700D01*
X126673Y117100D01*
X125873Y116700D01*
X118373Y118200D02*
X118773Y119000D01*
X118373Y119800D01*
X119173Y119400D01*
X119973Y119800D01*
X119573Y119000D01*
X119973Y118200D01*
X119173Y118600D01*
X118373Y118200D01*
X113873Y122200D02*
X114273Y123000D01*
X113873Y123800D01*
X114673Y123400D01*
X115473Y123800D01*
X115073Y123000D01*
X115473Y122200D01*
X114673Y122600D01*
X113873Y122200D01*
X109373Y128700D02*
X109773Y129500D01*
X109373Y130300D01*
X110173Y129900D01*
X110973Y130300D01*
X110573Y129500D01*
X110973Y128700D01*
X110173Y129100D01*
X109373Y128700D01*
X113873Y118200D02*
X114273Y119000D01*
X113873Y119800D01*
X114673Y119400D01*
X115473Y119800D01*
X115073Y119000D01*
X115473Y118200D01*
X114673Y118600D01*
X113873Y118200D01*
X141373Y115200D02*
X141773Y116000D01*
X141373Y116800D01*
X142173Y116400D01*
X142973Y116800D01*
X142573Y116000D01*
X142973Y115200D01*
X142173Y115600D01*
X141373Y115200D01*
X87373Y150200D02*
X87773Y151000D01*
X87373Y151800D01*
X88173Y151400D01*
X88973Y151800D01*
X88573Y151000D01*
X88973Y150200D01*
X88173Y150600D01*
X87373Y150200D01*
X93373D02*
X93773Y151000D01*
X93373Y151800D01*
X94173Y151400D01*
X94973Y151800D01*
X94573Y151000D01*
X94973Y150200D01*
X94173Y150600D01*
X93373Y150200D01*
Y132700D02*
X93773Y133500D01*
X93373Y134300D01*
X94173Y133900D01*
X94973Y134300D01*
X94573Y133500D01*
X94973Y132700D01*
X94173Y133100D01*
X93373Y132700D01*
X87373D02*
X87773Y133500D01*
X87373Y134300D01*
X88173Y133900D01*
X88973Y134300D01*
X88573Y133500D01*
X88973Y132700D01*
X88173Y133100D01*
X87373Y132700D01*
X84873Y121700D02*
X85273Y122500D01*
X84873Y123300D01*
X85673Y122900D01*
X86473Y123300D01*
X86073Y122500D01*
X86473Y121700D01*
X85673Y122100D01*
X84873Y121700D01*
Y116700D02*
X85273Y117500D01*
X84873Y118300D01*
X85673Y117900D01*
X86473Y118300D01*
X86073Y117500D01*
X86473Y116700D01*
X85673Y117100D01*
X84873Y116700D01*
Y111700D02*
X85273Y112500D01*
X84873Y113300D01*
X85673Y112900D01*
X86473Y113300D01*
X86073Y112500D01*
X86473Y111700D01*
X85673Y112100D01*
X84873Y111700D01*
Y106700D02*
X85273Y107500D01*
X84873Y108300D01*
X85673Y107900D01*
X86473Y108300D01*
X86073Y107500D01*
X86473Y106700D01*
X85673Y107100D01*
X84873Y106700D01*
Y101700D02*
X85273Y102500D01*
X84873Y103300D01*
X85673Y102900D01*
X86473Y103300D01*
X86073Y102500D01*
X86473Y101700D01*
X85673Y102100D01*
X84873Y101700D01*
Y96700D02*
X85273Y97500D01*
X84873Y98300D01*
X85673Y97900D01*
X86473Y98300D01*
X86073Y97500D01*
X86473Y96700D01*
X85673Y97100D01*
X84873Y96700D01*
Y91700D02*
X85273Y92500D01*
X84873Y93300D01*
X85673Y92900D01*
X86473Y93300D01*
X86073Y92500D01*
X86473Y91700D01*
X85673Y92100D01*
X84873Y91700D01*
Y86700D02*
X85273Y87500D01*
X84873Y88300D01*
X85673Y87900D01*
X86473Y88300D01*
X86073Y87500D01*
X86473Y86700D01*
X85673Y87100D01*
X84873Y86700D01*
Y81700D02*
X85273Y82500D01*
X84873Y83300D01*
X85673Y82900D01*
X86473Y83300D01*
X86073Y82500D01*
X86473Y81700D01*
X85673Y82100D01*
X84873Y81700D01*
Y76700D02*
X85273Y77500D01*
X84873Y78300D01*
X85673Y77900D01*
X86473Y78300D01*
X86073Y77500D01*
X86473Y76700D01*
X85673Y77100D01*
X84873Y76700D01*
Y71700D02*
X85273Y72500D01*
X84873Y73300D01*
X85673Y72900D01*
X86473Y73300D01*
X86073Y72500D01*
X86473Y71700D01*
X85673Y72100D01*
X84873Y71700D01*
Y66700D02*
X85273Y67500D01*
X84873Y68300D01*
X85673Y67900D01*
X86473Y68300D01*
X86073Y67500D01*
X86473Y66700D01*
X85673Y67100D01*
X84873Y66700D01*
Y61700D02*
X85273Y62500D01*
X84873Y63300D01*
X85673Y62900D01*
X86473Y63300D01*
X86073Y62500D01*
X86473Y61700D01*
X85673Y62100D01*
X84873Y61700D01*
Y56700D02*
X85273Y57500D01*
X84873Y58300D01*
X85673Y57900D01*
X86473Y58300D01*
X86073Y57500D01*
X86473Y56700D01*
X85673Y57100D01*
X84873Y56700D01*
Y51700D02*
X85273Y52500D01*
X84873Y53300D01*
X85673Y52900D01*
X86473Y53300D01*
X86073Y52500D01*
X86473Y51700D01*
X85673Y52100D01*
X84873Y51700D01*
Y46700D02*
X85273Y47500D01*
X84873Y48300D01*
X85673Y47900D01*
X86473Y48300D01*
X86073Y47500D01*
X86473Y46700D01*
X85673Y47100D01*
X84873Y46700D01*
Y41700D02*
X85273Y42500D01*
X84873Y43300D01*
X85673Y42900D01*
X86473Y43300D01*
X86073Y42500D01*
X86473Y41700D01*
X85673Y42100D01*
X84873Y41700D01*
Y36700D02*
X85273Y37500D01*
X84873Y38300D01*
X85673Y37900D01*
X86473Y38300D01*
X86073Y37500D01*
X86473Y36700D01*
X85673Y37100D01*
X84873Y36700D01*
Y31700D02*
X85273Y32500D01*
X84873Y33300D01*
X85673Y32900D01*
X86473Y33300D01*
X86073Y32500D01*
X86473Y31700D01*
X85673Y32100D01*
X84873Y31700D01*
Y26700D02*
X85273Y27500D01*
X84873Y28300D01*
X85673Y27900D01*
X86473Y28300D01*
X86073Y27500D01*
X86473Y26700D01*
X85673Y27100D01*
X84873Y26700D01*
Y21700D02*
X85273Y22500D01*
X84873Y23300D01*
X85673Y22900D01*
X86473Y23300D01*
X86073Y22500D01*
X86473Y21700D01*
X85673Y22100D01*
X84873Y21700D01*
X114873Y34700D02*
X115273Y35500D01*
X114873Y36300D01*
X115673Y35900D01*
X116473Y36300D01*
X116073Y35500D01*
X116473Y34700D01*
X115673Y35100D01*
X114873Y34700D01*
X131873Y27700D02*
X132273Y28500D01*
X131873Y29300D01*
X132673Y28900D01*
X133473Y29300D01*
X133073Y28500D01*
X133473Y27700D01*
X132673Y28100D01*
X131873Y27700D01*
X119873Y26200D02*
X120273Y27000D01*
X119873Y27800D01*
X120673Y27400D01*
X121473Y27800D01*
X121073Y27000D01*
X121473Y26200D01*
X120673Y26600D01*
X119873Y26200D01*
X126373Y128700D02*
X126773Y129500D01*
X126373Y130300D01*
X127173Y129900D01*
X127973Y130300D01*
X127573Y129500D01*
X127973Y128700D01*
X127173Y129100D01*
X126373Y128700D01*
X122373Y132700D02*
X122773Y133500D01*
X122373Y134300D01*
X123173Y133900D01*
X123973Y134300D01*
X123573Y133500D01*
X123973Y132700D01*
X123173Y133100D01*
X122373Y132700D01*
X126373D02*
X126773Y133500D01*
X126373Y134300D01*
X127173Y133900D01*
X127973Y134300D01*
X127573Y133500D01*
X127973Y132700D01*
X127173Y133100D01*
X126373Y132700D01*
X108373Y102700D02*
X108773Y103500D01*
X108373Y104300D01*
X109173Y103900D01*
X109973Y104300D01*
X109573Y103500D01*
X109973Y102700D01*
X109173Y103100D01*
X108373Y102700D01*
Y107700D02*
X108773Y108500D01*
X108373Y109300D01*
X109173Y108900D01*
X109973Y109300D01*
X109573Y108500D01*
X109973Y107700D01*
X109173Y108100D01*
X108373Y107700D01*
X98373Y99700D02*
X98773Y100500D01*
X98373Y101300D01*
X99173Y100900D01*
X99973Y101300D01*
X99573Y100500D01*
X99973Y99700D01*
X99173Y100100D01*
X98373Y99700D01*
X93373Y107700D02*
X93773Y108500D01*
X93373Y109300D01*
X94173Y108900D01*
X94973Y109300D01*
X94573Y108500D01*
X94973Y107700D01*
X94173Y108100D01*
X93373Y107700D01*
X100873D02*
X101273Y108500D01*
X100873Y109300D01*
X101673Y108900D01*
X102473Y109300D01*
X102073Y108500D01*
X102473Y107700D01*
X101673Y108100D01*
X100873Y107700D01*
X93373Y99700D02*
X93773Y100500D01*
X93373Y101300D01*
X94173Y100900D01*
X94973Y101300D01*
X94573Y100500D01*
X94973Y99700D01*
X94173Y100100D01*
X93373Y99700D01*
Y85200D02*
X93773Y86000D01*
X93373Y86800D01*
X94173Y86400D01*
X94973Y86800D01*
X94573Y86000D01*
X94973Y85200D01*
X94173Y85600D01*
X93373Y85200D01*
Y47700D02*
X93773Y48500D01*
X93373Y49300D01*
X94173Y48900D01*
X94973Y49300D01*
X94573Y48500D01*
X94973Y47700D01*
X94173Y48100D01*
X93373Y47700D01*
X87373Y128200D02*
X87773Y129000D01*
X87373Y129800D01*
X88173Y129400D01*
X88973Y129800D01*
X88573Y129000D01*
X88973Y128200D01*
X88173Y128600D01*
X87373Y128200D01*
X93373D02*
X93773Y129000D01*
X93373Y129800D01*
X94173Y129400D01*
X94973Y129800D01*
X94573Y129000D01*
X94973Y128200D01*
X94173Y128600D01*
X93373Y128200D01*
X60728Y18381D02*
X59928Y19981D01*
X61528D01*
X60728Y18381D01*
X41634D02*
X40834Y19981D01*
X42434D01*
X41634Y18381D01*
X65453Y7830D02*
X65853Y8230D01*
X66253D01*
X65853Y8630D01*
X66253Y9030D01*
X65853D01*
X65453Y9430D01*
X65053Y9030D01*
X64653D01*
X65053Y8630D01*
X64653Y8230D01*
X65053D01*
X65453Y7830D01*
X36909D02*
X37309Y8230D01*
X37709D01*
X37309Y8630D01*
X37709Y9030D01*
X37309D01*
X36909Y9430D01*
X36509Y9030D01*
X36109D01*
X36509Y8630D01*
X36109Y8230D01*
X36509D01*
X36909Y7830D01*
X76381Y66200D02*
X76781Y67000D01*
X76381Y67800D01*
X77181Y67400D01*
X77981Y67800D01*
X77581Y67000D01*
X77981Y66200D01*
X77181Y66600D01*
X76381Y66200D01*
X46381Y132700D02*
X46781Y133500D01*
X46381Y134300D01*
X47181Y133900D01*
X47981Y134300D01*
X47581Y133500D01*
X47981Y132700D01*
X47181Y133100D01*
X46381Y132700D01*
X50381Y128700D02*
X50781Y129500D01*
X50381Y130300D01*
X51181Y129900D01*
X51981Y130300D01*
X51581Y129500D01*
X51981Y128700D01*
X51181Y129100D01*
X50381Y128700D01*
X69881Y122200D02*
X70281Y123000D01*
X69881Y123800D01*
X70681Y123400D01*
X71481Y123800D01*
X71081Y123000D01*
X71481Y122200D01*
X70681Y122600D01*
X69881Y122200D01*
X47881Y26200D02*
X48281Y27000D01*
X47881Y27800D01*
X48681Y27400D01*
X49481Y27800D01*
X49081Y27000D01*
X49481Y26200D01*
X48681Y26600D01*
X47881Y26200D01*
X74781Y43600D02*
Y43200D01*
X75581D01*
Y43600D01*
X75981D01*
Y44400D01*
X75581D01*
Y44800D01*
X74781D01*
Y44400D01*
X74381D01*
Y43600D01*
X74781D01*
X35781Y82600D02*
Y82200D01*
X36581D01*
Y82600D01*
X36981D01*
Y83400D01*
X36581D01*
Y83800D01*
X35781D01*
Y83400D01*
X35381D01*
Y82600D01*
X35781D01*
Y49100D02*
Y48700D01*
X36581D01*
Y49100D01*
X36981D01*
Y49900D01*
X36581D01*
Y50300D01*
X35781D01*
Y49900D01*
X35381D01*
Y49100D01*
X35781D01*
X56381Y66700D02*
X56781Y67500D01*
X56381Y68300D01*
X57181Y67900D01*
X57981Y68300D01*
X57581Y67500D01*
X57981Y66700D01*
X57181Y67100D01*
X56381Y66700D01*
X59381Y70200D02*
X59781Y71000D01*
X59381Y71800D01*
X60181Y71400D01*
X60981Y71800D01*
X60581Y71000D01*
X60981Y70200D01*
X60181Y70600D01*
X59381Y70200D01*
X52381Y26200D02*
X52781Y27000D01*
X52381Y27800D01*
X53181Y27400D01*
X53981Y27800D01*
X53581Y27000D01*
X53981Y26200D01*
X53181Y26600D01*
X52381Y26200D01*
X50281Y38840D02*
Y38440D01*
X51081D01*
Y38840D01*
X51481D01*
Y39640D01*
X51081D01*
Y40040D01*
X50281D01*
Y39640D01*
X49881D01*
Y38840D01*
X50281D01*
X52281Y91600D02*
Y91200D01*
X53081D01*
Y91600D01*
X53481D01*
Y92400D01*
X53081D01*
Y92800D01*
X52281D01*
Y92400D01*
X51881D01*
Y91600D01*
X52281D01*
X72881Y67200D02*
X73281Y68000D01*
X72881Y68800D01*
X73681Y68400D01*
X74481Y68800D01*
X74081Y68000D01*
X74481Y67200D01*
X73681Y67600D01*
X72881Y67200D01*
X69881Y79700D02*
X70281Y80500D01*
X69881Y81300D01*
X70681Y80900D01*
X71481Y81300D01*
X71081Y80500D01*
X71481Y79700D01*
X70681Y80100D01*
X69881Y79700D01*
X65381Y49200D02*
X65781Y50000D01*
X65381Y50800D01*
X66181Y50400D01*
X66981Y50800D01*
X66581Y50000D01*
X66981Y49200D01*
X66181Y49600D01*
X65381Y49200D01*
X69381D02*
X69781Y50000D01*
X69381Y50800D01*
X70181Y50400D01*
X70981Y50800D01*
X70581Y50000D01*
X70981Y49200D01*
X70181Y49600D01*
X69381Y49200D01*
X53881Y56200D02*
X54281Y57000D01*
X53881Y57800D01*
X54681Y57400D01*
X55481Y57800D01*
X55081Y57000D01*
X55481Y56200D01*
X54681Y56600D01*
X53881Y56200D01*
Y62200D02*
X54281Y63000D01*
X53881Y63800D01*
X54681Y63400D01*
X55481Y63800D01*
X55081Y63000D01*
X55481Y62200D01*
X54681Y62600D01*
X53881Y62200D01*
Y72200D02*
X54281Y73000D01*
X53881Y73800D01*
X54681Y73400D01*
X55481Y73800D01*
X55081Y73000D01*
X55481Y72200D01*
X54681Y72600D01*
X53881Y72200D01*
X42881Y56200D02*
X43281Y57000D01*
X42881Y57800D01*
X43681Y57400D01*
X44481Y57800D01*
X44081Y57000D01*
X44481Y56200D01*
X43681Y56600D01*
X42881Y56200D01*
Y62200D02*
X43281Y63000D01*
X42881Y63800D01*
X43681Y63400D01*
X44481Y63800D01*
X44081Y63000D01*
X44481Y62200D01*
X43681Y62600D01*
X42881Y62200D01*
Y68200D02*
X43281Y69000D01*
X42881Y69800D01*
X43681Y69400D01*
X44481Y69800D01*
X44081Y69000D01*
X44481Y68200D01*
X43681Y68600D01*
X42881Y68200D01*
X65381Y84200D02*
X65781Y85000D01*
X65381Y85800D01*
X66181Y85400D01*
X66981Y85800D01*
X66581Y85000D01*
X66981Y84200D01*
X66181Y84600D01*
X65381Y84200D01*
X74881Y86700D02*
X75281Y87500D01*
X74881Y88300D01*
X75681Y87900D01*
X76481Y88300D01*
X76081Y87500D01*
X76481Y86700D01*
X75681Y87100D01*
X74881Y86700D01*
Y96700D02*
X75281Y97500D01*
X74881Y98300D01*
X75681Y97900D01*
X76481Y98300D01*
X76081Y97500D01*
X76481Y96700D01*
X75681Y97100D01*
X74881Y96700D01*
X69881Y86700D02*
X70281Y87500D01*
X69881Y88300D01*
X70681Y87900D01*
X71481Y88300D01*
X71081Y87500D01*
X71481Y86700D01*
X70681Y87100D01*
X69881Y86700D01*
X57381Y91200D02*
X57781Y92000D01*
X57381Y92800D01*
X58181Y92400D01*
X58981Y92800D01*
X58581Y92000D01*
X58981Y91200D01*
X58181Y91600D01*
X57381Y91200D01*
X63381D02*
X63781Y92000D01*
X63381Y92800D01*
X64181Y92400D01*
X64981Y92800D01*
X64581Y92000D01*
X64981Y91200D01*
X64181Y91600D01*
X63381Y91200D01*
X62881Y116700D02*
X63281Y117500D01*
X62881Y118300D01*
X63681Y117900D01*
X64481Y118300D01*
X64081Y117500D01*
X64481Y116700D01*
X63681Y117100D01*
X62881Y116700D01*
X55381Y118200D02*
X55781Y119000D01*
X55381Y119800D01*
X56181Y119400D01*
X56981Y119800D01*
X56581Y119000D01*
X56981Y118200D01*
X56181Y118600D01*
X55381Y118200D01*
X50881Y122200D02*
X51281Y123000D01*
X50881Y123800D01*
X51681Y123400D01*
X52481Y123800D01*
X52081Y123000D01*
X52481Y122200D01*
X51681Y122600D01*
X50881Y122200D01*
X46381Y128700D02*
X46781Y129500D01*
X46381Y130300D01*
X47181Y129900D01*
X47981Y130300D01*
X47581Y129500D01*
X47981Y128700D01*
X47181Y129100D01*
X46381Y128700D01*
X50881Y118200D02*
X51281Y119000D01*
X50881Y119800D01*
X51681Y119400D01*
X52481Y119800D01*
X52081Y119000D01*
X52481Y118200D01*
X51681Y118600D01*
X50881Y118200D01*
X78381Y115200D02*
X78781Y116000D01*
X78381Y116800D01*
X79181Y116400D01*
X79981Y116800D01*
X79581Y116000D01*
X79981Y115200D01*
X79181Y115600D01*
X78381Y115200D01*
X24381Y150200D02*
X24781Y151000D01*
X24381Y151800D01*
X25181Y151400D01*
X25981Y151800D01*
X25581Y151000D01*
X25981Y150200D01*
X25181Y150600D01*
X24381Y150200D01*
X30381D02*
X30781Y151000D01*
X30381Y151800D01*
X31181Y151400D01*
X31981Y151800D01*
X31581Y151000D01*
X31981Y150200D01*
X31181Y150600D01*
X30381Y150200D01*
Y132700D02*
X30781Y133500D01*
X30381Y134300D01*
X31181Y133900D01*
X31981Y134300D01*
X31581Y133500D01*
X31981Y132700D01*
X31181Y133100D01*
X30381Y132700D01*
X24381D02*
X24781Y133500D01*
X24381Y134300D01*
X25181Y133900D01*
X25981Y134300D01*
X25581Y133500D01*
X25981Y132700D01*
X25181Y133100D01*
X24381Y132700D01*
X21881Y121700D02*
X22281Y122500D01*
X21881Y123300D01*
X22681Y122900D01*
X23481Y123300D01*
X23081Y122500D01*
X23481Y121700D01*
X22681Y122100D01*
X21881Y121700D01*
Y116700D02*
X22281Y117500D01*
X21881Y118300D01*
X22681Y117900D01*
X23481Y118300D01*
X23081Y117500D01*
X23481Y116700D01*
X22681Y117100D01*
X21881Y116700D01*
Y111700D02*
X22281Y112500D01*
X21881Y113300D01*
X22681Y112900D01*
X23481Y113300D01*
X23081Y112500D01*
X23481Y111700D01*
X22681Y112100D01*
X21881Y111700D01*
Y106700D02*
X22281Y107500D01*
X21881Y108300D01*
X22681Y107900D01*
X23481Y108300D01*
X23081Y107500D01*
X23481Y106700D01*
X22681Y107100D01*
X21881Y106700D01*
Y101700D02*
X22281Y102500D01*
X21881Y103300D01*
X22681Y102900D01*
X23481Y103300D01*
X23081Y102500D01*
X23481Y101700D01*
X22681Y102100D01*
X21881Y101700D01*
Y96700D02*
X22281Y97500D01*
X21881Y98300D01*
X22681Y97900D01*
X23481Y98300D01*
X23081Y97500D01*
X23481Y96700D01*
X22681Y97100D01*
X21881Y96700D01*
Y91700D02*
X22281Y92500D01*
X21881Y93300D01*
X22681Y92900D01*
X23481Y93300D01*
X23081Y92500D01*
X23481Y91700D01*
X22681Y92100D01*
X21881Y91700D01*
Y86700D02*
X22281Y87500D01*
X21881Y88300D01*
X22681Y87900D01*
X23481Y88300D01*
X23081Y87500D01*
X23481Y86700D01*
X22681Y87100D01*
X21881Y86700D01*
Y81700D02*
X22281Y82500D01*
X21881Y83300D01*
X22681Y82900D01*
X23481Y83300D01*
X23081Y82500D01*
X23481Y81700D01*
X22681Y82100D01*
X21881Y81700D01*
Y76700D02*
X22281Y77500D01*
X21881Y78300D01*
X22681Y77900D01*
X23481Y78300D01*
X23081Y77500D01*
X23481Y76700D01*
X22681Y77100D01*
X21881Y76700D01*
Y71700D02*
X22281Y72500D01*
X21881Y73300D01*
X22681Y72900D01*
X23481Y73300D01*
X23081Y72500D01*
X23481Y71700D01*
X22681Y72100D01*
X21881Y71700D01*
Y66700D02*
X22281Y67500D01*
X21881Y68300D01*
X22681Y67900D01*
X23481Y68300D01*
X23081Y67500D01*
X23481Y66700D01*
X22681Y67100D01*
X21881Y66700D01*
Y61700D02*
X22281Y62500D01*
X21881Y63300D01*
X22681Y62900D01*
X23481Y63300D01*
X23081Y62500D01*
X23481Y61700D01*
X22681Y62100D01*
X21881Y61700D01*
Y56700D02*
X22281Y57500D01*
X21881Y58300D01*
X22681Y57900D01*
X23481Y58300D01*
X23081Y57500D01*
X23481Y56700D01*
X22681Y57100D01*
X21881Y56700D01*
Y51700D02*
X22281Y52500D01*
X21881Y53300D01*
X22681Y52900D01*
X23481Y53300D01*
X23081Y52500D01*
X23481Y51700D01*
X22681Y52100D01*
X21881Y51700D01*
Y46700D02*
X22281Y47500D01*
X21881Y48300D01*
X22681Y47900D01*
X23481Y48300D01*
X23081Y47500D01*
X23481Y46700D01*
X22681Y47100D01*
X21881Y46700D01*
Y41700D02*
X22281Y42500D01*
X21881Y43300D01*
X22681Y42900D01*
X23481Y43300D01*
X23081Y42500D01*
X23481Y41700D01*
X22681Y42100D01*
X21881Y41700D01*
Y36700D02*
X22281Y37500D01*
X21881Y38300D01*
X22681Y37900D01*
X23481Y38300D01*
X23081Y37500D01*
X23481Y36700D01*
X22681Y37100D01*
X21881Y36700D01*
Y31700D02*
X22281Y32500D01*
X21881Y33300D01*
X22681Y32900D01*
X23481Y33300D01*
X23081Y32500D01*
X23481Y31700D01*
X22681Y32100D01*
X21881Y31700D01*
Y26700D02*
X22281Y27500D01*
X21881Y28300D01*
X22681Y27900D01*
X23481Y28300D01*
X23081Y27500D01*
X23481Y26700D01*
X22681Y27100D01*
X21881Y26700D01*
Y21700D02*
X22281Y22500D01*
X21881Y23300D01*
X22681Y22900D01*
X23481Y23300D01*
X23081Y22500D01*
X23481Y21700D01*
X22681Y22100D01*
X21881Y21700D01*
X51881Y34700D02*
X52281Y35500D01*
X51881Y36300D01*
X52681Y35900D01*
X53481Y36300D01*
X53081Y35500D01*
X53481Y34700D01*
X52681Y35100D01*
X51881Y34700D01*
X68881Y27700D02*
X69281Y28500D01*
X68881Y29300D01*
X69681Y28900D01*
X70481Y29300D01*
X70081Y28500D01*
X70481Y27700D01*
X69681Y28100D01*
X68881Y27700D01*
X56881Y26200D02*
X57281Y27000D01*
X56881Y27800D01*
X57681Y27400D01*
X58481Y27800D01*
X58081Y27000D01*
X58481Y26200D01*
X57681Y26600D01*
X56881Y26200D01*
X63381Y128700D02*
X63781Y129500D01*
X63381Y130300D01*
X64181Y129900D01*
X64981Y130300D01*
X64581Y129500D01*
X64981Y128700D01*
X64181Y129100D01*
X63381Y128700D01*
X59381Y132700D02*
X59781Y133500D01*
X59381Y134300D01*
X60181Y133900D01*
X60981Y134300D01*
X60581Y133500D01*
X60981Y132700D01*
X60181Y133100D01*
X59381Y132700D01*
X63381D02*
X63781Y133500D01*
X63381Y134300D01*
X64181Y133900D01*
X64981Y134300D01*
X64581Y133500D01*
X64981Y132700D01*
X64181Y133100D01*
X63381Y132700D01*
X45381Y102700D02*
X45781Y103500D01*
X45381Y104300D01*
X46181Y103900D01*
X46981Y104300D01*
X46581Y103500D01*
X46981Y102700D01*
X46181Y103100D01*
X45381Y102700D01*
Y107700D02*
X45781Y108500D01*
X45381Y109300D01*
X46181Y108900D01*
X46981Y109300D01*
X46581Y108500D01*
X46981Y107700D01*
X46181Y108100D01*
X45381Y107700D01*
X35381Y99700D02*
X35781Y100500D01*
X35381Y101300D01*
X36181Y100900D01*
X36981Y101300D01*
X36581Y100500D01*
X36981Y99700D01*
X36181Y100100D01*
X35381Y99700D01*
X30381Y107700D02*
X30781Y108500D01*
X30381Y109300D01*
X31181Y108900D01*
X31981Y109300D01*
X31581Y108500D01*
X31981Y107700D01*
X31181Y108100D01*
X30381Y107700D01*
X37881D02*
X38281Y108500D01*
X37881Y109300D01*
X38681Y108900D01*
X39481Y109300D01*
X39081Y108500D01*
X39481Y107700D01*
X38681Y108100D01*
X37881Y107700D01*
X30381Y99700D02*
X30781Y100500D01*
X30381Y101300D01*
X31181Y100900D01*
X31981Y101300D01*
X31581Y100500D01*
X31981Y99700D01*
X31181Y100100D01*
X30381Y99700D01*
Y85200D02*
X30781Y86000D01*
X30381Y86800D01*
X31181Y86400D01*
X31981Y86800D01*
X31581Y86000D01*
X31981Y85200D01*
X31181Y85600D01*
X30381Y85200D01*
Y47700D02*
X30781Y48500D01*
X30381Y49300D01*
X31181Y48900D01*
X31981Y49300D01*
X31581Y48500D01*
X31981Y47700D01*
X31181Y48100D01*
X30381Y47700D01*
X24381Y128200D02*
X24781Y129000D01*
X24381Y129800D01*
X25181Y129400D01*
X25981Y129800D01*
X25581Y129000D01*
X25981Y128200D01*
X25181Y128600D01*
X24381Y128200D01*
X30381D02*
X30781Y129000D01*
X30381Y129800D01*
X31181Y129400D01*
X31981Y129800D01*
X31581Y129000D01*
X31981Y128200D01*
X31181Y128600D01*
X30381Y128200D01*
D57*
X74481Y172961D02*
G03*
X74481Y172961I-800J0D01*
G01*
X59481D02*
G03*
X59481Y172961I-800J0D01*
G01*
X44481D02*
G03*
X44481Y172961I-800J0D01*
G01*
X27481Y163961D02*
G03*
X27481Y163961I-800J0D01*
G01*
Y173961D02*
G03*
X27481Y173961I-800J0D01*
G01*
Y183961D02*
G03*
X27481Y183961I-800J0D01*
G01*
X41981Y215067D02*
G03*
X41981Y215067I-800J0D01*
G01*
Y205067D02*
G03*
X41981Y205067I-800J0D01*
G01*
X137473Y172961D02*
G03*
X137473Y172961I-800J0D01*
G01*
X122473D02*
G03*
X122473Y172961I-800J0D01*
G01*
X107473D02*
G03*
X107473Y172961I-800J0D01*
G01*
X90473Y163961D02*
G03*
X90473Y163961I-800J0D01*
G01*
Y173961D02*
G03*
X90473Y173961I-800J0D01*
G01*
Y183961D02*
G03*
X90473Y183961I-800J0D01*
G01*
X104973Y215067D02*
G03*
X104973Y215067I-800J0D01*
G01*
Y205067D02*
G03*
X104973Y205067I-800J0D01*
G01*
X200465Y172961D02*
G03*
X200465Y172961I-800J0D01*
G01*
X185465D02*
G03*
X185465Y172961I-800J0D01*
G01*
X170465D02*
G03*
X170465Y172961I-800J0D01*
G01*
X153465Y163961D02*
G03*
X153465Y163961I-800J0D01*
G01*
Y173961D02*
G03*
X153465Y173961I-800J0D01*
G01*
Y183961D02*
G03*
X153465Y183961I-800J0D01*
G01*
X167965Y215067D02*
G03*
X167965Y215067I-800J0D01*
G01*
Y205067D02*
G03*
X167965Y205067I-800J0D01*
G01*
X263457Y172961D02*
G03*
X263457Y172961I-800J0D01*
G01*
X248458D02*
G03*
X248458Y172961I-800J0D01*
G01*
X233457D02*
G03*
X233457Y172961I-800J0D01*
G01*
X216458Y163961D02*
G03*
X216458Y163961I-800J0D01*
G01*
Y173961D02*
G03*
X216458Y173961I-800J0D01*
G01*
Y183961D02*
G03*
X216458Y183961I-800J0D01*
G01*
X230958Y215067D02*
G03*
X230958Y215067I-800J0D01*
G01*
Y205067D02*
G03*
X230958Y205067I-800J0D01*
G01*
X326450Y172961D02*
G03*
X326450Y172961I-800J0D01*
G01*
X311450D02*
G03*
X311450Y172961I-800J0D01*
G01*
X296450D02*
G03*
X296450Y172961I-800J0D01*
G01*
X279450Y163961D02*
G03*
X279450Y163961I-800J0D01*
G01*
Y173961D02*
G03*
X279450Y173961I-800J0D01*
G01*
Y183961D02*
G03*
X279450Y183961I-800J0D01*
G01*
X293950Y215067D02*
G03*
X293950Y215067I-800J0D01*
G01*
Y205067D02*
G03*
X293950Y205067I-800J0D01*
G01*
X281450Y142000D02*
G03*
X281450Y142000I-800J0D01*
G01*
X296450D02*
G03*
X296450Y142000I-800J0D01*
G01*
X311450D02*
G03*
X311450Y142000I-800J0D01*
G01*
X328450Y151000D02*
G03*
X328450Y151000I-800J0D01*
G01*
Y141000D02*
G03*
X328450Y141000I-800J0D01*
G01*
Y131000D02*
G03*
X328450Y131000I-800J0D01*
G01*
X313950Y99894D02*
G03*
X313950Y99894I-800J0D01*
G01*
Y109894D02*
G03*
X313950Y109894I-800J0D01*
G01*
X218458Y142000D02*
G03*
X218458Y142000I-800J0D01*
G01*
X233457D02*
G03*
X233457Y142000I-800J0D01*
G01*
X248458D02*
G03*
X248458Y142000I-800J0D01*
G01*
X265458Y151000D02*
G03*
X265458Y151000I-800J0D01*
G01*
Y141000D02*
G03*
X265458Y141000I-800J0D01*
G01*
Y131000D02*
G03*
X265458Y131000I-800J0D01*
G01*
X250957Y99894D02*
G03*
X250957Y99894I-800J0D01*
G01*
Y109894D02*
G03*
X250957Y109894I-800J0D01*
G01*
X155465Y142000D02*
G03*
X155465Y142000I-800J0D01*
G01*
X170465D02*
G03*
X170465Y142000I-800J0D01*
G01*
X185465D02*
G03*
X185465Y142000I-800J0D01*
G01*
X202465Y151000D02*
G03*
X202465Y151000I-800J0D01*
G01*
Y141000D02*
G03*
X202465Y141000I-800J0D01*
G01*
Y131000D02*
G03*
X202465Y131000I-800J0D01*
G01*
X187965Y99894D02*
G03*
X187965Y99894I-800J0D01*
G01*
Y109894D02*
G03*
X187965Y109894I-800J0D01*
G01*
X92473Y142000D02*
G03*
X92473Y142000I-800J0D01*
G01*
X107473D02*
G03*
X107473Y142000I-800J0D01*
G01*
X122473D02*
G03*
X122473Y142000I-800J0D01*
G01*
X139473Y151000D02*
G03*
X139473Y151000I-800J0D01*
G01*
Y141000D02*
G03*
X139473Y141000I-800J0D01*
G01*
Y131000D02*
G03*
X139473Y131000I-800J0D01*
G01*
X124973Y99894D02*
G03*
X124973Y99894I-800J0D01*
G01*
Y109894D02*
G03*
X124973Y109894I-800J0D01*
G01*
X29481Y142000D02*
G03*
X29481Y142000I-800J0D01*
G01*
X44481D02*
G03*
X44481Y142000I-800J0D01*
G01*
X59481D02*
G03*
X59481Y142000I-800J0D01*
G01*
X76481Y151000D02*
G03*
X76481Y151000I-800J0D01*
G01*
Y141000D02*
G03*
X76481Y141000I-800J0D01*
G01*
Y131000D02*
G03*
X76481Y131000I-800J0D01*
G01*
X61981Y99894D02*
G03*
X61981Y99894I-800J0D01*
G01*
Y109894D02*
G03*
X61981Y109894I-800J0D01*
G01*
M02*
