M48
;Layer_Color=9474304
;FILE_FORMAT=2:5
INCH,LZ
;TYPE=PLATED
T3F00S00C0.01968
T4F00S00C0.02756
%
G90
G05
T03
G00X0036909Y0009811
M15
G01Y0007449
M16
G00X0065453Y0009811
M15
G01Y0007449
M16
G00X0099902Y0009811
M15
G01Y0007449
M16
G00X0128445Y0009811
M15
G01Y0007449
M16
G00X0162894Y0009811
M15
G01Y0007449
M16
G00X0191437Y0009811
M15
G01Y0007449
M16
G00X0225886Y0009811
M15
G01Y0007449
M16
G00X0254429Y0009811
M15
G01Y0007449
M16
G00X0288878Y0009811
M15
G01Y0007449
M16
G00X0317421Y0009811
M15
G01Y0007449
M16
G00X0317421Y030515
M15
G01Y0307512
M16
G00X0288878Y030515
M15
G01Y0307512
M16
G00X0254429Y030515
M15
G01Y0307512
M16
G00X0225886Y030515
M15
G01Y0307512
M16
G00X0191437Y030515
M15
G01Y0307512
M16
G00X0162894Y030515
M15
G01Y0307512
M16
G00X0128445Y030515
M15
G01Y0307512
M16
G00X0099902Y030515
M15
G01Y0307512
M16
G00X0065453Y030515
M15
G01Y0307512
M16
G00X0036909Y030515
M15
G01Y0307512
M16
T04
G00X0041512Y0019181
M15
G01X0041756
M16
G00X0060606Y0019181
M15
G01X006085
M16
G00X0104504Y0019181
M15
G01X0104748
M16
G00X0123598Y0019181
M15
G01X0123843
M16
G00X0167496Y0019181
M15
G01X016774
M16
G00X0186591Y0019181
M15
G01X0186835
M16
G00X0230488Y0019181
M15
G01X0230732
M16
G00X0249583Y0019181
M15
G01X0249827
M16
G00X029348Y0019181
M15
G01X0293724
M16
G00X0312575Y0019181
M15
G01X0312819
M16
G00X0312819Y0295779
M15
G01X0312575
M16
G00X0293724Y0295779
M15
G01X029348
M16
G00X0249827Y0295779
M15
G01X0249583
M16
G00X0230732Y0295779
M15
G01X0230488
M16
G00X0186835Y0295779
M15
G01X0186591
M16
G00X016774Y0295779
M15
G01X0167496
M16
G00X0123843Y0295779
M15
G01X0123598
M16
G00X0104748Y0295779
M15
G01X0104504
M16
G00X006085Y0295779
M15
G01X0060606
M16
G00X0041756Y0295779
M15
G01X0041512
M16
M17
M30
