G04*
G04 #@! TF.GenerationSoftware,Altium Limited,Altium Designer,20.2.3 (150)*
G04*
G04 Layer_Color=8388736*
%FSLAX25Y25*%
%MOIN*%
G70*
G04*
G04 #@! TF.SameCoordinates,EBBBD63C-4F16-4FE1-BE59-5CF438A8D42D*
G04*
G04*
G04 #@! TF.FilePolarity,Negative*
G04*
G01*
G75*
%ADD22C,0.01000*%
%ADD24C,0.00787*%
%ADD39C,0.04737*%
%ADD40O,0.01981X0.07887*%
%ADD41O,0.07887X0.01981*%
G04:AMPARAMS|DCode=42|XSize=27.62mil|YSize=43.37mil|CornerRadius=7.91mil|HoleSize=0mil|Usage=FLASHONLY|Rotation=270.000|XOffset=0mil|YOffset=0mil|HoleType=Round|Shape=RoundedRectangle|*
%AMROUNDEDRECTD42*
21,1,0.02762,0.02756,0,0,270.0*
21,1,0.01181,0.04337,0,0,270.0*
1,1,0.01581,-0.01378,-0.00591*
1,1,0.01581,-0.01378,0.00591*
1,1,0.01581,0.01378,0.00591*
1,1,0.01581,0.01378,-0.00591*
%
%ADD42ROUNDEDRECTD42*%
%ADD43O,0.03162X0.06509*%
G04:AMPARAMS|DCode=44|XSize=65.09mil|YSize=53mil|CornerRadius=15.25mil|HoleSize=0mil|Usage=FLASHONLY|Rotation=360.000|XOffset=0mil|YOffset=0mil|HoleType=Round|Shape=RoundedRectangle|*
%AMROUNDEDRECTD44*
21,1,0.06509,0.02250,0,0,360.0*
21,1,0.03459,0.05300,0,0,360.0*
1,1,0.03050,0.01729,-0.01125*
1,1,0.03050,-0.01729,-0.01125*
1,1,0.03050,-0.01729,0.01125*
1,1,0.03050,0.01729,0.01125*
%
%ADD44ROUNDEDRECTD44*%
G04:AMPARAMS|DCode=45|XSize=47.37mil|YSize=43.43mil|CornerRadius=8.43mil|HoleSize=0mil|Usage=FLASHONLY|Rotation=360.000|XOffset=0mil|YOffset=0mil|HoleType=Round|Shape=RoundedRectangle|*
%AMROUNDEDRECTD45*
21,1,0.04737,0.02657,0,0,360.0*
21,1,0.03051,0.04343,0,0,360.0*
1,1,0.01686,0.01526,-0.01329*
1,1,0.01686,-0.01526,-0.01329*
1,1,0.01686,-0.01526,0.01329*
1,1,0.01686,0.01526,0.01329*
%
%ADD45ROUNDEDRECTD45*%
G04:AMPARAMS|DCode=46|XSize=39.5mil|YSize=39.5mil|CornerRadius=7.94mil|HoleSize=0mil|Usage=FLASHONLY|Rotation=90.000|XOffset=0mil|YOffset=0mil|HoleType=Round|Shape=RoundedRectangle|*
%AMROUNDEDRECTD46*
21,1,0.03950,0.02362,0,0,90.0*
21,1,0.02362,0.03950,0,0,90.0*
1,1,0.01587,0.01181,0.01181*
1,1,0.01587,0.01181,-0.01181*
1,1,0.01587,-0.01181,-0.01181*
1,1,0.01587,-0.01181,0.01181*
%
%ADD46ROUNDEDRECTD46*%
%ADD47R,0.02375X0.07099*%
%ADD48R,0.06312X0.04737*%
G04:AMPARAMS|DCode=49|XSize=41.47mil|YSize=35.56mil|CornerRadius=10.89mil|HoleSize=0mil|Usage=FLASHONLY|Rotation=180.000|XOffset=0mil|YOffset=0mil|HoleType=Round|Shape=RoundedRectangle|*
%AMROUNDEDRECTD49*
21,1,0.04147,0.01378,0,0,180.0*
21,1,0.01968,0.03556,0,0,180.0*
1,1,0.02178,-0.00984,0.00689*
1,1,0.02178,0.00984,0.00689*
1,1,0.02178,0.00984,-0.00689*
1,1,0.02178,-0.00984,-0.00689*
%
%ADD49ROUNDEDRECTD49*%
%ADD50C,0.08674*%
%ADD51C,0.11036*%
%ADD52C,0.05524*%
%ADD53O,0.05524X0.08280*%
%ADD54C,0.07099*%
%ADD55R,0.07099X0.07099*%
D22*
X363205Y325896D02*
Y321897D01*
X365204Y319898D01*
X367203Y321897D01*
Y325896D01*
X369203Y322897D02*
X373201D01*
X379200Y324896D02*
X378200Y325896D01*
X376201D01*
X375201Y324896D01*
Y320897D01*
X376201Y319898D01*
X378200D01*
X379200Y320897D01*
X381199Y325896D02*
Y320897D01*
X382199Y319898D01*
X384198D01*
X385198Y320897D01*
Y325896D01*
X387197D02*
X391196D01*
X389196D01*
Y319898D01*
D24*
X330709Y-0D02*
G03*
X334646Y3937I0J3937D01*
G01*
X271654Y3937D02*
G03*
X275590Y0I3937J0D01*
G01*
X267717Y-0D02*
G03*
X271654Y3937I0J3937D01*
G01*
X208661Y3937D02*
G03*
X212598Y0I3937J0D01*
G01*
X204724Y-0D02*
G03*
X208661Y3937I0J3937D01*
G01*
X145669Y3937D02*
G03*
X149606Y0I3937J0D01*
G01*
X141732Y-0D02*
G03*
X145669Y3937I0J3937D01*
G01*
X82677Y3937D02*
G03*
X86614Y0I3937J0D01*
G01*
X78740Y-0D02*
G03*
X82677Y3937I0J3937D01*
G01*
X19685Y3937D02*
G03*
X23622Y0I3937J0D01*
G01*
X23622Y157480D02*
G03*
X19685Y153543I0J-3937D01*
G01*
X82677D02*
G03*
X78740Y157480I-3937J0D01*
G01*
X86614D02*
G03*
X82677Y153543I0J-3937D01*
G01*
X145669D02*
G03*
X141732Y157480I-3937J0D01*
G01*
X149606D02*
G03*
X145669Y153543I0J-3937D01*
G01*
X208661D02*
G03*
X204724Y157480I-3937J0D01*
G01*
X212598D02*
G03*
X208661Y153543I0J-3937D01*
G01*
X271654D02*
G03*
X267717Y157480I-3937J0D01*
G01*
X275590D02*
G03*
X271654Y153543I0J-3937D01*
G01*
X334646D02*
G03*
X330709Y157480I-3937J0D01*
G01*
X330709Y157480D02*
G03*
X334646Y161417I0J3937D01*
G01*
X271654Y161417D02*
G03*
X275590Y157480I3937J0D01*
G01*
X267717Y157480D02*
G03*
X271654Y161417I0J3937D01*
G01*
X208661Y161417D02*
G03*
X212598Y157480I3937J0D01*
G01*
X204724Y157480D02*
G03*
X208661Y161417I0J3937D01*
G01*
X145669Y161417D02*
G03*
X149606Y157480I3937J0D01*
G01*
X141732Y157480D02*
G03*
X145669Y161417I0J3937D01*
G01*
X82677Y161417D02*
G03*
X86614Y157480I3937J0D01*
G01*
X78740Y157480D02*
G03*
X82677Y161417I0J3937D01*
G01*
X19685Y161417D02*
G03*
X23622Y157480I3937J0D01*
G01*
X334646Y311024D02*
G03*
X330709Y314961I-3937J0D01*
G01*
X275590D02*
G03*
X271654Y311024I0J-3937D01*
G01*
X271654D02*
G03*
X267717Y314961I-3937J0D01*
G01*
X212598D02*
G03*
X208661Y311024I0J-3937D01*
G01*
X208661D02*
G03*
X204724Y314961I-3937J0D01*
G01*
X149606D02*
G03*
X145669Y311024I0J-3937D01*
G01*
X145669D02*
G03*
X141732Y314961I-3937J0D01*
G01*
X86614D02*
G03*
X82677Y311024I0J-3937D01*
G01*
X82677D02*
G03*
X78740Y314961I-3937J0D01*
G01*
X23622D02*
G03*
X19685Y311024I0J-3937D01*
G01*
Y3928D02*
Y311024D01*
X334646Y3937D02*
Y311024D01*
X334646Y311024D02*
Y314961D01*
X275590Y0D02*
X330709D01*
X334646D02*
Y3937D01*
X19685Y0D02*
Y3937D01*
X334646Y314961D02*
X354331D01*
X334646Y314961D02*
X334646Y314961D01*
X275584Y157480D02*
X330717D01*
X271654Y311024D02*
X271654Y161417D01*
X212598Y157480D02*
X267725D01*
X271654Y3937D02*
Y153543D01*
X208661Y3928D02*
Y153552D01*
X149600Y157480D02*
X204733D01*
X208661Y311024D02*
X208661Y161417D01*
X145669Y311024D02*
X145669Y161417D01*
X86614Y157480D02*
X141732D01*
X145669Y3937D02*
Y153543D01*
X23616Y157480D02*
X78749D01*
X82677Y3937D02*
Y153543D01*
X82677Y311024D02*
X82677Y161417D01*
X208661Y3937D02*
X208661Y3937D01*
X271654Y311024D02*
X271654Y311024D01*
X271654Y161417D02*
X271654Y161417D01*
X145669Y161417D02*
X145669Y161417D01*
X275590Y314961D02*
X330709D01*
X212598D02*
X267717D01*
X149606D02*
X204724D01*
X86614D02*
X141732D01*
X23622D02*
X78740D01*
X334646Y0D02*
X354331D01*
X212598D02*
X267717D01*
X149606D02*
X204724D01*
X86614D02*
X141732D01*
X23622D02*
X78740D01*
X0D02*
X19685D01*
Y311024D02*
Y314961D01*
X0D02*
X19685D01*
X354331D02*
X354331Y0D01*
X-0Y314961D02*
X0Y0D01*
D39*
X344488Y295276D02*
D03*
X9843Y19685D02*
D03*
D40*
X62008Y233016D02*
D03*
X60039D02*
D03*
X58071D02*
D03*
X56102D02*
D03*
X54134D02*
D03*
X52165D02*
D03*
X50197D02*
D03*
X48228D02*
D03*
X46260D02*
D03*
X44291D02*
D03*
X42323D02*
D03*
X40354D02*
D03*
Y264906D02*
D03*
X42323D02*
D03*
X44291D02*
D03*
X46260D02*
D03*
X48228D02*
D03*
X50197D02*
D03*
X52165D02*
D03*
X54134D02*
D03*
X56102D02*
D03*
X58071D02*
D03*
X60039D02*
D03*
X62008D02*
D03*
X125000Y233016D02*
D03*
X123031D02*
D03*
X121063D02*
D03*
X119095D02*
D03*
X117126D02*
D03*
X115157D02*
D03*
X113189D02*
D03*
X111221D02*
D03*
X109252D02*
D03*
X107283D02*
D03*
X105315D02*
D03*
X103347D02*
D03*
Y264906D02*
D03*
X105315D02*
D03*
X107283D02*
D03*
X109252D02*
D03*
X111221D02*
D03*
X113189D02*
D03*
X115157D02*
D03*
X117126D02*
D03*
X119095D02*
D03*
X121063D02*
D03*
X123031D02*
D03*
X125000D02*
D03*
X187992Y233016D02*
D03*
X186024D02*
D03*
X184055D02*
D03*
X182087D02*
D03*
X180118D02*
D03*
X178150D02*
D03*
X176181D02*
D03*
X174213D02*
D03*
X172244D02*
D03*
X170276D02*
D03*
X168307D02*
D03*
X166339D02*
D03*
Y264906D02*
D03*
X168307D02*
D03*
X170276D02*
D03*
X172244D02*
D03*
X174213D02*
D03*
X176181D02*
D03*
X178150D02*
D03*
X180118D02*
D03*
X182087D02*
D03*
X184055D02*
D03*
X186024D02*
D03*
X187992D02*
D03*
X250984Y233016D02*
D03*
X249016D02*
D03*
X247047D02*
D03*
X245079D02*
D03*
X243110D02*
D03*
X241142D02*
D03*
X239173D02*
D03*
X237205D02*
D03*
X235236D02*
D03*
X233268D02*
D03*
X231299D02*
D03*
X229331D02*
D03*
Y264906D02*
D03*
X231299D02*
D03*
X233268D02*
D03*
X235236D02*
D03*
X237205D02*
D03*
X239173D02*
D03*
X241142D02*
D03*
X243110D02*
D03*
X245079D02*
D03*
X247047D02*
D03*
X249016D02*
D03*
X250984D02*
D03*
X313976Y233016D02*
D03*
X312008D02*
D03*
X310039D02*
D03*
X308071D02*
D03*
X306102D02*
D03*
X304134D02*
D03*
X302165D02*
D03*
X300197D02*
D03*
X298228D02*
D03*
X296260D02*
D03*
X294291D02*
D03*
X292323D02*
D03*
Y264906D02*
D03*
X294291D02*
D03*
X296260D02*
D03*
X298228D02*
D03*
X300197D02*
D03*
X302165D02*
D03*
X304134D02*
D03*
X306102D02*
D03*
X308071D02*
D03*
X310039D02*
D03*
X312008D02*
D03*
X313976D02*
D03*
X292323Y81945D02*
D03*
X294291D02*
D03*
X296260D02*
D03*
X298228D02*
D03*
X300197D02*
D03*
X302165D02*
D03*
X304134D02*
D03*
X306102D02*
D03*
X308071D02*
D03*
X310039D02*
D03*
X312008D02*
D03*
X313976D02*
D03*
Y50055D02*
D03*
X312008D02*
D03*
X310039D02*
D03*
X308071D02*
D03*
X306102D02*
D03*
X304134D02*
D03*
X302165D02*
D03*
X300197D02*
D03*
X298228D02*
D03*
X296260D02*
D03*
X294291D02*
D03*
X292323D02*
D03*
X229331Y81945D02*
D03*
X231299D02*
D03*
X233268D02*
D03*
X235236D02*
D03*
X237205D02*
D03*
X239173D02*
D03*
X241142D02*
D03*
X243110D02*
D03*
X245079D02*
D03*
X247047D02*
D03*
X249016D02*
D03*
X250984D02*
D03*
Y50055D02*
D03*
X249016D02*
D03*
X247047D02*
D03*
X245079D02*
D03*
X243110D02*
D03*
X241142D02*
D03*
X239173D02*
D03*
X237205D02*
D03*
X235236D02*
D03*
X233268D02*
D03*
X231299D02*
D03*
X229331D02*
D03*
X166339Y81945D02*
D03*
X168307D02*
D03*
X170276D02*
D03*
X172244D02*
D03*
X174213D02*
D03*
X176181D02*
D03*
X178150D02*
D03*
X180118D02*
D03*
X182087D02*
D03*
X184055D02*
D03*
X186024D02*
D03*
X187992D02*
D03*
Y50055D02*
D03*
X186024D02*
D03*
X184055D02*
D03*
X182087D02*
D03*
X180118D02*
D03*
X178150D02*
D03*
X176181D02*
D03*
X174213D02*
D03*
X172244D02*
D03*
X170276D02*
D03*
X168307D02*
D03*
X166339D02*
D03*
X103347Y81945D02*
D03*
X105315D02*
D03*
X107283D02*
D03*
X109252D02*
D03*
X111221D02*
D03*
X113189D02*
D03*
X115157D02*
D03*
X117126D02*
D03*
X119095D02*
D03*
X121063D02*
D03*
X123031D02*
D03*
X125000D02*
D03*
Y50055D02*
D03*
X123031D02*
D03*
X121063D02*
D03*
X119095D02*
D03*
X117126D02*
D03*
X115157D02*
D03*
X113189D02*
D03*
X111221D02*
D03*
X109252D02*
D03*
X107283D02*
D03*
X105315D02*
D03*
X103347D02*
D03*
X40354Y81945D02*
D03*
X42323D02*
D03*
X44291D02*
D03*
X46260D02*
D03*
X48228D02*
D03*
X50197D02*
D03*
X52165D02*
D03*
X54134D02*
D03*
X56102D02*
D03*
X58071D02*
D03*
X60039D02*
D03*
X62008D02*
D03*
Y50055D02*
D03*
X60039D02*
D03*
X58071D02*
D03*
X56102D02*
D03*
X54134D02*
D03*
X52165D02*
D03*
X50197D02*
D03*
X48228D02*
D03*
X46260D02*
D03*
X44291D02*
D03*
X42323D02*
D03*
X40354D02*
D03*
D41*
X35236Y238134D02*
D03*
Y240102D02*
D03*
Y242071D02*
D03*
Y244039D02*
D03*
Y246008D02*
D03*
Y247976D02*
D03*
Y249945D02*
D03*
Y251913D02*
D03*
Y253882D02*
D03*
Y255850D02*
D03*
Y257819D02*
D03*
Y259787D02*
D03*
X67126D02*
D03*
Y257819D02*
D03*
Y255850D02*
D03*
Y253882D02*
D03*
Y251913D02*
D03*
Y249945D02*
D03*
Y247976D02*
D03*
Y246008D02*
D03*
Y244039D02*
D03*
Y242071D02*
D03*
Y240102D02*
D03*
Y238134D02*
D03*
X98228D02*
D03*
Y240102D02*
D03*
Y242071D02*
D03*
Y244039D02*
D03*
Y246008D02*
D03*
Y247976D02*
D03*
Y249945D02*
D03*
Y251913D02*
D03*
Y253882D02*
D03*
Y255850D02*
D03*
Y257819D02*
D03*
Y259787D02*
D03*
X130118D02*
D03*
Y257819D02*
D03*
Y255850D02*
D03*
Y253882D02*
D03*
Y251913D02*
D03*
Y249945D02*
D03*
Y247976D02*
D03*
Y246008D02*
D03*
Y244039D02*
D03*
Y242071D02*
D03*
Y240102D02*
D03*
Y238134D02*
D03*
X161221D02*
D03*
Y240102D02*
D03*
Y242071D02*
D03*
Y244039D02*
D03*
Y246008D02*
D03*
Y247976D02*
D03*
Y249945D02*
D03*
Y251913D02*
D03*
Y253882D02*
D03*
Y255850D02*
D03*
Y257819D02*
D03*
Y259787D02*
D03*
X193110D02*
D03*
Y257819D02*
D03*
Y255850D02*
D03*
Y253882D02*
D03*
Y251913D02*
D03*
Y249945D02*
D03*
Y247976D02*
D03*
Y246008D02*
D03*
Y244039D02*
D03*
Y242071D02*
D03*
Y240102D02*
D03*
Y238134D02*
D03*
X224213D02*
D03*
Y240102D02*
D03*
Y242071D02*
D03*
Y244039D02*
D03*
Y246008D02*
D03*
Y247976D02*
D03*
Y249945D02*
D03*
Y251913D02*
D03*
Y253882D02*
D03*
Y255850D02*
D03*
Y257819D02*
D03*
Y259787D02*
D03*
X256102D02*
D03*
Y257819D02*
D03*
Y255850D02*
D03*
Y253882D02*
D03*
Y251913D02*
D03*
Y249945D02*
D03*
Y247976D02*
D03*
Y246008D02*
D03*
Y244039D02*
D03*
Y242071D02*
D03*
Y240102D02*
D03*
Y238134D02*
D03*
X287205D02*
D03*
Y240102D02*
D03*
Y242071D02*
D03*
Y244039D02*
D03*
Y246008D02*
D03*
Y247976D02*
D03*
Y249945D02*
D03*
Y251913D02*
D03*
Y253882D02*
D03*
Y255850D02*
D03*
Y257819D02*
D03*
Y259787D02*
D03*
X319094D02*
D03*
Y257819D02*
D03*
Y255850D02*
D03*
Y253882D02*
D03*
Y251913D02*
D03*
Y249945D02*
D03*
Y247976D02*
D03*
Y246008D02*
D03*
Y244039D02*
D03*
Y242071D02*
D03*
Y240102D02*
D03*
Y238134D02*
D03*
Y76827D02*
D03*
Y74858D02*
D03*
Y72890D02*
D03*
Y70921D02*
D03*
Y68953D02*
D03*
Y66984D02*
D03*
Y65016D02*
D03*
Y63047D02*
D03*
Y61079D02*
D03*
Y59110D02*
D03*
Y57142D02*
D03*
Y55173D02*
D03*
X287205D02*
D03*
Y57142D02*
D03*
Y59110D02*
D03*
Y61079D02*
D03*
Y63047D02*
D03*
Y65016D02*
D03*
Y66984D02*
D03*
Y68953D02*
D03*
Y70921D02*
D03*
Y72890D02*
D03*
Y74858D02*
D03*
Y76827D02*
D03*
X256102D02*
D03*
Y74858D02*
D03*
Y72890D02*
D03*
Y70921D02*
D03*
Y68953D02*
D03*
Y66984D02*
D03*
Y65016D02*
D03*
Y63047D02*
D03*
Y61079D02*
D03*
Y59110D02*
D03*
Y57142D02*
D03*
Y55173D02*
D03*
X224213D02*
D03*
Y57142D02*
D03*
Y59110D02*
D03*
Y61079D02*
D03*
Y63047D02*
D03*
Y65016D02*
D03*
Y66984D02*
D03*
Y68953D02*
D03*
Y70921D02*
D03*
Y72890D02*
D03*
Y74858D02*
D03*
Y76827D02*
D03*
X193110D02*
D03*
Y74858D02*
D03*
Y72890D02*
D03*
Y70921D02*
D03*
Y68953D02*
D03*
Y66984D02*
D03*
Y65016D02*
D03*
Y63047D02*
D03*
Y61079D02*
D03*
Y59110D02*
D03*
Y57142D02*
D03*
Y55173D02*
D03*
X161221D02*
D03*
Y57142D02*
D03*
Y59110D02*
D03*
Y61079D02*
D03*
Y63047D02*
D03*
Y65016D02*
D03*
Y66984D02*
D03*
Y68953D02*
D03*
Y70921D02*
D03*
Y72890D02*
D03*
Y74858D02*
D03*
Y76827D02*
D03*
X130118D02*
D03*
Y74858D02*
D03*
Y72890D02*
D03*
Y70921D02*
D03*
Y68953D02*
D03*
Y66984D02*
D03*
Y65016D02*
D03*
Y63047D02*
D03*
Y61079D02*
D03*
Y59110D02*
D03*
Y57142D02*
D03*
Y55173D02*
D03*
X98228D02*
D03*
Y57142D02*
D03*
Y59110D02*
D03*
Y61079D02*
D03*
Y63047D02*
D03*
Y65016D02*
D03*
Y66984D02*
D03*
Y68953D02*
D03*
Y70921D02*
D03*
Y72890D02*
D03*
Y74858D02*
D03*
Y76827D02*
D03*
X67126D02*
D03*
Y74858D02*
D03*
Y72890D02*
D03*
Y70921D02*
D03*
Y68953D02*
D03*
Y66984D02*
D03*
Y65016D02*
D03*
Y63047D02*
D03*
Y61079D02*
D03*
Y59110D02*
D03*
Y57142D02*
D03*
Y55173D02*
D03*
X35236D02*
D03*
Y57142D02*
D03*
Y59110D02*
D03*
Y61079D02*
D03*
Y63047D02*
D03*
Y65016D02*
D03*
Y66984D02*
D03*
Y68953D02*
D03*
Y70921D02*
D03*
Y72890D02*
D03*
Y74858D02*
D03*
Y76827D02*
D03*
D42*
X56595Y275721D02*
D03*
Y279461D02*
D03*
Y283201D02*
D03*
X45768D02*
D03*
Y275721D02*
D03*
X119587D02*
D03*
Y279461D02*
D03*
Y283201D02*
D03*
X108760D02*
D03*
Y275721D02*
D03*
X182579D02*
D03*
Y279461D02*
D03*
Y283201D02*
D03*
X171752D02*
D03*
Y275721D02*
D03*
X245571D02*
D03*
Y279461D02*
D03*
Y283201D02*
D03*
X234744D02*
D03*
Y275721D02*
D03*
X308563D02*
D03*
Y279461D02*
D03*
Y283201D02*
D03*
X297736D02*
D03*
Y275721D02*
D03*
X297736Y39240D02*
D03*
Y35500D02*
D03*
Y31760D02*
D03*
X308563D02*
D03*
Y39240D02*
D03*
X234744D02*
D03*
Y35500D02*
D03*
Y31760D02*
D03*
X245571D02*
D03*
Y39240D02*
D03*
X171752D02*
D03*
Y35500D02*
D03*
Y31760D02*
D03*
X182579D02*
D03*
Y39240D02*
D03*
X108760D02*
D03*
Y35500D02*
D03*
Y31760D02*
D03*
X119587D02*
D03*
Y39240D02*
D03*
X45768D02*
D03*
Y35500D02*
D03*
Y31760D02*
D03*
X56595D02*
D03*
Y39240D02*
D03*
D43*
X56181Y199732D02*
D03*
X61181D02*
D03*
X66181D02*
D03*
X71181D02*
D03*
X56181Y221189D02*
D03*
X61181D02*
D03*
X66181D02*
D03*
X71181D02*
D03*
X119173Y199732D02*
D03*
X124173D02*
D03*
X129173D02*
D03*
X134173D02*
D03*
X119173Y221189D02*
D03*
X124173D02*
D03*
X129173D02*
D03*
X134173D02*
D03*
X182165Y199732D02*
D03*
X187165D02*
D03*
X192165D02*
D03*
X197165D02*
D03*
X182165Y221189D02*
D03*
X187165D02*
D03*
X192165D02*
D03*
X197165D02*
D03*
X245158Y199732D02*
D03*
X250157D02*
D03*
X255157D02*
D03*
X260157D02*
D03*
X245158Y221189D02*
D03*
X250157D02*
D03*
X255157D02*
D03*
X260157D02*
D03*
X308150Y199732D02*
D03*
X313150D02*
D03*
X318150D02*
D03*
X323150D02*
D03*
X308150Y221189D02*
D03*
X313150D02*
D03*
X318150D02*
D03*
X323150D02*
D03*
X298150Y115228D02*
D03*
X293150D02*
D03*
X288150D02*
D03*
X283150D02*
D03*
X298150Y93772D02*
D03*
X293150D02*
D03*
X288150D02*
D03*
X283150D02*
D03*
X235157Y115228D02*
D03*
X230157D02*
D03*
X225157D02*
D03*
X220158D02*
D03*
X235157Y93772D02*
D03*
X230157D02*
D03*
X225157D02*
D03*
X220158D02*
D03*
X172165Y115228D02*
D03*
X167165D02*
D03*
X162165D02*
D03*
X157165D02*
D03*
X172165Y93772D02*
D03*
X167165D02*
D03*
X162165D02*
D03*
X157165D02*
D03*
X109173Y115228D02*
D03*
X104173D02*
D03*
X99173D02*
D03*
X94173D02*
D03*
X109173Y93772D02*
D03*
X104173D02*
D03*
X99173D02*
D03*
X94173D02*
D03*
X46181Y115228D02*
D03*
X41181D02*
D03*
X36181D02*
D03*
X31181D02*
D03*
X46181Y93772D02*
D03*
X41181D02*
D03*
X36181D02*
D03*
X31181D02*
D03*
D44*
X63181Y275721D02*
D03*
Y284213D02*
D03*
X126173Y275721D02*
D03*
Y284213D02*
D03*
X189165Y275721D02*
D03*
Y284213D02*
D03*
X252157Y275721D02*
D03*
Y284213D02*
D03*
X315150Y275721D02*
D03*
Y284213D02*
D03*
X291150Y39240D02*
D03*
Y30747D02*
D03*
X228157Y39240D02*
D03*
Y30747D02*
D03*
X165165Y39240D02*
D03*
Y30747D02*
D03*
X102173Y39240D02*
D03*
Y30747D02*
D03*
X39181Y39240D02*
D03*
Y30747D02*
D03*
D45*
X31681Y199114D02*
D03*
Y205807D02*
D03*
Y221807D02*
D03*
Y215114D02*
D03*
X27181Y275721D02*
D03*
Y282413D02*
D03*
X75181D02*
D03*
Y275721D02*
D03*
X94673Y199114D02*
D03*
Y205807D02*
D03*
Y221807D02*
D03*
Y215114D02*
D03*
X90173Y275721D02*
D03*
Y282413D02*
D03*
X138173D02*
D03*
Y275721D02*
D03*
X157665Y199114D02*
D03*
Y205807D02*
D03*
Y221807D02*
D03*
Y215114D02*
D03*
X153165Y275721D02*
D03*
Y282413D02*
D03*
X201165D02*
D03*
Y275721D02*
D03*
X220657Y199114D02*
D03*
Y205807D02*
D03*
Y221807D02*
D03*
Y215114D02*
D03*
X216158Y275721D02*
D03*
Y282413D02*
D03*
X264158D02*
D03*
Y275721D02*
D03*
X283650Y199114D02*
D03*
Y205807D02*
D03*
Y221807D02*
D03*
Y215114D02*
D03*
X279150Y275721D02*
D03*
Y282413D02*
D03*
X327150D02*
D03*
Y275721D02*
D03*
X322650Y115847D02*
D03*
Y109154D02*
D03*
Y93154D02*
D03*
Y99847D02*
D03*
X327150Y39240D02*
D03*
Y32547D02*
D03*
X279150D02*
D03*
Y39240D02*
D03*
X259658Y115847D02*
D03*
Y109154D02*
D03*
Y93154D02*
D03*
Y99847D02*
D03*
X264158Y39240D02*
D03*
Y32547D02*
D03*
X216158D02*
D03*
Y39240D02*
D03*
X196665Y115847D02*
D03*
Y109154D02*
D03*
Y93154D02*
D03*
Y99847D02*
D03*
X201165Y39240D02*
D03*
Y32547D02*
D03*
X153165D02*
D03*
Y39240D02*
D03*
X133673Y115847D02*
D03*
Y109154D02*
D03*
Y93154D02*
D03*
Y99847D02*
D03*
X138173Y39240D02*
D03*
Y32547D02*
D03*
X90173D02*
D03*
Y39240D02*
D03*
X70681Y115847D02*
D03*
Y109154D02*
D03*
Y93154D02*
D03*
Y99847D02*
D03*
X75181Y39240D02*
D03*
Y32547D02*
D03*
X27181D02*
D03*
Y39240D02*
D03*
D46*
X75181Y308307D02*
D03*
Y301614D02*
D03*
X27181Y308307D02*
D03*
Y301614D02*
D03*
X138173Y308307D02*
D03*
Y301614D02*
D03*
X90173Y308307D02*
D03*
Y301614D02*
D03*
X201165Y308307D02*
D03*
Y301614D02*
D03*
X153165Y308307D02*
D03*
Y301614D02*
D03*
X264158Y308307D02*
D03*
Y301614D02*
D03*
X216158Y308307D02*
D03*
Y301614D02*
D03*
X327150Y308307D02*
D03*
Y301614D02*
D03*
X279150Y308307D02*
D03*
Y301614D02*
D03*
Y6654D02*
D03*
Y13347D02*
D03*
X327150Y6654D02*
D03*
Y13347D02*
D03*
X216158Y6654D02*
D03*
Y13347D02*
D03*
X264158Y6654D02*
D03*
Y13347D02*
D03*
X153165Y6654D02*
D03*
Y13347D02*
D03*
X201165Y6654D02*
D03*
Y13347D02*
D03*
X90173Y6654D02*
D03*
Y13347D02*
D03*
X138173Y6654D02*
D03*
Y13347D02*
D03*
X27181Y6654D02*
D03*
Y13347D02*
D03*
X75181Y6654D02*
D03*
Y13347D02*
D03*
D47*
X51181Y293732D02*
D03*
X53740D02*
D03*
X56299D02*
D03*
X48622D02*
D03*
X46063D02*
D03*
X114173D02*
D03*
X116732D02*
D03*
X119291D02*
D03*
X111614D02*
D03*
X109055D02*
D03*
X177165D02*
D03*
X179724D02*
D03*
X182283D02*
D03*
X174606D02*
D03*
X172047D02*
D03*
X240158D02*
D03*
X242717D02*
D03*
X245276D02*
D03*
X237598D02*
D03*
X235039D02*
D03*
X303150D02*
D03*
X305709D02*
D03*
X308268D02*
D03*
X300590D02*
D03*
X298031D02*
D03*
X303150Y21228D02*
D03*
X300590D02*
D03*
X298031D02*
D03*
X305709D02*
D03*
X308268D02*
D03*
X240158D02*
D03*
X237598D02*
D03*
X235039D02*
D03*
X242717D02*
D03*
X245276D02*
D03*
X177165D02*
D03*
X174606D02*
D03*
X172047D02*
D03*
X179724D02*
D03*
X182283D02*
D03*
X114173D02*
D03*
X111614D02*
D03*
X109055D02*
D03*
X116732D02*
D03*
X119291D02*
D03*
X51181D02*
D03*
X48622D02*
D03*
X46063D02*
D03*
X53740D02*
D03*
X56299D02*
D03*
D48*
X55905Y309087D02*
D03*
X46457D02*
D03*
X118898D02*
D03*
X109449D02*
D03*
X181890D02*
D03*
X172441D02*
D03*
X244882D02*
D03*
X235433D02*
D03*
X307874D02*
D03*
X298425D02*
D03*
Y5874D02*
D03*
X307874D02*
D03*
X235433D02*
D03*
X244882D02*
D03*
X172441D02*
D03*
X181890D02*
D03*
X109449D02*
D03*
X118898D02*
D03*
X46457D02*
D03*
X55905D02*
D03*
D49*
X27181Y233016D02*
D03*
Y238134D02*
D03*
Y264520D02*
D03*
Y259402D02*
D03*
X75181Y233016D02*
D03*
Y238134D02*
D03*
Y258902D02*
D03*
Y264020D02*
D03*
Y251520D02*
D03*
Y246402D02*
D03*
X49681Y202902D02*
D03*
Y208020D02*
D03*
Y212902D02*
D03*
Y218020D02*
D03*
X34181Y280839D02*
D03*
Y275721D02*
D03*
X40354Y280839D02*
D03*
Y275721D02*
D03*
X69681D02*
D03*
Y280839D02*
D03*
X90173Y233016D02*
D03*
Y238134D02*
D03*
Y264520D02*
D03*
Y259402D02*
D03*
X138173Y233016D02*
D03*
Y238134D02*
D03*
Y258902D02*
D03*
Y264020D02*
D03*
Y251520D02*
D03*
Y246402D02*
D03*
X112673Y202902D02*
D03*
Y208020D02*
D03*
Y212902D02*
D03*
Y218020D02*
D03*
X97173Y280839D02*
D03*
Y275721D02*
D03*
X103347Y280839D02*
D03*
Y275721D02*
D03*
X132673D02*
D03*
Y280839D02*
D03*
X153165Y233016D02*
D03*
Y238134D02*
D03*
Y264520D02*
D03*
Y259402D02*
D03*
X201165Y233016D02*
D03*
Y238134D02*
D03*
Y258902D02*
D03*
Y264020D02*
D03*
Y251520D02*
D03*
Y246402D02*
D03*
X175665Y202902D02*
D03*
Y208020D02*
D03*
Y212902D02*
D03*
Y218020D02*
D03*
X160165Y280839D02*
D03*
Y275721D02*
D03*
X166339Y280839D02*
D03*
Y275721D02*
D03*
X195665D02*
D03*
Y280839D02*
D03*
X216158Y233016D02*
D03*
Y238134D02*
D03*
Y264520D02*
D03*
Y259402D02*
D03*
X264158Y233016D02*
D03*
Y238134D02*
D03*
Y258902D02*
D03*
Y264020D02*
D03*
Y251520D02*
D03*
Y246402D02*
D03*
X238657Y202902D02*
D03*
Y208020D02*
D03*
Y212902D02*
D03*
Y218020D02*
D03*
X223158Y280839D02*
D03*
Y275721D02*
D03*
X229331Y280839D02*
D03*
Y275721D02*
D03*
X258658D02*
D03*
Y280839D02*
D03*
X279150Y233016D02*
D03*
Y238134D02*
D03*
Y264520D02*
D03*
Y259402D02*
D03*
X327150Y233016D02*
D03*
Y238134D02*
D03*
Y258902D02*
D03*
Y264020D02*
D03*
Y251520D02*
D03*
Y246402D02*
D03*
X301650Y202902D02*
D03*
Y208020D02*
D03*
Y212902D02*
D03*
Y218020D02*
D03*
X286150Y280839D02*
D03*
Y275721D02*
D03*
X292323Y280839D02*
D03*
Y275721D02*
D03*
X321650D02*
D03*
Y280839D02*
D03*
X327150Y81945D02*
D03*
Y76827D02*
D03*
Y50441D02*
D03*
Y55559D02*
D03*
X279150Y81945D02*
D03*
Y76827D02*
D03*
Y56059D02*
D03*
Y50941D02*
D03*
Y63441D02*
D03*
Y68559D02*
D03*
X304650Y112059D02*
D03*
Y106941D02*
D03*
Y102059D02*
D03*
Y96941D02*
D03*
X320150Y34122D02*
D03*
Y39240D02*
D03*
X313976Y34122D02*
D03*
Y39240D02*
D03*
X284650D02*
D03*
Y34122D02*
D03*
X264158Y81945D02*
D03*
Y76827D02*
D03*
Y50441D02*
D03*
Y55559D02*
D03*
X216158Y81945D02*
D03*
Y76827D02*
D03*
Y56059D02*
D03*
Y50941D02*
D03*
Y63441D02*
D03*
Y68559D02*
D03*
X241657Y112059D02*
D03*
Y106941D02*
D03*
Y102059D02*
D03*
Y96941D02*
D03*
X257157Y34122D02*
D03*
Y39240D02*
D03*
X250984Y34122D02*
D03*
Y39240D02*
D03*
X221657D02*
D03*
Y34122D02*
D03*
X201165Y81945D02*
D03*
Y76827D02*
D03*
Y50441D02*
D03*
Y55559D02*
D03*
X153165Y81945D02*
D03*
Y76827D02*
D03*
Y56059D02*
D03*
Y50941D02*
D03*
Y63441D02*
D03*
Y68559D02*
D03*
X178665Y112059D02*
D03*
Y106941D02*
D03*
Y102059D02*
D03*
Y96941D02*
D03*
X194165Y34122D02*
D03*
Y39240D02*
D03*
X187992Y34122D02*
D03*
Y39240D02*
D03*
X158665D02*
D03*
Y34122D02*
D03*
X138173Y81945D02*
D03*
Y76827D02*
D03*
Y50441D02*
D03*
Y55559D02*
D03*
X90173Y81945D02*
D03*
Y76827D02*
D03*
Y56059D02*
D03*
Y50941D02*
D03*
Y63441D02*
D03*
Y68559D02*
D03*
X115673Y112059D02*
D03*
Y106941D02*
D03*
Y102059D02*
D03*
Y96941D02*
D03*
X131173Y34122D02*
D03*
Y39240D02*
D03*
X125000Y34122D02*
D03*
Y39240D02*
D03*
X95673D02*
D03*
Y34122D02*
D03*
X75181Y81945D02*
D03*
Y76827D02*
D03*
Y50441D02*
D03*
Y55559D02*
D03*
X27181Y81945D02*
D03*
Y76827D02*
D03*
Y56059D02*
D03*
Y50941D02*
D03*
Y63441D02*
D03*
Y68559D02*
D03*
X52681Y112059D02*
D03*
Y106941D02*
D03*
Y102059D02*
D03*
Y96941D02*
D03*
X68181Y34122D02*
D03*
Y39240D02*
D03*
X62008Y34122D02*
D03*
Y39240D02*
D03*
X32681D02*
D03*
Y34122D02*
D03*
D50*
X344488Y9843D02*
D03*
Y305118D02*
D03*
X9843D02*
D03*
Y9843D02*
D03*
D51*
X73681Y172961D02*
D03*
X58681D02*
D03*
X43681D02*
D03*
X136673D02*
D03*
X121673D02*
D03*
X106673D02*
D03*
X199665D02*
D03*
X184665D02*
D03*
X169665D02*
D03*
X262657D02*
D03*
X247657D02*
D03*
X232658D02*
D03*
X325650D02*
D03*
X310650D02*
D03*
X295650D02*
D03*
X280650Y142000D02*
D03*
X295650D02*
D03*
X310650D02*
D03*
X217657D02*
D03*
X232658D02*
D03*
X247657D02*
D03*
X154665D02*
D03*
X169665D02*
D03*
X184665D02*
D03*
X91673D02*
D03*
X106673D02*
D03*
X121673D02*
D03*
X28681D02*
D03*
X43681D02*
D03*
X58681D02*
D03*
D52*
X41634Y295779D02*
D03*
X60728D02*
D03*
X104626D02*
D03*
X123721D02*
D03*
X167618D02*
D03*
X186713D02*
D03*
X230610D02*
D03*
X249705D02*
D03*
X293602D02*
D03*
X312697D02*
D03*
Y19181D02*
D03*
X293602D02*
D03*
X249705D02*
D03*
X230610D02*
D03*
X186713D02*
D03*
X167618D02*
D03*
X123721D02*
D03*
X104626D02*
D03*
X60728D02*
D03*
X41634D02*
D03*
D53*
X36909Y306331D02*
D03*
X65453D02*
D03*
X99902D02*
D03*
X128445D02*
D03*
X162894D02*
D03*
X191437D02*
D03*
X225886D02*
D03*
X254429D02*
D03*
X288878D02*
D03*
X317421D02*
D03*
X317421Y8630D02*
D03*
X288878D02*
D03*
X254429D02*
D03*
X225886D02*
D03*
X191437D02*
D03*
X162894D02*
D03*
X128445D02*
D03*
X99902D02*
D03*
X65453D02*
D03*
X36909D02*
D03*
D54*
X26681Y163961D02*
D03*
Y173961D02*
D03*
X41181Y205067D02*
D03*
X89673Y163961D02*
D03*
Y173961D02*
D03*
X104173Y205067D02*
D03*
X152665Y163961D02*
D03*
Y173961D02*
D03*
X167165Y205067D02*
D03*
X215657Y163961D02*
D03*
Y173961D02*
D03*
X230157Y205067D02*
D03*
X278650Y163961D02*
D03*
Y173961D02*
D03*
X293150Y205067D02*
D03*
X327650Y151000D02*
D03*
Y141000D02*
D03*
X313150Y109894D02*
D03*
X264657Y151000D02*
D03*
Y141000D02*
D03*
X250157Y109894D02*
D03*
X201665Y151000D02*
D03*
Y141000D02*
D03*
X187165Y109894D02*
D03*
X138673Y151000D02*
D03*
Y141000D02*
D03*
X124173Y109894D02*
D03*
X75681Y151000D02*
D03*
Y141000D02*
D03*
X61181Y109894D02*
D03*
D55*
X26681Y183961D02*
D03*
X41181Y215067D02*
D03*
X89673Y183961D02*
D03*
X104173Y215067D02*
D03*
X152665Y183961D02*
D03*
X167165Y215067D02*
D03*
X215657Y183961D02*
D03*
X230157Y215067D02*
D03*
X278650Y183961D02*
D03*
X293150Y215067D02*
D03*
X327650Y131000D02*
D03*
X313150Y99894D02*
D03*
X264657Y131000D02*
D03*
X250157Y99894D02*
D03*
X201665Y131000D02*
D03*
X187165Y99894D02*
D03*
X138673Y131000D02*
D03*
X124173Y99894D02*
D03*
X75681Y131000D02*
D03*
X61181Y99894D02*
D03*
M02*
