M48
;Layer_Color=9474304
;FILE_FORMAT=2:5
INCH,LZ
;TYPE=PLATED
T1F00S00C0.01181
T2F00S00C0.01575
T5F00S00C0.03543
T6F00S00C0.07874
%
T01
X0022681Y00225
Y00275
Y00325
Y00375
Y00425
Y00475
Y00525
Y00575
Y00625
Y00675
Y00725
Y00775
Y00825
Y00875
Y00925
Y00975
Y01025
Y01075
Y01125
Y01175
Y01225
X0025181Y0129
Y01335
X0031181
Y0129
X0047181Y01295
Y01335
X0051181Y01295
X0051681Y0123
Y0119
X0056181
X0063681Y01175
X0070681Y0123
X0064181Y01295
Y01335
X0060181
X0088173
Y0129
X0094173
Y01335
X0110173
Y01295
X0114173
X0114673Y0123
Y0119
X0119173
X0126673Y01175
X0133673Y0123
X0127173Y01295
Y01335
X0123173
X0151165
Y0129
X0148665Y01225
Y01175
Y01125
Y01075
Y01025
Y00975
Y00925
Y00875
Y00825
Y00775
Y00725
Y00675
Y00625
Y00575
Y00525
Y00475
Y00425
Y00375
Y00325
Y00275
Y00225
X0132673Y00285
X0120673Y0027
X0116173
X0111673
X0115673Y00355
X0117673Y0057
Y0063
X0120173Y00675
X0123173Y0071
X0117673Y0073
X0106673Y0069
Y0063
Y0057
X0094173Y00485
X0085673Y00475
Y00525
Y00575
Y00625
Y00675
Y00725
Y00775
Y00825
Y00875
Y00925
Y00975
Y01025
Y01075
Y01125
Y01175
Y01225
X0079181Y0116
X0075681Y00975
Y00875
X0070681
Y00805
X0066181Y0085
X0064181Y0092
X0058181
X0054681Y0073
X0060181Y0071
X0057181Y00675
X0054681Y0063
Y0057
X0043681
Y0063
Y0069
X0031181Y0086
Y01005
X0036181
X0038681Y01085
X0046181
Y01035
X0031181Y01085
Y0151
X0025181
X0088173
X0094173
Y01085
X0101673
X0109173
Y01035
X0099173Y01005
X0094173
Y0086
X0121173Y0092
X0127173
X0129173Y0085
X0133673Y00875
X0138673
Y00975
X0133673Y00805
X0136673Y0068
X0140173Y0067
X0133173Y005
X0129173
X0085673Y00425
Y00375
Y00325
Y00275
Y00225
X0069681Y00285
X0057681Y0027
X0053181
X0048681
X0052681Y00355
X0066181Y005
X0070181
X0073681Y0068
X0077181Y0067
X0031181Y00485
X0142173Y0116
X0151165Y0151
X0157165
Y01335
Y0129
X0173165Y01295
Y01335
X0177165Y01295
X0177665Y0123
Y0119
X0182165
X0189665Y01175
X0196665Y0123
X0190165Y01295
Y01335
X0186165
X0214158
Y0129
X0220158
Y01335
X0236157
Y01295
X0240158
X0240657Y0123
Y0119
X0245158
X0252658Y01175
X0259658Y0123
X0253157Y01295
Y01335
X0249158
X027715
Y0129
X028315
Y01335
X029915
Y01295
X030315
X030365Y0123
Y0119
X030815
X031215Y01335
X029815Y01085
Y01035
X029065Y01085
X028315
Y01005
X028815
X027465Y01025
Y01075
Y01125
Y01175
Y01225
X0268158Y0116
X0264657Y00975
X027465
Y00925
Y00875
Y00825
Y00775
Y00725
Y00675
Y00625
Y00575
Y00525
Y00475
Y00425
Y00375
Y00325
Y00275
Y00225
X0258658Y00285
X0246657Y0027
X0242158
X0237657
X0241657Y00355
X0243657Y0057
Y0063
X0246158Y00675
X0249158Y0071
X0243657Y0073
X0232658Y0069
Y0063
Y0057
X0220158Y00485
X0211658Y00475
Y00525
Y00575
Y00625
Y00675
Y00725
Y00775
Y00825
Y00875
Y00925
Y00975
Y01025
Y01075
Y01125
Y01175
Y01225
X0205165Y0116
X0201665Y00975
Y00875
X0196665
Y00805
X0192165Y0085
X0190165Y0092
X0184165
X0180665Y0073
X0186165Y0071
X0183165Y00675
X0180665Y0063
Y0057
X0169665
Y0063
Y0069
X0157165Y0086
Y01005
X0162165
X0164665Y01085
X0172165
Y01035
X0157165Y01085
Y00485
X0178665Y00355
X0179165Y0027
X0174665
X0183665
X0195665Y00285
X0211658Y00275
Y00325
Y00375
Y00425
Y00225
X0196165Y005
X0192165
X0199665Y0068
X0203165Y0067
X0220158Y0086
Y01005
X0225157
X0227658Y01085
X0235157
Y01035
X0220158Y01085
Y0151
X0214158
X027715
X028315
Y0086
X0264657Y00875
X0259658
Y00805
X0255157Y0085
X0253157Y0092
X0247158
X0262657Y0068
X0266158Y0067
X0259157Y005
X0255157
X028315Y00485
X029565Y0057
Y0063
Y0069
X030915Y00675
X031215Y0071
X030665Y0073
Y0063
Y0057
X030465Y00355
X030515Y0027
X030065
X030965
X031015Y0092
X031615
X031815Y0085
X032265Y00875
X032765
Y00975
X032265Y00805
X032565Y0068
X032915Y0067
X032215Y005
X031815
X032165Y00285
X031565Y01175
X032265Y0123
X031615Y01295
Y01335
X033115Y0116
X032915Y0163961
X032315
Y0181461
Y0185961
X032915
Y0181461
X033165Y0192461
Y0197461
Y0202461
Y0207461
Y0212461
Y0217461
Y0222461
Y0227461
Y0232461
Y0237461
Y0242461
Y0247461
Y0252461
Y0257461
Y0262461
Y0267461
Y0272461
Y0277461
Y0282461
Y0287461
Y0292461
X032315Y0266461
Y0228961
Y0214461
X031815
X031565Y0206461
X032315
X030815
Y0211461
X030265Y0195961
Y0191961
X030315Y0185461
X030715
Y0181461
X029415
X029015
Y0185461
X029065Y0197461
X029815Y0195961
X028365Y0191961
X0268657Y0192461
Y0197461
Y0202461
Y0207461
Y0212461
Y0217461
Y0222461
Y0227461
Y0232461
Y0237461
Y0242461
Y0247461
Y0252461
Y0257461
Y0262461
Y0267461
Y0272461
Y0277461
Y0282461
Y0287461
Y0292461
X028465Y0286461
X029665Y0287961
X030115
X030565
X030165Y0279461
X029965Y0257961
Y0251961
X029715Y0247461
X029415Y0243961
X029965Y0241961
X031065Y0245961
Y0251961
Y0257961
X028815Y0264961
X028415
X028065Y0246961
X027715Y0247961
X028365Y0234461
Y0227461
X027865
Y0217461
X029015Y0222961
X029615
X028815Y0229961
X0260157Y0228961
Y0214461
X0255157
X0252658Y0206461
X0245158
Y0211461
X0260157Y0206461
Y0185961
Y0181461
X0266158
Y0185961
X027515Y0198961
X0239657Y0195961
Y0191961
X0240158Y0185461
X0244158
Y0181461
X0231157
X0227157
Y0185461
X0227658Y0197461
X0235157Y0195961
X0220657Y0191961
X0205665Y0192461
Y0197461
Y0202461
Y0207461
Y0212461
Y0217461
Y0222461
Y0227461
Y0232461
Y0237461
Y0242461
Y0247461
Y0252461
Y0257461
Y0262461
Y0267461
Y0272461
Y0277461
Y0282461
Y0287461
Y0292461
X0221657Y0286461
X0233658Y0287961
X0238158
X0242657
X0238657Y0279461
X0236658Y0257961
Y0251961
X0234157Y0247461
X0231157Y0243961
X0236658Y0241961
X0247657Y0245961
Y0251961
Y0257961
X0260157Y0266461
X0225157Y0264961
X0221158
X0217657Y0246961
X0214158Y0247961
X0220657Y0234461
Y0227461
X0215657
Y0217461
X0227157Y0222961
X0233157
X0225157Y0229961
X0197165Y0228961
Y0214461
X0192165
X0189665Y0206461
X0182165
Y0211461
X0197165Y0206461
Y0185961
Y0181461
X0203165
Y0185961
X0212158Y0198961
X0176665Y0195961
Y0191961
X0177165Y0185461
X0181165
Y0181461
X0168165
X0164165
Y0185461
X0164665Y0197461
X0172165Y0195961
X0157665Y0191961
Y0227461
Y0234461
X0162165Y0229961
X0164165Y0222961
X0170165
X0173665Y0241961
X0168165Y0243961
X0171165Y0247461
X0173665Y0251961
Y0257961
X0184665
Y0251961
Y0245961
X0197165Y0266461
X0175665Y0279461
X0175165Y0287961
X0179665
X0170665
X0158665Y0286461
X0158165Y0264961
X0162165
X0197165Y0163961
X0203165
X0260157
X0266158
X0140173
X0134173
Y0181461
Y0185961
X0140173
Y0181461
X0142673Y0192461
Y0197461
Y0202461
Y0207461
Y0212461
Y0217461
Y0222461
Y0227461
Y0232461
Y0237461
Y0242461
Y0247461
Y0252461
Y0257461
Y0262461
Y0267461
Y0272461
Y0277461
Y0282461
Y0287461
Y0292461
X0116673Y0287961
X0112173
X0107673
X0112673Y0279461
X0110673Y0257961
Y0251961
X0108173Y0247461
X0105173Y0243961
X0110673Y0241961
X0121673Y0245961
Y0251961
Y0257961
X0134173Y0266461
X0151165Y0247961
X0154665Y0246961
X0152665Y0227461
Y0217461
X0134173Y0214461
X0129173
X0126673Y0206461
X0119173
Y0211461
X0134173Y0206461
X0149165Y0198961
X0113673Y0195961
Y0191961
X0114173Y0185461
X0118173
Y0181461
X0105173
X0101173
Y0185461
X0101673Y0197461
X0109173Y0195961
X0094673Y0191961
X0079681Y0192461
Y0197461
Y0202461
Y0207461
Y0212461
Y0217461
Y0222461
Y0227461
Y0232461
Y0237461
Y0242461
Y0247461
Y0252461
Y0257461
Y0262461
Y0267461
Y0272461
Y0277461
Y0282461
Y0287461
Y0292461
X0095673Y0286461
X0095173Y0264961
X0099173
X0091673Y0246961
X0088173Y0247961
X0094673Y0234461
Y0227461
X0089673
Y0217461
X0101173Y0222961
X0107173
X0099173Y0229961
X0071181Y0228961
Y0214461
X0066181
X0063681Y0206461
X0056181
Y0211461
X0071181Y0206461
Y0185961
Y0181461
X0077181
Y0185961
X0086173Y0198961
X0050681Y0195961
Y0191961
X0051181Y0185461
X0055181
Y0181461
X0042181
X0038181
Y0185461
X0038681Y0197461
X0046181Y0195961
X0031681Y0191961
X0023181Y0198961
X0026681Y0217461
Y0227461
X0031681
Y0234461
X0036181Y0229961
X0038181Y0222961
X0044181
X0047681Y0241961
X0042181Y0243961
X0045181Y0247461
X0047681Y0251961
Y0257961
X0058681
Y0251961
Y0245961
X0028681Y0246961
X0025181Y0247961
X0032181Y0264961
X0036181
X0032681Y0286461
X0044681Y0287961
X0049181
X0053681
X0049681Y0279461
X0071181Y0266461
X0134173Y0228961
X0077181Y0163961
X0071181
T02
X0036181Y00495
X0050681Y003924
X0075181Y0044
X0099173Y00495
X0113673Y003924
X0138173Y0044
X0115673Y0092
X0099173Y0083
X0052681Y0092
X0036181Y0083
X0162165
X0178665Y0092
X0176665Y003924
X0162165Y00495
X0201165Y0044
X0225157Y00495
X0239657Y003924
X0264158Y0044
X028815Y00495
X030265Y003924
X030465Y0092
X028815Y0083
X0241657Y0092
X0225157Y0083
X032715Y0044
X031815Y0231961
Y0265461
X030365Y0275721
X027915Y0270961
X0255157Y0265461
X0240657Y0275721
X0216158Y0270961
X0192165Y0265461
X0177665Y0275721
X0175665Y0222961
X0192165Y0231961
X0238657Y0222961
X0255157Y0231961
X030165Y0222961
X0129173Y0231961
X0112673Y0222961
X0114673Y0275721
X0129173Y0265461
X0153165Y0270961
X0090173
X0066181Y0265461
X0051681Y0275721
X0027181Y0270961
X0049681Y0222961
X0066181Y0231961
T05
X0061181Y0099894
Y0109894
X0058681Y0142
X0043681
X0028681
X0075681Y0141
Y0151
Y0131
X0091673Y0142
X0106673
X0121673
X0138673Y0141
Y0151
Y0131
X0154665Y0142
X0124173Y0109894
Y0099894
X0187165
Y0109894
X0184665Y0142
X0169665
X0201665Y0141
Y0151
Y0131
X0217657Y0142
X0232658
X0247657
X0264657Y0141
Y0151
Y0131
X028065Y0142
X029565
X031065
X0250157Y0109894
Y0099894
X031315
Y0109894
X032765Y0131
Y0141
Y0151
X032565Y0172961
X031065
X029565
X027865Y0173961
Y0163961
Y0183961
X0262657Y0172961
X0247657
X0232658
X0215657Y0173961
Y0163961
Y0183961
X0199665Y0172961
X0184665
X0169665
X0167165Y0205067
Y0215067
X0230157
Y0205067
X029315
Y0215067
X0152665Y0183961
Y0173961
Y0163961
X0136673Y0172961
X0121673
X0106673
X0089673Y0173961
Y0163961
Y0183961
X0073681Y0172961
X0058681
X0043681
X0026681Y0173961
Y0163961
Y0183961
X0041181Y0205067
Y0215067
X0104173
Y0205067
T06
X0009843Y0009843
X0344488
Y0305118
X0009843
M30
