G04*
G04 #@! TF.GenerationSoftware,Altium Limited,Altium Designer,20.2.3 (150)*
G04*
G04 Layer_Color=65535*
%FSLAX25Y25*%
%MOIN*%
G70*
G04*
G04 #@! TF.SameCoordinates,EBBBD63C-4F16-4FE1-BE59-5CF438A8D42D*
G04*
G04*
G04 #@! TF.FilePolarity,Positive*
G04*
G01*
G75*
%ADD22C,0.01000*%
%ADD24C,0.00787*%
%ADD33C,0.02362*%
%ADD34C,0.00984*%
%ADD35C,0.00591*%
%ADD36C,0.00600*%
%ADD37R,0.30000X0.03173*%
%ADD38R,0.15748X0.01968*%
D22*
X363205Y325896D02*
Y321897D01*
X365204Y319898D01*
X367203Y321897D01*
Y325896D01*
X369203Y322897D02*
X373201D01*
X379200Y324896D02*
X378200Y325896D01*
X376201D01*
X375201Y324896D01*
Y320897D01*
X376201Y319898D01*
X378200D01*
X379200Y320897D01*
X381199Y325896D02*
Y320897D01*
X382199Y319898D01*
X384198D01*
X385198Y320897D01*
Y325896D01*
X387197D02*
X391196D01*
X389196D01*
Y319898D01*
D24*
X341340Y26639D02*
Y24540D01*
Y25589D01*
X346587D01*
X347637Y24540D01*
Y23491D01*
X346587Y22441D01*
X341340Y28738D02*
X347637D01*
Y32936D01*
X342389Y39233D02*
X341340Y38184D01*
Y36085D01*
X342389Y35035D01*
X346587D01*
X347637Y36085D01*
Y38184D01*
X346587Y39233D01*
X341340Y45531D02*
Y43431D01*
Y44481D01*
X346587D01*
X347637Y43431D01*
Y42382D01*
X346587Y41333D01*
X341340Y47630D02*
X347637D01*
Y51828D01*
X342389Y58125D02*
X341340Y57075D01*
Y54976D01*
X342389Y53927D01*
X346587D01*
X347637Y54976D01*
Y57075D01*
X346587Y58125D01*
X341340Y64422D02*
Y62323D01*
Y63373D01*
X346587D01*
X347637Y62323D01*
Y61273D01*
X346587Y60224D01*
X341340Y66521D02*
X347637D01*
Y70719D01*
X342389Y77016D02*
X341340Y75967D01*
Y73868D01*
X342389Y72818D01*
X346587D01*
X347637Y73868D01*
Y75967D01*
X346587Y77016D01*
X341340Y83314D02*
Y81214D01*
Y82264D01*
X346587D01*
X347637Y81214D01*
Y80165D01*
X346587Y79115D01*
X341340Y85413D02*
X347637D01*
Y89611D01*
X342389Y95908D02*
X341340Y94858D01*
Y92759D01*
X342389Y91710D01*
X346587D01*
X347637Y92759D01*
Y94858D01*
X346587Y95908D01*
X40354Y259787D02*
X62008D01*
X40354Y238134D02*
X62008D01*
X40354Y259787D02*
Y238134D01*
X62008Y259787D02*
Y238134D01*
X25181Y297461D02*
X27805D01*
X29117Y296149D01*
X27805Y294837D01*
X25181D01*
X27149D01*
Y297461D01*
X28461Y290901D02*
X29117Y291557D01*
Y292869D01*
X28461Y293525D01*
X25837D01*
X25181Y292869D01*
Y291557D01*
X25837Y290901D01*
X29117Y289589D02*
Y286965D01*
Y288277D01*
X25181D01*
X73181Y297461D02*
X77117D01*
Y295493D01*
X76461Y294837D01*
X75149D01*
X74493Y295493D01*
Y297461D01*
X77117Y293525D02*
X73181D01*
X74493Y292213D01*
X73181Y290901D01*
X77117D01*
X73181Y289589D02*
X77117D01*
Y287621D01*
X76461Y286965D01*
X75149D01*
X74493Y287621D01*
Y289589D01*
Y288277D02*
X73181Y286965D01*
X24649Y208961D02*
Y206337D01*
X22681Y205025D02*
X26617D01*
Y203057D01*
X25961Y202401D01*
X24649D01*
X23993Y203057D01*
Y205025D01*
Y203713D02*
X22681Y202401D01*
X24649Y197153D02*
Y194530D01*
X25961Y195842D02*
X23337D01*
X22681Y193218D02*
X26617D01*
Y191250D01*
X25961Y190594D01*
X24649D01*
X23993Y191250D01*
Y193218D01*
Y191906D02*
X22681Y190594D01*
X74649Y193961D02*
X70713D01*
X72681D01*
Y191337D01*
X74649D01*
X70713D01*
X43993D02*
X44649Y191993D01*
Y193305D01*
X43993Y193961D01*
X41369D01*
X40713Y193305D01*
Y191993D01*
X41369Y191337D01*
X42681D01*
Y192649D01*
X59649Y193961D02*
X55713D01*
Y191337D01*
X103347Y259787D02*
X125000D01*
X103347Y238134D02*
X125000D01*
X103347Y259787D02*
Y238134D01*
X125000Y259787D02*
Y238134D01*
X88173Y297461D02*
X90797D01*
X92109Y296149D01*
X90797Y294837D01*
X88173D01*
X90141D01*
Y297461D01*
X91453Y290901D02*
X92109Y291557D01*
Y292869D01*
X91453Y293525D01*
X88829D01*
X88173Y292869D01*
Y291557D01*
X88829Y290901D01*
X92109Y289589D02*
Y286965D01*
Y288277D01*
X88173D01*
X136173Y297461D02*
X140109D01*
Y295493D01*
X139453Y294837D01*
X138141D01*
X137485Y295493D01*
Y297461D01*
X140109Y293525D02*
X136173D01*
X137485Y292213D01*
X136173Y290901D01*
X140109D01*
X136173Y289589D02*
X140109D01*
Y287621D01*
X139453Y286965D01*
X138141D01*
X137485Y287621D01*
Y289589D01*
Y288277D02*
X136173Y286965D01*
X87641Y208961D02*
Y206337D01*
X85673Y205025D02*
X89609D01*
Y203057D01*
X88953Y202401D01*
X87641D01*
X86985Y203057D01*
Y205025D01*
Y203713D02*
X85673Y202401D01*
X87641Y197153D02*
Y194530D01*
X88953Y195842D02*
X86329D01*
X85673Y193218D02*
X89609D01*
Y191250D01*
X88953Y190594D01*
X87641D01*
X86985Y191250D01*
Y193218D01*
Y191906D02*
X85673Y190594D01*
X137641Y193961D02*
X133705D01*
X135673D01*
Y191337D01*
X137641D01*
X133705D01*
X106985D02*
X107641Y191993D01*
Y193305D01*
X106985Y193961D01*
X104361D01*
X103705Y193305D01*
Y191993D01*
X104361Y191337D01*
X105673D01*
Y192649D01*
X122641Y193961D02*
X118705D01*
Y191337D01*
X166339Y259787D02*
X187992D01*
X166339Y238134D02*
X187992D01*
X166339Y259787D02*
Y238134D01*
X187992Y259787D02*
Y238134D01*
X151165Y297461D02*
X153789D01*
X155101Y296149D01*
X153789Y294837D01*
X151165D01*
X153133D01*
Y297461D01*
X154445Y290901D02*
X155101Y291557D01*
Y292869D01*
X154445Y293525D01*
X151821D01*
X151165Y292869D01*
Y291557D01*
X151821Y290901D01*
X155101Y289589D02*
Y286965D01*
Y288277D01*
X151165D01*
X199165Y297461D02*
X203101D01*
Y295493D01*
X202445Y294837D01*
X201133D01*
X200477Y295493D01*
Y297461D01*
X203101Y293525D02*
X199165D01*
X200477Y292213D01*
X199165Y290901D01*
X203101D01*
X199165Y289589D02*
X203101D01*
Y287621D01*
X202445Y286965D01*
X201133D01*
X200477Y287621D01*
Y289589D01*
Y288277D02*
X199165Y286965D01*
X150633Y208961D02*
Y206337D01*
X148665Y205025D02*
X152601D01*
Y203057D01*
X151945Y202401D01*
X150633D01*
X149977Y203057D01*
Y205025D01*
Y203713D02*
X148665Y202401D01*
X150633Y197153D02*
Y194530D01*
X151945Y195842D02*
X149321D01*
X148665Y193218D02*
X152601D01*
Y191250D01*
X151945Y190594D01*
X150633D01*
X149977Y191250D01*
Y193218D01*
Y191906D02*
X148665Y190594D01*
X200633Y193961D02*
X196697D01*
X198665D01*
Y191337D01*
X200633D01*
X196697D01*
X169977D02*
X170633Y191993D01*
Y193305D01*
X169977Y193961D01*
X167353D01*
X166698Y193305D01*
Y191993D01*
X167353Y191337D01*
X168665D01*
Y192649D01*
X185633Y193961D02*
X181697D01*
Y191337D01*
X229331Y259787D02*
X250984D01*
X229331Y238134D02*
X250984D01*
X229331Y259787D02*
Y238134D01*
X250984Y259787D02*
Y238134D01*
X214158Y297461D02*
X216781D01*
X218093Y296149D01*
X216781Y294837D01*
X214158D01*
X216125D01*
Y297461D01*
X217437Y290901D02*
X218093Y291557D01*
Y292869D01*
X217437Y293525D01*
X214813D01*
X214158Y292869D01*
Y291557D01*
X214813Y290901D01*
X218093Y289589D02*
Y286965D01*
Y288277D01*
X214158D01*
X262158Y297461D02*
X266093D01*
Y295493D01*
X265437Y294837D01*
X264125D01*
X263469Y295493D01*
Y297461D01*
X266093Y293525D02*
X262158D01*
X263469Y292213D01*
X262158Y290901D01*
X266093D01*
X262158Y289589D02*
X266093D01*
Y287621D01*
X265437Y286965D01*
X264125D01*
X263469Y287621D01*
Y289589D01*
Y288277D02*
X262158Y286965D01*
X213625Y208961D02*
Y206337D01*
X211658Y205025D02*
X215593D01*
Y203057D01*
X214937Y202401D01*
X213625D01*
X212969Y203057D01*
Y205025D01*
Y203713D02*
X211658Y202401D01*
X213625Y197153D02*
Y194530D01*
X214937Y195842D02*
X212313D01*
X211658Y193218D02*
X215593D01*
Y191250D01*
X214937Y190594D01*
X213625D01*
X212969Y191250D01*
Y193218D01*
Y191906D02*
X211658Y190594D01*
X263625Y193961D02*
X259690D01*
X261658D01*
Y191337D01*
X263625D01*
X259690D01*
X232969D02*
X233625Y191993D01*
Y193305D01*
X232969Y193961D01*
X230346D01*
X229690Y193305D01*
Y191993D01*
X230346Y191337D01*
X231658D01*
Y192649D01*
X248625Y193961D02*
X244690D01*
Y191337D01*
X292323Y259787D02*
X313976D01*
X292323Y238134D02*
X313976D01*
X292323Y259787D02*
Y238134D01*
X313976Y259787D02*
Y238134D01*
X277150Y297461D02*
X279773D01*
X281085Y296149D01*
X279773Y294837D01*
X277150D01*
X279117D01*
Y297461D01*
X280429Y290901D02*
X281085Y291557D01*
Y292869D01*
X280429Y293525D01*
X277805D01*
X277150Y292869D01*
Y291557D01*
X277805Y290901D01*
X281085Y289589D02*
Y286965D01*
Y288277D01*
X277150D01*
X325150Y297461D02*
X329085D01*
Y295493D01*
X328429Y294837D01*
X327117D01*
X326462Y295493D01*
Y297461D01*
X329085Y293525D02*
X325150D01*
X326462Y292213D01*
X325150Y290901D01*
X329085D01*
X325150Y289589D02*
X329085D01*
Y287621D01*
X328429Y286965D01*
X327117D01*
X326462Y287621D01*
Y289589D01*
Y288277D02*
X325150Y286965D01*
X276618Y208961D02*
Y206337D01*
X274650Y205025D02*
X278585D01*
Y203057D01*
X277929Y202401D01*
X276618D01*
X275961Y203057D01*
Y205025D01*
Y203713D02*
X274650Y202401D01*
X276618Y197153D02*
Y194530D01*
X277929Y195842D02*
X275306D01*
X274650Y193218D02*
X278585D01*
Y191250D01*
X277929Y190594D01*
X276618D01*
X275961Y191250D01*
Y193218D01*
Y191906D02*
X274650Y190594D01*
X326618Y193961D02*
X322682D01*
X324650D01*
Y191337D01*
X326618D01*
X322682D01*
X295961D02*
X296618Y191993D01*
Y193305D01*
X295961Y193961D01*
X293338D01*
X292682Y193305D01*
Y191993D01*
X293338Y191337D01*
X294650D01*
Y192649D01*
X311617Y193961D02*
X307682D01*
Y191337D01*
X313976Y55173D02*
X292323D01*
X313976Y76827D02*
X292323D01*
X313976Y55173D02*
Y76827D01*
X292323Y55173D02*
Y76827D01*
X329150Y17500D02*
X326526D01*
X325214Y18812D01*
X326526Y20124D01*
X329150D01*
X327182D01*
Y17500D01*
X325870Y24060D02*
X325214Y23404D01*
Y22092D01*
X325870Y21436D01*
X328494D01*
X329150Y22092D01*
Y23404D01*
X328494Y24060D01*
X325214Y25372D02*
Y27995D01*
Y26683D01*
X329150D01*
X281150Y17500D02*
X277214D01*
Y19468D01*
X277870Y20124D01*
X279182D01*
X279838Y19468D01*
Y17500D01*
X277214Y21436D02*
X281150D01*
X279838Y22748D01*
X281150Y24060D01*
X277214D01*
X281150Y25372D02*
X277214D01*
Y27339D01*
X277870Y27995D01*
X279182D01*
X279838Y27339D01*
Y25372D01*
Y26683D02*
X281150Y27995D01*
X329682Y106000D02*
Y108624D01*
X331650Y109936D02*
X327714D01*
Y111904D01*
X328370Y112560D01*
X329682D01*
X330338Y111904D01*
Y109936D01*
Y111248D02*
X331650Y112560D01*
X329682Y117807D02*
Y120431D01*
X328370Y119119D02*
X330994D01*
X331650Y121743D02*
X327714D01*
Y123711D01*
X328370Y124367D01*
X329682D01*
X330338Y123711D01*
Y121743D01*
Y123055D02*
X331650Y124367D01*
X279682Y121000D02*
X283617D01*
X281650D01*
Y123624D01*
X279682D01*
X283617D01*
X310338D02*
X309682Y122968D01*
Y121656D01*
X310338Y121000D01*
X312962D01*
X313617Y121656D01*
Y122968D01*
X312962Y123624D01*
X311650D01*
Y122312D01*
X294682Y121000D02*
X298618D01*
Y123624D01*
X250984Y55173D02*
X229331D01*
X250984Y76827D02*
X229331D01*
X250984Y55173D02*
Y76827D01*
X229331Y55173D02*
Y76827D01*
X266158Y17500D02*
X263534D01*
X262222Y18812D01*
X263534Y20124D01*
X266158D01*
X264190D01*
Y17500D01*
X262878Y24060D02*
X262222Y23404D01*
Y22092D01*
X262878Y21436D01*
X265501D01*
X266158Y22092D01*
Y23404D01*
X265501Y24060D01*
X262222Y25372D02*
Y27995D01*
Y26683D01*
X266158D01*
X218158Y17500D02*
X214222D01*
Y19468D01*
X214878Y20124D01*
X216190D01*
X216846Y19468D01*
Y17500D01*
X214222Y21436D02*
X218158D01*
X216846Y22748D01*
X218158Y24060D01*
X214222D01*
X218158Y25372D02*
X214222D01*
Y27339D01*
X214878Y27995D01*
X216190D01*
X216846Y27339D01*
Y25372D01*
Y26683D02*
X218158Y27995D01*
X266690Y106000D02*
Y108624D01*
X268657Y109936D02*
X264722D01*
Y111904D01*
X265378Y112560D01*
X266690D01*
X267346Y111904D01*
Y109936D01*
Y111248D02*
X268657Y112560D01*
X266690Y117807D02*
Y120431D01*
X265378Y119119D02*
X268002D01*
X268657Y121743D02*
X264722D01*
Y123711D01*
X265378Y124367D01*
X266690D01*
X267346Y123711D01*
Y121743D01*
Y123055D02*
X268657Y124367D01*
X216690Y121000D02*
X220625D01*
X218657D01*
Y123624D01*
X216690D01*
X220625D01*
X247346D02*
X246690Y122968D01*
Y121656D01*
X247346Y121000D01*
X249969D01*
X250625Y121656D01*
Y122968D01*
X249969Y123624D01*
X248657D01*
Y122312D01*
X231690Y121000D02*
X235625D01*
Y123624D01*
X187992Y55173D02*
X166339D01*
X187992Y76827D02*
X166339D01*
X187992Y55173D02*
Y76827D01*
X166339Y55173D02*
Y76827D01*
X203165Y17500D02*
X200541D01*
X199230Y18812D01*
X200541Y20124D01*
X203165D01*
X201198D01*
Y17500D01*
X199886Y24060D02*
X199230Y23404D01*
Y22092D01*
X199886Y21436D01*
X202509D01*
X203165Y22092D01*
Y23404D01*
X202509Y24060D01*
X199230Y25372D02*
Y27995D01*
Y26683D01*
X203165D01*
X155165Y17500D02*
X151230D01*
Y19468D01*
X151886Y20124D01*
X153198D01*
X153853Y19468D01*
Y17500D01*
X151230Y21436D02*
X155165D01*
X153853Y22748D01*
X155165Y24060D01*
X151230D01*
X155165Y25372D02*
X151230D01*
Y27339D01*
X151886Y27995D01*
X153198D01*
X153853Y27339D01*
Y25372D01*
Y26683D02*
X155165Y27995D01*
X203697Y106000D02*
Y108624D01*
X205665Y109936D02*
X201730D01*
Y111904D01*
X202386Y112560D01*
X203697D01*
X204353Y111904D01*
Y109936D01*
Y111248D02*
X205665Y112560D01*
X203697Y117807D02*
Y120431D01*
X202386Y119119D02*
X205009D01*
X205665Y121743D02*
X201730D01*
Y123711D01*
X202386Y124367D01*
X203697D01*
X204353Y123711D01*
Y121743D01*
Y123055D02*
X205665Y124367D01*
X153698Y121000D02*
X157633D01*
X155665D01*
Y123624D01*
X153698D01*
X157633D01*
X184353D02*
X183697Y122968D01*
Y121656D01*
X184353Y121000D01*
X186977D01*
X187633Y121656D01*
Y122968D01*
X186977Y123624D01*
X185665D01*
Y122312D01*
X168698Y121000D02*
X172633D01*
Y123624D01*
X125000Y55173D02*
X103347D01*
X125000Y76827D02*
X103347D01*
X125000Y55173D02*
Y76827D01*
X103347Y55173D02*
Y76827D01*
X140173Y17500D02*
X137549D01*
X136238Y18812D01*
X137549Y20124D01*
X140173D01*
X138205D01*
Y17500D01*
X136893Y24060D02*
X136238Y23404D01*
Y22092D01*
X136893Y21436D01*
X139517D01*
X140173Y22092D01*
Y23404D01*
X139517Y24060D01*
X136238Y25372D02*
Y27995D01*
Y26683D01*
X140173D01*
X92173Y17500D02*
X88238D01*
Y19468D01*
X88893Y20124D01*
X90205D01*
X90861Y19468D01*
Y17500D01*
X88238Y21436D02*
X92173D01*
X90861Y22748D01*
X92173Y24060D01*
X88238D01*
X92173Y25372D02*
X88238D01*
Y27339D01*
X88893Y27995D01*
X90205D01*
X90861Y27339D01*
Y25372D01*
Y26683D02*
X92173Y27995D01*
X140705Y106000D02*
Y108624D01*
X142673Y109936D02*
X138737D01*
Y111904D01*
X139393Y112560D01*
X140705D01*
X141361Y111904D01*
Y109936D01*
Y111248D02*
X142673Y112560D01*
X140705Y117807D02*
Y120431D01*
X139393Y119119D02*
X142017D01*
X142673Y121743D02*
X138737D01*
Y123711D01*
X139393Y124367D01*
X140705D01*
X141361Y123711D01*
Y121743D01*
Y123055D02*
X142673Y124367D01*
X90705Y121000D02*
X94641D01*
X92673D01*
Y123624D01*
X90705D01*
X94641D01*
X121361D02*
X120705Y122968D01*
Y121656D01*
X121361Y121000D01*
X123985D01*
X124641Y121656D01*
Y122968D01*
X123985Y123624D01*
X122673D01*
Y122312D01*
X105705Y121000D02*
X109641D01*
Y123624D01*
X62008Y55173D02*
X40354D01*
X62008Y76827D02*
X40354D01*
X62008Y55173D02*
Y76827D01*
X40354Y55173D02*
Y76827D01*
X77181Y17500D02*
X74557D01*
X73245Y18812D01*
X74557Y20124D01*
X77181D01*
X75213D01*
Y17500D01*
X73901Y24060D02*
X73245Y23404D01*
Y22092D01*
X73901Y21436D01*
X76525D01*
X77181Y22092D01*
Y23404D01*
X76525Y24060D01*
X73245Y25372D02*
Y27995D01*
Y26683D01*
X77181D01*
X29181Y17500D02*
X25245D01*
Y19468D01*
X25901Y20124D01*
X27213D01*
X27869Y19468D01*
Y17500D01*
X25245Y21436D02*
X29181D01*
X27869Y22748D01*
X29181Y24060D01*
X25245D01*
X29181Y25372D02*
X25245D01*
Y27339D01*
X25901Y27995D01*
X27213D01*
X27869Y27339D01*
Y25372D01*
Y26683D02*
X29181Y27995D01*
X77713Y106000D02*
Y108624D01*
X79681Y109936D02*
X75745D01*
Y111904D01*
X76401Y112560D01*
X77713D01*
X78369Y111904D01*
Y109936D01*
Y111248D02*
X79681Y112560D01*
X77713Y117807D02*
Y120431D01*
X76401Y119119D02*
X79025D01*
X79681Y121743D02*
X75745D01*
Y123711D01*
X76401Y124367D01*
X77713D01*
X78369Y123711D01*
Y121743D01*
Y123055D02*
X79681Y124367D01*
X27713Y121000D02*
X31649D01*
X29681D01*
Y123624D01*
X27713D01*
X31649D01*
X58369D02*
X57713Y122968D01*
Y121656D01*
X58369Y121000D01*
X60993D01*
X61649Y121656D01*
Y122968D01*
X60993Y123624D01*
X59681D01*
Y122312D01*
X42713Y121000D02*
X46649D01*
Y123624D01*
X330709Y-0D02*
G03*
X334646Y3937I0J3937D01*
G01*
X271654Y3937D02*
G03*
X275590Y0I3937J0D01*
G01*
X267717Y-0D02*
G03*
X271654Y3937I0J3937D01*
G01*
X208661Y3937D02*
G03*
X212598Y0I3937J0D01*
G01*
X204724Y-0D02*
G03*
X208661Y3937I0J3937D01*
G01*
X145669Y3937D02*
G03*
X149606Y0I3937J0D01*
G01*
X141732Y-0D02*
G03*
X145669Y3937I0J3937D01*
G01*
X82677Y3937D02*
G03*
X86614Y0I3937J0D01*
G01*
X78740Y-0D02*
G03*
X82677Y3937I0J3937D01*
G01*
X19685Y3937D02*
G03*
X23622Y0I3937J0D01*
G01*
X23622Y157480D02*
G03*
X19685Y153543I0J-3937D01*
G01*
X82677D02*
G03*
X78740Y157480I-3937J0D01*
G01*
X86614D02*
G03*
X82677Y153543I0J-3937D01*
G01*
X145669D02*
G03*
X141732Y157480I-3937J0D01*
G01*
X149606D02*
G03*
X145669Y153543I0J-3937D01*
G01*
X208661D02*
G03*
X204724Y157480I-3937J0D01*
G01*
X212598D02*
G03*
X208661Y153543I0J-3937D01*
G01*
X271654D02*
G03*
X267717Y157480I-3937J0D01*
G01*
X275590D02*
G03*
X271654Y153543I0J-3937D01*
G01*
X334646D02*
G03*
X330709Y157480I-3937J0D01*
G01*
X330709Y157480D02*
G03*
X334646Y161417I0J3937D01*
G01*
X271654Y161417D02*
G03*
X275590Y157480I3937J0D01*
G01*
X267717Y157480D02*
G03*
X271654Y161417I0J3937D01*
G01*
X208661Y161417D02*
G03*
X212598Y157480I3937J0D01*
G01*
X204724Y157480D02*
G03*
X208661Y161417I0J3937D01*
G01*
X145669Y161417D02*
G03*
X149606Y157480I3937J0D01*
G01*
X141732Y157480D02*
G03*
X145669Y161417I0J3937D01*
G01*
X82677Y161417D02*
G03*
X86614Y157480I3937J0D01*
G01*
X78740Y157480D02*
G03*
X82677Y161417I0J3937D01*
G01*
X19685Y161417D02*
G03*
X23622Y157480I3937J0D01*
G01*
X334646Y311024D02*
G03*
X330709Y314961I-3937J0D01*
G01*
X275590D02*
G03*
X271654Y311024I0J-3937D01*
G01*
X271654D02*
G03*
X267717Y314961I-3937J0D01*
G01*
X212598D02*
G03*
X208661Y311024I0J-3937D01*
G01*
X208661D02*
G03*
X204724Y314961I-3937J0D01*
G01*
X149606D02*
G03*
X145669Y311024I0J-3937D01*
G01*
X145669D02*
G03*
X141732Y314961I-3937J0D01*
G01*
X86614D02*
G03*
X82677Y311024I0J-3937D01*
G01*
X82677D02*
G03*
X78740Y314961I-3937J0D01*
G01*
X23622D02*
G03*
X19685Y311024I0J-3937D01*
G01*
Y3928D02*
Y311024D01*
X334646Y3937D02*
Y311024D01*
X334646Y311024D02*
Y314961D01*
X275590Y0D02*
X330709D01*
X334646D02*
Y3937D01*
X19685Y0D02*
Y3937D01*
X334646Y314961D02*
X354331D01*
X334646Y314961D02*
X334646Y314961D01*
X275584Y157480D02*
X330717D01*
X271654Y311024D02*
X271654Y161417D01*
X212598Y157480D02*
X267725D01*
X271654Y3937D02*
Y153543D01*
X208661Y3928D02*
Y153552D01*
X149600Y157480D02*
X204733D01*
X208661Y311024D02*
X208661Y161417D01*
X145669Y311024D02*
X145669Y161417D01*
X86614Y157480D02*
X141732D01*
X145669Y3937D02*
Y153543D01*
X23616Y157480D02*
X78749D01*
X82677Y3937D02*
Y153543D01*
X82677Y311024D02*
X82677Y161417D01*
X208661Y3937D02*
X208661Y3937D01*
X271654Y311024D02*
X271654Y311024D01*
X271654Y161417D02*
X271654Y161417D01*
X145669Y161417D02*
X145669Y161417D01*
X275590Y314961D02*
X330709D01*
X212598D02*
X267717D01*
X149606D02*
X204724D01*
X86614D02*
X141732D01*
X23622D02*
X78740D01*
X334646Y0D02*
X354331D01*
X212598D02*
X267717D01*
X149606D02*
X204724D01*
X86614D02*
X141732D01*
X23622D02*
X78740D01*
X0D02*
X19685D01*
Y311024D02*
Y314961D01*
X0D02*
X19685D01*
X354331D02*
X354331Y0D01*
X-0Y314961D02*
X0Y0D01*
D33*
X58071Y240890D02*
G03*
X58071Y240890I0J1181D01*
G01*
X121063D02*
G03*
X121063Y240890I0J1181D01*
G01*
X184055D02*
G03*
X184055Y240890I0J1181D01*
G01*
X247047D02*
G03*
X247047Y240890I0J1181D01*
G01*
X310039D02*
G03*
X310039Y240890I0J1181D01*
G01*
X296260Y74071D02*
G03*
X296260Y74071I0J-1181D01*
G01*
X233268D02*
G03*
X233268Y74071I0J-1181D01*
G01*
X170276D02*
G03*
X170276Y74071I0J-1181D01*
G01*
X107283D02*
G03*
X107283Y74071I0J-1181D01*
G01*
X44291D02*
G03*
X44291Y74071I0J-1181D01*
G01*
D34*
X67126Y234886D02*
G03*
X67126Y234886I0J492D01*
G01*
X74528Y220697D02*
G03*
X74528Y220697I0J492D01*
G01*
X130118Y234886D02*
G03*
X130118Y234886I0J492D01*
G01*
X137520Y220697D02*
G03*
X137520Y220697I0J492D01*
G01*
X193110Y234886D02*
G03*
X193110Y234886I0J492D01*
G01*
X200512Y220697D02*
G03*
X200512Y220697I0J492D01*
G01*
X256102Y234886D02*
G03*
X256102Y234886I0J492D01*
G01*
X263504Y220697D02*
G03*
X263504Y220697I0J492D01*
G01*
X319094Y234886D02*
G03*
X319094Y234886I0J492D01*
G01*
X326496Y220697D02*
G03*
X326496Y220697I0J492D01*
G01*
X287205Y80075D02*
G03*
X287205Y80075I0J-492D01*
G01*
X279803Y94264D02*
G03*
X279803Y94264I0J-492D01*
G01*
X224213Y80075D02*
G03*
X224213Y80075I0J-492D01*
G01*
X216811Y94264D02*
G03*
X216811Y94264I0J-492D01*
G01*
X161221Y80075D02*
G03*
X161221Y80075I0J-492D01*
G01*
X153819Y94264D02*
G03*
X153819Y94264I0J-492D01*
G01*
X98228Y80075D02*
G03*
X98228Y80075I0J-492D01*
G01*
X90827Y94264D02*
G03*
X90827Y94264I0J-492D01*
G01*
X35236Y80075D02*
G03*
X35236Y80075I0J-492D01*
G01*
X27835Y94264D02*
G03*
X27835Y94264I0J-492D01*
G01*
D35*
X41260Y220697D02*
G03*
X36260Y215697I0J-5000D01*
G01*
X46299D02*
G03*
X41299Y220697I-5000J0D01*
G01*
X36260Y205224D02*
G03*
X41260Y200224I5000J0D01*
G01*
X41299D02*
G03*
X46299Y205224I0J5000D01*
G01*
X36909Y294697D02*
X38701D01*
X63661D02*
X65453D01*
X65453Y301902D02*
X65453Y294697D01*
X65453Y314382D02*
Y310760D01*
X36909Y314382D02*
Y310760D01*
Y301902D02*
Y294697D01*
X46299Y215697D02*
Y205224D01*
X41260Y200224D02*
X41299D01*
X36260Y215697D02*
Y205224D01*
X104252Y220697D02*
G03*
X99252Y215697I0J-5000D01*
G01*
X109291D02*
G03*
X104291Y220697I-5000J0D01*
G01*
X99252Y205224D02*
G03*
X104252Y200224I5000J0D01*
G01*
X104291D02*
G03*
X109291Y205224I0J5000D01*
G01*
X99902Y294697D02*
X101693D01*
X126654D02*
X128445D01*
X128445Y301902D02*
X128445Y294697D01*
X128445Y314382D02*
Y310760D01*
X99902Y314382D02*
Y310760D01*
Y301902D02*
Y294697D01*
X109291Y215697D02*
Y205224D01*
X104252Y200224D02*
X104291D01*
X99252Y215697D02*
Y205224D01*
X167244Y220697D02*
G03*
X162244Y215697I0J-5000D01*
G01*
X172283D02*
G03*
X167283Y220697I-5000J0D01*
G01*
X162244Y205224D02*
G03*
X167244Y200224I5000J0D01*
G01*
X167283D02*
G03*
X172283Y205224I0J5000D01*
G01*
X162894Y294697D02*
X164685D01*
X189646D02*
X191437D01*
X191437Y301902D02*
X191437Y294697D01*
X191437Y314382D02*
Y310760D01*
X162894Y314382D02*
Y310760D01*
Y301902D02*
Y294697D01*
X172283Y215697D02*
Y205224D01*
X167244Y200224D02*
X167283D01*
X162244Y215697D02*
Y205224D01*
X230236Y220697D02*
G03*
X225236Y215697I0J-5000D01*
G01*
X235276D02*
G03*
X230276Y220697I-5000J0D01*
G01*
X225236Y205224D02*
G03*
X230236Y200224I5000J0D01*
G01*
X230276D02*
G03*
X235276Y205224I0J5000D01*
G01*
X225886Y294697D02*
X227677D01*
X252638D02*
X254429D01*
X254429Y301902D02*
X254429Y294697D01*
X254429Y314382D02*
Y310760D01*
X225886Y314382D02*
Y310760D01*
Y301902D02*
Y294697D01*
X235276Y215697D02*
Y205224D01*
X230236Y200224D02*
X230276D01*
X225236Y215697D02*
Y205224D01*
X293228Y220697D02*
G03*
X288228Y215697I0J-5000D01*
G01*
X298268D02*
G03*
X293268Y220697I-5000J0D01*
G01*
X288228Y205224D02*
G03*
X293228Y200224I5000J0D01*
G01*
X293268D02*
G03*
X298268Y205224I0J5000D01*
G01*
X288878Y294697D02*
X290669D01*
X315630D02*
X317421D01*
X317421Y301902D02*
X317421Y294697D01*
X317421Y314382D02*
Y310760D01*
X288878Y314382D02*
Y310760D01*
Y301902D02*
Y294697D01*
X298268Y215697D02*
Y205224D01*
X293228Y200224D02*
X293268D01*
X288228Y215697D02*
Y205224D01*
X313071Y94264D02*
G03*
X318071Y99264I0J5000D01*
G01*
X308032D02*
G03*
X313032Y94264I5000J0D01*
G01*
X318071Y109736D02*
G03*
X313071Y114736I-5000J0D01*
G01*
X313032D02*
G03*
X308032Y109736I0J-5000D01*
G01*
X317421Y20264D02*
X315630D01*
X290669D02*
X288878D01*
X288878Y13059D02*
X288878Y20264D01*
X288878Y579D02*
Y4201D01*
X317421Y579D02*
Y4201D01*
Y13059D02*
Y20264D01*
X308032Y99264D02*
Y109736D01*
X313071Y114736D02*
X313032D01*
X318071Y99264D02*
Y109736D01*
X250079Y94264D02*
G03*
X255079Y99264I0J5000D01*
G01*
X245039D02*
G03*
X250039Y94264I5000J0D01*
G01*
X255079Y109736D02*
G03*
X250079Y114736I-5000J0D01*
G01*
X250039D02*
G03*
X245039Y109736I0J-5000D01*
G01*
X254429Y20264D02*
X252638D01*
X227677D02*
X225886D01*
X225886Y13059D02*
X225886Y20264D01*
X225886Y579D02*
Y4201D01*
X254429Y579D02*
Y4201D01*
Y13059D02*
Y20264D01*
X245039Y99264D02*
Y109736D01*
X250079Y114736D02*
X250039D01*
X255079Y99264D02*
Y109736D01*
X187087Y94264D02*
G03*
X192087Y99264I0J5000D01*
G01*
X182047D02*
G03*
X187047Y94264I5000J0D01*
G01*
X192087Y109736D02*
G03*
X187087Y114736I-5000J0D01*
G01*
X187047D02*
G03*
X182047Y109736I0J-5000D01*
G01*
X191437Y20264D02*
X189646D01*
X164685D02*
X162894D01*
X162894Y13059D02*
X162894Y20264D01*
X162894Y579D02*
Y4201D01*
X191437Y579D02*
Y4201D01*
Y13059D02*
Y20264D01*
X182047Y99264D02*
Y109736D01*
X187087Y114736D02*
X187047D01*
X192087Y99264D02*
Y109736D01*
X124094Y94264D02*
G03*
X129095Y99264I0J5000D01*
G01*
X119055D02*
G03*
X124055Y94264I5000J0D01*
G01*
X129095Y109736D02*
G03*
X124094Y114736I-5000J0D01*
G01*
X124055D02*
G03*
X119055Y109736I0J-5000D01*
G01*
X128445Y20264D02*
X126654D01*
X101693D02*
X99902D01*
X99902Y13059D02*
X99902Y20264D01*
X99902Y579D02*
Y4201D01*
X128445Y579D02*
Y4201D01*
Y13059D02*
Y20264D01*
X119055Y99264D02*
Y109736D01*
X124094Y114736D02*
X124055D01*
X129095Y99264D02*
Y109736D01*
X61102Y94264D02*
G03*
X66102Y99264I0J5000D01*
G01*
X56063D02*
G03*
X61063Y94264I5000J0D01*
G01*
X66102Y109736D02*
G03*
X61102Y114736I-5000J0D01*
G01*
X61063D02*
G03*
X56063Y109736I0J-5000D01*
G01*
X65453Y20264D02*
X63661D01*
X38701D02*
X36909D01*
X36909Y13059D02*
X36909Y20264D01*
X36909Y579D02*
Y4201D01*
X65453Y579D02*
Y4201D01*
Y13059D02*
Y20264D01*
X56063Y99264D02*
Y109736D01*
X61102Y114736D02*
X61063D01*
X66102Y99264D02*
Y109736D01*
D36*
X49705Y285563D02*
X52756D01*
X49803Y273358D02*
X57579D01*
X53839Y216760D02*
Y204161D01*
X73524Y216760D02*
Y204161D01*
X53839D02*
X73524D01*
X53839Y216760D02*
X73524D01*
X61181Y280967D02*
Y278967D01*
X65181Y280967D02*
Y278967D01*
X30081Y203061D02*
Y201861D01*
X33281Y203061D02*
Y201861D01*
Y219061D02*
Y217861D01*
X30081Y219061D02*
Y217861D01*
X25581Y279667D02*
Y278467D01*
X28781Y279667D02*
Y278467D01*
X76781Y279667D02*
Y278467D01*
X73581Y279667D02*
Y278467D01*
X73803Y311555D02*
X76559D01*
X72524Y303189D02*
Y298858D01*
X77839Y303189D02*
Y298858D01*
X72524D02*
X77839D01*
X72524Y310276D02*
Y306732D01*
X77839Y310276D02*
Y306732D01*
X77051Y311063D02*
X77839Y310276D01*
X76559Y311555D02*
X77150Y310965D01*
X73803Y311555D02*
X73114Y310866D01*
X73311Y311063D02*
X77051D01*
X73311D02*
X72524Y310276D01*
X25803Y311555D02*
X28559D01*
X24524Y303189D02*
Y298858D01*
X29839Y303189D02*
Y298858D01*
X24524D02*
X29839D01*
X24524Y310276D02*
Y306732D01*
X29839Y310276D02*
Y306732D01*
X29051Y311063D02*
X29839Y310276D01*
X28559Y311555D02*
X29150Y310965D01*
X25803Y311555D02*
X25114Y310866D01*
X25311Y311063D02*
X29051D01*
X25311D02*
X24524Y310276D01*
X36181Y158787D02*
X81181D01*
X36181Y187921D02*
X81181D01*
Y158787D01*
X36181Y187921D02*
Y158787D01*
X36909Y314382D02*
X65453D01*
X21181Y188961D02*
Y158961D01*
X32181Y188961D02*
Y158961D01*
X21181Y188961D02*
X32181D01*
X21181Y158961D02*
X32181D01*
X112697Y285563D02*
X115748D01*
X112795Y273358D02*
X120571D01*
X116831Y216760D02*
Y204161D01*
X136516Y216760D02*
Y204161D01*
X116831D02*
X136516D01*
X116831Y216760D02*
X136516D01*
X124173Y280967D02*
Y278967D01*
X128173Y280967D02*
Y278967D01*
X93073Y203061D02*
Y201861D01*
X96273Y203061D02*
Y201861D01*
Y219061D02*
Y217861D01*
X93073Y219061D02*
Y217861D01*
X88573Y279667D02*
Y278467D01*
X91773Y279667D02*
Y278467D01*
X139773Y279667D02*
Y278467D01*
X136573Y279667D02*
Y278467D01*
X136795Y311555D02*
X139551D01*
X135516Y303189D02*
Y298858D01*
X140831Y303189D02*
Y298858D01*
X135516D02*
X140831D01*
X135516Y310276D02*
Y306732D01*
X140831Y310276D02*
Y306732D01*
X140043Y311063D02*
X140831Y310276D01*
X139551Y311555D02*
X140142Y310965D01*
X136795Y311555D02*
X136106Y310866D01*
X136303Y311063D02*
X140043D01*
X136303D02*
X135516Y310276D01*
X88795Y311555D02*
X91551D01*
X87516Y303189D02*
Y298858D01*
X92831Y303189D02*
Y298858D01*
X87516D02*
X92831D01*
X87516Y310276D02*
Y306732D01*
X92831Y310276D02*
Y306732D01*
X92043Y311063D02*
X92831Y310276D01*
X91551Y311555D02*
X92142Y310965D01*
X88795Y311555D02*
X88106Y310866D01*
X88303Y311063D02*
X92043D01*
X88303D02*
X87516Y310276D01*
X99173Y158787D02*
X144173D01*
X99173Y187921D02*
X144173D01*
Y158787D01*
X99173Y187921D02*
Y158787D01*
X99902Y314382D02*
X128445D01*
X84173Y188961D02*
Y158961D01*
X95173Y188961D02*
Y158961D01*
X84173Y188961D02*
X95173D01*
X84173Y158961D02*
X95173D01*
X175689Y285563D02*
X178740D01*
X175787Y273358D02*
X183563D01*
X179823Y216760D02*
Y204161D01*
X199508Y216760D02*
Y204161D01*
X179823D02*
X199508D01*
X179823Y216760D02*
X199508D01*
X187165Y280967D02*
Y278967D01*
X191165Y280967D02*
Y278967D01*
X156065Y203061D02*
Y201861D01*
X159265Y203061D02*
Y201861D01*
Y219061D02*
Y217861D01*
X156065Y219061D02*
Y217861D01*
X151565Y279667D02*
Y278467D01*
X154765Y279667D02*
Y278467D01*
X202765Y279667D02*
Y278467D01*
X199565Y279667D02*
Y278467D01*
X199787Y311555D02*
X202543D01*
X198508Y303189D02*
Y298858D01*
X203823Y303189D02*
Y298858D01*
X198508D02*
X203823D01*
X198508Y310276D02*
Y306732D01*
X203823Y310276D02*
Y306732D01*
X203035Y311063D02*
X203823Y310276D01*
X202543Y311555D02*
X203134Y310965D01*
X199787Y311555D02*
X199098Y310866D01*
X199295Y311063D02*
X203035D01*
X199295D02*
X198508Y310276D01*
X151787Y311555D02*
X154543D01*
X150508Y303189D02*
Y298858D01*
X155823Y303189D02*
Y298858D01*
X150508D02*
X155823D01*
X150508Y310276D02*
Y306732D01*
X155823Y310276D02*
Y306732D01*
X155035Y311063D02*
X155823Y310276D01*
X154543Y311555D02*
X155134Y310965D01*
X151787Y311555D02*
X151098Y310866D01*
X151295Y311063D02*
X155035D01*
X151295D02*
X150508Y310276D01*
X162165Y158787D02*
X207165D01*
X162165Y187921D02*
X207165D01*
Y158787D01*
X162165Y187921D02*
Y158787D01*
X162894Y314382D02*
X191437D01*
X147165Y188961D02*
Y158961D01*
X158165Y188961D02*
Y158961D01*
X147165Y188961D02*
X158165D01*
X147165Y158961D02*
X158165D01*
X238681Y285563D02*
X241732D01*
X238779Y273358D02*
X246555D01*
X242815Y216760D02*
Y204161D01*
X262500Y216760D02*
Y204161D01*
X242815D02*
X262500D01*
X242815Y216760D02*
X262500D01*
X250157Y280967D02*
Y278967D01*
X254157Y280967D02*
Y278967D01*
X219057Y203061D02*
Y201861D01*
X222257Y203061D02*
Y201861D01*
Y219061D02*
Y217861D01*
X219057Y219061D02*
Y217861D01*
X214558Y279667D02*
Y278467D01*
X217758Y279667D02*
Y278467D01*
X265757Y279667D02*
Y278467D01*
X262558Y279667D02*
Y278467D01*
X262779Y311555D02*
X265535D01*
X261500Y303189D02*
Y298858D01*
X266815Y303189D02*
Y298858D01*
X261500D02*
X266815D01*
X261500Y310276D02*
Y306732D01*
X266815Y310276D02*
Y306732D01*
X266028Y311063D02*
X266815Y310276D01*
X265535Y311555D02*
X266126Y310965D01*
X262779Y311555D02*
X262090Y310866D01*
X262287Y311063D02*
X266028D01*
X262287D02*
X261500Y310276D01*
X214779Y311555D02*
X217535D01*
X213500Y303189D02*
Y298858D01*
X218815Y303189D02*
Y298858D01*
X213500D02*
X218815D01*
X213500Y310276D02*
Y306732D01*
X218815Y310276D02*
Y306732D01*
X218028Y311063D02*
X218815Y310276D01*
X217535Y311555D02*
X218126Y310965D01*
X214779Y311555D02*
X214090Y310866D01*
X214287Y311063D02*
X218028D01*
X214287D02*
X213500Y310276D01*
X225157Y158787D02*
X270158D01*
X225157Y187921D02*
X270158D01*
Y158787D01*
X225157Y187921D02*
Y158787D01*
X225886Y314382D02*
X254429D01*
X210157Y188961D02*
Y158961D01*
X221158Y188961D02*
Y158961D01*
X210157Y188961D02*
X221158D01*
X210157Y158961D02*
X221158D01*
X301673Y285563D02*
X304724D01*
X301772Y273358D02*
X309547D01*
X305807Y216760D02*
Y204161D01*
X325492Y216760D02*
Y204161D01*
X305807D02*
X325492D01*
X305807Y216760D02*
X325492D01*
X313150Y280967D02*
Y278967D01*
X317150Y280967D02*
Y278967D01*
X282050Y203061D02*
Y201861D01*
X285250Y203061D02*
Y201861D01*
Y219061D02*
Y217861D01*
X282050Y219061D02*
Y217861D01*
X277550Y279667D02*
Y278467D01*
X280750Y279667D02*
Y278467D01*
X328750Y279667D02*
Y278467D01*
X325550Y279667D02*
Y278467D01*
X325772Y311555D02*
X328527D01*
X324492Y303189D02*
Y298858D01*
X329807Y303189D02*
Y298858D01*
X324492D02*
X329807D01*
X324492Y310276D02*
Y306732D01*
X329807Y310276D02*
Y306732D01*
X329020Y311063D02*
X329807Y310276D01*
X328527Y311555D02*
X329118Y310965D01*
X325772Y311555D02*
X325083Y310866D01*
X325279Y311063D02*
X329020D01*
X325279D02*
X324492Y310276D01*
X277772Y311555D02*
X280527D01*
X276492Y303189D02*
Y298858D01*
X281807Y303189D02*
Y298858D01*
X276492D02*
X281807D01*
X276492Y310276D02*
Y306732D01*
X281807Y310276D02*
Y306732D01*
X281020Y311063D02*
X281807Y310276D01*
X280527Y311555D02*
X281118Y310965D01*
X277772Y311555D02*
X277083Y310866D01*
X277279Y311063D02*
X281020D01*
X277279D02*
X276492Y310276D01*
X288150Y158787D02*
X333150D01*
X288150Y187921D02*
X333150D01*
Y158787D01*
X288150Y187921D02*
Y158787D01*
X288878Y314382D02*
X317421D01*
X273150Y188961D02*
Y158961D01*
X284150Y188961D02*
Y158961D01*
X273150Y188961D02*
X284150D01*
X273150Y158961D02*
X284150D01*
X304626Y29398D02*
X301575D01*
X304527Y41602D02*
X296752D01*
X300492Y98201D02*
Y110799D01*
X280807Y98201D02*
Y110799D01*
X300492D02*
X280807D01*
X300492Y98201D02*
X280807D01*
X293150Y33994D02*
Y35994D01*
X289150Y33994D02*
Y35994D01*
X324250Y111900D02*
Y113100D01*
X321050Y111900D02*
Y113100D01*
Y95900D02*
Y97100D01*
X324250Y95900D02*
Y97100D01*
X328750Y35294D02*
Y36494D01*
X325550Y35294D02*
Y36494D01*
X277550Y35294D02*
Y36494D01*
X280750Y35294D02*
Y36494D01*
X280527Y3405D02*
X277772D01*
X281807Y11772D02*
Y16102D01*
X276492Y11772D02*
Y16102D01*
X281807D02*
X276492D01*
X281807Y4685D02*
Y8228D01*
X276492Y4685D02*
Y8228D01*
X277279Y3898D02*
X276492Y4685D01*
X277772Y3405D02*
X277181Y3996D01*
X280527Y3405D02*
X281217Y4095D01*
X281020Y3898D02*
X277279D01*
X281020D02*
X281807Y4685D01*
X328527Y3405D02*
X325772D01*
X329807Y11772D02*
Y16102D01*
X324492Y11772D02*
Y16102D01*
X329807D02*
X324492D01*
X329807Y4685D02*
Y8228D01*
X324492Y4685D02*
Y8228D01*
X325279Y3898D02*
X324492Y4685D01*
X325772Y3405D02*
X325181Y3996D01*
X328527Y3405D02*
X329217Y4095D01*
X329020Y3898D02*
X325279D01*
X329020D02*
X329807Y4685D01*
X318150Y156173D02*
X273150D01*
X318150Y127039D02*
X273150D01*
Y156173D01*
X318150Y127039D02*
Y156173D01*
X317421Y579D02*
X288878D01*
X333150Y126000D02*
Y156000D01*
X322150Y126000D02*
Y156000D01*
X333150Y126000D02*
X322150D01*
X333150Y156000D02*
X322150D01*
X241634Y29398D02*
X238583D01*
X241535Y41602D02*
X233760D01*
X237500Y98201D02*
Y110799D01*
X217815Y98201D02*
Y110799D01*
X237500D02*
X217815D01*
X237500Y98201D02*
X217815D01*
X230157Y33994D02*
Y35994D01*
X226157Y33994D02*
Y35994D01*
X261258Y111900D02*
Y113100D01*
X258057Y111900D02*
Y113100D01*
Y95900D02*
Y97100D01*
X261258Y95900D02*
Y97100D01*
X265757Y35294D02*
Y36494D01*
X262558Y35294D02*
Y36494D01*
X214558Y35294D02*
Y36494D01*
X217758Y35294D02*
Y36494D01*
X217535Y3405D02*
X214779D01*
X218815Y11772D02*
Y16102D01*
X213500Y11772D02*
Y16102D01*
X218815D02*
X213500D01*
X218815Y4685D02*
Y8228D01*
X213500Y4685D02*
Y8228D01*
X214287Y3898D02*
X213500Y4685D01*
X214779Y3405D02*
X214189Y3996D01*
X217535Y3405D02*
X218224Y4095D01*
X218028Y3898D02*
X214287D01*
X218028D02*
X218815Y4685D01*
X265535Y3405D02*
X262779D01*
X266815Y11772D02*
Y16102D01*
X261500Y11772D02*
Y16102D01*
X266815D02*
X261500D01*
X266815Y4685D02*
Y8228D01*
X261500Y4685D02*
Y8228D01*
X262287Y3898D02*
X261500Y4685D01*
X262779Y3405D02*
X262189Y3996D01*
X265535Y3405D02*
X266224Y4095D01*
X266028Y3898D02*
X262287D01*
X266028D02*
X266815Y4685D01*
X255157Y156173D02*
X210157D01*
X255157Y127039D02*
X210157D01*
Y156173D01*
X255157Y127039D02*
Y156173D01*
X254429Y579D02*
X225886D01*
X270158Y126000D02*
Y156000D01*
X259157Y126000D02*
Y156000D01*
X270158Y126000D02*
X259157D01*
X270158Y156000D02*
X259157D01*
X178642Y29398D02*
X175591D01*
X178543Y41602D02*
X170768D01*
X174508Y98201D02*
Y110799D01*
X154823Y98201D02*
Y110799D01*
X174508D02*
X154823D01*
X174508Y98201D02*
X154823D01*
X167165Y33994D02*
Y35994D01*
X163165Y33994D02*
Y35994D01*
X198265Y111900D02*
Y113100D01*
X195065Y111900D02*
Y113100D01*
Y95900D02*
Y97100D01*
X198265Y95900D02*
Y97100D01*
X202765Y35294D02*
Y36494D01*
X199565Y35294D02*
Y36494D01*
X151565Y35294D02*
Y36494D01*
X154765Y35294D02*
Y36494D01*
X154543Y3405D02*
X151787D01*
X155823Y11772D02*
Y16102D01*
X150508Y11772D02*
Y16102D01*
X155823D02*
X150508D01*
X155823Y4685D02*
Y8228D01*
X150508Y4685D02*
Y8228D01*
X151295Y3898D02*
X150508Y4685D01*
X151787Y3405D02*
X151197Y3996D01*
X154543Y3405D02*
X155232Y4095D01*
X155035Y3898D02*
X151295D01*
X155035D02*
X155823Y4685D01*
X202543Y3405D02*
X199787D01*
X203823Y11772D02*
Y16102D01*
X198508Y11772D02*
Y16102D01*
X203823D02*
X198508D01*
X203823Y4685D02*
Y8228D01*
X198508Y4685D02*
Y8228D01*
X199295Y3898D02*
X198508Y4685D01*
X199787Y3405D02*
X199197Y3996D01*
X202543Y3405D02*
X203232Y4095D01*
X203035Y3898D02*
X199295D01*
X203035D02*
X203823Y4685D01*
X192165Y156173D02*
X147165D01*
X192165Y127039D02*
X147165D01*
Y156173D01*
X192165Y127039D02*
Y156173D01*
X191437Y579D02*
X162894D01*
X207165Y126000D02*
Y156000D01*
X196165Y126000D02*
Y156000D01*
X207165Y126000D02*
X196165D01*
X207165Y156000D02*
X196165D01*
X115650Y29398D02*
X112598D01*
X115551Y41602D02*
X107776D01*
X111516Y98201D02*
Y110799D01*
X91831Y98201D02*
Y110799D01*
X111516D02*
X91831D01*
X111516Y98201D02*
X91831D01*
X104173Y33994D02*
Y35994D01*
X100173Y33994D02*
Y35994D01*
X135273Y111900D02*
Y113100D01*
X132073Y111900D02*
Y113100D01*
Y95900D02*
Y97100D01*
X135273Y95900D02*
Y97100D01*
X139773Y35294D02*
Y36494D01*
X136573Y35294D02*
Y36494D01*
X88573Y35294D02*
Y36494D01*
X91773Y35294D02*
Y36494D01*
X91551Y3405D02*
X88795D01*
X92831Y11772D02*
Y16102D01*
X87516Y11772D02*
Y16102D01*
X92831D02*
X87516D01*
X92831Y4685D02*
Y8228D01*
X87516Y4685D02*
Y8228D01*
X88303Y3898D02*
X87516Y4685D01*
X88795Y3405D02*
X88205Y3996D01*
X91551Y3405D02*
X92240Y4095D01*
X92043Y3898D02*
X88303D01*
X92043D02*
X92831Y4685D01*
X139551Y3405D02*
X136795D01*
X140831Y11772D02*
Y16102D01*
X135516Y11772D02*
Y16102D01*
X140831D02*
X135516D01*
X140831Y4685D02*
Y8228D01*
X135516Y4685D02*
Y8228D01*
X136303Y3898D02*
X135516Y4685D01*
X136795Y3405D02*
X136205Y3996D01*
X139551Y3405D02*
X140240Y4095D01*
X140043Y3898D02*
X136303D01*
X140043D02*
X140831Y4685D01*
X129173Y156173D02*
X84173D01*
X129173Y127039D02*
X84173D01*
Y156173D01*
X129173Y127039D02*
Y156173D01*
X128445Y579D02*
X99902D01*
X144173Y126000D02*
Y156000D01*
X133173Y126000D02*
Y156000D01*
X144173Y126000D02*
X133173D01*
X144173Y156000D02*
X133173D01*
X52658Y29398D02*
X49606D01*
X52559Y41602D02*
X44783D01*
X48524Y98201D02*
Y110799D01*
X28839Y98201D02*
Y110799D01*
X48524D02*
X28839D01*
X48524Y98201D02*
X28839D01*
X41181Y33994D02*
Y35994D01*
X37181Y33994D02*
Y35994D01*
X72281Y111900D02*
Y113100D01*
X69081Y111900D02*
Y113100D01*
Y95900D02*
Y97100D01*
X72281Y95900D02*
Y97100D01*
X76781Y35294D02*
Y36494D01*
X73581Y35294D02*
Y36494D01*
X25581Y35294D02*
Y36494D01*
X28781Y35294D02*
Y36494D01*
X28559Y3405D02*
X25803D01*
X29839Y11772D02*
Y16102D01*
X24524Y11772D02*
Y16102D01*
X29839D02*
X24524D01*
X29839Y4685D02*
Y8228D01*
X24524Y4685D02*
Y8228D01*
X25311Y3898D02*
X24524Y4685D01*
X25803Y3405D02*
X25213Y3996D01*
X28559Y3405D02*
X29248Y4095D01*
X29051Y3898D02*
X25311D01*
X29051D02*
X29839Y4685D01*
X76559Y3405D02*
X73803D01*
X77839Y11772D02*
Y16102D01*
X72524Y11772D02*
Y16102D01*
X77839D02*
X72524D01*
X77839Y4685D02*
Y8228D01*
X72524Y4685D02*
Y8228D01*
X73311Y3898D02*
X72524Y4685D01*
X73803Y3405D02*
X73213Y3996D01*
X76559Y3405D02*
X77248Y4095D01*
X77051Y3898D02*
X73311D01*
X77051D02*
X77839Y4685D01*
X66181Y156173D02*
X21181D01*
X66181Y127039D02*
X21181D01*
Y156173D01*
X66181Y127039D02*
Y156173D01*
X65453Y579D02*
X36909D01*
X81181Y126000D02*
Y156000D01*
X70181Y126000D02*
Y156000D01*
X81181Y126000D02*
X70181D01*
X81181Y156000D02*
X70181D01*
D37*
X58681Y160374D02*
D03*
X121673D02*
D03*
X184665D02*
D03*
X247657D02*
D03*
X310650D02*
D03*
X295650Y154587D02*
D03*
X232658D02*
D03*
X169665D02*
D03*
X106673D02*
D03*
X43681D02*
D03*
D38*
X51181Y313500D02*
D03*
X114173D02*
D03*
X177165D02*
D03*
X240158D02*
D03*
X303150D02*
D03*
Y1461D02*
D03*
X240158D02*
D03*
X177165D02*
D03*
X114173D02*
D03*
X51181D02*
D03*
M02*
