G04*
G04 #@! TF.GenerationSoftware,Altium Limited,Altium Designer,20.2.3 (150)*
G04*
G04 Layer_Physical_Order=2*
G04 Layer_Color=16711680*
%FSLAX25Y25*%
%MOIN*%
G70*
G04*
G04 #@! TF.SameCoordinates,EBBBD63C-4F16-4FE1-BE59-5CF438A8D42D*
G04*
G04*
G04 #@! TF.FilePolarity,Positive*
G04*
G01*
G75*
%ADD10C,0.03937*%
%ADD21C,0.02000*%
%ADD22C,0.01000*%
%ADD24C,0.00787*%
%ADD25C,0.07874*%
%ADD26C,0.10236*%
%ADD27C,0.04724*%
%ADD28O,0.04724X0.07480*%
%ADD29C,0.06299*%
%ADD30R,0.06299X0.06299*%
%ADD31C,0.02362*%
%ADD32C,0.03150*%
G36*
X331681Y313372D02*
X332506Y312821D01*
X333057Y311997D01*
X333238Y311089D01*
X333225Y311024D01*
Y161417D01*
X333238Y161352D01*
X333057Y160444D01*
X332506Y159620D01*
X331681Y159069D01*
X330774Y158888D01*
X330709Y158901D01*
X275590D01*
X275525Y158888D01*
X274618Y159069D01*
X273793Y159620D01*
X273242Y160444D01*
X273061Y161352D01*
X273075Y161417D01*
Y311024D01*
X273061Y311089D01*
X273242Y311997D01*
X273793Y312821D01*
X274618Y313372D01*
X275525Y313553D01*
X275590Y313540D01*
X330709D01*
X330774Y313553D01*
X331681Y313372D01*
D02*
G37*
G36*
X268689D02*
X269514Y312821D01*
X270065Y311997D01*
X270246Y311089D01*
X270233Y311024D01*
Y161417D01*
X270246Y161352D01*
X270065Y160444D01*
X269514Y159620D01*
X268689Y159069D01*
X267782Y158888D01*
X267717Y158901D01*
X212598D01*
X212533Y158888D01*
X211626Y159069D01*
X210801Y159620D01*
X210250Y160444D01*
X210069Y161352D01*
X210082Y161417D01*
Y311024D01*
X210069Y311089D01*
X210250Y311997D01*
X210801Y312821D01*
X211626Y313372D01*
X212533Y313553D01*
X212598Y313540D01*
X267717D01*
X267782Y313553D01*
X268689Y313372D01*
D02*
G37*
G36*
X205697D02*
X206522Y312821D01*
X207073Y311997D01*
X207254Y311089D01*
X207240Y311024D01*
Y161417D01*
X207254Y161352D01*
X207073Y160444D01*
X206522Y159620D01*
X205697Y159069D01*
X204790Y158888D01*
X204724Y158901D01*
X149606D01*
X149541Y158888D01*
X148633Y159069D01*
X147809Y159620D01*
X147258Y160444D01*
X147077Y161352D01*
X147090Y161417D01*
Y311024D01*
X147077Y311089D01*
X147258Y311997D01*
X147809Y312821D01*
X148634Y313372D01*
X149541Y313553D01*
X149606Y313540D01*
X204724D01*
X204790Y313553D01*
X205697Y313372D01*
D02*
G37*
G36*
X142705D02*
X143530Y312821D01*
X144081Y311997D01*
X144261Y311089D01*
X144248Y311024D01*
Y161417D01*
X144261Y161352D01*
X144081Y160444D01*
X143530Y159620D01*
X142705Y159069D01*
X141798Y158888D01*
X141732Y158901D01*
X86614D01*
X86548Y158888D01*
X85641Y159069D01*
X84817Y159620D01*
X84266Y160444D01*
X84085Y161352D01*
X84098Y161417D01*
Y311024D01*
X84085Y311089D01*
X84266Y311997D01*
X84817Y312821D01*
X85641Y313372D01*
X86548Y313553D01*
X86614Y313540D01*
X141732D01*
X141798Y313553D01*
X142705Y313372D01*
D02*
G37*
G36*
X79713D02*
X80538Y312821D01*
X81089Y311997D01*
X81269Y311089D01*
X81256Y311024D01*
Y161417D01*
X81269Y161352D01*
X81089Y160444D01*
X80538Y159620D01*
X79713Y159069D01*
X78806Y158888D01*
X78740Y158901D01*
X23622D01*
X23556Y158888D01*
X22649Y159069D01*
X21824Y159620D01*
X21273Y160444D01*
X21093Y161352D01*
X21106Y161417D01*
Y311024D01*
X21093Y311089D01*
X21273Y311997D01*
X21824Y312821D01*
X22649Y313372D01*
X23556Y313553D01*
X23622Y313540D01*
X78740D01*
X78806Y313553D01*
X79713Y313372D01*
D02*
G37*
G36*
X331681Y155892D02*
X332506Y155341D01*
X333057Y154516D01*
X333238Y153609D01*
X333225Y153543D01*
Y3937D01*
X333238Y3871D01*
X333057Y2964D01*
X332506Y2139D01*
X331681Y1588D01*
X330774Y1408D01*
X330709Y1421D01*
X275590D01*
X275525Y1408D01*
X274618Y1588D01*
X273793Y2139D01*
X273242Y2964D01*
X273061Y3871D01*
X273075Y3937D01*
Y153543D01*
X273061Y153609D01*
X273242Y154516D01*
X273793Y155341D01*
X274618Y155892D01*
X275525Y156072D01*
X275590Y156059D01*
X330709D01*
X330774Y156072D01*
X331681Y155892D01*
D02*
G37*
G36*
X268689D02*
X269514Y155341D01*
X270065Y154516D01*
X270246Y153609D01*
X270233Y153543D01*
Y3937D01*
X270246Y3871D01*
X270065Y2964D01*
X269514Y2139D01*
X268689Y1588D01*
X267782Y1408D01*
X267717Y1421D01*
X212598D01*
X212533Y1408D01*
X211626Y1588D01*
X210801Y2139D01*
X210250Y2964D01*
X210069Y3871D01*
X210082Y3937D01*
Y153543D01*
X210069Y153609D01*
X210250Y154516D01*
X210801Y155341D01*
X211626Y155892D01*
X212533Y156072D01*
X212598Y156059D01*
X267717D01*
X267782Y156072D01*
X268689Y155892D01*
D02*
G37*
G36*
X205697D02*
X206522Y155341D01*
X207073Y154516D01*
X207254Y153609D01*
X207240Y153543D01*
Y3937D01*
X207254Y3871D01*
X207073Y2964D01*
X206522Y2139D01*
X205697Y1588D01*
X204790Y1408D01*
X204724Y1421D01*
X149606D01*
X149541Y1408D01*
X148633Y1588D01*
X147809Y2139D01*
X147258Y2964D01*
X147077Y3871D01*
X147090Y3937D01*
Y153543D01*
X147077Y153609D01*
X147258Y154516D01*
X147809Y155341D01*
X148634Y155892D01*
X149541Y156072D01*
X149606Y156059D01*
X204724D01*
X204790Y156072D01*
X205697Y155892D01*
D02*
G37*
G36*
X142705D02*
X143530Y155341D01*
X144081Y154516D01*
X144261Y153609D01*
X144248Y153543D01*
Y3937D01*
X144261Y3871D01*
X144081Y2964D01*
X143530Y2139D01*
X142705Y1588D01*
X141798Y1408D01*
X141732Y1421D01*
X86614D01*
X86548Y1408D01*
X85641Y1588D01*
X84817Y2139D01*
X84266Y2964D01*
X84085Y3871D01*
X84098Y3937D01*
Y153543D01*
X84085Y153609D01*
X84266Y154516D01*
X84817Y155341D01*
X85641Y155892D01*
X86548Y156072D01*
X86614Y156059D01*
X141732D01*
X141798Y156072D01*
X142705Y155892D01*
D02*
G37*
G36*
X79713D02*
X80538Y155341D01*
X81089Y154516D01*
X81269Y153609D01*
X81256Y153543D01*
Y3937D01*
X81269Y3871D01*
X81089Y2964D01*
X80538Y2139D01*
X79713Y1588D01*
X78806Y1408D01*
X78740Y1421D01*
X23622D01*
X23556Y1408D01*
X22649Y1588D01*
X21824Y2139D01*
X21273Y2964D01*
X21093Y3871D01*
X21106Y3937D01*
Y153543D01*
X21093Y153609D01*
X21273Y154516D01*
X21824Y155341D01*
X22649Y155892D01*
X23556Y156072D01*
X23622Y156059D01*
X78740D01*
X78806Y156072D01*
X79713Y155892D01*
D02*
G37*
%LPC*%
G36*
X305650Y290184D02*
X304799Y290015D01*
X304077Y289533D01*
X303733Y289018D01*
X303719Y289013D01*
X303080D01*
X303066Y289018D01*
X302722Y289533D01*
X302001Y290015D01*
X301150Y290184D01*
X300299Y290015D01*
X299577Y289533D01*
X299095Y288812D01*
X298926Y287961D01*
X299095Y287110D01*
X299312Y286786D01*
X293068Y280542D01*
X292737Y280046D01*
X292620Y279461D01*
Y245603D01*
X292617Y245584D01*
X292611Y245556D01*
X292577Y245533D01*
X292095Y244812D01*
X291926Y243961D01*
X292095Y243110D01*
X292577Y242388D01*
X293299Y241906D01*
X294150Y241737D01*
X295001Y241906D01*
X295722Y242388D01*
X296204Y243110D01*
X296373Y243961D01*
X296204Y244812D01*
X296203Y244813D01*
X296564Y245353D01*
X297150Y245237D01*
X298001Y245406D01*
X298722Y245888D01*
X299204Y246610D01*
X299373Y247461D01*
X299204Y248312D01*
X298722Y249033D01*
X298001Y249515D01*
X297679Y249579D01*
Y277827D01*
X305569Y285718D01*
X305585Y285729D01*
X305610Y285745D01*
X305650Y285737D01*
X306501Y285906D01*
X307222Y286388D01*
X307704Y287110D01*
X307873Y287961D01*
X307704Y288812D01*
X307222Y289533D01*
X306501Y290015D01*
X305650Y290184D01*
D02*
G37*
G36*
X279150Y273558D02*
X278477Y273469D01*
X277851Y273210D01*
X277313Y272797D01*
X276901Y272259D01*
X276641Y271633D01*
X276553Y270961D01*
X276641Y270288D01*
X276901Y269662D01*
X277098Y269405D01*
X277110Y269216D01*
Y255654D01*
X277085Y255296D01*
X277054Y255075D01*
X277015Y254872D01*
X276970Y254698D01*
X276922Y254553D01*
X276872Y254437D01*
X276825Y254349D01*
X276749Y254239D01*
X276721Y254172D01*
X276557Y253958D01*
X276257Y253236D01*
X276155Y252461D01*
X276168Y252363D01*
X275708Y251903D01*
X275266Y251241D01*
X275110Y250461D01*
Y248835D01*
X275095Y248812D01*
X274926Y247961D01*
X275095Y247110D01*
X275577Y246388D01*
X276299Y245906D01*
X277067Y245753D01*
X277197Y245684D01*
X277346Y245521D01*
X277361Y245484D01*
X277279Y244767D01*
X277032Y244578D01*
X276557Y243958D01*
X276257Y243236D01*
X276155Y242461D01*
X276257Y241686D01*
X276557Y240964D01*
X277032Y240343D01*
X277653Y239868D01*
X278375Y239568D01*
X279150Y239467D01*
X279925Y239568D01*
X280647Y239868D01*
X281267Y240343D01*
X281743Y240964D01*
X282042Y241686D01*
X282144Y242461D01*
X282042Y243236D01*
X281743Y243958D01*
X281486Y244291D01*
X281490Y244456D01*
X281640Y244992D01*
X281657Y245011D01*
X282222Y245388D01*
X282704Y246110D01*
X282873Y246961D01*
X282704Y247812D01*
X282222Y248533D01*
X281501Y249015D01*
X280650Y249184D01*
X280487Y249152D01*
X280312Y249729D01*
X280647Y249868D01*
X281267Y250343D01*
X281743Y250964D01*
X282042Y251686D01*
X282144Y252461D01*
X282042Y253236D01*
X281743Y253958D01*
X281578Y254172D01*
X281550Y254239D01*
X281474Y254349D01*
X281427Y254437D01*
X281378Y254553D01*
X281329Y254698D01*
X281284Y254872D01*
X281245Y255075D01*
X281214Y255296D01*
X281189Y255654D01*
Y269389D01*
X281399Y269662D01*
X281658Y270288D01*
X281747Y270961D01*
X281658Y271633D01*
X281399Y272259D01*
X280986Y272797D01*
X280448Y273210D01*
X279822Y273469D01*
X279150Y273558D01*
D02*
G37*
G36*
X283650Y236684D02*
X282799Y236515D01*
X282077Y236033D01*
X282054Y235999D01*
X282026Y235993D01*
X282007Y235990D01*
X281150D01*
X280564Y235874D01*
X280068Y235542D01*
X279910Y235384D01*
X279909Y235383D01*
X279878Y235359D01*
X279150Y235455D01*
X278375Y235353D01*
X277653Y235054D01*
X277032Y234578D01*
X276557Y233958D01*
X276257Y233236D01*
X276155Y232461D01*
X276257Y231686D01*
X276557Y230964D01*
X277032Y230344D01*
X277653Y229868D01*
X278375Y229569D01*
X279150Y229467D01*
X279925Y229569D01*
X280647Y229868D01*
X281267Y230344D01*
X281743Y230964D01*
X282042Y231686D01*
X282103Y232149D01*
X282718Y232460D01*
X282799Y232406D01*
X283650Y232237D01*
X284501Y232406D01*
X285222Y232888D01*
X285704Y233610D01*
X285873Y234461D01*
X285704Y235312D01*
X285222Y236033D01*
X284501Y236515D01*
X283650Y236684D01*
D02*
G37*
G36*
X318150Y268058D02*
X317477Y267969D01*
X316851Y267710D01*
X316313Y267297D01*
X315900Y266759D01*
X315641Y266133D01*
X315553Y265461D01*
X315641Y264789D01*
X315900Y264162D01*
X316098Y263905D01*
X316110Y263717D01*
Y233533D01*
X315900Y233259D01*
X315641Y232633D01*
X315553Y231961D01*
X315641Y231289D01*
X315900Y230662D01*
X316313Y230124D01*
X316851Y229712D01*
X317477Y229452D01*
X318150Y229364D01*
X318822Y229452D01*
X319448Y229712D01*
X319986Y230124D01*
X320399Y230662D01*
X320658Y231289D01*
X320747Y231961D01*
X320658Y232633D01*
X320399Y233259D01*
X320202Y233516D01*
X320189Y233705D01*
Y263889D01*
X320399Y264162D01*
X320658Y264789D01*
X320747Y265461D01*
X320658Y266133D01*
X320399Y266759D01*
X319986Y267297D01*
X319448Y267710D01*
X318822Y267969D01*
X318150Y268058D01*
D02*
G37*
G36*
X303650Y278317D02*
X302977Y278229D01*
X302351Y277970D01*
X301813Y277557D01*
X301400Y277019D01*
X301141Y276393D01*
X301053Y275721D01*
X301141Y275048D01*
X301400Y274422D01*
X301598Y274165D01*
X301610Y273976D01*
Y225805D01*
X301319Y225514D01*
X300977Y225469D01*
X300351Y225210D01*
X299813Y224797D01*
X299400Y224259D01*
X299141Y223633D01*
X299053Y222961D01*
X299141Y222288D01*
X299400Y221662D01*
X299813Y221124D01*
X300351Y220711D01*
X300977Y220452D01*
X301650Y220364D01*
X302322Y220452D01*
X302948Y220711D01*
X303486Y221124D01*
X303899Y221662D01*
X304158Y222288D01*
X304200Y222609D01*
X304325Y222752D01*
X305092Y223519D01*
X305534Y224180D01*
X305689Y224961D01*
Y274148D01*
X305899Y274422D01*
X306158Y275048D01*
X306247Y275721D01*
X306158Y276393D01*
X305899Y277019D01*
X305486Y277557D01*
X304948Y277970D01*
X304322Y278229D01*
X303650Y278317D01*
D02*
G37*
G36*
X297299Y219216D02*
X289000D01*
Y210917D01*
X297299D01*
Y219216D01*
D02*
G37*
G36*
X293150Y209252D02*
X292066Y209110D01*
X291057Y208692D01*
X290190Y208027D01*
X289525Y207160D01*
X289107Y206150D01*
X288964Y205067D01*
X289107Y203984D01*
X289525Y202974D01*
X290190Y202107D01*
X291057Y201442D01*
X292066Y201024D01*
X293150Y200882D01*
X294233Y201024D01*
X295242Y201442D01*
X296109Y202107D01*
X296774Y202974D01*
X297192Y203984D01*
X297335Y205067D01*
X297192Y206150D01*
X296774Y207160D01*
X296109Y208027D01*
X295242Y208692D01*
X294233Y209110D01*
X293150Y209252D01*
D02*
G37*
G36*
X282799Y188110D02*
X274500D01*
Y179811D01*
X282799D01*
Y188110D01*
D02*
G37*
G36*
X278650Y178146D02*
X277566Y178003D01*
X276557Y177585D01*
X275690Y176920D01*
X275025Y176053D01*
X274607Y175044D01*
X274464Y173961D01*
X274607Y172877D01*
X275025Y171868D01*
X275690Y171001D01*
X276557Y170336D01*
X277566Y169918D01*
X278650Y169775D01*
X279733Y169918D01*
X280742Y170336D01*
X281609Y171001D01*
X282274Y171868D01*
X282692Y172877D01*
X282835Y173961D01*
X282692Y175044D01*
X282274Y176053D01*
X281609Y176920D01*
X280742Y177585D01*
X279733Y178003D01*
X278650Y178146D01*
D02*
G37*
G36*
X325650Y179108D02*
X324450Y178990D01*
X323297Y178640D01*
X322234Y178072D01*
X321303Y177308D01*
X320538Y176376D01*
X319970Y175313D01*
X319620Y174160D01*
X319502Y172961D01*
X319620Y171761D01*
X319970Y170608D01*
X320538Y169545D01*
X321303Y168614D01*
X322234Y167849D01*
X323297Y167281D01*
X324450Y166931D01*
X325650Y166813D01*
X326849Y166931D01*
X328002Y167281D01*
X329065Y167849D01*
X329997Y168614D01*
X330761Y169545D01*
X331329Y170608D01*
X331679Y171761D01*
X331797Y172961D01*
X331679Y174160D01*
X331329Y175313D01*
X330761Y176376D01*
X329997Y177308D01*
X329065Y178072D01*
X328002Y178640D01*
X326849Y178990D01*
X325650Y179108D01*
D02*
G37*
G36*
X310650D02*
X309450Y178990D01*
X308297Y178640D01*
X307234Y178072D01*
X306302Y177308D01*
X305538Y176376D01*
X304970Y175313D01*
X304620Y174160D01*
X304502Y172961D01*
X304620Y171761D01*
X304970Y170608D01*
X305538Y169545D01*
X306302Y168614D01*
X307234Y167849D01*
X308297Y167281D01*
X309450Y166931D01*
X310650Y166813D01*
X311849Y166931D01*
X313002Y167281D01*
X314065Y167849D01*
X314997Y168614D01*
X315761Y169545D01*
X316329Y170608D01*
X316679Y171761D01*
X316797Y172961D01*
X316679Y174160D01*
X316329Y175313D01*
X315761Y176376D01*
X314997Y177308D01*
X314065Y178072D01*
X313002Y178640D01*
X311849Y178990D01*
X310650Y179108D01*
D02*
G37*
G36*
X278650Y168146D02*
X277566Y168003D01*
X276557Y167585D01*
X275690Y166920D01*
X275025Y166053D01*
X274607Y165044D01*
X274464Y163961D01*
X274607Y162877D01*
X275025Y161868D01*
X275690Y161001D01*
X276557Y160336D01*
X277566Y159918D01*
X278650Y159775D01*
X279733Y159918D01*
X280742Y160336D01*
X281609Y161001D01*
X282274Y161868D01*
X282692Y162877D01*
X282835Y163961D01*
X282692Y165044D01*
X282274Y166053D01*
X281609Y166920D01*
X280742Y167585D01*
X279733Y168003D01*
X278650Y168146D01*
D02*
G37*
%LPD*%
G36*
X305638Y286780D02*
X305546Y286776D01*
X305456Y286764D01*
X305365Y286743D01*
X305275Y286713D01*
X305186Y286674D01*
X305097Y286627D01*
X305008Y286571D01*
X304920Y286506D01*
X304833Y286432D01*
X304745Y286349D01*
X304038Y287056D01*
X304121Y287144D01*
X304195Y287231D01*
X304260Y287319D01*
X304316Y287408D01*
X304363Y287497D01*
X304402Y287586D01*
X304432Y287676D01*
X304453Y287767D01*
X304465Y287858D01*
X304469Y287949D01*
X305638Y286780D01*
D02*
G37*
G36*
X294653Y245619D02*
X294663Y245505D01*
X294679Y245397D01*
X294702Y245294D01*
X294731Y245198D01*
X294767Y245108D01*
X294810Y245023D01*
X294859Y244944D01*
X294914Y244871D01*
X294976Y244804D01*
X293323D01*
X293385Y244871D01*
X293441Y244944D01*
X293490Y245023D01*
X293532Y245108D01*
X293568Y245198D01*
X293597Y245294D01*
X293620Y245397D01*
X293636Y245505D01*
X293646Y245619D01*
X293650Y245739D01*
X294650D01*
X294653Y245619D01*
D02*
G37*
G36*
X280233Y269808D02*
X280215Y269762D01*
X280200Y269701D01*
X280187Y269622D01*
X280166Y269415D01*
X280154Y269140D01*
X280150Y268799D01*
X278150D01*
X278149Y268978D01*
X278099Y269701D01*
X278084Y269762D01*
X278067Y269808D01*
X278047Y269836D01*
X280252D01*
X280233Y269808D01*
D02*
G37*
G36*
X280150Y256156D02*
X280155Y255813D01*
X280200Y255189D01*
X280239Y254908D01*
X280289Y254648D01*
X280351Y254410D01*
X280423Y254191D01*
X280507Y253994D01*
X280602Y253818D01*
X280708Y253663D01*
X277591D01*
X277697Y253818D01*
X277792Y253994D01*
X277876Y254192D01*
X277948Y254410D01*
X278010Y254648D01*
X278060Y254908D01*
X278099Y255189D01*
X278144Y255813D01*
X278150Y256156D01*
X280150Y256156D01*
D02*
G37*
G36*
X280638Y245780D02*
X280546Y245776D01*
X280456Y245764D01*
X280365Y245743D01*
X280275Y245713D01*
X280186Y245674D01*
X280097Y245627D01*
X280008Y245571D01*
X279920Y245506D01*
X279833Y245432D01*
X279745Y245349D01*
X279038Y246056D01*
X279121Y246144D01*
X279195Y246231D01*
X279260Y246319D01*
X279316Y246408D01*
X279363Y246497D01*
X279402Y246586D01*
X279432Y246676D01*
X279453Y246767D01*
X279465Y246858D01*
X279469Y246949D01*
X280638Y245780D01*
D02*
G37*
G36*
X279655Y245188D02*
X279670Y245024D01*
X279695Y244872D01*
X279730Y244733D01*
X279775Y244606D01*
X279830Y244491D01*
X279895Y244389D01*
X279970Y244299D01*
X280055Y244221D01*
X280150Y244156D01*
X278150D01*
X278245Y244221D01*
X278330Y244299D01*
X278405Y244389D01*
X278470Y244491D01*
X278525Y244606D01*
X278570Y244733D01*
X278605Y244872D01*
X278630Y245024D01*
X278645Y245188D01*
X278650Y245365D01*
X279650D01*
X279655Y245188D01*
D02*
G37*
G36*
X281503Y234107D02*
X281386Y233985D01*
X281196Y233755D01*
X281124Y233647D01*
X281068Y233544D01*
X281026Y233447D01*
X280999Y233354D01*
X280988Y233266D01*
X280991Y233183D01*
X281010Y233105D01*
X279794Y234321D01*
X279872Y234302D01*
X279955Y234299D01*
X280043Y234310D01*
X280135Y234337D01*
X280233Y234379D01*
X280336Y234436D01*
X280444Y234508D01*
X280556Y234595D01*
X280674Y234697D01*
X280796Y234814D01*
X281503Y234107D01*
D02*
G37*
G36*
X282806Y233634D02*
X282739Y233696D01*
X282666Y233752D01*
X282587Y233801D01*
X282503Y233843D01*
X282412Y233879D01*
X282316Y233908D01*
X282213Y233931D01*
X282105Y233948D01*
X281991Y233957D01*
X281871Y233961D01*
Y234961D01*
X281991Y234964D01*
X282105Y234974D01*
X282213Y234990D01*
X282316Y235013D01*
X282412Y235042D01*
X282503Y235078D01*
X282587Y235121D01*
X282666Y235170D01*
X282739Y235225D01*
X282806Y235287D01*
Y233634D01*
D02*
G37*
G36*
X319233Y264308D02*
X319215Y264262D01*
X319200Y264200D01*
X319186Y264122D01*
X319166Y263915D01*
X319154Y263640D01*
X319150Y263299D01*
X317150D01*
X317149Y263478D01*
X317099Y264200D01*
X317084Y264262D01*
X317067Y264308D01*
X317047Y264336D01*
X319252D01*
X319233Y264308D01*
D02*
G37*
G36*
X319151Y233943D02*
X319200Y233221D01*
X319215Y233159D01*
X319233Y233114D01*
X319252Y233085D01*
X317047D01*
X317067Y233114D01*
X317084Y233159D01*
X317099Y233221D01*
X317113Y233299D01*
X317133Y233507D01*
X317145Y233781D01*
X317150Y234122D01*
X319150D01*
X319151Y233943D01*
D02*
G37*
G36*
X304732Y274567D02*
X304715Y274522D01*
X304700Y274460D01*
X304686Y274382D01*
X304666Y274174D01*
X304654Y273900D01*
X304650Y273559D01*
X302650D01*
X302649Y273738D01*
X302599Y274460D01*
X302584Y274522D01*
X302567Y274567D01*
X302547Y274596D01*
X304752D01*
X304732Y274567D01*
D02*
G37*
G36*
X303885Y223782D02*
X303759Y223655D01*
X303283Y223109D01*
X303250Y223055D01*
X303231Y223010D01*
X303224Y222976D01*
X301665Y224535D01*
X301699Y224542D01*
X301743Y224561D01*
X301798Y224594D01*
X301863Y224640D01*
X302024Y224773D01*
X302227Y224958D01*
X302471Y225196D01*
X303885Y223782D01*
D02*
G37*
%LPC*%
G36*
X242657Y290184D02*
X241806Y290015D01*
X241085Y289533D01*
X240741Y289018D01*
X240727Y289013D01*
X240088D01*
X240074Y289018D01*
X239730Y289533D01*
X239008Y290015D01*
X238158Y290184D01*
X237306Y290015D01*
X236585Y289533D01*
X236103Y288812D01*
X235934Y287961D01*
X236103Y287110D01*
X236319Y286786D01*
X230076Y280542D01*
X229745Y280046D01*
X229628Y279461D01*
Y245603D01*
X229625Y245584D01*
X229619Y245556D01*
X229585Y245533D01*
X229103Y244812D01*
X228934Y243961D01*
X229103Y243110D01*
X229585Y242388D01*
X230306Y241906D01*
X231157Y241737D01*
X232009Y241906D01*
X232730Y242388D01*
X233212Y243110D01*
X233381Y243961D01*
X233212Y244812D01*
X233211Y244813D01*
X233572Y245353D01*
X234157Y245237D01*
X235009Y245406D01*
X235730Y245888D01*
X236212Y246610D01*
X236381Y247461D01*
X236212Y248312D01*
X235730Y249033D01*
X235009Y249515D01*
X234687Y249579D01*
Y277827D01*
X242577Y285718D01*
X242593Y285729D01*
X242618Y285745D01*
X242657Y285737D01*
X243509Y285906D01*
X244230Y286388D01*
X244712Y287110D01*
X244881Y287961D01*
X244712Y288812D01*
X244230Y289533D01*
X243509Y290015D01*
X242657Y290184D01*
D02*
G37*
G36*
X216158Y273558D02*
X215485Y273469D01*
X214859Y273210D01*
X214321Y272797D01*
X213908Y272259D01*
X213649Y271633D01*
X213561Y270961D01*
X213649Y270288D01*
X213908Y269662D01*
X214106Y269405D01*
X214118Y269216D01*
Y255654D01*
X214093Y255296D01*
X214062Y255075D01*
X214023Y254872D01*
X213978Y254698D01*
X213930Y254553D01*
X213880Y254437D01*
X213833Y254349D01*
X213757Y254239D01*
X213729Y254172D01*
X213564Y253958D01*
X213265Y253236D01*
X213163Y252461D01*
X213176Y252363D01*
X212716Y251903D01*
X212274Y251241D01*
X212118Y250461D01*
Y248835D01*
X212103Y248812D01*
X211934Y247961D01*
X212103Y247110D01*
X212585Y246388D01*
X213306Y245906D01*
X214074Y245753D01*
X214205Y245684D01*
X214353Y245521D01*
X214369Y245484D01*
X214287Y244767D01*
X214040Y244578D01*
X213564Y243958D01*
X213265Y243236D01*
X213163Y242461D01*
X213265Y241686D01*
X213564Y240964D01*
X214040Y240343D01*
X214660Y239868D01*
X215383Y239568D01*
X216158Y239467D01*
X216932Y239568D01*
X217654Y239868D01*
X218275Y240343D01*
X218751Y240964D01*
X219050Y241686D01*
X219152Y242461D01*
X219050Y243236D01*
X218751Y243958D01*
X218494Y244291D01*
X218498Y244456D01*
X218648Y244992D01*
X218665Y245011D01*
X219230Y245388D01*
X219712Y246110D01*
X219881Y246961D01*
X219712Y247812D01*
X219230Y248533D01*
X218509Y249015D01*
X217657Y249184D01*
X217495Y249152D01*
X217320Y249729D01*
X217654Y249868D01*
X218275Y250343D01*
X218751Y250964D01*
X219050Y251686D01*
X219152Y252461D01*
X219050Y253236D01*
X218751Y253958D01*
X218586Y254172D01*
X218558Y254239D01*
X218482Y254349D01*
X218435Y254437D01*
X218386Y254553D01*
X218337Y254698D01*
X218292Y254872D01*
X218253Y255075D01*
X218222Y255296D01*
X218197Y255654D01*
Y269389D01*
X218407Y269662D01*
X218666Y270288D01*
X218755Y270961D01*
X218666Y271633D01*
X218407Y272259D01*
X217994Y272797D01*
X217456Y273210D01*
X216830Y273469D01*
X216158Y273558D01*
D02*
G37*
G36*
X220657Y236684D02*
X219806Y236515D01*
X219085Y236033D01*
X219062Y235999D01*
X219034Y235993D01*
X219015Y235990D01*
X218158D01*
X217572Y235874D01*
X217076Y235542D01*
X216918Y235384D01*
X216917Y235383D01*
X216886Y235359D01*
X216158Y235455D01*
X215383Y235353D01*
X214660Y235054D01*
X214040Y234578D01*
X213564Y233958D01*
X213265Y233236D01*
X213163Y232461D01*
X213265Y231686D01*
X213564Y230964D01*
X214040Y230344D01*
X214660Y229868D01*
X215383Y229569D01*
X216158Y229467D01*
X216932Y229569D01*
X217654Y229868D01*
X218275Y230344D01*
X218751Y230964D01*
X219050Y231686D01*
X219111Y232149D01*
X219726Y232460D01*
X219806Y232406D01*
X220657Y232237D01*
X221509Y232406D01*
X222230Y232888D01*
X222712Y233610D01*
X222881Y234461D01*
X222712Y235312D01*
X222230Y236033D01*
X221509Y236515D01*
X220657Y236684D01*
D02*
G37*
G36*
X255157Y268058D02*
X254485Y267969D01*
X253859Y267710D01*
X253321Y267297D01*
X252908Y266759D01*
X252649Y266133D01*
X252560Y265461D01*
X252649Y264789D01*
X252908Y264162D01*
X253105Y263905D01*
X253118Y263717D01*
Y233533D01*
X252908Y233259D01*
X252649Y232633D01*
X252560Y231961D01*
X252649Y231289D01*
X252908Y230662D01*
X253321Y230124D01*
X253859Y229712D01*
X254485Y229452D01*
X255157Y229364D01*
X255830Y229452D01*
X256456Y229712D01*
X256994Y230124D01*
X257407Y230662D01*
X257666Y231289D01*
X257754Y231961D01*
X257666Y232633D01*
X257407Y233259D01*
X257209Y233516D01*
X257197Y233705D01*
Y263889D01*
X257407Y264162D01*
X257666Y264789D01*
X257754Y265461D01*
X257666Y266133D01*
X257407Y266759D01*
X256994Y267297D01*
X256456Y267710D01*
X255830Y267969D01*
X255157Y268058D01*
D02*
G37*
G36*
X240657Y278317D02*
X239985Y278229D01*
X239359Y277970D01*
X238821Y277557D01*
X238408Y277019D01*
X238149Y276393D01*
X238060Y275721D01*
X238149Y275048D01*
X238408Y274422D01*
X238605Y274165D01*
X238618Y273976D01*
Y225805D01*
X238327Y225514D01*
X237985Y225469D01*
X237359Y225210D01*
X236821Y224797D01*
X236408Y224259D01*
X236149Y223633D01*
X236060Y222961D01*
X236149Y222288D01*
X236408Y221662D01*
X236821Y221124D01*
X237359Y220711D01*
X237985Y220452D01*
X238657Y220364D01*
X239330Y220452D01*
X239956Y220711D01*
X240494Y221124D01*
X240907Y221662D01*
X241166Y222288D01*
X241208Y222609D01*
X241333Y222752D01*
X242099Y223519D01*
X242541Y224180D01*
X242697Y224961D01*
Y274148D01*
X242907Y274422D01*
X243166Y275048D01*
X243254Y275721D01*
X243166Y276393D01*
X242907Y277019D01*
X242494Y277557D01*
X241956Y277970D01*
X241330Y278229D01*
X240657Y278317D01*
D02*
G37*
G36*
X234307Y219216D02*
X226008D01*
Y210917D01*
X234307D01*
Y219216D01*
D02*
G37*
G36*
X230157Y209252D02*
X229074Y209110D01*
X228065Y208692D01*
X227198Y208027D01*
X226533Y207160D01*
X226115Y206150D01*
X225972Y205067D01*
X226115Y203984D01*
X226533Y202974D01*
X227198Y202107D01*
X228065Y201442D01*
X229074Y201024D01*
X230157Y200882D01*
X231241Y201024D01*
X232250Y201442D01*
X233117Y202107D01*
X233782Y202974D01*
X234200Y203984D01*
X234343Y205067D01*
X234200Y206150D01*
X233782Y207160D01*
X233117Y208027D01*
X232250Y208692D01*
X231241Y209110D01*
X230157Y209252D01*
D02*
G37*
G36*
X219807Y188110D02*
X211508D01*
Y179811D01*
X219807D01*
Y188110D01*
D02*
G37*
G36*
X215657Y178146D02*
X214574Y178003D01*
X213565Y177585D01*
X212698Y176920D01*
X212033Y176053D01*
X211615Y175044D01*
X211472Y173961D01*
X211615Y172877D01*
X212033Y171868D01*
X212698Y171001D01*
X213565Y170336D01*
X214574Y169918D01*
X215657Y169775D01*
X216741Y169918D01*
X217750Y170336D01*
X218617Y171001D01*
X219282Y171868D01*
X219700Y172877D01*
X219843Y173961D01*
X219700Y175044D01*
X219282Y176053D01*
X218617Y176920D01*
X217750Y177585D01*
X216741Y178003D01*
X215657Y178146D01*
D02*
G37*
G36*
X262657Y179108D02*
X261458Y178990D01*
X260305Y178640D01*
X259242Y178072D01*
X258310Y177308D01*
X257546Y176376D01*
X256978Y175313D01*
X256628Y174160D01*
X256510Y172961D01*
X256628Y171761D01*
X256978Y170608D01*
X257546Y169545D01*
X258310Y168614D01*
X259242Y167849D01*
X260305Y167281D01*
X261458Y166931D01*
X262657Y166813D01*
X263857Y166931D01*
X265010Y167281D01*
X266073Y167849D01*
X267005Y168614D01*
X267769Y169545D01*
X268337Y170608D01*
X268687Y171761D01*
X268805Y172961D01*
X268687Y174160D01*
X268337Y175313D01*
X267769Y176376D01*
X267005Y177308D01*
X266073Y178072D01*
X265010Y178640D01*
X263857Y178990D01*
X262657Y179108D01*
D02*
G37*
G36*
X247657D02*
X246458Y178990D01*
X245305Y178640D01*
X244242Y178072D01*
X243310Y177308D01*
X242546Y176376D01*
X241978Y175313D01*
X241628Y174160D01*
X241510Y172961D01*
X241628Y171761D01*
X241978Y170608D01*
X242546Y169545D01*
X243310Y168614D01*
X244242Y167849D01*
X245305Y167281D01*
X246458Y166931D01*
X247657Y166813D01*
X248857Y166931D01*
X250010Y167281D01*
X251073Y167849D01*
X252005Y168614D01*
X252769Y169545D01*
X253337Y170608D01*
X253687Y171761D01*
X253805Y172961D01*
X253687Y174160D01*
X253337Y175313D01*
X252769Y176376D01*
X252005Y177308D01*
X251073Y178072D01*
X250010Y178640D01*
X248857Y178990D01*
X247657Y179108D01*
D02*
G37*
G36*
X215657Y168146D02*
X214574Y168003D01*
X213565Y167585D01*
X212698Y166920D01*
X212033Y166053D01*
X211615Y165044D01*
X211472Y163961D01*
X211615Y162877D01*
X212033Y161868D01*
X212698Y161001D01*
X213565Y160336D01*
X214574Y159918D01*
X215657Y159775D01*
X216741Y159918D01*
X217750Y160336D01*
X218617Y161001D01*
X219282Y161868D01*
X219700Y162877D01*
X219843Y163961D01*
X219700Y165044D01*
X219282Y166053D01*
X218617Y166920D01*
X217750Y167585D01*
X216741Y168003D01*
X215657Y168146D01*
D02*
G37*
%LPD*%
G36*
X242646Y286780D02*
X242554Y286776D01*
X242463Y286764D01*
X242373Y286743D01*
X242283Y286713D01*
X242194Y286674D01*
X242105Y286627D01*
X242016Y286571D01*
X241928Y286506D01*
X241841Y286432D01*
X241753Y286349D01*
X241046Y287056D01*
X241129Y287144D01*
X241202Y287231D01*
X241267Y287319D01*
X241324Y287408D01*
X241371Y287497D01*
X241410Y287586D01*
X241440Y287676D01*
X241461Y287767D01*
X241473Y287858D01*
X241476Y287949D01*
X242646Y286780D01*
D02*
G37*
G36*
X231661Y245619D02*
X231670Y245505D01*
X231687Y245397D01*
X231710Y245294D01*
X231739Y245198D01*
X231775Y245108D01*
X231818Y245023D01*
X231867Y244944D01*
X231922Y244871D01*
X231984Y244804D01*
X230331D01*
X230393Y244871D01*
X230448Y244944D01*
X230497Y245023D01*
X230540Y245108D01*
X230576Y245198D01*
X230605Y245294D01*
X230628Y245397D01*
X230644Y245505D01*
X230654Y245619D01*
X230658Y245739D01*
X231658D01*
X231661Y245619D01*
D02*
G37*
G36*
X217240Y269808D02*
X217223Y269762D01*
X217208Y269701D01*
X217194Y269622D01*
X217174Y269415D01*
X217162Y269140D01*
X217158Y268799D01*
X215158D01*
X215157Y268978D01*
X215107Y269701D01*
X215092Y269762D01*
X215075Y269808D01*
X215055Y269836D01*
X217260D01*
X217240Y269808D01*
D02*
G37*
G36*
X217158Y256156D02*
X217163Y255813D01*
X217208Y255189D01*
X217247Y254908D01*
X217297Y254648D01*
X217358Y254410D01*
X217431Y254191D01*
X217515Y253994D01*
X217610Y253818D01*
X217716Y253663D01*
X214599D01*
X214705Y253818D01*
X214800Y253994D01*
X214884Y254192D01*
X214956Y254410D01*
X215018Y254648D01*
X215068Y254908D01*
X215107Y255189D01*
X215152Y255813D01*
X215158Y256156D01*
X217158Y256156D01*
D02*
G37*
G36*
X217646Y245780D02*
X217554Y245776D01*
X217463Y245764D01*
X217373Y245743D01*
X217283Y245713D01*
X217194Y245674D01*
X217105Y245627D01*
X217016Y245571D01*
X216928Y245506D01*
X216841Y245432D01*
X216753Y245349D01*
X216046Y246056D01*
X216129Y246144D01*
X216202Y246231D01*
X216267Y246319D01*
X216324Y246408D01*
X216371Y246497D01*
X216410Y246586D01*
X216440Y246676D01*
X216461Y246767D01*
X216473Y246858D01*
X216476Y246949D01*
X217646Y245780D01*
D02*
G37*
G36*
X216663Y245188D02*
X216677Y245024D01*
X216703Y244872D01*
X216738Y244733D01*
X216782Y244606D01*
X216838Y244491D01*
X216902Y244389D01*
X216978Y244299D01*
X217062Y244221D01*
X217158Y244156D01*
X215158D01*
X215252Y244221D01*
X215337Y244299D01*
X215412Y244389D01*
X215477Y244491D01*
X215532Y244606D01*
X215578Y244733D01*
X215613Y244872D01*
X215637Y245024D01*
X215652Y245188D01*
X215657Y245365D01*
X216657D01*
X216663Y245188D01*
D02*
G37*
G36*
X218511Y234107D02*
X218394Y233985D01*
X218204Y233755D01*
X218132Y233647D01*
X218075Y233544D01*
X218034Y233447D01*
X218007Y233354D01*
X217996Y233266D01*
X217999Y233183D01*
X218018Y233105D01*
X216802Y234321D01*
X216880Y234302D01*
X216963Y234299D01*
X217051Y234310D01*
X217143Y234337D01*
X217241Y234379D01*
X217344Y234436D01*
X217452Y234508D01*
X217564Y234595D01*
X217682Y234697D01*
X217804Y234814D01*
X218511Y234107D01*
D02*
G37*
G36*
X219814Y233634D02*
X219747Y233696D01*
X219674Y233752D01*
X219595Y233801D01*
X219511Y233843D01*
X219420Y233879D01*
X219324Y233908D01*
X219221Y233931D01*
X219113Y233948D01*
X218999Y233957D01*
X218879Y233961D01*
Y234961D01*
X218999Y234964D01*
X219113Y234974D01*
X219221Y234990D01*
X219324Y235013D01*
X219420Y235042D01*
X219511Y235078D01*
X219595Y235121D01*
X219674Y235170D01*
X219747Y235225D01*
X219814Y235287D01*
Y233634D01*
D02*
G37*
G36*
X256240Y264308D02*
X256223Y264262D01*
X256208Y264200D01*
X256194Y264122D01*
X256174Y263915D01*
X256162Y263640D01*
X256157Y263299D01*
X254157D01*
X254156Y263478D01*
X254107Y264200D01*
X254092Y264262D01*
X254075Y264308D01*
X254055Y264336D01*
X256260D01*
X256240Y264308D01*
D02*
G37*
G36*
X256158Y233943D02*
X256208Y233221D01*
X256223Y233159D01*
X256240Y233114D01*
X256260Y233085D01*
X254055D01*
X254075Y233114D01*
X254092Y233159D01*
X254107Y233221D01*
X254121Y233299D01*
X254141Y233507D01*
X254153Y233781D01*
X254157Y234122D01*
X256157D01*
X256158Y233943D01*
D02*
G37*
G36*
X241740Y274567D02*
X241723Y274522D01*
X241708Y274460D01*
X241694Y274382D01*
X241674Y274174D01*
X241662Y273900D01*
X241657Y273559D01*
X239657D01*
X239656Y273738D01*
X239607Y274460D01*
X239592Y274522D01*
X239575Y274567D01*
X239555Y274596D01*
X241760D01*
X241740Y274567D01*
D02*
G37*
G36*
X240893Y223782D02*
X240767Y223655D01*
X240291Y223109D01*
X240258Y223055D01*
X240238Y223010D01*
X240232Y222976D01*
X238673Y224535D01*
X238707Y224542D01*
X238751Y224561D01*
X238806Y224594D01*
X238871Y224640D01*
X239032Y224773D01*
X239235Y224958D01*
X239479Y225196D01*
X240893Y223782D01*
D02*
G37*
%LPC*%
G36*
X179665Y290184D02*
X178814Y290015D01*
X178093Y289533D01*
X177749Y289018D01*
X177735Y289013D01*
X177096D01*
X177082Y289018D01*
X176738Y289533D01*
X176016Y290015D01*
X175165Y290184D01*
X174314Y290015D01*
X173593Y289533D01*
X173111Y288812D01*
X172942Y287961D01*
X173111Y287110D01*
X173327Y286786D01*
X167084Y280542D01*
X166752Y280046D01*
X166636Y279461D01*
Y245603D01*
X166633Y245584D01*
X166627Y245556D01*
X166593Y245533D01*
X166111Y244812D01*
X165942Y243961D01*
X166111Y243110D01*
X166593Y242388D01*
X167314Y241906D01*
X168165Y241737D01*
X169016Y241906D01*
X169738Y242388D01*
X170220Y243110D01*
X170389Y243961D01*
X170220Y244812D01*
X170219Y244813D01*
X170580Y245353D01*
X171165Y245237D01*
X172016Y245406D01*
X172738Y245888D01*
X173220Y246610D01*
X173389Y247461D01*
X173220Y248312D01*
X172738Y249033D01*
X172016Y249515D01*
X171695Y249579D01*
Y277827D01*
X179585Y285718D01*
X179601Y285729D01*
X179625Y285745D01*
X179665Y285737D01*
X180516Y285906D01*
X181238Y286388D01*
X181720Y287110D01*
X181889Y287961D01*
X181720Y288812D01*
X181238Y289533D01*
X180516Y290015D01*
X179665Y290184D01*
D02*
G37*
G36*
X153165Y273558D02*
X152493Y273469D01*
X151867Y273210D01*
X151329Y272797D01*
X150916Y272259D01*
X150657Y271633D01*
X150568Y270961D01*
X150657Y270288D01*
X150916Y269662D01*
X151113Y269405D01*
X151126Y269216D01*
Y255654D01*
X151101Y255296D01*
X151070Y255075D01*
X151031Y254872D01*
X150986Y254698D01*
X150937Y254553D01*
X150888Y254437D01*
X150841Y254349D01*
X150765Y254239D01*
X150737Y254172D01*
X150572Y253958D01*
X150273Y253236D01*
X150171Y252461D01*
X150184Y252363D01*
X149723Y251903D01*
X149281Y251241D01*
X149126Y250461D01*
Y248835D01*
X149111Y248812D01*
X148942Y247961D01*
X149111Y247110D01*
X149593Y246388D01*
X150314Y245906D01*
X151082Y245753D01*
X151213Y245684D01*
X151361Y245521D01*
X151377Y245484D01*
X151295Y244767D01*
X151048Y244578D01*
X150572Y243958D01*
X150273Y243236D01*
X150171Y242461D01*
X150273Y241686D01*
X150572Y240964D01*
X151048Y240343D01*
X151668Y239868D01*
X152390Y239568D01*
X153165Y239467D01*
X153940Y239568D01*
X154662Y239868D01*
X155282Y240343D01*
X155758Y240964D01*
X156057Y241686D01*
X156159Y242461D01*
X156057Y243236D01*
X155758Y243958D01*
X155502Y244291D01*
X155506Y244456D01*
X155656Y244992D01*
X155673Y245011D01*
X156238Y245388D01*
X156720Y246110D01*
X156889Y246961D01*
X156720Y247812D01*
X156238Y248533D01*
X155516Y249015D01*
X154665Y249184D01*
X154503Y249152D01*
X154328Y249729D01*
X154662Y249868D01*
X155282Y250343D01*
X155758Y250964D01*
X156057Y251686D01*
X156159Y252461D01*
X156057Y253236D01*
X155758Y253958D01*
X155594Y254172D01*
X155566Y254239D01*
X155490Y254349D01*
X155443Y254437D01*
X155393Y254553D01*
X155345Y254698D01*
X155300Y254872D01*
X155261Y255075D01*
X155230Y255296D01*
X155204Y255654D01*
Y269389D01*
X155414Y269662D01*
X155674Y270288D01*
X155762Y270961D01*
X155674Y271633D01*
X155414Y272259D01*
X155002Y272797D01*
X154464Y273210D01*
X153838Y273469D01*
X153165Y273558D01*
D02*
G37*
G36*
X157665Y236684D02*
X156814Y236515D01*
X156093Y236033D01*
X156070Y235999D01*
X156042Y235993D01*
X156023Y235990D01*
X155165D01*
X154580Y235874D01*
X154084Y235542D01*
X153926Y235384D01*
X153925Y235383D01*
X153893Y235359D01*
X153165Y235455D01*
X152390Y235353D01*
X151668Y235054D01*
X151048Y234578D01*
X150572Y233958D01*
X150273Y233236D01*
X150171Y232461D01*
X150273Y231686D01*
X150572Y230964D01*
X151048Y230344D01*
X151668Y229868D01*
X152390Y229569D01*
X153165Y229467D01*
X153940Y229569D01*
X154662Y229868D01*
X155282Y230344D01*
X155758Y230964D01*
X156057Y231686D01*
X156119Y232149D01*
X156734Y232460D01*
X156814Y232406D01*
X157665Y232237D01*
X158516Y232406D01*
X159238Y232888D01*
X159720Y233610D01*
X159889Y234461D01*
X159720Y235312D01*
X159238Y236033D01*
X158516Y236515D01*
X157665Y236684D01*
D02*
G37*
G36*
X192165Y268058D02*
X191493Y267969D01*
X190867Y267710D01*
X190329Y267297D01*
X189916Y266759D01*
X189657Y266133D01*
X189568Y265461D01*
X189657Y264789D01*
X189916Y264162D01*
X190113Y263905D01*
X190126Y263717D01*
Y233533D01*
X189916Y233259D01*
X189657Y232633D01*
X189568Y231961D01*
X189657Y231289D01*
X189916Y230662D01*
X190329Y230124D01*
X190867Y229712D01*
X191493Y229452D01*
X192165Y229364D01*
X192838Y229452D01*
X193464Y229712D01*
X194002Y230124D01*
X194414Y230662D01*
X194674Y231289D01*
X194762Y231961D01*
X194674Y232633D01*
X194414Y233259D01*
X194217Y233516D01*
X194204Y233705D01*
Y263889D01*
X194414Y264162D01*
X194674Y264789D01*
X194762Y265461D01*
X194674Y266133D01*
X194414Y266759D01*
X194002Y267297D01*
X193464Y267710D01*
X192838Y267969D01*
X192165Y268058D01*
D02*
G37*
G36*
X177665Y278317D02*
X176993Y278229D01*
X176367Y277970D01*
X175829Y277557D01*
X175416Y277019D01*
X175157Y276393D01*
X175068Y275721D01*
X175157Y275048D01*
X175416Y274422D01*
X175613Y274165D01*
X175626Y273976D01*
Y225805D01*
X175335Y225514D01*
X174993Y225469D01*
X174367Y225210D01*
X173829Y224797D01*
X173416Y224259D01*
X173157Y223633D01*
X173068Y222961D01*
X173157Y222288D01*
X173416Y221662D01*
X173829Y221124D01*
X174367Y220711D01*
X174993Y220452D01*
X175665Y220364D01*
X176338Y220452D01*
X176964Y220711D01*
X177502Y221124D01*
X177914Y221662D01*
X178174Y222288D01*
X178216Y222609D01*
X178341Y222752D01*
X179107Y223519D01*
X179549Y224180D01*
X179704Y224961D01*
Y274148D01*
X179914Y274422D01*
X180174Y275048D01*
X180262Y275721D01*
X180174Y276393D01*
X179914Y277019D01*
X179502Y277557D01*
X178964Y277970D01*
X178338Y278229D01*
X177665Y278317D01*
D02*
G37*
G36*
X171315Y219216D02*
X163016D01*
Y210917D01*
X171315D01*
Y219216D01*
D02*
G37*
G36*
X167165Y209252D02*
X166082Y209110D01*
X165073Y208692D01*
X164206Y208027D01*
X163541Y207160D01*
X163123Y206150D01*
X162980Y205067D01*
X163123Y203984D01*
X163541Y202974D01*
X164206Y202107D01*
X165073Y201442D01*
X166082Y201024D01*
X167165Y200882D01*
X168249Y201024D01*
X169258Y201442D01*
X170125Y202107D01*
X170790Y202974D01*
X171208Y203984D01*
X171351Y205067D01*
X171208Y206150D01*
X170790Y207160D01*
X170125Y208027D01*
X169258Y208692D01*
X168249Y209110D01*
X167165Y209252D01*
D02*
G37*
G36*
X156815Y188110D02*
X148516D01*
Y179811D01*
X156815D01*
Y188110D01*
D02*
G37*
G36*
X152665Y178146D02*
X151582Y178003D01*
X150573Y177585D01*
X149706Y176920D01*
X149041Y176053D01*
X148623Y175044D01*
X148480Y173961D01*
X148623Y172877D01*
X149041Y171868D01*
X149706Y171001D01*
X150573Y170336D01*
X151582Y169918D01*
X152665Y169775D01*
X153749Y169918D01*
X154758Y170336D01*
X155625Y171001D01*
X156290Y171868D01*
X156708Y172877D01*
X156851Y173961D01*
X156708Y175044D01*
X156290Y176053D01*
X155625Y176920D01*
X154758Y177585D01*
X153749Y178003D01*
X152665Y178146D01*
D02*
G37*
G36*
X199665Y179108D02*
X198466Y178990D01*
X197313Y178640D01*
X196250Y178072D01*
X195318Y177308D01*
X194554Y176376D01*
X193986Y175313D01*
X193636Y174160D01*
X193518Y172961D01*
X193636Y171761D01*
X193986Y170608D01*
X194554Y169545D01*
X195318Y168614D01*
X196250Y167849D01*
X197313Y167281D01*
X198466Y166931D01*
X199665Y166813D01*
X200865Y166931D01*
X202018Y167281D01*
X203081Y167849D01*
X204012Y168614D01*
X204777Y169545D01*
X205345Y170608D01*
X205695Y171761D01*
X205813Y172961D01*
X205695Y174160D01*
X205345Y175313D01*
X204777Y176376D01*
X204012Y177308D01*
X203081Y178072D01*
X202018Y178640D01*
X200865Y178990D01*
X199665Y179108D01*
D02*
G37*
G36*
X184665D02*
X183466Y178990D01*
X182313Y178640D01*
X181250Y178072D01*
X180318Y177308D01*
X179554Y176376D01*
X178986Y175313D01*
X178636Y174160D01*
X178518Y172961D01*
X178636Y171761D01*
X178986Y170608D01*
X179554Y169545D01*
X180318Y168614D01*
X181250Y167849D01*
X182313Y167281D01*
X183466Y166931D01*
X184665Y166813D01*
X185865Y166931D01*
X187018Y167281D01*
X188081Y167849D01*
X189012Y168614D01*
X189777Y169545D01*
X190345Y170608D01*
X190695Y171761D01*
X190813Y172961D01*
X190695Y174160D01*
X190345Y175313D01*
X189777Y176376D01*
X189012Y177308D01*
X188081Y178072D01*
X187018Y178640D01*
X185865Y178990D01*
X184665Y179108D01*
D02*
G37*
G36*
X152665Y168146D02*
X151582Y168003D01*
X150573Y167585D01*
X149706Y166920D01*
X149041Y166053D01*
X148623Y165044D01*
X148480Y163961D01*
X148623Y162877D01*
X149041Y161868D01*
X149706Y161001D01*
X150573Y160336D01*
X151582Y159918D01*
X152665Y159775D01*
X153749Y159918D01*
X154758Y160336D01*
X155625Y161001D01*
X156290Y161868D01*
X156708Y162877D01*
X156851Y163961D01*
X156708Y165044D01*
X156290Y166053D01*
X155625Y166920D01*
X154758Y167585D01*
X153749Y168003D01*
X152665Y168146D01*
D02*
G37*
%LPD*%
G36*
X179654Y286780D02*
X179562Y286776D01*
X179471Y286764D01*
X179381Y286743D01*
X179291Y286713D01*
X179202Y286674D01*
X179113Y286627D01*
X179024Y286571D01*
X178936Y286506D01*
X178848Y286432D01*
X178761Y286349D01*
X178054Y287056D01*
X178137Y287144D01*
X178210Y287231D01*
X178275Y287319D01*
X178332Y287408D01*
X178379Y287497D01*
X178418Y287586D01*
X178447Y287676D01*
X178469Y287767D01*
X178481Y287858D01*
X178484Y287949D01*
X179654Y286780D01*
D02*
G37*
G36*
X168669Y245619D02*
X168678Y245505D01*
X168695Y245397D01*
X168718Y245294D01*
X168747Y245198D01*
X168783Y245108D01*
X168825Y245023D01*
X168875Y244944D01*
X168930Y244871D01*
X168992Y244804D01*
X167339D01*
X167401Y244871D01*
X167456Y244944D01*
X167505Y245023D01*
X167548Y245108D01*
X167584Y245198D01*
X167613Y245294D01*
X167636Y245397D01*
X167652Y245505D01*
X167662Y245619D01*
X167665Y245739D01*
X168665D01*
X168669Y245619D01*
D02*
G37*
G36*
X154248Y269808D02*
X154231Y269762D01*
X154216Y269701D01*
X154202Y269622D01*
X154182Y269415D01*
X154169Y269140D01*
X154165Y268799D01*
X152165D01*
X152164Y268978D01*
X152115Y269701D01*
X152100Y269762D01*
X152082Y269808D01*
X152063Y269836D01*
X154268D01*
X154248Y269808D01*
D02*
G37*
G36*
X154165Y256156D02*
X154171Y255813D01*
X154216Y255189D01*
X154255Y254908D01*
X154305Y254648D01*
X154366Y254410D01*
X154439Y254191D01*
X154523Y253994D01*
X154618Y253818D01*
X154724Y253663D01*
X151607D01*
X151713Y253818D01*
X151808Y253994D01*
X151892Y254192D01*
X151964Y254410D01*
X152026Y254648D01*
X152076Y254908D01*
X152115Y255189D01*
X152160Y255813D01*
X152165Y256156D01*
X154165Y256156D01*
D02*
G37*
G36*
X154654Y245780D02*
X154562Y245776D01*
X154471Y245764D01*
X154381Y245743D01*
X154291Y245713D01*
X154202Y245674D01*
X154113Y245627D01*
X154024Y245571D01*
X153936Y245506D01*
X153848Y245432D01*
X153761Y245349D01*
X153054Y246056D01*
X153137Y246144D01*
X153210Y246231D01*
X153275Y246319D01*
X153332Y246408D01*
X153379Y246497D01*
X153418Y246586D01*
X153447Y246676D01*
X153469Y246767D01*
X153481Y246858D01*
X153484Y246949D01*
X154654Y245780D01*
D02*
G37*
G36*
X153670Y245188D02*
X153685Y245024D01*
X153710Y244872D01*
X153745Y244733D01*
X153790Y244606D01*
X153845Y244491D01*
X153910Y244389D01*
X153985Y244299D01*
X154070Y244221D01*
X154165Y244156D01*
X152165D01*
X152260Y244221D01*
X152345Y244299D01*
X152420Y244389D01*
X152485Y244491D01*
X152540Y244606D01*
X152585Y244733D01*
X152620Y244872D01*
X152645Y245024D01*
X152660Y245188D01*
X152665Y245365D01*
X153665D01*
X153670Y245188D01*
D02*
G37*
G36*
X155519Y234107D02*
X155402Y233985D01*
X155212Y233755D01*
X155140Y233647D01*
X155083Y233544D01*
X155042Y233447D01*
X155015Y233354D01*
X155003Y233266D01*
X155007Y233183D01*
X155025Y233105D01*
X153809Y234321D01*
X153887Y234302D01*
X153971Y234299D01*
X154058Y234310D01*
X154151Y234337D01*
X154249Y234379D01*
X154352Y234436D01*
X154459Y234508D01*
X154572Y234595D01*
X154689Y234697D01*
X154812Y234814D01*
X155519Y234107D01*
D02*
G37*
G36*
X156822Y233634D02*
X156755Y233696D01*
X156682Y233752D01*
X156603Y233801D01*
X156518Y233843D01*
X156428Y233879D01*
X156331Y233908D01*
X156229Y233931D01*
X156121Y233948D01*
X156007Y233957D01*
X155887Y233961D01*
Y234961D01*
X156007Y234964D01*
X156121Y234974D01*
X156229Y234990D01*
X156331Y235013D01*
X156428Y235042D01*
X156518Y235078D01*
X156603Y235121D01*
X156682Y235170D01*
X156755Y235225D01*
X156822Y235287D01*
Y233634D01*
D02*
G37*
G36*
X193248Y264308D02*
X193231Y264262D01*
X193216Y264200D01*
X193202Y264122D01*
X193182Y263915D01*
X193169Y263640D01*
X193165Y263299D01*
X191165D01*
X191164Y263478D01*
X191115Y264200D01*
X191100Y264262D01*
X191082Y264308D01*
X191063Y264336D01*
X193268D01*
X193248Y264308D01*
D02*
G37*
G36*
X193166Y233943D02*
X193216Y233221D01*
X193231Y233159D01*
X193248Y233114D01*
X193268Y233085D01*
X191063D01*
X191082Y233114D01*
X191100Y233159D01*
X191115Y233221D01*
X191129Y233299D01*
X191149Y233507D01*
X191161Y233781D01*
X191165Y234122D01*
X193165D01*
X193166Y233943D01*
D02*
G37*
G36*
X178748Y274567D02*
X178731Y274522D01*
X178716Y274460D01*
X178702Y274382D01*
X178682Y274174D01*
X178669Y273900D01*
X178665Y273559D01*
X176665D01*
X176664Y273738D01*
X176615Y274460D01*
X176600Y274522D01*
X176582Y274567D01*
X176563Y274596D01*
X178768D01*
X178748Y274567D01*
D02*
G37*
G36*
X177901Y223782D02*
X177775Y223655D01*
X177299Y223109D01*
X177266Y223055D01*
X177246Y223010D01*
X177240Y222976D01*
X175681Y224535D01*
X175715Y224542D01*
X175759Y224561D01*
X175814Y224594D01*
X175879Y224640D01*
X176040Y224773D01*
X176242Y224958D01*
X176487Y225196D01*
X177901Y223782D01*
D02*
G37*
%LPC*%
G36*
X116673Y290184D02*
X115822Y290015D01*
X115101Y289533D01*
X114757Y289018D01*
X114743Y289013D01*
X114104D01*
X114090Y289018D01*
X113746Y289533D01*
X113024Y290015D01*
X112173Y290184D01*
X111322Y290015D01*
X110601Y289533D01*
X110119Y288812D01*
X109949Y287961D01*
X110119Y287110D01*
X110335Y286786D01*
X104092Y280542D01*
X103760Y280046D01*
X103644Y279461D01*
Y245603D01*
X103641Y245584D01*
X103635Y245556D01*
X103601Y245533D01*
X103119Y244812D01*
X102949Y243961D01*
X103119Y243110D01*
X103601Y242388D01*
X104322Y241906D01*
X105173Y241737D01*
X106024Y241906D01*
X106746Y242388D01*
X107228Y243110D01*
X107397Y243961D01*
X107228Y244812D01*
X107227Y244813D01*
X107588Y245353D01*
X108173Y245237D01*
X109024Y245406D01*
X109746Y245888D01*
X110228Y246610D01*
X110397Y247461D01*
X110228Y248312D01*
X109746Y249033D01*
X109024Y249515D01*
X108703Y249579D01*
Y277827D01*
X116593Y285718D01*
X116609Y285729D01*
X116633Y285745D01*
X116673Y285737D01*
X117524Y285906D01*
X118246Y286388D01*
X118728Y287110D01*
X118897Y287961D01*
X118728Y288812D01*
X118246Y289533D01*
X117524Y290015D01*
X116673Y290184D01*
D02*
G37*
G36*
X90173Y273558D02*
X89501Y273469D01*
X88875Y273210D01*
X88337Y272797D01*
X87924Y272259D01*
X87665Y271633D01*
X87576Y270961D01*
X87665Y270288D01*
X87924Y269662D01*
X88121Y269405D01*
X88134Y269216D01*
Y255654D01*
X88108Y255296D01*
X88078Y255075D01*
X88038Y254872D01*
X87994Y254698D01*
X87945Y254553D01*
X87896Y254437D01*
X87849Y254349D01*
X87773Y254239D01*
X87744Y254172D01*
X87580Y253958D01*
X87281Y253236D01*
X87179Y252461D01*
X87192Y252363D01*
X86731Y251903D01*
X86289Y251241D01*
X86134Y250461D01*
Y248835D01*
X86119Y248812D01*
X85949Y247961D01*
X86119Y247110D01*
X86601Y246388D01*
X87322Y245906D01*
X88090Y245753D01*
X88221Y245684D01*
X88369Y245521D01*
X88385Y245484D01*
X88302Y244767D01*
X88056Y244578D01*
X87580Y243958D01*
X87281Y243236D01*
X87179Y242461D01*
X87281Y241686D01*
X87580Y240964D01*
X88056Y240343D01*
X88676Y239868D01*
X89398Y239568D01*
X90173Y239467D01*
X90948Y239568D01*
X91670Y239868D01*
X92290Y240343D01*
X92766Y240964D01*
X93065Y241686D01*
X93167Y242461D01*
X93065Y243236D01*
X92766Y243958D01*
X92510Y244291D01*
X92514Y244456D01*
X92664Y244992D01*
X92681Y245011D01*
X93246Y245388D01*
X93728Y246110D01*
X93897Y246961D01*
X93728Y247812D01*
X93246Y248533D01*
X92524Y249015D01*
X91673Y249184D01*
X91511Y249152D01*
X91336Y249729D01*
X91670Y249868D01*
X92290Y250343D01*
X92766Y250964D01*
X93065Y251686D01*
X93167Y252461D01*
X93065Y253236D01*
X92766Y253958D01*
X92602Y254172D01*
X92573Y254239D01*
X92498Y254349D01*
X92450Y254437D01*
X92401Y254553D01*
X92353Y254698D01*
X92308Y254872D01*
X92269Y255075D01*
X92238Y255296D01*
X92212Y255654D01*
Y269389D01*
X92422Y269662D01*
X92682Y270288D01*
X92770Y270961D01*
X92682Y271633D01*
X92422Y272259D01*
X92010Y272797D01*
X91472Y273210D01*
X90845Y273469D01*
X90173Y273558D01*
D02*
G37*
G36*
X94673Y236684D02*
X93822Y236515D01*
X93101Y236033D01*
X93078Y235999D01*
X93049Y235993D01*
X93031Y235990D01*
X92173D01*
X91588Y235874D01*
X91092Y235542D01*
X90934Y235384D01*
X90933Y235383D01*
X90901Y235359D01*
X90173Y235455D01*
X89398Y235353D01*
X88676Y235054D01*
X88056Y234578D01*
X87580Y233958D01*
X87281Y233236D01*
X87179Y232461D01*
X87281Y231686D01*
X87580Y230964D01*
X88056Y230344D01*
X88676Y229868D01*
X89398Y229569D01*
X90173Y229467D01*
X90948Y229569D01*
X91670Y229868D01*
X92290Y230344D01*
X92766Y230964D01*
X93065Y231686D01*
X93126Y232149D01*
X93741Y232460D01*
X93822Y232406D01*
X94673Y232237D01*
X95524Y232406D01*
X96246Y232888D01*
X96728Y233610D01*
X96897Y234461D01*
X96728Y235312D01*
X96246Y236033D01*
X95524Y236515D01*
X94673Y236684D01*
D02*
G37*
G36*
X129173Y268058D02*
X128501Y267969D01*
X127875Y267710D01*
X127337Y267297D01*
X126924Y266759D01*
X126665Y266133D01*
X126576Y265461D01*
X126665Y264789D01*
X126924Y264162D01*
X127121Y263905D01*
X127134Y263717D01*
Y233533D01*
X126924Y233259D01*
X126665Y232633D01*
X126576Y231961D01*
X126665Y231289D01*
X126924Y230662D01*
X127337Y230124D01*
X127875Y229712D01*
X128501Y229452D01*
X129173Y229364D01*
X129845Y229452D01*
X130472Y229712D01*
X131010Y230124D01*
X131422Y230662D01*
X131682Y231289D01*
X131770Y231961D01*
X131682Y232633D01*
X131422Y233259D01*
X131225Y233516D01*
X131212Y233705D01*
Y263889D01*
X131422Y264162D01*
X131682Y264789D01*
X131770Y265461D01*
X131682Y266133D01*
X131422Y266759D01*
X131010Y267297D01*
X130472Y267710D01*
X129845Y267969D01*
X129173Y268058D01*
D02*
G37*
G36*
X114673Y278317D02*
X114001Y278229D01*
X113375Y277970D01*
X112837Y277557D01*
X112424Y277019D01*
X112165Y276393D01*
X112076Y275721D01*
X112165Y275048D01*
X112424Y274422D01*
X112621Y274165D01*
X112634Y273976D01*
Y225805D01*
X112343Y225514D01*
X112001Y225469D01*
X111375Y225210D01*
X110837Y224797D01*
X110424Y224259D01*
X110165Y223633D01*
X110076Y222961D01*
X110165Y222288D01*
X110424Y221662D01*
X110837Y221124D01*
X111375Y220711D01*
X112001Y220452D01*
X112673Y220364D01*
X113345Y220452D01*
X113972Y220711D01*
X114510Y221124D01*
X114922Y221662D01*
X115182Y222288D01*
X115224Y222609D01*
X115348Y222752D01*
X116115Y223519D01*
X116557Y224180D01*
X116712Y224961D01*
Y274148D01*
X116922Y274422D01*
X117182Y275048D01*
X117270Y275721D01*
X117182Y276393D01*
X116922Y277019D01*
X116510Y277557D01*
X115972Y277970D01*
X115345Y278229D01*
X114673Y278317D01*
D02*
G37*
G36*
X108323Y219216D02*
X100024D01*
Y210917D01*
X108323D01*
Y219216D01*
D02*
G37*
G36*
X104173Y209252D02*
X103090Y209110D01*
X102081Y208692D01*
X101214Y208027D01*
X100549Y207160D01*
X100130Y206150D01*
X99988Y205067D01*
X100130Y203984D01*
X100549Y202974D01*
X101214Y202107D01*
X102081Y201442D01*
X103090Y201024D01*
X104173Y200882D01*
X105256Y201024D01*
X106266Y201442D01*
X107133Y202107D01*
X107798Y202974D01*
X108216Y203984D01*
X108359Y205067D01*
X108216Y206150D01*
X107798Y207160D01*
X107133Y208027D01*
X106266Y208692D01*
X105256Y209110D01*
X104173Y209252D01*
D02*
G37*
G36*
X93823Y188110D02*
X85524D01*
Y179811D01*
X93823D01*
Y188110D01*
D02*
G37*
G36*
X89673Y178146D02*
X88590Y178003D01*
X87581Y177585D01*
X86714Y176920D01*
X86049Y176053D01*
X85630Y175044D01*
X85488Y173961D01*
X85630Y172877D01*
X86049Y171868D01*
X86714Y171001D01*
X87581Y170336D01*
X88590Y169918D01*
X89673Y169775D01*
X90756Y169918D01*
X91766Y170336D01*
X92633Y171001D01*
X93298Y171868D01*
X93716Y172877D01*
X93859Y173961D01*
X93716Y175044D01*
X93298Y176053D01*
X92633Y176920D01*
X91766Y177585D01*
X90756Y178003D01*
X89673Y178146D01*
D02*
G37*
G36*
X136673Y179108D02*
X135474Y178990D01*
X134321Y178640D01*
X133258Y178072D01*
X132326Y177308D01*
X131562Y176376D01*
X130993Y175313D01*
X130644Y174160D01*
X130526Y172961D01*
X130644Y171761D01*
X130993Y170608D01*
X131562Y169545D01*
X132326Y168614D01*
X133258Y167849D01*
X134321Y167281D01*
X135474Y166931D01*
X136673Y166813D01*
X137873Y166931D01*
X139026Y167281D01*
X140089Y167849D01*
X141020Y168614D01*
X141785Y169545D01*
X142353Y170608D01*
X142703Y171761D01*
X142821Y172961D01*
X142703Y174160D01*
X142353Y175313D01*
X141785Y176376D01*
X141020Y177308D01*
X140089Y178072D01*
X139026Y178640D01*
X137873Y178990D01*
X136673Y179108D01*
D02*
G37*
G36*
X121673D02*
X120474Y178990D01*
X119321Y178640D01*
X118258Y178072D01*
X117326Y177308D01*
X116562Y176376D01*
X115993Y175313D01*
X115644Y174160D01*
X115525Y172961D01*
X115644Y171761D01*
X115993Y170608D01*
X116562Y169545D01*
X117326Y168614D01*
X118258Y167849D01*
X119321Y167281D01*
X120474Y166931D01*
X121673Y166813D01*
X122873Y166931D01*
X124026Y167281D01*
X125089Y167849D01*
X126020Y168614D01*
X126785Y169545D01*
X127353Y170608D01*
X127703Y171761D01*
X127821Y172961D01*
X127703Y174160D01*
X127353Y175313D01*
X126785Y176376D01*
X126020Y177308D01*
X125089Y178072D01*
X124026Y178640D01*
X122873Y178990D01*
X121673Y179108D01*
D02*
G37*
G36*
X89673Y168146D02*
X88590Y168003D01*
X87581Y167585D01*
X86714Y166920D01*
X86049Y166053D01*
X85630Y165044D01*
X85488Y163961D01*
X85630Y162877D01*
X86049Y161868D01*
X86714Y161001D01*
X87581Y160336D01*
X88590Y159918D01*
X89673Y159775D01*
X90756Y159918D01*
X91766Y160336D01*
X92633Y161001D01*
X93298Y161868D01*
X93716Y162877D01*
X93859Y163961D01*
X93716Y165044D01*
X93298Y166053D01*
X92633Y166920D01*
X91766Y167585D01*
X90756Y168003D01*
X89673Y168146D01*
D02*
G37*
%LPD*%
G36*
X116661Y286780D02*
X116570Y286776D01*
X116479Y286764D01*
X116389Y286743D01*
X116299Y286713D01*
X116209Y286674D01*
X116121Y286627D01*
X116032Y286571D01*
X115944Y286506D01*
X115856Y286432D01*
X115769Y286349D01*
X115062Y287056D01*
X115145Y287144D01*
X115218Y287231D01*
X115283Y287319D01*
X115340Y287408D01*
X115387Y287497D01*
X115426Y287586D01*
X115455Y287676D01*
X115476Y287767D01*
X115489Y287858D01*
X115492Y287949D01*
X116661Y286780D01*
D02*
G37*
G36*
X105676Y245619D02*
X105686Y245505D01*
X105703Y245397D01*
X105726Y245294D01*
X105755Y245198D01*
X105791Y245108D01*
X105833Y245023D01*
X105882Y244944D01*
X105938Y244871D01*
X106000Y244804D01*
X104347D01*
X104409Y244871D01*
X104464Y244944D01*
X104513Y245023D01*
X104556Y245108D01*
X104592Y245198D01*
X104621Y245294D01*
X104644Y245397D01*
X104660Y245505D01*
X104670Y245619D01*
X104673Y245739D01*
X105673D01*
X105676Y245619D01*
D02*
G37*
G36*
X91256Y269808D02*
X91239Y269762D01*
X91223Y269701D01*
X91210Y269622D01*
X91190Y269415D01*
X91177Y269140D01*
X91173Y268799D01*
X89173D01*
X89172Y268978D01*
X89123Y269701D01*
X89108Y269762D01*
X89090Y269808D01*
X89071Y269836D01*
X91276D01*
X91256Y269808D01*
D02*
G37*
G36*
X91173Y256156D02*
X91179Y255813D01*
X91224Y255189D01*
X91263Y254908D01*
X91313Y254648D01*
X91374Y254410D01*
X91447Y254191D01*
X91531Y253994D01*
X91626Y253818D01*
X91732Y253663D01*
X88615D01*
X88721Y253818D01*
X88816Y253994D01*
X88900Y254192D01*
X88972Y254410D01*
X89034Y254648D01*
X89084Y254908D01*
X89123Y255189D01*
X89168Y255813D01*
X89173Y256156D01*
X91173Y256156D01*
D02*
G37*
G36*
X91661Y245780D02*
X91570Y245776D01*
X91479Y245764D01*
X91389Y245743D01*
X91299Y245713D01*
X91210Y245674D01*
X91120Y245627D01*
X91032Y245571D01*
X90944Y245506D01*
X90856Y245432D01*
X90769Y245349D01*
X90062Y246056D01*
X90144Y246144D01*
X90218Y246231D01*
X90283Y246319D01*
X90339Y246408D01*
X90387Y246497D01*
X90425Y246586D01*
X90455Y246676D01*
X90476Y246767D01*
X90489Y246858D01*
X90492Y246949D01*
X91661Y245780D01*
D02*
G37*
G36*
X90678Y245188D02*
X90693Y245024D01*
X90718Y244872D01*
X90753Y244733D01*
X90798Y244606D01*
X90853Y244491D01*
X90918Y244389D01*
X90993Y244299D01*
X91078Y244221D01*
X91173Y244156D01*
X89173D01*
X89268Y244221D01*
X89353Y244299D01*
X89428Y244389D01*
X89493Y244491D01*
X89548Y244606D01*
X89593Y244733D01*
X89628Y244872D01*
X89653Y245024D01*
X89668Y245188D01*
X89673Y245365D01*
X90673D01*
X90678Y245188D01*
D02*
G37*
G36*
X92527Y234107D02*
X92409Y233985D01*
X92220Y233755D01*
X92148Y233647D01*
X92091Y233544D01*
X92049Y233447D01*
X92023Y233354D01*
X92011Y233266D01*
X92015Y233183D01*
X92033Y233105D01*
X90817Y234321D01*
X90895Y234302D01*
X90978Y234299D01*
X91066Y234310D01*
X91159Y234337D01*
X91257Y234379D01*
X91360Y234436D01*
X91467Y234508D01*
X91580Y234595D01*
X91697Y234697D01*
X91820Y234814D01*
X92527Y234107D01*
D02*
G37*
G36*
X93830Y233634D02*
X93763Y233696D01*
X93690Y233752D01*
X93611Y233801D01*
X93526Y233843D01*
X93436Y233879D01*
X93339Y233908D01*
X93237Y233931D01*
X93129Y233948D01*
X93015Y233957D01*
X92895Y233961D01*
Y234961D01*
X93015Y234964D01*
X93129Y234974D01*
X93237Y234990D01*
X93339Y235013D01*
X93436Y235042D01*
X93526Y235078D01*
X93611Y235121D01*
X93690Y235170D01*
X93763Y235225D01*
X93830Y235287D01*
Y233634D01*
D02*
G37*
G36*
X130256Y264308D02*
X130239Y264262D01*
X130223Y264200D01*
X130210Y264122D01*
X130190Y263915D01*
X130177Y263640D01*
X130173Y263299D01*
X128173D01*
X128172Y263478D01*
X128123Y264200D01*
X128108Y264262D01*
X128090Y264308D01*
X128071Y264336D01*
X130276D01*
X130256Y264308D01*
D02*
G37*
G36*
X130174Y233943D02*
X130223Y233221D01*
X130239Y233159D01*
X130256Y233114D01*
X130276Y233085D01*
X128071D01*
X128090Y233114D01*
X128108Y233159D01*
X128123Y233221D01*
X128136Y233299D01*
X128157Y233507D01*
X128169Y233781D01*
X128173Y234122D01*
X130173D01*
X130174Y233943D01*
D02*
G37*
G36*
X115756Y274567D02*
X115739Y274522D01*
X115723Y274460D01*
X115710Y274382D01*
X115690Y274174D01*
X115677Y273900D01*
X115673Y273559D01*
X113673D01*
X113672Y273738D01*
X113623Y274460D01*
X113608Y274522D01*
X113590Y274567D01*
X113571Y274596D01*
X115776D01*
X115756Y274567D01*
D02*
G37*
G36*
X114909Y223782D02*
X114783Y223655D01*
X114307Y223109D01*
X114274Y223055D01*
X114254Y223010D01*
X114248Y222976D01*
X112689Y224535D01*
X112723Y224542D01*
X112767Y224561D01*
X112822Y224594D01*
X112887Y224640D01*
X113048Y224773D01*
X113250Y224958D01*
X113495Y225196D01*
X114909Y223782D01*
D02*
G37*
%LPC*%
G36*
X53681Y290184D02*
X52830Y290015D01*
X52109Y289533D01*
X51764Y289018D01*
X51751Y289013D01*
X51112D01*
X51098Y289018D01*
X50754Y289533D01*
X50032Y290015D01*
X49181Y290184D01*
X48330Y290015D01*
X47609Y289533D01*
X47127Y288812D01*
X46957Y287961D01*
X47127Y287110D01*
X47343Y286786D01*
X41100Y280542D01*
X40768Y280046D01*
X40652Y279461D01*
Y245603D01*
X40649Y245584D01*
X40642Y245556D01*
X40609Y245533D01*
X40127Y244812D01*
X39957Y243961D01*
X40127Y243110D01*
X40609Y242388D01*
X41330Y241906D01*
X42181Y241737D01*
X43032Y241906D01*
X43754Y242388D01*
X44236Y243110D01*
X44405Y243961D01*
X44236Y244812D01*
X44234Y244813D01*
X44595Y245353D01*
X45181Y245237D01*
X46032Y245406D01*
X46754Y245888D01*
X47236Y246610D01*
X47405Y247461D01*
X47236Y248312D01*
X46754Y249033D01*
X46032Y249515D01*
X45711Y249579D01*
Y277827D01*
X53601Y285718D01*
X53616Y285729D01*
X53641Y285745D01*
X53681Y285737D01*
X54532Y285906D01*
X55254Y286388D01*
X55736Y287110D01*
X55905Y287961D01*
X55736Y288812D01*
X55254Y289533D01*
X54532Y290015D01*
X53681Y290184D01*
D02*
G37*
G36*
X27181Y273558D02*
X26509Y273469D01*
X25883Y273210D01*
X25345Y272797D01*
X24932Y272259D01*
X24673Y271633D01*
X24584Y270961D01*
X24673Y270288D01*
X24932Y269662D01*
X25129Y269405D01*
X25142Y269216D01*
Y255654D01*
X25116Y255296D01*
X25086Y255075D01*
X25046Y254872D01*
X25001Y254698D01*
X24953Y254553D01*
X24904Y254437D01*
X24857Y254349D01*
X24781Y254239D01*
X24752Y254172D01*
X24588Y253958D01*
X24289Y253236D01*
X24187Y252461D01*
X24200Y252363D01*
X23739Y251903D01*
X23297Y251241D01*
X23142Y250461D01*
Y248835D01*
X23127Y248812D01*
X22957Y247961D01*
X23127Y247110D01*
X23609Y246388D01*
X24330Y245906D01*
X25098Y245753D01*
X25229Y245684D01*
X25377Y245521D01*
X25393Y245484D01*
X25310Y244767D01*
X25064Y244578D01*
X24588Y243958D01*
X24289Y243236D01*
X24187Y242461D01*
X24289Y241686D01*
X24588Y240964D01*
X25064Y240343D01*
X25684Y239868D01*
X26406Y239568D01*
X27181Y239467D01*
X27956Y239568D01*
X28678Y239868D01*
X29298Y240343D01*
X29774Y240964D01*
X30073Y241686D01*
X30175Y242461D01*
X30073Y243236D01*
X29774Y243958D01*
X29518Y244291D01*
X29522Y244456D01*
X29671Y244992D01*
X29689Y245011D01*
X30254Y245388D01*
X30736Y246110D01*
X30905Y246961D01*
X30736Y247812D01*
X30254Y248533D01*
X29532Y249015D01*
X28681Y249184D01*
X28519Y249152D01*
X28344Y249729D01*
X28678Y249868D01*
X29298Y250343D01*
X29774Y250964D01*
X30073Y251686D01*
X30175Y252461D01*
X30073Y253236D01*
X29774Y253958D01*
X29610Y254172D01*
X29581Y254239D01*
X29506Y254349D01*
X29458Y254437D01*
X29409Y254553D01*
X29361Y254698D01*
X29316Y254872D01*
X29277Y255075D01*
X29246Y255296D01*
X29220Y255654D01*
Y269389D01*
X29430Y269662D01*
X29690Y270288D01*
X29778Y270961D01*
X29690Y271633D01*
X29430Y272259D01*
X29017Y272797D01*
X28480Y273210D01*
X27853Y273469D01*
X27181Y273558D01*
D02*
G37*
G36*
X31681Y236684D02*
X30830Y236515D01*
X30109Y236033D01*
X30086Y235999D01*
X30057Y235993D01*
X30038Y235990D01*
X29181D01*
X28596Y235874D01*
X28100Y235542D01*
X27942Y235384D01*
X27940Y235383D01*
X27909Y235359D01*
X27181Y235455D01*
X26406Y235353D01*
X25684Y235054D01*
X25064Y234578D01*
X24588Y233958D01*
X24289Y233236D01*
X24187Y232461D01*
X24289Y231686D01*
X24588Y230964D01*
X25064Y230344D01*
X25684Y229868D01*
X26406Y229569D01*
X27181Y229467D01*
X27956Y229569D01*
X28678Y229868D01*
X29298Y230344D01*
X29774Y230964D01*
X30073Y231686D01*
X30134Y232149D01*
X30749Y232460D01*
X30830Y232406D01*
X31681Y232237D01*
X32532Y232406D01*
X33254Y232888D01*
X33736Y233610D01*
X33905Y234461D01*
X33736Y235312D01*
X33254Y236033D01*
X32532Y236515D01*
X31681Y236684D01*
D02*
G37*
G36*
X66181Y268058D02*
X65509Y267969D01*
X64883Y267710D01*
X64345Y267297D01*
X63932Y266759D01*
X63673Y266133D01*
X63584Y265461D01*
X63673Y264789D01*
X63932Y264162D01*
X64129Y263905D01*
X64142Y263717D01*
Y233533D01*
X63932Y233259D01*
X63673Y232633D01*
X63584Y231961D01*
X63673Y231289D01*
X63932Y230662D01*
X64345Y230124D01*
X64883Y229712D01*
X65509Y229452D01*
X66181Y229364D01*
X66853Y229452D01*
X67480Y229712D01*
X68018Y230124D01*
X68430Y230662D01*
X68690Y231289D01*
X68778Y231961D01*
X68690Y232633D01*
X68430Y233259D01*
X68233Y233516D01*
X68220Y233705D01*
Y263889D01*
X68430Y264162D01*
X68690Y264789D01*
X68778Y265461D01*
X68690Y266133D01*
X68430Y266759D01*
X68018Y267297D01*
X67480Y267710D01*
X66853Y267969D01*
X66181Y268058D01*
D02*
G37*
G36*
X51681Y278317D02*
X51009Y278229D01*
X50383Y277970D01*
X49845Y277557D01*
X49432Y277019D01*
X49173Y276393D01*
X49084Y275721D01*
X49173Y275048D01*
X49432Y274422D01*
X49629Y274165D01*
X49642Y273976D01*
Y225805D01*
X49351Y225514D01*
X49009Y225469D01*
X48383Y225210D01*
X47845Y224797D01*
X47432Y224259D01*
X47173Y223633D01*
X47084Y222961D01*
X47173Y222288D01*
X47432Y221662D01*
X47845Y221124D01*
X48383Y220711D01*
X49009Y220452D01*
X49681Y220364D01*
X50353Y220452D01*
X50980Y220711D01*
X51517Y221124D01*
X51930Y221662D01*
X52190Y222288D01*
X52232Y222609D01*
X52356Y222752D01*
X53123Y223519D01*
X53565Y224180D01*
X53720Y224961D01*
Y274148D01*
X53930Y274422D01*
X54190Y275048D01*
X54278Y275721D01*
X54190Y276393D01*
X53930Y277019D01*
X53518Y277557D01*
X52980Y277970D01*
X52353Y278229D01*
X51681Y278317D01*
D02*
G37*
G36*
X45331Y219216D02*
X37031D01*
Y210917D01*
X45331D01*
Y219216D01*
D02*
G37*
G36*
X41181Y209252D02*
X40098Y209110D01*
X39088Y208692D01*
X38222Y208027D01*
X37556Y207160D01*
X37138Y206150D01*
X36996Y205067D01*
X37138Y203984D01*
X37556Y202974D01*
X38222Y202107D01*
X39088Y201442D01*
X40098Y201024D01*
X41181Y200882D01*
X42264Y201024D01*
X43274Y201442D01*
X44141Y202107D01*
X44806Y202974D01*
X45224Y203984D01*
X45366Y205067D01*
X45224Y206150D01*
X44806Y207160D01*
X44141Y208027D01*
X43274Y208692D01*
X42264Y209110D01*
X41181Y209252D01*
D02*
G37*
G36*
X30831Y188110D02*
X22532D01*
Y179811D01*
X30831D01*
Y188110D01*
D02*
G37*
G36*
X26681Y178146D02*
X25598Y178003D01*
X24588Y177585D01*
X23722Y176920D01*
X23056Y176053D01*
X22638Y175044D01*
X22496Y173961D01*
X22638Y172877D01*
X23056Y171868D01*
X23722Y171001D01*
X24588Y170336D01*
X25598Y169918D01*
X26681Y169775D01*
X27764Y169918D01*
X28774Y170336D01*
X29641Y171001D01*
X30306Y171868D01*
X30724Y172877D01*
X30867Y173961D01*
X30724Y175044D01*
X30306Y176053D01*
X29641Y176920D01*
X28774Y177585D01*
X27764Y178003D01*
X26681Y178146D01*
D02*
G37*
G36*
X73681Y179108D02*
X72482Y178990D01*
X71329Y178640D01*
X70266Y178072D01*
X69334Y177308D01*
X68569Y176376D01*
X68001Y175313D01*
X67651Y174160D01*
X67533Y172961D01*
X67651Y171761D01*
X68001Y170608D01*
X68569Y169545D01*
X69334Y168614D01*
X70266Y167849D01*
X71329Y167281D01*
X72482Y166931D01*
X73681Y166813D01*
X74880Y166931D01*
X76034Y167281D01*
X77097Y167849D01*
X78028Y168614D01*
X78793Y169545D01*
X79361Y170608D01*
X79711Y171761D01*
X79829Y172961D01*
X79711Y174160D01*
X79361Y175313D01*
X78793Y176376D01*
X78028Y177308D01*
X77097Y178072D01*
X76034Y178640D01*
X74880Y178990D01*
X73681Y179108D01*
D02*
G37*
G36*
X58681D02*
X57482Y178990D01*
X56328Y178640D01*
X55266Y178072D01*
X54334Y177308D01*
X53570Y176376D01*
X53001Y175313D01*
X52652Y174160D01*
X52533Y172961D01*
X52652Y171761D01*
X53001Y170608D01*
X53570Y169545D01*
X54334Y168614D01*
X55266Y167849D01*
X56328Y167281D01*
X57482Y166931D01*
X58681Y166813D01*
X59881Y166931D01*
X61034Y167281D01*
X62097Y167849D01*
X63028Y168614D01*
X63793Y169545D01*
X64361Y170608D01*
X64711Y171761D01*
X64829Y172961D01*
X64711Y174160D01*
X64361Y175313D01*
X63793Y176376D01*
X63028Y177308D01*
X62097Y178072D01*
X61034Y178640D01*
X59881Y178990D01*
X58681Y179108D01*
D02*
G37*
G36*
X26681Y168146D02*
X25598Y168003D01*
X24588Y167585D01*
X23722Y166920D01*
X23056Y166053D01*
X22638Y165044D01*
X22496Y163961D01*
X22638Y162877D01*
X23056Y161868D01*
X23722Y161001D01*
X24588Y160336D01*
X25598Y159918D01*
X26681Y159775D01*
X27764Y159918D01*
X28774Y160336D01*
X29641Y161001D01*
X30306Y161868D01*
X30724Y162877D01*
X30867Y163961D01*
X30724Y165044D01*
X30306Y166053D01*
X29641Y166920D01*
X28774Y167585D01*
X27764Y168003D01*
X26681Y168146D01*
D02*
G37*
%LPD*%
G36*
X53669Y286780D02*
X53578Y286776D01*
X53487Y286764D01*
X53397Y286743D01*
X53307Y286713D01*
X53217Y286674D01*
X53128Y286627D01*
X53040Y286571D01*
X52952Y286506D01*
X52864Y286432D01*
X52777Y286349D01*
X52070Y287056D01*
X52152Y287144D01*
X52226Y287231D01*
X52291Y287319D01*
X52347Y287408D01*
X52395Y287497D01*
X52433Y287586D01*
X52463Y287676D01*
X52484Y287767D01*
X52497Y287858D01*
X52500Y287949D01*
X53669Y286780D01*
D02*
G37*
G36*
X42684Y245619D02*
X42694Y245505D01*
X42711Y245397D01*
X42733Y245294D01*
X42763Y245198D01*
X42799Y245108D01*
X42841Y245023D01*
X42890Y244944D01*
X42946Y244871D01*
X43008Y244804D01*
X41354D01*
X41416Y244871D01*
X41472Y244944D01*
X41521Y245023D01*
X41563Y245108D01*
X41599Y245198D01*
X41629Y245294D01*
X41652Y245397D01*
X41668Y245505D01*
X41678Y245619D01*
X41681Y245739D01*
X42681D01*
X42684Y245619D01*
D02*
G37*
G36*
X28264Y269808D02*
X28247Y269762D01*
X28231Y269701D01*
X28218Y269622D01*
X28198Y269415D01*
X28185Y269140D01*
X28181Y268799D01*
X26181D01*
X26180Y268978D01*
X26131Y269701D01*
X26116Y269762D01*
X26098Y269808D01*
X26079Y269836D01*
X28284D01*
X28264Y269808D01*
D02*
G37*
G36*
X28181Y256156D02*
X28187Y255813D01*
X28231Y255189D01*
X28271Y254908D01*
X28321Y254648D01*
X28382Y254410D01*
X28455Y254191D01*
X28539Y253994D01*
X28633Y253818D01*
X28740Y253663D01*
X25623D01*
X25729Y253818D01*
X25824Y253994D01*
X25907Y254192D01*
X25980Y254410D01*
X26041Y254648D01*
X26092Y254908D01*
X26131Y255189D01*
X26175Y255813D01*
X26181Y256156D01*
X28181Y256156D01*
D02*
G37*
G36*
X28669Y245780D02*
X28578Y245776D01*
X28487Y245764D01*
X28397Y245743D01*
X28307Y245713D01*
X28217Y245674D01*
X28128Y245627D01*
X28040Y245571D01*
X27952Y245506D01*
X27864Y245432D01*
X27777Y245349D01*
X27070Y246056D01*
X27152Y246144D01*
X27226Y246231D01*
X27291Y246319D01*
X27347Y246408D01*
X27395Y246497D01*
X27433Y246586D01*
X27463Y246676D01*
X27484Y246767D01*
X27497Y246858D01*
X27500Y246949D01*
X28669Y245780D01*
D02*
G37*
G36*
X27686Y245188D02*
X27701Y245024D01*
X27726Y244872D01*
X27761Y244733D01*
X27806Y244606D01*
X27861Y244491D01*
X27926Y244389D01*
X28001Y244299D01*
X28086Y244221D01*
X28181Y244156D01*
X26181D01*
X26276Y244221D01*
X26361Y244299D01*
X26436Y244389D01*
X26501Y244491D01*
X26556Y244606D01*
X26601Y244733D01*
X26636Y244872D01*
X26661Y245024D01*
X26676Y245188D01*
X26681Y245365D01*
X27681D01*
X27686Y245188D01*
D02*
G37*
G36*
X29535Y234107D02*
X29417Y233985D01*
X29228Y233755D01*
X29156Y233647D01*
X29099Y233544D01*
X29057Y233447D01*
X29031Y233354D01*
X29019Y233266D01*
X29023Y233183D01*
X29041Y233105D01*
X27825Y234321D01*
X27903Y234302D01*
X27986Y234299D01*
X28074Y234310D01*
X28167Y234337D01*
X28265Y234379D01*
X28367Y234436D01*
X28475Y234508D01*
X28588Y234595D01*
X28705Y234697D01*
X28828Y234814D01*
X29535Y234107D01*
D02*
G37*
G36*
X30838Y233634D02*
X30771Y233696D01*
X30698Y233752D01*
X30619Y233801D01*
X30534Y233843D01*
X30444Y233879D01*
X30347Y233908D01*
X30245Y233931D01*
X30137Y233948D01*
X30022Y233957D01*
X29902Y233961D01*
Y234961D01*
X30022Y234964D01*
X30137Y234974D01*
X30245Y234990D01*
X30347Y235013D01*
X30444Y235042D01*
X30534Y235078D01*
X30619Y235121D01*
X30698Y235170D01*
X30771Y235225D01*
X30838Y235287D01*
Y233634D01*
D02*
G37*
G36*
X67264Y264308D02*
X67247Y264262D01*
X67231Y264200D01*
X67218Y264122D01*
X67198Y263915D01*
X67185Y263640D01*
X67181Y263299D01*
X65181D01*
X65180Y263478D01*
X65131Y264200D01*
X65116Y264262D01*
X65098Y264308D01*
X65079Y264336D01*
X67283D01*
X67264Y264308D01*
D02*
G37*
G36*
X67182Y233943D02*
X67231Y233221D01*
X67247Y233159D01*
X67264Y233114D01*
X67283Y233085D01*
X65079D01*
X65098Y233114D01*
X65116Y233159D01*
X65131Y233221D01*
X65144Y233299D01*
X65165Y233507D01*
X65177Y233781D01*
X65181Y234122D01*
X67181D01*
X67182Y233943D01*
D02*
G37*
G36*
X52764Y274567D02*
X52747Y274522D01*
X52731Y274460D01*
X52718Y274382D01*
X52697Y274174D01*
X52685Y273900D01*
X52681Y273559D01*
X50681D01*
X50680Y273738D01*
X50631Y274460D01*
X50616Y274522D01*
X50598Y274567D01*
X50579Y274596D01*
X52784D01*
X52764Y274567D01*
D02*
G37*
G36*
X51917Y223782D02*
X51791Y223655D01*
X51315Y223109D01*
X51282Y223055D01*
X51262Y223010D01*
X51256Y222976D01*
X49697Y224535D01*
X49731Y224542D01*
X49775Y224561D01*
X49830Y224594D01*
X49894Y224640D01*
X50056Y224773D01*
X50258Y224958D01*
X50502Y225196D01*
X51917Y223782D01*
D02*
G37*
%LPC*%
G36*
X327650Y155185D02*
X326566Y155043D01*
X325557Y154625D01*
X324690Y153960D01*
X324025Y153093D01*
X323607Y152083D01*
X323464Y151000D01*
X323607Y149917D01*
X324025Y148907D01*
X324690Y148040D01*
X325557Y147375D01*
X326566Y146957D01*
X327650Y146815D01*
X328733Y146957D01*
X329742Y147375D01*
X330609Y148040D01*
X331274Y148907D01*
X331692Y149917D01*
X331835Y151000D01*
X331692Y152083D01*
X331274Y153093D01*
X330609Y153960D01*
X329742Y154625D01*
X328733Y155043D01*
X327650Y155185D01*
D02*
G37*
G36*
Y145185D02*
X326566Y145043D01*
X325557Y144625D01*
X324690Y143959D01*
X324025Y143093D01*
X323607Y142083D01*
X323464Y141000D01*
X323607Y139917D01*
X324025Y138907D01*
X324690Y138040D01*
X325557Y137375D01*
X326566Y136957D01*
X327650Y136815D01*
X328733Y136957D01*
X329742Y137375D01*
X330609Y138040D01*
X331274Y138907D01*
X331692Y139917D01*
X331835Y141000D01*
X331692Y142083D01*
X331274Y143093D01*
X330609Y143959D01*
X329742Y144625D01*
X328733Y145043D01*
X327650Y145185D01*
D02*
G37*
G36*
X295650Y148148D02*
X294450Y148030D01*
X293297Y147680D01*
X292234Y147112D01*
X291302Y146347D01*
X290538Y145415D01*
X289970Y144353D01*
X289620Y143199D01*
X289502Y142000D01*
X289620Y140801D01*
X289970Y139647D01*
X290538Y138584D01*
X291302Y137653D01*
X292234Y136888D01*
X293297Y136320D01*
X294450Y135970D01*
X295650Y135852D01*
X296849Y135970D01*
X298002Y136320D01*
X299065Y136888D01*
X299997Y137653D01*
X300761Y138584D01*
X301329Y139647D01*
X301679Y140801D01*
X301797Y142000D01*
X301679Y143199D01*
X301329Y144353D01*
X300761Y145415D01*
X299997Y146347D01*
X299065Y147112D01*
X298002Y147680D01*
X296849Y148030D01*
X295650Y148148D01*
D02*
G37*
G36*
X280650D02*
X279450Y148030D01*
X278297Y147680D01*
X277234Y147112D01*
X276303Y146347D01*
X275538Y145415D01*
X274970Y144353D01*
X274620Y143199D01*
X274502Y142000D01*
X274620Y140801D01*
X274970Y139647D01*
X275538Y138584D01*
X276303Y137653D01*
X277234Y136888D01*
X278297Y136320D01*
X279450Y135970D01*
X280650Y135852D01*
X281849Y135970D01*
X283002Y136320D01*
X284065Y136888D01*
X284997Y137653D01*
X285761Y138584D01*
X286329Y139647D01*
X286679Y140801D01*
X286797Y142000D01*
X286679Y143199D01*
X286329Y144353D01*
X285761Y145415D01*
X284997Y146347D01*
X284065Y147112D01*
X283002Y147680D01*
X281849Y148030D01*
X280650Y148148D01*
D02*
G37*
G36*
X331799Y135150D02*
X323500D01*
Y126850D01*
X331799D01*
Y135150D01*
D02*
G37*
G36*
X313150Y114079D02*
X312066Y113936D01*
X311057Y113518D01*
X310190Y112853D01*
X309525Y111986D01*
X309107Y110977D01*
X308964Y109894D01*
X309107Y108810D01*
X309525Y107801D01*
X310190Y106934D01*
X311057Y106269D01*
X312066Y105851D01*
X313150Y105708D01*
X314233Y105851D01*
X315242Y106269D01*
X316109Y106934D01*
X316774Y107801D01*
X317192Y108810D01*
X317335Y109894D01*
X317192Y110977D01*
X316774Y111986D01*
X316109Y112853D01*
X315242Y113518D01*
X314233Y113936D01*
X313150Y114079D01*
D02*
G37*
G36*
X317299Y104043D02*
X309000D01*
Y95744D01*
X317299D01*
Y104043D01*
D02*
G37*
G36*
X327150Y85494D02*
X326375Y85392D01*
X325653Y85093D01*
X325032Y84617D01*
X324557Y83997D01*
X324257Y83275D01*
X324196Y82811D01*
X323581Y82500D01*
X323501Y82555D01*
X322650Y82724D01*
X321799Y82555D01*
X321077Y82073D01*
X320595Y81351D01*
X320426Y80500D01*
X320595Y79649D01*
X321077Y78927D01*
X321799Y78446D01*
X322650Y78276D01*
X323501Y78446D01*
X324222Y78927D01*
X324245Y78961D01*
X324273Y78968D01*
X324292Y78971D01*
X325150D01*
X325735Y79087D01*
X326231Y79419D01*
X326389Y79576D01*
X326390Y79578D01*
X326421Y79602D01*
X327150Y79506D01*
X327924Y79608D01*
X328647Y79907D01*
X329267Y80383D01*
X329743Y81003D01*
X330042Y81725D01*
X330144Y82500D01*
X330042Y83275D01*
X329743Y83997D01*
X329267Y84617D01*
X328647Y85093D01*
X327924Y85392D01*
X327150Y85494D01*
D02*
G37*
G36*
X312150Y73224D02*
X311299Y73055D01*
X310577Y72572D01*
X310095Y71851D01*
X309926Y71000D01*
X310095Y70149D01*
X310096Y70147D01*
X309735Y69607D01*
X309150Y69724D01*
X308299Y69555D01*
X307577Y69073D01*
X307095Y68351D01*
X306926Y67500D01*
X307095Y66649D01*
X307577Y65927D01*
X308299Y65446D01*
X308620Y65381D01*
Y37133D01*
X300730Y29243D01*
X300714Y29232D01*
X300690Y29216D01*
X300650Y29224D01*
X299799Y29055D01*
X299077Y28572D01*
X298595Y27851D01*
X298426Y27000D01*
X298595Y26149D01*
X299077Y25427D01*
X299799Y24946D01*
X300650Y24776D01*
X301501Y24946D01*
X302222Y25427D01*
X302566Y25943D01*
X302580Y25948D01*
X303219D01*
X303233Y25943D01*
X303577Y25427D01*
X304299Y24946D01*
X305150Y24776D01*
X306001Y24946D01*
X306722Y25427D01*
X307204Y26149D01*
X307373Y27000D01*
X307204Y27851D01*
X306988Y28175D01*
X313231Y34419D01*
X313563Y34915D01*
X313679Y35500D01*
Y69357D01*
X313682Y69376D01*
X313688Y69405D01*
X313722Y69428D01*
X314204Y70149D01*
X314373Y71000D01*
X314204Y71851D01*
X313722Y72572D01*
X313001Y73055D01*
X312150Y73224D01*
D02*
G37*
G36*
X288150Y85597D02*
X287477Y85509D01*
X286851Y85249D01*
X286313Y84836D01*
X285900Y84298D01*
X285641Y83672D01*
X285553Y83000D01*
X285641Y82328D01*
X285900Y81701D01*
X286098Y81445D01*
X286110Y81256D01*
Y51072D01*
X285900Y50798D01*
X285641Y50172D01*
X285553Y49500D01*
X285641Y48828D01*
X285900Y48202D01*
X286313Y47664D01*
X286851Y47251D01*
X287477Y46992D01*
X288150Y46903D01*
X288822Y46992D01*
X289448Y47251D01*
X289986Y47664D01*
X290399Y48202D01*
X290658Y48828D01*
X290747Y49500D01*
X290658Y50172D01*
X290399Y50798D01*
X290202Y51055D01*
X290189Y51244D01*
Y81428D01*
X290399Y81701D01*
X290658Y82328D01*
X290747Y83000D01*
X290658Y83672D01*
X290399Y84298D01*
X289986Y84836D01*
X289448Y85249D01*
X288822Y85509D01*
X288150Y85597D01*
D02*
G37*
G36*
X327150Y75494D02*
X326375Y75392D01*
X325653Y75093D01*
X325032Y74617D01*
X324557Y73997D01*
X324257Y73275D01*
X324155Y72500D01*
X324257Y71725D01*
X324557Y71003D01*
X324813Y70669D01*
X324809Y70504D01*
X324659Y69969D01*
X324642Y69950D01*
X324077Y69573D01*
X323595Y68851D01*
X323426Y68000D01*
X323595Y67149D01*
X324077Y66427D01*
X324799Y65946D01*
X325650Y65776D01*
X325812Y65808D01*
X325987Y65232D01*
X325653Y65093D01*
X325032Y64617D01*
X324557Y63997D01*
X324257Y63275D01*
X324155Y62500D01*
X324257Y61725D01*
X324557Y61003D01*
X324721Y60789D01*
X324749Y60722D01*
X324825Y60611D01*
X324872Y60524D01*
X324921Y60408D01*
X324970Y60263D01*
X325015Y60088D01*
X325054Y59885D01*
X325085Y59665D01*
X325110Y59307D01*
Y45572D01*
X324901Y45298D01*
X324641Y44672D01*
X324553Y44000D01*
X324641Y43328D01*
X324901Y42702D01*
X325313Y42164D01*
X325851Y41751D01*
X326477Y41491D01*
X327150Y41403D01*
X327822Y41491D01*
X328448Y41751D01*
X328986Y42164D01*
X329399Y42702D01*
X329658Y43328D01*
X329747Y44000D01*
X329658Y44672D01*
X329399Y45298D01*
X329202Y45555D01*
X329189Y45744D01*
Y59307D01*
X329214Y59665D01*
X329245Y59885D01*
X329284Y60088D01*
X329329Y60263D01*
X329378Y60408D01*
X329427Y60524D01*
X329474Y60611D01*
X329550Y60722D01*
X329578Y60789D01*
X329743Y61003D01*
X330042Y61725D01*
X330144Y62500D01*
X330131Y62598D01*
X330592Y63058D01*
X331034Y63720D01*
X331189Y64500D01*
Y66126D01*
X331204Y66149D01*
X331373Y67000D01*
X331204Y67851D01*
X330722Y68572D01*
X330001Y69055D01*
X329233Y69207D01*
X329102Y69276D01*
X328954Y69440D01*
X328938Y69476D01*
X329020Y70194D01*
X329267Y70383D01*
X329743Y71003D01*
X330042Y71725D01*
X330144Y72500D01*
X330042Y73275D01*
X329743Y73997D01*
X329267Y74617D01*
X328647Y75093D01*
X327924Y75392D01*
X327150Y75494D01*
D02*
G37*
G36*
X304650Y94597D02*
X303977Y94508D01*
X303351Y94249D01*
X302813Y93836D01*
X302400Y93299D01*
X302141Y92672D01*
X302099Y92351D01*
X301974Y92209D01*
X301208Y91442D01*
X300766Y90780D01*
X300610Y90000D01*
Y40812D01*
X300400Y40539D01*
X300141Y39912D01*
X300053Y39240D01*
X300141Y38568D01*
X300400Y37942D01*
X300813Y37404D01*
X301351Y36991D01*
X301977Y36732D01*
X302650Y36643D01*
X303322Y36732D01*
X303948Y36991D01*
X304486Y37404D01*
X304899Y37942D01*
X305158Y38568D01*
X305247Y39240D01*
X305158Y39912D01*
X304899Y40539D01*
X304702Y40795D01*
X304689Y40984D01*
Y89155D01*
X304980Y89447D01*
X305322Y89491D01*
X305948Y89751D01*
X306486Y90164D01*
X306899Y90702D01*
X307158Y91328D01*
X307247Y92000D01*
X307158Y92672D01*
X306899Y93299D01*
X306486Y93836D01*
X305948Y94249D01*
X305322Y94508D01*
X304650Y94597D01*
D02*
G37*
%LPD*%
G36*
X326505Y80640D02*
X326428Y80659D01*
X326344Y80662D01*
X326256Y80650D01*
X326164Y80624D01*
X326066Y80582D01*
X325963Y80525D01*
X325856Y80453D01*
X325743Y80366D01*
X325625Y80264D01*
X325503Y80146D01*
X324796Y80854D01*
X324913Y80976D01*
X325103Y81206D01*
X325175Y81314D01*
X325232Y81416D01*
X325273Y81514D01*
X325300Y81607D01*
X325312Y81695D01*
X325308Y81778D01*
X325289Y81856D01*
X326505Y80640D01*
D02*
G37*
G36*
X323560Y81265D02*
X323633Y81209D01*
X323712Y81160D01*
X323796Y81118D01*
X323887Y81082D01*
X323984Y81052D01*
X324086Y81029D01*
X324194Y81013D01*
X324308Y81003D01*
X324428Y81000D01*
Y80000D01*
X324308Y79997D01*
X324194Y79987D01*
X324086Y79971D01*
X323984Y79948D01*
X323887Y79918D01*
X323796Y79882D01*
X323712Y79840D01*
X323633Y79791D01*
X323560Y79735D01*
X323493Y79673D01*
Y81327D01*
X323560Y81265D01*
D02*
G37*
G36*
X312914Y70090D02*
X312859Y70017D01*
X312810Y69938D01*
X312767Y69853D01*
X312731Y69763D01*
X312702Y69666D01*
X312679Y69564D01*
X312663Y69455D01*
X312653Y69341D01*
X312650Y69221D01*
X311650D01*
X311646Y69341D01*
X311636Y69455D01*
X311620Y69564D01*
X311597Y69666D01*
X311568Y69763D01*
X311532Y69853D01*
X311490Y69938D01*
X311440Y70017D01*
X311385Y70090D01*
X311323Y70157D01*
X312976D01*
X312914Y70090D01*
D02*
G37*
G36*
X302261Y27904D02*
X302178Y27817D01*
X302104Y27729D01*
X302040Y27641D01*
X301983Y27553D01*
X301936Y27464D01*
X301897Y27374D01*
X301867Y27284D01*
X301846Y27194D01*
X301834Y27103D01*
X301831Y27012D01*
X300661Y28181D01*
X300753Y28185D01*
X300844Y28197D01*
X300934Y28218D01*
X301024Y28248D01*
X301113Y28286D01*
X301202Y28334D01*
X301291Y28390D01*
X301379Y28455D01*
X301467Y28529D01*
X301554Y28611D01*
X302261Y27904D01*
D02*
G37*
G36*
X289232Y81847D02*
X289215Y81802D01*
X289200Y81740D01*
X289186Y81661D01*
X289166Y81454D01*
X289154Y81180D01*
X289150Y80839D01*
X287150D01*
X287149Y81018D01*
X287099Y81740D01*
X287084Y81802D01*
X287067Y81847D01*
X287047Y81875D01*
X289252D01*
X289232Y81847D01*
D02*
G37*
G36*
X289151Y51482D02*
X289200Y50760D01*
X289215Y50698D01*
X289232Y50653D01*
X289252Y50625D01*
X287047D01*
X287067Y50653D01*
X287084Y50698D01*
X287099Y50760D01*
X287113Y50839D01*
X287133Y51046D01*
X287145Y51320D01*
X287150Y51661D01*
X289150D01*
X289151Y51482D01*
D02*
G37*
G36*
X328055Y70739D02*
X327970Y70662D01*
X327895Y70572D01*
X327830Y70469D01*
X327775Y70355D01*
X327730Y70228D01*
X327695Y70088D01*
X327670Y69937D01*
X327655Y69773D01*
X327650Y69596D01*
X326650D01*
X326645Y69773D01*
X326630Y69937D01*
X326605Y70088D01*
X326570Y70228D01*
X326525Y70355D01*
X326470Y70469D01*
X326405Y70572D01*
X326330Y70662D01*
X326245Y70739D01*
X326150Y70804D01*
X328150D01*
X328055Y70739D01*
D02*
G37*
G36*
X327261Y68904D02*
X327178Y68817D01*
X327104Y68729D01*
X327040Y68641D01*
X326983Y68553D01*
X326936Y68464D01*
X326897Y68374D01*
X326867Y68284D01*
X326846Y68194D01*
X326834Y68103D01*
X326831Y68012D01*
X325661Y69181D01*
X325753Y69184D01*
X325844Y69197D01*
X325934Y69218D01*
X326024Y69248D01*
X326113Y69286D01*
X326202Y69334D01*
X326291Y69390D01*
X326379Y69455D01*
X326467Y69529D01*
X326554Y69611D01*
X327261Y68904D01*
D02*
G37*
G36*
X328602Y61142D02*
X328507Y60966D01*
X328423Y60769D01*
X328351Y60551D01*
X328289Y60312D01*
X328239Y60053D01*
X328200Y59772D01*
X328155Y59148D01*
X328150Y58804D01*
X326150Y58804D01*
X326144Y59148D01*
X326099Y59772D01*
X326060Y60053D01*
X326010Y60312D01*
X325949Y60551D01*
X325876Y60769D01*
X325792Y60966D01*
X325697Y61142D01*
X325591Y61298D01*
X328708D01*
X328602Y61142D01*
D02*
G37*
G36*
X328151Y45983D02*
X328200Y45260D01*
X328215Y45198D01*
X328233Y45153D01*
X328252Y45125D01*
X326047D01*
X326067Y45153D01*
X326084Y45198D01*
X326099Y45260D01*
X326113Y45339D01*
X326133Y45546D01*
X326146Y45820D01*
X326150Y46161D01*
X328150D01*
X328151Y45983D01*
D02*
G37*
G36*
X304634Y90425D02*
X304600Y90419D01*
X304556Y90399D01*
X304501Y90366D01*
X304436Y90320D01*
X304275Y90188D01*
X304072Y90003D01*
X303828Y89764D01*
X302414Y91179D01*
X302540Y91306D01*
X303016Y91852D01*
X303049Y91906D01*
X303068Y91950D01*
X303075Y91984D01*
X304634Y90425D01*
D02*
G37*
G36*
X303651Y41223D02*
X303700Y40500D01*
X303715Y40438D01*
X303732Y40393D01*
X303752Y40365D01*
X301547D01*
X301567Y40393D01*
X301584Y40438D01*
X301599Y40500D01*
X301613Y40579D01*
X301633Y40786D01*
X301645Y41061D01*
X301650Y41402D01*
X303650D01*
X303651Y41223D01*
D02*
G37*
%LPC*%
G36*
X264657Y155185D02*
X263574Y155043D01*
X262565Y154625D01*
X261698Y153960D01*
X261033Y153093D01*
X260615Y152083D01*
X260472Y151000D01*
X260615Y149917D01*
X261033Y148907D01*
X261698Y148040D01*
X262565Y147375D01*
X263574Y146957D01*
X264657Y146815D01*
X265741Y146957D01*
X266750Y147375D01*
X267617Y148040D01*
X268282Y148907D01*
X268700Y149917D01*
X268843Y151000D01*
X268700Y152083D01*
X268282Y153093D01*
X267617Y153960D01*
X266750Y154625D01*
X265741Y155043D01*
X264657Y155185D01*
D02*
G37*
G36*
Y145185D02*
X263574Y145043D01*
X262565Y144625D01*
X261698Y143959D01*
X261033Y143093D01*
X260615Y142083D01*
X260472Y141000D01*
X260615Y139917D01*
X261033Y138907D01*
X261698Y138040D01*
X262565Y137375D01*
X263574Y136957D01*
X264657Y136815D01*
X265741Y136957D01*
X266750Y137375D01*
X267617Y138040D01*
X268282Y138907D01*
X268700Y139917D01*
X268843Y141000D01*
X268700Y142083D01*
X268282Y143093D01*
X267617Y143959D01*
X266750Y144625D01*
X265741Y145043D01*
X264657Y145185D01*
D02*
G37*
G36*
X232658Y148148D02*
X231458Y148030D01*
X230305Y147680D01*
X229242Y147112D01*
X228310Y146347D01*
X227546Y145415D01*
X226978Y144353D01*
X226628Y143199D01*
X226510Y142000D01*
X226628Y140801D01*
X226978Y139647D01*
X227546Y138584D01*
X228310Y137653D01*
X229242Y136888D01*
X230305Y136320D01*
X231458Y135970D01*
X232658Y135852D01*
X233857Y135970D01*
X235010Y136320D01*
X236073Y136888D01*
X237005Y137653D01*
X237769Y138584D01*
X238337Y139647D01*
X238687Y140801D01*
X238805Y142000D01*
X238687Y143199D01*
X238337Y144353D01*
X237769Y145415D01*
X237005Y146347D01*
X236073Y147112D01*
X235010Y147680D01*
X233857Y148030D01*
X232658Y148148D01*
D02*
G37*
G36*
X217657D02*
X216458Y148030D01*
X215305Y147680D01*
X214242Y147112D01*
X213310Y146347D01*
X212546Y145415D01*
X211978Y144353D01*
X211628Y143199D01*
X211510Y142000D01*
X211628Y140801D01*
X211978Y139647D01*
X212546Y138584D01*
X213310Y137653D01*
X214242Y136888D01*
X215305Y136320D01*
X216458Y135970D01*
X217657Y135852D01*
X218857Y135970D01*
X220010Y136320D01*
X221073Y136888D01*
X222005Y137653D01*
X222769Y138584D01*
X223337Y139647D01*
X223687Y140801D01*
X223805Y142000D01*
X223687Y143199D01*
X223337Y144353D01*
X222769Y145415D01*
X222005Y146347D01*
X221073Y147112D01*
X220010Y147680D01*
X218857Y148030D01*
X217657Y148148D01*
D02*
G37*
G36*
X268807Y135150D02*
X260508D01*
Y126850D01*
X268807D01*
Y135150D01*
D02*
G37*
G36*
X250157Y114079D02*
X249074Y113936D01*
X248065Y113518D01*
X247198Y112853D01*
X246533Y111986D01*
X246115Y110977D01*
X245972Y109894D01*
X246115Y108810D01*
X246533Y107801D01*
X247198Y106934D01*
X248065Y106269D01*
X249074Y105851D01*
X250157Y105708D01*
X251241Y105851D01*
X252250Y106269D01*
X253117Y106934D01*
X253782Y107801D01*
X254200Y108810D01*
X254343Y109894D01*
X254200Y110977D01*
X253782Y111986D01*
X253117Y112853D01*
X252250Y113518D01*
X251241Y113936D01*
X250157Y114079D01*
D02*
G37*
G36*
X254307Y104043D02*
X246008D01*
Y95744D01*
X254307D01*
Y104043D01*
D02*
G37*
G36*
X264158Y85494D02*
X263383Y85392D01*
X262660Y85093D01*
X262040Y84617D01*
X261564Y83997D01*
X261265Y83275D01*
X261204Y82811D01*
X260589Y82500D01*
X260508Y82555D01*
X259658Y82724D01*
X258806Y82555D01*
X258085Y82073D01*
X257603Y81351D01*
X257434Y80500D01*
X257603Y79649D01*
X258085Y78927D01*
X258806Y78446D01*
X259658Y78276D01*
X260508Y78446D01*
X261230Y78927D01*
X261253Y78961D01*
X261281Y78968D01*
X261300Y78971D01*
X262158D01*
X262743Y79087D01*
X263239Y79419D01*
X263397Y79576D01*
X263398Y79578D01*
X263429Y79602D01*
X264158Y79506D01*
X264932Y79608D01*
X265654Y79907D01*
X266275Y80383D01*
X266751Y81003D01*
X267050Y81725D01*
X267152Y82500D01*
X267050Y83275D01*
X266751Y83997D01*
X266275Y84617D01*
X265654Y85093D01*
X264932Y85392D01*
X264158Y85494D01*
D02*
G37*
G36*
X249158Y73224D02*
X248306Y73055D01*
X247585Y72572D01*
X247103Y71851D01*
X246934Y71000D01*
X247103Y70149D01*
X247104Y70147D01*
X246743Y69607D01*
X246158Y69724D01*
X245306Y69555D01*
X244585Y69073D01*
X244103Y68351D01*
X243934Y67500D01*
X244103Y66649D01*
X244585Y65927D01*
X245306Y65446D01*
X245628Y65381D01*
Y37133D01*
X237738Y29243D01*
X237722Y29232D01*
X237697Y29216D01*
X237657Y29224D01*
X236806Y29055D01*
X236085Y28572D01*
X235603Y27851D01*
X235434Y27000D01*
X235603Y26149D01*
X236085Y25427D01*
X236806Y24946D01*
X237657Y24776D01*
X238509Y24946D01*
X239230Y25427D01*
X239574Y25943D01*
X239588Y25948D01*
X240227D01*
X240241Y25943D01*
X240585Y25427D01*
X241306Y24946D01*
X242158Y24776D01*
X243008Y24946D01*
X243730Y25427D01*
X244212Y26149D01*
X244381Y27000D01*
X244212Y27851D01*
X243995Y28175D01*
X250239Y34419D01*
X250570Y34915D01*
X250687Y35500D01*
Y69357D01*
X250690Y69376D01*
X250696Y69405D01*
X250730Y69428D01*
X251212Y70149D01*
X251381Y71000D01*
X251212Y71851D01*
X250730Y72572D01*
X250009Y73055D01*
X249158Y73224D01*
D02*
G37*
G36*
X225157Y85597D02*
X224485Y85509D01*
X223859Y85249D01*
X223321Y84836D01*
X222908Y84298D01*
X222649Y83672D01*
X222560Y83000D01*
X222649Y82328D01*
X222908Y81701D01*
X223106Y81445D01*
X223118Y81256D01*
Y51072D01*
X222908Y50798D01*
X222649Y50172D01*
X222560Y49500D01*
X222649Y48828D01*
X222908Y48202D01*
X223321Y47664D01*
X223859Y47251D01*
X224485Y46992D01*
X225157Y46903D01*
X225830Y46992D01*
X226456Y47251D01*
X226994Y47664D01*
X227407Y48202D01*
X227666Y48828D01*
X227754Y49500D01*
X227666Y50172D01*
X227407Y50798D01*
X227209Y51055D01*
X227197Y51244D01*
Y81428D01*
X227407Y81701D01*
X227666Y82328D01*
X227754Y83000D01*
X227666Y83672D01*
X227407Y84298D01*
X226994Y84836D01*
X226456Y85249D01*
X225830Y85509D01*
X225157Y85597D01*
D02*
G37*
G36*
X264158Y75494D02*
X263383Y75392D01*
X262660Y75093D01*
X262040Y74617D01*
X261564Y73997D01*
X261265Y73275D01*
X261163Y72500D01*
X261265Y71725D01*
X261564Y71003D01*
X261821Y70669D01*
X261817Y70504D01*
X261667Y69969D01*
X261650Y69950D01*
X261085Y69573D01*
X260603Y68851D01*
X260434Y68000D01*
X260603Y67149D01*
X261085Y66427D01*
X261806Y65946D01*
X262657Y65776D01*
X262820Y65808D01*
X262995Y65232D01*
X262660Y65093D01*
X262040Y64617D01*
X261564Y63997D01*
X261265Y63275D01*
X261163Y62500D01*
X261265Y61725D01*
X261564Y61003D01*
X261729Y60789D01*
X261757Y60722D01*
X261833Y60611D01*
X261880Y60524D01*
X261929Y60408D01*
X261978Y60263D01*
X262023Y60088D01*
X262062Y59885D01*
X262093Y59665D01*
X262118Y59307D01*
Y45572D01*
X261908Y45298D01*
X261649Y44672D01*
X261560Y44000D01*
X261649Y43328D01*
X261908Y42702D01*
X262321Y42164D01*
X262859Y41751D01*
X263485Y41491D01*
X264158Y41403D01*
X264830Y41491D01*
X265456Y41751D01*
X265994Y42164D01*
X266407Y42702D01*
X266666Y43328D01*
X266755Y44000D01*
X266666Y44672D01*
X266407Y45298D01*
X266210Y45555D01*
X266197Y45744D01*
Y59307D01*
X266222Y59665D01*
X266253Y59885D01*
X266292Y60088D01*
X266337Y60263D01*
X266386Y60408D01*
X266435Y60524D01*
X266482Y60611D01*
X266558Y60722D01*
X266586Y60789D01*
X266751Y61003D01*
X267050Y61725D01*
X267152Y62500D01*
X267139Y62598D01*
X267599Y63058D01*
X268041Y63720D01*
X268197Y64500D01*
Y66126D01*
X268212Y66149D01*
X268381Y67000D01*
X268212Y67851D01*
X267730Y68572D01*
X267008Y69055D01*
X266240Y69207D01*
X266110Y69276D01*
X265961Y69440D01*
X265946Y69476D01*
X266028Y70194D01*
X266275Y70383D01*
X266751Y71003D01*
X267050Y71725D01*
X267152Y72500D01*
X267050Y73275D01*
X266751Y73997D01*
X266275Y74617D01*
X265654Y75093D01*
X264932Y75392D01*
X264158Y75494D01*
D02*
G37*
G36*
X241657Y94597D02*
X240985Y94508D01*
X240359Y94249D01*
X239821Y93836D01*
X239408Y93299D01*
X239149Y92672D01*
X239107Y92351D01*
X238982Y92209D01*
X238215Y91442D01*
X237773Y90780D01*
X237618Y90000D01*
Y40812D01*
X237408Y40539D01*
X237149Y39912D01*
X237060Y39240D01*
X237149Y38568D01*
X237408Y37942D01*
X237821Y37404D01*
X238359Y36991D01*
X238985Y36732D01*
X239657Y36643D01*
X240330Y36732D01*
X240956Y36991D01*
X241494Y37404D01*
X241907Y37942D01*
X242166Y38568D01*
X242254Y39240D01*
X242166Y39912D01*
X241907Y40539D01*
X241709Y40795D01*
X241697Y40984D01*
Y89155D01*
X241988Y89447D01*
X242330Y89491D01*
X242956Y89751D01*
X243494Y90164D01*
X243907Y90702D01*
X244166Y91328D01*
X244254Y92000D01*
X244166Y92672D01*
X243907Y93299D01*
X243494Y93836D01*
X242956Y94249D01*
X242330Y94508D01*
X241657Y94597D01*
D02*
G37*
%LPD*%
G36*
X263513Y80640D02*
X263435Y80659D01*
X263352Y80662D01*
X263264Y80650D01*
X263172Y80624D01*
X263074Y80582D01*
X262971Y80525D01*
X262863Y80453D01*
X262751Y80366D01*
X262633Y80264D01*
X262511Y80146D01*
X261804Y80854D01*
X261921Y80976D01*
X262110Y81206D01*
X262182Y81314D01*
X262239Y81416D01*
X262281Y81514D01*
X262308Y81607D01*
X262319Y81695D01*
X262316Y81778D01*
X262297Y81856D01*
X263513Y80640D01*
D02*
G37*
G36*
X260568Y81265D02*
X260641Y81209D01*
X260720Y81160D01*
X260804Y81118D01*
X260895Y81082D01*
X260991Y81052D01*
X261094Y81029D01*
X261202Y81013D01*
X261316Y81003D01*
X261436Y81000D01*
Y80000D01*
X261316Y79997D01*
X261202Y79987D01*
X261094Y79971D01*
X260991Y79948D01*
X260895Y79918D01*
X260804Y79882D01*
X260720Y79840D01*
X260641Y79791D01*
X260568Y79735D01*
X260501Y79673D01*
Y81327D01*
X260568Y81265D01*
D02*
G37*
G36*
X249922Y70090D02*
X249867Y70017D01*
X249818Y69938D01*
X249775Y69853D01*
X249739Y69763D01*
X249710Y69666D01*
X249687Y69564D01*
X249671Y69455D01*
X249661Y69341D01*
X249658Y69221D01*
X248657D01*
X248654Y69341D01*
X248644Y69455D01*
X248628Y69564D01*
X248605Y69666D01*
X248576Y69763D01*
X248540Y69853D01*
X248497Y69938D01*
X248448Y70017D01*
X248393Y70090D01*
X248331Y70157D01*
X249984D01*
X249922Y70090D01*
D02*
G37*
G36*
X239269Y27904D02*
X239186Y27817D01*
X239112Y27729D01*
X239047Y27641D01*
X238991Y27553D01*
X238944Y27464D01*
X238905Y27374D01*
X238875Y27284D01*
X238854Y27194D01*
X238842Y27103D01*
X238839Y27012D01*
X237669Y28181D01*
X237761Y28185D01*
X237851Y28197D01*
X237942Y28218D01*
X238032Y28248D01*
X238121Y28286D01*
X238210Y28334D01*
X238299Y28390D01*
X238387Y28455D01*
X238474Y28529D01*
X238562Y28611D01*
X239269Y27904D01*
D02*
G37*
G36*
X226240Y81847D02*
X226223Y81802D01*
X226208Y81740D01*
X226194Y81661D01*
X226174Y81454D01*
X226162Y81180D01*
X226157Y80839D01*
X224158D01*
X224156Y81018D01*
X224107Y81740D01*
X224092Y81802D01*
X224075Y81847D01*
X224055Y81875D01*
X226260D01*
X226240Y81847D01*
D02*
G37*
G36*
X226158Y51482D02*
X226208Y50760D01*
X226223Y50698D01*
X226240Y50653D01*
X226260Y50625D01*
X224055D01*
X224075Y50653D01*
X224092Y50698D01*
X224107Y50760D01*
X224121Y50839D01*
X224141Y51046D01*
X224153Y51320D01*
X224158Y51661D01*
X226157D01*
X226158Y51482D01*
D02*
G37*
G36*
X265062Y70739D02*
X264978Y70662D01*
X264902Y70572D01*
X264838Y70469D01*
X264783Y70355D01*
X264738Y70228D01*
X264703Y70088D01*
X264678Y69937D01*
X264663Y69773D01*
X264657Y69596D01*
X263657D01*
X263652Y69773D01*
X263637Y69937D01*
X263613Y70088D01*
X263578Y70228D01*
X263532Y70355D01*
X263477Y70469D01*
X263412Y70572D01*
X263337Y70662D01*
X263252Y70739D01*
X263158Y70804D01*
X265158D01*
X265062Y70739D01*
D02*
G37*
G36*
X264269Y68904D02*
X264186Y68817D01*
X264112Y68729D01*
X264047Y68641D01*
X263991Y68553D01*
X263944Y68464D01*
X263905Y68374D01*
X263875Y68284D01*
X263854Y68194D01*
X263842Y68103D01*
X263839Y68012D01*
X262669Y69181D01*
X262761Y69184D01*
X262851Y69197D01*
X262942Y69218D01*
X263032Y69248D01*
X263121Y69286D01*
X263210Y69334D01*
X263299Y69390D01*
X263387Y69455D01*
X263474Y69529D01*
X263562Y69611D01*
X264269Y68904D01*
D02*
G37*
G36*
X265610Y61142D02*
X265515Y60966D01*
X265431Y60769D01*
X265358Y60551D01*
X265297Y60312D01*
X265247Y60053D01*
X265208Y59772D01*
X265163Y59148D01*
X265158Y58804D01*
X263158Y58804D01*
X263152Y59148D01*
X263107Y59772D01*
X263068Y60053D01*
X263018Y60312D01*
X262956Y60551D01*
X262884Y60769D01*
X262800Y60966D01*
X262705Y61142D01*
X262599Y61298D01*
X265716D01*
X265610Y61142D01*
D02*
G37*
G36*
X265159Y45983D02*
X265208Y45260D01*
X265223Y45198D01*
X265240Y45153D01*
X265260Y45125D01*
X263055D01*
X263074Y45153D01*
X263092Y45198D01*
X263107Y45260D01*
X263121Y45339D01*
X263141Y45546D01*
X263153Y45820D01*
X263158Y46161D01*
X265158D01*
X265159Y45983D01*
D02*
G37*
G36*
X241642Y90425D02*
X241608Y90419D01*
X241564Y90399D01*
X241509Y90366D01*
X241444Y90320D01*
X241283Y90188D01*
X241080Y90003D01*
X240836Y89764D01*
X239422Y91179D01*
X239548Y91306D01*
X240024Y91852D01*
X240057Y91906D01*
X240076Y91950D01*
X240083Y91984D01*
X241642Y90425D01*
D02*
G37*
G36*
X240658Y41223D02*
X240708Y40500D01*
X240723Y40438D01*
X240740Y40393D01*
X240760Y40365D01*
X238555D01*
X238575Y40393D01*
X238592Y40438D01*
X238607Y40500D01*
X238621Y40579D01*
X238641Y40786D01*
X238653Y41061D01*
X238657Y41402D01*
X240657D01*
X240658Y41223D01*
D02*
G37*
%LPC*%
G36*
X201665Y155185D02*
X200582Y155043D01*
X199573Y154625D01*
X198706Y153960D01*
X198041Y153093D01*
X197623Y152083D01*
X197480Y151000D01*
X197623Y149917D01*
X198041Y148907D01*
X198706Y148040D01*
X199573Y147375D01*
X200582Y146957D01*
X201665Y146815D01*
X202749Y146957D01*
X203758Y147375D01*
X204625Y148040D01*
X205290Y148907D01*
X205708Y149917D01*
X205851Y151000D01*
X205708Y152083D01*
X205290Y153093D01*
X204625Y153960D01*
X203758Y154625D01*
X202749Y155043D01*
X201665Y155185D01*
D02*
G37*
G36*
Y145185D02*
X200582Y145043D01*
X199573Y144625D01*
X198706Y143959D01*
X198041Y143093D01*
X197623Y142083D01*
X197480Y141000D01*
X197623Y139917D01*
X198041Y138907D01*
X198706Y138040D01*
X199573Y137375D01*
X200582Y136957D01*
X201665Y136815D01*
X202749Y136957D01*
X203758Y137375D01*
X204625Y138040D01*
X205290Y138907D01*
X205708Y139917D01*
X205851Y141000D01*
X205708Y142083D01*
X205290Y143093D01*
X204625Y143959D01*
X203758Y144625D01*
X202749Y145043D01*
X201665Y145185D01*
D02*
G37*
G36*
X169665Y148148D02*
X168466Y148030D01*
X167313Y147680D01*
X166250Y147112D01*
X165318Y146347D01*
X164554Y145415D01*
X163986Y144353D01*
X163636Y143199D01*
X163518Y142000D01*
X163636Y140801D01*
X163986Y139647D01*
X164554Y138584D01*
X165318Y137653D01*
X166250Y136888D01*
X167313Y136320D01*
X168466Y135970D01*
X169665Y135852D01*
X170865Y135970D01*
X172018Y136320D01*
X173081Y136888D01*
X174012Y137653D01*
X174777Y138584D01*
X175345Y139647D01*
X175695Y140801D01*
X175813Y142000D01*
X175695Y143199D01*
X175345Y144353D01*
X174777Y145415D01*
X174012Y146347D01*
X173081Y147112D01*
X172018Y147680D01*
X170865Y148030D01*
X169665Y148148D01*
D02*
G37*
G36*
X154665D02*
X153466Y148030D01*
X152313Y147680D01*
X151250Y147112D01*
X150318Y146347D01*
X149554Y145415D01*
X148986Y144353D01*
X148636Y143199D01*
X148518Y142000D01*
X148636Y140801D01*
X148986Y139647D01*
X149554Y138584D01*
X150318Y137653D01*
X151250Y136888D01*
X152313Y136320D01*
X153466Y135970D01*
X154665Y135852D01*
X155865Y135970D01*
X157018Y136320D01*
X158081Y136888D01*
X159012Y137653D01*
X159777Y138584D01*
X160345Y139647D01*
X160695Y140801D01*
X160813Y142000D01*
X160695Y143199D01*
X160345Y144353D01*
X159777Y145415D01*
X159012Y146347D01*
X158081Y147112D01*
X157018Y147680D01*
X155865Y148030D01*
X154665Y148148D01*
D02*
G37*
G36*
X205815Y135150D02*
X197516D01*
Y126850D01*
X205815D01*
Y135150D01*
D02*
G37*
G36*
X187165Y114079D02*
X186082Y113936D01*
X185073Y113518D01*
X184206Y112853D01*
X183541Y111986D01*
X183123Y110977D01*
X182980Y109894D01*
X183123Y108810D01*
X183541Y107801D01*
X184206Y106934D01*
X185073Y106269D01*
X186082Y105851D01*
X187165Y105708D01*
X188249Y105851D01*
X189258Y106269D01*
X190125Y106934D01*
X190790Y107801D01*
X191208Y108810D01*
X191351Y109894D01*
X191208Y110977D01*
X190790Y111986D01*
X190125Y112853D01*
X189258Y113518D01*
X188249Y113936D01*
X187165Y114079D01*
D02*
G37*
G36*
X191315Y104043D02*
X183016D01*
Y95744D01*
X191315D01*
Y104043D01*
D02*
G37*
G36*
X201165Y85494D02*
X200390Y85392D01*
X199668Y85093D01*
X199048Y84617D01*
X198572Y83997D01*
X198273Y83275D01*
X198212Y82811D01*
X197597Y82500D01*
X197516Y82555D01*
X196665Y82724D01*
X195814Y82555D01*
X195093Y82073D01*
X194611Y81351D01*
X194441Y80500D01*
X194611Y79649D01*
X195093Y78927D01*
X195814Y78446D01*
X196665Y78276D01*
X197516Y78446D01*
X198238Y78927D01*
X198260Y78961D01*
X198289Y78968D01*
X198308Y78971D01*
X199165D01*
X199751Y79087D01*
X200247Y79419D01*
X200405Y79576D01*
X200406Y79578D01*
X200437Y79602D01*
X201165Y79506D01*
X201940Y79608D01*
X202662Y79907D01*
X203282Y80383D01*
X203758Y81003D01*
X204057Y81725D01*
X204159Y82500D01*
X204057Y83275D01*
X203758Y83997D01*
X203282Y84617D01*
X202662Y85093D01*
X201940Y85392D01*
X201165Y85494D01*
D02*
G37*
G36*
X186165Y73224D02*
X185314Y73055D01*
X184593Y72572D01*
X184111Y71851D01*
X183941Y71000D01*
X184111Y70149D01*
X184112Y70147D01*
X183751Y69607D01*
X183165Y69724D01*
X182314Y69555D01*
X181593Y69073D01*
X181111Y68351D01*
X180941Y67500D01*
X181111Y66649D01*
X181593Y65927D01*
X182314Y65446D01*
X182636Y65381D01*
Y37133D01*
X174746Y29243D01*
X174730Y29232D01*
X174705Y29216D01*
X174665Y29224D01*
X173814Y29055D01*
X173093Y28572D01*
X172611Y27851D01*
X172441Y27000D01*
X172611Y26149D01*
X173093Y25427D01*
X173814Y24946D01*
X174665Y24776D01*
X175516Y24946D01*
X176238Y25427D01*
X176582Y25943D01*
X176596Y25948D01*
X177235D01*
X177249Y25943D01*
X177593Y25427D01*
X178314Y24946D01*
X179165Y24776D01*
X180016Y24946D01*
X180738Y25427D01*
X181220Y26149D01*
X181389Y27000D01*
X181220Y27851D01*
X181003Y28175D01*
X187247Y34419D01*
X187578Y34915D01*
X187695Y35500D01*
Y69357D01*
X187698Y69376D01*
X187704Y69405D01*
X187738Y69428D01*
X188220Y70149D01*
X188389Y71000D01*
X188220Y71851D01*
X187738Y72572D01*
X187016Y73055D01*
X186165Y73224D01*
D02*
G37*
G36*
X162165Y85597D02*
X161493Y85509D01*
X160867Y85249D01*
X160329Y84836D01*
X159916Y84298D01*
X159657Y83672D01*
X159568Y83000D01*
X159657Y82328D01*
X159916Y81701D01*
X160113Y81445D01*
X160126Y81256D01*
Y51072D01*
X159916Y50798D01*
X159657Y50172D01*
X159568Y49500D01*
X159657Y48828D01*
X159916Y48202D01*
X160329Y47664D01*
X160867Y47251D01*
X161493Y46992D01*
X162165Y46903D01*
X162838Y46992D01*
X163464Y47251D01*
X164002Y47664D01*
X164414Y48202D01*
X164674Y48828D01*
X164762Y49500D01*
X164674Y50172D01*
X164414Y50798D01*
X164217Y51055D01*
X164205Y51244D01*
Y81428D01*
X164414Y81701D01*
X164674Y82328D01*
X164762Y83000D01*
X164674Y83672D01*
X164414Y84298D01*
X164002Y84836D01*
X163464Y85249D01*
X162838Y85509D01*
X162165Y85597D01*
D02*
G37*
G36*
X201165Y75494D02*
X200390Y75392D01*
X199668Y75093D01*
X199048Y74617D01*
X198572Y73997D01*
X198273Y73275D01*
X198171Y72500D01*
X198273Y71725D01*
X198572Y71003D01*
X198828Y70669D01*
X198825Y70504D01*
X198675Y69969D01*
X198658Y69950D01*
X198093Y69573D01*
X197611Y68851D01*
X197441Y68000D01*
X197611Y67149D01*
X198093Y66427D01*
X198814Y65946D01*
X199665Y65776D01*
X199828Y65808D01*
X200003Y65232D01*
X199668Y65093D01*
X199048Y64617D01*
X198572Y63997D01*
X198273Y63275D01*
X198171Y62500D01*
X198273Y61725D01*
X198572Y61003D01*
X198737Y60789D01*
X198765Y60722D01*
X198841Y60611D01*
X198888Y60524D01*
X198937Y60408D01*
X198986Y60263D01*
X199031Y60088D01*
X199070Y59885D01*
X199100Y59665D01*
X199126Y59307D01*
Y45572D01*
X198916Y45298D01*
X198657Y44672D01*
X198568Y44000D01*
X198657Y43328D01*
X198916Y42702D01*
X199329Y42164D01*
X199867Y41751D01*
X200493Y41491D01*
X201165Y41403D01*
X201837Y41491D01*
X202464Y41751D01*
X203002Y42164D01*
X203414Y42702D01*
X203674Y43328D01*
X203762Y44000D01*
X203674Y44672D01*
X203414Y45298D01*
X203217Y45555D01*
X203204Y45744D01*
Y59307D01*
X203230Y59665D01*
X203261Y59885D01*
X203300Y60088D01*
X203345Y60263D01*
X203393Y60408D01*
X203443Y60524D01*
X203490Y60611D01*
X203566Y60722D01*
X203594Y60789D01*
X203758Y61003D01*
X204057Y61725D01*
X204159Y62500D01*
X204147Y62598D01*
X204607Y63058D01*
X205049Y63720D01*
X205205Y64500D01*
Y66126D01*
X205220Y66149D01*
X205389Y67000D01*
X205220Y67851D01*
X204738Y68572D01*
X204016Y69055D01*
X203248Y69207D01*
X203118Y69276D01*
X202969Y69440D01*
X202954Y69476D01*
X203036Y70194D01*
X203282Y70383D01*
X203758Y71003D01*
X204057Y71725D01*
X204159Y72500D01*
X204057Y73275D01*
X203758Y73997D01*
X203282Y74617D01*
X202662Y75093D01*
X201940Y75392D01*
X201165Y75494D01*
D02*
G37*
G36*
X178665Y94597D02*
X177993Y94508D01*
X177367Y94249D01*
X176829Y93836D01*
X176416Y93299D01*
X176157Y92672D01*
X176115Y92351D01*
X175990Y92209D01*
X175223Y91442D01*
X174781Y90780D01*
X174626Y90000D01*
Y40812D01*
X174416Y40539D01*
X174157Y39912D01*
X174068Y39240D01*
X174157Y38568D01*
X174416Y37942D01*
X174829Y37404D01*
X175367Y36991D01*
X175993Y36732D01*
X176665Y36643D01*
X177338Y36732D01*
X177964Y36991D01*
X178502Y37404D01*
X178914Y37942D01*
X179174Y38568D01*
X179262Y39240D01*
X179174Y39912D01*
X178914Y40539D01*
X178717Y40795D01*
X178705Y40984D01*
Y89155D01*
X178996Y89447D01*
X179338Y89491D01*
X179964Y89751D01*
X180502Y90164D01*
X180914Y90702D01*
X181174Y91328D01*
X181262Y92000D01*
X181174Y92672D01*
X180914Y93299D01*
X180502Y93836D01*
X179964Y94249D01*
X179338Y94508D01*
X178665Y94597D01*
D02*
G37*
%LPD*%
G36*
X200521Y80640D02*
X200443Y80659D01*
X200360Y80662D01*
X200272Y80650D01*
X200179Y80624D01*
X200082Y80582D01*
X199979Y80525D01*
X199871Y80453D01*
X199759Y80366D01*
X199641Y80264D01*
X199519Y80146D01*
X198812Y80854D01*
X198929Y80976D01*
X199118Y81206D01*
X199190Y81314D01*
X199247Y81416D01*
X199289Y81514D01*
X199316Y81607D01*
X199327Y81695D01*
X199324Y81778D01*
X199305Y81856D01*
X200521Y80640D01*
D02*
G37*
G36*
X197576Y81265D02*
X197649Y81209D01*
X197728Y81160D01*
X197812Y81118D01*
X197903Y81082D01*
X197999Y81052D01*
X198102Y81029D01*
X198210Y81013D01*
X198324Y81003D01*
X198444Y81000D01*
Y80000D01*
X198324Y79997D01*
X198210Y79987D01*
X198102Y79971D01*
X197999Y79948D01*
X197903Y79918D01*
X197812Y79882D01*
X197728Y79840D01*
X197649Y79791D01*
X197576Y79735D01*
X197509Y79673D01*
Y81327D01*
X197576Y81265D01*
D02*
G37*
G36*
X186930Y70090D02*
X186874Y70017D01*
X186826Y69938D01*
X186783Y69853D01*
X186747Y69763D01*
X186718Y69666D01*
X186695Y69564D01*
X186678Y69455D01*
X186669Y69341D01*
X186665Y69221D01*
X185665D01*
X185662Y69341D01*
X185652Y69455D01*
X185636Y69564D01*
X185613Y69666D01*
X185584Y69763D01*
X185548Y69853D01*
X185505Y69938D01*
X185456Y70017D01*
X185401Y70090D01*
X185339Y70157D01*
X186992D01*
X186930Y70090D01*
D02*
G37*
G36*
X176277Y27904D02*
X176194Y27817D01*
X176120Y27729D01*
X176055Y27641D01*
X175999Y27553D01*
X175952Y27464D01*
X175913Y27374D01*
X175883Y27284D01*
X175862Y27194D01*
X175850Y27103D01*
X175846Y27012D01*
X174677Y28181D01*
X174768Y28185D01*
X174859Y28197D01*
X174950Y28218D01*
X175040Y28248D01*
X175129Y28286D01*
X175218Y28334D01*
X175307Y28390D01*
X175395Y28455D01*
X175482Y28529D01*
X175569Y28611D01*
X176277Y27904D01*
D02*
G37*
G36*
X163248Y81847D02*
X163231Y81802D01*
X163215Y81740D01*
X163202Y81661D01*
X163182Y81454D01*
X163169Y81180D01*
X163165Y80839D01*
X161165D01*
X161164Y81018D01*
X161115Y81740D01*
X161100Y81802D01*
X161082Y81847D01*
X161063Y81875D01*
X163268D01*
X163248Y81847D01*
D02*
G37*
G36*
X163166Y51482D02*
X163215Y50760D01*
X163231Y50698D01*
X163248Y50653D01*
X163268Y50625D01*
X161063D01*
X161082Y50653D01*
X161100Y50698D01*
X161115Y50760D01*
X161128Y50839D01*
X161149Y51046D01*
X161161Y51320D01*
X161165Y51661D01*
X163165D01*
X163166Y51482D01*
D02*
G37*
G36*
X202070Y70739D02*
X201985Y70662D01*
X201910Y70572D01*
X201845Y70469D01*
X201790Y70355D01*
X201745Y70228D01*
X201710Y70088D01*
X201685Y69937D01*
X201670Y69773D01*
X201665Y69596D01*
X200665D01*
X200660Y69773D01*
X200645Y69937D01*
X200620Y70088D01*
X200585Y70228D01*
X200540Y70355D01*
X200485Y70469D01*
X200420Y70572D01*
X200345Y70662D01*
X200260Y70739D01*
X200165Y70804D01*
X202165D01*
X202070Y70739D01*
D02*
G37*
G36*
X201277Y68904D02*
X201194Y68817D01*
X201120Y68729D01*
X201055Y68641D01*
X200999Y68553D01*
X200952Y68464D01*
X200913Y68374D01*
X200883Y68284D01*
X200862Y68194D01*
X200850Y68103D01*
X200846Y68012D01*
X199677Y69181D01*
X199768Y69184D01*
X199859Y69197D01*
X199950Y69218D01*
X200040Y69248D01*
X200129Y69286D01*
X200218Y69334D01*
X200307Y69390D01*
X200395Y69455D01*
X200482Y69529D01*
X200570Y69611D01*
X201277Y68904D01*
D02*
G37*
G36*
X202618Y61142D02*
X202523Y60966D01*
X202439Y60769D01*
X202366Y60551D01*
X202305Y60312D01*
X202255Y60053D01*
X202216Y59772D01*
X202171Y59148D01*
X202165Y58804D01*
X200165Y58804D01*
X200160Y59148D01*
X200115Y59772D01*
X200076Y60053D01*
X200026Y60312D01*
X199964Y60551D01*
X199892Y60769D01*
X199808Y60966D01*
X199713Y61142D01*
X199607Y61298D01*
X202724D01*
X202618Y61142D01*
D02*
G37*
G36*
X202166Y45983D02*
X202216Y45260D01*
X202231Y45198D01*
X202248Y45153D01*
X202268Y45125D01*
X200063D01*
X200082Y45153D01*
X200100Y45198D01*
X200115Y45260D01*
X200129Y45339D01*
X200149Y45546D01*
X200161Y45820D01*
X200165Y46161D01*
X202165D01*
X202166Y45983D01*
D02*
G37*
G36*
X178650Y90425D02*
X178616Y90419D01*
X178571Y90399D01*
X178517Y90366D01*
X178452Y90320D01*
X178291Y90188D01*
X178088Y90003D01*
X177844Y89764D01*
X176430Y91179D01*
X176556Y91306D01*
X177032Y91852D01*
X177065Y91906D01*
X177084Y91950D01*
X177091Y91984D01*
X178650Y90425D01*
D02*
G37*
G36*
X177666Y41223D02*
X177716Y40500D01*
X177731Y40438D01*
X177748Y40393D01*
X177768Y40365D01*
X175563D01*
X175582Y40393D01*
X175600Y40438D01*
X175615Y40500D01*
X175628Y40579D01*
X175649Y40786D01*
X175661Y41061D01*
X175665Y41402D01*
X177665D01*
X177666Y41223D01*
D02*
G37*
%LPC*%
G36*
X138673Y155185D02*
X137590Y155043D01*
X136581Y154625D01*
X135714Y153960D01*
X135049Y153093D01*
X134630Y152083D01*
X134488Y151000D01*
X134630Y149917D01*
X135049Y148907D01*
X135714Y148040D01*
X136581Y147375D01*
X137590Y146957D01*
X138673Y146815D01*
X139757Y146957D01*
X140766Y147375D01*
X141633Y148040D01*
X142298Y148907D01*
X142716Y149917D01*
X142859Y151000D01*
X142716Y152083D01*
X142298Y153093D01*
X141633Y153960D01*
X140766Y154625D01*
X139757Y155043D01*
X138673Y155185D01*
D02*
G37*
G36*
Y145185D02*
X137590Y145043D01*
X136581Y144625D01*
X135714Y143959D01*
X135049Y143093D01*
X134630Y142083D01*
X134488Y141000D01*
X134630Y139917D01*
X135049Y138907D01*
X135714Y138040D01*
X136581Y137375D01*
X137590Y136957D01*
X138673Y136815D01*
X139757Y136957D01*
X140766Y137375D01*
X141633Y138040D01*
X142298Y138907D01*
X142716Y139917D01*
X142859Y141000D01*
X142716Y142083D01*
X142298Y143093D01*
X141633Y143959D01*
X140766Y144625D01*
X139757Y145043D01*
X138673Y145185D01*
D02*
G37*
G36*
X106673Y148148D02*
X105474Y148030D01*
X104321Y147680D01*
X103258Y147112D01*
X102326Y146347D01*
X101562Y145415D01*
X100994Y144353D01*
X100644Y143199D01*
X100525Y142000D01*
X100644Y140801D01*
X100994Y139647D01*
X101562Y138584D01*
X102326Y137653D01*
X103258Y136888D01*
X104321Y136320D01*
X105474Y135970D01*
X106673Y135852D01*
X107873Y135970D01*
X109026Y136320D01*
X110089Y136888D01*
X111020Y137653D01*
X111785Y138584D01*
X112353Y139647D01*
X112703Y140801D01*
X112821Y142000D01*
X112703Y143199D01*
X112353Y144353D01*
X111785Y145415D01*
X111020Y146347D01*
X110089Y147112D01*
X109026Y147680D01*
X107873Y148030D01*
X106673Y148148D01*
D02*
G37*
G36*
X91673D02*
X90474Y148030D01*
X89321Y147680D01*
X88258Y147112D01*
X87326Y146347D01*
X86562Y145415D01*
X85993Y144353D01*
X85644Y143199D01*
X85526Y142000D01*
X85644Y140801D01*
X85993Y139647D01*
X86562Y138584D01*
X87326Y137653D01*
X88258Y136888D01*
X89321Y136320D01*
X90474Y135970D01*
X91673Y135852D01*
X92873Y135970D01*
X94026Y136320D01*
X95089Y136888D01*
X96020Y137653D01*
X96785Y138584D01*
X97353Y139647D01*
X97703Y140801D01*
X97821Y142000D01*
X97703Y143199D01*
X97353Y144353D01*
X96785Y145415D01*
X96020Y146347D01*
X95089Y147112D01*
X94026Y147680D01*
X92873Y148030D01*
X91673Y148148D01*
D02*
G37*
G36*
X142823Y135150D02*
X134524D01*
Y126850D01*
X142823D01*
Y135150D01*
D02*
G37*
G36*
X124173Y114079D02*
X123090Y113936D01*
X122081Y113518D01*
X121214Y112853D01*
X120549Y111986D01*
X120130Y110977D01*
X119988Y109894D01*
X120130Y108810D01*
X120549Y107801D01*
X121214Y106934D01*
X122081Y106269D01*
X123090Y105851D01*
X124173Y105708D01*
X125257Y105851D01*
X126266Y106269D01*
X127133Y106934D01*
X127798Y107801D01*
X128216Y108810D01*
X128359Y109894D01*
X128216Y110977D01*
X127798Y111986D01*
X127133Y112853D01*
X126266Y113518D01*
X125257Y113936D01*
X124173Y114079D01*
D02*
G37*
G36*
X128323Y104043D02*
X120024D01*
Y95744D01*
X128323D01*
Y104043D01*
D02*
G37*
G36*
X138173Y85494D02*
X137398Y85392D01*
X136676Y85093D01*
X136056Y84617D01*
X135580Y83997D01*
X135281Y83275D01*
X135220Y82811D01*
X134605Y82500D01*
X134524Y82555D01*
X133673Y82724D01*
X132822Y82555D01*
X132101Y82073D01*
X131619Y81351D01*
X131449Y80500D01*
X131619Y79649D01*
X132101Y78927D01*
X132822Y78446D01*
X133673Y78276D01*
X134524Y78446D01*
X135246Y78927D01*
X135268Y78961D01*
X135297Y78968D01*
X135316Y78971D01*
X136173D01*
X136758Y79087D01*
X137255Y79419D01*
X137413Y79576D01*
X137414Y79578D01*
X137445Y79602D01*
X138173Y79506D01*
X138948Y79608D01*
X139670Y79907D01*
X140290Y80383D01*
X140766Y81003D01*
X141065Y81725D01*
X141167Y82500D01*
X141065Y83275D01*
X140766Y83997D01*
X140290Y84617D01*
X139670Y85093D01*
X138948Y85392D01*
X138173Y85494D01*
D02*
G37*
G36*
X123173Y73224D02*
X122322Y73055D01*
X121601Y72572D01*
X121119Y71851D01*
X120949Y71000D01*
X121119Y70149D01*
X121120Y70147D01*
X120759Y69607D01*
X120173Y69724D01*
X119322Y69555D01*
X118601Y69073D01*
X118119Y68351D01*
X117949Y67500D01*
X118119Y66649D01*
X118601Y65927D01*
X119322Y65446D01*
X119644Y65381D01*
Y37133D01*
X111753Y29243D01*
X111738Y29232D01*
X111713Y29216D01*
X111673Y29224D01*
X110822Y29055D01*
X110101Y28572D01*
X109619Y27851D01*
X109449Y27000D01*
X109619Y26149D01*
X110101Y25427D01*
X110822Y24946D01*
X111673Y24776D01*
X112524Y24946D01*
X113246Y25427D01*
X113590Y25943D01*
X113604Y25948D01*
X114243D01*
X114257Y25943D01*
X114601Y25427D01*
X115322Y24946D01*
X116173Y24776D01*
X117024Y24946D01*
X117746Y25427D01*
X118228Y26149D01*
X118397Y27000D01*
X118228Y27851D01*
X118011Y28175D01*
X124255Y34419D01*
X124586Y34915D01*
X124703Y35500D01*
Y69357D01*
X124706Y69376D01*
X124712Y69405D01*
X124746Y69428D01*
X125228Y70149D01*
X125397Y71000D01*
X125228Y71851D01*
X124746Y72572D01*
X124024Y73055D01*
X123173Y73224D01*
D02*
G37*
G36*
X99173Y85597D02*
X98501Y85509D01*
X97875Y85249D01*
X97337Y84836D01*
X96924Y84298D01*
X96665Y83672D01*
X96576Y83000D01*
X96665Y82328D01*
X96924Y81701D01*
X97121Y81445D01*
X97134Y81256D01*
Y51072D01*
X96924Y50798D01*
X96665Y50172D01*
X96576Y49500D01*
X96665Y48828D01*
X96924Y48202D01*
X97337Y47664D01*
X97875Y47251D01*
X98501Y46992D01*
X99173Y46903D01*
X99845Y46992D01*
X100472Y47251D01*
X101010Y47664D01*
X101422Y48202D01*
X101682Y48828D01*
X101770Y49500D01*
X101682Y50172D01*
X101422Y50798D01*
X101225Y51055D01*
X101212Y51244D01*
Y81428D01*
X101422Y81701D01*
X101682Y82328D01*
X101770Y83000D01*
X101682Y83672D01*
X101422Y84298D01*
X101010Y84836D01*
X100472Y85249D01*
X99845Y85509D01*
X99173Y85597D01*
D02*
G37*
G36*
X138173Y75494D02*
X137398Y75392D01*
X136676Y75093D01*
X136056Y74617D01*
X135580Y73997D01*
X135281Y73275D01*
X135179Y72500D01*
X135281Y71725D01*
X135580Y71003D01*
X135836Y70669D01*
X135833Y70504D01*
X135683Y69969D01*
X135666Y69950D01*
X135101Y69573D01*
X134619Y68851D01*
X134449Y68000D01*
X134619Y67149D01*
X135101Y66427D01*
X135822Y65946D01*
X136673Y65776D01*
X136836Y65808D01*
X137011Y65232D01*
X136676Y65093D01*
X136056Y64617D01*
X135580Y63997D01*
X135281Y63275D01*
X135179Y62500D01*
X135281Y61725D01*
X135580Y61003D01*
X135745Y60789D01*
X135773Y60722D01*
X135849Y60611D01*
X135896Y60524D01*
X135945Y60408D01*
X135994Y60263D01*
X136038Y60088D01*
X136078Y59885D01*
X136108Y59665D01*
X136134Y59307D01*
Y45572D01*
X135924Y45298D01*
X135665Y44672D01*
X135576Y44000D01*
X135665Y43328D01*
X135924Y42702D01*
X136337Y42164D01*
X136875Y41751D01*
X137501Y41491D01*
X138173Y41403D01*
X138845Y41491D01*
X139472Y41751D01*
X140010Y42164D01*
X140422Y42702D01*
X140682Y43328D01*
X140770Y44000D01*
X140682Y44672D01*
X140422Y45298D01*
X140225Y45555D01*
X140212Y45744D01*
Y59307D01*
X140238Y59665D01*
X140269Y59885D01*
X140308Y60088D01*
X140353Y60263D01*
X140401Y60408D01*
X140451Y60524D01*
X140498Y60611D01*
X140573Y60722D01*
X140602Y60789D01*
X140766Y61003D01*
X141065Y61725D01*
X141167Y62500D01*
X141155Y62598D01*
X141615Y63058D01*
X142057Y63720D01*
X142212Y64500D01*
Y66126D01*
X142228Y66149D01*
X142397Y67000D01*
X142228Y67851D01*
X141746Y68572D01*
X141024Y69055D01*
X140256Y69207D01*
X140126Y69276D01*
X139977Y69440D01*
X139961Y69476D01*
X140044Y70194D01*
X140290Y70383D01*
X140766Y71003D01*
X141065Y71725D01*
X141167Y72500D01*
X141065Y73275D01*
X140766Y73997D01*
X140290Y74617D01*
X139670Y75093D01*
X138948Y75392D01*
X138173Y75494D01*
D02*
G37*
G36*
X115673Y94597D02*
X115001Y94508D01*
X114375Y94249D01*
X113837Y93836D01*
X113424Y93299D01*
X113165Y92672D01*
X113122Y92351D01*
X112998Y92209D01*
X112231Y91442D01*
X111789Y90780D01*
X111634Y90000D01*
Y40812D01*
X111424Y40539D01*
X111165Y39912D01*
X111076Y39240D01*
X111165Y38568D01*
X111424Y37942D01*
X111837Y37404D01*
X112375Y36991D01*
X113001Y36732D01*
X113673Y36643D01*
X114345Y36732D01*
X114972Y36991D01*
X115510Y37404D01*
X115922Y37942D01*
X116182Y38568D01*
X116270Y39240D01*
X116182Y39912D01*
X115922Y40539D01*
X115725Y40795D01*
X115712Y40984D01*
Y89155D01*
X116004Y89447D01*
X116345Y89491D01*
X116972Y89751D01*
X117510Y90164D01*
X117922Y90702D01*
X118182Y91328D01*
X118270Y92000D01*
X118182Y92672D01*
X117922Y93299D01*
X117510Y93836D01*
X116972Y94249D01*
X116345Y94508D01*
X115673Y94597D01*
D02*
G37*
%LPD*%
G36*
X137529Y80640D02*
X137451Y80659D01*
X137368Y80662D01*
X137280Y80650D01*
X137187Y80624D01*
X137090Y80582D01*
X136987Y80525D01*
X136879Y80453D01*
X136767Y80366D01*
X136649Y80264D01*
X136527Y80146D01*
X135820Y80854D01*
X135937Y80976D01*
X136126Y81206D01*
X136198Y81314D01*
X136255Y81416D01*
X136297Y81514D01*
X136324Y81607D01*
X136335Y81695D01*
X136332Y81778D01*
X136313Y81856D01*
X137529Y80640D01*
D02*
G37*
G36*
X134584Y81265D02*
X134657Y81209D01*
X134735Y81160D01*
X134820Y81118D01*
X134911Y81082D01*
X135007Y81052D01*
X135109Y81029D01*
X135218Y81013D01*
X135332Y81003D01*
X135452Y81000D01*
Y80000D01*
X135332Y79997D01*
X135218Y79987D01*
X135109Y79971D01*
X135007Y79948D01*
X134911Y79918D01*
X134820Y79882D01*
X134735Y79840D01*
X134657Y79791D01*
X134584Y79735D01*
X134517Y79673D01*
Y81327D01*
X134584Y81265D01*
D02*
G37*
G36*
X123938Y70090D02*
X123882Y70017D01*
X123833Y69938D01*
X123791Y69853D01*
X123755Y69763D01*
X123725Y69666D01*
X123703Y69564D01*
X123686Y69455D01*
X123677Y69341D01*
X123673Y69221D01*
X122673D01*
X122670Y69341D01*
X122660Y69455D01*
X122644Y69564D01*
X122621Y69666D01*
X122591Y69763D01*
X122556Y69853D01*
X122513Y69938D01*
X122464Y70017D01*
X122408Y70090D01*
X122346Y70157D01*
X124000D01*
X123938Y70090D01*
D02*
G37*
G36*
X113285Y27904D02*
X113202Y27817D01*
X113128Y27729D01*
X113063Y27641D01*
X113007Y27553D01*
X112960Y27464D01*
X112921Y27374D01*
X112891Y27284D01*
X112870Y27194D01*
X112858Y27103D01*
X112854Y27012D01*
X111685Y28181D01*
X111776Y28185D01*
X111867Y28197D01*
X111958Y28218D01*
X112047Y28248D01*
X112137Y28286D01*
X112226Y28334D01*
X112314Y28390D01*
X112403Y28455D01*
X112490Y28529D01*
X112577Y28611D01*
X113285Y27904D01*
D02*
G37*
G36*
X100256Y81847D02*
X100239Y81802D01*
X100223Y81740D01*
X100210Y81661D01*
X100190Y81454D01*
X100177Y81180D01*
X100173Y80839D01*
X98173D01*
X98172Y81018D01*
X98123Y81740D01*
X98108Y81802D01*
X98090Y81847D01*
X98071Y81875D01*
X100276D01*
X100256Y81847D01*
D02*
G37*
G36*
X100174Y51482D02*
X100223Y50760D01*
X100239Y50698D01*
X100256Y50653D01*
X100276Y50625D01*
X98071D01*
X98090Y50653D01*
X98108Y50698D01*
X98123Y50760D01*
X98136Y50839D01*
X98157Y51046D01*
X98169Y51320D01*
X98173Y51661D01*
X100173D01*
X100174Y51482D01*
D02*
G37*
G36*
X139078Y70739D02*
X138993Y70662D01*
X138918Y70572D01*
X138853Y70469D01*
X138798Y70355D01*
X138753Y70228D01*
X138718Y70088D01*
X138693Y69937D01*
X138678Y69773D01*
X138673Y69596D01*
X137673D01*
X137668Y69773D01*
X137653Y69937D01*
X137628Y70088D01*
X137593Y70228D01*
X137548Y70355D01*
X137493Y70469D01*
X137428Y70572D01*
X137353Y70662D01*
X137268Y70739D01*
X137173Y70804D01*
X139173D01*
X139078Y70739D01*
D02*
G37*
G36*
X138285Y68904D02*
X138202Y68817D01*
X138128Y68729D01*
X138063Y68641D01*
X138007Y68553D01*
X137960Y68464D01*
X137921Y68374D01*
X137891Y68284D01*
X137870Y68194D01*
X137858Y68103D01*
X137854Y68012D01*
X136685Y69181D01*
X136776Y69184D01*
X136867Y69197D01*
X136958Y69218D01*
X137047Y69248D01*
X137137Y69286D01*
X137226Y69334D01*
X137314Y69390D01*
X137403Y69455D01*
X137490Y69529D01*
X137577Y69611D01*
X138285Y68904D01*
D02*
G37*
G36*
X139626Y61142D02*
X139531Y60966D01*
X139447Y60769D01*
X139374Y60551D01*
X139313Y60312D01*
X139263Y60053D01*
X139224Y59772D01*
X139179Y59148D01*
X139173Y58804D01*
X137173Y58804D01*
X137168Y59148D01*
X137123Y59772D01*
X137084Y60053D01*
X137034Y60312D01*
X136972Y60551D01*
X136900Y60769D01*
X136816Y60966D01*
X136721Y61142D01*
X136615Y61298D01*
X139732D01*
X139626Y61142D01*
D02*
G37*
G36*
X139174Y45983D02*
X139223Y45260D01*
X139239Y45198D01*
X139256Y45153D01*
X139276Y45125D01*
X137071D01*
X137090Y45153D01*
X137108Y45198D01*
X137123Y45260D01*
X137136Y45339D01*
X137157Y45546D01*
X137169Y45820D01*
X137173Y46161D01*
X139173D01*
X139174Y45983D01*
D02*
G37*
G36*
X115657Y90425D02*
X115624Y90419D01*
X115579Y90399D01*
X115525Y90366D01*
X115460Y90320D01*
X115299Y90188D01*
X115096Y90003D01*
X114852Y89764D01*
X113438Y91179D01*
X113564Y91306D01*
X114040Y91852D01*
X114073Y91906D01*
X114092Y91950D01*
X114099Y91984D01*
X115657Y90425D01*
D02*
G37*
G36*
X114674Y41223D02*
X114723Y40500D01*
X114739Y40438D01*
X114756Y40393D01*
X114776Y40365D01*
X112571D01*
X112590Y40393D01*
X112608Y40438D01*
X112623Y40500D01*
X112636Y40579D01*
X112657Y40786D01*
X112669Y41061D01*
X112673Y41402D01*
X114673D01*
X114674Y41223D01*
D02*
G37*
%LPC*%
G36*
X75681Y155185D02*
X74598Y155043D01*
X73588Y154625D01*
X72722Y153960D01*
X72056Y153093D01*
X71638Y152083D01*
X71496Y151000D01*
X71638Y149917D01*
X72056Y148907D01*
X72722Y148040D01*
X73588Y147375D01*
X74598Y146957D01*
X75681Y146815D01*
X76764Y146957D01*
X77774Y147375D01*
X78641Y148040D01*
X79306Y148907D01*
X79724Y149917D01*
X79866Y151000D01*
X79724Y152083D01*
X79306Y153093D01*
X78641Y153960D01*
X77774Y154625D01*
X76764Y155043D01*
X75681Y155185D01*
D02*
G37*
G36*
Y145185D02*
X74598Y145043D01*
X73588Y144625D01*
X72722Y143959D01*
X72056Y143093D01*
X71638Y142083D01*
X71496Y141000D01*
X71638Y139917D01*
X72056Y138907D01*
X72722Y138040D01*
X73588Y137375D01*
X74598Y136957D01*
X75681Y136815D01*
X76764Y136957D01*
X77774Y137375D01*
X78641Y138040D01*
X79306Y138907D01*
X79724Y139917D01*
X79866Y141000D01*
X79724Y142083D01*
X79306Y143093D01*
X78641Y143959D01*
X77774Y144625D01*
X76764Y145043D01*
X75681Y145185D01*
D02*
G37*
G36*
X43681Y148148D02*
X42482Y148030D01*
X41328Y147680D01*
X40266Y147112D01*
X39334Y146347D01*
X38570Y145415D01*
X38001Y144353D01*
X37652Y143199D01*
X37533Y142000D01*
X37652Y140801D01*
X38001Y139647D01*
X38570Y138584D01*
X39334Y137653D01*
X40266Y136888D01*
X41328Y136320D01*
X42482Y135970D01*
X43681Y135852D01*
X44881Y135970D01*
X46034Y136320D01*
X47097Y136888D01*
X48028Y137653D01*
X48793Y138584D01*
X49361Y139647D01*
X49711Y140801D01*
X49829Y142000D01*
X49711Y143199D01*
X49361Y144353D01*
X48793Y145415D01*
X48028Y146347D01*
X47097Y147112D01*
X46034Y147680D01*
X44881Y148030D01*
X43681Y148148D01*
D02*
G37*
G36*
X28681D02*
X27482Y148030D01*
X26329Y147680D01*
X25266Y147112D01*
X24334Y146347D01*
X23570Y145415D01*
X23001Y144353D01*
X22651Y143199D01*
X22533Y142000D01*
X22651Y140801D01*
X23001Y139647D01*
X23570Y138584D01*
X24334Y137653D01*
X25266Y136888D01*
X26329Y136320D01*
X27482Y135970D01*
X28681Y135852D01*
X29880Y135970D01*
X31034Y136320D01*
X32097Y136888D01*
X33028Y137653D01*
X33793Y138584D01*
X34361Y139647D01*
X34711Y140801D01*
X34829Y142000D01*
X34711Y143199D01*
X34361Y144353D01*
X33793Y145415D01*
X33028Y146347D01*
X32097Y147112D01*
X31034Y147680D01*
X29880Y148030D01*
X28681Y148148D01*
D02*
G37*
G36*
X79831Y135150D02*
X71531D01*
Y126850D01*
X79831D01*
Y135150D01*
D02*
G37*
G36*
X61181Y114079D02*
X60098Y113936D01*
X59088Y113518D01*
X58222Y112853D01*
X57556Y111986D01*
X57138Y110977D01*
X56996Y109894D01*
X57138Y108810D01*
X57556Y107801D01*
X58222Y106934D01*
X59088Y106269D01*
X60098Y105851D01*
X61181Y105708D01*
X62264Y105851D01*
X63274Y106269D01*
X64141Y106934D01*
X64806Y107801D01*
X65224Y108810D01*
X65367Y109894D01*
X65224Y110977D01*
X64806Y111986D01*
X64141Y112853D01*
X63274Y113518D01*
X62264Y113936D01*
X61181Y114079D01*
D02*
G37*
G36*
X65331Y104043D02*
X57032D01*
Y95744D01*
X65331D01*
Y104043D01*
D02*
G37*
G36*
X75181Y85494D02*
X74406Y85392D01*
X73684Y85093D01*
X73064Y84617D01*
X72588Y83997D01*
X72289Y83275D01*
X72228Y82811D01*
X71613Y82500D01*
X71532Y82555D01*
X70681Y82724D01*
X69830Y82555D01*
X69109Y82073D01*
X68627Y81351D01*
X68457Y80500D01*
X68627Y79649D01*
X69109Y78927D01*
X69830Y78446D01*
X70681Y78276D01*
X71532Y78446D01*
X72254Y78927D01*
X72276Y78961D01*
X72305Y78968D01*
X72324Y78971D01*
X73181D01*
X73766Y79087D01*
X74262Y79419D01*
X74420Y79576D01*
X74422Y79578D01*
X74453Y79602D01*
X75181Y79506D01*
X75956Y79608D01*
X76678Y79907D01*
X77298Y80383D01*
X77774Y81003D01*
X78073Y81725D01*
X78175Y82500D01*
X78073Y83275D01*
X77774Y83997D01*
X77298Y84617D01*
X76678Y85093D01*
X75956Y85392D01*
X75181Y85494D01*
D02*
G37*
G36*
X60181Y73224D02*
X59330Y73055D01*
X58609Y72572D01*
X58127Y71851D01*
X57957Y71000D01*
X58127Y70149D01*
X58128Y70147D01*
X57767Y69607D01*
X57181Y69724D01*
X56330Y69555D01*
X55609Y69073D01*
X55127Y68351D01*
X54957Y67500D01*
X55127Y66649D01*
X55609Y65927D01*
X56330Y65446D01*
X56652Y65381D01*
Y37133D01*
X48761Y29243D01*
X48746Y29232D01*
X48721Y29216D01*
X48681Y29224D01*
X47830Y29055D01*
X47109Y28572D01*
X46627Y27851D01*
X46457Y27000D01*
X46627Y26149D01*
X47109Y25427D01*
X47830Y24946D01*
X48681Y24776D01*
X49532Y24946D01*
X50254Y25427D01*
X50598Y25943D01*
X50612Y25948D01*
X51251D01*
X51264Y25943D01*
X51609Y25427D01*
X52330Y24946D01*
X53181Y24776D01*
X54032Y24946D01*
X54754Y25427D01*
X55236Y26149D01*
X55405Y27000D01*
X55236Y27851D01*
X55019Y28175D01*
X61263Y34419D01*
X61594Y34915D01*
X61711Y35500D01*
Y69357D01*
X61713Y69376D01*
X61720Y69405D01*
X61754Y69428D01*
X62236Y70149D01*
X62405Y71000D01*
X62236Y71851D01*
X61754Y72572D01*
X61032Y73055D01*
X60181Y73224D01*
D02*
G37*
G36*
X36181Y85597D02*
X35509Y85509D01*
X34883Y85249D01*
X34345Y84836D01*
X33932Y84298D01*
X33673Y83672D01*
X33584Y83000D01*
X33673Y82328D01*
X33932Y81701D01*
X34129Y81445D01*
X34142Y81256D01*
Y51072D01*
X33932Y50798D01*
X33673Y50172D01*
X33584Y49500D01*
X33673Y48828D01*
X33932Y48202D01*
X34345Y47664D01*
X34883Y47251D01*
X35509Y46992D01*
X36181Y46903D01*
X36853Y46992D01*
X37480Y47251D01*
X38017Y47664D01*
X38430Y48202D01*
X38690Y48828D01*
X38778Y49500D01*
X38690Y50172D01*
X38430Y50798D01*
X38233Y51055D01*
X38220Y51244D01*
Y81428D01*
X38430Y81701D01*
X38690Y82328D01*
X38778Y83000D01*
X38690Y83672D01*
X38430Y84298D01*
X38017Y84836D01*
X37480Y85249D01*
X36853Y85509D01*
X36181Y85597D01*
D02*
G37*
G36*
X75181Y75494D02*
X74406Y75392D01*
X73684Y75093D01*
X73064Y74617D01*
X72588Y73997D01*
X72289Y73275D01*
X72187Y72500D01*
X72289Y71725D01*
X72588Y71003D01*
X72844Y70669D01*
X72840Y70504D01*
X72691Y69969D01*
X72674Y69950D01*
X72109Y69573D01*
X71627Y68851D01*
X71457Y68000D01*
X71627Y67149D01*
X72109Y66427D01*
X72830Y65946D01*
X73681Y65776D01*
X73843Y65808D01*
X74019Y65232D01*
X73684Y65093D01*
X73064Y64617D01*
X72588Y63997D01*
X72289Y63275D01*
X72187Y62500D01*
X72289Y61725D01*
X72588Y61003D01*
X72752Y60789D01*
X72781Y60722D01*
X72857Y60611D01*
X72904Y60524D01*
X72953Y60408D01*
X73001Y60263D01*
X73046Y60088D01*
X73086Y59885D01*
X73116Y59665D01*
X73142Y59307D01*
Y45572D01*
X72932Y45298D01*
X72673Y44672D01*
X72584Y44000D01*
X72673Y43328D01*
X72932Y42702D01*
X73345Y42164D01*
X73883Y41751D01*
X74509Y41491D01*
X75181Y41403D01*
X75853Y41491D01*
X76480Y41751D01*
X77017Y42164D01*
X77430Y42702D01*
X77690Y43328D01*
X77778Y44000D01*
X77690Y44672D01*
X77430Y45298D01*
X77233Y45555D01*
X77220Y45744D01*
Y59307D01*
X77246Y59665D01*
X77277Y59885D01*
X77316Y60088D01*
X77361Y60263D01*
X77409Y60408D01*
X77458Y60524D01*
X77505Y60611D01*
X77581Y60722D01*
X77610Y60789D01*
X77774Y61003D01*
X78073Y61725D01*
X78175Y62500D01*
X78162Y62598D01*
X78623Y63058D01*
X79065Y63720D01*
X79220Y64500D01*
Y66126D01*
X79236Y66149D01*
X79405Y67000D01*
X79236Y67851D01*
X78754Y68572D01*
X78032Y69055D01*
X77264Y69207D01*
X77133Y69276D01*
X76985Y69440D01*
X76969Y69476D01*
X77052Y70194D01*
X77298Y70383D01*
X77774Y71003D01*
X78073Y71725D01*
X78175Y72500D01*
X78073Y73275D01*
X77774Y73997D01*
X77298Y74617D01*
X76678Y75093D01*
X75956Y75392D01*
X75181Y75494D01*
D02*
G37*
G36*
X52681Y94597D02*
X52009Y94508D01*
X51383Y94249D01*
X50845Y93836D01*
X50432Y93299D01*
X50173Y92672D01*
X50130Y92351D01*
X50006Y92209D01*
X49239Y91442D01*
X48797Y90780D01*
X48642Y90000D01*
Y40812D01*
X48432Y40539D01*
X48173Y39912D01*
X48084Y39240D01*
X48173Y38568D01*
X48432Y37942D01*
X48845Y37404D01*
X49383Y36991D01*
X50009Y36732D01*
X50681Y36643D01*
X51353Y36732D01*
X51980Y36991D01*
X52517Y37404D01*
X52930Y37942D01*
X53190Y38568D01*
X53278Y39240D01*
X53190Y39912D01*
X52930Y40539D01*
X52733Y40795D01*
X52720Y40984D01*
Y89155D01*
X53011Y89447D01*
X53353Y89491D01*
X53980Y89751D01*
X54518Y90164D01*
X54930Y90702D01*
X55190Y91328D01*
X55278Y92000D01*
X55190Y92672D01*
X54930Y93299D01*
X54518Y93836D01*
X53980Y94249D01*
X53353Y94508D01*
X52681Y94597D01*
D02*
G37*
%LPD*%
G36*
X74537Y80640D02*
X74459Y80659D01*
X74376Y80662D01*
X74288Y80650D01*
X74195Y80624D01*
X74097Y80582D01*
X73995Y80525D01*
X73887Y80453D01*
X73774Y80366D01*
X73657Y80264D01*
X73535Y80146D01*
X72828Y80854D01*
X72945Y80976D01*
X73134Y81206D01*
X73206Y81314D01*
X73263Y81416D01*
X73305Y81514D01*
X73331Y81607D01*
X73343Y81695D01*
X73340Y81778D01*
X73321Y81856D01*
X74537Y80640D01*
D02*
G37*
G36*
X71592Y81265D02*
X71665Y81209D01*
X71743Y81160D01*
X71828Y81118D01*
X71918Y81082D01*
X72015Y81052D01*
X72117Y81029D01*
X72226Y81013D01*
X72340Y81003D01*
X72460Y81000D01*
Y80000D01*
X72340Y79997D01*
X72226Y79987D01*
X72117Y79971D01*
X72015Y79948D01*
X71918Y79918D01*
X71828Y79882D01*
X71743Y79840D01*
X71665Y79791D01*
X71592Y79735D01*
X71525Y79673D01*
Y81327D01*
X71592Y81265D01*
D02*
G37*
G36*
X60946Y70090D02*
X60890Y70017D01*
X60841Y69938D01*
X60799Y69853D01*
X60763Y69763D01*
X60733Y69666D01*
X60711Y69564D01*
X60694Y69455D01*
X60684Y69341D01*
X60681Y69221D01*
X59681D01*
X59678Y69341D01*
X59668Y69455D01*
X59652Y69564D01*
X59629Y69666D01*
X59599Y69763D01*
X59563Y69853D01*
X59521Y69938D01*
X59472Y70017D01*
X59416Y70090D01*
X59354Y70157D01*
X61008D01*
X60946Y70090D01*
D02*
G37*
G36*
X50292Y27904D02*
X50210Y27817D01*
X50136Y27729D01*
X50071Y27641D01*
X50015Y27553D01*
X49967Y27464D01*
X49929Y27374D01*
X49899Y27284D01*
X49878Y27194D01*
X49866Y27103D01*
X49862Y27012D01*
X48693Y28181D01*
X48784Y28185D01*
X48875Y28197D01*
X48965Y28218D01*
X49055Y28248D01*
X49145Y28286D01*
X49234Y28334D01*
X49322Y28390D01*
X49410Y28455D01*
X49498Y28529D01*
X49585Y28611D01*
X50292Y27904D01*
D02*
G37*
G36*
X37264Y81847D02*
X37247Y81802D01*
X37231Y81740D01*
X37218Y81661D01*
X37198Y81454D01*
X37185Y81180D01*
X37181Y80839D01*
X35181D01*
X35180Y81018D01*
X35131Y81740D01*
X35116Y81802D01*
X35098Y81847D01*
X35079Y81875D01*
X37284D01*
X37264Y81847D01*
D02*
G37*
G36*
X37182Y51482D02*
X37231Y50760D01*
X37247Y50698D01*
X37264Y50653D01*
X37284Y50625D01*
X35079D01*
X35098Y50653D01*
X35116Y50698D01*
X35131Y50760D01*
X35144Y50839D01*
X35165Y51046D01*
X35177Y51320D01*
X35181Y51661D01*
X37181D01*
X37182Y51482D01*
D02*
G37*
G36*
X76086Y70739D02*
X76001Y70662D01*
X75926Y70572D01*
X75861Y70469D01*
X75806Y70355D01*
X75761Y70228D01*
X75726Y70088D01*
X75701Y69937D01*
X75686Y69773D01*
X75681Y69596D01*
X74681D01*
X74676Y69773D01*
X74661Y69937D01*
X74636Y70088D01*
X74601Y70228D01*
X74556Y70355D01*
X74501Y70469D01*
X74436Y70572D01*
X74361Y70662D01*
X74276Y70739D01*
X74181Y70804D01*
X76181D01*
X76086Y70739D01*
D02*
G37*
G36*
X75292Y68904D02*
X75210Y68817D01*
X75136Y68729D01*
X75071Y68641D01*
X75015Y68553D01*
X74967Y68464D01*
X74929Y68374D01*
X74899Y68284D01*
X74878Y68194D01*
X74866Y68103D01*
X74862Y68012D01*
X73693Y69181D01*
X73784Y69184D01*
X73875Y69197D01*
X73965Y69218D01*
X74055Y69248D01*
X74145Y69286D01*
X74234Y69334D01*
X74322Y69390D01*
X74410Y69455D01*
X74498Y69529D01*
X74585Y69611D01*
X75292Y68904D01*
D02*
G37*
G36*
X76634Y61142D02*
X76538Y60966D01*
X76455Y60769D01*
X76382Y60551D01*
X76321Y60312D01*
X76271Y60053D01*
X76231Y59772D01*
X76187Y59148D01*
X76181Y58804D01*
X74181Y58804D01*
X74176Y59148D01*
X74131Y59772D01*
X74092Y60053D01*
X74041Y60312D01*
X73980Y60551D01*
X73907Y60769D01*
X73824Y60966D01*
X73729Y61142D01*
X73623Y61298D01*
X76740D01*
X76634Y61142D01*
D02*
G37*
G36*
X76182Y45983D02*
X76231Y45260D01*
X76247Y45198D01*
X76264Y45153D01*
X76284Y45125D01*
X74079D01*
X74098Y45153D01*
X74116Y45198D01*
X74131Y45260D01*
X74144Y45339D01*
X74165Y45546D01*
X74177Y45820D01*
X74181Y46161D01*
X76181D01*
X76182Y45983D01*
D02*
G37*
G36*
X52665Y90425D02*
X52631Y90419D01*
X52587Y90399D01*
X52533Y90366D01*
X52468Y90320D01*
X52307Y90188D01*
X52104Y90003D01*
X51860Y89764D01*
X50446Y91179D01*
X50571Y91306D01*
X51047Y91852D01*
X51080Y91906D01*
X51100Y91950D01*
X51106Y91984D01*
X52665Y90425D01*
D02*
G37*
G36*
X51682Y41223D02*
X51731Y40500D01*
X51747Y40438D01*
X51764Y40393D01*
X51784Y40365D01*
X49579D01*
X49598Y40393D01*
X49616Y40438D01*
X49631Y40500D01*
X49644Y40579D01*
X49665Y40786D01*
X49677Y41061D01*
X49681Y41402D01*
X51681D01*
X51682Y41223D01*
D02*
G37*
D10*
X27181Y222461D02*
D03*
Y232461D02*
D03*
Y242461D02*
D03*
Y252461D02*
D03*
X90173Y222461D02*
D03*
Y232461D02*
D03*
Y242461D02*
D03*
Y252461D02*
D03*
X153165Y222461D02*
D03*
Y232461D02*
D03*
Y242461D02*
D03*
Y252461D02*
D03*
X216158Y222461D02*
D03*
Y232461D02*
D03*
Y242461D02*
D03*
Y252461D02*
D03*
X279150Y222461D02*
D03*
Y232461D02*
D03*
Y242461D02*
D03*
Y252461D02*
D03*
X327150Y92500D02*
D03*
Y82500D02*
D03*
Y72500D02*
D03*
Y62500D02*
D03*
X264158Y92500D02*
D03*
Y82500D02*
D03*
Y72500D02*
D03*
Y62500D02*
D03*
X201165Y92500D02*
D03*
Y82500D02*
D03*
Y72500D02*
D03*
Y62500D02*
D03*
X138173Y92500D02*
D03*
Y82500D02*
D03*
Y72500D02*
D03*
Y62500D02*
D03*
X75181Y92500D02*
D03*
Y82500D02*
D03*
Y72500D02*
D03*
Y62500D02*
D03*
D21*
X25181Y250461D02*
Y247961D01*
X27181Y252461D02*
X25181Y250461D01*
X66181Y265461D02*
Y231961D01*
X51681Y275721D02*
Y224961D01*
X49681Y222961D01*
X27181Y270961D02*
Y252461D01*
X27181Y252461D01*
X88173Y250461D02*
Y247961D01*
X90173Y252461D02*
X88173Y250461D01*
X129173Y265461D02*
Y231961D01*
X114673Y275721D02*
Y224961D01*
X112673Y222961D01*
X90173Y270961D02*
Y252461D01*
X90173Y252461D01*
X151165Y250461D02*
Y247961D01*
X153165Y252461D02*
X151165Y250461D01*
X192165Y265461D02*
Y231961D01*
X177665Y275721D02*
Y224961D01*
X175665Y222961D01*
X153165Y270961D02*
Y252461D01*
X153165Y252461D01*
X214158Y250461D02*
Y247961D01*
X216158Y252461D02*
X214158Y250461D01*
X255157Y265461D02*
Y231961D01*
X240657Y275721D02*
Y224961D01*
X238657Y222961D01*
X216158Y270961D02*
Y252461D01*
X216158Y252461D01*
X277150Y250461D02*
Y247961D01*
X279150Y252461D02*
X277150Y250461D01*
X318150Y265461D02*
Y231961D01*
X303650Y275721D02*
Y224961D01*
X301650Y222961D01*
X279150Y270961D02*
Y252461D01*
X279150Y252461D01*
X329150Y64500D02*
Y67000D01*
X327150Y62500D02*
X329150Y64500D01*
X288150Y49500D02*
Y83000D01*
X302650Y39240D02*
Y90000D01*
X304650Y92000D01*
X327150Y44000D02*
Y62500D01*
X327150Y62500D01*
X266158Y64500D02*
Y67000D01*
X264158Y62500D02*
X266158Y64500D01*
X225157Y49500D02*
Y83000D01*
X239657Y39240D02*
Y90000D01*
X241657Y92000D01*
X264158Y44000D02*
Y62500D01*
X264158Y62500D01*
X203165Y64500D02*
Y67000D01*
X201165Y62500D02*
X203165Y64500D01*
X162165Y49500D02*
Y83000D01*
X176665Y39240D02*
Y90000D01*
X178665Y92000D01*
X201165Y44000D02*
Y62500D01*
X201165Y62500D01*
X140173Y64500D02*
Y67000D01*
X138173Y62500D02*
X140173Y64500D01*
X99173Y49500D02*
Y83000D01*
X113673Y39240D02*
Y90000D01*
X115673Y92000D01*
X138173Y44000D02*
Y62500D01*
X138173Y62500D01*
X77181Y64500D02*
Y67000D01*
X75181Y62500D02*
X77181Y64500D01*
X36181Y49500D02*
Y83000D01*
X50681Y39240D02*
Y90000D01*
X52681Y92000D01*
X75181Y44000D02*
Y62500D01*
X75181Y62500D01*
D22*
X44181Y248461D02*
X45181Y247461D01*
X53681Y287961D02*
X44181Y278461D01*
Y248461D01*
X49181Y287961D02*
Y286461D01*
X42181Y279461D01*
Y243961D01*
X27181Y245461D02*
Y242461D01*
X28681Y246961D02*
X27181Y245461D01*
X29181Y234461D02*
X27181Y232461D01*
X29181Y234461D02*
X31681D01*
X107173Y248461D02*
X108173Y247461D01*
X116673Y287961D02*
X107173Y278461D01*
Y248461D01*
X112173Y287961D02*
Y286461D01*
X105173Y279461D01*
Y243961D01*
X90173Y245461D02*
Y242461D01*
X91673Y246961D02*
X90173Y245461D01*
X92173Y234461D02*
X90173Y232461D01*
X92173Y234461D02*
X94673D01*
X170165Y248461D02*
X171165Y247461D01*
X179665Y287961D02*
X170165Y278461D01*
Y248461D01*
X175165Y287961D02*
Y286461D01*
X168165Y279461D01*
Y243961D01*
X153165Y245461D02*
Y242461D01*
X154665Y246961D02*
X153165Y245461D01*
X155165Y234461D02*
X153165Y232461D01*
X155165Y234461D02*
X157665D01*
X233157Y248461D02*
X234157Y247461D01*
X242657Y287961D02*
X233157Y278461D01*
Y248461D01*
X238158Y287961D02*
Y286461D01*
X231157Y279461D01*
Y243961D01*
X216158Y245461D02*
Y242461D01*
X217657Y246961D02*
X216158Y245461D01*
X218158Y234461D02*
X216158Y232461D01*
X218158Y234461D02*
X220657D01*
X296150Y248461D02*
X297150Y247461D01*
X305650Y287961D02*
X296150Y278461D01*
Y248461D01*
X301150Y287961D02*
Y286461D01*
X294150Y279461D01*
Y243961D01*
X279150Y245461D02*
Y242461D01*
X280650Y246961D02*
X279150Y245461D01*
X281150Y234461D02*
X279150Y232461D01*
X281150Y234461D02*
X283650D01*
X310150Y66500D02*
X309150Y67500D01*
X300650Y27000D02*
X310150Y36500D01*
Y66500D01*
X305150Y27000D02*
Y28500D01*
X312150Y35500D01*
Y71000D01*
X327150Y69500D02*
Y72500D01*
X325650Y68000D02*
X327150Y69500D01*
X325150Y80500D02*
X327150Y82500D01*
X325150Y80500D02*
X322650D01*
X247158Y66500D02*
X246158Y67500D01*
X237657Y27000D02*
X247158Y36500D01*
Y66500D01*
X242158Y27000D02*
Y28500D01*
X249158Y35500D01*
Y71000D01*
X264158Y69500D02*
Y72500D01*
X262657Y68000D02*
X264158Y69500D01*
X262158Y80500D02*
X264158Y82500D01*
X262158Y80500D02*
X259658D01*
X184165Y66500D02*
X183165Y67500D01*
X174665Y27000D02*
X184165Y36500D01*
Y66500D01*
X179165Y27000D02*
Y28500D01*
X186165Y35500D01*
Y71000D01*
X201165Y69500D02*
Y72500D01*
X199665Y68000D02*
X201165Y69500D01*
X199165Y80500D02*
X201165Y82500D01*
X199165Y80500D02*
X196665D01*
X121173Y66500D02*
X120173Y67500D01*
X111673Y27000D02*
X121173Y36500D01*
Y66500D01*
X116173Y27000D02*
Y28500D01*
X123173Y35500D01*
Y71000D01*
X138173Y69500D02*
Y72500D01*
X136673Y68000D02*
X138173Y69500D01*
X136173Y80500D02*
X138173Y82500D01*
X136173Y80500D02*
X133673D01*
X58181Y66500D02*
X57181Y67500D01*
X48681Y27000D02*
X58181Y36500D01*
Y66500D01*
X53181Y27000D02*
Y28500D01*
X60181Y35500D01*
Y71000D01*
X75181Y69500D02*
Y72500D01*
X73681Y68000D02*
X75181Y69500D01*
X73181Y80500D02*
X75181Y82500D01*
X73181Y80500D02*
X70681D01*
X363205Y325896D02*
Y321897D01*
X365204Y319898D01*
X367203Y321897D01*
Y325896D01*
X369203Y322897D02*
X373201D01*
X379200Y324896D02*
X378200Y325896D01*
X376201D01*
X375201Y324896D01*
Y320897D01*
X376201Y319898D01*
X378200D01*
X379200Y320897D01*
X381199Y325896D02*
Y320897D01*
X382199Y319898D01*
X384198D01*
X385198Y320897D01*
Y325896D01*
X387197D02*
X391196D01*
X389196D01*
Y319898D01*
D24*
X330709Y-0D02*
G03*
X334646Y3937I0J3937D01*
G01*
X271654Y3937D02*
G03*
X275590Y0I3937J0D01*
G01*
X267717Y-0D02*
G03*
X271654Y3937I0J3937D01*
G01*
X208661Y3937D02*
G03*
X212598Y0I3937J0D01*
G01*
X204724Y-0D02*
G03*
X208661Y3937I0J3937D01*
G01*
X145669Y3937D02*
G03*
X149606Y0I3937J0D01*
G01*
X141732Y-0D02*
G03*
X145669Y3937I0J3937D01*
G01*
X82677Y3937D02*
G03*
X86614Y0I3937J0D01*
G01*
X78740Y-0D02*
G03*
X82677Y3937I0J3937D01*
G01*
X19685Y3937D02*
G03*
X23622Y0I3937J0D01*
G01*
X23622Y157480D02*
G03*
X19685Y153543I0J-3937D01*
G01*
X82677D02*
G03*
X78740Y157480I-3937J0D01*
G01*
X86614D02*
G03*
X82677Y153543I0J-3937D01*
G01*
X145669D02*
G03*
X141732Y157480I-3937J0D01*
G01*
X149606D02*
G03*
X145669Y153543I0J-3937D01*
G01*
X208661D02*
G03*
X204724Y157480I-3937J0D01*
G01*
X212598D02*
G03*
X208661Y153543I0J-3937D01*
G01*
X271654D02*
G03*
X267717Y157480I-3937J0D01*
G01*
X275590D02*
G03*
X271654Y153543I0J-3937D01*
G01*
X334646D02*
G03*
X330709Y157480I-3937J0D01*
G01*
X330709Y157480D02*
G03*
X334646Y161417I0J3937D01*
G01*
X271654Y161417D02*
G03*
X275590Y157480I3937J0D01*
G01*
X267717Y157480D02*
G03*
X271654Y161417I0J3937D01*
G01*
X208661Y161417D02*
G03*
X212598Y157480I3937J0D01*
G01*
X204724Y157480D02*
G03*
X208661Y161417I0J3937D01*
G01*
X145669Y161417D02*
G03*
X149606Y157480I3937J0D01*
G01*
X141732Y157480D02*
G03*
X145669Y161417I0J3937D01*
G01*
X82677Y161417D02*
G03*
X86614Y157480I3937J0D01*
G01*
X78740Y157480D02*
G03*
X82677Y161417I0J3937D01*
G01*
X19685Y161417D02*
G03*
X23622Y157480I3937J0D01*
G01*
X334646Y311024D02*
G03*
X330709Y314961I-3937J0D01*
G01*
X275590D02*
G03*
X271654Y311024I0J-3937D01*
G01*
X271654D02*
G03*
X267717Y314961I-3937J0D01*
G01*
X212598D02*
G03*
X208661Y311024I0J-3937D01*
G01*
X208661D02*
G03*
X204724Y314961I-3937J0D01*
G01*
X149606D02*
G03*
X145669Y311024I0J-3937D01*
G01*
X145669D02*
G03*
X141732Y314961I-3937J0D01*
G01*
X86614D02*
G03*
X82677Y311024I0J-3937D01*
G01*
X82677D02*
G03*
X78740Y314961I-3937J0D01*
G01*
X23622D02*
G03*
X19685Y311024I0J-3937D01*
G01*
Y3928D02*
Y311024D01*
X334646Y3937D02*
Y311024D01*
X334646Y311024D02*
Y314961D01*
X275590Y0D02*
X330709D01*
X334646D02*
Y3937D01*
X19685Y0D02*
Y3937D01*
X334646Y314961D02*
X354331D01*
X334646Y314961D02*
X334646Y314961D01*
X275584Y157480D02*
X330717D01*
X271654Y311024D02*
X271654Y161417D01*
X212598Y157480D02*
X267725D01*
X271654Y3937D02*
Y153543D01*
X208661Y3928D02*
Y153552D01*
X149600Y157480D02*
X204733D01*
X208661Y311024D02*
X208661Y161417D01*
X145669Y311024D02*
X145669Y161417D01*
X86614Y157480D02*
X141732D01*
X145669Y3937D02*
Y153543D01*
X23616Y157480D02*
X78749D01*
X82677Y3937D02*
Y153543D01*
X82677Y311024D02*
X82677Y161417D01*
X208661Y3937D02*
X208661Y3937D01*
X271654Y311024D02*
X271654Y311024D01*
X271654Y161417D02*
X271654Y161417D01*
X145669Y161417D02*
X145669Y161417D01*
X275590Y314961D02*
X330709D01*
X212598D02*
X267717D01*
X149606D02*
X204724D01*
X86614D02*
X141732D01*
X23622D02*
X78740D01*
X334646Y0D02*
X354331D01*
X212598D02*
X267717D01*
X149606D02*
X204724D01*
X86614D02*
X141732D01*
X23622D02*
X78740D01*
X0D02*
X19685D01*
Y311024D02*
Y314961D01*
X0D02*
X19685D01*
X354331D02*
X354331Y0D01*
X-0Y314961D02*
X0Y0D01*
D25*
X344488Y9843D02*
D03*
Y305118D02*
D03*
X9843D02*
D03*
Y9843D02*
D03*
D26*
X73681Y172961D02*
D03*
X58681D02*
D03*
X43681D02*
D03*
X136673D02*
D03*
X121673D02*
D03*
X106673D02*
D03*
X199665D02*
D03*
X184665D02*
D03*
X169665D02*
D03*
X262657D02*
D03*
X247657D02*
D03*
X232658D02*
D03*
X325650D02*
D03*
X310650D02*
D03*
X295650D02*
D03*
X280650Y142000D02*
D03*
X295650D02*
D03*
X310650D02*
D03*
X217657D02*
D03*
X232658D02*
D03*
X247657D02*
D03*
X154665D02*
D03*
X169665D02*
D03*
X184665D02*
D03*
X91673D02*
D03*
X106673D02*
D03*
X121673D02*
D03*
X28681D02*
D03*
X43681D02*
D03*
X58681D02*
D03*
D27*
X41634Y295779D02*
D03*
X60728D02*
D03*
X104626D02*
D03*
X123721D02*
D03*
X167618D02*
D03*
X186713D02*
D03*
X230610D02*
D03*
X249705D02*
D03*
X293602D02*
D03*
X312697D02*
D03*
Y19181D02*
D03*
X293602D02*
D03*
X249705D02*
D03*
X230610D02*
D03*
X186713D02*
D03*
X167618D02*
D03*
X123721D02*
D03*
X104626D02*
D03*
X60728D02*
D03*
X41634D02*
D03*
D28*
X36909Y306331D02*
D03*
X65453D02*
D03*
X99902D02*
D03*
X128445D02*
D03*
X162894D02*
D03*
X191437D02*
D03*
X225886D02*
D03*
X254429D02*
D03*
X288878D02*
D03*
X317421D02*
D03*
X317421Y8630D02*
D03*
X288878D02*
D03*
X254429D02*
D03*
X225886D02*
D03*
X191437D02*
D03*
X162894D02*
D03*
X128445D02*
D03*
X99902D02*
D03*
X65453D02*
D03*
X36909D02*
D03*
D29*
X26681Y163961D02*
D03*
Y173961D02*
D03*
X41181Y205067D02*
D03*
X89673Y163961D02*
D03*
Y173961D02*
D03*
X104173Y205067D02*
D03*
X152665Y163961D02*
D03*
Y173961D02*
D03*
X167165Y205067D02*
D03*
X215657Y163961D02*
D03*
Y173961D02*
D03*
X230157Y205067D02*
D03*
X278650Y163961D02*
D03*
Y173961D02*
D03*
X293150Y205067D02*
D03*
X327650Y151000D02*
D03*
Y141000D02*
D03*
X313150Y109894D02*
D03*
X264657Y151000D02*
D03*
Y141000D02*
D03*
X250157Y109894D02*
D03*
X201665Y151000D02*
D03*
Y141000D02*
D03*
X187165Y109894D02*
D03*
X138673Y151000D02*
D03*
Y141000D02*
D03*
X124173Y109894D02*
D03*
X75681Y151000D02*
D03*
Y141000D02*
D03*
X61181Y109894D02*
D03*
D30*
X26681Y183961D02*
D03*
X41181Y215067D02*
D03*
X89673Y183961D02*
D03*
X104173Y215067D02*
D03*
X152665Y183961D02*
D03*
X167165Y215067D02*
D03*
X215657Y183961D02*
D03*
X230157Y215067D02*
D03*
X278650Y183961D02*
D03*
X293150Y215067D02*
D03*
X327650Y131000D02*
D03*
X313150Y99894D02*
D03*
X264657Y131000D02*
D03*
X250157Y99894D02*
D03*
X201665Y131000D02*
D03*
X187165Y99894D02*
D03*
X138673Y131000D02*
D03*
X124173Y99894D02*
D03*
X75681Y131000D02*
D03*
X61181Y99894D02*
D03*
D31*
X25181Y247961D02*
D03*
X55181Y181461D02*
D03*
X51181Y185461D02*
D03*
X31681Y191961D02*
D03*
X53681Y287961D02*
D03*
X45181Y247461D02*
D03*
X42181Y243961D02*
D03*
X49181Y287961D02*
D03*
X28681Y246961D02*
D03*
X31681Y234461D02*
D03*
X36181Y264961D02*
D03*
X32181D02*
D03*
X47681Y257961D02*
D03*
Y251961D02*
D03*
Y241961D02*
D03*
X58681Y257961D02*
D03*
Y251961D02*
D03*
Y245961D02*
D03*
X36181Y229961D02*
D03*
X26681Y227461D02*
D03*
Y217461D02*
D03*
X31681Y227461D02*
D03*
X44181Y222961D02*
D03*
X38181D02*
D03*
X38681Y197461D02*
D03*
X46181Y195961D02*
D03*
X50681Y191961D02*
D03*
X55181Y185461D02*
D03*
X50681Y195961D02*
D03*
X23181Y198961D02*
D03*
X77181Y163961D02*
D03*
X71181D02*
D03*
Y181461D02*
D03*
X77181D02*
D03*
X79681Y192461D02*
D03*
Y197461D02*
D03*
Y202461D02*
D03*
Y207461D02*
D03*
Y212461D02*
D03*
Y217461D02*
D03*
Y222461D02*
D03*
Y227461D02*
D03*
Y232461D02*
D03*
Y237461D02*
D03*
Y242461D02*
D03*
Y247461D02*
D03*
Y252461D02*
D03*
Y257461D02*
D03*
Y262461D02*
D03*
Y267461D02*
D03*
Y272461D02*
D03*
Y277461D02*
D03*
Y282461D02*
D03*
Y287461D02*
D03*
Y292461D02*
D03*
X49681Y279461D02*
D03*
X32681Y286461D02*
D03*
X44681Y287961D02*
D03*
X38181Y185461D02*
D03*
X42181Y181461D02*
D03*
X38181D02*
D03*
X56181Y211461D02*
D03*
Y206461D02*
D03*
X66181Y214461D02*
D03*
X71181Y206461D02*
D03*
X63681D02*
D03*
X71181Y214461D02*
D03*
Y228961D02*
D03*
Y266461D02*
D03*
X77181Y185961D02*
D03*
X71181D02*
D03*
X88173Y247961D02*
D03*
X118173Y181461D02*
D03*
X114173Y185461D02*
D03*
X94673Y191961D02*
D03*
X116673Y287961D02*
D03*
X108173Y247461D02*
D03*
X105173Y243961D02*
D03*
X112173Y287961D02*
D03*
X91673Y246961D02*
D03*
X94673Y234461D02*
D03*
X99173Y264961D02*
D03*
X95173D02*
D03*
X110673Y257961D02*
D03*
Y251961D02*
D03*
Y241961D02*
D03*
X121673Y257961D02*
D03*
Y251961D02*
D03*
Y245961D02*
D03*
X99173Y229961D02*
D03*
X89673Y227461D02*
D03*
Y217461D02*
D03*
X94673Y227461D02*
D03*
X107173Y222961D02*
D03*
X101173D02*
D03*
X101673Y197461D02*
D03*
X109173Y195961D02*
D03*
X113673Y191961D02*
D03*
X118173Y185461D02*
D03*
X113673Y195961D02*
D03*
X86173Y198961D02*
D03*
X140173Y163961D02*
D03*
X134173D02*
D03*
Y181461D02*
D03*
X140173D02*
D03*
X142673Y192461D02*
D03*
Y197461D02*
D03*
Y202461D02*
D03*
Y207461D02*
D03*
Y212461D02*
D03*
Y217461D02*
D03*
Y222461D02*
D03*
Y227461D02*
D03*
Y232461D02*
D03*
Y237461D02*
D03*
Y242461D02*
D03*
Y247461D02*
D03*
Y252461D02*
D03*
Y257461D02*
D03*
Y262461D02*
D03*
Y267461D02*
D03*
Y272461D02*
D03*
Y277461D02*
D03*
Y282461D02*
D03*
Y287461D02*
D03*
Y292461D02*
D03*
X112673Y279461D02*
D03*
X95673Y286461D02*
D03*
X107673Y287961D02*
D03*
X101173Y185461D02*
D03*
X105173Y181461D02*
D03*
X101173D02*
D03*
X119173Y211461D02*
D03*
Y206461D02*
D03*
X129173Y214461D02*
D03*
X134173Y206461D02*
D03*
X126673D02*
D03*
X134173Y214461D02*
D03*
Y228961D02*
D03*
Y266461D02*
D03*
X140173Y185961D02*
D03*
X134173D02*
D03*
X151165Y247961D02*
D03*
X181165Y181461D02*
D03*
X177165Y185461D02*
D03*
X157665Y191961D02*
D03*
X179665Y287961D02*
D03*
X171165Y247461D02*
D03*
X168165Y243961D02*
D03*
X175165Y287961D02*
D03*
X154665Y246961D02*
D03*
X157665Y234461D02*
D03*
X162165Y264961D02*
D03*
X158165D02*
D03*
X173665Y257961D02*
D03*
Y251961D02*
D03*
Y241961D02*
D03*
X184665Y257961D02*
D03*
Y251961D02*
D03*
Y245961D02*
D03*
X162165Y229961D02*
D03*
X152665Y227461D02*
D03*
Y217461D02*
D03*
X157665Y227461D02*
D03*
X170165Y222961D02*
D03*
X164165D02*
D03*
X164665Y197461D02*
D03*
X172165Y195961D02*
D03*
X176665Y191961D02*
D03*
X181165Y185461D02*
D03*
X176665Y195961D02*
D03*
X149165Y198961D02*
D03*
X203165Y163961D02*
D03*
X197165D02*
D03*
Y181461D02*
D03*
X203165D02*
D03*
X205665Y192461D02*
D03*
Y197461D02*
D03*
Y202461D02*
D03*
Y207461D02*
D03*
Y212461D02*
D03*
Y217461D02*
D03*
Y222461D02*
D03*
Y227461D02*
D03*
Y232461D02*
D03*
Y237461D02*
D03*
Y242461D02*
D03*
Y247461D02*
D03*
Y252461D02*
D03*
Y257461D02*
D03*
Y262461D02*
D03*
Y267461D02*
D03*
Y272461D02*
D03*
Y277461D02*
D03*
Y282461D02*
D03*
Y287461D02*
D03*
Y292461D02*
D03*
X175665Y279461D02*
D03*
X158665Y286461D02*
D03*
X170665Y287961D02*
D03*
X164165Y185461D02*
D03*
X168165Y181461D02*
D03*
X164165D02*
D03*
X182165Y211461D02*
D03*
Y206461D02*
D03*
X192165Y214461D02*
D03*
X197165Y206461D02*
D03*
X189665D02*
D03*
X197165Y214461D02*
D03*
Y228961D02*
D03*
Y266461D02*
D03*
X203165Y185961D02*
D03*
X197165D02*
D03*
X214158Y247961D02*
D03*
X244158Y181461D02*
D03*
X240158Y185461D02*
D03*
X220657Y191961D02*
D03*
X242657Y287961D02*
D03*
X234157Y247461D02*
D03*
X231157Y243961D02*
D03*
X238158Y287961D02*
D03*
X217657Y246961D02*
D03*
X220657Y234461D02*
D03*
X225157Y264961D02*
D03*
X221158D02*
D03*
X236658Y257961D02*
D03*
Y251961D02*
D03*
Y241961D02*
D03*
X247657Y257961D02*
D03*
Y251961D02*
D03*
Y245961D02*
D03*
X225157Y229961D02*
D03*
X215657Y227461D02*
D03*
Y217461D02*
D03*
X220657Y227461D02*
D03*
X233157Y222961D02*
D03*
X227157D02*
D03*
X227658Y197461D02*
D03*
X235157Y195961D02*
D03*
X239657Y191961D02*
D03*
X244158Y185461D02*
D03*
X239657Y195961D02*
D03*
X212158Y198961D02*
D03*
X266158Y163961D02*
D03*
X260157D02*
D03*
Y181461D02*
D03*
X266158D02*
D03*
X268657Y192461D02*
D03*
Y197461D02*
D03*
Y202461D02*
D03*
Y207461D02*
D03*
Y212461D02*
D03*
Y217461D02*
D03*
Y222461D02*
D03*
Y227461D02*
D03*
Y232461D02*
D03*
Y237461D02*
D03*
Y242461D02*
D03*
Y247461D02*
D03*
Y252461D02*
D03*
Y257461D02*
D03*
Y262461D02*
D03*
Y267461D02*
D03*
Y272461D02*
D03*
Y277461D02*
D03*
Y282461D02*
D03*
Y287461D02*
D03*
Y292461D02*
D03*
X238657Y279461D02*
D03*
X221657Y286461D02*
D03*
X233658Y287961D02*
D03*
X227157Y185461D02*
D03*
X231157Y181461D02*
D03*
X227157D02*
D03*
X245158Y211461D02*
D03*
Y206461D02*
D03*
X255157Y214461D02*
D03*
X260157Y206461D02*
D03*
X252658D02*
D03*
X260157Y214461D02*
D03*
Y228961D02*
D03*
Y266461D02*
D03*
X266158Y185961D02*
D03*
X260157D02*
D03*
X277150Y247961D02*
D03*
X307150Y181461D02*
D03*
X303150Y185461D02*
D03*
X283650Y191961D02*
D03*
X305650Y287961D02*
D03*
X297150Y247461D02*
D03*
X294150Y243961D02*
D03*
X301150Y287961D02*
D03*
X280650Y246961D02*
D03*
X283650Y234461D02*
D03*
X288150Y264961D02*
D03*
X284150D02*
D03*
X299650Y257961D02*
D03*
Y251961D02*
D03*
Y241961D02*
D03*
X310650Y257961D02*
D03*
Y251961D02*
D03*
Y245961D02*
D03*
X288150Y229961D02*
D03*
X278650Y227461D02*
D03*
Y217461D02*
D03*
X283650Y227461D02*
D03*
X296150Y222961D02*
D03*
X290150D02*
D03*
X290650Y197461D02*
D03*
X298150Y195961D02*
D03*
X302650Y191961D02*
D03*
X307150Y185461D02*
D03*
X302650Y195961D02*
D03*
X275150Y198961D02*
D03*
X329150Y163961D02*
D03*
X323150D02*
D03*
Y181461D02*
D03*
X329150D02*
D03*
X331650Y192461D02*
D03*
Y197461D02*
D03*
Y202461D02*
D03*
Y207461D02*
D03*
Y212461D02*
D03*
Y217461D02*
D03*
Y222461D02*
D03*
Y227461D02*
D03*
Y232461D02*
D03*
Y237461D02*
D03*
Y242461D02*
D03*
Y247461D02*
D03*
Y252461D02*
D03*
Y257461D02*
D03*
Y262461D02*
D03*
Y267461D02*
D03*
Y272461D02*
D03*
Y277461D02*
D03*
Y282461D02*
D03*
Y287461D02*
D03*
Y292461D02*
D03*
X301650Y279461D02*
D03*
X284650Y286461D02*
D03*
X296650Y287961D02*
D03*
X290150Y185461D02*
D03*
X294150Y181461D02*
D03*
X290150D02*
D03*
X308150Y211461D02*
D03*
Y206461D02*
D03*
X318150Y214461D02*
D03*
X323150Y206461D02*
D03*
X315650D02*
D03*
X323150Y214461D02*
D03*
Y228961D02*
D03*
Y266461D02*
D03*
X329150Y185961D02*
D03*
X323150D02*
D03*
X329150Y67000D02*
D03*
X299150Y133500D02*
D03*
X303150Y129500D02*
D03*
X322650Y123000D02*
D03*
X300650Y27000D02*
D03*
X309150Y67500D02*
D03*
X312150Y71000D02*
D03*
X305150Y27000D02*
D03*
X325650Y68000D02*
D03*
X322650Y80500D02*
D03*
X318150Y50000D02*
D03*
X322150D02*
D03*
X306650Y57000D02*
D03*
Y63000D02*
D03*
Y73000D02*
D03*
X295650Y57000D02*
D03*
Y63000D02*
D03*
Y69000D02*
D03*
X318150Y85000D02*
D03*
X327650Y87500D02*
D03*
Y97500D02*
D03*
X322650Y87500D02*
D03*
X310150Y92000D02*
D03*
X316150D02*
D03*
X315650Y117500D02*
D03*
X308150Y119000D02*
D03*
X303650Y123000D02*
D03*
X299150Y129500D02*
D03*
X303650Y119000D02*
D03*
X331150Y116000D02*
D03*
X277150Y151000D02*
D03*
X283150D02*
D03*
Y133500D02*
D03*
X277150D02*
D03*
X274650Y122500D02*
D03*
Y117500D02*
D03*
Y112500D02*
D03*
Y107500D02*
D03*
Y102500D02*
D03*
Y97500D02*
D03*
Y92500D02*
D03*
Y87500D02*
D03*
Y82500D02*
D03*
Y77500D02*
D03*
Y72500D02*
D03*
Y67500D02*
D03*
Y62500D02*
D03*
Y57500D02*
D03*
Y52500D02*
D03*
Y47500D02*
D03*
Y42500D02*
D03*
Y37500D02*
D03*
Y32500D02*
D03*
Y27500D02*
D03*
Y22500D02*
D03*
X304650Y35500D02*
D03*
X321650Y28500D02*
D03*
X309650Y27000D02*
D03*
X316150Y129500D02*
D03*
X312150Y133500D02*
D03*
X316150D02*
D03*
X298150Y103500D02*
D03*
Y108500D02*
D03*
X288150Y100500D02*
D03*
X283150Y108500D02*
D03*
X290650D02*
D03*
X283150Y100500D02*
D03*
Y86000D02*
D03*
Y48500D02*
D03*
X277150Y129000D02*
D03*
X283150D02*
D03*
X266158Y67000D02*
D03*
X236157Y133500D02*
D03*
X240158Y129500D02*
D03*
X259658Y123000D02*
D03*
X237657Y27000D02*
D03*
X246158Y67500D02*
D03*
X249158Y71000D02*
D03*
X242158Y27000D02*
D03*
X262657Y68000D02*
D03*
X259658Y80500D02*
D03*
X255157Y50000D02*
D03*
X259157D02*
D03*
X243657Y57000D02*
D03*
Y63000D02*
D03*
Y73000D02*
D03*
X232658Y57000D02*
D03*
Y63000D02*
D03*
Y69000D02*
D03*
X255157Y85000D02*
D03*
X264657Y87500D02*
D03*
Y97500D02*
D03*
X259658Y87500D02*
D03*
X247158Y92000D02*
D03*
X253157D02*
D03*
X252658Y117500D02*
D03*
X245158Y119000D02*
D03*
X240657Y123000D02*
D03*
X236157Y129500D02*
D03*
X240657Y119000D02*
D03*
X268158Y116000D02*
D03*
X214158Y151000D02*
D03*
X220158D02*
D03*
Y133500D02*
D03*
X214158D02*
D03*
X211658Y122500D02*
D03*
Y117500D02*
D03*
Y112500D02*
D03*
Y107500D02*
D03*
Y102500D02*
D03*
Y97500D02*
D03*
Y92500D02*
D03*
Y87500D02*
D03*
Y82500D02*
D03*
Y77500D02*
D03*
Y72500D02*
D03*
Y67500D02*
D03*
Y62500D02*
D03*
Y57500D02*
D03*
Y52500D02*
D03*
Y47500D02*
D03*
Y42500D02*
D03*
Y37500D02*
D03*
Y32500D02*
D03*
Y27500D02*
D03*
Y22500D02*
D03*
X241657Y35500D02*
D03*
X258658Y28500D02*
D03*
X246657Y27000D02*
D03*
X253157Y129500D02*
D03*
X249158Y133500D02*
D03*
X253157D02*
D03*
X235157Y103500D02*
D03*
Y108500D02*
D03*
X225157Y100500D02*
D03*
X220158Y108500D02*
D03*
X227658D02*
D03*
X220158Y100500D02*
D03*
Y86000D02*
D03*
Y48500D02*
D03*
X214158Y129000D02*
D03*
X220158D02*
D03*
X203165Y67000D02*
D03*
X173165Y133500D02*
D03*
X177165Y129500D02*
D03*
X196665Y123000D02*
D03*
X174665Y27000D02*
D03*
X183165Y67500D02*
D03*
X186165Y71000D02*
D03*
X179165Y27000D02*
D03*
X199665Y68000D02*
D03*
X196665Y80500D02*
D03*
X192165Y50000D02*
D03*
X196165D02*
D03*
X180665Y57000D02*
D03*
Y63000D02*
D03*
Y73000D02*
D03*
X169665Y57000D02*
D03*
Y63000D02*
D03*
Y69000D02*
D03*
X192165Y85000D02*
D03*
X201665Y87500D02*
D03*
Y97500D02*
D03*
X196665Y87500D02*
D03*
X184165Y92000D02*
D03*
X190165D02*
D03*
X189665Y117500D02*
D03*
X182165Y119000D02*
D03*
X177665Y123000D02*
D03*
X173165Y129500D02*
D03*
X177665Y119000D02*
D03*
X205165Y116000D02*
D03*
X151165Y151000D02*
D03*
X157165D02*
D03*
Y133500D02*
D03*
X151165D02*
D03*
X148665Y122500D02*
D03*
Y117500D02*
D03*
Y112500D02*
D03*
Y107500D02*
D03*
Y102500D02*
D03*
Y97500D02*
D03*
Y92500D02*
D03*
Y87500D02*
D03*
Y82500D02*
D03*
Y77500D02*
D03*
Y72500D02*
D03*
Y67500D02*
D03*
Y62500D02*
D03*
Y57500D02*
D03*
Y52500D02*
D03*
Y47500D02*
D03*
Y42500D02*
D03*
Y37500D02*
D03*
Y32500D02*
D03*
Y27500D02*
D03*
Y22500D02*
D03*
X178665Y35500D02*
D03*
X195665Y28500D02*
D03*
X183665Y27000D02*
D03*
X190165Y129500D02*
D03*
X186165Y133500D02*
D03*
X190165D02*
D03*
X172165Y103500D02*
D03*
Y108500D02*
D03*
X162165Y100500D02*
D03*
X157165Y108500D02*
D03*
X164665D02*
D03*
X157165Y100500D02*
D03*
Y86000D02*
D03*
Y48500D02*
D03*
X151165Y129000D02*
D03*
X157165D02*
D03*
X140173Y67000D02*
D03*
X110173Y133500D02*
D03*
X114173Y129500D02*
D03*
X133673Y123000D02*
D03*
X111673Y27000D02*
D03*
X120173Y67500D02*
D03*
X123173Y71000D02*
D03*
X116173Y27000D02*
D03*
X136673Y68000D02*
D03*
X133673Y80500D02*
D03*
X129173Y50000D02*
D03*
X133173D02*
D03*
X117673Y57000D02*
D03*
Y63000D02*
D03*
Y73000D02*
D03*
X106673Y57000D02*
D03*
Y63000D02*
D03*
Y69000D02*
D03*
X129173Y85000D02*
D03*
X138673Y87500D02*
D03*
Y97500D02*
D03*
X133673Y87500D02*
D03*
X121173Y92000D02*
D03*
X127173D02*
D03*
X126673Y117500D02*
D03*
X119173Y119000D02*
D03*
X114673Y123000D02*
D03*
X110173Y129500D02*
D03*
X114673Y119000D02*
D03*
X142173Y116000D02*
D03*
X88173Y151000D02*
D03*
X94173D02*
D03*
Y133500D02*
D03*
X88173D02*
D03*
X85673Y122500D02*
D03*
Y117500D02*
D03*
Y112500D02*
D03*
Y107500D02*
D03*
Y102500D02*
D03*
Y97500D02*
D03*
Y92500D02*
D03*
Y87500D02*
D03*
Y82500D02*
D03*
Y77500D02*
D03*
Y72500D02*
D03*
Y67500D02*
D03*
Y62500D02*
D03*
Y57500D02*
D03*
Y52500D02*
D03*
Y47500D02*
D03*
Y42500D02*
D03*
Y37500D02*
D03*
Y32500D02*
D03*
Y27500D02*
D03*
Y22500D02*
D03*
X115673Y35500D02*
D03*
X132673Y28500D02*
D03*
X120673Y27000D02*
D03*
X127173Y129500D02*
D03*
X123173Y133500D02*
D03*
X127173D02*
D03*
X109173Y103500D02*
D03*
Y108500D02*
D03*
X99173Y100500D02*
D03*
X94173Y108500D02*
D03*
X101673D02*
D03*
X94173Y100500D02*
D03*
Y86000D02*
D03*
Y48500D02*
D03*
X88173Y129000D02*
D03*
X94173D02*
D03*
X77181Y67000D02*
D03*
X47181Y133500D02*
D03*
X51181Y129500D02*
D03*
X70681Y123000D02*
D03*
X48681Y27000D02*
D03*
X57181Y67500D02*
D03*
X60181Y71000D02*
D03*
X53181Y27000D02*
D03*
X73681Y68000D02*
D03*
X70681Y80500D02*
D03*
X66181Y50000D02*
D03*
X70181D02*
D03*
X54681Y57000D02*
D03*
Y63000D02*
D03*
Y73000D02*
D03*
X43681Y57000D02*
D03*
Y63000D02*
D03*
Y69000D02*
D03*
X66181Y85000D02*
D03*
X75681Y87500D02*
D03*
Y97500D02*
D03*
X70681Y87500D02*
D03*
X58181Y92000D02*
D03*
X64181D02*
D03*
X63681Y117500D02*
D03*
X56181Y119000D02*
D03*
X51681Y123000D02*
D03*
X47181Y129500D02*
D03*
X51681Y119000D02*
D03*
X79181Y116000D02*
D03*
X25181Y151000D02*
D03*
X31181D02*
D03*
Y133500D02*
D03*
X25181D02*
D03*
X22681Y122500D02*
D03*
Y117500D02*
D03*
Y112500D02*
D03*
Y107500D02*
D03*
Y102500D02*
D03*
Y97500D02*
D03*
Y92500D02*
D03*
Y87500D02*
D03*
Y82500D02*
D03*
Y77500D02*
D03*
Y72500D02*
D03*
Y67500D02*
D03*
Y62500D02*
D03*
Y57500D02*
D03*
Y52500D02*
D03*
Y47500D02*
D03*
Y42500D02*
D03*
Y37500D02*
D03*
Y32500D02*
D03*
Y27500D02*
D03*
Y22500D02*
D03*
X52681Y35500D02*
D03*
X69681Y28500D02*
D03*
X57681Y27000D02*
D03*
X64181Y129500D02*
D03*
X60181Y133500D02*
D03*
X64181D02*
D03*
X46181Y103500D02*
D03*
Y108500D02*
D03*
X36181Y100500D02*
D03*
X31181Y108500D02*
D03*
X38681D02*
D03*
X31181Y100500D02*
D03*
Y86000D02*
D03*
Y48500D02*
D03*
X25181Y129000D02*
D03*
X31181D02*
D03*
D32*
X27181Y270961D02*
D03*
X66181Y231961D02*
D03*
Y265461D02*
D03*
X51681Y275721D02*
D03*
X49681Y222961D02*
D03*
X90173Y270961D02*
D03*
X129173Y231961D02*
D03*
Y265461D02*
D03*
X114673Y275721D02*
D03*
X112673Y222961D02*
D03*
X153165Y270961D02*
D03*
X192165Y231961D02*
D03*
Y265461D02*
D03*
X177665Y275721D02*
D03*
X175665Y222961D02*
D03*
X216158Y270961D02*
D03*
X255157Y231961D02*
D03*
Y265461D02*
D03*
X240657Y275721D02*
D03*
X238657Y222961D02*
D03*
X279150Y270961D02*
D03*
X318150Y231961D02*
D03*
Y265461D02*
D03*
X303650Y275721D02*
D03*
X301650Y222961D02*
D03*
X327150Y44000D02*
D03*
X288150Y83000D02*
D03*
Y49500D02*
D03*
X302650Y39240D02*
D03*
X304650Y92000D02*
D03*
X264158Y44000D02*
D03*
X225157Y83000D02*
D03*
Y49500D02*
D03*
X239657Y39240D02*
D03*
X241657Y92000D02*
D03*
X201165Y44000D02*
D03*
X162165Y83000D02*
D03*
Y49500D02*
D03*
X176665Y39240D02*
D03*
X178665Y92000D02*
D03*
X138173Y44000D02*
D03*
X99173Y83000D02*
D03*
Y49500D02*
D03*
X113673Y39240D02*
D03*
X115673Y92000D02*
D03*
X75181Y44000D02*
D03*
X36181Y83000D02*
D03*
Y49500D02*
D03*
X50681Y39240D02*
D03*
X52681Y92000D02*
D03*
M02*
