G04*
G04 #@! TF.GenerationSoftware,Altium Limited,Altium Designer,20.2.3 (150)*
G04*
G04 Layer_Color=128*
%FSLAX25Y25*%
%MOIN*%
G70*
G04*
G04 #@! TF.SameCoordinates,03EFDE89-4B75-4A19-A28E-214F7F73976D*
G04*
G04*
G04 #@! TF.FilePolarity,Positive*
G04*
G01*
G75*
%ADD26C,0.01000*%
%ADD28C,0.00787*%
%ADD64C,0.00200*%
D26*
X363205Y400699D02*
Y396700D01*
X365204Y394701D01*
X367203Y396700D01*
Y400699D01*
X369203Y397700D02*
X373201D01*
X379200Y399699D02*
X378200Y400699D01*
X376201D01*
X375201Y399699D01*
Y395701D01*
X376201Y394701D01*
X378200D01*
X379200Y395701D01*
X381199Y400699D02*
Y395701D01*
X382199Y394701D01*
X384198D01*
X385198Y395701D01*
Y400699D01*
X387197D02*
X391196D01*
X389196D01*
Y394701D01*
D28*
X330709Y-0D02*
G03*
X334646Y3937I0J3937D01*
G01*
X271654Y3937D02*
G03*
X275590Y0I3937J0D01*
G01*
X267717Y-0D02*
G03*
X271654Y3937I0J3937D01*
G01*
X208661Y3937D02*
G03*
X212598Y0I3937J0D01*
G01*
X204724Y-0D02*
G03*
X208661Y3937I0J3937D01*
G01*
X145669Y3937D02*
G03*
X149606Y0I3937J0D01*
G01*
X141732Y-0D02*
G03*
X145669Y3937I0J3937D01*
G01*
X82677Y3937D02*
G03*
X86614Y0I3937J0D01*
G01*
X78740Y-0D02*
G03*
X82677Y3937I0J3937D01*
G01*
X19685Y3937D02*
G03*
X23622Y0I3937J0D01*
G01*
X23622Y200787D02*
G03*
X19685Y196850I0J-3937D01*
G01*
X82677D02*
G03*
X78740Y200787I-3937J0D01*
G01*
X86614D02*
G03*
X82677Y196850I0J-3937D01*
G01*
X145669D02*
G03*
X141732Y200787I-3937J0D01*
G01*
X149606D02*
G03*
X145669Y196850I0J-3937D01*
G01*
X208661D02*
G03*
X204724Y200787I-3937J0D01*
G01*
X212598D02*
G03*
X208661Y196850I0J-3937D01*
G01*
X271654D02*
G03*
X267717Y200787I-3937J0D01*
G01*
X275590D02*
G03*
X271654Y196850I0J-3937D01*
G01*
X334646D02*
G03*
X330709Y200787I-3937J0D01*
G01*
X330709Y200787D02*
G03*
X334646Y204724I0J3937D01*
G01*
X271654Y204724D02*
G03*
X275590Y200787I3937J0D01*
G01*
X267717Y200787D02*
G03*
X271654Y204724I0J3937D01*
G01*
X208661Y204724D02*
G03*
X212598Y200787I3937J0D01*
G01*
X204724Y200787D02*
G03*
X208661Y204724I0J3937D01*
G01*
X145669Y204724D02*
G03*
X149606Y200787I3937J0D01*
G01*
X141732Y200787D02*
G03*
X145669Y204724I0J3937D01*
G01*
X82677Y204724D02*
G03*
X86614Y200787I3937J0D01*
G01*
X78740Y200787D02*
G03*
X82677Y204724I0J3937D01*
G01*
X19685Y204724D02*
G03*
X23622Y200787I3937J0D01*
G01*
X334646Y397638D02*
G03*
X330709Y401575I-3937J0D01*
G01*
X275590D02*
G03*
X271654Y397638I0J-3937D01*
G01*
X271654D02*
G03*
X267717Y401575I-3937J0D01*
G01*
X212598D02*
G03*
X208661Y397638I0J-3937D01*
G01*
X208661D02*
G03*
X204724Y401575I-3937J0D01*
G01*
X149606D02*
G03*
X145669Y397638I0J-3937D01*
G01*
X145669D02*
G03*
X141732Y401575I-3937J0D01*
G01*
X86614D02*
G03*
X82677Y397638I0J-3937D01*
G01*
X82677D02*
G03*
X78740Y401575I-3937J0D01*
G01*
X23622D02*
G03*
X19685Y397638I0J-3937D01*
G01*
X271654Y204724D02*
Y397638D01*
X271654Y3937D02*
Y196850D01*
X208661Y3937D02*
Y196850D01*
X208661Y204724D02*
Y397638D01*
X145669Y204724D02*
Y397644D01*
Y3937D02*
Y196857D01*
X82677Y3937D02*
Y196850D01*
X82677Y204716D02*
Y397638D01*
X334646Y3937D02*
Y397638D01*
X275590Y200787D02*
X330709D01*
X212592D02*
X267717D01*
X149606Y200787D02*
X204724D01*
X86614Y200787D02*
X141732D01*
X23622Y200787D02*
X78749D01*
X19685Y3928D02*
Y397638D01*
X334646Y397638D02*
Y401575D01*
X19685Y397638D02*
Y401575D01*
X275590Y0D02*
X330709D01*
X334646D02*
Y3937D01*
X19685Y0D02*
Y3937D01*
X334646Y401575D02*
X354331D01*
X208661Y3937D02*
X208661Y3937D01*
X275590Y401575D02*
X330709D01*
X212598D02*
X267717D01*
X149606D02*
X204724D01*
X86614D02*
X141732D01*
X23622D02*
X78740D01*
X334646Y0D02*
X354331D01*
X212598D02*
X267717D01*
X149606D02*
X204724D01*
X86614D02*
X141732D01*
X23622D02*
X78740D01*
X0D02*
X19685D01*
X0Y401575D02*
X19685D01*
X354331Y401575D02*
X354331Y0D01*
X-0Y401575D02*
X0Y0D01*
D64*
X340551Y9843D02*
X348425D01*
X344488Y5906D02*
Y13780D01*
X340551Y391732D02*
X348425D01*
X344488Y387795D02*
Y395669D01*
X5906Y391732D02*
X13780D01*
X9843Y387795D02*
Y395669D01*
X5906Y9843D02*
X13780D01*
X9843Y5906D02*
Y13780D01*
X25409Y226575D02*
X28953D01*
X27181Y224803D02*
Y228346D01*
X25409Y216575D02*
X28953D01*
X27181Y214803D02*
Y218347D01*
X25409Y206575D02*
X28953D01*
X27181Y204803D02*
Y208347D01*
X72409Y215575D02*
X75953D01*
X74181Y213803D02*
Y217347D01*
X57410Y215575D02*
X60953D01*
X59181Y213803D02*
Y217347D01*
X42410Y215575D02*
X45953D01*
X44181Y213803D02*
Y217347D01*
X40256Y382394D02*
X43012D01*
X41634Y381016D02*
Y383772D01*
X59350Y382394D02*
X62106D01*
X60728Y381016D02*
Y383772D01*
X35925Y392945D02*
X37894D01*
X36909Y391961D02*
Y393929D01*
X64468Y392945D02*
X66437D01*
X65453Y391961D02*
Y393929D01*
X39591Y247575D02*
X40772D01*
X40181Y246984D02*
Y248165D01*
X42591Y227575D02*
X43772D01*
X43181Y226984D02*
Y228165D01*
X53591Y227575D02*
X54772D01*
X54181Y226984D02*
Y228165D01*
X78591Y207575D02*
X79772D01*
X79181Y206984D02*
Y208165D01*
X71591Y225575D02*
X72772D01*
X72181Y224984D02*
Y226165D01*
X78591Y225575D02*
X79772D01*
X79181Y224984D02*
Y226165D01*
X22591Y235575D02*
X23772D01*
X23181Y234984D02*
Y236165D01*
X22591Y241575D02*
X23772D01*
X23181Y240984D02*
Y242165D01*
X22591Y247575D02*
X23772D01*
X23181Y246984D02*
Y248165D01*
X22591Y253575D02*
X23772D01*
X23181Y252984D02*
Y254165D01*
X78591Y235575D02*
X79772D01*
X79181Y234984D02*
Y236165D01*
X78591Y241575D02*
X79772D01*
X79181Y240984D02*
Y242165D01*
X78591Y247575D02*
X79772D01*
X79181Y246984D02*
Y248165D01*
X78591Y253575D02*
X79772D01*
X79181Y252984D02*
Y254165D01*
X32591Y265575D02*
X33772D01*
X33181Y264984D02*
Y266165D01*
X38591Y265575D02*
X39772D01*
X39181Y264984D02*
Y266165D01*
X44591Y265575D02*
X45772D01*
X45181Y264984D02*
Y266165D01*
X50591Y265575D02*
X51772D01*
X51181Y264984D02*
Y266165D01*
X56591Y265575D02*
X57772D01*
X57181Y264984D02*
Y266165D01*
X62591Y265575D02*
X63772D01*
X63181Y264984D02*
Y266165D01*
X68591Y265575D02*
X69772D01*
X69181Y264984D02*
Y266165D01*
X22591Y321575D02*
X23772D01*
X23181Y320984D02*
Y322165D01*
X22591Y315575D02*
X23772D01*
X23181Y314984D02*
Y316165D01*
X22591Y309575D02*
X23772D01*
X23181Y308984D02*
Y310165D01*
X22591Y291575D02*
X23772D01*
X23181Y290984D02*
Y292165D01*
X22591Y297575D02*
X23772D01*
X23181Y296984D02*
Y298165D01*
X32591Y284575D02*
X33772D01*
X33181Y283984D02*
Y285165D01*
X38591Y284575D02*
X39772D01*
X39181Y283984D02*
Y285165D01*
X44591Y284575D02*
X45772D01*
X45181Y283984D02*
Y285165D01*
X24350Y334315D02*
X25532D01*
X24941Y333724D02*
Y334906D01*
X35394Y311575D02*
X36968D01*
X36181Y310787D02*
Y312362D01*
X51394Y304575D02*
X52969D01*
X52181Y303787D02*
Y305362D01*
X59394Y302575D02*
X60969D01*
X60181Y301787D02*
Y303362D01*
X54394Y297575D02*
X55968D01*
X55181Y296787D02*
Y298362D01*
X53091Y374575D02*
X54272D01*
X53681Y373984D02*
Y375165D01*
X26394Y357575D02*
X27968D01*
X27181Y356787D02*
Y358362D01*
X65394Y318575D02*
X66969D01*
X66181Y317787D02*
Y319362D01*
X65394Y352075D02*
X66969D01*
X66181Y351287D02*
Y352862D01*
X44591Y334075D02*
X45772D01*
X45181Y333484D02*
Y334665D01*
X41591Y330575D02*
X42772D01*
X42181Y329984D02*
Y331165D01*
X48591Y374575D02*
X49772D01*
X49181Y373984D02*
Y375165D01*
X50894Y362335D02*
X52469D01*
X51681Y361547D02*
Y363122D01*
X28091Y333575D02*
X29272D01*
X28681Y332984D02*
Y334165D01*
X31091Y321075D02*
X32272D01*
X31681Y320484D02*
Y321665D01*
X35591Y351575D02*
X36772D01*
X36181Y350984D02*
Y352165D01*
X31591Y351575D02*
X32772D01*
X32181Y350984D02*
Y352165D01*
X47091Y344575D02*
X48272D01*
X47681Y343984D02*
Y345165D01*
X47091Y338575D02*
X48272D01*
X47681Y337984D02*
Y339165D01*
X58091Y344575D02*
X59272D01*
X58681Y343984D02*
Y345165D01*
X58091Y338575D02*
X59272D01*
X58681Y337984D02*
Y339165D01*
X58091Y332575D02*
X59272D01*
X58681Y331984D02*
Y333165D01*
X62591Y284575D02*
X63772D01*
X63181Y283984D02*
Y285165D01*
X68591Y284575D02*
X69772D01*
X69181Y283984D02*
Y285165D01*
X78591Y291575D02*
X79772D01*
X79181Y290984D02*
Y292165D01*
X22591Y303575D02*
X23772D01*
X23181Y302984D02*
Y304165D01*
X78591Y297575D02*
X79772D01*
X79181Y296984D02*
Y298165D01*
X78591Y303575D02*
X79772D01*
X79181Y302984D02*
Y304165D01*
X78591Y309575D02*
X79772D01*
X79181Y308984D02*
Y310165D01*
X78591Y315575D02*
X79772D01*
X79181Y314984D02*
Y316165D01*
X78591Y321575D02*
X79772D01*
X79181Y320984D02*
Y322165D01*
X78591Y327575D02*
X79772D01*
X79181Y326984D02*
Y328165D01*
X50591Y284575D02*
X51772D01*
X51181Y283984D02*
Y285165D01*
X78591Y333575D02*
X79772D01*
X79181Y332984D02*
Y334165D01*
X78591Y339575D02*
X79772D01*
X79181Y338984D02*
Y340165D01*
X78591Y345575D02*
X79772D01*
X79181Y344984D02*
Y346165D01*
X78591Y351575D02*
X79772D01*
X79181Y350984D02*
Y352165D01*
X56591Y284575D02*
X57772D01*
X57181Y283984D02*
Y285165D01*
X78591Y357575D02*
X79772D01*
X79181Y356984D02*
Y358165D01*
X78591Y363575D02*
X79772D01*
X79181Y362984D02*
Y364165D01*
X78591Y369575D02*
X79772D01*
X79181Y368984D02*
Y370165D01*
X78591Y375575D02*
X79772D01*
X79181Y374984D02*
Y376165D01*
X78591Y381575D02*
X79772D01*
X79181Y380984D02*
Y382165D01*
X49091Y366075D02*
X50272D01*
X49681Y365484D02*
Y366665D01*
X33591Y374575D02*
X34772D01*
X34181Y373984D02*
Y375165D01*
X44091Y374575D02*
X45272D01*
X44681Y373984D02*
Y375165D01*
X88402Y226575D02*
X91945D01*
X90173Y224803D02*
Y228346D01*
X88402Y216575D02*
X91945D01*
X90173Y214803D02*
Y218347D01*
X88402Y206575D02*
X91945D01*
X90173Y204803D02*
Y208347D01*
X135402Y215575D02*
X138945D01*
X137173Y213803D02*
Y217347D01*
X120402Y215575D02*
X123945D01*
X122173Y213803D02*
Y217347D01*
X105402Y215575D02*
X108945D01*
X107173Y213803D02*
Y217347D01*
X103248Y382394D02*
X106004D01*
X104626Y381016D02*
Y383772D01*
X122343Y382394D02*
X125098D01*
X123721Y381016D02*
Y383772D01*
X98917Y392945D02*
X100886D01*
X99902Y391961D02*
Y393929D01*
X127461Y392945D02*
X129429D01*
X128445Y391961D02*
Y393929D01*
X102583Y247575D02*
X103764D01*
X103173Y246984D02*
Y248165D01*
X105583Y227575D02*
X106764D01*
X106173Y226984D02*
Y228165D01*
X116583Y227575D02*
X117764D01*
X117173Y226984D02*
Y228165D01*
X141583Y207575D02*
X142764D01*
X142173Y206984D02*
Y208165D01*
X134583Y225575D02*
X135764D01*
X135173Y224984D02*
Y226165D01*
X141583Y225575D02*
X142764D01*
X142173Y224984D02*
Y226165D01*
X85583Y235575D02*
X86764D01*
X86173Y234984D02*
Y236165D01*
X85583Y241575D02*
X86764D01*
X86173Y240984D02*
Y242165D01*
X85583Y247575D02*
X86764D01*
X86173Y246984D02*
Y248165D01*
X85583Y253575D02*
X86764D01*
X86173Y252984D02*
Y254165D01*
X141583Y235575D02*
X142764D01*
X142173Y234984D02*
Y236165D01*
X141583Y241575D02*
X142764D01*
X142173Y240984D02*
Y242165D01*
X141583Y247575D02*
X142764D01*
X142173Y246984D02*
Y248165D01*
X141583Y253575D02*
X142764D01*
X142173Y252984D02*
Y254165D01*
X95583Y265575D02*
X96764D01*
X96173Y264984D02*
Y266165D01*
X101583Y265575D02*
X102764D01*
X102173Y264984D02*
Y266165D01*
X107583Y265575D02*
X108764D01*
X108173Y264984D02*
Y266165D01*
X113583Y265575D02*
X114764D01*
X114173Y264984D02*
Y266165D01*
X119583Y265575D02*
X120764D01*
X120173Y264984D02*
Y266165D01*
X125583Y265575D02*
X126764D01*
X126173Y264984D02*
Y266165D01*
X131583Y265575D02*
X132764D01*
X132173Y264984D02*
Y266165D01*
X85583Y321575D02*
X86764D01*
X86173Y320984D02*
Y322165D01*
X85583Y315575D02*
X86764D01*
X86173Y314984D02*
Y316165D01*
X85583Y309575D02*
X86764D01*
X86173Y308984D02*
Y310165D01*
X85583Y291575D02*
X86764D01*
X86173Y290984D02*
Y292165D01*
X85583Y297575D02*
X86764D01*
X86173Y296984D02*
Y298165D01*
X95583Y284575D02*
X96764D01*
X96173Y283984D02*
Y285165D01*
X101583Y284575D02*
X102764D01*
X102173Y283984D02*
Y285165D01*
X107583Y284575D02*
X108764D01*
X108173Y283984D02*
Y285165D01*
X87343Y334315D02*
X88524D01*
X87933Y333724D02*
Y334906D01*
X98386Y311575D02*
X99961D01*
X99173Y310787D02*
Y312362D01*
X114386Y304575D02*
X115961D01*
X115173Y303787D02*
Y305362D01*
X122386Y302575D02*
X123961D01*
X123173Y301787D02*
Y303362D01*
X117386Y297575D02*
X118961D01*
X118173Y296787D02*
Y298362D01*
X116083Y374575D02*
X117264D01*
X116673Y373984D02*
Y375165D01*
X89386Y357575D02*
X90961D01*
X90173Y356787D02*
Y358362D01*
X128386Y318575D02*
X129961D01*
X129173Y317787D02*
Y319362D01*
X128386Y352075D02*
X129961D01*
X129173Y351287D02*
Y352862D01*
X107583Y334075D02*
X108764D01*
X108173Y333484D02*
Y334665D01*
X104583Y330575D02*
X105764D01*
X105173Y329984D02*
Y331165D01*
X111583Y374575D02*
X112764D01*
X112173Y373984D02*
Y375165D01*
X113886Y362335D02*
X115461D01*
X114673Y361547D02*
Y363122D01*
X91083Y333575D02*
X92264D01*
X91673Y332984D02*
Y334165D01*
X94083Y321075D02*
X95264D01*
X94673Y320484D02*
Y321665D01*
X98583Y351575D02*
X99764D01*
X99173Y350984D02*
Y352165D01*
X94583Y351575D02*
X95764D01*
X95173Y350984D02*
Y352165D01*
X110083Y344575D02*
X111264D01*
X110673Y343984D02*
Y345165D01*
X110083Y338575D02*
X111264D01*
X110673Y337984D02*
Y339165D01*
X121083Y344575D02*
X122264D01*
X121673Y343984D02*
Y345165D01*
X121083Y338575D02*
X122264D01*
X121673Y337984D02*
Y339165D01*
X121083Y332575D02*
X122264D01*
X121673Y331984D02*
Y333165D01*
X125583Y284575D02*
X126764D01*
X126173Y283984D02*
Y285165D01*
X131583Y284575D02*
X132764D01*
X132173Y283984D02*
Y285165D01*
X141583Y291575D02*
X142764D01*
X142173Y290984D02*
Y292165D01*
X85583Y303575D02*
X86764D01*
X86173Y302984D02*
Y304165D01*
X141583Y297575D02*
X142764D01*
X142173Y296984D02*
Y298165D01*
X141583Y303575D02*
X142764D01*
X142173Y302984D02*
Y304165D01*
X141583Y309575D02*
X142764D01*
X142173Y308984D02*
Y310165D01*
X141583Y315575D02*
X142764D01*
X142173Y314984D02*
Y316165D01*
X141583Y321575D02*
X142764D01*
X142173Y320984D02*
Y322165D01*
X141583Y327575D02*
X142764D01*
X142173Y326984D02*
Y328165D01*
X113583Y284575D02*
X114764D01*
X114173Y283984D02*
Y285165D01*
X141583Y333575D02*
X142764D01*
X142173Y332984D02*
Y334165D01*
X141583Y339575D02*
X142764D01*
X142173Y338984D02*
Y340165D01*
X141583Y345575D02*
X142764D01*
X142173Y344984D02*
Y346165D01*
X141583Y351575D02*
X142764D01*
X142173Y350984D02*
Y352165D01*
X119583Y284575D02*
X120764D01*
X120173Y283984D02*
Y285165D01*
X141583Y357575D02*
X142764D01*
X142173Y356984D02*
Y358165D01*
X141583Y363575D02*
X142764D01*
X142173Y362984D02*
Y364165D01*
X141583Y369575D02*
X142764D01*
X142173Y368984D02*
Y370165D01*
X141583Y375575D02*
X142764D01*
X142173Y374984D02*
Y376165D01*
X141583Y381575D02*
X142764D01*
X142173Y380984D02*
Y382165D01*
X112083Y366075D02*
X113264D01*
X112673Y365484D02*
Y366665D01*
X96583Y374575D02*
X97764D01*
X97173Y373984D02*
Y375165D01*
X107083Y374575D02*
X108264D01*
X107673Y373984D02*
Y375165D01*
X151394Y226575D02*
X154937D01*
X153165Y224803D02*
Y228346D01*
X151394Y216575D02*
X154937D01*
X153165Y214803D02*
Y218347D01*
X151394Y206575D02*
X154937D01*
X153165Y204803D02*
Y208347D01*
X198394Y215575D02*
X201937D01*
X200165Y213803D02*
Y217347D01*
X183394Y215575D02*
X186937D01*
X185165Y213803D02*
Y217347D01*
X168394Y215575D02*
X171937D01*
X170165Y213803D02*
Y217347D01*
X166240Y382394D02*
X168996D01*
X167618Y381016D02*
Y383772D01*
X185335Y382394D02*
X188091D01*
X186713Y381016D02*
Y383772D01*
X161909Y392945D02*
X163878D01*
X162894Y391961D02*
Y393929D01*
X190453Y392945D02*
X192421D01*
X191437Y391961D02*
Y393929D01*
X165575Y247575D02*
X166756D01*
X166165Y246984D02*
Y248165D01*
X168575Y227575D02*
X169756D01*
X169165Y226984D02*
Y228165D01*
X179575Y227575D02*
X180756D01*
X180165Y226984D02*
Y228165D01*
X204575Y207575D02*
X205756D01*
X205165Y206984D02*
Y208165D01*
X197575Y225575D02*
X198756D01*
X198165Y224984D02*
Y226165D01*
X204575Y225575D02*
X205756D01*
X205165Y224984D02*
Y226165D01*
X148575Y235575D02*
X149756D01*
X149165Y234984D02*
Y236165D01*
X148575Y241575D02*
X149756D01*
X149165Y240984D02*
Y242165D01*
X148575Y247575D02*
X149756D01*
X149165Y246984D02*
Y248165D01*
X148575Y253575D02*
X149756D01*
X149165Y252984D02*
Y254165D01*
X204575Y235575D02*
X205756D01*
X205165Y234984D02*
Y236165D01*
X204575Y241575D02*
X205756D01*
X205165Y240984D02*
Y242165D01*
X204575Y247575D02*
X205756D01*
X205165Y246984D02*
Y248165D01*
X204575Y253575D02*
X205756D01*
X205165Y252984D02*
Y254165D01*
X158575Y265575D02*
X159756D01*
X159165Y264984D02*
Y266165D01*
X164575Y265575D02*
X165756D01*
X165165Y264984D02*
Y266165D01*
X170575Y265575D02*
X171756D01*
X171165Y264984D02*
Y266165D01*
X176575Y265575D02*
X177756D01*
X177165Y264984D02*
Y266165D01*
X182575Y265575D02*
X183756D01*
X183165Y264984D02*
Y266165D01*
X188575Y265575D02*
X189756D01*
X189165Y264984D02*
Y266165D01*
X194575Y265575D02*
X195756D01*
X195165Y264984D02*
Y266165D01*
X148575Y321575D02*
X149756D01*
X149165Y320984D02*
Y322165D01*
X148575Y315575D02*
X149756D01*
X149165Y314984D02*
Y316165D01*
X148575Y309575D02*
X149756D01*
X149165Y308984D02*
Y310165D01*
X148575Y291575D02*
X149756D01*
X149165Y290984D02*
Y292165D01*
X148575Y297575D02*
X149756D01*
X149165Y296984D02*
Y298165D01*
X158575Y284575D02*
X159756D01*
X159165Y283984D02*
Y285165D01*
X164575Y284575D02*
X165756D01*
X165165Y283984D02*
Y285165D01*
X170575Y284575D02*
X171756D01*
X171165Y283984D02*
Y285165D01*
X150335Y334315D02*
X151516D01*
X150925Y333724D02*
Y334906D01*
X161378Y311575D02*
X162953D01*
X162165Y310787D02*
Y312362D01*
X177378Y304575D02*
X178953D01*
X178165Y303787D02*
Y305362D01*
X185378Y302575D02*
X186953D01*
X186165Y301787D02*
Y303362D01*
X180378Y297575D02*
X181953D01*
X181165Y296787D02*
Y298362D01*
X179075Y374575D02*
X180256D01*
X179665Y373984D02*
Y375165D01*
X152378Y357575D02*
X153953D01*
X153165Y356787D02*
Y358362D01*
X191378Y318575D02*
X192953D01*
X192165Y317787D02*
Y319362D01*
X191378Y352075D02*
X192953D01*
X192165Y351287D02*
Y352862D01*
X170575Y334075D02*
X171756D01*
X171165Y333484D02*
Y334665D01*
X167575Y330575D02*
X168756D01*
X168165Y329984D02*
Y331165D01*
X174575Y374575D02*
X175756D01*
X175165Y373984D02*
Y375165D01*
X176878Y362335D02*
X178453D01*
X177665Y361547D02*
Y363122D01*
X154075Y333575D02*
X155256D01*
X154665Y332984D02*
Y334165D01*
X157075Y321075D02*
X158256D01*
X157665Y320484D02*
Y321665D01*
X161575Y351575D02*
X162756D01*
X162165Y350984D02*
Y352165D01*
X157575Y351575D02*
X158756D01*
X158165Y350984D02*
Y352165D01*
X173075Y344575D02*
X174256D01*
X173665Y343984D02*
Y345165D01*
X173075Y338575D02*
X174256D01*
X173665Y337984D02*
Y339165D01*
X184075Y344575D02*
X185256D01*
X184665Y343984D02*
Y345165D01*
X184075Y338575D02*
X185256D01*
X184665Y337984D02*
Y339165D01*
X184075Y332575D02*
X185256D01*
X184665Y331984D02*
Y333165D01*
X188575Y284575D02*
X189756D01*
X189165Y283984D02*
Y285165D01*
X194575Y284575D02*
X195756D01*
X195165Y283984D02*
Y285165D01*
X204575Y291575D02*
X205756D01*
X205165Y290984D02*
Y292165D01*
X148575Y303575D02*
X149756D01*
X149165Y302984D02*
Y304165D01*
X204575Y297575D02*
X205756D01*
X205165Y296984D02*
Y298165D01*
X204575Y303575D02*
X205756D01*
X205165Y302984D02*
Y304165D01*
X204575Y309575D02*
X205756D01*
X205165Y308984D02*
Y310165D01*
X204575Y315575D02*
X205756D01*
X205165Y314984D02*
Y316165D01*
X204575Y321575D02*
X205756D01*
X205165Y320984D02*
Y322165D01*
X204575Y327575D02*
X205756D01*
X205165Y326984D02*
Y328165D01*
X176575Y284575D02*
X177756D01*
X177165Y283984D02*
Y285165D01*
X204575Y333575D02*
X205756D01*
X205165Y332984D02*
Y334165D01*
X204575Y339575D02*
X205756D01*
X205165Y338984D02*
Y340165D01*
X204575Y345575D02*
X205756D01*
X205165Y344984D02*
Y346165D01*
X204575Y351575D02*
X205756D01*
X205165Y350984D02*
Y352165D01*
X182575Y284575D02*
X183756D01*
X183165Y283984D02*
Y285165D01*
X204575Y357575D02*
X205756D01*
X205165Y356984D02*
Y358165D01*
X204575Y363575D02*
X205756D01*
X205165Y362984D02*
Y364165D01*
X204575Y369575D02*
X205756D01*
X205165Y368984D02*
Y370165D01*
X204575Y375575D02*
X205756D01*
X205165Y374984D02*
Y376165D01*
X204575Y381575D02*
X205756D01*
X205165Y380984D02*
Y382165D01*
X175075Y366075D02*
X176256D01*
X175665Y365484D02*
Y366665D01*
X159575Y374575D02*
X160756D01*
X160165Y373984D02*
Y375165D01*
X170075Y374575D02*
X171256D01*
X170665Y373984D02*
Y375165D01*
X214386Y226575D02*
X217929D01*
X216158Y224803D02*
Y228346D01*
X214386Y216575D02*
X217929D01*
X216158Y214803D02*
Y218347D01*
X214386Y206575D02*
X217929D01*
X216158Y204803D02*
Y208347D01*
X261386Y215575D02*
X264929D01*
X263158Y213803D02*
Y217347D01*
X246386Y215575D02*
X249929D01*
X248158Y213803D02*
Y217347D01*
X231386Y215575D02*
X234929D01*
X233157Y213803D02*
Y217347D01*
X229232Y382394D02*
X231988D01*
X230610Y381016D02*
Y383772D01*
X248327Y382394D02*
X251083D01*
X249705Y381016D02*
Y383772D01*
X224902Y392945D02*
X226870D01*
X225886Y391961D02*
Y393929D01*
X253445Y392945D02*
X255413D01*
X254429Y391961D02*
Y393929D01*
X228567Y247575D02*
X229748D01*
X229157Y246984D02*
Y248165D01*
X231567Y227575D02*
X232748D01*
X232157Y226984D02*
Y228165D01*
X242567Y227575D02*
X243748D01*
X243158Y226984D02*
Y228165D01*
X267567Y207575D02*
X268748D01*
X268158Y206984D02*
Y208165D01*
X260567Y225575D02*
X261748D01*
X261157Y224984D02*
Y226165D01*
X267567Y225575D02*
X268748D01*
X268158Y224984D02*
Y226165D01*
X211567Y235575D02*
X212748D01*
X212158Y234984D02*
Y236165D01*
X211567Y241575D02*
X212748D01*
X212158Y240984D02*
Y242165D01*
X211567Y247575D02*
X212748D01*
X212158Y246984D02*
Y248165D01*
X211567Y253575D02*
X212748D01*
X212158Y252984D02*
Y254165D01*
X267567Y235575D02*
X268748D01*
X268158Y234984D02*
Y236165D01*
X267567Y241575D02*
X268748D01*
X268158Y240984D02*
Y242165D01*
X267567Y247575D02*
X268748D01*
X268158Y246984D02*
Y248165D01*
X267567Y253575D02*
X268748D01*
X268158Y252984D02*
Y254165D01*
X221567Y265575D02*
X222748D01*
X222158Y264984D02*
Y266165D01*
X227567Y265575D02*
X228748D01*
X228157Y264984D02*
Y266165D01*
X233567Y265575D02*
X234748D01*
X234157Y264984D02*
Y266165D01*
X239567Y265575D02*
X240748D01*
X240158Y264984D02*
Y266165D01*
X245567Y265575D02*
X246748D01*
X246158Y264984D02*
Y266165D01*
X251567Y265575D02*
X252748D01*
X252157Y264984D02*
Y266165D01*
X257567Y265575D02*
X258748D01*
X258157Y264984D02*
Y266165D01*
X211567Y321575D02*
X212748D01*
X212158Y320984D02*
Y322165D01*
X211567Y315575D02*
X212748D01*
X212158Y314984D02*
Y316165D01*
X211567Y309575D02*
X212748D01*
X212158Y308984D02*
Y310165D01*
X211567Y291575D02*
X212748D01*
X212158Y290984D02*
Y292165D01*
X211567Y297575D02*
X212748D01*
X212158Y296984D02*
Y298165D01*
X221567Y284575D02*
X222748D01*
X222158Y283984D02*
Y285165D01*
X227567Y284575D02*
X228748D01*
X228157Y283984D02*
Y285165D01*
X233567Y284575D02*
X234748D01*
X234157Y283984D02*
Y285165D01*
X213327Y334315D02*
X214508D01*
X213917Y333724D02*
Y334906D01*
X224370Y311575D02*
X225945D01*
X225157Y310787D02*
Y312362D01*
X240370Y304575D02*
X241945D01*
X241158Y303787D02*
Y305362D01*
X248370Y302575D02*
X249945D01*
X249158Y301787D02*
Y303362D01*
X243370Y297575D02*
X244945D01*
X244158Y296787D02*
Y298362D01*
X242067Y374575D02*
X243248D01*
X242657Y373984D02*
Y375165D01*
X215370Y357575D02*
X216945D01*
X216158Y356787D02*
Y358362D01*
X254370Y318575D02*
X255945D01*
X255157Y317787D02*
Y319362D01*
X254370Y352075D02*
X255945D01*
X255157Y351287D02*
Y352862D01*
X233567Y334075D02*
X234748D01*
X234157Y333484D02*
Y334665D01*
X230567Y330575D02*
X231748D01*
X231157Y329984D02*
Y331165D01*
X237567Y374575D02*
X238748D01*
X238158Y373984D02*
Y375165D01*
X239870Y362335D02*
X241445D01*
X240657Y361547D02*
Y363122D01*
X217067Y333575D02*
X218248D01*
X217657Y332984D02*
Y334165D01*
X220067Y321075D02*
X221248D01*
X220657Y320484D02*
Y321665D01*
X224567Y351575D02*
X225748D01*
X225157Y350984D02*
Y352165D01*
X220567Y351575D02*
X221748D01*
X221158Y350984D02*
Y352165D01*
X236067Y344575D02*
X237248D01*
X236658Y343984D02*
Y345165D01*
X236067Y338575D02*
X237248D01*
X236658Y337984D02*
Y339165D01*
X247067Y344575D02*
X248248D01*
X247657Y343984D02*
Y345165D01*
X247067Y338575D02*
X248248D01*
X247657Y337984D02*
Y339165D01*
X247067Y332575D02*
X248248D01*
X247657Y331984D02*
Y333165D01*
X251567Y284575D02*
X252748D01*
X252157Y283984D02*
Y285165D01*
X257567Y284575D02*
X258748D01*
X258157Y283984D02*
Y285165D01*
X267567Y291575D02*
X268748D01*
X268158Y290984D02*
Y292165D01*
X211567Y303575D02*
X212748D01*
X212158Y302984D02*
Y304165D01*
X267567Y297575D02*
X268748D01*
X268158Y296984D02*
Y298165D01*
X267567Y303575D02*
X268748D01*
X268158Y302984D02*
Y304165D01*
X267567Y309575D02*
X268748D01*
X268158Y308984D02*
Y310165D01*
X267567Y315575D02*
X268748D01*
X268158Y314984D02*
Y316165D01*
X267567Y321575D02*
X268748D01*
X268158Y320984D02*
Y322165D01*
X267567Y327575D02*
X268748D01*
X268158Y326984D02*
Y328165D01*
X239567Y284575D02*
X240748D01*
X240158Y283984D02*
Y285165D01*
X267567Y333575D02*
X268748D01*
X268158Y332984D02*
Y334165D01*
X267567Y339575D02*
X268748D01*
X268158Y338984D02*
Y340165D01*
X267567Y345575D02*
X268748D01*
X268158Y344984D02*
Y346165D01*
X267567Y351575D02*
X268748D01*
X268158Y350984D02*
Y352165D01*
X245567Y284575D02*
X246748D01*
X246158Y283984D02*
Y285165D01*
X267567Y357575D02*
X268748D01*
X268158Y356984D02*
Y358165D01*
X267567Y363575D02*
X268748D01*
X268158Y362984D02*
Y364165D01*
X267567Y369575D02*
X268748D01*
X268158Y368984D02*
Y370165D01*
X267567Y375575D02*
X268748D01*
X268158Y374984D02*
Y376165D01*
X267567Y381575D02*
X268748D01*
X268158Y380984D02*
Y382165D01*
X238067Y366075D02*
X239248D01*
X238657Y365484D02*
Y366665D01*
X222567Y374575D02*
X223748D01*
X223158Y373984D02*
Y375165D01*
X233067Y374575D02*
X234248D01*
X233658Y373984D02*
Y375165D01*
X277378Y226575D02*
X280921D01*
X279150Y224803D02*
Y228346D01*
X277378Y216575D02*
X280921D01*
X279150Y214803D02*
Y218347D01*
X277378Y206575D02*
X280921D01*
X279150Y204803D02*
Y208347D01*
X324378Y215575D02*
X327921D01*
X326150Y213803D02*
Y217347D01*
X309378Y215575D02*
X312921D01*
X311150Y213803D02*
Y217347D01*
X294378Y215575D02*
X297921D01*
X296150Y213803D02*
Y217347D01*
X292224Y382394D02*
X294980D01*
X293602Y381016D02*
Y383772D01*
X311319Y382394D02*
X314075D01*
X312697Y381016D02*
Y383772D01*
X287894Y392945D02*
X289862D01*
X288878Y391961D02*
Y393929D01*
X316437Y392945D02*
X318406D01*
X317421Y391961D02*
Y393929D01*
X291559Y247575D02*
X292740D01*
X292150Y246984D02*
Y248165D01*
X294559Y227575D02*
X295740D01*
X295150Y226984D02*
Y228165D01*
X305559Y227575D02*
X306740D01*
X306150Y226984D02*
Y228165D01*
X330559Y207575D02*
X331740D01*
X331150Y206984D02*
Y208165D01*
X323559Y225575D02*
X324740D01*
X324150Y224984D02*
Y226165D01*
X330559Y225575D02*
X331740D01*
X331150Y224984D02*
Y226165D01*
X274559Y235575D02*
X275740D01*
X275150Y234984D02*
Y236165D01*
X274559Y241575D02*
X275740D01*
X275150Y240984D02*
Y242165D01*
X274559Y247575D02*
X275740D01*
X275150Y246984D02*
Y248165D01*
X274559Y253575D02*
X275740D01*
X275150Y252984D02*
Y254165D01*
X330559Y235575D02*
X331740D01*
X331150Y234984D02*
Y236165D01*
X330559Y241575D02*
X331740D01*
X331150Y240984D02*
Y242165D01*
X330559Y247575D02*
X331740D01*
X331150Y246984D02*
Y248165D01*
X330559Y253575D02*
X331740D01*
X331150Y252984D02*
Y254165D01*
X284559Y265575D02*
X285740D01*
X285150Y264984D02*
Y266165D01*
X290559Y265575D02*
X291740D01*
X291150Y264984D02*
Y266165D01*
X296559Y265575D02*
X297740D01*
X297150Y264984D02*
Y266165D01*
X302559Y265575D02*
X303740D01*
X303150Y264984D02*
Y266165D01*
X308559Y265575D02*
X309740D01*
X309150Y264984D02*
Y266165D01*
X314559Y265575D02*
X315740D01*
X315150Y264984D02*
Y266165D01*
X320559Y265575D02*
X321740D01*
X321150Y264984D02*
Y266165D01*
X274559Y321575D02*
X275740D01*
X275150Y320984D02*
Y322165D01*
X274559Y315575D02*
X275740D01*
X275150Y314984D02*
Y316165D01*
X274559Y309575D02*
X275740D01*
X275150Y308984D02*
Y310165D01*
X274559Y291575D02*
X275740D01*
X275150Y290984D02*
Y292165D01*
X274559Y297575D02*
X275740D01*
X275150Y296984D02*
Y298165D01*
X284559Y284575D02*
X285740D01*
X285150Y283984D02*
Y285165D01*
X290559Y284575D02*
X291740D01*
X291150Y283984D02*
Y285165D01*
X296559Y284575D02*
X297740D01*
X297150Y283984D02*
Y285165D01*
X276319Y334315D02*
X277500D01*
X276909Y333724D02*
Y334906D01*
X287362Y311575D02*
X288937D01*
X288150Y310787D02*
Y312362D01*
X303362Y304575D02*
X304937D01*
X304150Y303787D02*
Y305362D01*
X311362Y302575D02*
X312937D01*
X312150Y301787D02*
Y303362D01*
X306362Y297575D02*
X307937D01*
X307150Y296787D02*
Y298362D01*
X305059Y374575D02*
X306240D01*
X305650Y373984D02*
Y375165D01*
X278362Y357575D02*
X279937D01*
X279150Y356787D02*
Y358362D01*
X317362Y318575D02*
X318937D01*
X318150Y317787D02*
Y319362D01*
X317362Y352075D02*
X318937D01*
X318150Y351287D02*
Y352862D01*
X296559Y334075D02*
X297740D01*
X297150Y333484D02*
Y334665D01*
X293559Y330575D02*
X294740D01*
X294150Y329984D02*
Y331165D01*
X300559Y374575D02*
X301740D01*
X301150Y373984D02*
Y375165D01*
X302862Y362335D02*
X304437D01*
X303650Y361547D02*
Y363122D01*
X280059Y333575D02*
X281240D01*
X280650Y332984D02*
Y334165D01*
X283059Y321075D02*
X284240D01*
X283650Y320484D02*
Y321665D01*
X287559Y351575D02*
X288740D01*
X288150Y350984D02*
Y352165D01*
X283559Y351575D02*
X284740D01*
X284150Y350984D02*
Y352165D01*
X299059Y344575D02*
X300240D01*
X299650Y343984D02*
Y345165D01*
X299059Y338575D02*
X300240D01*
X299650Y337984D02*
Y339165D01*
X310059Y344575D02*
X311240D01*
X310650Y343984D02*
Y345165D01*
X310059Y338575D02*
X311240D01*
X310650Y337984D02*
Y339165D01*
X310059Y332575D02*
X311240D01*
X310650Y331984D02*
Y333165D01*
X314559Y284575D02*
X315740D01*
X315150Y283984D02*
Y285165D01*
X320559Y284575D02*
X321740D01*
X321150Y283984D02*
Y285165D01*
X330559Y291575D02*
X331740D01*
X331150Y290984D02*
Y292165D01*
X274559Y303575D02*
X275740D01*
X275150Y302984D02*
Y304165D01*
X330559Y297575D02*
X331740D01*
X331150Y296984D02*
Y298165D01*
X330559Y303575D02*
X331740D01*
X331150Y302984D02*
Y304165D01*
X330559Y309575D02*
X331740D01*
X331150Y308984D02*
Y310165D01*
X330559Y315575D02*
X331740D01*
X331150Y314984D02*
Y316165D01*
X330559Y321575D02*
X331740D01*
X331150Y320984D02*
Y322165D01*
X330559Y327575D02*
X331740D01*
X331150Y326984D02*
Y328165D01*
X302559Y284575D02*
X303740D01*
X303150Y283984D02*
Y285165D01*
X330559Y333575D02*
X331740D01*
X331150Y332984D02*
Y334165D01*
X330559Y339575D02*
X331740D01*
X331150Y338984D02*
Y340165D01*
X330559Y345575D02*
X331740D01*
X331150Y344984D02*
Y346165D01*
X330559Y351575D02*
X331740D01*
X331150Y350984D02*
Y352165D01*
X308559Y284575D02*
X309740D01*
X309150Y283984D02*
Y285165D01*
X330559Y357575D02*
X331740D01*
X331150Y356984D02*
Y358165D01*
X330559Y363575D02*
X331740D01*
X331150Y362984D02*
Y364165D01*
X330559Y369575D02*
X331740D01*
X331150Y368984D02*
Y370165D01*
X330559Y375575D02*
X331740D01*
X331150Y374984D02*
Y376165D01*
X330559Y381575D02*
X331740D01*
X331150Y380984D02*
Y382165D01*
X301059Y366075D02*
X302240D01*
X301650Y365484D02*
Y366665D01*
X285559Y374575D02*
X286740D01*
X286150Y373984D02*
Y375165D01*
X296059Y374575D02*
X297240D01*
X296650Y373984D02*
Y375165D01*
X325378Y175000D02*
X328921D01*
X327150Y173228D02*
Y176772D01*
X325378Y185000D02*
X328921D01*
X327150Y183228D02*
Y186772D01*
X325378Y195000D02*
X328921D01*
X327150Y193228D02*
Y196772D01*
X278378Y186000D02*
X281921D01*
X280150Y184228D02*
Y187772D01*
X293378Y186000D02*
X296921D01*
X295150Y184228D02*
Y187772D01*
X308378Y186000D02*
X311921D01*
X310150Y184228D02*
Y187772D01*
X311319Y19181D02*
X314075D01*
X312697Y17803D02*
Y20559D01*
X292224Y19181D02*
X294980D01*
X293602Y17803D02*
Y20559D01*
X316437Y8630D02*
X318406D01*
X317421Y7646D02*
Y9614D01*
X287894Y8630D02*
X289862D01*
X288878Y7646D02*
Y9614D01*
X313559Y154000D02*
X314740D01*
X314150Y153410D02*
Y154591D01*
X310559Y174000D02*
X311740D01*
X311150Y173409D02*
Y174591D01*
X299559Y174000D02*
X300740D01*
X300150Y173409D02*
Y174591D01*
X274559Y194000D02*
X275740D01*
X275150Y193410D02*
Y194591D01*
X281559Y176000D02*
X282740D01*
X282150Y175409D02*
Y176591D01*
X274559Y176000D02*
X275740D01*
X275150Y175409D02*
Y176591D01*
X330559Y166000D02*
X331740D01*
X331150Y165410D02*
Y166591D01*
X330559Y160000D02*
X331740D01*
X331150Y159409D02*
Y160591D01*
X330559Y154000D02*
X331740D01*
X331150Y153410D02*
Y154591D01*
X330559Y148000D02*
X331740D01*
X331150Y147409D02*
Y148591D01*
X274559Y166000D02*
X275740D01*
X275150Y165410D02*
Y166591D01*
X274559Y160000D02*
X275740D01*
X275150Y159409D02*
Y160591D01*
X274559Y154000D02*
X275740D01*
X275150Y153410D02*
Y154591D01*
X274559Y148000D02*
X275740D01*
X275150Y147409D02*
Y148591D01*
X320559Y136000D02*
X321740D01*
X321150Y135409D02*
Y136591D01*
X314559Y136000D02*
X315740D01*
X315150Y135409D02*
Y136591D01*
X308559Y136000D02*
X309740D01*
X309150Y135409D02*
Y136591D01*
X302559Y136000D02*
X303740D01*
X303150Y135409D02*
Y136591D01*
X296559Y136000D02*
X297740D01*
X297150Y135409D02*
Y136591D01*
X290559Y136000D02*
X291740D01*
X291150Y135409D02*
Y136591D01*
X284559Y136000D02*
X285740D01*
X285150Y135409D02*
Y136591D01*
X330559Y80000D02*
X331740D01*
X331150Y79409D02*
Y80591D01*
X330559Y86000D02*
X331740D01*
X331150Y85409D02*
Y86591D01*
X330559Y92000D02*
X331740D01*
X331150Y91409D02*
Y92591D01*
X330559Y110000D02*
X331740D01*
X331150Y109409D02*
Y110591D01*
X330559Y104000D02*
X331740D01*
X331150Y103410D02*
Y104591D01*
X320559Y117000D02*
X321740D01*
X321150Y116410D02*
Y117591D01*
X314559Y117000D02*
X315740D01*
X315150Y116410D02*
Y117591D01*
X308559Y117000D02*
X309740D01*
X309150Y116410D02*
Y117591D01*
X328799Y67260D02*
X329980D01*
X329390Y66669D02*
Y67850D01*
X317362Y90000D02*
X318937D01*
X318150Y89213D02*
Y90787D01*
X301362Y97000D02*
X302937D01*
X302150Y96213D02*
Y97787D01*
X293362Y99000D02*
X294937D01*
X294150Y98213D02*
Y99787D01*
X298362Y104000D02*
X299937D01*
X299150Y103213D02*
Y104787D01*
X300059Y27000D02*
X301240D01*
X300650Y26410D02*
Y27591D01*
X326362Y44000D02*
X327937D01*
X327150Y43213D02*
Y44787D01*
X287362Y83000D02*
X288937D01*
X288150Y82213D02*
Y83787D01*
X287362Y49500D02*
X288937D01*
X288150Y48713D02*
Y50287D01*
X308559Y67500D02*
X309740D01*
X309150Y66909D02*
Y68091D01*
X311559Y71000D02*
X312740D01*
X312150Y70410D02*
Y71591D01*
X304559Y27000D02*
X305740D01*
X305150Y26410D02*
Y27591D01*
X301862Y39240D02*
X303437D01*
X302650Y38453D02*
Y40028D01*
X325059Y68000D02*
X326240D01*
X325650Y67409D02*
Y68591D01*
X322059Y80500D02*
X323240D01*
X322650Y79909D02*
Y81091D01*
X317559Y50000D02*
X318740D01*
X318150Y49409D02*
Y50591D01*
X321559Y50000D02*
X322740D01*
X322150Y49409D02*
Y50591D01*
X306059Y57000D02*
X307240D01*
X306650Y56410D02*
Y57591D01*
X306059Y63000D02*
X307240D01*
X306650Y62410D02*
Y63591D01*
X295059Y57000D02*
X296240D01*
X295650Y56410D02*
Y57591D01*
X295059Y63000D02*
X296240D01*
X295650Y62410D02*
Y63591D01*
X295059Y69000D02*
X296240D01*
X295650Y68410D02*
Y69591D01*
X290559Y117000D02*
X291740D01*
X291150Y116410D02*
Y117591D01*
X284559Y117000D02*
X285740D01*
X285150Y116410D02*
Y117591D01*
X274559Y110000D02*
X275740D01*
X275150Y109409D02*
Y110591D01*
X330559Y98000D02*
X331740D01*
X331150Y97409D02*
Y98591D01*
X274559Y104000D02*
X275740D01*
X275150Y103410D02*
Y104591D01*
X274559Y98000D02*
X275740D01*
X275150Y97409D02*
Y98591D01*
X274559Y92000D02*
X275740D01*
X275150Y91409D02*
Y92591D01*
X274559Y86000D02*
X275740D01*
X275150Y85409D02*
Y86591D01*
X274559Y80000D02*
X275740D01*
X275150Y79409D02*
Y80591D01*
X274559Y74000D02*
X275740D01*
X275150Y73409D02*
Y74591D01*
X302559Y117000D02*
X303740D01*
X303150Y116410D02*
Y117591D01*
X274559Y68000D02*
X275740D01*
X275150Y67409D02*
Y68591D01*
X274559Y62000D02*
X275740D01*
X275150Y61409D02*
Y62591D01*
X274559Y56000D02*
X275740D01*
X275150Y55409D02*
Y56591D01*
X274559Y50000D02*
X275740D01*
X275150Y49409D02*
Y50591D01*
X296559Y117000D02*
X297740D01*
X297150Y116410D02*
Y117591D01*
X274559Y44000D02*
X275740D01*
X275150Y43409D02*
Y44591D01*
X274559Y38000D02*
X275740D01*
X275150Y37409D02*
Y38591D01*
X274559Y32000D02*
X275740D01*
X275150Y31409D02*
Y32591D01*
X274559Y26000D02*
X275740D01*
X275150Y25409D02*
Y26591D01*
X274559Y20000D02*
X275740D01*
X275150Y19410D02*
Y20591D01*
X304059Y35500D02*
X305240D01*
X304650Y34909D02*
Y36091D01*
X319559Y27000D02*
X320740D01*
X320150Y26410D02*
Y27591D01*
X309059Y27000D02*
X310240D01*
X309650Y26410D02*
Y27591D01*
X262386Y175000D02*
X265929D01*
X264158Y173228D02*
Y176772D01*
X262386Y185000D02*
X265929D01*
X264158Y183228D02*
Y186772D01*
X262386Y195000D02*
X265929D01*
X264158Y193228D02*
Y196772D01*
X215386Y186000D02*
X218929D01*
X217158Y184228D02*
Y187772D01*
X230386Y186000D02*
X233929D01*
X232157Y184228D02*
Y187772D01*
X245386Y186000D02*
X248929D01*
X247158Y184228D02*
Y187772D01*
X248327Y19181D02*
X251083D01*
X249705Y17803D02*
Y20559D01*
X229232Y19181D02*
X231988D01*
X230610Y17803D02*
Y20559D01*
X253445Y8630D02*
X255413D01*
X254429Y7646D02*
Y9614D01*
X224902Y8630D02*
X226870D01*
X225886Y7646D02*
Y9614D01*
X250567Y154000D02*
X251748D01*
X251157Y153410D02*
Y154591D01*
X247567Y174000D02*
X248748D01*
X248158Y173409D02*
Y174591D01*
X236567Y174000D02*
X237748D01*
X237158Y173409D02*
Y174591D01*
X211567Y194000D02*
X212748D01*
X212158Y193410D02*
Y194591D01*
X218567Y176000D02*
X219748D01*
X219158Y175409D02*
Y176591D01*
X211567Y176000D02*
X212748D01*
X212158Y175409D02*
Y176591D01*
X267567Y166000D02*
X268748D01*
X268158Y165410D02*
Y166591D01*
X267567Y160000D02*
X268748D01*
X268158Y159409D02*
Y160591D01*
X267567Y154000D02*
X268748D01*
X268158Y153410D02*
Y154591D01*
X267567Y148000D02*
X268748D01*
X268158Y147409D02*
Y148591D01*
X211567Y166000D02*
X212748D01*
X212158Y165410D02*
Y166591D01*
X211567Y160000D02*
X212748D01*
X212158Y159409D02*
Y160591D01*
X211567Y154000D02*
X212748D01*
X212158Y153410D02*
Y154591D01*
X211567Y148000D02*
X212748D01*
X212158Y147409D02*
Y148591D01*
X257567Y136000D02*
X258748D01*
X258157Y135409D02*
Y136591D01*
X251567Y136000D02*
X252748D01*
X252157Y135409D02*
Y136591D01*
X245567Y136000D02*
X246748D01*
X246158Y135409D02*
Y136591D01*
X239567Y136000D02*
X240748D01*
X240158Y135409D02*
Y136591D01*
X233567Y136000D02*
X234748D01*
X234157Y135409D02*
Y136591D01*
X227567Y136000D02*
X228748D01*
X228157Y135409D02*
Y136591D01*
X221567Y136000D02*
X222748D01*
X222158Y135409D02*
Y136591D01*
X267567Y80000D02*
X268748D01*
X268158Y79409D02*
Y80591D01*
X267567Y86000D02*
X268748D01*
X268158Y85409D02*
Y86591D01*
X267567Y92000D02*
X268748D01*
X268158Y91409D02*
Y92591D01*
X267567Y110000D02*
X268748D01*
X268158Y109409D02*
Y110591D01*
X267567Y104000D02*
X268748D01*
X268158Y103410D02*
Y104591D01*
X257567Y117000D02*
X258748D01*
X258157Y116410D02*
Y117591D01*
X251567Y117000D02*
X252748D01*
X252157Y116410D02*
Y117591D01*
X245567Y117000D02*
X246748D01*
X246158Y116410D02*
Y117591D01*
X265807Y67260D02*
X266988D01*
X266398Y66669D02*
Y67850D01*
X254370Y90000D02*
X255945D01*
X255157Y89213D02*
Y90787D01*
X238370Y97000D02*
X239945D01*
X239158Y96213D02*
Y97787D01*
X230370Y99000D02*
X231945D01*
X231157Y98213D02*
Y99787D01*
X235370Y104000D02*
X236945D01*
X236157Y103213D02*
Y104787D01*
X237067Y27000D02*
X238248D01*
X237657Y26410D02*
Y27591D01*
X263370Y44000D02*
X264945D01*
X264158Y43213D02*
Y44787D01*
X224370Y83000D02*
X225945D01*
X225157Y82213D02*
Y83787D01*
X224370Y49500D02*
X225945D01*
X225157Y48713D02*
Y50287D01*
X245567Y67500D02*
X246748D01*
X246158Y66909D02*
Y68091D01*
X248567Y71000D02*
X249748D01*
X249158Y70410D02*
Y71591D01*
X241567Y27000D02*
X242748D01*
X242158Y26410D02*
Y27591D01*
X238870Y39240D02*
X240445D01*
X239657Y38453D02*
Y40028D01*
X262067Y68000D02*
X263248D01*
X262657Y67409D02*
Y68591D01*
X259067Y80500D02*
X260248D01*
X259658Y79909D02*
Y81091D01*
X254567Y50000D02*
X255748D01*
X255157Y49409D02*
Y50591D01*
X258567Y50000D02*
X259748D01*
X259157Y49409D02*
Y50591D01*
X243067Y57000D02*
X244248D01*
X243657Y56410D02*
Y57591D01*
X243067Y63000D02*
X244248D01*
X243657Y62410D02*
Y63591D01*
X232067Y57000D02*
X233248D01*
X232658Y56410D02*
Y57591D01*
X232067Y63000D02*
X233248D01*
X232658Y62410D02*
Y63591D01*
X232067Y69000D02*
X233248D01*
X232658Y68410D02*
Y69591D01*
X227567Y117000D02*
X228748D01*
X228157Y116410D02*
Y117591D01*
X221567Y117000D02*
X222748D01*
X222158Y116410D02*
Y117591D01*
X211567Y110000D02*
X212748D01*
X212158Y109409D02*
Y110591D01*
X267567Y98000D02*
X268748D01*
X268158Y97409D02*
Y98591D01*
X211567Y104000D02*
X212748D01*
X212158Y103410D02*
Y104591D01*
X211567Y98000D02*
X212748D01*
X212158Y97409D02*
Y98591D01*
X211567Y92000D02*
X212748D01*
X212158Y91409D02*
Y92591D01*
X211567Y86000D02*
X212748D01*
X212158Y85409D02*
Y86591D01*
X211567Y80000D02*
X212748D01*
X212158Y79409D02*
Y80591D01*
X211567Y74000D02*
X212748D01*
X212158Y73409D02*
Y74591D01*
X239567Y117000D02*
X240748D01*
X240158Y116410D02*
Y117591D01*
X211567Y68000D02*
X212748D01*
X212158Y67409D02*
Y68591D01*
X211567Y62000D02*
X212748D01*
X212158Y61409D02*
Y62591D01*
X211567Y56000D02*
X212748D01*
X212158Y55409D02*
Y56591D01*
X211567Y50000D02*
X212748D01*
X212158Y49409D02*
Y50591D01*
X233567Y117000D02*
X234748D01*
X234157Y116410D02*
Y117591D01*
X211567Y44000D02*
X212748D01*
X212158Y43409D02*
Y44591D01*
X211567Y38000D02*
X212748D01*
X212158Y37409D02*
Y38591D01*
X211567Y32000D02*
X212748D01*
X212158Y31409D02*
Y32591D01*
X211567Y26000D02*
X212748D01*
X212158Y25409D02*
Y26591D01*
X211567Y20000D02*
X212748D01*
X212158Y19410D02*
Y20591D01*
X241067Y35500D02*
X242248D01*
X241657Y34909D02*
Y36091D01*
X256567Y27000D02*
X257748D01*
X257157Y26410D02*
Y27591D01*
X246067Y27000D02*
X247248D01*
X246657Y26410D02*
Y27591D01*
X199394Y175000D02*
X202937D01*
X201165Y173228D02*
Y176772D01*
X199394Y185000D02*
X202937D01*
X201165Y183228D02*
Y186772D01*
X199394Y195000D02*
X202937D01*
X201165Y193228D02*
Y196772D01*
X152394Y186000D02*
X155937D01*
X154165Y184228D02*
Y187772D01*
X167394Y186000D02*
X170937D01*
X169165Y184228D02*
Y187772D01*
X182394Y186000D02*
X185937D01*
X184165Y184228D02*
Y187772D01*
X185335Y19181D02*
X188091D01*
X186713Y17803D02*
Y20559D01*
X166240Y19181D02*
X168996D01*
X167618Y17803D02*
Y20559D01*
X190453Y8630D02*
X192421D01*
X191437Y7646D02*
Y9614D01*
X161909Y8630D02*
X163878D01*
X162894Y7646D02*
Y9614D01*
X187575Y154000D02*
X188756D01*
X188165Y153410D02*
Y154591D01*
X184575Y174000D02*
X185756D01*
X185165Y173409D02*
Y174591D01*
X173575Y174000D02*
X174756D01*
X174165Y173409D02*
Y174591D01*
X148575Y194000D02*
X149756D01*
X149165Y193410D02*
Y194591D01*
X155575Y176000D02*
X156756D01*
X156165Y175409D02*
Y176591D01*
X148575Y176000D02*
X149756D01*
X149165Y175409D02*
Y176591D01*
X204575Y166000D02*
X205756D01*
X205165Y165410D02*
Y166591D01*
X204575Y160000D02*
X205756D01*
X205165Y159409D02*
Y160591D01*
X204575Y154000D02*
X205756D01*
X205165Y153410D02*
Y154591D01*
X204575Y148000D02*
X205756D01*
X205165Y147409D02*
Y148591D01*
X148575Y166000D02*
X149756D01*
X149165Y165410D02*
Y166591D01*
X148575Y160000D02*
X149756D01*
X149165Y159409D02*
Y160591D01*
X148575Y154000D02*
X149756D01*
X149165Y153410D02*
Y154591D01*
X148575Y148000D02*
X149756D01*
X149165Y147409D02*
Y148591D01*
X194575Y136000D02*
X195756D01*
X195165Y135409D02*
Y136591D01*
X188575Y136000D02*
X189756D01*
X189165Y135409D02*
Y136591D01*
X182575Y136000D02*
X183756D01*
X183165Y135409D02*
Y136591D01*
X176575Y136000D02*
X177756D01*
X177165Y135409D02*
Y136591D01*
X170575Y136000D02*
X171756D01*
X171165Y135409D02*
Y136591D01*
X164575Y136000D02*
X165756D01*
X165165Y135409D02*
Y136591D01*
X158575Y136000D02*
X159756D01*
X159165Y135409D02*
Y136591D01*
X204575Y80000D02*
X205756D01*
X205165Y79409D02*
Y80591D01*
X204575Y86000D02*
X205756D01*
X205165Y85409D02*
Y86591D01*
X204575Y92000D02*
X205756D01*
X205165Y91409D02*
Y92591D01*
X204575Y110000D02*
X205756D01*
X205165Y109409D02*
Y110591D01*
X204575Y104000D02*
X205756D01*
X205165Y103410D02*
Y104591D01*
X194575Y117000D02*
X195756D01*
X195165Y116410D02*
Y117591D01*
X188575Y117000D02*
X189756D01*
X189165Y116410D02*
Y117591D01*
X182575Y117000D02*
X183756D01*
X183165Y116410D02*
Y117591D01*
X202815Y67260D02*
X203996D01*
X203405Y66669D02*
Y67850D01*
X191378Y90000D02*
X192953D01*
X192165Y89213D02*
Y90787D01*
X175378Y97000D02*
X176953D01*
X176165Y96213D02*
Y97787D01*
X167378Y99000D02*
X168953D01*
X168165Y98213D02*
Y99787D01*
X172378Y104000D02*
X173953D01*
X173165Y103213D02*
Y104787D01*
X174075Y27000D02*
X175256D01*
X174665Y26410D02*
Y27591D01*
X200378Y44000D02*
X201953D01*
X201165Y43213D02*
Y44787D01*
X161378Y83000D02*
X162953D01*
X162165Y82213D02*
Y83787D01*
X161378Y49500D02*
X162953D01*
X162165Y48713D02*
Y50287D01*
X182575Y67500D02*
X183756D01*
X183165Y66909D02*
Y68091D01*
X185575Y71000D02*
X186756D01*
X186165Y70410D02*
Y71591D01*
X178575Y27000D02*
X179756D01*
X179165Y26410D02*
Y27591D01*
X175878Y39240D02*
X177453D01*
X176665Y38453D02*
Y40028D01*
X199075Y68000D02*
X200256D01*
X199665Y67409D02*
Y68591D01*
X196075Y80500D02*
X197256D01*
X196665Y79909D02*
Y81091D01*
X191575Y50000D02*
X192756D01*
X192165Y49409D02*
Y50591D01*
X195575Y50000D02*
X196756D01*
X196165Y49409D02*
Y50591D01*
X180075Y57000D02*
X181256D01*
X180665Y56410D02*
Y57591D01*
X180075Y63000D02*
X181256D01*
X180665Y62410D02*
Y63591D01*
X169075Y57000D02*
X170256D01*
X169665Y56410D02*
Y57591D01*
X169075Y63000D02*
X170256D01*
X169665Y62410D02*
Y63591D01*
X169075Y69000D02*
X170256D01*
X169665Y68410D02*
Y69591D01*
X164575Y117000D02*
X165756D01*
X165165Y116410D02*
Y117591D01*
X158575Y117000D02*
X159756D01*
X159165Y116410D02*
Y117591D01*
X148575Y110000D02*
X149756D01*
X149165Y109409D02*
Y110591D01*
X204575Y98000D02*
X205756D01*
X205165Y97409D02*
Y98591D01*
X148575Y104000D02*
X149756D01*
X149165Y103410D02*
Y104591D01*
X148575Y98000D02*
X149756D01*
X149165Y97409D02*
Y98591D01*
X148575Y92000D02*
X149756D01*
X149165Y91409D02*
Y92591D01*
X148575Y86000D02*
X149756D01*
X149165Y85409D02*
Y86591D01*
X148575Y80000D02*
X149756D01*
X149165Y79409D02*
Y80591D01*
X148575Y74000D02*
X149756D01*
X149165Y73409D02*
Y74591D01*
X176575Y117000D02*
X177756D01*
X177165Y116410D02*
Y117591D01*
X148575Y68000D02*
X149756D01*
X149165Y67409D02*
Y68591D01*
X148575Y62000D02*
X149756D01*
X149165Y61409D02*
Y62591D01*
X148575Y56000D02*
X149756D01*
X149165Y55409D02*
Y56591D01*
X148575Y50000D02*
X149756D01*
X149165Y49409D02*
Y50591D01*
X170575Y117000D02*
X171756D01*
X171165Y116410D02*
Y117591D01*
X148575Y44000D02*
X149756D01*
X149165Y43409D02*
Y44591D01*
X148575Y38000D02*
X149756D01*
X149165Y37409D02*
Y38591D01*
X148575Y32000D02*
X149756D01*
X149165Y31409D02*
Y32591D01*
X148575Y26000D02*
X149756D01*
X149165Y25409D02*
Y26591D01*
X148575Y20000D02*
X149756D01*
X149165Y19410D02*
Y20591D01*
X178075Y35500D02*
X179256D01*
X178665Y34909D02*
Y36091D01*
X193575Y27000D02*
X194756D01*
X194165Y26410D02*
Y27591D01*
X183075Y27000D02*
X184256D01*
X183665Y26410D02*
Y27591D01*
X136402Y175000D02*
X139945D01*
X138173Y173228D02*
Y176772D01*
X136402Y185000D02*
X139945D01*
X138173Y183228D02*
Y186772D01*
X136402Y195000D02*
X139945D01*
X138173Y193228D02*
Y196772D01*
X89402Y186000D02*
X92945D01*
X91173Y184228D02*
Y187772D01*
X104402Y186000D02*
X107945D01*
X106173Y184228D02*
Y187772D01*
X119402Y186000D02*
X122945D01*
X121173Y184228D02*
Y187772D01*
X122343Y19181D02*
X125098D01*
X123721Y17803D02*
Y20559D01*
X103248Y19181D02*
X106004D01*
X104626Y17803D02*
Y20559D01*
X127461Y8630D02*
X129429D01*
X128445Y7646D02*
Y9614D01*
X98917Y8630D02*
X100886D01*
X99902Y7646D02*
Y9614D01*
X124583Y154000D02*
X125764D01*
X125173Y153410D02*
Y154591D01*
X121583Y174000D02*
X122764D01*
X122173Y173409D02*
Y174591D01*
X110583Y174000D02*
X111764D01*
X111173Y173409D02*
Y174591D01*
X85583Y194000D02*
X86764D01*
X86173Y193410D02*
Y194591D01*
X92583Y176000D02*
X93764D01*
X93173Y175409D02*
Y176591D01*
X85583Y176000D02*
X86764D01*
X86173Y175409D02*
Y176591D01*
X141583Y166000D02*
X142764D01*
X142173Y165410D02*
Y166591D01*
X141583Y160000D02*
X142764D01*
X142173Y159409D02*
Y160591D01*
X141583Y154000D02*
X142764D01*
X142173Y153410D02*
Y154591D01*
X141583Y148000D02*
X142764D01*
X142173Y147409D02*
Y148591D01*
X85583Y166000D02*
X86764D01*
X86173Y165410D02*
Y166591D01*
X85583Y160000D02*
X86764D01*
X86173Y159409D02*
Y160591D01*
X85583Y154000D02*
X86764D01*
X86173Y153410D02*
Y154591D01*
X85583Y148000D02*
X86764D01*
X86173Y147409D02*
Y148591D01*
X131583Y136000D02*
X132764D01*
X132173Y135409D02*
Y136591D01*
X125583Y136000D02*
X126764D01*
X126173Y135409D02*
Y136591D01*
X119583Y136000D02*
X120764D01*
X120173Y135409D02*
Y136591D01*
X113583Y136000D02*
X114764D01*
X114173Y135409D02*
Y136591D01*
X107583Y136000D02*
X108764D01*
X108173Y135409D02*
Y136591D01*
X101583Y136000D02*
X102764D01*
X102173Y135409D02*
Y136591D01*
X95583Y136000D02*
X96764D01*
X96173Y135409D02*
Y136591D01*
X141583Y80000D02*
X142764D01*
X142173Y79409D02*
Y80591D01*
X141583Y86000D02*
X142764D01*
X142173Y85409D02*
Y86591D01*
X141583Y92000D02*
X142764D01*
X142173Y91409D02*
Y92591D01*
X141583Y110000D02*
X142764D01*
X142173Y109409D02*
Y110591D01*
X141583Y104000D02*
X142764D01*
X142173Y103410D02*
Y104591D01*
X131583Y117000D02*
X132764D01*
X132173Y116410D02*
Y117591D01*
X125583Y117000D02*
X126764D01*
X126173Y116410D02*
Y117591D01*
X119583Y117000D02*
X120764D01*
X120173Y116410D02*
Y117591D01*
X139823Y67260D02*
X141004D01*
X140413Y66669D02*
Y67850D01*
X128386Y90000D02*
X129961D01*
X129173Y89213D02*
Y90787D01*
X112386Y97000D02*
X113961D01*
X113173Y96213D02*
Y97787D01*
X104386Y99000D02*
X105961D01*
X105173Y98213D02*
Y99787D01*
X109386Y104000D02*
X110961D01*
X110173Y103213D02*
Y104787D01*
X111083Y27000D02*
X112264D01*
X111673Y26410D02*
Y27591D01*
X137386Y44000D02*
X138961D01*
X138173Y43213D02*
Y44787D01*
X98386Y83000D02*
X99961D01*
X99173Y82213D02*
Y83787D01*
X98386Y49500D02*
X99961D01*
X99173Y48713D02*
Y50287D01*
X119583Y67500D02*
X120764D01*
X120173Y66909D02*
Y68091D01*
X122583Y71000D02*
X123764D01*
X123173Y70410D02*
Y71591D01*
X115583Y27000D02*
X116764D01*
X116173Y26410D02*
Y27591D01*
X112886Y39240D02*
X114461D01*
X113673Y38453D02*
Y40028D01*
X136083Y68000D02*
X137264D01*
X136673Y67409D02*
Y68591D01*
X133083Y80500D02*
X134264D01*
X133673Y79909D02*
Y81091D01*
X128583Y50000D02*
X129764D01*
X129173Y49409D02*
Y50591D01*
X132583Y50000D02*
X133764D01*
X133173Y49409D02*
Y50591D01*
X117083Y57000D02*
X118264D01*
X117673Y56410D02*
Y57591D01*
X117083Y63000D02*
X118264D01*
X117673Y62410D02*
Y63591D01*
X106083Y57000D02*
X107264D01*
X106673Y56410D02*
Y57591D01*
X106083Y63000D02*
X107264D01*
X106673Y62410D02*
Y63591D01*
X106083Y69000D02*
X107264D01*
X106673Y68410D02*
Y69591D01*
X101583Y117000D02*
X102764D01*
X102173Y116410D02*
Y117591D01*
X95583Y117000D02*
X96764D01*
X96173Y116410D02*
Y117591D01*
X85583Y110000D02*
X86764D01*
X86173Y109409D02*
Y110591D01*
X141583Y98000D02*
X142764D01*
X142173Y97409D02*
Y98591D01*
X85583Y104000D02*
X86764D01*
X86173Y103410D02*
Y104591D01*
X85583Y98000D02*
X86764D01*
X86173Y97409D02*
Y98591D01*
X85583Y92000D02*
X86764D01*
X86173Y91409D02*
Y92591D01*
X85583Y86000D02*
X86764D01*
X86173Y85409D02*
Y86591D01*
X85583Y80000D02*
X86764D01*
X86173Y79409D02*
Y80591D01*
X85583Y74000D02*
X86764D01*
X86173Y73409D02*
Y74591D01*
X113583Y117000D02*
X114764D01*
X114173Y116410D02*
Y117591D01*
X85583Y68000D02*
X86764D01*
X86173Y67409D02*
Y68591D01*
X85583Y62000D02*
X86764D01*
X86173Y61409D02*
Y62591D01*
X85583Y56000D02*
X86764D01*
X86173Y55409D02*
Y56591D01*
X85583Y50000D02*
X86764D01*
X86173Y49409D02*
Y50591D01*
X107583Y117000D02*
X108764D01*
X108173Y116410D02*
Y117591D01*
X85583Y44000D02*
X86764D01*
X86173Y43409D02*
Y44591D01*
X85583Y38000D02*
X86764D01*
X86173Y37409D02*
Y38591D01*
X85583Y32000D02*
X86764D01*
X86173Y31409D02*
Y32591D01*
X85583Y26000D02*
X86764D01*
X86173Y25409D02*
Y26591D01*
X85583Y20000D02*
X86764D01*
X86173Y19410D02*
Y20591D01*
X115083Y35500D02*
X116264D01*
X115673Y34909D02*
Y36091D01*
X130583Y27000D02*
X131764D01*
X131173Y26410D02*
Y27591D01*
X120083Y27000D02*
X121264D01*
X120673Y26410D02*
Y27591D01*
X73409Y175000D02*
X76953D01*
X75181Y173228D02*
Y176772D01*
X73409Y185000D02*
X76953D01*
X75181Y183228D02*
Y186772D01*
X73409Y195000D02*
X76953D01*
X75181Y193228D02*
Y196772D01*
X26410Y186000D02*
X29953D01*
X28181Y184228D02*
Y187772D01*
X41410Y186000D02*
X44953D01*
X43181Y184228D02*
Y187772D01*
X56410Y186000D02*
X59953D01*
X58181Y184228D02*
Y187772D01*
X59350Y19181D02*
X62106D01*
X60728Y17803D02*
Y20559D01*
X40256Y19181D02*
X43012D01*
X41634Y17803D02*
Y20559D01*
X64468Y8630D02*
X66437D01*
X65453Y7646D02*
Y9614D01*
X35925Y8630D02*
X37894D01*
X36909Y7646D02*
Y9614D01*
X61591Y154000D02*
X62772D01*
X62181Y153410D02*
Y154591D01*
X58591Y174000D02*
X59772D01*
X59181Y173409D02*
Y174591D01*
X47591Y174000D02*
X48772D01*
X48181Y173409D02*
Y174591D01*
X22591Y194000D02*
X23772D01*
X23181Y193410D02*
Y194591D01*
X29591Y176000D02*
X30772D01*
X30181Y175409D02*
Y176591D01*
X22591Y176000D02*
X23772D01*
X23181Y175409D02*
Y176591D01*
X78591Y166000D02*
X79772D01*
X79181Y165410D02*
Y166591D01*
X78591Y160000D02*
X79772D01*
X79181Y159409D02*
Y160591D01*
X78591Y154000D02*
X79772D01*
X79181Y153410D02*
Y154591D01*
X78591Y148000D02*
X79772D01*
X79181Y147409D02*
Y148591D01*
X22591Y166000D02*
X23772D01*
X23181Y165410D02*
Y166591D01*
X22591Y160000D02*
X23772D01*
X23181Y159409D02*
Y160591D01*
X22591Y154000D02*
X23772D01*
X23181Y153410D02*
Y154591D01*
X22591Y148000D02*
X23772D01*
X23181Y147409D02*
Y148591D01*
X68591Y136000D02*
X69772D01*
X69181Y135409D02*
Y136591D01*
X62591Y136000D02*
X63772D01*
X63181Y135409D02*
Y136591D01*
X56591Y136000D02*
X57772D01*
X57181Y135409D02*
Y136591D01*
X50591Y136000D02*
X51772D01*
X51181Y135409D02*
Y136591D01*
X44591Y136000D02*
X45772D01*
X45181Y135409D02*
Y136591D01*
X38591Y136000D02*
X39772D01*
X39181Y135409D02*
Y136591D01*
X32591Y136000D02*
X33772D01*
X33181Y135409D02*
Y136591D01*
X78591Y80000D02*
X79772D01*
X79181Y79409D02*
Y80591D01*
X78591Y86000D02*
X79772D01*
X79181Y85409D02*
Y86591D01*
X78591Y92000D02*
X79772D01*
X79181Y91409D02*
Y92591D01*
X78591Y110000D02*
X79772D01*
X79181Y109409D02*
Y110591D01*
X78591Y104000D02*
X79772D01*
X79181Y103410D02*
Y104591D01*
X68591Y117000D02*
X69772D01*
X69181Y116410D02*
Y117591D01*
X62591Y117000D02*
X63772D01*
X63181Y116410D02*
Y117591D01*
X56591Y117000D02*
X57772D01*
X57181Y116410D02*
Y117591D01*
X76831Y67260D02*
X78012D01*
X77421Y66669D02*
Y67850D01*
X65394Y90000D02*
X66969D01*
X66181Y89213D02*
Y90787D01*
X49394Y97000D02*
X50968D01*
X50181Y96213D02*
Y97787D01*
X41394Y99000D02*
X42968D01*
X42181Y98213D02*
Y99787D01*
X46394Y104000D02*
X47969D01*
X47181Y103213D02*
Y104787D01*
X48091Y27000D02*
X49272D01*
X48681Y26410D02*
Y27591D01*
X74394Y44000D02*
X75968D01*
X75181Y43213D02*
Y44787D01*
X35394Y83000D02*
X36968D01*
X36181Y82213D02*
Y83787D01*
X35394Y49500D02*
X36968D01*
X36181Y48713D02*
Y50287D01*
X56591Y67500D02*
X57772D01*
X57181Y66909D02*
Y68091D01*
X59591Y71000D02*
X60772D01*
X60181Y70410D02*
Y71591D01*
X52591Y27000D02*
X53772D01*
X53181Y26410D02*
Y27591D01*
X49894Y39240D02*
X51468D01*
X50681Y38453D02*
Y40028D01*
X73091Y68000D02*
X74272D01*
X73681Y67409D02*
Y68591D01*
X70091Y80500D02*
X71272D01*
X70681Y79909D02*
Y81091D01*
X65591Y50000D02*
X66772D01*
X66181Y49409D02*
Y50591D01*
X69591Y50000D02*
X70772D01*
X70181Y49409D02*
Y50591D01*
X54091Y57000D02*
X55272D01*
X54681Y56410D02*
Y57591D01*
X54091Y63000D02*
X55272D01*
X54681Y62410D02*
Y63591D01*
X43091Y57000D02*
X44272D01*
X43681Y56410D02*
Y57591D01*
X43091Y63000D02*
X44272D01*
X43681Y62410D02*
Y63591D01*
X43091Y69000D02*
X44272D01*
X43681Y68410D02*
Y69591D01*
X38591Y117000D02*
X39772D01*
X39181Y116410D02*
Y117591D01*
X32591Y117000D02*
X33772D01*
X33181Y116410D02*
Y117591D01*
X22591Y110000D02*
X23772D01*
X23181Y109409D02*
Y110591D01*
X78591Y98000D02*
X79772D01*
X79181Y97409D02*
Y98591D01*
X22591Y104000D02*
X23772D01*
X23181Y103410D02*
Y104591D01*
X22591Y98000D02*
X23772D01*
X23181Y97409D02*
Y98591D01*
X22591Y92000D02*
X23772D01*
X23181Y91409D02*
Y92591D01*
X22591Y86000D02*
X23772D01*
X23181Y85409D02*
Y86591D01*
X22591Y80000D02*
X23772D01*
X23181Y79409D02*
Y80591D01*
X22591Y74000D02*
X23772D01*
X23181Y73409D02*
Y74591D01*
X50591Y117000D02*
X51772D01*
X51181Y116410D02*
Y117591D01*
X22591Y68000D02*
X23772D01*
X23181Y67409D02*
Y68591D01*
X22591Y62000D02*
X23772D01*
X23181Y61409D02*
Y62591D01*
X22591Y56000D02*
X23772D01*
X23181Y55409D02*
Y56591D01*
X22591Y50000D02*
X23772D01*
X23181Y49409D02*
Y50591D01*
X44591Y117000D02*
X45772D01*
X45181Y116410D02*
Y117591D01*
X22591Y44000D02*
X23772D01*
X23181Y43409D02*
Y44591D01*
X22591Y38000D02*
X23772D01*
X23181Y37409D02*
Y38591D01*
X22591Y32000D02*
X23772D01*
X23181Y31409D02*
Y32591D01*
X22591Y26000D02*
X23772D01*
X23181Y25409D02*
Y26591D01*
X22591Y20000D02*
X23772D01*
X23181Y19410D02*
Y20591D01*
X52091Y35500D02*
X53272D01*
X52681Y34909D02*
Y36091D01*
X67591Y27000D02*
X68772D01*
X68181Y26410D02*
Y27591D01*
X57091Y27000D02*
X58272D01*
X57681Y26410D02*
Y27591D01*
M02*
