G04*
G04 #@! TF.GenerationSoftware,Altium Limited,Altium Designer,20.2.3 (150)*
G04*
G04 Layer_Color=128*
%FSLAX25Y25*%
%MOIN*%
G70*
G04*
G04 #@! TF.SameCoordinates,03EFDE89-4B75-4A19-A28E-214F7F73976D*
G04*
G04*
G04 #@! TF.FilePolarity,Positive*
G04*
G01*
G75*
%ADD26C,0.01000*%
%ADD28C,0.00787*%
D26*
X363205Y400699D02*
Y396700D01*
X365204Y394701D01*
X367203Y396700D01*
Y400699D01*
X369203Y397700D02*
X373201D01*
X379200Y399699D02*
X378200Y400699D01*
X376201D01*
X375201Y399699D01*
Y395701D01*
X376201Y394701D01*
X378200D01*
X379200Y395701D01*
X381199Y400699D02*
Y395701D01*
X382199Y394701D01*
X384198D01*
X385198Y395701D01*
Y400699D01*
X387197D02*
X391196D01*
X389196D01*
Y394701D01*
D28*
X330709Y-0D02*
G03*
X334646Y3937I0J3937D01*
G01*
X271654Y3937D02*
G03*
X275590Y0I3937J0D01*
G01*
X267717Y-0D02*
G03*
X271654Y3937I0J3937D01*
G01*
X208661Y3937D02*
G03*
X212598Y0I3937J0D01*
G01*
X204724Y-0D02*
G03*
X208661Y3937I0J3937D01*
G01*
X145669Y3937D02*
G03*
X149606Y0I3937J0D01*
G01*
X141732Y-0D02*
G03*
X145669Y3937I0J3937D01*
G01*
X82677Y3937D02*
G03*
X86614Y0I3937J0D01*
G01*
X78740Y-0D02*
G03*
X82677Y3937I0J3937D01*
G01*
X19685Y3937D02*
G03*
X23622Y0I3937J0D01*
G01*
X23622Y200787D02*
G03*
X19685Y196850I0J-3937D01*
G01*
X82677D02*
G03*
X78740Y200787I-3937J0D01*
G01*
X86614D02*
G03*
X82677Y196850I0J-3937D01*
G01*
X145669D02*
G03*
X141732Y200787I-3937J0D01*
G01*
X149606D02*
G03*
X145669Y196850I0J-3937D01*
G01*
X208661D02*
G03*
X204724Y200787I-3937J0D01*
G01*
X212598D02*
G03*
X208661Y196850I0J-3937D01*
G01*
X271654D02*
G03*
X267717Y200787I-3937J0D01*
G01*
X275590D02*
G03*
X271654Y196850I0J-3937D01*
G01*
X334646D02*
G03*
X330709Y200787I-3937J0D01*
G01*
X330709Y200787D02*
G03*
X334646Y204724I0J3937D01*
G01*
X271654Y204724D02*
G03*
X275590Y200787I3937J0D01*
G01*
X267717Y200787D02*
G03*
X271654Y204724I0J3937D01*
G01*
X208661Y204724D02*
G03*
X212598Y200787I3937J0D01*
G01*
X204724Y200787D02*
G03*
X208661Y204724I0J3937D01*
G01*
X145669Y204724D02*
G03*
X149606Y200787I3937J0D01*
G01*
X141732Y200787D02*
G03*
X145669Y204724I0J3937D01*
G01*
X82677Y204724D02*
G03*
X86614Y200787I3937J0D01*
G01*
X78740Y200787D02*
G03*
X82677Y204724I0J3937D01*
G01*
X19685Y204724D02*
G03*
X23622Y200787I3937J0D01*
G01*
X334646Y397638D02*
G03*
X330709Y401575I-3937J0D01*
G01*
X275590D02*
G03*
X271654Y397638I0J-3937D01*
G01*
X271654D02*
G03*
X267717Y401575I-3937J0D01*
G01*
X212598D02*
G03*
X208661Y397638I0J-3937D01*
G01*
X208661D02*
G03*
X204724Y401575I-3937J0D01*
G01*
X149606D02*
G03*
X145669Y397638I0J-3937D01*
G01*
X145669D02*
G03*
X141732Y401575I-3937J0D01*
G01*
X86614D02*
G03*
X82677Y397638I0J-3937D01*
G01*
X82677D02*
G03*
X78740Y401575I-3937J0D01*
G01*
X23622D02*
G03*
X19685Y397638I0J-3937D01*
G01*
X271654Y204724D02*
Y397638D01*
X271654Y3937D02*
Y196850D01*
X208661Y3937D02*
Y196850D01*
X208661Y204724D02*
Y397638D01*
X145669Y204724D02*
Y397644D01*
Y3937D02*
Y196857D01*
X82677Y3937D02*
Y196850D01*
X82677Y204716D02*
Y397638D01*
X334646Y3937D02*
Y397638D01*
X275590Y200787D02*
X330709D01*
X212592D02*
X267717D01*
X149606Y200787D02*
X204724D01*
X86614Y200787D02*
X141732D01*
X23622Y200787D02*
X78749D01*
X19685Y3928D02*
Y397638D01*
X334646Y397638D02*
Y401575D01*
X19685Y397638D02*
Y401575D01*
X275590Y0D02*
X330709D01*
X334646D02*
Y3937D01*
X19685Y0D02*
Y3937D01*
X334646Y401575D02*
X354331D01*
X208661Y3937D02*
X208661Y3937D01*
X275590Y401575D02*
X330709D01*
X212598D02*
X267717D01*
X149606D02*
X204724D01*
X86614D02*
X141732D01*
X23622D02*
X78740D01*
X334646Y0D02*
X354331D01*
X212598D02*
X267717D01*
X149606D02*
X204724D01*
X86614D02*
X141732D01*
X23622D02*
X78740D01*
X0D02*
X19685D01*
X0Y401575D02*
X19685D01*
X354331Y401575D02*
X354331Y0D01*
X-0Y401575D02*
X0Y0D01*
M02*
