G04*
G04 #@! TF.GenerationSoftware,Altium Limited,Altium Designer,20.2.3 (150)*
G04*
G04 Layer_Color=2752767*
%FSLAX25Y25*%
%MOIN*%
G70*
G04*
G04 #@! TF.SameCoordinates,03EFDE89-4B75-4A19-A28E-214F7F73976D*
G04*
G04*
G04 #@! TF.FilePolarity,Positive*
G04*
G01*
G75*
%ADD26C,0.01000*%
%ADD28C,0.00787*%
%ADD64C,0.00200*%
%ADD65C,0.00267*%
D26*
X363205Y400699D02*
Y396700D01*
X365204Y394701D01*
X367203Y396700D01*
Y400699D01*
X369203Y397700D02*
X373201D01*
X379200Y399699D02*
X378200Y400699D01*
X376201D01*
X375201Y399699D01*
Y395701D01*
X376201Y394701D01*
X378200D01*
X379200Y395701D01*
X381199Y400699D02*
Y395701D01*
X382199Y394701D01*
X384198D01*
X385198Y395701D01*
Y400699D01*
X387197D02*
X391196D01*
X389196D01*
Y394701D01*
D28*
X330709Y-0D02*
G03*
X334646Y3937I0J3937D01*
G01*
X271654Y3937D02*
G03*
X275590Y0I3937J0D01*
G01*
X267717Y-0D02*
G03*
X271654Y3937I0J3937D01*
G01*
X208661Y3937D02*
G03*
X212598Y0I3937J0D01*
G01*
X204724Y-0D02*
G03*
X208661Y3937I0J3937D01*
G01*
X145669Y3937D02*
G03*
X149606Y0I3937J0D01*
G01*
X141732Y-0D02*
G03*
X145669Y3937I0J3937D01*
G01*
X82677Y3937D02*
G03*
X86614Y0I3937J0D01*
G01*
X78740Y-0D02*
G03*
X82677Y3937I0J3937D01*
G01*
X19685Y3937D02*
G03*
X23622Y0I3937J0D01*
G01*
X23622Y200787D02*
G03*
X19685Y196850I0J-3937D01*
G01*
X82677D02*
G03*
X78740Y200787I-3937J0D01*
G01*
X86614D02*
G03*
X82677Y196850I0J-3937D01*
G01*
X145669D02*
G03*
X141732Y200787I-3937J0D01*
G01*
X149606D02*
G03*
X145669Y196850I0J-3937D01*
G01*
X208661D02*
G03*
X204724Y200787I-3937J0D01*
G01*
X212598D02*
G03*
X208661Y196850I0J-3937D01*
G01*
X271654D02*
G03*
X267717Y200787I-3937J0D01*
G01*
X275590D02*
G03*
X271654Y196850I0J-3937D01*
G01*
X334646D02*
G03*
X330709Y200787I-3937J0D01*
G01*
X330709Y200787D02*
G03*
X334646Y204724I0J3937D01*
G01*
X271654Y204724D02*
G03*
X275590Y200787I3937J0D01*
G01*
X267717Y200787D02*
G03*
X271654Y204724I0J3937D01*
G01*
X208661Y204724D02*
G03*
X212598Y200787I3937J0D01*
G01*
X204724Y200787D02*
G03*
X208661Y204724I0J3937D01*
G01*
X145669Y204724D02*
G03*
X149606Y200787I3937J0D01*
G01*
X141732Y200787D02*
G03*
X145669Y204724I0J3937D01*
G01*
X82677Y204724D02*
G03*
X86614Y200787I3937J0D01*
G01*
X78740Y200787D02*
G03*
X82677Y204724I0J3937D01*
G01*
X19685Y204724D02*
G03*
X23622Y200787I3937J0D01*
G01*
X334646Y397638D02*
G03*
X330709Y401575I-3937J0D01*
G01*
X275590D02*
G03*
X271654Y397638I0J-3937D01*
G01*
X271654D02*
G03*
X267717Y401575I-3937J0D01*
G01*
X212598D02*
G03*
X208661Y397638I0J-3937D01*
G01*
X208661D02*
G03*
X204724Y401575I-3937J0D01*
G01*
X149606D02*
G03*
X145669Y397638I0J-3937D01*
G01*
X145669D02*
G03*
X141732Y401575I-3937J0D01*
G01*
X86614D02*
G03*
X82677Y397638I0J-3937D01*
G01*
X82677D02*
G03*
X78740Y401575I-3937J0D01*
G01*
X23622D02*
G03*
X19685Y397638I0J-3937D01*
G01*
X271654Y204724D02*
Y397638D01*
X271654Y3937D02*
Y196850D01*
X208661Y3937D02*
Y196850D01*
X208661Y204724D02*
Y397638D01*
X145669Y204724D02*
Y397644D01*
Y3937D02*
Y196857D01*
X82677Y3937D02*
Y196850D01*
X82677Y204716D02*
Y397638D01*
X334646Y3937D02*
Y397638D01*
X275590Y200787D02*
X330709D01*
X212592D02*
X267717D01*
X149606Y200787D02*
X204724D01*
X86614Y200787D02*
X141732D01*
X23622Y200787D02*
X78749D01*
X19685Y3928D02*
Y397638D01*
X334646Y397638D02*
Y401575D01*
X19685Y397638D02*
Y401575D01*
X275590Y0D02*
X330709D01*
X334646D02*
Y3937D01*
X19685Y0D02*
Y3937D01*
X334646Y401575D02*
X354331D01*
X208661Y3937D02*
X208661Y3937D01*
X275590Y401575D02*
X330709D01*
X212598D02*
X267717D01*
X149606D02*
X204724D01*
X86614D02*
X141732D01*
X23622D02*
X78740D01*
X334646Y0D02*
X354331D01*
X212598D02*
X267717D01*
X149606D02*
X204724D01*
X86614D02*
X141732D01*
X23622D02*
X78740D01*
X0D02*
X19685D01*
X0Y401575D02*
X19685D01*
X354331Y401575D02*
X354331Y0D01*
X-0Y401575D02*
X0Y0D01*
D64*
X343688Y9042D02*
Y10643D01*
X345288D01*
Y9042D01*
X343688D01*
Y390932D02*
Y392532D01*
X345288D01*
Y390932D01*
X343688D01*
X9042D02*
Y392532D01*
X10643D01*
Y390932D01*
X9042D01*
Y9042D02*
Y10643D01*
X10643D01*
Y9042D01*
X9042D01*
X41634Y381594D02*
X40834Y383194D01*
X42434D01*
X41634Y381594D01*
X60728D02*
X59928Y383194D01*
X61528D01*
X60728Y381594D01*
X36909Y392145D02*
X37310Y392545D01*
X37710D01*
X37310Y392945D01*
X37710Y393345D01*
X37310D01*
X36909Y393745D01*
X36509Y393345D01*
X36110D01*
X36509Y392945D01*
X36110Y392545D01*
X36509D01*
X36909Y392145D01*
X65453D02*
X65853Y392545D01*
X66253D01*
X65853Y392945D01*
X66253Y393345D01*
X65853D01*
X65453Y393745D01*
X65053Y393345D01*
X64653D01*
X65053Y392945D01*
X64653Y392545D01*
X65053D01*
X65453Y392145D01*
X39381Y246775D02*
X39781Y247575D01*
X39381Y248375D01*
X40181Y247975D01*
X40981Y248375D01*
X40581Y247575D01*
X40981Y246775D01*
X40181Y247175D01*
X39381Y246775D01*
X42381Y226775D02*
X42781Y227575D01*
X42381Y228375D01*
X43181Y227975D01*
X43981Y228375D01*
X43581Y227575D01*
X43981Y226775D01*
X43181Y227175D01*
X42381Y226775D01*
X53381D02*
X53781Y227575D01*
X53381Y228375D01*
X54181Y227975D01*
X54981Y228375D01*
X54581Y227575D01*
X54981Y226775D01*
X54181Y227175D01*
X53381Y226775D01*
X78381Y206775D02*
X78781Y207575D01*
X78381Y208375D01*
X79181Y207975D01*
X79981Y208375D01*
X79581Y207575D01*
X79981Y206775D01*
X79181Y207175D01*
X78381Y206775D01*
X71381Y224775D02*
X71781Y225575D01*
X71381Y226375D01*
X72181Y225975D01*
X72981Y226375D01*
X72581Y225575D01*
X72981Y224775D01*
X72181Y225175D01*
X71381Y224775D01*
X78381D02*
X78781Y225575D01*
X78381Y226375D01*
X79181Y225975D01*
X79981Y226375D01*
X79581Y225575D01*
X79981Y224775D01*
X79181Y225175D01*
X78381Y224775D01*
X22381Y234775D02*
X22781Y235575D01*
X22381Y236375D01*
X23181Y235975D01*
X23981Y236375D01*
X23581Y235575D01*
X23981Y234775D01*
X23181Y235175D01*
X22381Y234775D01*
Y240775D02*
X22781Y241575D01*
X22381Y242375D01*
X23181Y241975D01*
X23981Y242375D01*
X23581Y241575D01*
X23981Y240775D01*
X23181Y241175D01*
X22381Y240775D01*
Y246775D02*
X22781Y247575D01*
X22381Y248375D01*
X23181Y247975D01*
X23981Y248375D01*
X23581Y247575D01*
X23981Y246775D01*
X23181Y247175D01*
X22381Y246775D01*
Y252775D02*
X22781Y253575D01*
X22381Y254375D01*
X23181Y253975D01*
X23981Y254375D01*
X23581Y253575D01*
X23981Y252775D01*
X23181Y253175D01*
X22381Y252775D01*
X78381Y234775D02*
X78781Y235575D01*
X78381Y236375D01*
X79181Y235975D01*
X79981Y236375D01*
X79581Y235575D01*
X79981Y234775D01*
X79181Y235175D01*
X78381Y234775D01*
Y240775D02*
X78781Y241575D01*
X78381Y242375D01*
X79181Y241975D01*
X79981Y242375D01*
X79581Y241575D01*
X79981Y240775D01*
X79181Y241175D01*
X78381Y240775D01*
Y246775D02*
X78781Y247575D01*
X78381Y248375D01*
X79181Y247975D01*
X79981Y248375D01*
X79581Y247575D01*
X79981Y246775D01*
X79181Y247175D01*
X78381Y246775D01*
Y252775D02*
X78781Y253575D01*
X78381Y254375D01*
X79181Y253975D01*
X79981Y254375D01*
X79581Y253575D01*
X79981Y252775D01*
X79181Y253175D01*
X78381Y252775D01*
X32381Y264775D02*
X32781Y265575D01*
X32381Y266375D01*
X33181Y265975D01*
X33981Y266375D01*
X33581Y265575D01*
X33981Y264775D01*
X33181Y265175D01*
X32381Y264775D01*
X38381D02*
X38781Y265575D01*
X38381Y266375D01*
X39181Y265975D01*
X39981Y266375D01*
X39581Y265575D01*
X39981Y264775D01*
X39181Y265175D01*
X38381Y264775D01*
X44381D02*
X44781Y265575D01*
X44381Y266375D01*
X45181Y265975D01*
X45981Y266375D01*
X45581Y265575D01*
X45981Y264775D01*
X45181Y265175D01*
X44381Y264775D01*
X50381D02*
X50781Y265575D01*
X50381Y266375D01*
X51181Y265975D01*
X51981Y266375D01*
X51581Y265575D01*
X51981Y264775D01*
X51181Y265175D01*
X50381Y264775D01*
X56381D02*
X56781Y265575D01*
X56381Y266375D01*
X57181Y265975D01*
X57981Y266375D01*
X57581Y265575D01*
X57981Y264775D01*
X57181Y265175D01*
X56381Y264775D01*
X62381D02*
X62781Y265575D01*
X62381Y266375D01*
X63181Y265975D01*
X63981Y266375D01*
X63581Y265575D01*
X63981Y264775D01*
X63181Y265175D01*
X62381Y264775D01*
X68381D02*
X68781Y265575D01*
X68381Y266375D01*
X69181Y265975D01*
X69981Y266375D01*
X69581Y265575D01*
X69981Y264775D01*
X69181Y265175D01*
X68381Y264775D01*
X22381Y320775D02*
X22781Y321575D01*
X22381Y322375D01*
X23181Y321975D01*
X23981Y322375D01*
X23581Y321575D01*
X23981Y320775D01*
X23181Y321175D01*
X22381Y320775D01*
Y314775D02*
X22781Y315575D01*
X22381Y316375D01*
X23181Y315975D01*
X23981Y316375D01*
X23581Y315575D01*
X23981Y314775D01*
X23181Y315175D01*
X22381Y314775D01*
Y308775D02*
X22781Y309575D01*
X22381Y310375D01*
X23181Y309975D01*
X23981Y310375D01*
X23581Y309575D01*
X23981Y308775D01*
X23181Y309175D01*
X22381Y308775D01*
Y290775D02*
X22781Y291575D01*
X22381Y292375D01*
X23181Y291975D01*
X23981Y292375D01*
X23581Y291575D01*
X23981Y290775D01*
X23181Y291175D01*
X22381Y290775D01*
Y296775D02*
X22781Y297575D01*
X22381Y298375D01*
X23181Y297975D01*
X23981Y298375D01*
X23581Y297575D01*
X23981Y296775D01*
X23181Y297175D01*
X22381Y296775D01*
X32381Y283775D02*
X32781Y284575D01*
X32381Y285375D01*
X33181Y284975D01*
X33981Y285375D01*
X33581Y284575D01*
X33981Y283775D01*
X33181Y284175D01*
X32381Y283775D01*
X38381D02*
X38781Y284575D01*
X38381Y285375D01*
X39181Y284975D01*
X39981Y285375D01*
X39581Y284575D01*
X39981Y283775D01*
X39181Y284175D01*
X38381Y283775D01*
X44381D02*
X44781Y284575D01*
X44381Y285375D01*
X45181Y284975D01*
X45981Y285375D01*
X45581Y284575D01*
X45981Y283775D01*
X45181Y284175D01*
X44381Y283775D01*
X24141Y333515D02*
X24541Y334315D01*
X24141Y335115D01*
X24941Y334715D01*
X25741Y335115D01*
X25341Y334315D01*
X25741Y333515D01*
X24941Y333915D01*
X24141Y333515D01*
X35781Y311175D02*
Y310775D01*
X36581D01*
Y311175D01*
X36981D01*
Y311975D01*
X36581D01*
Y312375D01*
X35781D01*
Y311975D01*
X35381D01*
Y311175D01*
X35781D01*
X51781Y304175D02*
Y303775D01*
X52581D01*
Y304175D01*
X52981D01*
Y304975D01*
X52581D01*
Y305375D01*
X51781D01*
Y304975D01*
X51381D01*
Y304175D01*
X51781D01*
X59781Y302175D02*
Y301775D01*
X60581D01*
Y302175D01*
X60981D01*
Y302975D01*
X60581D01*
Y303375D01*
X59781D01*
Y302975D01*
X59381D01*
Y302175D01*
X59781D01*
X54781Y297175D02*
Y296775D01*
X55581D01*
Y297175D01*
X55981D01*
Y297975D01*
X55581D01*
Y298375D01*
X54781D01*
Y297975D01*
X54381D01*
Y297175D01*
X54781D01*
X52881Y373775D02*
X53281Y374575D01*
X52881Y375375D01*
X53681Y374975D01*
X54481Y375375D01*
X54081Y374575D01*
X54481Y373775D01*
X53681Y374175D01*
X52881Y373775D01*
X26781Y357175D02*
Y356775D01*
X27581D01*
Y357175D01*
X27981D01*
Y357975D01*
X27581D01*
Y358375D01*
X26781D01*
Y357975D01*
X26381D01*
Y357175D01*
X26781D01*
X65781Y318175D02*
Y317775D01*
X66581D01*
Y318175D01*
X66981D01*
Y318975D01*
X66581D01*
Y319375D01*
X65781D01*
Y318975D01*
X65381D01*
Y318175D01*
X65781D01*
Y351675D02*
Y351275D01*
X66581D01*
Y351675D01*
X66981D01*
Y352475D01*
X66581D01*
Y352875D01*
X65781D01*
Y352475D01*
X65381D01*
Y351675D01*
X65781D01*
X44381Y333275D02*
X44781Y334075D01*
X44381Y334875D01*
X45181Y334475D01*
X45981Y334875D01*
X45581Y334075D01*
X45981Y333275D01*
X45181Y333675D01*
X44381Y333275D01*
X41381Y329775D02*
X41781Y330575D01*
X41381Y331375D01*
X42181Y330975D01*
X42981Y331375D01*
X42581Y330575D01*
X42981Y329775D01*
X42181Y330175D01*
X41381Y329775D01*
X48381Y373775D02*
X48781Y374575D01*
X48381Y375375D01*
X49181Y374975D01*
X49981Y375375D01*
X49581Y374575D01*
X49981Y373775D01*
X49181Y374175D01*
X48381Y373775D01*
X51281Y361935D02*
Y361535D01*
X52081D01*
Y361935D01*
X52481D01*
Y362735D01*
X52081D01*
Y363135D01*
X51281D01*
Y362735D01*
X50881D01*
Y361935D01*
X51281D01*
X27881Y332775D02*
X28281Y333575D01*
X27881Y334375D01*
X28681Y333975D01*
X29481Y334375D01*
X29081Y333575D01*
X29481Y332775D01*
X28681Y333175D01*
X27881Y332775D01*
X30881Y320275D02*
X31281Y321075D01*
X30881Y321875D01*
X31681Y321475D01*
X32481Y321875D01*
X32081Y321075D01*
X32481Y320275D01*
X31681Y320675D01*
X30881Y320275D01*
X35381Y350775D02*
X35781Y351575D01*
X35381Y352375D01*
X36181Y351975D01*
X36981Y352375D01*
X36581Y351575D01*
X36981Y350775D01*
X36181Y351175D01*
X35381Y350775D01*
X31381D02*
X31781Y351575D01*
X31381Y352375D01*
X32181Y351975D01*
X32981Y352375D01*
X32581Y351575D01*
X32981Y350775D01*
X32181Y351175D01*
X31381Y350775D01*
X46881Y343775D02*
X47281Y344575D01*
X46881Y345375D01*
X47681Y344975D01*
X48481Y345375D01*
X48081Y344575D01*
X48481Y343775D01*
X47681Y344175D01*
X46881Y343775D01*
Y337775D02*
X47281Y338575D01*
X46881Y339375D01*
X47681Y338975D01*
X48481Y339375D01*
X48081Y338575D01*
X48481Y337775D01*
X47681Y338175D01*
X46881Y337775D01*
X57881Y343775D02*
X58281Y344575D01*
X57881Y345375D01*
X58681Y344975D01*
X59481Y345375D01*
X59081Y344575D01*
X59481Y343775D01*
X58681Y344175D01*
X57881Y343775D01*
Y337775D02*
X58281Y338575D01*
X57881Y339375D01*
X58681Y338975D01*
X59481Y339375D01*
X59081Y338575D01*
X59481Y337775D01*
X58681Y338175D01*
X57881Y337775D01*
Y331775D02*
X58281Y332575D01*
X57881Y333375D01*
X58681Y332975D01*
X59481Y333375D01*
X59081Y332575D01*
X59481Y331775D01*
X58681Y332175D01*
X57881Y331775D01*
X62381Y283775D02*
X62781Y284575D01*
X62381Y285375D01*
X63181Y284975D01*
X63981Y285375D01*
X63581Y284575D01*
X63981Y283775D01*
X63181Y284175D01*
X62381Y283775D01*
X68381D02*
X68781Y284575D01*
X68381Y285375D01*
X69181Y284975D01*
X69981Y285375D01*
X69581Y284575D01*
X69981Y283775D01*
X69181Y284175D01*
X68381Y283775D01*
X78381Y290775D02*
X78781Y291575D01*
X78381Y292375D01*
X79181Y291975D01*
X79981Y292375D01*
X79581Y291575D01*
X79981Y290775D01*
X79181Y291175D01*
X78381Y290775D01*
X22381Y302775D02*
X22781Y303575D01*
X22381Y304375D01*
X23181Y303975D01*
X23981Y304375D01*
X23581Y303575D01*
X23981Y302775D01*
X23181Y303175D01*
X22381Y302775D01*
X78381Y296775D02*
X78781Y297575D01*
X78381Y298375D01*
X79181Y297975D01*
X79981Y298375D01*
X79581Y297575D01*
X79981Y296775D01*
X79181Y297175D01*
X78381Y296775D01*
Y302775D02*
X78781Y303575D01*
X78381Y304375D01*
X79181Y303975D01*
X79981Y304375D01*
X79581Y303575D01*
X79981Y302775D01*
X79181Y303175D01*
X78381Y302775D01*
Y308775D02*
X78781Y309575D01*
X78381Y310375D01*
X79181Y309975D01*
X79981Y310375D01*
X79581Y309575D01*
X79981Y308775D01*
X79181Y309175D01*
X78381Y308775D01*
Y314775D02*
X78781Y315575D01*
X78381Y316375D01*
X79181Y315975D01*
X79981Y316375D01*
X79581Y315575D01*
X79981Y314775D01*
X79181Y315175D01*
X78381Y314775D01*
Y320775D02*
X78781Y321575D01*
X78381Y322375D01*
X79181Y321975D01*
X79981Y322375D01*
X79581Y321575D01*
X79981Y320775D01*
X79181Y321175D01*
X78381Y320775D01*
Y326775D02*
X78781Y327575D01*
X78381Y328375D01*
X79181Y327975D01*
X79981Y328375D01*
X79581Y327575D01*
X79981Y326775D01*
X79181Y327175D01*
X78381Y326775D01*
X50381Y283775D02*
X50781Y284575D01*
X50381Y285375D01*
X51181Y284975D01*
X51981Y285375D01*
X51581Y284575D01*
X51981Y283775D01*
X51181Y284175D01*
X50381Y283775D01*
X78381Y332775D02*
X78781Y333575D01*
X78381Y334375D01*
X79181Y333975D01*
X79981Y334375D01*
X79581Y333575D01*
X79981Y332775D01*
X79181Y333175D01*
X78381Y332775D01*
Y338775D02*
X78781Y339575D01*
X78381Y340375D01*
X79181Y339975D01*
X79981Y340375D01*
X79581Y339575D01*
X79981Y338775D01*
X79181Y339175D01*
X78381Y338775D01*
Y344775D02*
X78781Y345575D01*
X78381Y346375D01*
X79181Y345975D01*
X79981Y346375D01*
X79581Y345575D01*
X79981Y344775D01*
X79181Y345175D01*
X78381Y344775D01*
Y350775D02*
X78781Y351575D01*
X78381Y352375D01*
X79181Y351975D01*
X79981Y352375D01*
X79581Y351575D01*
X79981Y350775D01*
X79181Y351175D01*
X78381Y350775D01*
X56381Y283775D02*
X56781Y284575D01*
X56381Y285375D01*
X57181Y284975D01*
X57981Y285375D01*
X57581Y284575D01*
X57981Y283775D01*
X57181Y284175D01*
X56381Y283775D01*
X78381Y356775D02*
X78781Y357575D01*
X78381Y358375D01*
X79181Y357975D01*
X79981Y358375D01*
X79581Y357575D01*
X79981Y356775D01*
X79181Y357175D01*
X78381Y356775D01*
Y362775D02*
X78781Y363575D01*
X78381Y364375D01*
X79181Y363975D01*
X79981Y364375D01*
X79581Y363575D01*
X79981Y362775D01*
X79181Y363175D01*
X78381Y362775D01*
Y368775D02*
X78781Y369575D01*
X78381Y370375D01*
X79181Y369975D01*
X79981Y370375D01*
X79581Y369575D01*
X79981Y368775D01*
X79181Y369175D01*
X78381Y368775D01*
Y374775D02*
X78781Y375575D01*
X78381Y376375D01*
X79181Y375975D01*
X79981Y376375D01*
X79581Y375575D01*
X79981Y374775D01*
X79181Y375175D01*
X78381Y374775D01*
Y380775D02*
X78781Y381575D01*
X78381Y382375D01*
X79181Y381975D01*
X79981Y382375D01*
X79581Y381575D01*
X79981Y380775D01*
X79181Y381175D01*
X78381Y380775D01*
X48881Y365275D02*
X49281Y366075D01*
X48881Y366875D01*
X49681Y366475D01*
X50481Y366875D01*
X50081Y366075D01*
X50481Y365275D01*
X49681Y365675D01*
X48881Y365275D01*
X33381Y373775D02*
X33781Y374575D01*
X33381Y375375D01*
X34181Y374975D01*
X34981Y375375D01*
X34581Y374575D01*
X34981Y373775D01*
X34181Y374175D01*
X33381Y373775D01*
X43881D02*
X44281Y374575D01*
X43881Y375375D01*
X44681Y374975D01*
X45481Y375375D01*
X45081Y374575D01*
X45481Y373775D01*
X44681Y374175D01*
X43881Y373775D01*
X104626Y381594D02*
X103826Y383194D01*
X105426D01*
X104626Y381594D01*
X123721D02*
X122921Y383194D01*
X124521D01*
X123721Y381594D01*
X99902Y392145D02*
X100302Y392545D01*
X100702D01*
X100302Y392945D01*
X100702Y393345D01*
X100302D01*
X99902Y393745D01*
X99502Y393345D01*
X99102D01*
X99502Y392945D01*
X99102Y392545D01*
X99502D01*
X99902Y392145D01*
X128445D02*
X128845Y392545D01*
X129245D01*
X128845Y392945D01*
X129245Y393345D01*
X128845D01*
X128445Y393745D01*
X128045Y393345D01*
X127645D01*
X128045Y392945D01*
X127645Y392545D01*
X128045D01*
X128445Y392145D01*
X102373Y246775D02*
X102773Y247575D01*
X102373Y248375D01*
X103173Y247975D01*
X103973Y248375D01*
X103573Y247575D01*
X103973Y246775D01*
X103173Y247175D01*
X102373Y246775D01*
X105373Y226775D02*
X105773Y227575D01*
X105373Y228375D01*
X106173Y227975D01*
X106973Y228375D01*
X106573Y227575D01*
X106973Y226775D01*
X106173Y227175D01*
X105373Y226775D01*
X116373D02*
X116773Y227575D01*
X116373Y228375D01*
X117173Y227975D01*
X117973Y228375D01*
X117573Y227575D01*
X117973Y226775D01*
X117173Y227175D01*
X116373Y226775D01*
X141373Y206775D02*
X141773Y207575D01*
X141373Y208375D01*
X142173Y207975D01*
X142973Y208375D01*
X142573Y207575D01*
X142973Y206775D01*
X142173Y207175D01*
X141373Y206775D01*
X134373Y224775D02*
X134773Y225575D01*
X134373Y226375D01*
X135173Y225975D01*
X135973Y226375D01*
X135573Y225575D01*
X135973Y224775D01*
X135173Y225175D01*
X134373Y224775D01*
X141373D02*
X141773Y225575D01*
X141373Y226375D01*
X142173Y225975D01*
X142973Y226375D01*
X142573Y225575D01*
X142973Y224775D01*
X142173Y225175D01*
X141373Y224775D01*
X85373Y234775D02*
X85773Y235575D01*
X85373Y236375D01*
X86173Y235975D01*
X86973Y236375D01*
X86573Y235575D01*
X86973Y234775D01*
X86173Y235175D01*
X85373Y234775D01*
Y240775D02*
X85773Y241575D01*
X85373Y242375D01*
X86173Y241975D01*
X86973Y242375D01*
X86573Y241575D01*
X86973Y240775D01*
X86173Y241175D01*
X85373Y240775D01*
Y246775D02*
X85773Y247575D01*
X85373Y248375D01*
X86173Y247975D01*
X86973Y248375D01*
X86573Y247575D01*
X86973Y246775D01*
X86173Y247175D01*
X85373Y246775D01*
Y252775D02*
X85773Y253575D01*
X85373Y254375D01*
X86173Y253975D01*
X86973Y254375D01*
X86573Y253575D01*
X86973Y252775D01*
X86173Y253175D01*
X85373Y252775D01*
X141373Y234775D02*
X141773Y235575D01*
X141373Y236375D01*
X142173Y235975D01*
X142973Y236375D01*
X142573Y235575D01*
X142973Y234775D01*
X142173Y235175D01*
X141373Y234775D01*
Y240775D02*
X141773Y241575D01*
X141373Y242375D01*
X142173Y241975D01*
X142973Y242375D01*
X142573Y241575D01*
X142973Y240775D01*
X142173Y241175D01*
X141373Y240775D01*
Y246775D02*
X141773Y247575D01*
X141373Y248375D01*
X142173Y247975D01*
X142973Y248375D01*
X142573Y247575D01*
X142973Y246775D01*
X142173Y247175D01*
X141373Y246775D01*
Y252775D02*
X141773Y253575D01*
X141373Y254375D01*
X142173Y253975D01*
X142973Y254375D01*
X142573Y253575D01*
X142973Y252775D01*
X142173Y253175D01*
X141373Y252775D01*
X95373Y264775D02*
X95773Y265575D01*
X95373Y266375D01*
X96173Y265975D01*
X96973Y266375D01*
X96573Y265575D01*
X96973Y264775D01*
X96173Y265175D01*
X95373Y264775D01*
X101373D02*
X101773Y265575D01*
X101373Y266375D01*
X102173Y265975D01*
X102973Y266375D01*
X102573Y265575D01*
X102973Y264775D01*
X102173Y265175D01*
X101373Y264775D01*
X107373D02*
X107773Y265575D01*
X107373Y266375D01*
X108173Y265975D01*
X108973Y266375D01*
X108573Y265575D01*
X108973Y264775D01*
X108173Y265175D01*
X107373Y264775D01*
X113373D02*
X113773Y265575D01*
X113373Y266375D01*
X114173Y265975D01*
X114973Y266375D01*
X114573Y265575D01*
X114973Y264775D01*
X114173Y265175D01*
X113373Y264775D01*
X119373D02*
X119773Y265575D01*
X119373Y266375D01*
X120173Y265975D01*
X120973Y266375D01*
X120573Y265575D01*
X120973Y264775D01*
X120173Y265175D01*
X119373Y264775D01*
X125373D02*
X125773Y265575D01*
X125373Y266375D01*
X126173Y265975D01*
X126973Y266375D01*
X126573Y265575D01*
X126973Y264775D01*
X126173Y265175D01*
X125373Y264775D01*
X131373D02*
X131773Y265575D01*
X131373Y266375D01*
X132173Y265975D01*
X132973Y266375D01*
X132573Y265575D01*
X132973Y264775D01*
X132173Y265175D01*
X131373Y264775D01*
X85373Y320775D02*
X85773Y321575D01*
X85373Y322375D01*
X86173Y321975D01*
X86973Y322375D01*
X86573Y321575D01*
X86973Y320775D01*
X86173Y321175D01*
X85373Y320775D01*
Y314775D02*
X85773Y315575D01*
X85373Y316375D01*
X86173Y315975D01*
X86973Y316375D01*
X86573Y315575D01*
X86973Y314775D01*
X86173Y315175D01*
X85373Y314775D01*
Y308775D02*
X85773Y309575D01*
X85373Y310375D01*
X86173Y309975D01*
X86973Y310375D01*
X86573Y309575D01*
X86973Y308775D01*
X86173Y309175D01*
X85373Y308775D01*
Y290775D02*
X85773Y291575D01*
X85373Y292375D01*
X86173Y291975D01*
X86973Y292375D01*
X86573Y291575D01*
X86973Y290775D01*
X86173Y291175D01*
X85373Y290775D01*
Y296775D02*
X85773Y297575D01*
X85373Y298375D01*
X86173Y297975D01*
X86973Y298375D01*
X86573Y297575D01*
X86973Y296775D01*
X86173Y297175D01*
X85373Y296775D01*
X95373Y283775D02*
X95773Y284575D01*
X95373Y285375D01*
X96173Y284975D01*
X96973Y285375D01*
X96573Y284575D01*
X96973Y283775D01*
X96173Y284175D01*
X95373Y283775D01*
X101373D02*
X101773Y284575D01*
X101373Y285375D01*
X102173Y284975D01*
X102973Y285375D01*
X102573Y284575D01*
X102973Y283775D01*
X102173Y284175D01*
X101373Y283775D01*
X107373D02*
X107773Y284575D01*
X107373Y285375D01*
X108173Y284975D01*
X108973Y285375D01*
X108573Y284575D01*
X108973Y283775D01*
X108173Y284175D01*
X107373Y283775D01*
X87133Y333515D02*
X87533Y334315D01*
X87133Y335115D01*
X87933Y334715D01*
X88733Y335115D01*
X88333Y334315D01*
X88733Y333515D01*
X87933Y333915D01*
X87133Y333515D01*
X98773Y311175D02*
Y310775D01*
X99573D01*
Y311175D01*
X99973D01*
Y311975D01*
X99573D01*
Y312375D01*
X98773D01*
Y311975D01*
X98373D01*
Y311175D01*
X98773D01*
X114773Y304175D02*
Y303775D01*
X115573D01*
Y304175D01*
X115973D01*
Y304975D01*
X115573D01*
Y305375D01*
X114773D01*
Y304975D01*
X114373D01*
Y304175D01*
X114773D01*
X122773Y302175D02*
Y301775D01*
X123573D01*
Y302175D01*
X123973D01*
Y302975D01*
X123573D01*
Y303375D01*
X122773D01*
Y302975D01*
X122373D01*
Y302175D01*
X122773D01*
X117773Y297175D02*
Y296775D01*
X118573D01*
Y297175D01*
X118973D01*
Y297975D01*
X118573D01*
Y298375D01*
X117773D01*
Y297975D01*
X117373D01*
Y297175D01*
X117773D01*
X115873Y373775D02*
X116273Y374575D01*
X115873Y375375D01*
X116673Y374975D01*
X117473Y375375D01*
X117073Y374575D01*
X117473Y373775D01*
X116673Y374175D01*
X115873Y373775D01*
X89773Y357175D02*
Y356775D01*
X90573D01*
Y357175D01*
X90973D01*
Y357975D01*
X90573D01*
Y358375D01*
X89773D01*
Y357975D01*
X89373D01*
Y357175D01*
X89773D01*
X128773Y318175D02*
Y317775D01*
X129573D01*
Y318175D01*
X129973D01*
Y318975D01*
X129573D01*
Y319375D01*
X128773D01*
Y318975D01*
X128373D01*
Y318175D01*
X128773D01*
Y351675D02*
Y351275D01*
X129573D01*
Y351675D01*
X129973D01*
Y352475D01*
X129573D01*
Y352875D01*
X128773D01*
Y352475D01*
X128373D01*
Y351675D01*
X128773D01*
X107373Y333275D02*
X107773Y334075D01*
X107373Y334875D01*
X108173Y334475D01*
X108973Y334875D01*
X108573Y334075D01*
X108973Y333275D01*
X108173Y333675D01*
X107373Y333275D01*
X104373Y329775D02*
X104773Y330575D01*
X104373Y331375D01*
X105173Y330975D01*
X105973Y331375D01*
X105573Y330575D01*
X105973Y329775D01*
X105173Y330175D01*
X104373Y329775D01*
X111373Y373775D02*
X111773Y374575D01*
X111373Y375375D01*
X112173Y374975D01*
X112973Y375375D01*
X112573Y374575D01*
X112973Y373775D01*
X112173Y374175D01*
X111373Y373775D01*
X114273Y361935D02*
Y361535D01*
X115073D01*
Y361935D01*
X115473D01*
Y362735D01*
X115073D01*
Y363135D01*
X114273D01*
Y362735D01*
X113873D01*
Y361935D01*
X114273D01*
X90873Y332775D02*
X91273Y333575D01*
X90873Y334375D01*
X91673Y333975D01*
X92473Y334375D01*
X92073Y333575D01*
X92473Y332775D01*
X91673Y333175D01*
X90873Y332775D01*
X93873Y320275D02*
X94273Y321075D01*
X93873Y321875D01*
X94673Y321475D01*
X95473Y321875D01*
X95073Y321075D01*
X95473Y320275D01*
X94673Y320675D01*
X93873Y320275D01*
X98373Y350775D02*
X98773Y351575D01*
X98373Y352375D01*
X99173Y351975D01*
X99973Y352375D01*
X99573Y351575D01*
X99973Y350775D01*
X99173Y351175D01*
X98373Y350775D01*
X94373D02*
X94773Y351575D01*
X94373Y352375D01*
X95173Y351975D01*
X95973Y352375D01*
X95573Y351575D01*
X95973Y350775D01*
X95173Y351175D01*
X94373Y350775D01*
X109873Y343775D02*
X110273Y344575D01*
X109873Y345375D01*
X110673Y344975D01*
X111473Y345375D01*
X111073Y344575D01*
X111473Y343775D01*
X110673Y344175D01*
X109873Y343775D01*
Y337775D02*
X110273Y338575D01*
X109873Y339375D01*
X110673Y338975D01*
X111473Y339375D01*
X111073Y338575D01*
X111473Y337775D01*
X110673Y338175D01*
X109873Y337775D01*
X120873Y343775D02*
X121273Y344575D01*
X120873Y345375D01*
X121673Y344975D01*
X122473Y345375D01*
X122073Y344575D01*
X122473Y343775D01*
X121673Y344175D01*
X120873Y343775D01*
Y337775D02*
X121273Y338575D01*
X120873Y339375D01*
X121673Y338975D01*
X122473Y339375D01*
X122073Y338575D01*
X122473Y337775D01*
X121673Y338175D01*
X120873Y337775D01*
Y331775D02*
X121273Y332575D01*
X120873Y333375D01*
X121673Y332975D01*
X122473Y333375D01*
X122073Y332575D01*
X122473Y331775D01*
X121673Y332175D01*
X120873Y331775D01*
X125373Y283775D02*
X125773Y284575D01*
X125373Y285375D01*
X126173Y284975D01*
X126973Y285375D01*
X126573Y284575D01*
X126973Y283775D01*
X126173Y284175D01*
X125373Y283775D01*
X131373D02*
X131773Y284575D01*
X131373Y285375D01*
X132173Y284975D01*
X132973Y285375D01*
X132573Y284575D01*
X132973Y283775D01*
X132173Y284175D01*
X131373Y283775D01*
X141373Y290775D02*
X141773Y291575D01*
X141373Y292375D01*
X142173Y291975D01*
X142973Y292375D01*
X142573Y291575D01*
X142973Y290775D01*
X142173Y291175D01*
X141373Y290775D01*
X85373Y302775D02*
X85773Y303575D01*
X85373Y304375D01*
X86173Y303975D01*
X86973Y304375D01*
X86573Y303575D01*
X86973Y302775D01*
X86173Y303175D01*
X85373Y302775D01*
X141373Y296775D02*
X141773Y297575D01*
X141373Y298375D01*
X142173Y297975D01*
X142973Y298375D01*
X142573Y297575D01*
X142973Y296775D01*
X142173Y297175D01*
X141373Y296775D01*
Y302775D02*
X141773Y303575D01*
X141373Y304375D01*
X142173Y303975D01*
X142973Y304375D01*
X142573Y303575D01*
X142973Y302775D01*
X142173Y303175D01*
X141373Y302775D01*
Y308775D02*
X141773Y309575D01*
X141373Y310375D01*
X142173Y309975D01*
X142973Y310375D01*
X142573Y309575D01*
X142973Y308775D01*
X142173Y309175D01*
X141373Y308775D01*
Y314775D02*
X141773Y315575D01*
X141373Y316375D01*
X142173Y315975D01*
X142973Y316375D01*
X142573Y315575D01*
X142973Y314775D01*
X142173Y315175D01*
X141373Y314775D01*
Y320775D02*
X141773Y321575D01*
X141373Y322375D01*
X142173Y321975D01*
X142973Y322375D01*
X142573Y321575D01*
X142973Y320775D01*
X142173Y321175D01*
X141373Y320775D01*
Y326775D02*
X141773Y327575D01*
X141373Y328375D01*
X142173Y327975D01*
X142973Y328375D01*
X142573Y327575D01*
X142973Y326775D01*
X142173Y327175D01*
X141373Y326775D01*
X113373Y283775D02*
X113773Y284575D01*
X113373Y285375D01*
X114173Y284975D01*
X114973Y285375D01*
X114573Y284575D01*
X114973Y283775D01*
X114173Y284175D01*
X113373Y283775D01*
X141373Y332775D02*
X141773Y333575D01*
X141373Y334375D01*
X142173Y333975D01*
X142973Y334375D01*
X142573Y333575D01*
X142973Y332775D01*
X142173Y333175D01*
X141373Y332775D01*
Y338775D02*
X141773Y339575D01*
X141373Y340375D01*
X142173Y339975D01*
X142973Y340375D01*
X142573Y339575D01*
X142973Y338775D01*
X142173Y339175D01*
X141373Y338775D01*
Y344775D02*
X141773Y345575D01*
X141373Y346375D01*
X142173Y345975D01*
X142973Y346375D01*
X142573Y345575D01*
X142973Y344775D01*
X142173Y345175D01*
X141373Y344775D01*
Y350775D02*
X141773Y351575D01*
X141373Y352375D01*
X142173Y351975D01*
X142973Y352375D01*
X142573Y351575D01*
X142973Y350775D01*
X142173Y351175D01*
X141373Y350775D01*
X119373Y283775D02*
X119773Y284575D01*
X119373Y285375D01*
X120173Y284975D01*
X120973Y285375D01*
X120573Y284575D01*
X120973Y283775D01*
X120173Y284175D01*
X119373Y283775D01*
X141373Y356775D02*
X141773Y357575D01*
X141373Y358375D01*
X142173Y357975D01*
X142973Y358375D01*
X142573Y357575D01*
X142973Y356775D01*
X142173Y357175D01*
X141373Y356775D01*
Y362775D02*
X141773Y363575D01*
X141373Y364375D01*
X142173Y363975D01*
X142973Y364375D01*
X142573Y363575D01*
X142973Y362775D01*
X142173Y363175D01*
X141373Y362775D01*
Y368775D02*
X141773Y369575D01*
X141373Y370375D01*
X142173Y369975D01*
X142973Y370375D01*
X142573Y369575D01*
X142973Y368775D01*
X142173Y369175D01*
X141373Y368775D01*
Y374775D02*
X141773Y375575D01*
X141373Y376375D01*
X142173Y375975D01*
X142973Y376375D01*
X142573Y375575D01*
X142973Y374775D01*
X142173Y375175D01*
X141373Y374775D01*
Y380775D02*
X141773Y381575D01*
X141373Y382375D01*
X142173Y381975D01*
X142973Y382375D01*
X142573Y381575D01*
X142973Y380775D01*
X142173Y381175D01*
X141373Y380775D01*
X111873Y365275D02*
X112273Y366075D01*
X111873Y366875D01*
X112673Y366475D01*
X113473Y366875D01*
X113073Y366075D01*
X113473Y365275D01*
X112673Y365675D01*
X111873Y365275D01*
X96373Y373775D02*
X96773Y374575D01*
X96373Y375375D01*
X97173Y374975D01*
X97973Y375375D01*
X97573Y374575D01*
X97973Y373775D01*
X97173Y374175D01*
X96373Y373775D01*
X106873D02*
X107273Y374575D01*
X106873Y375375D01*
X107673Y374975D01*
X108473Y375375D01*
X108073Y374575D01*
X108473Y373775D01*
X107673Y374175D01*
X106873Y373775D01*
X167618Y381594D02*
X166818Y383194D01*
X168418D01*
X167618Y381594D01*
X186713D02*
X185913Y383194D01*
X187513D01*
X186713Y381594D01*
X162894Y392145D02*
X163294Y392545D01*
X163694D01*
X163294Y392945D01*
X163694Y393345D01*
X163294D01*
X162894Y393745D01*
X162494Y393345D01*
X162094D01*
X162494Y392945D01*
X162094Y392545D01*
X162494D01*
X162894Y392145D01*
X191437D02*
X191837Y392545D01*
X192237D01*
X191837Y392945D01*
X192237Y393345D01*
X191837D01*
X191437Y393745D01*
X191037Y393345D01*
X190637D01*
X191037Y392945D01*
X190637Y392545D01*
X191037D01*
X191437Y392145D01*
X165365Y246775D02*
X165765Y247575D01*
X165365Y248375D01*
X166165Y247975D01*
X166965Y248375D01*
X166565Y247575D01*
X166965Y246775D01*
X166165Y247175D01*
X165365Y246775D01*
X168365Y226775D02*
X168765Y227575D01*
X168365Y228375D01*
X169165Y227975D01*
X169965Y228375D01*
X169565Y227575D01*
X169965Y226775D01*
X169165Y227175D01*
X168365Y226775D01*
X179365D02*
X179765Y227575D01*
X179365Y228375D01*
X180165Y227975D01*
X180965Y228375D01*
X180565Y227575D01*
X180965Y226775D01*
X180165Y227175D01*
X179365Y226775D01*
X204365Y206775D02*
X204765Y207575D01*
X204365Y208375D01*
X205165Y207975D01*
X205965Y208375D01*
X205565Y207575D01*
X205965Y206775D01*
X205165Y207175D01*
X204365Y206775D01*
X197365Y224775D02*
X197765Y225575D01*
X197365Y226375D01*
X198165Y225975D01*
X198965Y226375D01*
X198565Y225575D01*
X198965Y224775D01*
X198165Y225175D01*
X197365Y224775D01*
X204365D02*
X204765Y225575D01*
X204365Y226375D01*
X205165Y225975D01*
X205965Y226375D01*
X205565Y225575D01*
X205965Y224775D01*
X205165Y225175D01*
X204365Y224775D01*
X148365Y234775D02*
X148765Y235575D01*
X148365Y236375D01*
X149165Y235975D01*
X149965Y236375D01*
X149565Y235575D01*
X149965Y234775D01*
X149165Y235175D01*
X148365Y234775D01*
Y240775D02*
X148765Y241575D01*
X148365Y242375D01*
X149165Y241975D01*
X149965Y242375D01*
X149565Y241575D01*
X149965Y240775D01*
X149165Y241175D01*
X148365Y240775D01*
Y246775D02*
X148765Y247575D01*
X148365Y248375D01*
X149165Y247975D01*
X149965Y248375D01*
X149565Y247575D01*
X149965Y246775D01*
X149165Y247175D01*
X148365Y246775D01*
Y252775D02*
X148765Y253575D01*
X148365Y254375D01*
X149165Y253975D01*
X149965Y254375D01*
X149565Y253575D01*
X149965Y252775D01*
X149165Y253175D01*
X148365Y252775D01*
X204365Y234775D02*
X204765Y235575D01*
X204365Y236375D01*
X205165Y235975D01*
X205965Y236375D01*
X205565Y235575D01*
X205965Y234775D01*
X205165Y235175D01*
X204365Y234775D01*
Y240775D02*
X204765Y241575D01*
X204365Y242375D01*
X205165Y241975D01*
X205965Y242375D01*
X205565Y241575D01*
X205965Y240775D01*
X205165Y241175D01*
X204365Y240775D01*
Y246775D02*
X204765Y247575D01*
X204365Y248375D01*
X205165Y247975D01*
X205965Y248375D01*
X205565Y247575D01*
X205965Y246775D01*
X205165Y247175D01*
X204365Y246775D01*
Y252775D02*
X204765Y253575D01*
X204365Y254375D01*
X205165Y253975D01*
X205965Y254375D01*
X205565Y253575D01*
X205965Y252775D01*
X205165Y253175D01*
X204365Y252775D01*
X158365Y264775D02*
X158765Y265575D01*
X158365Y266375D01*
X159165Y265975D01*
X159965Y266375D01*
X159565Y265575D01*
X159965Y264775D01*
X159165Y265175D01*
X158365Y264775D01*
X164365D02*
X164765Y265575D01*
X164365Y266375D01*
X165165Y265975D01*
X165965Y266375D01*
X165565Y265575D01*
X165965Y264775D01*
X165165Y265175D01*
X164365Y264775D01*
X170365D02*
X170765Y265575D01*
X170365Y266375D01*
X171165Y265975D01*
X171965Y266375D01*
X171565Y265575D01*
X171965Y264775D01*
X171165Y265175D01*
X170365Y264775D01*
X176365D02*
X176765Y265575D01*
X176365Y266375D01*
X177165Y265975D01*
X177965Y266375D01*
X177565Y265575D01*
X177965Y264775D01*
X177165Y265175D01*
X176365Y264775D01*
X182365D02*
X182765Y265575D01*
X182365Y266375D01*
X183165Y265975D01*
X183965Y266375D01*
X183565Y265575D01*
X183965Y264775D01*
X183165Y265175D01*
X182365Y264775D01*
X188365D02*
X188765Y265575D01*
X188365Y266375D01*
X189165Y265975D01*
X189965Y266375D01*
X189565Y265575D01*
X189965Y264775D01*
X189165Y265175D01*
X188365Y264775D01*
X194365D02*
X194765Y265575D01*
X194365Y266375D01*
X195165Y265975D01*
X195965Y266375D01*
X195565Y265575D01*
X195965Y264775D01*
X195165Y265175D01*
X194365Y264775D01*
X148365Y320775D02*
X148765Y321575D01*
X148365Y322375D01*
X149165Y321975D01*
X149965Y322375D01*
X149565Y321575D01*
X149965Y320775D01*
X149165Y321175D01*
X148365Y320775D01*
Y314775D02*
X148765Y315575D01*
X148365Y316375D01*
X149165Y315975D01*
X149965Y316375D01*
X149565Y315575D01*
X149965Y314775D01*
X149165Y315175D01*
X148365Y314775D01*
Y308775D02*
X148765Y309575D01*
X148365Y310375D01*
X149165Y309975D01*
X149965Y310375D01*
X149565Y309575D01*
X149965Y308775D01*
X149165Y309175D01*
X148365Y308775D01*
Y290775D02*
X148765Y291575D01*
X148365Y292375D01*
X149165Y291975D01*
X149965Y292375D01*
X149565Y291575D01*
X149965Y290775D01*
X149165Y291175D01*
X148365Y290775D01*
Y296775D02*
X148765Y297575D01*
X148365Y298375D01*
X149165Y297975D01*
X149965Y298375D01*
X149565Y297575D01*
X149965Y296775D01*
X149165Y297175D01*
X148365Y296775D01*
X158365Y283775D02*
X158765Y284575D01*
X158365Y285375D01*
X159165Y284975D01*
X159965Y285375D01*
X159565Y284575D01*
X159965Y283775D01*
X159165Y284175D01*
X158365Y283775D01*
X164365D02*
X164765Y284575D01*
X164365Y285375D01*
X165165Y284975D01*
X165965Y285375D01*
X165565Y284575D01*
X165965Y283775D01*
X165165Y284175D01*
X164365Y283775D01*
X170365D02*
X170765Y284575D01*
X170365Y285375D01*
X171165Y284975D01*
X171965Y285375D01*
X171565Y284575D01*
X171965Y283775D01*
X171165Y284175D01*
X170365Y283775D01*
X150125Y333515D02*
X150525Y334315D01*
X150125Y335115D01*
X150925Y334715D01*
X151725Y335115D01*
X151325Y334315D01*
X151725Y333515D01*
X150925Y333915D01*
X150125Y333515D01*
X161765Y311175D02*
Y310775D01*
X162565D01*
Y311175D01*
X162965D01*
Y311975D01*
X162565D01*
Y312375D01*
X161765D01*
Y311975D01*
X161365D01*
Y311175D01*
X161765D01*
X177765Y304175D02*
Y303775D01*
X178565D01*
Y304175D01*
X178965D01*
Y304975D01*
X178565D01*
Y305375D01*
X177765D01*
Y304975D01*
X177365D01*
Y304175D01*
X177765D01*
X185765Y302175D02*
Y301775D01*
X186565D01*
Y302175D01*
X186965D01*
Y302975D01*
X186565D01*
Y303375D01*
X185765D01*
Y302975D01*
X185365D01*
Y302175D01*
X185765D01*
X180765Y297175D02*
Y296775D01*
X181565D01*
Y297175D01*
X181965D01*
Y297975D01*
X181565D01*
Y298375D01*
X180765D01*
Y297975D01*
X180365D01*
Y297175D01*
X180765D01*
X178865Y373775D02*
X179265Y374575D01*
X178865Y375375D01*
X179665Y374975D01*
X180465Y375375D01*
X180065Y374575D01*
X180465Y373775D01*
X179665Y374175D01*
X178865Y373775D01*
X152765Y357175D02*
Y356775D01*
X153565D01*
Y357175D01*
X153965D01*
Y357975D01*
X153565D01*
Y358375D01*
X152765D01*
Y357975D01*
X152365D01*
Y357175D01*
X152765D01*
X191765Y318175D02*
Y317775D01*
X192565D01*
Y318175D01*
X192965D01*
Y318975D01*
X192565D01*
Y319375D01*
X191765D01*
Y318975D01*
X191365D01*
Y318175D01*
X191765D01*
Y351675D02*
Y351275D01*
X192565D01*
Y351675D01*
X192965D01*
Y352475D01*
X192565D01*
Y352875D01*
X191765D01*
Y352475D01*
X191365D01*
Y351675D01*
X191765D01*
X170365Y333275D02*
X170765Y334075D01*
X170365Y334875D01*
X171165Y334475D01*
X171965Y334875D01*
X171565Y334075D01*
X171965Y333275D01*
X171165Y333675D01*
X170365Y333275D01*
X167365Y329775D02*
X167765Y330575D01*
X167365Y331375D01*
X168165Y330975D01*
X168965Y331375D01*
X168565Y330575D01*
X168965Y329775D01*
X168165Y330175D01*
X167365Y329775D01*
X174365Y373775D02*
X174765Y374575D01*
X174365Y375375D01*
X175165Y374975D01*
X175965Y375375D01*
X175565Y374575D01*
X175965Y373775D01*
X175165Y374175D01*
X174365Y373775D01*
X177265Y361935D02*
Y361535D01*
X178065D01*
Y361935D01*
X178465D01*
Y362735D01*
X178065D01*
Y363135D01*
X177265D01*
Y362735D01*
X176865D01*
Y361935D01*
X177265D01*
X153865Y332775D02*
X154265Y333575D01*
X153865Y334375D01*
X154665Y333975D01*
X155465Y334375D01*
X155065Y333575D01*
X155465Y332775D01*
X154665Y333175D01*
X153865Y332775D01*
X156865Y320275D02*
X157265Y321075D01*
X156865Y321875D01*
X157665Y321475D01*
X158465Y321875D01*
X158065Y321075D01*
X158465Y320275D01*
X157665Y320675D01*
X156865Y320275D01*
X161365Y350775D02*
X161765Y351575D01*
X161365Y352375D01*
X162165Y351975D01*
X162965Y352375D01*
X162565Y351575D01*
X162965Y350775D01*
X162165Y351175D01*
X161365Y350775D01*
X157365D02*
X157765Y351575D01*
X157365Y352375D01*
X158165Y351975D01*
X158965Y352375D01*
X158565Y351575D01*
X158965Y350775D01*
X158165Y351175D01*
X157365Y350775D01*
X172865Y343775D02*
X173265Y344575D01*
X172865Y345375D01*
X173665Y344975D01*
X174465Y345375D01*
X174065Y344575D01*
X174465Y343775D01*
X173665Y344175D01*
X172865Y343775D01*
Y337775D02*
X173265Y338575D01*
X172865Y339375D01*
X173665Y338975D01*
X174465Y339375D01*
X174065Y338575D01*
X174465Y337775D01*
X173665Y338175D01*
X172865Y337775D01*
X183865Y343775D02*
X184265Y344575D01*
X183865Y345375D01*
X184665Y344975D01*
X185465Y345375D01*
X185065Y344575D01*
X185465Y343775D01*
X184665Y344175D01*
X183865Y343775D01*
Y337775D02*
X184265Y338575D01*
X183865Y339375D01*
X184665Y338975D01*
X185465Y339375D01*
X185065Y338575D01*
X185465Y337775D01*
X184665Y338175D01*
X183865Y337775D01*
Y331775D02*
X184265Y332575D01*
X183865Y333375D01*
X184665Y332975D01*
X185465Y333375D01*
X185065Y332575D01*
X185465Y331775D01*
X184665Y332175D01*
X183865Y331775D01*
X188365Y283775D02*
X188765Y284575D01*
X188365Y285375D01*
X189165Y284975D01*
X189965Y285375D01*
X189565Y284575D01*
X189965Y283775D01*
X189165Y284175D01*
X188365Y283775D01*
X194365D02*
X194765Y284575D01*
X194365Y285375D01*
X195165Y284975D01*
X195965Y285375D01*
X195565Y284575D01*
X195965Y283775D01*
X195165Y284175D01*
X194365Y283775D01*
X204365Y290775D02*
X204765Y291575D01*
X204365Y292375D01*
X205165Y291975D01*
X205965Y292375D01*
X205565Y291575D01*
X205965Y290775D01*
X205165Y291175D01*
X204365Y290775D01*
X148365Y302775D02*
X148765Y303575D01*
X148365Y304375D01*
X149165Y303975D01*
X149965Y304375D01*
X149565Y303575D01*
X149965Y302775D01*
X149165Y303175D01*
X148365Y302775D01*
X204365Y296775D02*
X204765Y297575D01*
X204365Y298375D01*
X205165Y297975D01*
X205965Y298375D01*
X205565Y297575D01*
X205965Y296775D01*
X205165Y297175D01*
X204365Y296775D01*
Y302775D02*
X204765Y303575D01*
X204365Y304375D01*
X205165Y303975D01*
X205965Y304375D01*
X205565Y303575D01*
X205965Y302775D01*
X205165Y303175D01*
X204365Y302775D01*
Y308775D02*
X204765Y309575D01*
X204365Y310375D01*
X205165Y309975D01*
X205965Y310375D01*
X205565Y309575D01*
X205965Y308775D01*
X205165Y309175D01*
X204365Y308775D01*
Y314775D02*
X204765Y315575D01*
X204365Y316375D01*
X205165Y315975D01*
X205965Y316375D01*
X205565Y315575D01*
X205965Y314775D01*
X205165Y315175D01*
X204365Y314775D01*
Y320775D02*
X204765Y321575D01*
X204365Y322375D01*
X205165Y321975D01*
X205965Y322375D01*
X205565Y321575D01*
X205965Y320775D01*
X205165Y321175D01*
X204365Y320775D01*
Y326775D02*
X204765Y327575D01*
X204365Y328375D01*
X205165Y327975D01*
X205965Y328375D01*
X205565Y327575D01*
X205965Y326775D01*
X205165Y327175D01*
X204365Y326775D01*
X176365Y283775D02*
X176765Y284575D01*
X176365Y285375D01*
X177165Y284975D01*
X177965Y285375D01*
X177565Y284575D01*
X177965Y283775D01*
X177165Y284175D01*
X176365Y283775D01*
X204365Y332775D02*
X204765Y333575D01*
X204365Y334375D01*
X205165Y333975D01*
X205965Y334375D01*
X205565Y333575D01*
X205965Y332775D01*
X205165Y333175D01*
X204365Y332775D01*
Y338775D02*
X204765Y339575D01*
X204365Y340375D01*
X205165Y339975D01*
X205965Y340375D01*
X205565Y339575D01*
X205965Y338775D01*
X205165Y339175D01*
X204365Y338775D01*
Y344775D02*
X204765Y345575D01*
X204365Y346375D01*
X205165Y345975D01*
X205965Y346375D01*
X205565Y345575D01*
X205965Y344775D01*
X205165Y345175D01*
X204365Y344775D01*
Y350775D02*
X204765Y351575D01*
X204365Y352375D01*
X205165Y351975D01*
X205965Y352375D01*
X205565Y351575D01*
X205965Y350775D01*
X205165Y351175D01*
X204365Y350775D01*
X182365Y283775D02*
X182765Y284575D01*
X182365Y285375D01*
X183165Y284975D01*
X183965Y285375D01*
X183565Y284575D01*
X183965Y283775D01*
X183165Y284175D01*
X182365Y283775D01*
X204365Y356775D02*
X204765Y357575D01*
X204365Y358375D01*
X205165Y357975D01*
X205965Y358375D01*
X205565Y357575D01*
X205965Y356775D01*
X205165Y357175D01*
X204365Y356775D01*
Y362775D02*
X204765Y363575D01*
X204365Y364375D01*
X205165Y363975D01*
X205965Y364375D01*
X205565Y363575D01*
X205965Y362775D01*
X205165Y363175D01*
X204365Y362775D01*
Y368775D02*
X204765Y369575D01*
X204365Y370375D01*
X205165Y369975D01*
X205965Y370375D01*
X205565Y369575D01*
X205965Y368775D01*
X205165Y369175D01*
X204365Y368775D01*
Y374775D02*
X204765Y375575D01*
X204365Y376375D01*
X205165Y375975D01*
X205965Y376375D01*
X205565Y375575D01*
X205965Y374775D01*
X205165Y375175D01*
X204365Y374775D01*
Y380775D02*
X204765Y381575D01*
X204365Y382375D01*
X205165Y381975D01*
X205965Y382375D01*
X205565Y381575D01*
X205965Y380775D01*
X205165Y381175D01*
X204365Y380775D01*
X174865Y365275D02*
X175265Y366075D01*
X174865Y366875D01*
X175665Y366475D01*
X176465Y366875D01*
X176065Y366075D01*
X176465Y365275D01*
X175665Y365675D01*
X174865Y365275D01*
X159365Y373775D02*
X159765Y374575D01*
X159365Y375375D01*
X160165Y374975D01*
X160965Y375375D01*
X160565Y374575D01*
X160965Y373775D01*
X160165Y374175D01*
X159365Y373775D01*
X169865D02*
X170265Y374575D01*
X169865Y375375D01*
X170665Y374975D01*
X171465Y375375D01*
X171065Y374575D01*
X171465Y373775D01*
X170665Y374175D01*
X169865Y373775D01*
X230610Y381594D02*
X229810Y383194D01*
X231410D01*
X230610Y381594D01*
X249705D02*
X248905Y383194D01*
X250505D01*
X249705Y381594D01*
X225886Y392145D02*
X226286Y392545D01*
X226686D01*
X226286Y392945D01*
X226686Y393345D01*
X226286D01*
X225886Y393745D01*
X225486Y393345D01*
X225086D01*
X225486Y392945D01*
X225086Y392545D01*
X225486D01*
X225886Y392145D01*
X254429D02*
X254829Y392545D01*
X255229D01*
X254829Y392945D01*
X255229Y393345D01*
X254829D01*
X254429Y393745D01*
X254029Y393345D01*
X253629D01*
X254029Y392945D01*
X253629Y392545D01*
X254029D01*
X254429Y392145D01*
X228358Y246775D02*
X228758Y247575D01*
X228358Y248375D01*
X229157Y247975D01*
X229958Y248375D01*
X229557Y247575D01*
X229958Y246775D01*
X229157Y247175D01*
X228358Y246775D01*
X231358Y226775D02*
X231757Y227575D01*
X231358Y228375D01*
X232157Y227975D01*
X232958Y228375D01*
X232558Y227575D01*
X232958Y226775D01*
X232157Y227175D01*
X231358Y226775D01*
X242357D02*
X242758Y227575D01*
X242357Y228375D01*
X243158Y227975D01*
X243957Y228375D01*
X243558Y227575D01*
X243957Y226775D01*
X243158Y227175D01*
X242357Y226775D01*
X267357Y206775D02*
X267758Y207575D01*
X267357Y208375D01*
X268158Y207975D01*
X268957Y208375D01*
X268558Y207575D01*
X268957Y206775D01*
X268158Y207175D01*
X267357Y206775D01*
X260357Y224775D02*
X260757Y225575D01*
X260357Y226375D01*
X261157Y225975D01*
X261958Y226375D01*
X261558Y225575D01*
X261958Y224775D01*
X261157Y225175D01*
X260357Y224775D01*
X267357D02*
X267758Y225575D01*
X267357Y226375D01*
X268158Y225975D01*
X268957Y226375D01*
X268558Y225575D01*
X268957Y224775D01*
X268158Y225175D01*
X267357Y224775D01*
X211357Y234775D02*
X211757Y235575D01*
X211357Y236375D01*
X212158Y235975D01*
X212958Y236375D01*
X212558Y235575D01*
X212958Y234775D01*
X212158Y235175D01*
X211357Y234775D01*
Y240775D02*
X211757Y241575D01*
X211357Y242375D01*
X212158Y241975D01*
X212958Y242375D01*
X212558Y241575D01*
X212958Y240775D01*
X212158Y241175D01*
X211357Y240775D01*
Y246775D02*
X211757Y247575D01*
X211357Y248375D01*
X212158Y247975D01*
X212958Y248375D01*
X212558Y247575D01*
X212958Y246775D01*
X212158Y247175D01*
X211357Y246775D01*
Y252775D02*
X211757Y253575D01*
X211357Y254375D01*
X212158Y253975D01*
X212958Y254375D01*
X212558Y253575D01*
X212958Y252775D01*
X212158Y253175D01*
X211357Y252775D01*
X267357Y234775D02*
X267758Y235575D01*
X267357Y236375D01*
X268158Y235975D01*
X268957Y236375D01*
X268558Y235575D01*
X268957Y234775D01*
X268158Y235175D01*
X267357Y234775D01*
Y240775D02*
X267758Y241575D01*
X267357Y242375D01*
X268158Y241975D01*
X268957Y242375D01*
X268558Y241575D01*
X268957Y240775D01*
X268158Y241175D01*
X267357Y240775D01*
Y246775D02*
X267758Y247575D01*
X267357Y248375D01*
X268158Y247975D01*
X268957Y248375D01*
X268558Y247575D01*
X268957Y246775D01*
X268158Y247175D01*
X267357Y246775D01*
Y252775D02*
X267758Y253575D01*
X267357Y254375D01*
X268158Y253975D01*
X268957Y254375D01*
X268558Y253575D01*
X268957Y252775D01*
X268158Y253175D01*
X267357Y252775D01*
X221357Y264775D02*
X221758Y265575D01*
X221357Y266375D01*
X222158Y265975D01*
X222957Y266375D01*
X222557Y265575D01*
X222957Y264775D01*
X222158Y265175D01*
X221357Y264775D01*
X227358D02*
X227758Y265575D01*
X227358Y266375D01*
X228157Y265975D01*
X228958Y266375D01*
X228557Y265575D01*
X228958Y264775D01*
X228157Y265175D01*
X227358Y264775D01*
X233358D02*
X233757Y265575D01*
X233358Y266375D01*
X234157Y265975D01*
X234958Y266375D01*
X234558Y265575D01*
X234958Y264775D01*
X234157Y265175D01*
X233358Y264775D01*
X239357D02*
X239757Y265575D01*
X239357Y266375D01*
X240158Y265975D01*
X240957Y266375D01*
X240558Y265575D01*
X240957Y264775D01*
X240158Y265175D01*
X239357Y264775D01*
X245357D02*
X245758Y265575D01*
X245357Y266375D01*
X246158Y265975D01*
X246957Y266375D01*
X246557Y265575D01*
X246957Y264775D01*
X246158Y265175D01*
X245357Y264775D01*
X251358D02*
X251758Y265575D01*
X251358Y266375D01*
X252157Y265975D01*
X252958Y266375D01*
X252557Y265575D01*
X252958Y264775D01*
X252157Y265175D01*
X251358Y264775D01*
X257358D02*
X257757Y265575D01*
X257358Y266375D01*
X258157Y265975D01*
X258958Y266375D01*
X258558Y265575D01*
X258958Y264775D01*
X258157Y265175D01*
X257358Y264775D01*
X211357Y320775D02*
X211757Y321575D01*
X211357Y322375D01*
X212158Y321975D01*
X212958Y322375D01*
X212558Y321575D01*
X212958Y320775D01*
X212158Y321175D01*
X211357Y320775D01*
Y314775D02*
X211757Y315575D01*
X211357Y316375D01*
X212158Y315975D01*
X212958Y316375D01*
X212558Y315575D01*
X212958Y314775D01*
X212158Y315175D01*
X211357Y314775D01*
Y308775D02*
X211757Y309575D01*
X211357Y310375D01*
X212158Y309975D01*
X212958Y310375D01*
X212558Y309575D01*
X212958Y308775D01*
X212158Y309175D01*
X211357Y308775D01*
Y290775D02*
X211757Y291575D01*
X211357Y292375D01*
X212158Y291975D01*
X212958Y292375D01*
X212558Y291575D01*
X212958Y290775D01*
X212158Y291175D01*
X211357Y290775D01*
Y296775D02*
X211757Y297575D01*
X211357Y298375D01*
X212158Y297975D01*
X212958Y298375D01*
X212558Y297575D01*
X212958Y296775D01*
X212158Y297175D01*
X211357Y296775D01*
X221357Y283775D02*
X221758Y284575D01*
X221357Y285375D01*
X222158Y284975D01*
X222957Y285375D01*
X222557Y284575D01*
X222957Y283775D01*
X222158Y284175D01*
X221357Y283775D01*
X227358D02*
X227758Y284575D01*
X227358Y285375D01*
X228157Y284975D01*
X228958Y285375D01*
X228557Y284575D01*
X228958Y283775D01*
X228157Y284175D01*
X227358Y283775D01*
X233358D02*
X233757Y284575D01*
X233358Y285375D01*
X234157Y284975D01*
X234958Y285375D01*
X234558Y284575D01*
X234958Y283775D01*
X234157Y284175D01*
X233358Y283775D01*
X213117Y333515D02*
X213517Y334315D01*
X213117Y335115D01*
X213917Y334715D01*
X214717Y335115D01*
X214317Y334315D01*
X214717Y333515D01*
X213917Y333915D01*
X213117Y333515D01*
X224758Y311175D02*
Y310775D01*
X225557D01*
Y311175D01*
X225957D01*
Y311975D01*
X225557D01*
Y312375D01*
X224758D01*
Y311975D01*
X224358D01*
Y311175D01*
X224758D01*
X240757Y304175D02*
Y303775D01*
X241558D01*
Y304175D01*
X241957D01*
Y304975D01*
X241558D01*
Y305375D01*
X240757D01*
Y304975D01*
X240357D01*
Y304175D01*
X240757D01*
X248758Y302175D02*
Y301775D01*
X249557D01*
Y302175D01*
X249957D01*
Y302975D01*
X249557D01*
Y303375D01*
X248758D01*
Y302975D01*
X248358D01*
Y302175D01*
X248758D01*
X243758Y297175D02*
Y296775D01*
X244557D01*
Y297175D01*
X244957D01*
Y297975D01*
X244557D01*
Y298375D01*
X243758D01*
Y297975D01*
X243357D01*
Y297175D01*
X243758D01*
X241858Y373775D02*
X242257Y374575D01*
X241858Y375375D01*
X242657Y374975D01*
X243458Y375375D01*
X243057Y374575D01*
X243458Y373775D01*
X242657Y374175D01*
X241858Y373775D01*
X215757Y357175D02*
Y356775D01*
X216558D01*
Y357175D01*
X216957D01*
Y357975D01*
X216558D01*
Y358375D01*
X215757D01*
Y357975D01*
X215357D01*
Y357175D01*
X215757D01*
X254757Y318175D02*
Y317775D01*
X255557D01*
Y318175D01*
X255958D01*
Y318975D01*
X255557D01*
Y319375D01*
X254757D01*
Y318975D01*
X254358D01*
Y318175D01*
X254757D01*
Y351675D02*
Y351275D01*
X255557D01*
Y351675D01*
X255958D01*
Y352475D01*
X255557D01*
Y352875D01*
X254757D01*
Y352475D01*
X254358D01*
Y351675D01*
X254757D01*
X233358Y333275D02*
X233757Y334075D01*
X233358Y334875D01*
X234157Y334475D01*
X234958Y334875D01*
X234558Y334075D01*
X234958Y333275D01*
X234157Y333675D01*
X233358Y333275D01*
X230358Y329775D02*
X230757Y330575D01*
X230358Y331375D01*
X231157Y330975D01*
X231958Y331375D01*
X231557Y330575D01*
X231958Y329775D01*
X231157Y330175D01*
X230358Y329775D01*
X237357Y373775D02*
X237757Y374575D01*
X237357Y375375D01*
X238158Y374975D01*
X238958Y375375D01*
X238558Y374575D01*
X238958Y373775D01*
X238158Y374175D01*
X237357Y373775D01*
X240258Y361935D02*
Y361535D01*
X241057D01*
Y361935D01*
X241458D01*
Y362735D01*
X241057D01*
Y363135D01*
X240258D01*
Y362735D01*
X239858D01*
Y361935D01*
X240258D01*
X216858Y332775D02*
X217257Y333575D01*
X216858Y334375D01*
X217657Y333975D01*
X218458Y334375D01*
X218057Y333575D01*
X218458Y332775D01*
X217657Y333175D01*
X216858Y332775D01*
X219858Y320275D02*
X220257Y321075D01*
X219858Y321875D01*
X220657Y321475D01*
X221458Y321875D01*
X221058Y321075D01*
X221458Y320275D01*
X220657Y320675D01*
X219858Y320275D01*
X224358Y350775D02*
X224758Y351575D01*
X224358Y352375D01*
X225157Y351975D01*
X225957Y352375D01*
X225557Y351575D01*
X225957Y350775D01*
X225157Y351175D01*
X224358Y350775D01*
X220357D02*
X220758Y351575D01*
X220357Y352375D01*
X221158Y351975D01*
X221957Y352375D01*
X221557Y351575D01*
X221957Y350775D01*
X221158Y351175D01*
X220357Y350775D01*
X235858Y343775D02*
X236258Y344575D01*
X235858Y345375D01*
X236658Y344975D01*
X237457Y345375D01*
X237057Y344575D01*
X237457Y343775D01*
X236658Y344175D01*
X235858Y343775D01*
Y337775D02*
X236258Y338575D01*
X235858Y339375D01*
X236658Y338975D01*
X237457Y339375D01*
X237057Y338575D01*
X237457Y337775D01*
X236658Y338175D01*
X235858Y337775D01*
X246858Y343775D02*
X247257Y344575D01*
X246858Y345375D01*
X247657Y344975D01*
X248458Y345375D01*
X248058Y344575D01*
X248458Y343775D01*
X247657Y344175D01*
X246858Y343775D01*
Y337775D02*
X247257Y338575D01*
X246858Y339375D01*
X247657Y338975D01*
X248458Y339375D01*
X248058Y338575D01*
X248458Y337775D01*
X247657Y338175D01*
X246858Y337775D01*
Y331775D02*
X247257Y332575D01*
X246858Y333375D01*
X247657Y332975D01*
X248458Y333375D01*
X248058Y332575D01*
X248458Y331775D01*
X247657Y332175D01*
X246858Y331775D01*
X251358Y283775D02*
X251758Y284575D01*
X251358Y285375D01*
X252157Y284975D01*
X252958Y285375D01*
X252557Y284575D01*
X252958Y283775D01*
X252157Y284175D01*
X251358Y283775D01*
X257358D02*
X257757Y284575D01*
X257358Y285375D01*
X258157Y284975D01*
X258958Y285375D01*
X258558Y284575D01*
X258958Y283775D01*
X258157Y284175D01*
X257358Y283775D01*
X267357Y290775D02*
X267758Y291575D01*
X267357Y292375D01*
X268158Y291975D01*
X268957Y292375D01*
X268558Y291575D01*
X268957Y290775D01*
X268158Y291175D01*
X267357Y290775D01*
X211357Y302775D02*
X211757Y303575D01*
X211357Y304375D01*
X212158Y303975D01*
X212958Y304375D01*
X212558Y303575D01*
X212958Y302775D01*
X212158Y303175D01*
X211357Y302775D01*
X267357Y296775D02*
X267758Y297575D01*
X267357Y298375D01*
X268158Y297975D01*
X268957Y298375D01*
X268558Y297575D01*
X268957Y296775D01*
X268158Y297175D01*
X267357Y296775D01*
Y302775D02*
X267758Y303575D01*
X267357Y304375D01*
X268158Y303975D01*
X268957Y304375D01*
X268558Y303575D01*
X268957Y302775D01*
X268158Y303175D01*
X267357Y302775D01*
Y308775D02*
X267758Y309575D01*
X267357Y310375D01*
X268158Y309975D01*
X268957Y310375D01*
X268558Y309575D01*
X268957Y308775D01*
X268158Y309175D01*
X267357Y308775D01*
Y314775D02*
X267758Y315575D01*
X267357Y316375D01*
X268158Y315975D01*
X268957Y316375D01*
X268558Y315575D01*
X268957Y314775D01*
X268158Y315175D01*
X267357Y314775D01*
Y320775D02*
X267758Y321575D01*
X267357Y322375D01*
X268158Y321975D01*
X268957Y322375D01*
X268558Y321575D01*
X268957Y320775D01*
X268158Y321175D01*
X267357Y320775D01*
Y326775D02*
X267758Y327575D01*
X267357Y328375D01*
X268158Y327975D01*
X268957Y328375D01*
X268558Y327575D01*
X268957Y326775D01*
X268158Y327175D01*
X267357Y326775D01*
X239357Y283775D02*
X239757Y284575D01*
X239357Y285375D01*
X240158Y284975D01*
X240957Y285375D01*
X240558Y284575D01*
X240957Y283775D01*
X240158Y284175D01*
X239357Y283775D01*
X267357Y332775D02*
X267758Y333575D01*
X267357Y334375D01*
X268158Y333975D01*
X268957Y334375D01*
X268558Y333575D01*
X268957Y332775D01*
X268158Y333175D01*
X267357Y332775D01*
Y338775D02*
X267758Y339575D01*
X267357Y340375D01*
X268158Y339975D01*
X268957Y340375D01*
X268558Y339575D01*
X268957Y338775D01*
X268158Y339175D01*
X267357Y338775D01*
Y344775D02*
X267758Y345575D01*
X267357Y346375D01*
X268158Y345975D01*
X268957Y346375D01*
X268558Y345575D01*
X268957Y344775D01*
X268158Y345175D01*
X267357Y344775D01*
Y350775D02*
X267758Y351575D01*
X267357Y352375D01*
X268158Y351975D01*
X268957Y352375D01*
X268558Y351575D01*
X268957Y350775D01*
X268158Y351175D01*
X267357Y350775D01*
X245357Y283775D02*
X245758Y284575D01*
X245357Y285375D01*
X246158Y284975D01*
X246957Y285375D01*
X246557Y284575D01*
X246957Y283775D01*
X246158Y284175D01*
X245357Y283775D01*
X267357Y356775D02*
X267758Y357575D01*
X267357Y358375D01*
X268158Y357975D01*
X268957Y358375D01*
X268558Y357575D01*
X268957Y356775D01*
X268158Y357175D01*
X267357Y356775D01*
Y362775D02*
X267758Y363575D01*
X267357Y364375D01*
X268158Y363975D01*
X268957Y364375D01*
X268558Y363575D01*
X268957Y362775D01*
X268158Y363175D01*
X267357Y362775D01*
Y368775D02*
X267758Y369575D01*
X267357Y370375D01*
X268158Y369975D01*
X268957Y370375D01*
X268558Y369575D01*
X268957Y368775D01*
X268158Y369175D01*
X267357Y368775D01*
Y374775D02*
X267758Y375575D01*
X267357Y376375D01*
X268158Y375975D01*
X268957Y376375D01*
X268558Y375575D01*
X268957Y374775D01*
X268158Y375175D01*
X267357Y374775D01*
Y380775D02*
X267758Y381575D01*
X267357Y382375D01*
X268158Y381975D01*
X268957Y382375D01*
X268558Y381575D01*
X268957Y380775D01*
X268158Y381175D01*
X267357Y380775D01*
X237858Y365275D02*
X238258Y366075D01*
X237858Y366875D01*
X238657Y366475D01*
X239458Y366875D01*
X239057Y366075D01*
X239458Y365275D01*
X238657Y365675D01*
X237858Y365275D01*
X222358Y373775D02*
X222758Y374575D01*
X222358Y375375D01*
X223158Y374975D01*
X223957Y375375D01*
X223557Y374575D01*
X223957Y373775D01*
X223158Y374175D01*
X222358Y373775D01*
X232857D02*
X233258Y374575D01*
X232857Y375375D01*
X233658Y374975D01*
X234457Y375375D01*
X234057Y374575D01*
X234457Y373775D01*
X233658Y374175D01*
X232857Y373775D01*
X293602Y381594D02*
X292802Y383194D01*
X294402D01*
X293602Y381594D01*
X312697D02*
X311897Y383194D01*
X313497D01*
X312697Y381594D01*
X288878Y392145D02*
X289278Y392545D01*
X289678D01*
X289278Y392945D01*
X289678Y393345D01*
X289278D01*
X288878Y393745D01*
X288478Y393345D01*
X288078D01*
X288478Y392945D01*
X288078Y392545D01*
X288478D01*
X288878Y392145D01*
X317421D02*
X317821Y392545D01*
X318221D01*
X317821Y392945D01*
X318221Y393345D01*
X317821D01*
X317421Y393745D01*
X317021Y393345D01*
X316621D01*
X317021Y392945D01*
X316621Y392545D01*
X317021D01*
X317421Y392145D01*
X291350Y246775D02*
X291750Y247575D01*
X291350Y248375D01*
X292150Y247975D01*
X292950Y248375D01*
X292550Y247575D01*
X292950Y246775D01*
X292150Y247175D01*
X291350Y246775D01*
X294350Y226775D02*
X294750Y227575D01*
X294350Y228375D01*
X295150Y227975D01*
X295950Y228375D01*
X295550Y227575D01*
X295950Y226775D01*
X295150Y227175D01*
X294350Y226775D01*
X305350D02*
X305750Y227575D01*
X305350Y228375D01*
X306150Y227975D01*
X306950Y228375D01*
X306550Y227575D01*
X306950Y226775D01*
X306150Y227175D01*
X305350Y226775D01*
X330350Y206775D02*
X330750Y207575D01*
X330350Y208375D01*
X331150Y207975D01*
X331950Y208375D01*
X331550Y207575D01*
X331950Y206775D01*
X331150Y207175D01*
X330350Y206775D01*
X323350Y224775D02*
X323750Y225575D01*
X323350Y226375D01*
X324150Y225975D01*
X324950Y226375D01*
X324550Y225575D01*
X324950Y224775D01*
X324150Y225175D01*
X323350Y224775D01*
X330350D02*
X330750Y225575D01*
X330350Y226375D01*
X331150Y225975D01*
X331950Y226375D01*
X331550Y225575D01*
X331950Y224775D01*
X331150Y225175D01*
X330350Y224775D01*
X274350Y234775D02*
X274750Y235575D01*
X274350Y236375D01*
X275150Y235975D01*
X275950Y236375D01*
X275550Y235575D01*
X275950Y234775D01*
X275150Y235175D01*
X274350Y234775D01*
Y240775D02*
X274750Y241575D01*
X274350Y242375D01*
X275150Y241975D01*
X275950Y242375D01*
X275550Y241575D01*
X275950Y240775D01*
X275150Y241175D01*
X274350Y240775D01*
Y246775D02*
X274750Y247575D01*
X274350Y248375D01*
X275150Y247975D01*
X275950Y248375D01*
X275550Y247575D01*
X275950Y246775D01*
X275150Y247175D01*
X274350Y246775D01*
Y252775D02*
X274750Y253575D01*
X274350Y254375D01*
X275150Y253975D01*
X275950Y254375D01*
X275550Y253575D01*
X275950Y252775D01*
X275150Y253175D01*
X274350Y252775D01*
X330350Y234775D02*
X330750Y235575D01*
X330350Y236375D01*
X331150Y235975D01*
X331950Y236375D01*
X331550Y235575D01*
X331950Y234775D01*
X331150Y235175D01*
X330350Y234775D01*
Y240775D02*
X330750Y241575D01*
X330350Y242375D01*
X331150Y241975D01*
X331950Y242375D01*
X331550Y241575D01*
X331950Y240775D01*
X331150Y241175D01*
X330350Y240775D01*
Y246775D02*
X330750Y247575D01*
X330350Y248375D01*
X331150Y247975D01*
X331950Y248375D01*
X331550Y247575D01*
X331950Y246775D01*
X331150Y247175D01*
X330350Y246775D01*
Y252775D02*
X330750Y253575D01*
X330350Y254375D01*
X331150Y253975D01*
X331950Y254375D01*
X331550Y253575D01*
X331950Y252775D01*
X331150Y253175D01*
X330350Y252775D01*
X284350Y264775D02*
X284750Y265575D01*
X284350Y266375D01*
X285150Y265975D01*
X285950Y266375D01*
X285550Y265575D01*
X285950Y264775D01*
X285150Y265175D01*
X284350Y264775D01*
X290350D02*
X290750Y265575D01*
X290350Y266375D01*
X291150Y265975D01*
X291950Y266375D01*
X291550Y265575D01*
X291950Y264775D01*
X291150Y265175D01*
X290350Y264775D01*
X296350D02*
X296750Y265575D01*
X296350Y266375D01*
X297150Y265975D01*
X297950Y266375D01*
X297550Y265575D01*
X297950Y264775D01*
X297150Y265175D01*
X296350Y264775D01*
X302350D02*
X302750Y265575D01*
X302350Y266375D01*
X303150Y265975D01*
X303950Y266375D01*
X303550Y265575D01*
X303950Y264775D01*
X303150Y265175D01*
X302350Y264775D01*
X308350D02*
X308750Y265575D01*
X308350Y266375D01*
X309150Y265975D01*
X309950Y266375D01*
X309550Y265575D01*
X309950Y264775D01*
X309150Y265175D01*
X308350Y264775D01*
X314350D02*
X314750Y265575D01*
X314350Y266375D01*
X315150Y265975D01*
X315950Y266375D01*
X315550Y265575D01*
X315950Y264775D01*
X315150Y265175D01*
X314350Y264775D01*
X320350D02*
X320750Y265575D01*
X320350Y266375D01*
X321150Y265975D01*
X321950Y266375D01*
X321550Y265575D01*
X321950Y264775D01*
X321150Y265175D01*
X320350Y264775D01*
X274350Y320775D02*
X274750Y321575D01*
X274350Y322375D01*
X275150Y321975D01*
X275950Y322375D01*
X275550Y321575D01*
X275950Y320775D01*
X275150Y321175D01*
X274350Y320775D01*
Y314775D02*
X274750Y315575D01*
X274350Y316375D01*
X275150Y315975D01*
X275950Y316375D01*
X275550Y315575D01*
X275950Y314775D01*
X275150Y315175D01*
X274350Y314775D01*
Y308775D02*
X274750Y309575D01*
X274350Y310375D01*
X275150Y309975D01*
X275950Y310375D01*
X275550Y309575D01*
X275950Y308775D01*
X275150Y309175D01*
X274350Y308775D01*
Y290775D02*
X274750Y291575D01*
X274350Y292375D01*
X275150Y291975D01*
X275950Y292375D01*
X275550Y291575D01*
X275950Y290775D01*
X275150Y291175D01*
X274350Y290775D01*
Y296775D02*
X274750Y297575D01*
X274350Y298375D01*
X275150Y297975D01*
X275950Y298375D01*
X275550Y297575D01*
X275950Y296775D01*
X275150Y297175D01*
X274350Y296775D01*
X284350Y283775D02*
X284750Y284575D01*
X284350Y285375D01*
X285150Y284975D01*
X285950Y285375D01*
X285550Y284575D01*
X285950Y283775D01*
X285150Y284175D01*
X284350Y283775D01*
X290350D02*
X290750Y284575D01*
X290350Y285375D01*
X291150Y284975D01*
X291950Y285375D01*
X291550Y284575D01*
X291950Y283775D01*
X291150Y284175D01*
X290350Y283775D01*
X296350D02*
X296750Y284575D01*
X296350Y285375D01*
X297150Y284975D01*
X297950Y285375D01*
X297550Y284575D01*
X297950Y283775D01*
X297150Y284175D01*
X296350Y283775D01*
X276109Y333515D02*
X276509Y334315D01*
X276109Y335115D01*
X276909Y334715D01*
X277709Y335115D01*
X277309Y334315D01*
X277709Y333515D01*
X276909Y333915D01*
X276109Y333515D01*
X287750Y311175D02*
Y310775D01*
X288550D01*
Y311175D01*
X288950D01*
Y311975D01*
X288550D01*
Y312375D01*
X287750D01*
Y311975D01*
X287350D01*
Y311175D01*
X287750D01*
X303750Y304175D02*
Y303775D01*
X304550D01*
Y304175D01*
X304950D01*
Y304975D01*
X304550D01*
Y305375D01*
X303750D01*
Y304975D01*
X303350D01*
Y304175D01*
X303750D01*
X311750Y302175D02*
Y301775D01*
X312550D01*
Y302175D01*
X312950D01*
Y302975D01*
X312550D01*
Y303375D01*
X311750D01*
Y302975D01*
X311350D01*
Y302175D01*
X311750D01*
X306750Y297175D02*
Y296775D01*
X307550D01*
Y297175D01*
X307950D01*
Y297975D01*
X307550D01*
Y298375D01*
X306750D01*
Y297975D01*
X306350D01*
Y297175D01*
X306750D01*
X304850Y373775D02*
X305250Y374575D01*
X304850Y375375D01*
X305650Y374975D01*
X306450Y375375D01*
X306050Y374575D01*
X306450Y373775D01*
X305650Y374175D01*
X304850Y373775D01*
X278750Y357175D02*
Y356775D01*
X279550D01*
Y357175D01*
X279950D01*
Y357975D01*
X279550D01*
Y358375D01*
X278750D01*
Y357975D01*
X278350D01*
Y357175D01*
X278750D01*
X317750Y318175D02*
Y317775D01*
X318550D01*
Y318175D01*
X318950D01*
Y318975D01*
X318550D01*
Y319375D01*
X317750D01*
Y318975D01*
X317350D01*
Y318175D01*
X317750D01*
Y351675D02*
Y351275D01*
X318550D01*
Y351675D01*
X318950D01*
Y352475D01*
X318550D01*
Y352875D01*
X317750D01*
Y352475D01*
X317350D01*
Y351675D01*
X317750D01*
X296350Y333275D02*
X296750Y334075D01*
X296350Y334875D01*
X297150Y334475D01*
X297950Y334875D01*
X297550Y334075D01*
X297950Y333275D01*
X297150Y333675D01*
X296350Y333275D01*
X293350Y329775D02*
X293750Y330575D01*
X293350Y331375D01*
X294150Y330975D01*
X294950Y331375D01*
X294550Y330575D01*
X294950Y329775D01*
X294150Y330175D01*
X293350Y329775D01*
X300350Y373775D02*
X300750Y374575D01*
X300350Y375375D01*
X301150Y374975D01*
X301950Y375375D01*
X301550Y374575D01*
X301950Y373775D01*
X301150Y374175D01*
X300350Y373775D01*
X303250Y361935D02*
Y361535D01*
X304050D01*
Y361935D01*
X304450D01*
Y362735D01*
X304050D01*
Y363135D01*
X303250D01*
Y362735D01*
X302850D01*
Y361935D01*
X303250D01*
X279850Y332775D02*
X280250Y333575D01*
X279850Y334375D01*
X280650Y333975D01*
X281450Y334375D01*
X281050Y333575D01*
X281450Y332775D01*
X280650Y333175D01*
X279850Y332775D01*
X282850Y320275D02*
X283250Y321075D01*
X282850Y321875D01*
X283650Y321475D01*
X284450Y321875D01*
X284050Y321075D01*
X284450Y320275D01*
X283650Y320675D01*
X282850Y320275D01*
X287350Y350775D02*
X287750Y351575D01*
X287350Y352375D01*
X288150Y351975D01*
X288950Y352375D01*
X288550Y351575D01*
X288950Y350775D01*
X288150Y351175D01*
X287350Y350775D01*
X283350D02*
X283750Y351575D01*
X283350Y352375D01*
X284150Y351975D01*
X284950Y352375D01*
X284550Y351575D01*
X284950Y350775D01*
X284150Y351175D01*
X283350Y350775D01*
X298850Y343775D02*
X299250Y344575D01*
X298850Y345375D01*
X299650Y344975D01*
X300450Y345375D01*
X300050Y344575D01*
X300450Y343775D01*
X299650Y344175D01*
X298850Y343775D01*
Y337775D02*
X299250Y338575D01*
X298850Y339375D01*
X299650Y338975D01*
X300450Y339375D01*
X300050Y338575D01*
X300450Y337775D01*
X299650Y338175D01*
X298850Y337775D01*
X309850Y343775D02*
X310250Y344575D01*
X309850Y345375D01*
X310650Y344975D01*
X311450Y345375D01*
X311050Y344575D01*
X311450Y343775D01*
X310650Y344175D01*
X309850Y343775D01*
Y337775D02*
X310250Y338575D01*
X309850Y339375D01*
X310650Y338975D01*
X311450Y339375D01*
X311050Y338575D01*
X311450Y337775D01*
X310650Y338175D01*
X309850Y337775D01*
Y331775D02*
X310250Y332575D01*
X309850Y333375D01*
X310650Y332975D01*
X311450Y333375D01*
X311050Y332575D01*
X311450Y331775D01*
X310650Y332175D01*
X309850Y331775D01*
X314350Y283775D02*
X314750Y284575D01*
X314350Y285375D01*
X315150Y284975D01*
X315950Y285375D01*
X315550Y284575D01*
X315950Y283775D01*
X315150Y284175D01*
X314350Y283775D01*
X320350D02*
X320750Y284575D01*
X320350Y285375D01*
X321150Y284975D01*
X321950Y285375D01*
X321550Y284575D01*
X321950Y283775D01*
X321150Y284175D01*
X320350Y283775D01*
X330350Y290775D02*
X330750Y291575D01*
X330350Y292375D01*
X331150Y291975D01*
X331950Y292375D01*
X331550Y291575D01*
X331950Y290775D01*
X331150Y291175D01*
X330350Y290775D01*
X274350Y302775D02*
X274750Y303575D01*
X274350Y304375D01*
X275150Y303975D01*
X275950Y304375D01*
X275550Y303575D01*
X275950Y302775D01*
X275150Y303175D01*
X274350Y302775D01*
X330350Y296775D02*
X330750Y297575D01*
X330350Y298375D01*
X331150Y297975D01*
X331950Y298375D01*
X331550Y297575D01*
X331950Y296775D01*
X331150Y297175D01*
X330350Y296775D01*
Y302775D02*
X330750Y303575D01*
X330350Y304375D01*
X331150Y303975D01*
X331950Y304375D01*
X331550Y303575D01*
X331950Y302775D01*
X331150Y303175D01*
X330350Y302775D01*
Y308775D02*
X330750Y309575D01*
X330350Y310375D01*
X331150Y309975D01*
X331950Y310375D01*
X331550Y309575D01*
X331950Y308775D01*
X331150Y309175D01*
X330350Y308775D01*
Y314775D02*
X330750Y315575D01*
X330350Y316375D01*
X331150Y315975D01*
X331950Y316375D01*
X331550Y315575D01*
X331950Y314775D01*
X331150Y315175D01*
X330350Y314775D01*
Y320775D02*
X330750Y321575D01*
X330350Y322375D01*
X331150Y321975D01*
X331950Y322375D01*
X331550Y321575D01*
X331950Y320775D01*
X331150Y321175D01*
X330350Y320775D01*
Y326775D02*
X330750Y327575D01*
X330350Y328375D01*
X331150Y327975D01*
X331950Y328375D01*
X331550Y327575D01*
X331950Y326775D01*
X331150Y327175D01*
X330350Y326775D01*
X302350Y283775D02*
X302750Y284575D01*
X302350Y285375D01*
X303150Y284975D01*
X303950Y285375D01*
X303550Y284575D01*
X303950Y283775D01*
X303150Y284175D01*
X302350Y283775D01*
X330350Y332775D02*
X330750Y333575D01*
X330350Y334375D01*
X331150Y333975D01*
X331950Y334375D01*
X331550Y333575D01*
X331950Y332775D01*
X331150Y333175D01*
X330350Y332775D01*
Y338775D02*
X330750Y339575D01*
X330350Y340375D01*
X331150Y339975D01*
X331950Y340375D01*
X331550Y339575D01*
X331950Y338775D01*
X331150Y339175D01*
X330350Y338775D01*
Y344775D02*
X330750Y345575D01*
X330350Y346375D01*
X331150Y345975D01*
X331950Y346375D01*
X331550Y345575D01*
X331950Y344775D01*
X331150Y345175D01*
X330350Y344775D01*
Y350775D02*
X330750Y351575D01*
X330350Y352375D01*
X331150Y351975D01*
X331950Y352375D01*
X331550Y351575D01*
X331950Y350775D01*
X331150Y351175D01*
X330350Y350775D01*
X308350Y283775D02*
X308750Y284575D01*
X308350Y285375D01*
X309150Y284975D01*
X309950Y285375D01*
X309550Y284575D01*
X309950Y283775D01*
X309150Y284175D01*
X308350Y283775D01*
X330350Y356775D02*
X330750Y357575D01*
X330350Y358375D01*
X331150Y357975D01*
X331950Y358375D01*
X331550Y357575D01*
X331950Y356775D01*
X331150Y357175D01*
X330350Y356775D01*
Y362775D02*
X330750Y363575D01*
X330350Y364375D01*
X331150Y363975D01*
X331950Y364375D01*
X331550Y363575D01*
X331950Y362775D01*
X331150Y363175D01*
X330350Y362775D01*
Y368775D02*
X330750Y369575D01*
X330350Y370375D01*
X331150Y369975D01*
X331950Y370375D01*
X331550Y369575D01*
X331950Y368775D01*
X331150Y369175D01*
X330350Y368775D01*
Y374775D02*
X330750Y375575D01*
X330350Y376375D01*
X331150Y375975D01*
X331950Y376375D01*
X331550Y375575D01*
X331950Y374775D01*
X331150Y375175D01*
X330350Y374775D01*
Y380775D02*
X330750Y381575D01*
X330350Y382375D01*
X331150Y381975D01*
X331950Y382375D01*
X331550Y381575D01*
X331950Y380775D01*
X331150Y381175D01*
X330350Y380775D01*
X300850Y365275D02*
X301250Y366075D01*
X300850Y366875D01*
X301650Y366475D01*
X302450Y366875D01*
X302050Y366075D01*
X302450Y365275D01*
X301650Y365675D01*
X300850Y365275D01*
X285350Y373775D02*
X285750Y374575D01*
X285350Y375375D01*
X286150Y374975D01*
X286950Y375375D01*
X286550Y374575D01*
X286950Y373775D01*
X286150Y374175D01*
X285350Y373775D01*
X295850D02*
X296250Y374575D01*
X295850Y375375D01*
X296650Y374975D01*
X297450Y375375D01*
X297050Y374575D01*
X297450Y373775D01*
X296650Y374175D01*
X295850Y373775D01*
X312697Y18381D02*
X311897Y19981D01*
X313497D01*
X312697Y18381D01*
X293602D02*
X292802Y19981D01*
X294402D01*
X293602Y18381D01*
X317421Y7830D02*
X317821Y8230D01*
X318221D01*
X317821Y8630D01*
X318221Y9030D01*
X317821D01*
X317421Y9430D01*
X317021Y9030D01*
X316621D01*
X317021Y8630D01*
X316621Y8230D01*
X317021D01*
X317421Y7830D01*
X288878D02*
X289278Y8230D01*
X289678D01*
X289278Y8630D01*
X289678Y9030D01*
X289278D01*
X288878Y9430D01*
X288478Y9030D01*
X288078D01*
X288478Y8630D01*
X288078Y8230D01*
X288478D01*
X288878Y7830D01*
X313350Y153200D02*
X313750Y154000D01*
X313350Y154800D01*
X314150Y154400D01*
X314950Y154800D01*
X314550Y154000D01*
X314950Y153200D01*
X314150Y153600D01*
X313350Y153200D01*
X310350Y173200D02*
X310750Y174000D01*
X310350Y174800D01*
X311150Y174400D01*
X311950Y174800D01*
X311550Y174000D01*
X311950Y173200D01*
X311150Y173600D01*
X310350Y173200D01*
X299350D02*
X299750Y174000D01*
X299350Y174800D01*
X300150Y174400D01*
X300950Y174800D01*
X300550Y174000D01*
X300950Y173200D01*
X300150Y173600D01*
X299350Y173200D01*
X274350Y193200D02*
X274750Y194000D01*
X274350Y194800D01*
X275150Y194400D01*
X275950Y194800D01*
X275550Y194000D01*
X275950Y193200D01*
X275150Y193600D01*
X274350Y193200D01*
X281350Y175200D02*
X281750Y176000D01*
X281350Y176800D01*
X282150Y176400D01*
X282950Y176800D01*
X282550Y176000D01*
X282950Y175200D01*
X282150Y175600D01*
X281350Y175200D01*
X274350D02*
X274750Y176000D01*
X274350Y176800D01*
X275150Y176400D01*
X275950Y176800D01*
X275550Y176000D01*
X275950Y175200D01*
X275150Y175600D01*
X274350Y175200D01*
X330350Y165200D02*
X330750Y166000D01*
X330350Y166800D01*
X331150Y166400D01*
X331950Y166800D01*
X331550Y166000D01*
X331950Y165200D01*
X331150Y165600D01*
X330350Y165200D01*
Y159200D02*
X330750Y160000D01*
X330350Y160800D01*
X331150Y160400D01*
X331950Y160800D01*
X331550Y160000D01*
X331950Y159200D01*
X331150Y159600D01*
X330350Y159200D01*
Y153200D02*
X330750Y154000D01*
X330350Y154800D01*
X331150Y154400D01*
X331950Y154800D01*
X331550Y154000D01*
X331950Y153200D01*
X331150Y153600D01*
X330350Y153200D01*
Y147200D02*
X330750Y148000D01*
X330350Y148800D01*
X331150Y148400D01*
X331950Y148800D01*
X331550Y148000D01*
X331950Y147200D01*
X331150Y147600D01*
X330350Y147200D01*
X274350Y165200D02*
X274750Y166000D01*
X274350Y166800D01*
X275150Y166400D01*
X275950Y166800D01*
X275550Y166000D01*
X275950Y165200D01*
X275150Y165600D01*
X274350Y165200D01*
Y159200D02*
X274750Y160000D01*
X274350Y160800D01*
X275150Y160400D01*
X275950Y160800D01*
X275550Y160000D01*
X275950Y159200D01*
X275150Y159600D01*
X274350Y159200D01*
Y153200D02*
X274750Y154000D01*
X274350Y154800D01*
X275150Y154400D01*
X275950Y154800D01*
X275550Y154000D01*
X275950Y153200D01*
X275150Y153600D01*
X274350Y153200D01*
Y147200D02*
X274750Y148000D01*
X274350Y148800D01*
X275150Y148400D01*
X275950Y148800D01*
X275550Y148000D01*
X275950Y147200D01*
X275150Y147600D01*
X274350Y147200D01*
X320350Y135200D02*
X320750Y136000D01*
X320350Y136800D01*
X321150Y136400D01*
X321950Y136800D01*
X321550Y136000D01*
X321950Y135200D01*
X321150Y135600D01*
X320350Y135200D01*
X314350D02*
X314750Y136000D01*
X314350Y136800D01*
X315150Y136400D01*
X315950Y136800D01*
X315550Y136000D01*
X315950Y135200D01*
X315150Y135600D01*
X314350Y135200D01*
X308350D02*
X308750Y136000D01*
X308350Y136800D01*
X309150Y136400D01*
X309950Y136800D01*
X309550Y136000D01*
X309950Y135200D01*
X309150Y135600D01*
X308350Y135200D01*
X302350D02*
X302750Y136000D01*
X302350Y136800D01*
X303150Y136400D01*
X303950Y136800D01*
X303550Y136000D01*
X303950Y135200D01*
X303150Y135600D01*
X302350Y135200D01*
X296350D02*
X296750Y136000D01*
X296350Y136800D01*
X297150Y136400D01*
X297950Y136800D01*
X297550Y136000D01*
X297950Y135200D01*
X297150Y135600D01*
X296350Y135200D01*
X290350D02*
X290750Y136000D01*
X290350Y136800D01*
X291150Y136400D01*
X291950Y136800D01*
X291550Y136000D01*
X291950Y135200D01*
X291150Y135600D01*
X290350Y135200D01*
X284350D02*
X284750Y136000D01*
X284350Y136800D01*
X285150Y136400D01*
X285950Y136800D01*
X285550Y136000D01*
X285950Y135200D01*
X285150Y135600D01*
X284350Y135200D01*
X330350Y79200D02*
X330750Y80000D01*
X330350Y80800D01*
X331150Y80400D01*
X331950Y80800D01*
X331550Y80000D01*
X331950Y79200D01*
X331150Y79600D01*
X330350Y79200D01*
Y85200D02*
X330750Y86000D01*
X330350Y86800D01*
X331150Y86400D01*
X331950Y86800D01*
X331550Y86000D01*
X331950Y85200D01*
X331150Y85600D01*
X330350Y85200D01*
Y91200D02*
X330750Y92000D01*
X330350Y92800D01*
X331150Y92400D01*
X331950Y92800D01*
X331550Y92000D01*
X331950Y91200D01*
X331150Y91600D01*
X330350Y91200D01*
Y109200D02*
X330750Y110000D01*
X330350Y110800D01*
X331150Y110400D01*
X331950Y110800D01*
X331550Y110000D01*
X331950Y109200D01*
X331150Y109600D01*
X330350Y109200D01*
Y103200D02*
X330750Y104000D01*
X330350Y104800D01*
X331150Y104400D01*
X331950Y104800D01*
X331550Y104000D01*
X331950Y103200D01*
X331150Y103600D01*
X330350Y103200D01*
X320350Y116200D02*
X320750Y117000D01*
X320350Y117800D01*
X321150Y117400D01*
X321950Y117800D01*
X321550Y117000D01*
X321950Y116200D01*
X321150Y116600D01*
X320350Y116200D01*
X314350D02*
X314750Y117000D01*
X314350Y117800D01*
X315150Y117400D01*
X315950Y117800D01*
X315550Y117000D01*
X315950Y116200D01*
X315150Y116600D01*
X314350Y116200D01*
X308350D02*
X308750Y117000D01*
X308350Y117800D01*
X309150Y117400D01*
X309950Y117800D01*
X309550Y117000D01*
X309950Y116200D01*
X309150Y116600D01*
X308350Y116200D01*
X328590Y66460D02*
X328990Y67260D01*
X328590Y68060D01*
X329390Y67660D01*
X330190Y68060D01*
X329790Y67260D01*
X330190Y66460D01*
X329390Y66860D01*
X328590Y66460D01*
X317750Y89600D02*
Y89200D01*
X318550D01*
Y89600D01*
X318950D01*
Y90400D01*
X318550D01*
Y90800D01*
X317750D01*
Y90400D01*
X317350D01*
Y89600D01*
X317750D01*
X301750Y96600D02*
Y96200D01*
X302550D01*
Y96600D01*
X302950D01*
Y97400D01*
X302550D01*
Y97800D01*
X301750D01*
Y97400D01*
X301350D01*
Y96600D01*
X301750D01*
X293750Y98600D02*
Y98200D01*
X294550D01*
Y98600D01*
X294950D01*
Y99400D01*
X294550D01*
Y99800D01*
X293750D01*
Y99400D01*
X293350D01*
Y98600D01*
X293750D01*
X298750Y103600D02*
Y103200D01*
X299550D01*
Y103600D01*
X299950D01*
Y104400D01*
X299550D01*
Y104800D01*
X298750D01*
Y104400D01*
X298350D01*
Y103600D01*
X298750D01*
X299850Y26200D02*
X300250Y27000D01*
X299850Y27800D01*
X300650Y27400D01*
X301450Y27800D01*
X301050Y27000D01*
X301450Y26200D01*
X300650Y26600D01*
X299850Y26200D01*
X326750Y43600D02*
Y43200D01*
X327550D01*
Y43600D01*
X327950D01*
Y44400D01*
X327550D01*
Y44800D01*
X326750D01*
Y44400D01*
X326350D01*
Y43600D01*
X326750D01*
X287750Y82600D02*
Y82200D01*
X288550D01*
Y82600D01*
X288950D01*
Y83400D01*
X288550D01*
Y83800D01*
X287750D01*
Y83400D01*
X287350D01*
Y82600D01*
X287750D01*
Y49100D02*
Y48700D01*
X288550D01*
Y49100D01*
X288950D01*
Y49900D01*
X288550D01*
Y50300D01*
X287750D01*
Y49900D01*
X287350D01*
Y49100D01*
X287750D01*
X308350Y66700D02*
X308750Y67500D01*
X308350Y68300D01*
X309150Y67900D01*
X309950Y68300D01*
X309550Y67500D01*
X309950Y66700D01*
X309150Y67100D01*
X308350Y66700D01*
X311350Y70200D02*
X311750Y71000D01*
X311350Y71800D01*
X312150Y71400D01*
X312950Y71800D01*
X312550Y71000D01*
X312950Y70200D01*
X312150Y70600D01*
X311350Y70200D01*
X304350Y26200D02*
X304750Y27000D01*
X304350Y27800D01*
X305150Y27400D01*
X305950Y27800D01*
X305550Y27000D01*
X305950Y26200D01*
X305150Y26600D01*
X304350Y26200D01*
X302250Y38840D02*
Y38440D01*
X303050D01*
Y38840D01*
X303450D01*
Y39640D01*
X303050D01*
Y40040D01*
X302250D01*
Y39640D01*
X301850D01*
Y38840D01*
X302250D01*
X324850Y67200D02*
X325250Y68000D01*
X324850Y68800D01*
X325650Y68400D01*
X326450Y68800D01*
X326050Y68000D01*
X326450Y67200D01*
X325650Y67600D01*
X324850Y67200D01*
X321850Y79700D02*
X322250Y80500D01*
X321850Y81300D01*
X322650Y80900D01*
X323450Y81300D01*
X323050Y80500D01*
X323450Y79700D01*
X322650Y80100D01*
X321850Y79700D01*
X317350Y49200D02*
X317750Y50000D01*
X317350Y50800D01*
X318150Y50400D01*
X318950Y50800D01*
X318550Y50000D01*
X318950Y49200D01*
X318150Y49600D01*
X317350Y49200D01*
X321350D02*
X321750Y50000D01*
X321350Y50800D01*
X322150Y50400D01*
X322950Y50800D01*
X322550Y50000D01*
X322950Y49200D01*
X322150Y49600D01*
X321350Y49200D01*
X305850Y56200D02*
X306250Y57000D01*
X305850Y57800D01*
X306650Y57400D01*
X307450Y57800D01*
X307050Y57000D01*
X307450Y56200D01*
X306650Y56600D01*
X305850Y56200D01*
Y62200D02*
X306250Y63000D01*
X305850Y63800D01*
X306650Y63400D01*
X307450Y63800D01*
X307050Y63000D01*
X307450Y62200D01*
X306650Y62600D01*
X305850Y62200D01*
X294850Y56200D02*
X295250Y57000D01*
X294850Y57800D01*
X295650Y57400D01*
X296450Y57800D01*
X296050Y57000D01*
X296450Y56200D01*
X295650Y56600D01*
X294850Y56200D01*
Y62200D02*
X295250Y63000D01*
X294850Y63800D01*
X295650Y63400D01*
X296450Y63800D01*
X296050Y63000D01*
X296450Y62200D01*
X295650Y62600D01*
X294850Y62200D01*
Y68200D02*
X295250Y69000D01*
X294850Y69800D01*
X295650Y69400D01*
X296450Y69800D01*
X296050Y69000D01*
X296450Y68200D01*
X295650Y68600D01*
X294850Y68200D01*
X290350Y116200D02*
X290750Y117000D01*
X290350Y117800D01*
X291150Y117400D01*
X291950Y117800D01*
X291550Y117000D01*
X291950Y116200D01*
X291150Y116600D01*
X290350Y116200D01*
X284350D02*
X284750Y117000D01*
X284350Y117800D01*
X285150Y117400D01*
X285950Y117800D01*
X285550Y117000D01*
X285950Y116200D01*
X285150Y116600D01*
X284350Y116200D01*
X274350Y109200D02*
X274750Y110000D01*
X274350Y110800D01*
X275150Y110400D01*
X275950Y110800D01*
X275550Y110000D01*
X275950Y109200D01*
X275150Y109600D01*
X274350Y109200D01*
X330350Y97200D02*
X330750Y98000D01*
X330350Y98800D01*
X331150Y98400D01*
X331950Y98800D01*
X331550Y98000D01*
X331950Y97200D01*
X331150Y97600D01*
X330350Y97200D01*
X274350Y103200D02*
X274750Y104000D01*
X274350Y104800D01*
X275150Y104400D01*
X275950Y104800D01*
X275550Y104000D01*
X275950Y103200D01*
X275150Y103600D01*
X274350Y103200D01*
Y97200D02*
X274750Y98000D01*
X274350Y98800D01*
X275150Y98400D01*
X275950Y98800D01*
X275550Y98000D01*
X275950Y97200D01*
X275150Y97600D01*
X274350Y97200D01*
Y91200D02*
X274750Y92000D01*
X274350Y92800D01*
X275150Y92400D01*
X275950Y92800D01*
X275550Y92000D01*
X275950Y91200D01*
X275150Y91600D01*
X274350Y91200D01*
Y85200D02*
X274750Y86000D01*
X274350Y86800D01*
X275150Y86400D01*
X275950Y86800D01*
X275550Y86000D01*
X275950Y85200D01*
X275150Y85600D01*
X274350Y85200D01*
Y79200D02*
X274750Y80000D01*
X274350Y80800D01*
X275150Y80400D01*
X275950Y80800D01*
X275550Y80000D01*
X275950Y79200D01*
X275150Y79600D01*
X274350Y79200D01*
Y73200D02*
X274750Y74000D01*
X274350Y74800D01*
X275150Y74400D01*
X275950Y74800D01*
X275550Y74000D01*
X275950Y73200D01*
X275150Y73600D01*
X274350Y73200D01*
X302350Y116200D02*
X302750Y117000D01*
X302350Y117800D01*
X303150Y117400D01*
X303950Y117800D01*
X303550Y117000D01*
X303950Y116200D01*
X303150Y116600D01*
X302350Y116200D01*
X274350Y67200D02*
X274750Y68000D01*
X274350Y68800D01*
X275150Y68400D01*
X275950Y68800D01*
X275550Y68000D01*
X275950Y67200D01*
X275150Y67600D01*
X274350Y67200D01*
Y61200D02*
X274750Y62000D01*
X274350Y62800D01*
X275150Y62400D01*
X275950Y62800D01*
X275550Y62000D01*
X275950Y61200D01*
X275150Y61600D01*
X274350Y61200D01*
Y55200D02*
X274750Y56000D01*
X274350Y56800D01*
X275150Y56400D01*
X275950Y56800D01*
X275550Y56000D01*
X275950Y55200D01*
X275150Y55600D01*
X274350Y55200D01*
Y49200D02*
X274750Y50000D01*
X274350Y50800D01*
X275150Y50400D01*
X275950Y50800D01*
X275550Y50000D01*
X275950Y49200D01*
X275150Y49600D01*
X274350Y49200D01*
X296350Y116200D02*
X296750Y117000D01*
X296350Y117800D01*
X297150Y117400D01*
X297950Y117800D01*
X297550Y117000D01*
X297950Y116200D01*
X297150Y116600D01*
X296350Y116200D01*
X274350Y43200D02*
X274750Y44000D01*
X274350Y44800D01*
X275150Y44400D01*
X275950Y44800D01*
X275550Y44000D01*
X275950Y43200D01*
X275150Y43600D01*
X274350Y43200D01*
Y37200D02*
X274750Y38000D01*
X274350Y38800D01*
X275150Y38400D01*
X275950Y38800D01*
X275550Y38000D01*
X275950Y37200D01*
X275150Y37600D01*
X274350Y37200D01*
Y31200D02*
X274750Y32000D01*
X274350Y32800D01*
X275150Y32400D01*
X275950Y32800D01*
X275550Y32000D01*
X275950Y31200D01*
X275150Y31600D01*
X274350Y31200D01*
Y25200D02*
X274750Y26000D01*
X274350Y26800D01*
X275150Y26400D01*
X275950Y26800D01*
X275550Y26000D01*
X275950Y25200D01*
X275150Y25600D01*
X274350Y25200D01*
Y19200D02*
X274750Y20000D01*
X274350Y20800D01*
X275150Y20400D01*
X275950Y20800D01*
X275550Y20000D01*
X275950Y19200D01*
X275150Y19600D01*
X274350Y19200D01*
X303850Y34700D02*
X304250Y35500D01*
X303850Y36300D01*
X304650Y35900D01*
X305450Y36300D01*
X305050Y35500D01*
X305450Y34700D01*
X304650Y35100D01*
X303850Y34700D01*
X319350Y26200D02*
X319750Y27000D01*
X319350Y27800D01*
X320150Y27400D01*
X320950Y27800D01*
X320550Y27000D01*
X320950Y26200D01*
X320150Y26600D01*
X319350Y26200D01*
X308850D02*
X309250Y27000D01*
X308850Y27800D01*
X309650Y27400D01*
X310450Y27800D01*
X310050Y27000D01*
X310450Y26200D01*
X309650Y26600D01*
X308850Y26200D01*
X249705Y18381D02*
X248905Y19981D01*
X250505D01*
X249705Y18381D01*
X230610D02*
X229810Y19981D01*
X231410D01*
X230610Y18381D01*
X254429Y7830D02*
X254829Y8230D01*
X255229D01*
X254829Y8630D01*
X255229Y9030D01*
X254829D01*
X254429Y9430D01*
X254029Y9030D01*
X253629D01*
X254029Y8630D01*
X253629Y8230D01*
X254029D01*
X254429Y7830D01*
X225886D02*
X226286Y8230D01*
X226686D01*
X226286Y8630D01*
X226686Y9030D01*
X226286D01*
X225886Y9430D01*
X225486Y9030D01*
X225086D01*
X225486Y8630D01*
X225086Y8230D01*
X225486D01*
X225886Y7830D01*
X250358Y153200D02*
X250758Y154000D01*
X250358Y154800D01*
X251157Y154400D01*
X251958Y154800D01*
X251557Y154000D01*
X251958Y153200D01*
X251157Y153600D01*
X250358Y153200D01*
X247358Y173200D02*
X247758Y174000D01*
X247358Y174800D01*
X248158Y174400D01*
X248957Y174800D01*
X248557Y174000D01*
X248957Y173200D01*
X248158Y173600D01*
X247358Y173200D01*
X236357D02*
X236757Y174000D01*
X236357Y174800D01*
X237158Y174400D01*
X237958Y174800D01*
X237558Y174000D01*
X237958Y173200D01*
X237158Y173600D01*
X236357Y173200D01*
X211357Y193200D02*
X211757Y194000D01*
X211357Y194800D01*
X212158Y194400D01*
X212958Y194800D01*
X212558Y194000D01*
X212958Y193200D01*
X212158Y193600D01*
X211357Y193200D01*
X218357Y175200D02*
X218758Y176000D01*
X218357Y176800D01*
X219158Y176400D01*
X219957Y176800D01*
X219557Y176000D01*
X219957Y175200D01*
X219158Y175600D01*
X218357Y175200D01*
X211357D02*
X211757Y176000D01*
X211357Y176800D01*
X212158Y176400D01*
X212958Y176800D01*
X212558Y176000D01*
X212958Y175200D01*
X212158Y175600D01*
X211357Y175200D01*
X267357Y165200D02*
X267758Y166000D01*
X267357Y166800D01*
X268158Y166400D01*
X268957Y166800D01*
X268558Y166000D01*
X268957Y165200D01*
X268158Y165600D01*
X267357Y165200D01*
Y159200D02*
X267758Y160000D01*
X267357Y160800D01*
X268158Y160400D01*
X268957Y160800D01*
X268558Y160000D01*
X268957Y159200D01*
X268158Y159600D01*
X267357Y159200D01*
Y153200D02*
X267758Y154000D01*
X267357Y154800D01*
X268158Y154400D01*
X268957Y154800D01*
X268558Y154000D01*
X268957Y153200D01*
X268158Y153600D01*
X267357Y153200D01*
Y147200D02*
X267758Y148000D01*
X267357Y148800D01*
X268158Y148400D01*
X268957Y148800D01*
X268558Y148000D01*
X268957Y147200D01*
X268158Y147600D01*
X267357Y147200D01*
X211357Y165200D02*
X211757Y166000D01*
X211357Y166800D01*
X212158Y166400D01*
X212958Y166800D01*
X212558Y166000D01*
X212958Y165200D01*
X212158Y165600D01*
X211357Y165200D01*
Y159200D02*
X211757Y160000D01*
X211357Y160800D01*
X212158Y160400D01*
X212958Y160800D01*
X212558Y160000D01*
X212958Y159200D01*
X212158Y159600D01*
X211357Y159200D01*
Y153200D02*
X211757Y154000D01*
X211357Y154800D01*
X212158Y154400D01*
X212958Y154800D01*
X212558Y154000D01*
X212958Y153200D01*
X212158Y153600D01*
X211357Y153200D01*
Y147200D02*
X211757Y148000D01*
X211357Y148800D01*
X212158Y148400D01*
X212958Y148800D01*
X212558Y148000D01*
X212958Y147200D01*
X212158Y147600D01*
X211357Y147200D01*
X257358Y135200D02*
X257757Y136000D01*
X257358Y136800D01*
X258157Y136400D01*
X258958Y136800D01*
X258558Y136000D01*
X258958Y135200D01*
X258157Y135600D01*
X257358Y135200D01*
X251358D02*
X251758Y136000D01*
X251358Y136800D01*
X252157Y136400D01*
X252958Y136800D01*
X252557Y136000D01*
X252958Y135200D01*
X252157Y135600D01*
X251358Y135200D01*
X245357D02*
X245758Y136000D01*
X245357Y136800D01*
X246158Y136400D01*
X246957Y136800D01*
X246557Y136000D01*
X246957Y135200D01*
X246158Y135600D01*
X245357Y135200D01*
X239357D02*
X239757Y136000D01*
X239357Y136800D01*
X240158Y136400D01*
X240957Y136800D01*
X240558Y136000D01*
X240957Y135200D01*
X240158Y135600D01*
X239357Y135200D01*
X233358D02*
X233757Y136000D01*
X233358Y136800D01*
X234157Y136400D01*
X234958Y136800D01*
X234558Y136000D01*
X234958Y135200D01*
X234157Y135600D01*
X233358Y135200D01*
X227358D02*
X227758Y136000D01*
X227358Y136800D01*
X228157Y136400D01*
X228958Y136800D01*
X228557Y136000D01*
X228958Y135200D01*
X228157Y135600D01*
X227358Y135200D01*
X221357D02*
X221758Y136000D01*
X221357Y136800D01*
X222158Y136400D01*
X222957Y136800D01*
X222557Y136000D01*
X222957Y135200D01*
X222158Y135600D01*
X221357Y135200D01*
X267357Y79200D02*
X267758Y80000D01*
X267357Y80800D01*
X268158Y80400D01*
X268957Y80800D01*
X268558Y80000D01*
X268957Y79200D01*
X268158Y79600D01*
X267357Y79200D01*
Y85200D02*
X267758Y86000D01*
X267357Y86800D01*
X268158Y86400D01*
X268957Y86800D01*
X268558Y86000D01*
X268957Y85200D01*
X268158Y85600D01*
X267357Y85200D01*
Y91200D02*
X267758Y92000D01*
X267357Y92800D01*
X268158Y92400D01*
X268957Y92800D01*
X268558Y92000D01*
X268957Y91200D01*
X268158Y91600D01*
X267357Y91200D01*
Y109200D02*
X267758Y110000D01*
X267357Y110800D01*
X268158Y110400D01*
X268957Y110800D01*
X268558Y110000D01*
X268957Y109200D01*
X268158Y109600D01*
X267357Y109200D01*
Y103200D02*
X267758Y104000D01*
X267357Y104800D01*
X268158Y104400D01*
X268957Y104800D01*
X268558Y104000D01*
X268957Y103200D01*
X268158Y103600D01*
X267357Y103200D01*
X257358Y116200D02*
X257757Y117000D01*
X257358Y117800D01*
X258157Y117400D01*
X258958Y117800D01*
X258558Y117000D01*
X258958Y116200D01*
X258157Y116600D01*
X257358Y116200D01*
X251358D02*
X251758Y117000D01*
X251358Y117800D01*
X252157Y117400D01*
X252958Y117800D01*
X252557Y117000D01*
X252958Y116200D01*
X252157Y116600D01*
X251358Y116200D01*
X245357D02*
X245758Y117000D01*
X245357Y117800D01*
X246158Y117400D01*
X246957Y117800D01*
X246557Y117000D01*
X246957Y116200D01*
X246158Y116600D01*
X245357Y116200D01*
X265598Y66460D02*
X265998Y67260D01*
X265598Y68060D01*
X266398Y67660D01*
X267198Y68060D01*
X266798Y67260D01*
X267198Y66460D01*
X266398Y66860D01*
X265598Y66460D01*
X254757Y89600D02*
Y89200D01*
X255557D01*
Y89600D01*
X255958D01*
Y90400D01*
X255557D01*
Y90800D01*
X254757D01*
Y90400D01*
X254358D01*
Y89600D01*
X254757D01*
X238757Y96600D02*
Y96200D01*
X239558D01*
Y96600D01*
X239957D01*
Y97400D01*
X239558D01*
Y97800D01*
X238757D01*
Y97400D01*
X238357D01*
Y96600D01*
X238757D01*
X230757Y98600D02*
Y98200D01*
X231557D01*
Y98600D01*
X231958D01*
Y99400D01*
X231557D01*
Y99800D01*
X230757D01*
Y99400D01*
X230358D01*
Y98600D01*
X230757D01*
X235757Y103600D02*
Y103200D01*
X236558D01*
Y103600D01*
X236958D01*
Y104400D01*
X236558D01*
Y104800D01*
X235757D01*
Y104400D01*
X235357D01*
Y103600D01*
X235757D01*
X236858Y26200D02*
X237258Y27000D01*
X236858Y27800D01*
X237657Y27400D01*
X238457Y27800D01*
X238057Y27000D01*
X238457Y26200D01*
X237657Y26600D01*
X236858Y26200D01*
X263757Y43600D02*
Y43200D01*
X264558D01*
Y43600D01*
X264957D01*
Y44400D01*
X264558D01*
Y44800D01*
X263757D01*
Y44400D01*
X263357D01*
Y43600D01*
X263757D01*
X224758Y82600D02*
Y82200D01*
X225557D01*
Y82600D01*
X225957D01*
Y83400D01*
X225557D01*
Y83800D01*
X224758D01*
Y83400D01*
X224358D01*
Y82600D01*
X224758D01*
Y49100D02*
Y48700D01*
X225557D01*
Y49100D01*
X225957D01*
Y49900D01*
X225557D01*
Y50300D01*
X224758D01*
Y49900D01*
X224358D01*
Y49100D01*
X224758D01*
X245357Y66700D02*
X245758Y67500D01*
X245357Y68300D01*
X246158Y67900D01*
X246957Y68300D01*
X246557Y67500D01*
X246957Y66700D01*
X246158Y67100D01*
X245357Y66700D01*
X248358Y70200D02*
X248758Y71000D01*
X248358Y71800D01*
X249158Y71400D01*
X249957Y71800D01*
X249557Y71000D01*
X249957Y70200D01*
X249158Y70600D01*
X248358Y70200D01*
X241357Y26200D02*
X241757Y27000D01*
X241357Y27800D01*
X242158Y27400D01*
X242957Y27800D01*
X242558Y27000D01*
X242957Y26200D01*
X242158Y26600D01*
X241357Y26200D01*
X239258Y38840D02*
Y38440D01*
X240057D01*
Y38840D01*
X240458D01*
Y39640D01*
X240057D01*
Y40040D01*
X239258D01*
Y39640D01*
X238858D01*
Y38840D01*
X239258D01*
X261858Y67200D02*
X262258Y68000D01*
X261858Y68800D01*
X262657Y68400D01*
X263457Y68800D01*
X263057Y68000D01*
X263457Y67200D01*
X262657Y67600D01*
X261858Y67200D01*
X258857Y79700D02*
X259258Y80500D01*
X258857Y81300D01*
X259658Y80900D01*
X260457Y81300D01*
X260057Y80500D01*
X260457Y79700D01*
X259658Y80100D01*
X258857Y79700D01*
X254358Y49200D02*
X254757Y50000D01*
X254358Y50800D01*
X255157Y50400D01*
X255958Y50800D01*
X255557Y50000D01*
X255958Y49200D01*
X255157Y49600D01*
X254358Y49200D01*
X258358D02*
X258757Y50000D01*
X258358Y50800D01*
X259157Y50400D01*
X259958Y50800D01*
X259558Y50000D01*
X259958Y49200D01*
X259157Y49600D01*
X258358Y49200D01*
X242858Y56200D02*
X243257Y57000D01*
X242858Y57800D01*
X243657Y57400D01*
X244458Y57800D01*
X244057Y57000D01*
X244458Y56200D01*
X243657Y56600D01*
X242858Y56200D01*
Y62200D02*
X243257Y63000D01*
X242858Y63800D01*
X243657Y63400D01*
X244458Y63800D01*
X244057Y63000D01*
X244458Y62200D01*
X243657Y62600D01*
X242858Y62200D01*
X231857Y56200D02*
X232258Y57000D01*
X231857Y57800D01*
X232658Y57400D01*
X233457Y57800D01*
X233057Y57000D01*
X233457Y56200D01*
X232658Y56600D01*
X231857Y56200D01*
Y62200D02*
X232258Y63000D01*
X231857Y63800D01*
X232658Y63400D01*
X233457Y63800D01*
X233057Y63000D01*
X233457Y62200D01*
X232658Y62600D01*
X231857Y62200D01*
Y68200D02*
X232258Y69000D01*
X231857Y69800D01*
X232658Y69400D01*
X233457Y69800D01*
X233057Y69000D01*
X233457Y68200D01*
X232658Y68600D01*
X231857Y68200D01*
X227358Y116200D02*
X227758Y117000D01*
X227358Y117800D01*
X228157Y117400D01*
X228958Y117800D01*
X228557Y117000D01*
X228958Y116200D01*
X228157Y116600D01*
X227358Y116200D01*
X221357D02*
X221758Y117000D01*
X221357Y117800D01*
X222158Y117400D01*
X222957Y117800D01*
X222557Y117000D01*
X222957Y116200D01*
X222158Y116600D01*
X221357Y116200D01*
X211357Y109200D02*
X211757Y110000D01*
X211357Y110800D01*
X212158Y110400D01*
X212958Y110800D01*
X212558Y110000D01*
X212958Y109200D01*
X212158Y109600D01*
X211357Y109200D01*
X267357Y97200D02*
X267758Y98000D01*
X267357Y98800D01*
X268158Y98400D01*
X268957Y98800D01*
X268558Y98000D01*
X268957Y97200D01*
X268158Y97600D01*
X267357Y97200D01*
X211357Y103200D02*
X211757Y104000D01*
X211357Y104800D01*
X212158Y104400D01*
X212958Y104800D01*
X212558Y104000D01*
X212958Y103200D01*
X212158Y103600D01*
X211357Y103200D01*
Y97200D02*
X211757Y98000D01*
X211357Y98800D01*
X212158Y98400D01*
X212958Y98800D01*
X212558Y98000D01*
X212958Y97200D01*
X212158Y97600D01*
X211357Y97200D01*
Y91200D02*
X211757Y92000D01*
X211357Y92800D01*
X212158Y92400D01*
X212958Y92800D01*
X212558Y92000D01*
X212958Y91200D01*
X212158Y91600D01*
X211357Y91200D01*
Y85200D02*
X211757Y86000D01*
X211357Y86800D01*
X212158Y86400D01*
X212958Y86800D01*
X212558Y86000D01*
X212958Y85200D01*
X212158Y85600D01*
X211357Y85200D01*
Y79200D02*
X211757Y80000D01*
X211357Y80800D01*
X212158Y80400D01*
X212958Y80800D01*
X212558Y80000D01*
X212958Y79200D01*
X212158Y79600D01*
X211357Y79200D01*
Y73200D02*
X211757Y74000D01*
X211357Y74800D01*
X212158Y74400D01*
X212958Y74800D01*
X212558Y74000D01*
X212958Y73200D01*
X212158Y73600D01*
X211357Y73200D01*
X239357Y116200D02*
X239757Y117000D01*
X239357Y117800D01*
X240158Y117400D01*
X240957Y117800D01*
X240558Y117000D01*
X240957Y116200D01*
X240158Y116600D01*
X239357Y116200D01*
X211357Y67200D02*
X211757Y68000D01*
X211357Y68800D01*
X212158Y68400D01*
X212958Y68800D01*
X212558Y68000D01*
X212958Y67200D01*
X212158Y67600D01*
X211357Y67200D01*
Y61200D02*
X211757Y62000D01*
X211357Y62800D01*
X212158Y62400D01*
X212958Y62800D01*
X212558Y62000D01*
X212958Y61200D01*
X212158Y61600D01*
X211357Y61200D01*
Y55200D02*
X211757Y56000D01*
X211357Y56800D01*
X212158Y56400D01*
X212958Y56800D01*
X212558Y56000D01*
X212958Y55200D01*
X212158Y55600D01*
X211357Y55200D01*
Y49200D02*
X211757Y50000D01*
X211357Y50800D01*
X212158Y50400D01*
X212958Y50800D01*
X212558Y50000D01*
X212958Y49200D01*
X212158Y49600D01*
X211357Y49200D01*
X233358Y116200D02*
X233757Y117000D01*
X233358Y117800D01*
X234157Y117400D01*
X234958Y117800D01*
X234558Y117000D01*
X234958Y116200D01*
X234157Y116600D01*
X233358Y116200D01*
X211357Y43200D02*
X211757Y44000D01*
X211357Y44800D01*
X212158Y44400D01*
X212958Y44800D01*
X212558Y44000D01*
X212958Y43200D01*
X212158Y43600D01*
X211357Y43200D01*
Y37200D02*
X211757Y38000D01*
X211357Y38800D01*
X212158Y38400D01*
X212958Y38800D01*
X212558Y38000D01*
X212958Y37200D01*
X212158Y37600D01*
X211357Y37200D01*
Y31200D02*
X211757Y32000D01*
X211357Y32800D01*
X212158Y32400D01*
X212958Y32800D01*
X212558Y32000D01*
X212958Y31200D01*
X212158Y31600D01*
X211357Y31200D01*
Y25200D02*
X211757Y26000D01*
X211357Y26800D01*
X212158Y26400D01*
X212958Y26800D01*
X212558Y26000D01*
X212958Y25200D01*
X212158Y25600D01*
X211357Y25200D01*
Y19200D02*
X211757Y20000D01*
X211357Y20800D01*
X212158Y20400D01*
X212958Y20800D01*
X212558Y20000D01*
X212958Y19200D01*
X212158Y19600D01*
X211357Y19200D01*
X240858Y34700D02*
X241258Y35500D01*
X240858Y36300D01*
X241657Y35900D01*
X242458Y36300D01*
X242057Y35500D01*
X242458Y34700D01*
X241657Y35100D01*
X240858Y34700D01*
X256358Y26200D02*
X256757Y27000D01*
X256358Y27800D01*
X257157Y27400D01*
X257958Y27800D01*
X257558Y27000D01*
X257958Y26200D01*
X257157Y26600D01*
X256358Y26200D01*
X245858D02*
X246257Y27000D01*
X245858Y27800D01*
X246657Y27400D01*
X247458Y27800D01*
X247058Y27000D01*
X247458Y26200D01*
X246657Y26600D01*
X245858Y26200D01*
X186713Y18381D02*
X185913Y19981D01*
X187513D01*
X186713Y18381D01*
X167618D02*
X166818Y19981D01*
X168418D01*
X167618Y18381D01*
X191437Y7830D02*
X191837Y8230D01*
X192237D01*
X191837Y8630D01*
X192237Y9030D01*
X191837D01*
X191437Y9430D01*
X191037Y9030D01*
X190637D01*
X191037Y8630D01*
X190637Y8230D01*
X191037D01*
X191437Y7830D01*
X162894D02*
X163294Y8230D01*
X163694D01*
X163294Y8630D01*
X163694Y9030D01*
X163294D01*
X162894Y9430D01*
X162494Y9030D01*
X162094D01*
X162494Y8630D01*
X162094Y8230D01*
X162494D01*
X162894Y7830D01*
X187365Y153200D02*
X187765Y154000D01*
X187365Y154800D01*
X188165Y154400D01*
X188965Y154800D01*
X188565Y154000D01*
X188965Y153200D01*
X188165Y153600D01*
X187365Y153200D01*
X184365Y173200D02*
X184765Y174000D01*
X184365Y174800D01*
X185165Y174400D01*
X185965Y174800D01*
X185565Y174000D01*
X185965Y173200D01*
X185165Y173600D01*
X184365Y173200D01*
X173365D02*
X173765Y174000D01*
X173365Y174800D01*
X174165Y174400D01*
X174965Y174800D01*
X174565Y174000D01*
X174965Y173200D01*
X174165Y173600D01*
X173365Y173200D01*
X148365Y193200D02*
X148765Y194000D01*
X148365Y194800D01*
X149165Y194400D01*
X149965Y194800D01*
X149565Y194000D01*
X149965Y193200D01*
X149165Y193600D01*
X148365Y193200D01*
X155365Y175200D02*
X155765Y176000D01*
X155365Y176800D01*
X156165Y176400D01*
X156965Y176800D01*
X156565Y176000D01*
X156965Y175200D01*
X156165Y175600D01*
X155365Y175200D01*
X148365D02*
X148765Y176000D01*
X148365Y176800D01*
X149165Y176400D01*
X149965Y176800D01*
X149565Y176000D01*
X149965Y175200D01*
X149165Y175600D01*
X148365Y175200D01*
X204365Y165200D02*
X204765Y166000D01*
X204365Y166800D01*
X205165Y166400D01*
X205965Y166800D01*
X205565Y166000D01*
X205965Y165200D01*
X205165Y165600D01*
X204365Y165200D01*
Y159200D02*
X204765Y160000D01*
X204365Y160800D01*
X205165Y160400D01*
X205965Y160800D01*
X205565Y160000D01*
X205965Y159200D01*
X205165Y159600D01*
X204365Y159200D01*
Y153200D02*
X204765Y154000D01*
X204365Y154800D01*
X205165Y154400D01*
X205965Y154800D01*
X205565Y154000D01*
X205965Y153200D01*
X205165Y153600D01*
X204365Y153200D01*
Y147200D02*
X204765Y148000D01*
X204365Y148800D01*
X205165Y148400D01*
X205965Y148800D01*
X205565Y148000D01*
X205965Y147200D01*
X205165Y147600D01*
X204365Y147200D01*
X148365Y165200D02*
X148765Y166000D01*
X148365Y166800D01*
X149165Y166400D01*
X149965Y166800D01*
X149565Y166000D01*
X149965Y165200D01*
X149165Y165600D01*
X148365Y165200D01*
Y159200D02*
X148765Y160000D01*
X148365Y160800D01*
X149165Y160400D01*
X149965Y160800D01*
X149565Y160000D01*
X149965Y159200D01*
X149165Y159600D01*
X148365Y159200D01*
Y153200D02*
X148765Y154000D01*
X148365Y154800D01*
X149165Y154400D01*
X149965Y154800D01*
X149565Y154000D01*
X149965Y153200D01*
X149165Y153600D01*
X148365Y153200D01*
Y147200D02*
X148765Y148000D01*
X148365Y148800D01*
X149165Y148400D01*
X149965Y148800D01*
X149565Y148000D01*
X149965Y147200D01*
X149165Y147600D01*
X148365Y147200D01*
X194365Y135200D02*
X194765Y136000D01*
X194365Y136800D01*
X195165Y136400D01*
X195965Y136800D01*
X195565Y136000D01*
X195965Y135200D01*
X195165Y135600D01*
X194365Y135200D01*
X188365D02*
X188765Y136000D01*
X188365Y136800D01*
X189165Y136400D01*
X189965Y136800D01*
X189565Y136000D01*
X189965Y135200D01*
X189165Y135600D01*
X188365Y135200D01*
X182365D02*
X182765Y136000D01*
X182365Y136800D01*
X183165Y136400D01*
X183965Y136800D01*
X183565Y136000D01*
X183965Y135200D01*
X183165Y135600D01*
X182365Y135200D01*
X176365D02*
X176765Y136000D01*
X176365Y136800D01*
X177165Y136400D01*
X177965Y136800D01*
X177565Y136000D01*
X177965Y135200D01*
X177165Y135600D01*
X176365Y135200D01*
X170365D02*
X170765Y136000D01*
X170365Y136800D01*
X171165Y136400D01*
X171965Y136800D01*
X171565Y136000D01*
X171965Y135200D01*
X171165Y135600D01*
X170365Y135200D01*
X164365D02*
X164765Y136000D01*
X164365Y136800D01*
X165165Y136400D01*
X165965Y136800D01*
X165565Y136000D01*
X165965Y135200D01*
X165165Y135600D01*
X164365Y135200D01*
X158365D02*
X158765Y136000D01*
X158365Y136800D01*
X159165Y136400D01*
X159965Y136800D01*
X159565Y136000D01*
X159965Y135200D01*
X159165Y135600D01*
X158365Y135200D01*
X204365Y79200D02*
X204765Y80000D01*
X204365Y80800D01*
X205165Y80400D01*
X205965Y80800D01*
X205565Y80000D01*
X205965Y79200D01*
X205165Y79600D01*
X204365Y79200D01*
Y85200D02*
X204765Y86000D01*
X204365Y86800D01*
X205165Y86400D01*
X205965Y86800D01*
X205565Y86000D01*
X205965Y85200D01*
X205165Y85600D01*
X204365Y85200D01*
Y91200D02*
X204765Y92000D01*
X204365Y92800D01*
X205165Y92400D01*
X205965Y92800D01*
X205565Y92000D01*
X205965Y91200D01*
X205165Y91600D01*
X204365Y91200D01*
Y109200D02*
X204765Y110000D01*
X204365Y110800D01*
X205165Y110400D01*
X205965Y110800D01*
X205565Y110000D01*
X205965Y109200D01*
X205165Y109600D01*
X204365Y109200D01*
Y103200D02*
X204765Y104000D01*
X204365Y104800D01*
X205165Y104400D01*
X205965Y104800D01*
X205565Y104000D01*
X205965Y103200D01*
X205165Y103600D01*
X204365Y103200D01*
X194365Y116200D02*
X194765Y117000D01*
X194365Y117800D01*
X195165Y117400D01*
X195965Y117800D01*
X195565Y117000D01*
X195965Y116200D01*
X195165Y116600D01*
X194365Y116200D01*
X188365D02*
X188765Y117000D01*
X188365Y117800D01*
X189165Y117400D01*
X189965Y117800D01*
X189565Y117000D01*
X189965Y116200D01*
X189165Y116600D01*
X188365Y116200D01*
X182365D02*
X182765Y117000D01*
X182365Y117800D01*
X183165Y117400D01*
X183965Y117800D01*
X183565Y117000D01*
X183965Y116200D01*
X183165Y116600D01*
X182365Y116200D01*
X202606Y66460D02*
X203006Y67260D01*
X202606Y68060D01*
X203405Y67660D01*
X204205Y68060D01*
X203805Y67260D01*
X204205Y66460D01*
X203405Y66860D01*
X202606Y66460D01*
X191765Y89600D02*
Y89200D01*
X192565D01*
Y89600D01*
X192965D01*
Y90400D01*
X192565D01*
Y90800D01*
X191765D01*
Y90400D01*
X191365D01*
Y89600D01*
X191765D01*
X175765Y96600D02*
Y96200D01*
X176565D01*
Y96600D01*
X176965D01*
Y97400D01*
X176565D01*
Y97800D01*
X175765D01*
Y97400D01*
X175365D01*
Y96600D01*
X175765D01*
X167765Y98600D02*
Y98200D01*
X168565D01*
Y98600D01*
X168965D01*
Y99400D01*
X168565D01*
Y99800D01*
X167765D01*
Y99400D01*
X167365D01*
Y98600D01*
X167765D01*
X172765Y103600D02*
Y103200D01*
X173565D01*
Y103600D01*
X173965D01*
Y104400D01*
X173565D01*
Y104800D01*
X172765D01*
Y104400D01*
X172365D01*
Y103600D01*
X172765D01*
X173865Y26200D02*
X174265Y27000D01*
X173865Y27800D01*
X174665Y27400D01*
X175465Y27800D01*
X175065Y27000D01*
X175465Y26200D01*
X174665Y26600D01*
X173865Y26200D01*
X200765Y43600D02*
Y43200D01*
X201565D01*
Y43600D01*
X201965D01*
Y44400D01*
X201565D01*
Y44800D01*
X200765D01*
Y44400D01*
X200365D01*
Y43600D01*
X200765D01*
X161765Y82600D02*
Y82200D01*
X162565D01*
Y82600D01*
X162965D01*
Y83400D01*
X162565D01*
Y83800D01*
X161765D01*
Y83400D01*
X161365D01*
Y82600D01*
X161765D01*
Y49100D02*
Y48700D01*
X162565D01*
Y49100D01*
X162965D01*
Y49900D01*
X162565D01*
Y50300D01*
X161765D01*
Y49900D01*
X161365D01*
Y49100D01*
X161765D01*
X182365Y66700D02*
X182765Y67500D01*
X182365Y68300D01*
X183165Y67900D01*
X183965Y68300D01*
X183565Y67500D01*
X183965Y66700D01*
X183165Y67100D01*
X182365Y66700D01*
X185365Y70200D02*
X185765Y71000D01*
X185365Y71800D01*
X186165Y71400D01*
X186965Y71800D01*
X186565Y71000D01*
X186965Y70200D01*
X186165Y70600D01*
X185365Y70200D01*
X178365Y26200D02*
X178765Y27000D01*
X178365Y27800D01*
X179165Y27400D01*
X179965Y27800D01*
X179565Y27000D01*
X179965Y26200D01*
X179165Y26600D01*
X178365Y26200D01*
X176265Y38840D02*
Y38440D01*
X177065D01*
Y38840D01*
X177465D01*
Y39640D01*
X177065D01*
Y40040D01*
X176265D01*
Y39640D01*
X175865D01*
Y38840D01*
X176265D01*
X198865Y67200D02*
X199265Y68000D01*
X198865Y68800D01*
X199665Y68400D01*
X200465Y68800D01*
X200065Y68000D01*
X200465Y67200D01*
X199665Y67600D01*
X198865Y67200D01*
X195865Y79700D02*
X196265Y80500D01*
X195865Y81300D01*
X196665Y80900D01*
X197465Y81300D01*
X197065Y80500D01*
X197465Y79700D01*
X196665Y80100D01*
X195865Y79700D01*
X191365Y49200D02*
X191765Y50000D01*
X191365Y50800D01*
X192165Y50400D01*
X192965Y50800D01*
X192565Y50000D01*
X192965Y49200D01*
X192165Y49600D01*
X191365Y49200D01*
X195365D02*
X195765Y50000D01*
X195365Y50800D01*
X196165Y50400D01*
X196965Y50800D01*
X196565Y50000D01*
X196965Y49200D01*
X196165Y49600D01*
X195365Y49200D01*
X179865Y56200D02*
X180265Y57000D01*
X179865Y57800D01*
X180665Y57400D01*
X181465Y57800D01*
X181065Y57000D01*
X181465Y56200D01*
X180665Y56600D01*
X179865Y56200D01*
Y62200D02*
X180265Y63000D01*
X179865Y63800D01*
X180665Y63400D01*
X181465Y63800D01*
X181065Y63000D01*
X181465Y62200D01*
X180665Y62600D01*
X179865Y62200D01*
X168865Y56200D02*
X169265Y57000D01*
X168865Y57800D01*
X169665Y57400D01*
X170465Y57800D01*
X170065Y57000D01*
X170465Y56200D01*
X169665Y56600D01*
X168865Y56200D01*
Y62200D02*
X169265Y63000D01*
X168865Y63800D01*
X169665Y63400D01*
X170465Y63800D01*
X170065Y63000D01*
X170465Y62200D01*
X169665Y62600D01*
X168865Y62200D01*
Y68200D02*
X169265Y69000D01*
X168865Y69800D01*
X169665Y69400D01*
X170465Y69800D01*
X170065Y69000D01*
X170465Y68200D01*
X169665Y68600D01*
X168865Y68200D01*
X164365Y116200D02*
X164765Y117000D01*
X164365Y117800D01*
X165165Y117400D01*
X165965Y117800D01*
X165565Y117000D01*
X165965Y116200D01*
X165165Y116600D01*
X164365Y116200D01*
X158365D02*
X158765Y117000D01*
X158365Y117800D01*
X159165Y117400D01*
X159965Y117800D01*
X159565Y117000D01*
X159965Y116200D01*
X159165Y116600D01*
X158365Y116200D01*
X148365Y109200D02*
X148765Y110000D01*
X148365Y110800D01*
X149165Y110400D01*
X149965Y110800D01*
X149565Y110000D01*
X149965Y109200D01*
X149165Y109600D01*
X148365Y109200D01*
X204365Y97200D02*
X204765Y98000D01*
X204365Y98800D01*
X205165Y98400D01*
X205965Y98800D01*
X205565Y98000D01*
X205965Y97200D01*
X205165Y97600D01*
X204365Y97200D01*
X148365Y103200D02*
X148765Y104000D01*
X148365Y104800D01*
X149165Y104400D01*
X149965Y104800D01*
X149565Y104000D01*
X149965Y103200D01*
X149165Y103600D01*
X148365Y103200D01*
Y97200D02*
X148765Y98000D01*
X148365Y98800D01*
X149165Y98400D01*
X149965Y98800D01*
X149565Y98000D01*
X149965Y97200D01*
X149165Y97600D01*
X148365Y97200D01*
Y91200D02*
X148765Y92000D01*
X148365Y92800D01*
X149165Y92400D01*
X149965Y92800D01*
X149565Y92000D01*
X149965Y91200D01*
X149165Y91600D01*
X148365Y91200D01*
Y85200D02*
X148765Y86000D01*
X148365Y86800D01*
X149165Y86400D01*
X149965Y86800D01*
X149565Y86000D01*
X149965Y85200D01*
X149165Y85600D01*
X148365Y85200D01*
Y79200D02*
X148765Y80000D01*
X148365Y80800D01*
X149165Y80400D01*
X149965Y80800D01*
X149565Y80000D01*
X149965Y79200D01*
X149165Y79600D01*
X148365Y79200D01*
Y73200D02*
X148765Y74000D01*
X148365Y74800D01*
X149165Y74400D01*
X149965Y74800D01*
X149565Y74000D01*
X149965Y73200D01*
X149165Y73600D01*
X148365Y73200D01*
X176365Y116200D02*
X176765Y117000D01*
X176365Y117800D01*
X177165Y117400D01*
X177965Y117800D01*
X177565Y117000D01*
X177965Y116200D01*
X177165Y116600D01*
X176365Y116200D01*
X148365Y67200D02*
X148765Y68000D01*
X148365Y68800D01*
X149165Y68400D01*
X149965Y68800D01*
X149565Y68000D01*
X149965Y67200D01*
X149165Y67600D01*
X148365Y67200D01*
Y61200D02*
X148765Y62000D01*
X148365Y62800D01*
X149165Y62400D01*
X149965Y62800D01*
X149565Y62000D01*
X149965Y61200D01*
X149165Y61600D01*
X148365Y61200D01*
Y55200D02*
X148765Y56000D01*
X148365Y56800D01*
X149165Y56400D01*
X149965Y56800D01*
X149565Y56000D01*
X149965Y55200D01*
X149165Y55600D01*
X148365Y55200D01*
Y49200D02*
X148765Y50000D01*
X148365Y50800D01*
X149165Y50400D01*
X149965Y50800D01*
X149565Y50000D01*
X149965Y49200D01*
X149165Y49600D01*
X148365Y49200D01*
X170365Y116200D02*
X170765Y117000D01*
X170365Y117800D01*
X171165Y117400D01*
X171965Y117800D01*
X171565Y117000D01*
X171965Y116200D01*
X171165Y116600D01*
X170365Y116200D01*
X148365Y43200D02*
X148765Y44000D01*
X148365Y44800D01*
X149165Y44400D01*
X149965Y44800D01*
X149565Y44000D01*
X149965Y43200D01*
X149165Y43600D01*
X148365Y43200D01*
Y37200D02*
X148765Y38000D01*
X148365Y38800D01*
X149165Y38400D01*
X149965Y38800D01*
X149565Y38000D01*
X149965Y37200D01*
X149165Y37600D01*
X148365Y37200D01*
Y31200D02*
X148765Y32000D01*
X148365Y32800D01*
X149165Y32400D01*
X149965Y32800D01*
X149565Y32000D01*
X149965Y31200D01*
X149165Y31600D01*
X148365Y31200D01*
Y25200D02*
X148765Y26000D01*
X148365Y26800D01*
X149165Y26400D01*
X149965Y26800D01*
X149565Y26000D01*
X149965Y25200D01*
X149165Y25600D01*
X148365Y25200D01*
Y19200D02*
X148765Y20000D01*
X148365Y20800D01*
X149165Y20400D01*
X149965Y20800D01*
X149565Y20000D01*
X149965Y19200D01*
X149165Y19600D01*
X148365Y19200D01*
X177865Y34700D02*
X178265Y35500D01*
X177865Y36300D01*
X178665Y35900D01*
X179465Y36300D01*
X179065Y35500D01*
X179465Y34700D01*
X178665Y35100D01*
X177865Y34700D01*
X193365Y26200D02*
X193765Y27000D01*
X193365Y27800D01*
X194165Y27400D01*
X194965Y27800D01*
X194565Y27000D01*
X194965Y26200D01*
X194165Y26600D01*
X193365Y26200D01*
X182865D02*
X183265Y27000D01*
X182865Y27800D01*
X183665Y27400D01*
X184465Y27800D01*
X184065Y27000D01*
X184465Y26200D01*
X183665Y26600D01*
X182865Y26200D01*
X123721Y18381D02*
X122921Y19981D01*
X124521D01*
X123721Y18381D01*
X104626D02*
X103826Y19981D01*
X105426D01*
X104626Y18381D01*
X128445Y7830D02*
X128845Y8230D01*
X129245D01*
X128845Y8630D01*
X129245Y9030D01*
X128845D01*
X128445Y9430D01*
X128045Y9030D01*
X127645D01*
X128045Y8630D01*
X127645Y8230D01*
X128045D01*
X128445Y7830D01*
X99902D02*
X100302Y8230D01*
X100702D01*
X100302Y8630D01*
X100702Y9030D01*
X100302D01*
X99902Y9430D01*
X99502Y9030D01*
X99102D01*
X99502Y8630D01*
X99102Y8230D01*
X99502D01*
X99902Y7830D01*
X124373Y153200D02*
X124773Y154000D01*
X124373Y154800D01*
X125173Y154400D01*
X125973Y154800D01*
X125573Y154000D01*
X125973Y153200D01*
X125173Y153600D01*
X124373Y153200D01*
X121373Y173200D02*
X121773Y174000D01*
X121373Y174800D01*
X122173Y174400D01*
X122973Y174800D01*
X122573Y174000D01*
X122973Y173200D01*
X122173Y173600D01*
X121373Y173200D01*
X110373D02*
X110773Y174000D01*
X110373Y174800D01*
X111173Y174400D01*
X111973Y174800D01*
X111573Y174000D01*
X111973Y173200D01*
X111173Y173600D01*
X110373Y173200D01*
X85373Y193200D02*
X85773Y194000D01*
X85373Y194800D01*
X86173Y194400D01*
X86973Y194800D01*
X86573Y194000D01*
X86973Y193200D01*
X86173Y193600D01*
X85373Y193200D01*
X92373Y175200D02*
X92773Y176000D01*
X92373Y176800D01*
X93173Y176400D01*
X93973Y176800D01*
X93573Y176000D01*
X93973Y175200D01*
X93173Y175600D01*
X92373Y175200D01*
X85373D02*
X85773Y176000D01*
X85373Y176800D01*
X86173Y176400D01*
X86973Y176800D01*
X86573Y176000D01*
X86973Y175200D01*
X86173Y175600D01*
X85373Y175200D01*
X141373Y165200D02*
X141773Y166000D01*
X141373Y166800D01*
X142173Y166400D01*
X142973Y166800D01*
X142573Y166000D01*
X142973Y165200D01*
X142173Y165600D01*
X141373Y165200D01*
Y159200D02*
X141773Y160000D01*
X141373Y160800D01*
X142173Y160400D01*
X142973Y160800D01*
X142573Y160000D01*
X142973Y159200D01*
X142173Y159600D01*
X141373Y159200D01*
Y153200D02*
X141773Y154000D01*
X141373Y154800D01*
X142173Y154400D01*
X142973Y154800D01*
X142573Y154000D01*
X142973Y153200D01*
X142173Y153600D01*
X141373Y153200D01*
Y147200D02*
X141773Y148000D01*
X141373Y148800D01*
X142173Y148400D01*
X142973Y148800D01*
X142573Y148000D01*
X142973Y147200D01*
X142173Y147600D01*
X141373Y147200D01*
X85373Y165200D02*
X85773Y166000D01*
X85373Y166800D01*
X86173Y166400D01*
X86973Y166800D01*
X86573Y166000D01*
X86973Y165200D01*
X86173Y165600D01*
X85373Y165200D01*
Y159200D02*
X85773Y160000D01*
X85373Y160800D01*
X86173Y160400D01*
X86973Y160800D01*
X86573Y160000D01*
X86973Y159200D01*
X86173Y159600D01*
X85373Y159200D01*
Y153200D02*
X85773Y154000D01*
X85373Y154800D01*
X86173Y154400D01*
X86973Y154800D01*
X86573Y154000D01*
X86973Y153200D01*
X86173Y153600D01*
X85373Y153200D01*
Y147200D02*
X85773Y148000D01*
X85373Y148800D01*
X86173Y148400D01*
X86973Y148800D01*
X86573Y148000D01*
X86973Y147200D01*
X86173Y147600D01*
X85373Y147200D01*
X131373Y135200D02*
X131773Y136000D01*
X131373Y136800D01*
X132173Y136400D01*
X132973Y136800D01*
X132573Y136000D01*
X132973Y135200D01*
X132173Y135600D01*
X131373Y135200D01*
X125373D02*
X125773Y136000D01*
X125373Y136800D01*
X126173Y136400D01*
X126973Y136800D01*
X126573Y136000D01*
X126973Y135200D01*
X126173Y135600D01*
X125373Y135200D01*
X119373D02*
X119773Y136000D01*
X119373Y136800D01*
X120173Y136400D01*
X120973Y136800D01*
X120573Y136000D01*
X120973Y135200D01*
X120173Y135600D01*
X119373Y135200D01*
X113373D02*
X113773Y136000D01*
X113373Y136800D01*
X114173Y136400D01*
X114973Y136800D01*
X114573Y136000D01*
X114973Y135200D01*
X114173Y135600D01*
X113373Y135200D01*
X107373D02*
X107773Y136000D01*
X107373Y136800D01*
X108173Y136400D01*
X108973Y136800D01*
X108573Y136000D01*
X108973Y135200D01*
X108173Y135600D01*
X107373Y135200D01*
X101373D02*
X101773Y136000D01*
X101373Y136800D01*
X102173Y136400D01*
X102973Y136800D01*
X102573Y136000D01*
X102973Y135200D01*
X102173Y135600D01*
X101373Y135200D01*
X95373D02*
X95773Y136000D01*
X95373Y136800D01*
X96173Y136400D01*
X96973Y136800D01*
X96573Y136000D01*
X96973Y135200D01*
X96173Y135600D01*
X95373Y135200D01*
X141373Y79200D02*
X141773Y80000D01*
X141373Y80800D01*
X142173Y80400D01*
X142973Y80800D01*
X142573Y80000D01*
X142973Y79200D01*
X142173Y79600D01*
X141373Y79200D01*
Y85200D02*
X141773Y86000D01*
X141373Y86800D01*
X142173Y86400D01*
X142973Y86800D01*
X142573Y86000D01*
X142973Y85200D01*
X142173Y85600D01*
X141373Y85200D01*
Y91200D02*
X141773Y92000D01*
X141373Y92800D01*
X142173Y92400D01*
X142973Y92800D01*
X142573Y92000D01*
X142973Y91200D01*
X142173Y91600D01*
X141373Y91200D01*
Y109200D02*
X141773Y110000D01*
X141373Y110800D01*
X142173Y110400D01*
X142973Y110800D01*
X142573Y110000D01*
X142973Y109200D01*
X142173Y109600D01*
X141373Y109200D01*
Y103200D02*
X141773Y104000D01*
X141373Y104800D01*
X142173Y104400D01*
X142973Y104800D01*
X142573Y104000D01*
X142973Y103200D01*
X142173Y103600D01*
X141373Y103200D01*
X131373Y116200D02*
X131773Y117000D01*
X131373Y117800D01*
X132173Y117400D01*
X132973Y117800D01*
X132573Y117000D01*
X132973Y116200D01*
X132173Y116600D01*
X131373Y116200D01*
X125373D02*
X125773Y117000D01*
X125373Y117800D01*
X126173Y117400D01*
X126973Y117800D01*
X126573Y117000D01*
X126973Y116200D01*
X126173Y116600D01*
X125373Y116200D01*
X119373D02*
X119773Y117000D01*
X119373Y117800D01*
X120173Y117400D01*
X120973Y117800D01*
X120573Y117000D01*
X120973Y116200D01*
X120173Y116600D01*
X119373Y116200D01*
X139613Y66460D02*
X140013Y67260D01*
X139613Y68060D01*
X140413Y67660D01*
X141213Y68060D01*
X140813Y67260D01*
X141213Y66460D01*
X140413Y66860D01*
X139613Y66460D01*
X128773Y89600D02*
Y89200D01*
X129573D01*
Y89600D01*
X129973D01*
Y90400D01*
X129573D01*
Y90800D01*
X128773D01*
Y90400D01*
X128373D01*
Y89600D01*
X128773D01*
X112773Y96600D02*
Y96200D01*
X113573D01*
Y96600D01*
X113973D01*
Y97400D01*
X113573D01*
Y97800D01*
X112773D01*
Y97400D01*
X112373D01*
Y96600D01*
X112773D01*
X104773Y98600D02*
Y98200D01*
X105573D01*
Y98600D01*
X105973D01*
Y99400D01*
X105573D01*
Y99800D01*
X104773D01*
Y99400D01*
X104373D01*
Y98600D01*
X104773D01*
X109773Y103600D02*
Y103200D01*
X110573D01*
Y103600D01*
X110973D01*
Y104400D01*
X110573D01*
Y104800D01*
X109773D01*
Y104400D01*
X109373D01*
Y103600D01*
X109773D01*
X110873Y26200D02*
X111273Y27000D01*
X110873Y27800D01*
X111673Y27400D01*
X112473Y27800D01*
X112073Y27000D01*
X112473Y26200D01*
X111673Y26600D01*
X110873Y26200D01*
X137773Y43600D02*
Y43200D01*
X138573D01*
Y43600D01*
X138973D01*
Y44400D01*
X138573D01*
Y44800D01*
X137773D01*
Y44400D01*
X137373D01*
Y43600D01*
X137773D01*
X98773Y82600D02*
Y82200D01*
X99573D01*
Y82600D01*
X99973D01*
Y83400D01*
X99573D01*
Y83800D01*
X98773D01*
Y83400D01*
X98373D01*
Y82600D01*
X98773D01*
Y49100D02*
Y48700D01*
X99573D01*
Y49100D01*
X99973D01*
Y49900D01*
X99573D01*
Y50300D01*
X98773D01*
Y49900D01*
X98373D01*
Y49100D01*
X98773D01*
X119373Y66700D02*
X119773Y67500D01*
X119373Y68300D01*
X120173Y67900D01*
X120973Y68300D01*
X120573Y67500D01*
X120973Y66700D01*
X120173Y67100D01*
X119373Y66700D01*
X122373Y70200D02*
X122773Y71000D01*
X122373Y71800D01*
X123173Y71400D01*
X123973Y71800D01*
X123573Y71000D01*
X123973Y70200D01*
X123173Y70600D01*
X122373Y70200D01*
X115373Y26200D02*
X115773Y27000D01*
X115373Y27800D01*
X116173Y27400D01*
X116973Y27800D01*
X116573Y27000D01*
X116973Y26200D01*
X116173Y26600D01*
X115373Y26200D01*
X113273Y38840D02*
Y38440D01*
X114073D01*
Y38840D01*
X114473D01*
Y39640D01*
X114073D01*
Y40040D01*
X113273D01*
Y39640D01*
X112873D01*
Y38840D01*
X113273D01*
X135873Y67200D02*
X136273Y68000D01*
X135873Y68800D01*
X136673Y68400D01*
X137473Y68800D01*
X137073Y68000D01*
X137473Y67200D01*
X136673Y67600D01*
X135873Y67200D01*
X132873Y79700D02*
X133273Y80500D01*
X132873Y81300D01*
X133673Y80900D01*
X134473Y81300D01*
X134073Y80500D01*
X134473Y79700D01*
X133673Y80100D01*
X132873Y79700D01*
X128373Y49200D02*
X128773Y50000D01*
X128373Y50800D01*
X129173Y50400D01*
X129973Y50800D01*
X129573Y50000D01*
X129973Y49200D01*
X129173Y49600D01*
X128373Y49200D01*
X132373D02*
X132773Y50000D01*
X132373Y50800D01*
X133173Y50400D01*
X133973Y50800D01*
X133573Y50000D01*
X133973Y49200D01*
X133173Y49600D01*
X132373Y49200D01*
X116873Y56200D02*
X117273Y57000D01*
X116873Y57800D01*
X117673Y57400D01*
X118473Y57800D01*
X118073Y57000D01*
X118473Y56200D01*
X117673Y56600D01*
X116873Y56200D01*
Y62200D02*
X117273Y63000D01*
X116873Y63800D01*
X117673Y63400D01*
X118473Y63800D01*
X118073Y63000D01*
X118473Y62200D01*
X117673Y62600D01*
X116873Y62200D01*
X105873Y56200D02*
X106273Y57000D01*
X105873Y57800D01*
X106673Y57400D01*
X107473Y57800D01*
X107073Y57000D01*
X107473Y56200D01*
X106673Y56600D01*
X105873Y56200D01*
Y62200D02*
X106273Y63000D01*
X105873Y63800D01*
X106673Y63400D01*
X107473Y63800D01*
X107073Y63000D01*
X107473Y62200D01*
X106673Y62600D01*
X105873Y62200D01*
Y68200D02*
X106273Y69000D01*
X105873Y69800D01*
X106673Y69400D01*
X107473Y69800D01*
X107073Y69000D01*
X107473Y68200D01*
X106673Y68600D01*
X105873Y68200D01*
X101373Y116200D02*
X101773Y117000D01*
X101373Y117800D01*
X102173Y117400D01*
X102973Y117800D01*
X102573Y117000D01*
X102973Y116200D01*
X102173Y116600D01*
X101373Y116200D01*
X95373D02*
X95773Y117000D01*
X95373Y117800D01*
X96173Y117400D01*
X96973Y117800D01*
X96573Y117000D01*
X96973Y116200D01*
X96173Y116600D01*
X95373Y116200D01*
X85373Y109200D02*
X85773Y110000D01*
X85373Y110800D01*
X86173Y110400D01*
X86973Y110800D01*
X86573Y110000D01*
X86973Y109200D01*
X86173Y109600D01*
X85373Y109200D01*
X141373Y97200D02*
X141773Y98000D01*
X141373Y98800D01*
X142173Y98400D01*
X142973Y98800D01*
X142573Y98000D01*
X142973Y97200D01*
X142173Y97600D01*
X141373Y97200D01*
X85373Y103200D02*
X85773Y104000D01*
X85373Y104800D01*
X86173Y104400D01*
X86973Y104800D01*
X86573Y104000D01*
X86973Y103200D01*
X86173Y103600D01*
X85373Y103200D01*
Y97200D02*
X85773Y98000D01*
X85373Y98800D01*
X86173Y98400D01*
X86973Y98800D01*
X86573Y98000D01*
X86973Y97200D01*
X86173Y97600D01*
X85373Y97200D01*
Y91200D02*
X85773Y92000D01*
X85373Y92800D01*
X86173Y92400D01*
X86973Y92800D01*
X86573Y92000D01*
X86973Y91200D01*
X86173Y91600D01*
X85373Y91200D01*
Y85200D02*
X85773Y86000D01*
X85373Y86800D01*
X86173Y86400D01*
X86973Y86800D01*
X86573Y86000D01*
X86973Y85200D01*
X86173Y85600D01*
X85373Y85200D01*
Y79200D02*
X85773Y80000D01*
X85373Y80800D01*
X86173Y80400D01*
X86973Y80800D01*
X86573Y80000D01*
X86973Y79200D01*
X86173Y79600D01*
X85373Y79200D01*
Y73200D02*
X85773Y74000D01*
X85373Y74800D01*
X86173Y74400D01*
X86973Y74800D01*
X86573Y74000D01*
X86973Y73200D01*
X86173Y73600D01*
X85373Y73200D01*
X113373Y116200D02*
X113773Y117000D01*
X113373Y117800D01*
X114173Y117400D01*
X114973Y117800D01*
X114573Y117000D01*
X114973Y116200D01*
X114173Y116600D01*
X113373Y116200D01*
X85373Y67200D02*
X85773Y68000D01*
X85373Y68800D01*
X86173Y68400D01*
X86973Y68800D01*
X86573Y68000D01*
X86973Y67200D01*
X86173Y67600D01*
X85373Y67200D01*
Y61200D02*
X85773Y62000D01*
X85373Y62800D01*
X86173Y62400D01*
X86973Y62800D01*
X86573Y62000D01*
X86973Y61200D01*
X86173Y61600D01*
X85373Y61200D01*
Y55200D02*
X85773Y56000D01*
X85373Y56800D01*
X86173Y56400D01*
X86973Y56800D01*
X86573Y56000D01*
X86973Y55200D01*
X86173Y55600D01*
X85373Y55200D01*
Y49200D02*
X85773Y50000D01*
X85373Y50800D01*
X86173Y50400D01*
X86973Y50800D01*
X86573Y50000D01*
X86973Y49200D01*
X86173Y49600D01*
X85373Y49200D01*
X107373Y116200D02*
X107773Y117000D01*
X107373Y117800D01*
X108173Y117400D01*
X108973Y117800D01*
X108573Y117000D01*
X108973Y116200D01*
X108173Y116600D01*
X107373Y116200D01*
X85373Y43200D02*
X85773Y44000D01*
X85373Y44800D01*
X86173Y44400D01*
X86973Y44800D01*
X86573Y44000D01*
X86973Y43200D01*
X86173Y43600D01*
X85373Y43200D01*
Y37200D02*
X85773Y38000D01*
X85373Y38800D01*
X86173Y38400D01*
X86973Y38800D01*
X86573Y38000D01*
X86973Y37200D01*
X86173Y37600D01*
X85373Y37200D01*
Y31200D02*
X85773Y32000D01*
X85373Y32800D01*
X86173Y32400D01*
X86973Y32800D01*
X86573Y32000D01*
X86973Y31200D01*
X86173Y31600D01*
X85373Y31200D01*
Y25200D02*
X85773Y26000D01*
X85373Y26800D01*
X86173Y26400D01*
X86973Y26800D01*
X86573Y26000D01*
X86973Y25200D01*
X86173Y25600D01*
X85373Y25200D01*
Y19200D02*
X85773Y20000D01*
X85373Y20800D01*
X86173Y20400D01*
X86973Y20800D01*
X86573Y20000D01*
X86973Y19200D01*
X86173Y19600D01*
X85373Y19200D01*
X114873Y34700D02*
X115273Y35500D01*
X114873Y36300D01*
X115673Y35900D01*
X116473Y36300D01*
X116073Y35500D01*
X116473Y34700D01*
X115673Y35100D01*
X114873Y34700D01*
X130373Y26200D02*
X130773Y27000D01*
X130373Y27800D01*
X131173Y27400D01*
X131973Y27800D01*
X131573Y27000D01*
X131973Y26200D01*
X131173Y26600D01*
X130373Y26200D01*
X119873D02*
X120273Y27000D01*
X119873Y27800D01*
X120673Y27400D01*
X121473Y27800D01*
X121073Y27000D01*
X121473Y26200D01*
X120673Y26600D01*
X119873Y26200D01*
X60728Y18381D02*
X59928Y19981D01*
X61528D01*
X60728Y18381D01*
X41634D02*
X40834Y19981D01*
X42434D01*
X41634Y18381D01*
X65453Y7830D02*
X65853Y8230D01*
X66253D01*
X65853Y8630D01*
X66253Y9030D01*
X65853D01*
X65453Y9430D01*
X65053Y9030D01*
X64653D01*
X65053Y8630D01*
X64653Y8230D01*
X65053D01*
X65453Y7830D01*
X36909D02*
X37309Y8230D01*
X37709D01*
X37309Y8630D01*
X37709Y9030D01*
X37309D01*
X36909Y9430D01*
X36509Y9030D01*
X36109D01*
X36509Y8630D01*
X36109Y8230D01*
X36509D01*
X36909Y7830D01*
X61381Y153200D02*
X61781Y154000D01*
X61381Y154800D01*
X62181Y154400D01*
X62981Y154800D01*
X62581Y154000D01*
X62981Y153200D01*
X62181Y153600D01*
X61381Y153200D01*
X58381Y173200D02*
X58781Y174000D01*
X58381Y174800D01*
X59181Y174400D01*
X59981Y174800D01*
X59581Y174000D01*
X59981Y173200D01*
X59181Y173600D01*
X58381Y173200D01*
X47381D02*
X47781Y174000D01*
X47381Y174800D01*
X48181Y174400D01*
X48981Y174800D01*
X48581Y174000D01*
X48981Y173200D01*
X48181Y173600D01*
X47381Y173200D01*
X22381Y193200D02*
X22781Y194000D01*
X22381Y194800D01*
X23181Y194400D01*
X23981Y194800D01*
X23581Y194000D01*
X23981Y193200D01*
X23181Y193600D01*
X22381Y193200D01*
X29381Y175200D02*
X29781Y176000D01*
X29381Y176800D01*
X30181Y176400D01*
X30981Y176800D01*
X30581Y176000D01*
X30981Y175200D01*
X30181Y175600D01*
X29381Y175200D01*
X22381D02*
X22781Y176000D01*
X22381Y176800D01*
X23181Y176400D01*
X23981Y176800D01*
X23581Y176000D01*
X23981Y175200D01*
X23181Y175600D01*
X22381Y175200D01*
X78381Y165200D02*
X78781Y166000D01*
X78381Y166800D01*
X79181Y166400D01*
X79981Y166800D01*
X79581Y166000D01*
X79981Y165200D01*
X79181Y165600D01*
X78381Y165200D01*
Y159200D02*
X78781Y160000D01*
X78381Y160800D01*
X79181Y160400D01*
X79981Y160800D01*
X79581Y160000D01*
X79981Y159200D01*
X79181Y159600D01*
X78381Y159200D01*
Y153200D02*
X78781Y154000D01*
X78381Y154800D01*
X79181Y154400D01*
X79981Y154800D01*
X79581Y154000D01*
X79981Y153200D01*
X79181Y153600D01*
X78381Y153200D01*
Y147200D02*
X78781Y148000D01*
X78381Y148800D01*
X79181Y148400D01*
X79981Y148800D01*
X79581Y148000D01*
X79981Y147200D01*
X79181Y147600D01*
X78381Y147200D01*
X22381Y165200D02*
X22781Y166000D01*
X22381Y166800D01*
X23181Y166400D01*
X23981Y166800D01*
X23581Y166000D01*
X23981Y165200D01*
X23181Y165600D01*
X22381Y165200D01*
Y159200D02*
X22781Y160000D01*
X22381Y160800D01*
X23181Y160400D01*
X23981Y160800D01*
X23581Y160000D01*
X23981Y159200D01*
X23181Y159600D01*
X22381Y159200D01*
Y153200D02*
X22781Y154000D01*
X22381Y154800D01*
X23181Y154400D01*
X23981Y154800D01*
X23581Y154000D01*
X23981Y153200D01*
X23181Y153600D01*
X22381Y153200D01*
Y147200D02*
X22781Y148000D01*
X22381Y148800D01*
X23181Y148400D01*
X23981Y148800D01*
X23581Y148000D01*
X23981Y147200D01*
X23181Y147600D01*
X22381Y147200D01*
X68381Y135200D02*
X68781Y136000D01*
X68381Y136800D01*
X69181Y136400D01*
X69981Y136800D01*
X69581Y136000D01*
X69981Y135200D01*
X69181Y135600D01*
X68381Y135200D01*
X62381D02*
X62781Y136000D01*
X62381Y136800D01*
X63181Y136400D01*
X63981Y136800D01*
X63581Y136000D01*
X63981Y135200D01*
X63181Y135600D01*
X62381Y135200D01*
X56381D02*
X56781Y136000D01*
X56381Y136800D01*
X57181Y136400D01*
X57981Y136800D01*
X57581Y136000D01*
X57981Y135200D01*
X57181Y135600D01*
X56381Y135200D01*
X50381D02*
X50781Y136000D01*
X50381Y136800D01*
X51181Y136400D01*
X51981Y136800D01*
X51581Y136000D01*
X51981Y135200D01*
X51181Y135600D01*
X50381Y135200D01*
X44381D02*
X44781Y136000D01*
X44381Y136800D01*
X45181Y136400D01*
X45981Y136800D01*
X45581Y136000D01*
X45981Y135200D01*
X45181Y135600D01*
X44381Y135200D01*
X38381D02*
X38781Y136000D01*
X38381Y136800D01*
X39181Y136400D01*
X39981Y136800D01*
X39581Y136000D01*
X39981Y135200D01*
X39181Y135600D01*
X38381Y135200D01*
X32381D02*
X32781Y136000D01*
X32381Y136800D01*
X33181Y136400D01*
X33981Y136800D01*
X33581Y136000D01*
X33981Y135200D01*
X33181Y135600D01*
X32381Y135200D01*
X78381Y79200D02*
X78781Y80000D01*
X78381Y80800D01*
X79181Y80400D01*
X79981Y80800D01*
X79581Y80000D01*
X79981Y79200D01*
X79181Y79600D01*
X78381Y79200D01*
Y85200D02*
X78781Y86000D01*
X78381Y86800D01*
X79181Y86400D01*
X79981Y86800D01*
X79581Y86000D01*
X79981Y85200D01*
X79181Y85600D01*
X78381Y85200D01*
Y91200D02*
X78781Y92000D01*
X78381Y92800D01*
X79181Y92400D01*
X79981Y92800D01*
X79581Y92000D01*
X79981Y91200D01*
X79181Y91600D01*
X78381Y91200D01*
Y109200D02*
X78781Y110000D01*
X78381Y110800D01*
X79181Y110400D01*
X79981Y110800D01*
X79581Y110000D01*
X79981Y109200D01*
X79181Y109600D01*
X78381Y109200D01*
Y103200D02*
X78781Y104000D01*
X78381Y104800D01*
X79181Y104400D01*
X79981Y104800D01*
X79581Y104000D01*
X79981Y103200D01*
X79181Y103600D01*
X78381Y103200D01*
X68381Y116200D02*
X68781Y117000D01*
X68381Y117800D01*
X69181Y117400D01*
X69981Y117800D01*
X69581Y117000D01*
X69981Y116200D01*
X69181Y116600D01*
X68381Y116200D01*
X62381D02*
X62781Y117000D01*
X62381Y117800D01*
X63181Y117400D01*
X63981Y117800D01*
X63581Y117000D01*
X63981Y116200D01*
X63181Y116600D01*
X62381Y116200D01*
X56381D02*
X56781Y117000D01*
X56381Y117800D01*
X57181Y117400D01*
X57981Y117800D01*
X57581Y117000D01*
X57981Y116200D01*
X57181Y116600D01*
X56381Y116200D01*
X76621Y66460D02*
X77021Y67260D01*
X76621Y68060D01*
X77421Y67660D01*
X78221Y68060D01*
X77821Y67260D01*
X78221Y66460D01*
X77421Y66860D01*
X76621Y66460D01*
X65781Y89600D02*
Y89200D01*
X66581D01*
Y89600D01*
X66981D01*
Y90400D01*
X66581D01*
Y90800D01*
X65781D01*
Y90400D01*
X65381D01*
Y89600D01*
X65781D01*
X49781Y96600D02*
Y96200D01*
X50581D01*
Y96600D01*
X50981D01*
Y97400D01*
X50581D01*
Y97800D01*
X49781D01*
Y97400D01*
X49381D01*
Y96600D01*
X49781D01*
X41781Y98600D02*
Y98200D01*
X42581D01*
Y98600D01*
X42981D01*
Y99400D01*
X42581D01*
Y99800D01*
X41781D01*
Y99400D01*
X41381D01*
Y98600D01*
X41781D01*
X46781Y103600D02*
Y103200D01*
X47581D01*
Y103600D01*
X47981D01*
Y104400D01*
X47581D01*
Y104800D01*
X46781D01*
Y104400D01*
X46381D01*
Y103600D01*
X46781D01*
X47881Y26200D02*
X48281Y27000D01*
X47881Y27800D01*
X48681Y27400D01*
X49481Y27800D01*
X49081Y27000D01*
X49481Y26200D01*
X48681Y26600D01*
X47881Y26200D01*
X74781Y43600D02*
Y43200D01*
X75581D01*
Y43600D01*
X75981D01*
Y44400D01*
X75581D01*
Y44800D01*
X74781D01*
Y44400D01*
X74381D01*
Y43600D01*
X74781D01*
X35781Y82600D02*
Y82200D01*
X36581D01*
Y82600D01*
X36981D01*
Y83400D01*
X36581D01*
Y83800D01*
X35781D01*
Y83400D01*
X35381D01*
Y82600D01*
X35781D01*
Y49100D02*
Y48700D01*
X36581D01*
Y49100D01*
X36981D01*
Y49900D01*
X36581D01*
Y50300D01*
X35781D01*
Y49900D01*
X35381D01*
Y49100D01*
X35781D01*
X56381Y66700D02*
X56781Y67500D01*
X56381Y68300D01*
X57181Y67900D01*
X57981Y68300D01*
X57581Y67500D01*
X57981Y66700D01*
X57181Y67100D01*
X56381Y66700D01*
X59381Y70200D02*
X59781Y71000D01*
X59381Y71800D01*
X60181Y71400D01*
X60981Y71800D01*
X60581Y71000D01*
X60981Y70200D01*
X60181Y70600D01*
X59381Y70200D01*
X52381Y26200D02*
X52781Y27000D01*
X52381Y27800D01*
X53181Y27400D01*
X53981Y27800D01*
X53581Y27000D01*
X53981Y26200D01*
X53181Y26600D01*
X52381Y26200D01*
X50281Y38840D02*
Y38440D01*
X51081D01*
Y38840D01*
X51481D01*
Y39640D01*
X51081D01*
Y40040D01*
X50281D01*
Y39640D01*
X49881D01*
Y38840D01*
X50281D01*
X72881Y67200D02*
X73281Y68000D01*
X72881Y68800D01*
X73681Y68400D01*
X74481Y68800D01*
X74081Y68000D01*
X74481Y67200D01*
X73681Y67600D01*
X72881Y67200D01*
X69881Y79700D02*
X70281Y80500D01*
X69881Y81300D01*
X70681Y80900D01*
X71481Y81300D01*
X71081Y80500D01*
X71481Y79700D01*
X70681Y80100D01*
X69881Y79700D01*
X65381Y49200D02*
X65781Y50000D01*
X65381Y50800D01*
X66181Y50400D01*
X66981Y50800D01*
X66581Y50000D01*
X66981Y49200D01*
X66181Y49600D01*
X65381Y49200D01*
X69381D02*
X69781Y50000D01*
X69381Y50800D01*
X70181Y50400D01*
X70981Y50800D01*
X70581Y50000D01*
X70981Y49200D01*
X70181Y49600D01*
X69381Y49200D01*
X53881Y56200D02*
X54281Y57000D01*
X53881Y57800D01*
X54681Y57400D01*
X55481Y57800D01*
X55081Y57000D01*
X55481Y56200D01*
X54681Y56600D01*
X53881Y56200D01*
Y62200D02*
X54281Y63000D01*
X53881Y63800D01*
X54681Y63400D01*
X55481Y63800D01*
X55081Y63000D01*
X55481Y62200D01*
X54681Y62600D01*
X53881Y62200D01*
X42881Y56200D02*
X43281Y57000D01*
X42881Y57800D01*
X43681Y57400D01*
X44481Y57800D01*
X44081Y57000D01*
X44481Y56200D01*
X43681Y56600D01*
X42881Y56200D01*
Y62200D02*
X43281Y63000D01*
X42881Y63800D01*
X43681Y63400D01*
X44481Y63800D01*
X44081Y63000D01*
X44481Y62200D01*
X43681Y62600D01*
X42881Y62200D01*
Y68200D02*
X43281Y69000D01*
X42881Y69800D01*
X43681Y69400D01*
X44481Y69800D01*
X44081Y69000D01*
X44481Y68200D01*
X43681Y68600D01*
X42881Y68200D01*
X38381Y116200D02*
X38781Y117000D01*
X38381Y117800D01*
X39181Y117400D01*
X39981Y117800D01*
X39581Y117000D01*
X39981Y116200D01*
X39181Y116600D01*
X38381Y116200D01*
X32381D02*
X32781Y117000D01*
X32381Y117800D01*
X33181Y117400D01*
X33981Y117800D01*
X33581Y117000D01*
X33981Y116200D01*
X33181Y116600D01*
X32381Y116200D01*
X22381Y109200D02*
X22781Y110000D01*
X22381Y110800D01*
X23181Y110400D01*
X23981Y110800D01*
X23581Y110000D01*
X23981Y109200D01*
X23181Y109600D01*
X22381Y109200D01*
X78381Y97200D02*
X78781Y98000D01*
X78381Y98800D01*
X79181Y98400D01*
X79981Y98800D01*
X79581Y98000D01*
X79981Y97200D01*
X79181Y97600D01*
X78381Y97200D01*
X22381Y103200D02*
X22781Y104000D01*
X22381Y104800D01*
X23181Y104400D01*
X23981Y104800D01*
X23581Y104000D01*
X23981Y103200D01*
X23181Y103600D01*
X22381Y103200D01*
Y97200D02*
X22781Y98000D01*
X22381Y98800D01*
X23181Y98400D01*
X23981Y98800D01*
X23581Y98000D01*
X23981Y97200D01*
X23181Y97600D01*
X22381Y97200D01*
Y91200D02*
X22781Y92000D01*
X22381Y92800D01*
X23181Y92400D01*
X23981Y92800D01*
X23581Y92000D01*
X23981Y91200D01*
X23181Y91600D01*
X22381Y91200D01*
Y85200D02*
X22781Y86000D01*
X22381Y86800D01*
X23181Y86400D01*
X23981Y86800D01*
X23581Y86000D01*
X23981Y85200D01*
X23181Y85600D01*
X22381Y85200D01*
Y79200D02*
X22781Y80000D01*
X22381Y80800D01*
X23181Y80400D01*
X23981Y80800D01*
X23581Y80000D01*
X23981Y79200D01*
X23181Y79600D01*
X22381Y79200D01*
Y73200D02*
X22781Y74000D01*
X22381Y74800D01*
X23181Y74400D01*
X23981Y74800D01*
X23581Y74000D01*
X23981Y73200D01*
X23181Y73600D01*
X22381Y73200D01*
X50381Y116200D02*
X50781Y117000D01*
X50381Y117800D01*
X51181Y117400D01*
X51981Y117800D01*
X51581Y117000D01*
X51981Y116200D01*
X51181Y116600D01*
X50381Y116200D01*
X22381Y67200D02*
X22781Y68000D01*
X22381Y68800D01*
X23181Y68400D01*
X23981Y68800D01*
X23581Y68000D01*
X23981Y67200D01*
X23181Y67600D01*
X22381Y67200D01*
Y61200D02*
X22781Y62000D01*
X22381Y62800D01*
X23181Y62400D01*
X23981Y62800D01*
X23581Y62000D01*
X23981Y61200D01*
X23181Y61600D01*
X22381Y61200D01*
Y55200D02*
X22781Y56000D01*
X22381Y56800D01*
X23181Y56400D01*
X23981Y56800D01*
X23581Y56000D01*
X23981Y55200D01*
X23181Y55600D01*
X22381Y55200D01*
Y49200D02*
X22781Y50000D01*
X22381Y50800D01*
X23181Y50400D01*
X23981Y50800D01*
X23581Y50000D01*
X23981Y49200D01*
X23181Y49600D01*
X22381Y49200D01*
X44381Y116200D02*
X44781Y117000D01*
X44381Y117800D01*
X45181Y117400D01*
X45981Y117800D01*
X45581Y117000D01*
X45981Y116200D01*
X45181Y116600D01*
X44381Y116200D01*
X22381Y43200D02*
X22781Y44000D01*
X22381Y44800D01*
X23181Y44400D01*
X23981Y44800D01*
X23581Y44000D01*
X23981Y43200D01*
X23181Y43600D01*
X22381Y43200D01*
Y37200D02*
X22781Y38000D01*
X22381Y38800D01*
X23181Y38400D01*
X23981Y38800D01*
X23581Y38000D01*
X23981Y37200D01*
X23181Y37600D01*
X22381Y37200D01*
Y31200D02*
X22781Y32000D01*
X22381Y32800D01*
X23181Y32400D01*
X23981Y32800D01*
X23581Y32000D01*
X23981Y31200D01*
X23181Y31600D01*
X22381Y31200D01*
Y25200D02*
X22781Y26000D01*
X22381Y26800D01*
X23181Y26400D01*
X23981Y26800D01*
X23581Y26000D01*
X23981Y25200D01*
X23181Y25600D01*
X22381Y25200D01*
Y19200D02*
X22781Y20000D01*
X22381Y20800D01*
X23181Y20400D01*
X23981Y20800D01*
X23581Y20000D01*
X23981Y19200D01*
X23181Y19600D01*
X22381Y19200D01*
X51881Y34700D02*
X52281Y35500D01*
X51881Y36300D01*
X52681Y35900D01*
X53481Y36300D01*
X53081Y35500D01*
X53481Y34700D01*
X52681Y35100D01*
X51881Y34700D01*
X67381Y26200D02*
X67781Y27000D01*
X67381Y27800D01*
X68181Y27400D01*
X68981Y27800D01*
X68581Y27000D01*
X68981Y26200D01*
X68181Y26600D01*
X67381Y26200D01*
X56881D02*
X57281Y27000D01*
X56881Y27800D01*
X57681Y27400D01*
X58481Y27800D01*
X58081Y27000D01*
X58481Y26200D01*
X57681Y26600D01*
X56881Y26200D01*
D65*
X27981Y226575D02*
G03*
X27981Y226575I-800J0D01*
G01*
Y216575D02*
G03*
X27981Y216575I-800J0D01*
G01*
Y206575D02*
G03*
X27981Y206575I-800J0D01*
G01*
X74981Y215575D02*
G03*
X74981Y215575I-800J0D01*
G01*
X59981D02*
G03*
X59981Y215575I-800J0D01*
G01*
X44981D02*
G03*
X44981Y215575I-800J0D01*
G01*
X90973Y226575D02*
G03*
X90973Y226575I-800J0D01*
G01*
Y216575D02*
G03*
X90973Y216575I-800J0D01*
G01*
Y206575D02*
G03*
X90973Y206575I-800J0D01*
G01*
X137973Y215575D02*
G03*
X137973Y215575I-800J0D01*
G01*
X122973D02*
G03*
X122973Y215575I-800J0D01*
G01*
X107973D02*
G03*
X107973Y215575I-800J0D01*
G01*
X153965Y226575D02*
G03*
X153965Y226575I-800J0D01*
G01*
Y216575D02*
G03*
X153965Y216575I-800J0D01*
G01*
Y206575D02*
G03*
X153965Y206575I-800J0D01*
G01*
X200965Y215575D02*
G03*
X200965Y215575I-800J0D01*
G01*
X185965D02*
G03*
X185965Y215575I-800J0D01*
G01*
X170965D02*
G03*
X170965Y215575I-800J0D01*
G01*
X216957Y226575D02*
G03*
X216957Y226575I-800J0D01*
G01*
Y216575D02*
G03*
X216957Y216575I-800J0D01*
G01*
Y206575D02*
G03*
X216957Y206575I-800J0D01*
G01*
X263958Y215575D02*
G03*
X263958Y215575I-800J0D01*
G01*
X248957D02*
G03*
X248957Y215575I-800J0D01*
G01*
X233958D02*
G03*
X233958Y215575I-800J0D01*
G01*
X279950Y226575D02*
G03*
X279950Y226575I-800J0D01*
G01*
Y216575D02*
G03*
X279950Y216575I-800J0D01*
G01*
Y206575D02*
G03*
X279950Y206575I-800J0D01*
G01*
X326950Y215575D02*
G03*
X326950Y215575I-800J0D01*
G01*
X311950D02*
G03*
X311950Y215575I-800J0D01*
G01*
X296950D02*
G03*
X296950Y215575I-800J0D01*
G01*
X327950Y175000D02*
G03*
X327950Y175000I-800J0D01*
G01*
Y185000D02*
G03*
X327950Y185000I-800J0D01*
G01*
Y195000D02*
G03*
X327950Y195000I-800J0D01*
G01*
X280950Y186000D02*
G03*
X280950Y186000I-800J0D01*
G01*
X295950D02*
G03*
X295950Y186000I-800J0D01*
G01*
X310950D02*
G03*
X310950Y186000I-800J0D01*
G01*
X264957Y175000D02*
G03*
X264957Y175000I-800J0D01*
G01*
Y185000D02*
G03*
X264957Y185000I-800J0D01*
G01*
Y195000D02*
G03*
X264957Y195000I-800J0D01*
G01*
X217957Y186000D02*
G03*
X217957Y186000I-800J0D01*
G01*
X232958D02*
G03*
X232958Y186000I-800J0D01*
G01*
X247957D02*
G03*
X247957Y186000I-800J0D01*
G01*
X201965Y175000D02*
G03*
X201965Y175000I-800J0D01*
G01*
Y185000D02*
G03*
X201965Y185000I-800J0D01*
G01*
Y195000D02*
G03*
X201965Y195000I-800J0D01*
G01*
X154965Y186000D02*
G03*
X154965Y186000I-800J0D01*
G01*
X169965D02*
G03*
X169965Y186000I-800J0D01*
G01*
X184965D02*
G03*
X184965Y186000I-800J0D01*
G01*
X138973Y175000D02*
G03*
X138973Y175000I-800J0D01*
G01*
Y185000D02*
G03*
X138973Y185000I-800J0D01*
G01*
Y195000D02*
G03*
X138973Y195000I-800J0D01*
G01*
X91973Y186000D02*
G03*
X91973Y186000I-800J0D01*
G01*
X106973D02*
G03*
X106973Y186000I-800J0D01*
G01*
X121973D02*
G03*
X121973Y186000I-800J0D01*
G01*
X75981Y175000D02*
G03*
X75981Y175000I-800J0D01*
G01*
Y185000D02*
G03*
X75981Y185000I-800J0D01*
G01*
Y195000D02*
G03*
X75981Y195000I-800J0D01*
G01*
X28981Y186000D02*
G03*
X28981Y186000I-800J0D01*
G01*
X43981D02*
G03*
X43981Y186000I-800J0D01*
G01*
X58981D02*
G03*
X58981Y186000I-800J0D01*
G01*
M02*
