M48
;Layer_Color=9474304
;FILE_FORMAT=2:5
INCH,LZ
;TYPE=PLATED
T1F00S00C0.01181
T2F00S00C0.01575
T5F00S00C0.03543
T6F00S00C0.07874
%
T01
X0023181Y002
Y0026
Y0032
Y0038
Y0044
Y005
Y0056
Y0062
Y0068
Y0074
Y008
Y0086
Y0092
Y0098
Y0104
Y011
X0033181Y0117
X0039181
X0045181
X0051181
X0057181
X0063181
X0069181
X0079181Y011
Y0104
Y0098
Y0092
Y0086
Y008
X0086173
Y0086
Y0092
Y0098
Y0104
Y011
X0096173Y0117
X0102173
X0108173
X0114173
X0120173
X0126173
X0132173
X0142173Y011
Y0104
Y0098
Y0092
Y0086
Y008
X0149165
Y0086
Y0092
Y0098
Y0104
Y011
Y0074
Y0068
Y0062
Y0056
Y005
Y0044
Y0038
Y0032
Y0026
Y002
X0131173Y0027
X0120673
X0116173
X0111673
X0115673Y00355
X0117673Y0057
Y0063
X0120173Y00675
X0123173Y0071
X0136673Y0068
X0140413Y006726
X0133673Y00805
X0133173Y005
X0129173
X0106673Y0057
Y0063
Y0069
X0086173Y0068
Y0074
Y0062
Y0056
Y005
Y0044
Y0038
Y0032
Y0026
Y002
X0068181Y0027
X0057681
X0053181
X0048681
X0052681Y00355
X0054681Y0057
Y0063
X0057181Y00675
X0060181Y0071
X0073681Y0068
X0077421Y006726
X0070681Y00805
X0070181Y005
X0066181
X0043681Y0057
Y0063
Y0069
X0045181Y0136
X0051181
X0057181
X0063181
X0069181
X0079181Y0148
Y0154
X0086173
Y0148
X0096173Y0136
X0102173
X0108173
X0114173
X0120173
X0126173
X0132173
X0142173Y0148
Y0154
X0149165
Y0148
X0125173Y0154
X0062181
X0023181
Y0148
X0033181Y0136
X0039181
X0159165
X0165165
X0171165
X0177165
X0183165
X0189165
X0195165
Y0117
X0189165
X0183165
X0177165
X0171165
X0165165
X0159165
X0205165Y011
Y0104
Y0098
Y0092
Y0086
Y008
X0212158
Y0086
Y0092
Y0098
Y0104
Y011
X0222158Y0117
X0228157
X0234157
X0240158
X0246158
X0252157
X0258157
X0268158Y011
Y0104
Y0098
Y0092
Y0086
Y008
X027515
Y0086
Y0092
Y0098
Y0104
Y011
X028515Y0117
X029115
X029715
X030315
X030915
Y0136
X030315
X029715
X029115
X028515
X027515Y0148
Y0154
X0268158
Y0148
X0258157Y0136
X0252157
X0246158
X0240158
X0234157
X0228157
X0222158
X0212158Y0148
Y0154
X0205165
Y0148
X0188165Y0154
X0251157
X0259658Y00805
X0262657Y0068
X0266398Y006726
X027515Y0068
Y0074
Y0062
Y0056
Y005
Y0044
Y0038
Y0032
Y0026
Y002
X0257157Y0027
X0246657
X0242158
X0237657
X0241657Y00355
X0243657Y0057
Y0063
X0246158Y00675
X0249158Y0071
X0232658Y0069
Y0063
Y0057
X0212158Y0056
Y0062
Y0068
Y0074
X0203405Y006726
X0199665Y0068
X0196665Y00805
X0186165Y0071
X0183165Y00675
X0180665Y0063
Y0057
X0169665
Y0063
Y0069
X0192165Y005
X0196165
X0212158
Y0044
Y0038
Y0032
Y0026
Y002
X0194165Y0027
X0183665
X0179165
X0174665
X0178665Y00355
X0255157Y005
X0259157
X029565Y0057
Y0063
Y0069
X030915Y00675
X031215Y0071
X030665Y0063
Y0057
X030465Y00355
X030515Y0027
X030065
X030965
X032015
X031815Y005
X032215
X032565Y0068
X032939Y006726
X033115Y008
Y0086
Y0092
Y0098
Y0104
Y011
X032115Y0117
X031515
Y0136
X032115
X033115Y0148
Y0154
X031415
X032265Y00805
X033115Y016
Y0166
X033115Y0207575
Y0225575
X032415
X033115Y0235575
Y0241575
Y0247575
Y0253575
X032115Y0265575
X031515
Y0284575
X032115
X033115Y0291575
Y0297575
Y0303575
Y0309575
X030915Y0284575
X030315
X029715
X029115
X028515
X027515Y0291575
Y0297575
Y0303575
Y0309575
X0268158
Y0303575
Y0297575
Y0291575
X0258157Y0284575
X0252157
X0246158
X0240158
X0234157
X0228157
X0222158
X0212158Y0291575
Y0297575
Y0303575
Y0309575
X0205165
Y0303575
Y0297575
Y0291575
X0195165Y0284575
X0189165
X0183165
X0177165
X0171165
X0165165
X0159165
Y0265575
X0165165
X0171165
X0177165
X0183165
X0189165
X0195165
X0205165Y0253575
Y0247575
Y0241575
Y0235575
X0212158
Y0241575
Y0247575
Y0253575
X0222158Y0265575
X0228157
X0234157
X0240158
X0246158
X0252157
X0258157
X0268158Y0253575
Y0247575
Y0241575
Y0235575
X027515
Y0241575
Y0247575
Y0253575
X028515Y0265575
X029115
X029715
X030315
X030915
X029215Y0247575
X029515Y0227575
X030615
X0268158Y0225575
X0261157
X0243158Y0227575
X0232157
X0229157Y0247575
X0205165Y0225575
X0198165
X0180165Y0227575
X0169165
X0166165Y0247575
X0205165Y0207575
X0212158Y0194
Y0176
X0219158
X0212158Y0166
Y016
X0205165
Y0166
X0185165Y0174
X0174165
X0237158
X0248158
X0268158Y0166
Y016
X027515
Y0166
Y0176
X028215
X030015Y0174
X031115
X027515Y0194
X0268158Y0207575
X0142173
Y0225575
X0135173
X0142173Y0235575
Y0241575
Y0247575
Y0253575
X0149165
Y0247575
Y0241575
Y0235575
X0117173Y0227575
X0106173
X0103173Y0247575
X0086173
Y0241575
Y0235575
X0079181
Y0241575
Y0247575
Y0253575
X0086173
X0096173Y0265575
X0102173
X0108173
X0114173
X0120173
X0126173
X0132173
Y0284575
X0126173
X0120173
X0114173
X0108173
X0102173
X0096173
X0086173Y0291575
Y0297575
Y0303575
Y0309575
X0079181
Y0303575
Y0297575
Y0291575
X0069181Y0284575
X0063181
X0057181
X0051181
X0045181
X0039181
X0033181
X0023181Y0291575
Y0297575
Y0303575
Y0309575
X0033181Y0265575
X0039181
X0045181
X0051181
X0057181
X0063181
X0069181
X0072181Y0225575
X0079181
Y0207575
X0086173Y0194
Y0176
X0093173
X0086173Y0166
Y016
X0079181
Y0166
X0059181Y0174
X0048181
X0030181Y0176
X0023181
Y0166
Y016
Y0194
X0023181Y0235575
Y0241575
Y0247575
Y0253575
X0040181Y0247575
X0043181Y0227575
X0054181
X0111173Y0174
X0122173
X0142173Y0166
Y016
X0149165
Y0166
Y0176
X0156165
X0149165Y0194
X0149165Y0291575
Y0297575
Y0303575
Y0309575
X0142173
Y0303575
Y0297575
Y0291575
Y0315575
Y0321575
Y0327575
Y0333575
Y0339575
Y0345575
Y0351575
Y0357575
Y0363575
Y0369575
Y0375575
Y0381575
X0116673Y0374575
X0112173
X0107673
X0097173
X0079181Y0375575
Y0369575
Y0363575
Y0357575
Y0351575
Y0345575
Y0339575
Y0333575
Y0327575
Y0321575
Y0315575
X0086173
Y0321575
X0094673Y0321075
X0091673Y0333575
X0087933Y0334315
X0108173Y0334075
X0105173Y0330575
X0110673Y0338575
Y0344575
X0121673
Y0338575
Y0332575
X0150925Y0334315
X0154665Y0333575
X0149165Y0321575
Y0315575
X0099173Y0351575
X0095173
X0112673Y0366075
X0079181Y0381575
X0053681Y0374575
X0049181
X0044681
X0034181
X0049681Y0366075
X0047681Y0344575
Y0338575
X0045181Y0334075
X0042181Y0330575
X0028681Y0333575
X0024941Y0334315
X0023181Y0321575
Y0315575
X0031681Y0321075
X0032181Y0351575
X0036181
X0058681Y0344575
Y0338575
Y0332575
X0157665Y0321075
X0168165Y0330575
X0171165Y0334075
X0173665Y0338575
Y0344575
X0184665
Y0338575
Y0332575
X0205165Y0333575
Y0327575
Y0321575
Y0315575
X0212158
Y0321575
X0220657Y0321075
X0217657Y0333575
X0213917Y0334315
X0205165Y0339575
Y0345575
Y0351575
Y0357575
Y0363575
Y0369575
Y0375575
Y0381575
X0223158Y0374575
X0233658
X0238158
X0242657
X0238657Y0366075
X0236658Y0344575
Y0338575
X0234157Y0334075
X0231157Y0330575
X0247657Y0332575
Y0338575
Y0344575
X0268158Y0345575
Y0339575
Y0333575
Y0327575
Y0321575
Y0315575
X027515
Y0321575
X028365Y0321075
X028065Y0333575
X0276909Y0334315
X029715Y0334075
X029415Y0330575
X029965Y0338575
Y0344575
X031065
Y0338575
Y0332575
X028815Y0351575
X028415
X0268158
Y0357575
Y0363575
Y0369575
Y0375575
Y0381575
X028615Y0374575
X029665
X030115
X030565
X030165Y0366075
X0225157Y0351575
X0221158
X0162165
X0158165
X0160165Y0374575
X0170665
X0175165
X0179665
X0175665Y0366075
X033115Y0363575
Y0357575
Y0351575
Y0345575
Y0339575
Y0333575
Y0327575
Y0321575
Y0315575
Y0369575
Y0375575
Y0381575
T02
X0036181Y00495
X0050681Y003924
X0075181Y0044
X0099173Y00495
X0113673Y003924
X0138173Y0044
X0129173Y009
X0113173Y0097
X0105173Y0099
X0110173Y0104
X0099173Y0083
X0066181Y009
X0050181Y0097
X0042181Y0099
X0047181Y0104
X0036181Y0083
X0162165
X0168165Y0099
X0176165Y0097
X0173165Y0104
X0192165Y009
X0225157Y0083
X0231157Y0099
X0239158Y0097
X0236157Y0104
X0255157Y009
X028815Y0083
X029415Y0099
X030215Y0097
X029915Y0104
X028815Y00495
X030265Y003924
X0264158Y0044
X0239657Y003924
X0225157Y00495
X0201165Y0044
X0176665Y003924
X0162165Y00495
X032715Y0044
X031815Y009
X031215Y0302575
X030415Y0304575
X030715Y0297575
X028815Y0311575
X0249158Y0302575
X0241158Y0304575
X0244158Y0297575
X0225157Y0311575
X0186165Y0302575
X0178165Y0304575
X0181165Y0297575
X0162165Y0311575
X0123173Y0302575
X0115173Y0304575
X0118173Y0297575
X0099173Y0311575
X0060181Y0302575
X0052181Y0304575
X0055181Y0297575
X0036181Y0311575
X0066181Y0318575
Y0352075
X0051681Y0362335
X0027181Y0357575
X0090173
X0114673Y0362335
X0129173Y0352075
X0153165Y0357575
X0129173Y0318575
X0192165
Y0352075
X0177665Y0362335
X0216158Y0357575
X0240657Y0362335
X0255157Y0352075
X027915Y0357575
X030365Y0362335
X0255157Y0318575
X031815
Y0352075
T05
X032715Y0175
Y0185
Y0195
X032615Y0215575
X031115
X029615
X027915Y0216575
Y0226575
Y0206575
X028015Y0186
X029515
X031015
X0264158Y0185
Y0175
Y0195
X0263158Y0215575
X0248158
X0233157
X0216158Y0216575
Y0226575
Y0206575
X0217158Y0186
X0232157
X0247158
X0201165Y0185
Y0175
Y0195
X0200165Y0215575
X0185165
X0170165
X0169165Y0186
X0184165
X0154165
X0138173Y0185
Y0175
Y0195
X0137173Y0215575
X0122173
X0107173
X0090173Y0216575
Y0226575
Y0206575
X0091173Y0186
X0106173
X0121173
X0075181Y0185
Y0175
Y0195
X0074181Y0215575
X0059181
X0044181
X0027181Y0216575
Y0226575
Y0206575
X0028181Y0186
X0043181
X0058181
X0153165Y0206575
Y0216575
Y0226575
T06
X0009843Y0009843
X0344488
X0009843Y0391732
X0344488
M30
